<?xml version="1.0" encoding="UTF-8"?>
<!DOCTYPE svg PUBLIC "-//W3C//DTD SVG 1.1//EN" "http://www.w3.org/Graphics/SVG/1.1/DTD/svg11.dtd">
<svg version="1.1" xmlns="http://www.w3.org/2000/svg" xmlns:xlink="http://www.w3.org/1999/xlink" x="0" y="0" width="200" height="64" viewBox="0, 0, 200, 64">
  <g id="Background">
    <rect x="0" y="0" width="200" height="64" fill="#FFFFFF"/>
  </g>
  <g id="Main">
    <g id="Cross">
      <path d="M11.37,37.237 C12.069,36.29 12.821,35.334 13.617,34.378 C13.315,33.802 13.141,33.148 13.139,32.453 C8.264,31.391 3.733,31.578 -0,32.218 L-0,40.377 L9.196,40.377 C9.879,39.33 10.6,38.282 11.37,37.237" fill="#00B092" id="path3448"/>
      <path d="M21.491,32.361 C22.253,32.722 23.005,33.111 23.748,33.527 C24.496,32.822 25.502,32.387 26.611,32.387 C27.934,32.387 29.111,33.003 29.876,33.962 C31.948,33.328 34.081,32.841 36.271,32.556 C37.318,32.42 38.359,32.341 39.395,32.3 C39.603,31.701 39.939,31.163 40.376,30.723 C39.237,28.115 37.897,25.644 36.353,23.315 C35.89,23.492 35.39,23.593 34.865,23.593 C33.838,23.593 32.899,23.221 32.172,22.607 C28.149,24.776 24.442,27.436 21.053,30.578 C21.322,31.116 21.479,31.72 21.491,32.361" fill="#00B092" id="path3450"/>
      <path d="M22.433,36.565 C22.433,36.385 22.448,36.208 22.47,36.033 C21.847,35.681 21.216,35.353 20.58,35.043 C19.814,36.001 18.638,36.617 17.316,36.617 C16.737,36.617 16.186,36.498 15.684,36.286 C14.985,37.136 14.297,38.004 13.632,38.906 C13.271,39.395 12.923,39.886 12.582,40.377 L16.565,40.377 C18.426,39.153 20.393,37.999 22.453,36.963 C22.44,36.832 22.433,36.7 22.433,36.565" fill="#00B092" id="path3452"/>
      <path d="M40.984,50.538 L40.984,40.377 L43.514,40.377 C43.316,39.513 43.103,38.659 42.87,37.819 C41.277,37.641 39.959,36.567 39.422,35.113 C38.497,35.151 37.568,35.222 36.633,35.343 C34.639,35.602 32.688,36.045 30.786,36.626 C30.778,37.196 30.657,37.737 30.443,38.23 C34.257,41.496 37.775,45.604 40.984,50.538" fill="#00B092" id="path3454"/>
      <path d="M28.52,40.279 C27.947,40.574 27.3,40.744 26.611,40.744 C25.462,40.744 24.422,40.279 23.666,39.528 C22.582,40.079 21.523,40.663 20.492,41.277 L20.492,60.264 L40.984,60.264 L40.984,55.941 C37.281,49.422 33.119,44.193 28.52,40.279" fill="#00B092" id="path3456"/>
      <path d="M31.198,12.861 C32.019,13.638 32.856,14.488 33.695,15.405 C34.067,15.297 34.459,15.236 34.865,15.236 C36.236,15.236 37.45,15.9 38.212,16.92 C39.113,16.583 40.04,16.266 40.984,15.961 L40.984,-0 L20.492,-0 L20.492,5.069 C23.668,6.805 27.451,9.317 31.198,12.861" fill="#00B092" id="path3458"/>
      <path d="M46.969,35.734 C46.629,36.33 46.148,36.832 45.57,37.198 C45.856,38.228 46.121,39.287 46.362,40.377 L58.115,40.377 C54.512,38.089 50.79,36.539 46.969,35.734" fill="#00B092" id="path3460"/>
      <path d="M14.089,29.784 C14.855,28.853 16.016,28.26 17.316,28.26 C17.941,28.26 18.532,28.4 19.064,28.646 C22.35,25.621 26.23,22.753 30.782,20.296 C30.721,20.012 30.687,19.717 30.687,19.414 C30.687,18.544 30.954,17.736 31.409,17.067 C30.719,16.328 30.008,15.604 29.267,14.903 C26.252,12.052 23.189,9.901 20.492,8.313 L20.492,19.886 L-0,19.886 L-0,29.342 C4.024,28.703 8.863,28.581 14.089,29.784" fill="#00B092" id="path3462"/>
      <path d="M40.984,19.886 L40.984,18.798 C40.33,19.017 39.681,19.248 39.04,19.488 C39.027,20.226 38.822,20.916 38.473,21.514 C40.044,23.872 41.531,26.533 42.844,29.521 C43.007,29.502 43.172,29.49 43.339,29.49 C45.405,29.49 47.115,30.989 47.453,32.957 C52.296,33.959 56.981,36.062 61.475,39.25 L61.475,19.886 L40.984,19.886" fill="#00B092" id="path3464"/>
    </g>
    <g id="ALiEM">
      <path d="M92.184,8.608 L88.879,17.063 L95.528,17.063 L92.184,8.608 z M89.879,0.692 L94.836,0.692 L106.673,27.9 L99.909,27.9 L97.565,22.136 L86.996,22.136 L84.729,27.9 L78.12,27.9 L89.879,0.692" fill="#706D6E" id="path3466"/>
      <path d="M109.631,0.692 L115.626,0.692 L115.626,22.366 L126.733,22.366 L126.733,27.9 L109.631,27.9 L109.631,0.692" fill="#706D6E" id="path3468"/>
      <path d="M129.384,9.223 L135.148,9.223 L135.148,27.9 L129.384,27.9 L129.384,9.223 z M128.923,3.344 C128.923,2.421 129.249,1.633 129.903,0.98 C130.556,0.327 131.344,-0 132.266,-0 C133.188,-0 133.976,0.327 134.63,0.98 C135.283,1.633 135.609,2.421 135.609,3.344 C135.609,4.266 135.283,5.054 134.63,5.707 C133.976,6.36 133.188,6.687 132.266,6.687 C131.344,6.687 130.556,6.36 129.903,5.707 C129.249,5.054 128.923,4.266 128.923,3.344" fill="#706D6E" id="path3470"/>
      <path d="M140.259,0.692 L158.744,0.692 L158.744,6.226 L146.254,6.226 L146.254,11.298 L158.052,11.298 L158.052,16.832 L146.254,16.832 L146.254,22.366 L159.436,22.366 L159.436,27.9 L140.259,27.9 L140.259,0.692" fill="#706D6E" id="path3472"/>
      <path d="M164.239,0.692 L173.308,0.692 L179.572,18.446 L179.649,18.446 L185.952,0.692 L194.982,0.692 L194.982,27.9 L188.987,27.9 L188.987,7.033 L188.911,7.033 L181.763,27.9 L177.19,27.9 L170.311,7.033 L170.234,7.033 L170.234,27.9 L164.239,27.9 L164.239,0.692" fill="#706D6E" id="path3474"/>
    </g>
    <g id="Text">
      <path d="M82.66,37.333 L82.634,37.333 L80.727,41.847 L84.476,41.847 L82.66,37.333 z M82.167,35.932 L83.191,35.932 L87.096,45.116 L85.824,45.116 L84.891,42.859 L80.299,42.859 L79.352,45.116 L78.12,45.116 L82.167,35.932" fill="#706D6E" id="path3476"/>
      <path d="M92.453,40.563 C92.237,40.304 92.003,40.116 91.753,39.999 C91.502,39.882 91.226,39.824 90.922,39.824 C90.585,39.824 90.287,39.882 90.028,39.999 C89.768,40.116 89.554,40.278 89.385,40.485 C89.217,40.693 89.089,40.933 89.003,41.205 C88.916,41.477 88.873,41.769 88.873,42.081 C88.873,42.392 88.923,42.684 89.022,42.956 C89.121,43.229 89.26,43.469 89.438,43.676 C89.615,43.884 89.828,44.046 90.079,44.163 C90.33,44.279 90.611,44.338 90.922,44.338 C91.588,44.338 92.103,44.087 92.466,43.586 L93.219,44.299 C92.925,44.636 92.578,44.883 92.181,45.038 C91.783,45.194 91.364,45.272 90.922,45.272 C90.456,45.272 90.028,45.194 89.638,45.038 C89.249,44.883 88.919,44.662 88.646,44.377 C88.373,44.091 88.162,43.754 88.011,43.365 C87.859,42.976 87.783,42.548 87.783,42.081 C87.783,41.622 87.859,41.199 88.011,40.809 C88.162,40.42 88.376,40.083 88.653,39.798 C88.929,39.512 89.26,39.29 89.645,39.13 C90.029,38.97 90.456,38.89 90.922,38.89 C91.372,38.89 91.798,38.967 92.2,39.123 C92.602,39.279 92.955,39.521 93.257,39.849 L92.453,40.563" fill="#706D6E" id="path3478"/>
      <path d="M97.24,42.198 C96.591,42.198 96.077,42.288 95.696,42.47 C95.315,42.651 95.125,42.95 95.125,43.365 C95.125,43.746 95.253,44.016 95.508,44.176 C95.763,44.336 96.081,44.415 96.462,44.415 C96.755,44.415 97.013,44.366 97.234,44.266 C97.454,44.167 97.637,44.035 97.784,43.871 C97.932,43.706 98.044,43.514 98.122,43.293 C98.199,43.073 98.243,42.838 98.252,42.586 L98.252,42.198 L97.24,42.198 z M94.308,39.824 C94.62,39.504 94.989,39.268 95.417,39.117 C95.845,38.965 96.28,38.89 96.721,38.89 C97.62,38.89 98.268,39.102 98.667,39.525 C99.064,39.949 99.263,40.593 99.263,41.458 L99.263,44.065 C99.263,44.238 99.272,44.418 99.289,44.604 C99.307,44.79 99.328,44.96 99.354,45.116 L98.381,45.116 C98.347,44.978 98.327,44.824 98.323,44.656 C98.318,44.487 98.316,44.338 98.316,44.208 L98.29,44.208 C98.092,44.519 97.825,44.775 97.493,44.973 C97.16,45.172 96.76,45.272 96.293,45.272 C95.981,45.272 95.69,45.233 95.417,45.155 C95.145,45.077 94.907,44.963 94.704,44.811 C94.501,44.66 94.338,44.472 94.217,44.247 C94.096,44.022 94.036,43.763 94.036,43.469 C94.036,42.967 94.165,42.574 94.425,42.288 C94.685,42.003 95.006,41.791 95.392,41.652 C95.776,41.514 96.191,41.428 96.637,41.393 C97.082,41.359 97.491,41.341 97.862,41.341 L98.252,41.341 L98.252,41.16 C98.252,40.719 98.12,40.386 97.856,40.161 C97.592,39.936 97.222,39.824 96.747,39.824 C96.418,39.824 96.096,39.878 95.78,39.986 C95.465,40.094 95.186,40.26 94.944,40.485 L94.308,39.824" fill="#706D6E" id="path3480"/>
      <path d="M106.164,42.081 C106.164,41.761 106.114,41.464 106.015,41.192 C105.916,40.92 105.771,40.682 105.58,40.479 C105.39,40.276 105.163,40.115 104.899,39.999 C104.635,39.882 104.339,39.824 104.011,39.824 C103.682,39.824 103.386,39.882 103.122,39.999 C102.859,40.115 102.631,40.276 102.441,40.479 C102.251,40.682 102.106,40.92 102.007,41.192 C101.907,41.464 101.857,41.761 101.857,42.081 C101.857,42.401 101.907,42.697 102.007,42.969 C102.106,43.242 102.251,43.48 102.441,43.683 C102.631,43.886 102.859,44.046 103.122,44.163 C103.386,44.279 103.682,44.338 104.011,44.338 C104.339,44.338 104.635,44.279 104.899,44.163 C105.163,44.046 105.39,43.886 105.58,43.683 C105.771,43.48 105.916,43.242 106.015,42.969 C106.114,42.697 106.164,42.401 106.164,42.081 z M106.164,44.039 L106.138,44.039 C105.948,44.385 105.647,44.677 105.236,44.915 C104.826,45.153 104.348,45.272 103.803,45.272 C103.379,45.272 102.982,45.192 102.61,45.032 C102.238,44.872 101.916,44.649 101.644,44.364 C101.371,44.078 101.157,43.741 101.002,43.352 C100.846,42.963 100.768,42.539 100.768,42.081 C100.768,41.622 100.846,41.199 101.002,40.809 C101.157,40.42 101.373,40.083 101.65,39.798 C101.926,39.512 102.262,39.29 102.655,39.13 C103.049,38.97 103.483,38.89 103.959,38.89 C104.4,38.89 104.804,38.981 105.172,39.162 C105.539,39.344 105.861,39.599 106.138,39.927 L106.164,39.927 L106.164,35.31 L107.176,35.31 L107.176,45.116 L106.164,45.116 L106.164,44.039" fill="#706D6E" id="path3482"/>
      <path d="M113.597,41.536 C113.579,41.017 113.411,40.602 113.091,40.291 C112.771,39.979 112.33,39.824 111.768,39.824 C111.206,39.824 110.751,39.979 110.406,40.291 C110.059,40.602 109.852,41.017 109.783,41.536 L113.597,41.536 z M114.466,44.013 C114.102,44.48 113.705,44.807 113.273,44.993 C112.84,45.179 112.338,45.272 111.768,45.272 C111.292,45.272 110.864,45.187 110.483,45.019 C110.103,44.85 109.781,44.623 109.518,44.338 C109.253,44.052 109.05,43.715 108.908,43.326 C108.764,42.937 108.694,42.522 108.694,42.081 C108.694,41.614 108.771,41.184 108.927,40.79 C109.082,40.397 109.298,40.059 109.575,39.778 C109.852,39.497 110.181,39.279 110.561,39.123 C110.942,38.967 111.357,38.89 111.806,38.89 C112.23,38.89 112.62,38.961 112.974,39.104 C113.328,39.246 113.633,39.454 113.889,39.726 C114.144,39.999 114.341,40.332 114.478,40.725 C114.617,41.119 114.686,41.566 114.686,42.068 L114.686,42.392 L109.783,42.392 C109.8,42.651 109.863,42.9 109.971,43.138 C110.079,43.376 110.22,43.583 110.393,43.76 C110.566,43.938 110.769,44.078 111.002,44.182 C111.236,44.286 111.491,44.338 111.768,44.338 C112.209,44.338 112.58,44.26 112.883,44.104 C113.186,43.949 113.458,43.72 113.701,43.417 L114.466,44.013" fill="#706D6E" id="path3484"/>
      <path d="M116.256,40.485 C116.256,40.208 116.247,39.949 116.23,39.707 C116.212,39.465 116.204,39.244 116.204,39.045 L117.164,39.045 C117.164,39.21 117.168,39.374 117.177,39.538 C117.186,39.703 117.19,39.871 117.19,40.044 L117.216,40.044 C117.285,39.897 117.382,39.754 117.508,39.616 C117.633,39.478 117.782,39.355 117.955,39.246 C118.128,39.138 118.323,39.052 118.539,38.987 C118.755,38.922 118.989,38.89 119.24,38.89 C119.568,38.89 119.843,38.931 120.063,39.013 C120.284,39.095 120.467,39.194 120.614,39.311 C120.761,39.428 120.876,39.553 120.958,39.687 C121.04,39.822 121.107,39.94 121.159,40.044 C121.384,39.681 121.644,39.398 121.937,39.194 C122.232,38.991 122.612,38.89 123.079,38.89 C123.511,38.89 123.875,38.948 124.168,39.065 C124.463,39.182 124.7,39.35 124.882,39.571 C125.064,39.791 125.193,40.059 125.271,40.375 C125.349,40.691 125.388,41.043 125.388,41.432 L125.388,45.116 L124.376,45.116 L124.376,41.484 C124.376,41.276 124.355,41.073 124.311,40.874 C124.268,40.676 124.19,40.498 124.078,40.343 C123.965,40.187 123.813,40.061 123.624,39.966 C123.433,39.871 123.191,39.824 122.898,39.824 C122.681,39.824 122.478,39.867 122.288,39.953 C122.097,40.04 121.931,40.161 121.788,40.317 C121.646,40.472 121.533,40.66 121.451,40.881 C121.369,41.101 121.327,41.346 121.327,41.614 L121.327,45.116 L120.316,45.116 L120.316,41.678 C120.316,41.004 120.225,40.526 120.043,40.245 C119.862,39.964 119.564,39.824 119.149,39.824 C118.82,39.824 118.537,39.88 118.299,39.992 C118.061,40.105 117.866,40.265 117.715,40.472 C117.564,40.68 117.451,40.926 117.377,41.212 C117.305,41.497 117.268,41.813 117.268,42.158 L117.268,45.116 L116.256,45.116 L116.256,40.485" fill="#706D6E" id="path3486"/>
      <path d="M127.398,39.045 L128.41,39.045 L128.41,45.116 L127.398,45.116 L127.398,39.045 z M127.165,36.672 C127.165,36.473 127.236,36.3 127.379,36.153 C127.521,36.006 127.697,35.932 127.904,35.932 C128.112,35.932 128.287,36.006 128.429,36.153 C128.573,36.3 128.644,36.473 128.644,36.672 C128.644,36.888 128.574,37.065 128.436,37.203 C128.298,37.342 128.12,37.411 127.904,37.411 C127.688,37.411 127.511,37.342 127.373,37.203 C127.234,37.065 127.165,36.888 127.165,36.672" fill="#706D6E" id="path3488"/>
      <path d="M134.74,40.563 C134.524,40.304 134.29,40.116 134.04,39.999 C133.789,39.882 133.512,39.824 133.209,39.824 C132.872,39.824 132.574,39.882 132.315,39.999 C132.055,40.116 131.841,40.278 131.672,40.485 C131.504,40.693 131.377,40.933 131.29,41.205 C131.204,41.477 131.16,41.769 131.16,42.081 C131.16,42.392 131.21,42.684 131.309,42.956 C131.409,43.229 131.547,43.469 131.724,43.676 C131.902,43.884 132.116,44.046 132.366,44.163 C132.617,44.279 132.898,44.338 133.209,44.338 C133.875,44.338 134.39,44.087 134.753,43.586 L135.506,44.299 C135.211,44.636 134.865,44.883 134.468,45.038 C134.07,45.194 133.65,45.272 133.209,45.272 C132.743,45.272 132.315,45.194 131.925,45.038 C131.536,44.883 131.206,44.662 130.933,44.377 C130.66,44.091 130.449,43.754 130.298,43.365 C130.146,42.976 130.07,42.548 130.07,42.081 C130.07,41.622 130.146,41.199 130.298,40.809 C130.449,40.42 130.662,40.083 130.94,39.798 C131.216,39.512 131.547,39.29 131.932,39.13 C132.317,38.97 132.743,38.89 133.209,38.89 C133.659,38.89 134.085,38.967 134.487,39.123 C134.89,39.279 135.242,39.521 135.544,39.849 L134.74,40.563" fill="#706D6E" id="path3490"/>
      <path d="M140.461,35.932 L141.55,35.932 L141.55,44.104 L145.753,44.104 L145.753,45.116 L140.461,45.116 L140.461,35.932" fill="#706D6E" id="path3492"/>
      <path d="M146.856,39.045 L147.868,39.045 L147.868,45.116 L146.856,45.116 L146.856,39.045 z M146.622,36.672 C146.622,36.473 146.693,36.3 146.837,36.153 C146.979,36.006 147.154,35.932 147.362,35.932 C147.569,35.932 147.745,36.006 147.887,36.153 C148.03,36.3 148.101,36.473 148.101,36.672 C148.101,36.888 148.032,37.065 147.893,37.203 C147.755,37.342 147.577,37.411 147.362,37.411 C147.145,37.411 146.968,37.342 146.83,37.203 C146.691,37.065 146.622,36.888 146.622,36.672" fill="#706D6E" id="path3494"/>
      <path d="M150.397,39.901 L149.074,39.901 L149.074,39.045 L150.397,39.045 L150.397,37.683 C150.397,37.312 150.431,36.972 150.5,36.665 C150.57,36.358 150.689,36.092 150.857,35.867 C151.026,35.643 151.248,35.467 151.525,35.342 C151.802,35.217 152.143,35.154 152.55,35.154 C152.68,35.154 152.818,35.167 152.965,35.193 C153.112,35.219 153.233,35.258 153.328,35.31 L153.186,36.218 C152.944,36.131 152.714,36.088 152.498,36.088 C152.239,36.088 152.036,36.133 151.888,36.224 C151.741,36.315 151.631,36.44 151.557,36.6 C151.484,36.76 151.441,36.953 151.428,37.177 C151.415,37.402 151.408,37.644 151.408,37.904 L151.408,39.045 L152.887,39.045 L152.887,39.901 L151.408,39.901 L151.408,45.116 L150.397,45.116 L150.397,39.901" fill="#706D6E" id="path3496"/>
      <path d="M158.517,41.536 C158.5,41.017 158.331,40.602 158.011,40.291 C157.691,39.979 157.25,39.824 156.687,39.824 C156.125,39.824 155.672,39.979 155.326,40.291 C154.98,40.602 154.772,41.017 154.703,41.536 L158.517,41.536 z M159.386,44.013 C159.023,44.48 158.625,44.807 158.192,44.993 C157.76,45.179 157.258,45.272 156.687,45.272 C156.212,45.272 155.784,45.187 155.404,45.019 C155.023,44.85 154.701,44.623 154.437,44.338 C154.173,44.052 153.97,43.715 153.827,43.326 C153.685,42.937 153.614,42.522 153.614,42.081 C153.614,41.614 153.691,41.184 153.847,40.79 C154.003,40.397 154.219,40.059 154.496,39.778 C154.772,39.497 155.101,39.279 155.481,39.123 C155.862,38.967 156.277,38.89 156.727,38.89 C157.15,38.89 157.539,38.961 157.894,39.104 C158.248,39.246 158.553,39.454 158.808,39.726 C159.063,39.999 159.261,40.332 159.398,40.725 C159.537,41.119 159.606,41.566 159.606,42.068 L159.606,42.392 L154.703,42.392 C154.72,42.651 154.783,42.9 154.891,43.138 C154.999,43.376 155.14,43.583 155.313,43.76 C155.486,43.938 155.689,44.078 155.923,44.182 C156.156,44.286 156.411,44.338 156.687,44.338 C157.129,44.338 157.501,44.26 157.803,44.104 C158.106,43.949 158.378,43.72 158.621,43.417 L159.386,44.013" fill="#706D6E" id="path3498"/>
      <path d="M164.873,39.045 L165.884,39.045 L165.884,45.116 L164.873,45.116 L164.873,39.045 z M164.639,36.672 C164.639,36.473 164.711,36.3 164.854,36.153 C164.996,36.006 165.171,35.932 165.379,35.932 C165.586,35.932 165.762,36.006 165.904,36.153 C166.047,36.3 166.118,36.473 166.118,36.672 C166.118,36.888 166.049,37.065 165.91,37.203 C165.772,37.342 165.595,37.411 165.379,37.411 C165.162,37.411 164.985,37.342 164.847,37.203 C164.709,37.065 164.639,36.888 164.639,36.672" fill="#706D6E" id="path3500"/>
      <path d="M167.895,40.485 C167.895,40.208 167.886,39.949 167.87,39.707 C167.852,39.465 167.843,39.244 167.843,39.045 L168.803,39.045 C168.803,39.21 168.807,39.374 168.816,39.538 C168.825,39.703 168.829,39.871 168.829,40.044 L168.855,40.044 C168.924,39.897 169.021,39.754 169.147,39.616 C169.272,39.478 169.421,39.355 169.595,39.246 C169.768,39.138 169.962,39.052 170.178,38.987 C170.394,38.922 170.628,38.89 170.879,38.89 C171.276,38.89 171.62,38.95 171.91,39.071 C172.2,39.192 172.439,39.361 172.63,39.577 C172.82,39.793 172.961,40.055 173.052,40.362 C173.142,40.669 173.188,41.004 173.188,41.367 L173.188,45.116 L172.176,45.116 L172.176,41.471 C172.176,40.961 172.063,40.559 171.838,40.265 C171.614,39.971 171.264,39.824 170.788,39.824 C170.459,39.824 170.176,39.88 169.938,39.992 C169.7,40.105 169.505,40.265 169.354,40.472 C169.203,40.68 169.091,40.926 169.017,41.212 C168.944,41.497 168.907,41.813 168.907,42.158 L168.907,45.116 L167.895,45.116 L167.895,40.485" fill="#706D6E" id="path3502"/>
      <path d="M79.183,50.757 L84.956,50.757 L84.956,51.769 L80.273,51.769 L80.273,54.648 L84.645,54.648 L84.645,55.66 L80.273,55.66 L80.273,58.929 L85.189,58.929 L85.189,59.941 L79.183,59.941 L79.183,50.757" fill="#706D6E" id="path3504"/>
      <path d="M86.694,55.31 C86.694,55.033 86.685,54.774 86.668,54.531 C86.65,54.289 86.642,54.069 86.642,53.87 L87.602,53.87 C87.602,54.034 87.606,54.198 87.615,54.363 C87.624,54.527 87.628,54.696 87.628,54.869 L87.654,54.869 C87.723,54.722 87.82,54.579 87.946,54.441 C88.071,54.302 88.22,54.179 88.393,54.071 C88.566,53.963 88.76,53.877 88.977,53.812 C89.193,53.747 89.426,53.714 89.677,53.714 C90.006,53.714 90.28,53.755 90.501,53.837 C90.721,53.92 90.905,54.019 91.053,54.136 C91.199,54.252 91.314,54.378 91.396,54.512 C91.478,54.646 91.545,54.765 91.597,54.869 C91.822,54.506 92.081,54.223 92.376,54.019 C92.669,53.816 93.05,53.714 93.517,53.714 C93.949,53.714 94.312,53.773 94.607,53.89 C94.9,54.006 95.138,54.175 95.32,54.396 C95.502,54.616 95.631,54.884 95.709,55.2 C95.787,55.515 95.826,55.867 95.826,56.257 L95.826,59.941 L94.814,59.941 L94.814,56.309 C94.814,56.101 94.793,55.898 94.749,55.699 C94.706,55.5 94.628,55.323 94.516,55.167 C94.403,55.012 94.252,54.886 94.062,54.791 C93.871,54.696 93.63,54.648 93.335,54.648 C93.119,54.648 92.916,54.692 92.725,54.778 C92.535,54.864 92.369,54.986 92.226,55.141 C92.084,55.297 91.971,55.485 91.889,55.706 C91.807,55.926 91.766,56.171 91.766,56.438 L91.766,59.941 L90.754,59.941 L90.754,56.503 C90.754,55.829 90.663,55.351 90.481,55.07 C90.3,54.789 90.001,54.648 89.586,54.648 C89.258,54.648 88.975,54.704 88.737,54.817 C88.499,54.93 88.304,55.09 88.153,55.297 C88.002,55.505 87.889,55.751 87.816,56.036 C87.742,56.322 87.706,56.637 87.706,56.983 L87.706,59.941 L86.694,59.941 L86.694,55.31" fill="#706D6E" id="path3506"/>
      <path d="M102.298,56.36 C102.281,55.842 102.112,55.427 101.793,55.115 C101.472,54.804 101.031,54.648 100.469,54.648 C99.907,54.648 99.453,54.804 99.107,55.115 C98.761,55.427 98.554,55.842 98.485,56.36 L102.298,56.36 z M103.168,58.838 C102.804,59.305 102.407,59.631 101.974,59.817 C101.541,60.003 101.04,60.096 100.469,60.096 C99.994,60.096 99.566,60.012 99.186,59.843 C98.805,59.675 98.483,59.448 98.219,59.163 C97.955,58.877 97.752,58.54 97.609,58.151 C97.467,57.761 97.395,57.346 97.395,56.905 C97.395,56.438 97.473,56.008 97.629,55.615 C97.784,55.222 98,54.884 98.278,54.603 C98.554,54.322 98.882,54.104 99.263,53.948 C99.643,53.792 100.059,53.714 100.509,53.714 C100.932,53.714 101.321,53.786 101.676,53.928 C102.03,54.071 102.335,54.279 102.59,54.551 C102.845,54.823 103.042,55.156 103.18,55.55 C103.319,55.943 103.388,56.391 103.388,56.893 L103.388,57.217 L98.485,57.217 C98.502,57.476 98.565,57.725 98.673,57.963 C98.781,58.201 98.921,58.408 99.095,58.585 C99.267,58.763 99.471,58.903 99.704,59.007 C99.937,59.11 100.192,59.163 100.469,59.163 C100.911,59.163 101.282,59.085 101.585,58.929 C101.887,58.773 102.16,58.544 102.402,58.242 L103.168,58.838" fill="#706D6E" id="path3508"/>
      <path d="M104.958,55.31 C104.958,55.033 104.949,54.774 104.932,54.531 C104.914,54.289 104.905,54.069 104.905,53.87 L105.866,53.87 C105.866,54.034 105.87,54.198 105.879,54.363 C105.887,54.527 105.892,54.696 105.892,54.869 L105.917,54.869 C105.986,54.722 106.084,54.579 106.209,54.441 C106.335,54.302 106.483,54.179 106.657,54.071 C106.83,53.963 107.024,53.877 107.24,53.812 C107.457,53.747 107.69,53.714 107.941,53.714 C108.01,53.714 108.079,53.719 108.148,53.727 C108.218,53.736 108.287,53.753 108.356,53.779 L108.291,54.804 C108.118,54.752 107.937,54.726 107.746,54.726 C107.124,54.726 106.672,54.927 106.391,55.329 C106.11,55.731 105.97,56.283 105.97,56.983 L105.97,59.941 L104.958,59.941 L104.958,55.31" fill="#706D6E" id="path3510"/>
      <path d="M110.03,56.905 C110.03,57.217 110.085,57.504 110.198,57.768 C110.31,58.032 110.464,58.261 110.659,58.456 C110.853,58.65 111.08,58.804 111.34,58.916 C111.599,59.028 111.875,59.085 112.17,59.085 C112.516,59.085 112.823,59.024 113.091,58.903 C113.359,58.782 113.586,58.62 113.772,58.416 C113.958,58.213 114.098,57.98 114.194,57.716 C114.289,57.453 114.336,57.174 114.336,56.879 C114.336,56.551 114.285,56.25 114.181,55.978 C114.077,55.706 113.93,55.47 113.74,55.271 C113.549,55.072 113.32,54.919 113.052,54.811 C112.784,54.702 112.489,54.648 112.17,54.648 C111.85,54.648 111.558,54.707 111.294,54.823 C111.03,54.94 110.806,55.1 110.62,55.304 C110.433,55.507 110.289,55.744 110.185,56.017 C110.081,56.289 110.03,56.586 110.03,56.905 z M115.348,59.668 C115.348,60.775 115.064,61.616 114.498,62.192 C113.932,62.767 113.113,63.054 112.04,63.054 C111.444,63.054 110.905,62.967 110.426,62.795 C109.945,62.621 109.489,62.323 109.056,61.9 L109.783,61.07 C110.103,61.415 110.442,61.677 110.802,61.854 C111.16,62.031 111.573,62.12 112.04,62.12 C112.489,62.12 112.864,62.053 113.162,61.919 C113.461,61.785 113.696,61.603 113.869,61.374 C114.042,61.145 114.163,60.883 114.232,60.589 C114.301,60.295 114.336,59.988 114.336,59.668 L114.336,58.89 L114.31,58.89 C114.068,59.279 113.752,59.565 113.363,59.746 C112.974,59.927 112.576,60.018 112.17,60.018 C111.694,60.018 111.257,59.941 110.86,59.785 C110.462,59.629 110.12,59.413 109.835,59.137 C109.55,58.86 109.329,58.531 109.173,58.151 C109.018,57.77 108.94,57.355 108.94,56.905 C108.94,56.413 109.018,55.967 109.173,55.569 C109.329,55.172 109.547,54.836 109.828,54.564 C110.109,54.292 110.449,54.082 110.847,53.935 C111.244,53.788 111.685,53.714 112.17,53.714 C112.377,53.714 112.585,53.738 112.793,53.786 C113,53.833 113.201,53.907 113.396,54.006 C113.59,54.106 113.766,54.231 113.921,54.383 C114.077,54.534 114.206,54.709 114.31,54.908 L114.336,54.908 L114.336,53.87 L115.348,53.87 L115.348,59.668" fill="#706D6E" id="path3512"/>
      <path d="M121.769,56.36 C121.752,55.842 121.582,55.427 121.263,55.115 C120.943,54.804 120.501,54.648 119.939,54.648 C119.377,54.648 118.923,54.804 118.578,55.115 C118.232,55.427 118.024,55.842 117.955,56.36 L121.769,56.36 z M122.638,58.838 C122.275,59.305 121.877,59.631 121.444,59.817 C121.012,60.003 120.51,60.096 119.939,60.096 C119.464,60.096 119.036,60.012 118.656,59.843 C118.275,59.675 117.953,59.448 117.689,59.163 C117.425,58.877 117.222,58.54 117.079,58.151 C116.937,57.761 116.865,57.346 116.865,56.905 C116.865,56.438 116.943,56.008 117.099,55.615 C117.255,55.222 117.471,54.884 117.748,54.603 C118.024,54.322 118.353,54.104 118.733,53.948 C119.114,53.792 119.529,53.714 119.979,53.714 C120.402,53.714 120.791,53.786 121.146,53.928 C121.5,54.071 121.805,54.279 122.06,54.551 C122.315,54.823 122.512,55.156 122.651,55.55 C122.789,55.943 122.858,56.391 122.858,56.893 L122.858,57.217 L117.955,57.217 C117.972,57.476 118.035,57.725 118.143,57.963 C118.251,58.201 118.391,58.408 118.565,58.585 C118.738,58.763 118.941,58.903 119.175,59.007 C119.408,59.11 119.663,59.163 119.939,59.163 C120.381,59.163 120.753,59.085 121.055,58.929 C121.358,58.773 121.63,58.544 121.873,58.242 L122.638,58.838" fill="#706D6E" id="path3514"/>
      <path d="M124.428,55.31 C124.428,55.033 124.419,54.774 124.402,54.531 C124.385,54.289 124.376,54.069 124.376,53.87 L125.336,53.87 C125.336,54.034 125.34,54.198 125.349,54.363 C125.357,54.527 125.362,54.696 125.362,54.869 L125.388,54.869 C125.457,54.722 125.554,54.579 125.68,54.441 C125.805,54.302 125.954,54.179 126.127,54.071 C126.3,53.963 126.494,53.877 126.711,53.812 C126.927,53.747 127.16,53.714 127.411,53.714 C127.809,53.714 128.153,53.775 128.442,53.896 C128.732,54.017 128.972,54.186 129.163,54.402 C129.353,54.618 129.493,54.88 129.584,55.187 C129.675,55.493 129.72,55.829 129.72,56.192 L129.72,59.941 L128.708,59.941 L128.708,56.296 C128.708,55.785 128.596,55.383 128.372,55.09 C128.146,54.795 127.796,54.648 127.32,54.648 C126.992,54.648 126.709,54.704 126.471,54.817 C126.233,54.93 126.038,55.09 125.887,55.297 C125.736,55.505 125.623,55.751 125.55,56.036 C125.476,56.322 125.44,56.637 125.44,56.983 L125.44,59.941 L124.428,59.941 L124.428,55.31" fill="#706D6E" id="path3516"/>
      <path d="M135.96,55.388 C135.744,55.128 135.51,54.94 135.259,54.823 C135.009,54.707 134.732,54.648 134.429,54.648 C134.092,54.648 133.793,54.707 133.534,54.823 C133.275,54.94 133.06,55.103 132.892,55.31 C132.724,55.518 132.596,55.757 132.509,56.03 C132.423,56.302 132.379,56.594 132.379,56.905 C132.379,57.217 132.429,57.509 132.529,57.781 C132.628,58.053 132.766,58.293 132.944,58.501 C133.121,58.708 133.335,58.871 133.586,58.987 C133.837,59.104 134.118,59.163 134.429,59.163 C135.095,59.163 135.609,58.912 135.973,58.41 L136.725,59.123 C136.431,59.461 136.085,59.707 135.687,59.863 C135.289,60.018 134.87,60.096 134.429,60.096 C133.962,60.096 133.534,60.018 133.145,59.863 C132.756,59.707 132.425,59.487 132.152,59.201 C131.88,58.916 131.669,58.579 131.517,58.189 C131.365,57.8 131.29,57.372 131.29,56.905 C131.29,56.447 131.365,56.023 131.517,55.634 C131.669,55.245 131.882,54.908 132.159,54.622 C132.436,54.337 132.766,54.114 133.151,53.954 C133.536,53.794 133.962,53.714 134.429,53.714 C134.879,53.714 135.305,53.792 135.707,53.948 C136.109,54.104 136.461,54.346 136.764,54.674 L135.96,55.388" fill="#706D6E" id="path3518"/>
      <path d="M140.124,61.329 C140.02,61.588 139.914,61.824 139.805,62.035 C139.698,62.247 139.568,62.429 139.416,62.58 C139.265,62.732 139.083,62.849 138.872,62.931 C138.66,63.013 138.403,63.054 138.1,63.054 C137.953,63.054 137.799,63.045 137.64,63.028 C137.479,63.01 137.33,62.967 137.192,62.898 L137.322,62.016 C137.425,62.06 137.533,62.088 137.646,62.101 C137.759,62.114 137.888,62.12 138.035,62.12 C138.363,62.12 138.606,62.029 138.761,61.847 C138.917,61.666 139.051,61.424 139.164,61.121 L139.579,59.98 L137.062,53.87 L138.242,53.87 L140.124,58.631 L140.149,58.631 L141.952,53.87 L143.055,53.87 L140.124,61.329" fill="#706D6E" id="path3520"/>
      <path d="M147.932,50.757 L149.554,50.757 L152.667,57.956 L152.693,57.956 L155.832,50.757 L157.414,50.757 L157.414,59.941 L156.325,59.941 L156.325,52.236 L156.299,52.236 L153.004,59.941 L152.343,59.941 L149.048,52.236 L149.022,52.236 L149.022,59.941 L147.932,59.941 L147.932,50.757" fill="#706D6E" id="path3522"/>
      <path d="M164.069,56.36 C164.051,55.842 163.883,55.427 163.563,55.115 C163.243,54.804 162.802,54.648 162.24,54.648 C161.678,54.648 161.224,54.804 160.878,55.115 C160.532,55.427 160.325,55.842 160.255,56.36 L164.069,56.36 z M164.938,58.838 C164.575,59.305 164.177,59.631 163.745,59.817 C163.312,60.003 162.811,60.096 162.24,60.096 C161.764,60.096 161.336,60.012 160.956,59.843 C160.575,59.675 160.253,59.448 159.989,59.163 C159.725,58.877 159.522,58.54 159.38,58.151 C159.237,57.761 159.165,57.346 159.165,56.905 C159.165,56.438 159.244,56.008 159.399,55.615 C159.555,55.222 159.771,54.884 160.048,54.603 C160.325,54.322 160.653,54.104 161.034,53.948 C161.414,53.792 161.829,53.714 162.279,53.714 C162.703,53.714 163.091,53.786 163.446,53.928 C163.801,54.071 164.105,54.279 164.361,54.551 C164.616,54.823 164.812,55.156 164.951,55.55 C165.089,55.943 165.159,56.391 165.159,56.893 L165.159,57.217 L160.255,57.217 C160.273,57.476 160.335,57.725 160.444,57.963 C160.551,58.201 160.692,58.408 160.865,58.585 C161.038,58.763 161.241,58.903 161.474,59.007 C161.708,59.11 161.963,59.163 162.24,59.163 C162.681,59.163 163.053,59.085 163.355,58.929 C163.658,58.773 163.93,58.544 164.173,58.242 L164.938,58.838" fill="#706D6E" id="path3524"/>
      <path d="M171.774,56.905 C171.774,56.586 171.724,56.289 171.625,56.017 C171.525,55.744 171.381,55.507 171.19,55.304 C171,55.1 170.773,54.94 170.509,54.823 C170.245,54.707 169.95,54.648 169.621,54.648 C169.292,54.648 168.996,54.707 168.732,54.823 C168.469,54.94 168.241,55.1 168.051,55.304 C167.861,55.507 167.716,55.744 167.617,56.017 C167.517,56.289 167.467,56.586 167.467,56.905 C167.467,57.225 167.517,57.522 167.617,57.794 C167.716,58.066 167.861,58.304 168.051,58.507 C168.241,58.711 168.469,58.871 168.732,58.987 C168.996,59.104 169.292,59.163 169.621,59.163 C169.95,59.163 170.245,59.104 170.509,58.987 C170.773,58.871 171,58.711 171.19,58.507 C171.381,58.304 171.525,58.066 171.625,57.794 C171.724,57.522 171.774,57.225 171.774,56.905 z M171.774,58.864 L171.748,58.864 C171.558,59.21 171.257,59.502 170.846,59.74 C170.436,59.977 169.958,60.096 169.413,60.096 C168.99,60.096 168.592,60.016 168.22,59.857 C167.848,59.697 167.526,59.474 167.254,59.188 C166.981,58.903 166.767,58.566 166.612,58.176 C166.455,57.787 166.378,57.364 166.378,56.905 C166.378,56.447 166.455,56.023 166.612,55.634 C166.767,55.245 166.983,54.908 167.26,54.622 C167.536,54.337 167.872,54.114 168.265,53.954 C168.659,53.794 169.093,53.714 169.569,53.714 C170.01,53.714 170.414,53.805 170.782,53.987 C171.15,54.168 171.471,54.424 171.748,54.752 L171.774,54.752 L171.774,50.134 L172.786,50.134 L172.786,59.941 L171.774,59.941 L171.774,58.864" fill="#706D6E" id="path3526"/>
      <path d="M174.757,53.87 L175.769,53.87 L175.769,59.941 L174.757,59.941 L174.757,53.87 z M174.524,51.496 C174.524,51.297 174.595,51.124 174.738,50.977 C174.88,50.83 175.056,50.757 175.263,50.757 C175.471,50.757 175.646,50.83 175.788,50.977 C175.931,51.124 176.003,51.297 176.003,51.496 C176.003,51.712 175.933,51.89 175.795,52.028 C175.657,52.167 175.479,52.236 175.263,52.236 C175.047,52.236 174.87,52.167 174.731,52.028 C174.593,51.89 174.524,51.712 174.524,51.496" fill="#706D6E" id="path3528"/>
      <path d="M182.099,55.388 C181.883,55.128 181.65,54.94 181.398,54.823 C181.148,54.707 180.871,54.648 180.569,54.648 C180.231,54.648 179.933,54.707 179.673,54.823 C179.414,54.94 179.2,55.103 179.031,55.31 C178.862,55.518 178.735,55.757 178.649,56.03 C178.562,56.302 178.519,56.594 178.519,56.905 C178.519,57.217 178.568,57.509 178.668,57.781 C178.768,58.053 178.906,58.293 179.083,58.501 C179.26,58.708 179.474,58.871 179.726,58.987 C179.976,59.104 180.257,59.163 180.569,59.163 C181.234,59.163 181.749,58.912 182.112,58.41 L182.865,59.123 C182.57,59.461 182.224,59.707 181.827,59.863 C181.429,60.018 181.009,60.096 180.569,60.096 C180.102,60.096 179.673,60.018 179.284,59.863 C178.895,59.707 178.564,59.487 178.292,59.201 C178.02,58.916 177.807,58.579 177.656,58.189 C177.505,57.8 177.429,57.372 177.429,56.905 C177.429,56.447 177.505,56.023 177.656,55.634 C177.807,55.245 178.021,54.908 178.298,54.622 C178.575,54.337 178.906,54.114 179.291,53.954 C179.676,53.794 180.102,53.714 180.569,53.714 C181.018,53.714 181.444,53.792 181.846,53.948 C182.248,54.104 182.6,54.346 182.903,54.674 L182.099,55.388" fill="#706D6E" id="path3530"/>
      <path d="M184.123,53.87 L185.135,53.87 L185.135,59.941 L184.123,59.941 L184.123,53.87 z M183.889,51.496 C183.889,51.297 183.961,51.124 184.103,50.977 C184.245,50.83 184.421,50.757 184.628,50.757 C184.836,50.757 185.011,50.83 185.154,50.977 C185.297,51.124 185.368,51.297 185.368,51.496 C185.368,51.712 185.298,51.89 185.16,52.028 C185.022,52.167 184.845,52.236 184.628,52.236 C184.412,52.236 184.235,52.167 184.097,52.028 C183.958,51.89 183.889,51.712 183.889,51.496" fill="#706D6E" id="path3532"/>
      <path d="M187.145,55.31 C187.145,55.033 187.136,54.774 187.119,54.531 C187.102,54.289 187.093,54.069 187.093,53.87 L188.053,53.87 C188.053,54.034 188.057,54.198 188.066,54.363 C188.074,54.527 188.079,54.696 188.079,54.869 L188.104,54.869 C188.174,54.722 188.271,54.579 188.396,54.441 C188.522,54.302 188.671,54.179 188.844,54.071 C189.017,53.963 189.211,53.877 189.428,53.812 C189.644,53.747 189.877,53.714 190.128,53.714 C190.526,53.714 190.87,53.775 191.159,53.896 C191.449,54.017 191.69,54.186 191.879,54.402 C192.07,54.618 192.21,54.88 192.301,55.187 C192.392,55.493 192.437,55.829 192.437,56.192 L192.437,59.941 L191.426,59.941 L191.426,56.296 C191.426,55.785 191.313,55.383 191.089,55.09 C190.863,54.795 190.513,54.648 190.037,54.648 C189.709,54.648 189.425,54.704 189.188,54.817 C188.95,54.93 188.755,55.09 188.604,55.297 C188.453,55.505 188.34,55.751 188.267,56.036 C188.193,56.322 188.157,56.637 188.157,56.983 L188.157,59.941 L187.145,59.941 L187.145,55.31" fill="#706D6E" id="path3534"/>
      <path d="M198.91,56.36 C198.893,55.842 198.724,55.427 198.404,55.115 C198.084,54.804 197.644,54.648 197.081,54.648 C196.519,54.648 196.065,54.804 195.719,55.115 C195.373,55.427 195.165,55.842 195.096,56.36 L198.91,56.36 z M199.779,58.838 C199.416,59.305 199.018,59.631 198.586,59.817 C198.154,60.003 197.652,60.096 197.081,60.096 C196.606,60.096 196.177,60.012 195.797,59.843 C195.416,59.675 195.094,59.448 194.831,59.163 C194.567,58.877 194.364,58.54 194.221,58.151 C194.078,57.761 194.007,57.346 194.007,56.905 C194.007,56.438 194.085,56.008 194.241,55.615 C194.396,55.222 194.612,54.884 194.889,54.603 C195.165,54.322 195.495,54.104 195.875,53.948 C196.255,53.792 196.67,53.714 197.12,53.714 C197.544,53.714 197.933,53.786 198.288,53.928 C198.642,54.071 198.947,54.279 199.202,54.551 C199.457,54.823 199.654,55.156 199.792,55.55 C199.93,55.943 200,56.391 200,56.893 L200,57.217 L195.096,57.217 C195.114,57.476 195.176,57.725 195.285,57.963 C195.393,58.201 195.533,58.408 195.706,58.585 C195.879,58.763 196.082,58.903 196.316,59.007 C196.549,59.11 196.804,59.163 197.081,59.163 C197.522,59.163 197.894,59.085 198.197,58.929 C198.499,58.773 198.772,58.544 199.014,58.242 L199.779,58.838" fill="#706D6E" id="path3536"/>
    </g>
  </g>
</svg>
