<?xml version="1.0" encoding="UTF-8" standalone="no"?>
<svg
   xmlns:dc="http://purl.org/dc/elements/1.1/"
   xmlns:cc="http://creativecommons.org/ns#"
   xmlns:rdf="http://www.w3.org/1999/02/22-rdf-syntax-ns#"
   xmlns:svg="http://www.w3.org/2000/svg"
   xmlns="http://www.w3.org/2000/svg"
   xmlns:sodipodi="http://sodipodi.sourceforge.net/DTD/sodipodi-0.dtd"
   xmlns:inkscape="http://www.inkscape.org/namespaces/inkscape"
   width="40"
   height="40"
   viewBox="0 0 40 40"
   version="1.1"
   id="svg4554"
   sodipodi:docname="aliem-logo-cross.svg"
   inkscape:version="0.92.2 5c3e80d, 2017-08-06">
  <metadata
     id="metadata4560">
    <rdf:RDF>
      <cc:Work
         rdf:about="">
        <dc:format>image/svg+xml</dc:format>
        <dc:type
           rdf:resource="http://purl.org/dc/dcmitype/StillImage" />
        <dc:title></dc:title>
      </cc:Work>
    </rdf:RDF>
  </metadata>
  <defs
     id="defs4558" />
  <sodipodi:namedview
     pagecolor="#ffffff"
     bordercolor="#666666"
     borderopacity="1"
     objecttolerance="10"
     gridtolerance="10"
     guidetolerance="10"
     inkscape:pageopacity="0"
     inkscape:pageshadow="2"
     inkscape:window-width="3840"
     inkscape:window-height="2076"
     id="namedview4556"
     showgrid="false"
     fit-margin-top="0"
     fit-margin-left="0"
     fit-margin-right="0"
     fit-margin-bottom="0"
     inkscape:zoom="18.035519"
     inkscape:cx="-8.5064197"
     inkscape:cy="14.728502"
     inkscape:window-x="2160"
     inkscape:window-y="84"
     inkscape:window-maximized="0"
     inkscape:current-layer="svg4554" />
  <path
     d="m 7.5470021,24.715998 c 0.463586,-0.628672 0.96271,-1.262941 1.491209,-1.897441 -0.200762,-0.38254 -0.316087,-0.816795 -0.317525,-1.278237 -3.235792,-0.704407 -6.24276,-0.580174 -8.720742018848,-0.155758 v 5.415741 H 6.1039181 c 0.453374,-0.694938 0.931547,-1.390811 1.443084,-2.084305"
     style="fill:#00b092;fill-opacity:1;fill-rule:nonzero;stroke:none;stroke-width:0.04663396"
     id="path3448"
     inkscape:connector-curvature="0" />
  <path
     d="m 14.264298,21.479322 c 0.505698,0.239886 1.005372,0.497818 1.498484,0.774171 0.496561,-0.468159 1.163847,-0.756869 1.900333,-0.756869 0.878023,0 1.658959,0.408932 2.16717,1.045253 1.375009,-0.420452 2.790581,-0.743812 4.244253,-0.932679 0.695123,-0.09038 1.386108,-0.142653 2.07377,-0.170354 0.137899,-0.397088 0.361036,-0.754677 0.651423,-1.0467 -0.756161,-1.730912 -1.646034,-3.370749 -2.670343,-4.916944 -0.307513,0.117284 -0.639399,0.18453 -0.987898,0.18453 -0.681462,0 -1.304635,-0.246834 -1.787384,-0.654554 -2.670494,1.44001 -5.130813,3.205198 -7.38002,5.290622 0.178525,0.357404 0.282562,0.758503 0.290212,1.183524"
     style="fill:#00b092;fill-opacity:1;fill-rule:nonzero;stroke:none;stroke-width:0.04663396"
     id="path3450"
     inkscape:connector-curvature="0" />
  <path
     d="m 14.889471,24.270038 c 0,-0.119663 0.01025,-0.23718 0.02514,-0.353392 -0.413699,-0.233169 -0.832286,-0.450857 -1.254547,-0.6567 -0.508412,0.635762 -1.289197,1.044368 -2.166483,1.044368 -0.384349,0 -0.750523,-0.07853 -1.083534,-0.219505 -0.4641489,0.56413 -0.9202729,1.14034 -1.3618469,1.738746 -0.239512,0.32462 -0.470499,0.650684 -0.696761,0.976748 h 2.6433929 c 1.235623,-0.812456 2.540994,-1.578466 3.907929,-2.26613 -0.0081,-0.08707 -0.01329,-0.174878 -0.01329,-0.264135"
     style="fill:#00b092;fill-opacity:1;fill-rule:nonzero;stroke:none;stroke-width:0.04663396"
     id="path3452"
     inkscape:connector-curvature="0" />
  <path
     d="m 27.202842,33.544367 v -6.744064 h 1.679196 c -0.131186,-0.57383 -0.272536,-1.140339 -0.427174,-1.698315 -1.057472,-0.117845 -1.932407,-0.831018 -2.288369,-1.795967 -0.614399,0.02551 -1.231046,0.07233 -1.851508,0.153053 -1.323235,0.17194 -2.618407,0.46578 -3.880604,0.851583 -0.0055,0.378014 -0.0858,0.737235 -0.227898,1.064234 2.531719,2.168291 4.866487,4.894373 6.996358,8.169476"
     style="fill:#00b092;fill-opacity:1;fill-rule:nonzero;stroke:none;stroke-width:0.04663396"
     id="path3454"
     inkscape:connector-curvature="0" />
  <path
     d="m 18.930075,26.735296 c -0.380212,0.195816 -0.810086,0.308205 -1.26696,0.308205 -0.762924,0 -1.453297,-0.308205 -1.954608,-0.806628 -0.719573,0.365236 -1.422708,0.753418 -2.107295,1.160952 v 12.602081 h 13.60163 V 37.130458 C 24.745086,32.803541 21.982405,29.332947 18.930075,26.735296"
     style="fill:#00b092;fill-opacity:1;fill-rule:nonzero;stroke:none;stroke-width:0.04663396"
     id="path3456"
     inkscape:connector-curvature="0" />
  <path
     d="m 20.707433,8.5365328 c 0.545011,0.515538 1.10046,1.07953 1.657696,1.6885222 0.246649,-0.07182 0.506586,-0.112434 0.776361,-0.112434 0.91011,0 1.715621,0.44069 2.22132,1.118143 0.59821,-0.224078 1.213597,-0.434443 1.840032,-0.636508 V 0 h -13.60163 v 3.3645471 c 2.107995,1.1525586 4.618951,2.8195357 7.106221,5.1719857"
     style="fill:#00b092;fill-opacity:1;fill-rule:nonzero;stroke:none;stroke-width:0.04663396"
     id="path3458"
     inkscape:connector-curvature="0" />
  <path
     d="m 31.175308,23.718451 c -0.225524,0.395503 -0.545061,0.728657 -0.928348,0.97148 0.18985,0.683654 0.365612,1.3868 0.525937,2.110372 h 7.800982 c -2.39162,-1.518681 -4.862477,-2.547939 -7.398571,-3.081852"
     style="fill:#00b092;fill-opacity:1;fill-rule:nonzero;stroke:none;stroke-width:0.04663396"
     id="path3460"
     inkscape:connector-curvature="0" />
  <path
     d="m 9.3514981,19.769349 c 0.508636,-0.618088 1.2791709,-1.011958 2.1420809,-1.011958 0.414587,0 0.806636,0.09327 1.160022,0.2563 2.181208,-2.007779 4.756664,-3.911236 7.777845,-5.542119 -0.0408,-0.188728 -0.06319,-0.384358 -0.06319,-0.58549 0,-0.577655 0.177026,-1.113945 0.479262,-1.55804 C 20.389383,10.83764 19.917735,10.357263 19.425736,9.8918558 17.424628,7.9991698 15.391533,6.5719368 13.601212,5.5179168 V 13.199043 H -5.5918848e-5 v 6.276465 C 2.6706511,19.051417 5.8825811,18.970556 9.3514981,19.769349"
     style="fill:#00b092;fill-opacity:1;fill-rule:nonzero;stroke:none;stroke-width:0.04663396"
     id="path3462"
     inkscape:connector-curvature="0" />
  <path
     d="m 27.202842,13.199043 v -0.72208 c -0.434261,0.145731 -0.864735,0.298551 -1.290272,0.458132 -0.0084,0.49003 -0.144611,0.948161 -0.375961,1.344737 1.04231,1.565315 2.029457,3.331577 2.901143,5.314966 0.108012,-0.01273 0.217312,-0.02094 0.328587,-0.02094 1.370809,0 2.505869,0.994982 2.730468,2.301292 3.214468,0.664907 6.324348,2.060615 9.307291,4.176818 V 13.199043 H 27.202842"
     style="fill:#00b092;fill-opacity:1;fill-rule:nonzero;stroke:none;stroke-width:0.04663396"
     id="path3464"
     inkscape:connector-curvature="0" />
</svg>
