<?xml version="1.0" encoding="UTF-8" standalone="no"?>
<!-- Created with Inkscape (http://www.inkscape.org/) -->

<svg
   xmlns:dc="http://purl.org/dc/elements/1.1/"
   xmlns:cc="http://creativecommons.org/ns#"
   xmlns:rdf="http://www.w3.org/1999/02/22-rdf-syntax-ns#"
   xmlns:svg="http://www.w3.org/2000/svg"
   xmlns="http://www.w3.org/2000/svg"
   xmlns:sodipodi="http://sodipodi.sourceforge.net/DTD/sodipodi-0.dtd"
   xmlns:inkscape="http://www.inkscape.org/namespaces/inkscape"
   id="svg3436"
   version="1.1"
   inkscape:version="0.92.2 5c3e80d, 2017-08-06"
   xml:space="preserve"
   width="274.38226"
   height="31.905193"
   viewBox="0 0 274.38226 31.905193"
   sodipodi:docname="aliem-logo-horizontal-text-only.svg"><metadata
     id="metadata3442"><rdf:RDF><cc:Work
         rdf:about=""><dc:format>image/svg+xml</dc:format><dc:type
           rdf:resource="http://purl.org/dc/dcmitype/StillImage" /><dc:title></dc:title></cc:Work></rdf:RDF></metadata><defs
     id="defs3440" /><sodipodi:namedview
     pagecolor="#ffffff"
     bordercolor="#666666"
     borderopacity="1"
     objecttolerance="10"
     gridtolerance="10"
     guidetolerance="10"
     inkscape:pageopacity="0"
     inkscape:pageshadow="2"
     inkscape:window-width="3840"
     inkscape:window-height="2076"
     id="namedview3438"
     showgrid="false"
     inkscape:zoom="2.8284272"
     inkscape:cx="87.018707"
     inkscape:cy="73.551838"
     inkscape:window-x="2160"
     inkscape:window-y="84"
     inkscape:window-maximized="0"
     inkscape:current-layer="g3446"
     fit-margin-top="0"
     fit-margin-left="0"
     fit-margin-right="0"
     fit-margin-bottom="0" /><g
     id="g3444"
     inkscape:groupmode="layer"
     inkscape:label="ink_ext_XXXXXX"
     transform="matrix(1.25,0,0,-1.25,-323.43464,69.549006)"><g
       id="g3446"
       transform="scale(0.1)"><path
         d="m 2706.2671,483.68655 -27.9133,-71.40571 h 56.1549 z m -19.4706,66.86281 h 41.8662 l 99.9722,-229.79777 h -57.1248 l -19.799,48.68448 h -89.2613 l -19.1499,-48.68448 h -55.8228 l 99.3194,229.79777"
         style="fill:#706d6e;fill-opacity:1;fill-rule:nonzero;stroke:none;stroke-width:0.37307256"
         id="path3466"
         inkscape:connector-curvature="0" /><path
         d="m 2853.6233,550.54936 h 50.6334 V 367.48751 h 93.8017 v -46.73592 h -144.4351 v 229.79777"
         style="fill:#706d6e;fill-opacity:1;fill-rule:nonzero;stroke:none;stroke-width:0.37307256"
         id="path3468"
         inkscape:connector-curvature="0" /><path
         d="m 3020.4502,478.49562 h 48.686 V 320.75159 h -48.686 z m -3.8949,49.65633 c 0,7.79237 2.7607,14.445 8.2785,19.96237 5.5177,5.51737 12.1696,8.27773 19.9594,8.27773 7.7897,0 14.4453,-2.76036 19.9631,-8.27773 5.5177,-5.51737 8.2747,-12.17 8.2747,-19.96237 0,-7.78938 -2.757,-14.44201 -8.2747,-19.95938 -5.5178,-5.51737 -12.1734,-8.27736 -19.9631,-8.27736 -7.7898,0 -14.4417,2.75999 -19.9594,8.27736 -5.5178,5.51737 -8.2785,12.17 -8.2785,19.95938"
         style="fill:#706d6e;fill-opacity:1;fill-rule:nonzero;stroke:none;stroke-width:0.37307256"
         id="path3470"
         inkscape:connector-curvature="0" /><path
         d="m 3112.3044,550.54936 h 156.1197 v -46.7389 h -105.4863 v -42.84365 h 99.6439 v -46.73592 h -99.6439 v -46.74338 h 111.3286 v -46.73592 h -161.962 v 229.79777"
         style="fill:#706d6e;fill-opacity:1;fill-rule:nonzero;stroke:none;stroke-width:0.37307256"
         id="path3472"
         inkscape:connector-curvature="0" /><path
         d="m 3314.8343,550.54936 h 76.5992 L 3444.339,400.5977 h 0.6491 l 53.23,149.95166 h 76.2747 V 320.75159 h -50.6334 v 176.2432 h -0.6492 l -60.3706,-176.2432 h -38.6242 l -58.0986,176.2432 h -0.6491 v -176.2432 h -50.6334 v 229.79777"
         style="fill:#706d6e;fill-opacity:1;fill-rule:nonzero;stroke:none;stroke-width:0.37307256"
         id="path3474"
         inkscape:connector-curvature="0" /><path
         d="m 3719.4762,534.16924 h -0.235 l -17.2733,-40.8951 h 33.9608 z m -4.4656,12.69192 h 9.282 l 35.3747,-83.20264 h -11.5204 l -8.4576,20.44923 h -41.6013 l -8.577,-20.44923 h -11.166 l 36.6656,83.20264"
         style="fill:#706d6e;fill-opacity:1;fill-rule:nonzero;stroke:none;stroke-width:0.37307256"
         id="path3476"
         inkscape:connector-curvature="0" /><path
         d="m 3808.2003,504.90804 c -1.9549,2.35035 -4.0739,4.05418 -6.3422,5.11221 -2.272,1.05803 -4.779,1.58705 -7.5249,1.58705 -3.0554,0 -5.7602,-0.52902 -8.1068,-1.58705 -2.3504,-1.05803 -4.2904,-2.52719 -5.82,-4.40711 -1.5221,-1.87991 -2.6823,-4.05418 -3.4658,-6.5228 -0.7835,-2.46713 -1.1752,-5.11072 -1.1752,-7.93227 0,-2.81968 0.4514,-5.46476 1.3543,-7.93226 0.8953,-2.46863 2.1489,-4.6414 3.7605,-6.52131 1.6043,-1.87991 3.5405,-3.35057 5.8125,-4.40711 2.2758,-1.05766 4.8201,-1.58668 7.6405,-1.58668 6.0326,0 10.696,2.27164 13.9865,6.81417 l 6.8161,-6.46161 c -2.6638,-3.05621 -5.8013,-5.28868 -9.4015,-6.69927 -3.6076,-1.40946 -7.4017,-2.11457 -11.4011,-2.11457 -4.2269,0 -8.1068,0.70511 -11.6324,2.11457 -3.5255,1.41059 -6.5213,3.40877 -8.991,5.99379 -2.4698,2.58539 -4.3873,5.64123 -5.7565,9.16676 -1.3729,3.52517 -2.0594,7.40288 -2.0594,11.63352 0,4.15193 0.6865,7.99196 2.0594,11.51713 1.3692,3.52516 3.3091,6.58137 5.8162,9.16676 2.507,2.58502 5.4991,4.60073 8.991,6.05049 3.4808,1.45163 7.3458,2.17576 11.5727,2.17576 4.074,0 7.9316,-0.7051 11.5765,-2.11457 3.6412,-1.41208 6.8347,-3.60538 9.5768,-6.581 l -7.2862,-6.4646"
         style="fill:#706d6e;fill-opacity:1;fill-rule:nonzero;stroke:none;stroke-width:0.37307256"
         id="path3478"
         inkscape:connector-curvature="0" /><path
         d="m 3851.5663,490.10004 c -5.8759,0 -10.5356,-0.82039 -13.9828,-2.46713 -3.4509,-1.64525 -5.1745,-4.34704 -5.1745,-8.10836 0,-3.4498 1.1566,-5.89641 3.4696,-7.34505 2.3093,-1.45013 5.1894,-2.17277 8.6366,-2.17277 2.66,0 4.9955,0.4488 6.9951,1.35089 1.996,0.89761 3.6562,2.09406 4.988,3.58336 1.3356,1.48819 2.3541,3.23119 3.0592,5.23048 0.7014,1.9978 1.0968,4.12991 1.1752,6.40491 v 3.52367 z m -26.559,21.50726 c 2.8204,2.89691 6.1706,5.0335 10.0468,6.40491 3.8762,1.36955 7.8159,2.056 11.8115,2.056 8.1479,0 14.0201,-1.92207 17.6277,-5.75763 3.6038,-3.84003 5.4058,-9.67675 5.4058,-17.51277 v -23.61997 c 0,-1.56653 0.078,-3.19163 0.235,-4.87755 0.1567,-1.68479 0.3507,-3.23118 0.5895,-4.64177 h -8.8157 c -0.3134,1.25204 -0.4888,2.64658 -0.5298,4.17245 -0.041,1.52848 -0.06,2.87974 -0.06,4.05567 h -0.235 c -1.7982,-2.82155 -4.212,-5.13423 -7.2264,-6.93393 -3.0182,-1.80119 -6.6407,-2.70328 -10.8714,-2.70328 -2.8204,0 -5.4617,0.35106 -7.9315,1.05654 -2.4697,0.7066 -4.6261,1.74299 -6.4616,3.11441 -1.843,1.36955 -3.3129,3.07337 -4.4097,5.11221 -1.1006,2.03586 -1.6453,4.38622 -1.6453,7.05182 0,4.54253 1.1752,8.10687 3.5256,10.69524 2.354,2.5839 5.2677,4.5015 8.7597,5.75801 3.4808,1.25016 7.2413,2.03585 11.278,2.34886 4.0329,0.31189 7.7375,0.47082 11.1064,0.47082 h 3.5255 v 1.64376 c 0,3.99747 -1.1938,7.01264 -3.5852,9.04999 -2.3877,2.03586 -5.7416,3.05621 -10.0469,3.05621 -2.9808,0 -5.8945,-0.49134 -8.756,-1.47065 -2.8577,-0.98081 -5.3872,-2.48616 -7.5808,-4.52351 l -5.7565,5.99416"
         style="fill:#706d6e;fill-opacity:1;fill-rule:nonzero;stroke:none;stroke-width:0.37307256"
         id="path3480"
         inkscape:connector-curvature="0" /><path
         d="m 3932.4186,491.15807 c 0,2.89729 -0.4514,5.58304 -1.3543,8.05016 -0.8991,2.46863 -2.2123,4.62275 -3.9359,6.46311 -1.7236,1.84074 -3.7829,3.29088 -6.1706,4.34891 -2.3914,1.05803 -5.0738,1.58705 -8.0472,1.58705 -2.9771,0 -5.6632,-0.52902 -8.0509,-1.58705 -2.3876,-1.05803 -4.447,-2.50817 -6.1706,-4.34891 -1.7236,-1.84036 -3.0368,-3.99448 -3.9359,-6.46311 -0.9029,-2.46712 -1.3543,-5.15287 -1.3543,-8.05016 0,-2.89989 0.4514,-5.58303 1.3543,-8.04866 0.8991,-2.46862 2.2123,-4.62424 3.9359,-6.46311 1.7236,-1.84223 3.783,-3.29237 6.1706,-4.34891 2.3877,-1.05766 5.0738,-1.58668 8.0509,-1.58668 2.9734,0 5.6558,0.52902 8.0472,1.58668 2.3877,1.05654 4.447,2.50668 6.1706,4.34891 1.7236,1.83887 3.0368,3.99449 3.9359,6.46311 0.9029,2.46563 1.3543,5.14877 1.3543,8.04866 z m 0,-17.74556 h -0.235 c -1.7236,-3.13344 -4.4508,-5.77853 -8.1703,-7.93078 -3.7196,-2.15412 -8.0472,-3.2323 -12.983,-3.2323 -3.8426,0 -7.4428,0.72413 -10.8116,2.17277 -3.3726,1.45014 -6.2863,3.46697 -8.756,6.05385 -2.4698,2.58502 -4.4097,5.63974 -5.8162,9.16639 -1.414,3.52517 -2.1153,7.36222 -2.1153,11.51563 0,4.15193 0.7013,7.99196 2.1153,11.51713 1.4065,3.52516 3.3651,6.58137 5.8721,9.16676 2.5071,2.58502 5.5439,4.60073 9.1105,6.05049 3.5628,1.45163 7.4987,2.17576 11.8115,2.17576 3.9918,0 7.6554,-0.82337 10.9869,-2.46862 3.3278,-1.64376 6.2453,-3.95643 8.7561,-6.93243 h 0.235 v 41.83523 h 9.1664 v -88.84387 h -9.1664 v 9.75399"
         style="fill:#706d6e;fill-opacity:1;fill-rule:nonzero;stroke:none;stroke-width:0.37307256"
         id="path3482"
         inkscape:connector-curvature="0" /><path
         d="m 3999.7545,496.0942 c -0.1605,4.70108 -1.6863,8.46091 -4.5851,11.28097 -2.8988,2.82117 -6.8907,4.23213 -11.9868,4.23213 -5.0925,0 -9.2075,-1.41096 -12.3375,-4.23213 -3.1376,-2.82006 -5.0179,-6.57989 -5.6446,-11.28097 z m 7.8718,-22.44554 c -3.2905,-4.23064 -6.8944,-7.18911 -10.8079,-8.87241 -3.921,-1.68293 -8.465,-2.52682 -13.6358,-2.52682 -4.309,0 -8.189,0.76368 -11.6362,2.29066 -3.4472,1.52736 -6.3646,3.58374 -8.7485,6.17062 -2.3951,2.58502 -4.2344,5.63974 -5.5252,9.1664 -1.2983,3.52516 -1.94,7.28498 -1.94,11.28096 0,4.23065 0.7014,8.12739 2.1153,11.69359 1.4065,3.56322 3.3651,6.62055 5.8722,9.16639 2.507,2.54473 5.4879,4.52351 8.9351,5.93559 3.4472,1.40947 7.204,2.11457 11.278,2.11457 3.8389,0 7.3681,-0.6469 10.5803,-1.9396 3.2084,-1.2927 5.9729,-3.1741 8.2859,-5.63974 2.3094,-2.46862 4.0926,-5.48528 5.3424,-9.04999 1.2536,-3.56583 1.8841,-7.62038 1.8841,-12.16403 v -2.93646 h -44.4255 c 0.1604,-2.35073 0.7237,-4.60371 1.7049,-6.75783 0.9812,-2.15524 2.2534,-4.03665 3.8203,-5.63974 1.5669,-1.60757 3.4099,-2.87975 5.5214,-3.81952 2.1154,-0.94014 4.4284,-1.41059 6.9355,-1.41059 3.9956,0 7.3607,0.70511 10.1065,2.11458 2.7421,1.41059 5.2118,3.48562 7.4055,6.22845 l 6.9317,-5.40508"
         style="fill:#706d6e;fill-opacity:1;fill-rule:nonzero;stroke:none;stroke-width:0.37307256"
         id="path3484"
         inkscape:connector-curvature="0" /><path
         d="m 4023.8437,505.61314 c 0,2.50668 -0.078,4.85741 -0.235,7.05219 -0.1604,2.19181 -0.2313,4.18961 -0.2313,5.99379 h 8.6926 c 0,-1.4908 0.041,-2.97861 0.1156,-4.46829 0.082,-1.48782 0.1194,-3.01667 0.1194,-4.5832 h 0.2388 c 0.6268,1.33224 1.5035,2.62606 2.6414,3.87958 1.1341,1.25315 2.4883,2.36789 4.0553,3.3487 1.5669,0.97932 3.3278,1.76202 5.2901,2.35073 1.9549,0.58573 4.074,0.88157 6.346,0.88157 2.9734,0 5.4618,-0.37307 7.4614,-1.11623 1.996,-0.74615 3.6561,-1.64525 4.9917,-2.70328 1.3319,-1.05655 2.3691,-2.1933 3.1152,-3.40877 0.7461,-1.21509 1.3505,-2.29066 1.8206,-3.2323 2.037,3.29199 4.3911,5.85687 7.0511,7.6991 2.6674,1.83925 6.1109,2.76148 10.3415,2.76148 3.9173,0 7.2115,-0.53051 9.8715,-1.58705 2.6675,-1.05803 4.8201,-2.58352 6.4617,-4.58319 1.6489,-1.99781 2.8241,-4.42576 3.5255,-7.28648 0.7088,-2.85923 1.0595,-6.05087 1.0595,-9.57752 v -33.37545 h -9.1664 v 32.90463 c 0,1.8814 -0.194,3.72214 -0.5857,5.52334 -0.3917,1.80119 -1.1006,3.40876 -2.1153,4.81786 -1.0185,1.41208 -2.3951,2.54734 -4.115,3.40876 -1.7236,0.86105 -3.9173,1.29419 -6.5773,1.29419 -1.9623,0 -3.8053,-0.39359 -5.5252,-1.1763 -1.7273,-0.78382 -3.2345,-1.87991 -4.5254,-3.2905 -1.2908,-1.41058 -2.313,-3.11441 -3.0554,-5.11221 -0.7462,-1.99818 -1.1192,-4.21162 -1.1192,-6.63957 v -31.7302 h -9.1664 v 31.14447 c 0,6.10907 -0.8171,10.43708 -2.466,12.98293 -1.6416,2.54622 -4.3463,3.82138 -8.1069,3.82138 -2.9809,0 -5.5439,-0.51036 -7.6965,-1.52885 -2.1564,-1.01849 -3.921,-2.46862 -5.2902,-4.34853 -1.3691,-1.87992 -2.3914,-4.11276 -3.0592,-6.69778 -0.6603,-2.58539 -0.9961,-5.44611 -0.9961,-8.57805 v -26.79557 h -9.1664 v 41.95462"
         style="fill:#706d6e;fill-opacity:1;fill-rule:nonzero;stroke:none;stroke-width:0.37307256"
         id="path3486"
         inkscape:connector-curvature="0" /><path
         d="m 4124.7897,518.65912 h 9.1701 v -55.0006 h -9.1701 z m -2.1116,21.50427 c 0,1.8012 0.6454,3.36773 1.94,4.70109 1.2871,1.33187 2.8764,1.99668 4.7567,1.99668 1.8803,0 3.4696,-0.66481 4.7567,-1.99668 1.2982,-1.33336 1.9437,-2.89989 1.9437,-4.70109 0,-1.95863 -0.6305,-3.5647 -1.8841,-4.81935 -1.2535,-1.25352 -2.8577,-1.87991 -4.8163,-1.87991 -1.9587,0 -3.5629,0.62639 -4.8164,1.87991 -1.2535,1.25465 -1.8803,2.86072 -1.8803,4.81935"
         style="fill:#706d6e;fill-opacity:1;fill-rule:nonzero;stroke:none;stroke-width:0.37307256"
         id="path3488"
         inkscape:connector-curvature="0" /><path
         d="m 4191.3048,504.90804 c -1.9586,2.35035 -4.0739,4.05418 -6.3459,5.11221 -2.2721,1.05803 -4.7791,1.58705 -7.5212,1.58705 -3.0554,0 -5.7565,-0.52902 -8.1068,-1.58705 -2.3504,-1.05803 -4.2867,-2.52719 -5.82,-4.40711 -1.5258,-1.87991 -2.6786,-4.05418 -3.4658,-6.5228 -0.7797,-2.46713 -1.1752,-5.11072 -1.1752,-7.93227 0,-2.81968 0.4514,-5.46476 1.3542,-7.93226 0.8992,-2.46863 2.1527,-4.6414 3.7569,-6.52131 1.6079,-1.87991 3.5479,-3.35057 5.8199,-4.40711 2.272,-1.05766 4.8164,-1.58668 7.6368,-1.58668 6.0326,0 10.696,2.27164 13.9865,6.81417 l 6.816,-6.46161 c -2.6674,-3.05621 -5.8012,-5.28868 -9.4014,-6.69927 -3.6039,-1.40946 -7.4055,-2.11457 -11.4011,-2.11457 -4.2269,0 -8.1068,0.70511 -11.6324,2.11457 -3.5255,1.41059 -6.5213,3.40877 -8.991,5.99379 -2.4698,2.58539 -4.3874,5.64123 -5.7565,9.16676 -1.3767,3.52517 -2.0594,7.40288 -2.0594,11.63352 0,4.15193 0.6827,7.99196 2.0594,11.51713 1.3691,3.52516 3.3054,6.58137 5.8162,9.16676 2.507,2.58502 5.5028,4.60073 8.991,6.05049 3.4845,1.45163 7.3458,2.17576 11.5727,2.17576 4.074,0 7.9353,-0.7051 11.5765,-2.11457 3.6449,-1.41208 6.8346,-3.60538 9.5767,-6.581 l -7.2861,-6.4646"
         style="fill:#706d6e;fill-opacity:1;fill-rule:nonzero;stroke:none;stroke-width:0.37307256"
         id="path3490"
         inkscape:connector-curvature="0" /><path
         d="m 4243.1321,546.86116 h 9.8715 v -74.03587 h 38.0757 v -9.16677 h -47.9472 v 83.20264"
         style="fill:#706d6e;fill-opacity:1;fill-rule:nonzero;stroke:none;stroke-width:0.37307256"
         id="path3492"
         inkscape:connector-curvature="0" /><path
         d="m 4301.0665,518.65912 h 9.1701 v -55.0006 h -9.1701 z m -2.1153,21.50427 c 0,1.8012 0.6454,3.36773 1.9437,4.70109 1.2871,1.33187 2.8764,1.99668 4.7567,1.99668 1.8802,0 3.4695,-0.66481 4.7566,-1.99668 1.2946,-1.33336 1.94,-2.89989 1.94,-4.70109 0,-1.95863 -0.6267,-3.5647 -1.8803,-4.81935 -1.2535,-1.25352 -2.8614,-1.87991 -4.8163,-1.87991 -1.9587,0 -3.5666,0.62639 -4.8201,1.87991 -1.2536,1.25465 -1.8803,2.86072 -1.8803,4.81935"
         style="fill:#706d6e;fill-opacity:1;fill-rule:nonzero;stroke:none;stroke-width:0.37307256"
         id="path3494"
         inkscape:connector-curvature="0" /><path
         d="m 4333.147,510.90182 h -11.9868 v 7.7573 h 11.9868 v 12.33751 c 0,3.3681 0.3134,6.44296 0.9402,9.22645 0.6267,2.78051 1.7049,5.18795 3.2308,7.22679 1.5296,2.03586 3.5442,3.62291 6.0549,4.75966 2.5071,1.13526 5.5961,1.70345 9.2858,1.70345 1.1715,0 2.425,-0.1164 3.7568,-0.35255 1.3356,-0.23466 2.4287,-0.58722 3.2905,-1.05804 l -1.2908,-8.22662 c -2.1937,0.7842 -4.2717,1.17443 -6.2303,1.17443 -2.3466,0 -4.1896,-0.40926 -5.5252,-1.23263 -1.3319,-0.82337 -2.3317,-1.96012 -2.9958,-3.40727 -0.664,-1.45162 -1.0558,-3.19462 -1.1714,-5.23048 -0.1157,-2.03846 -0.1791,-4.23027 -0.1791,-6.5795 v -10.3412 h 13.397 v -7.7573 h -13.397 v -47.2433 h -9.1664 v 47.2433"
         style="fill:#706d6e;fill-opacity:1;fill-rule:nonzero;stroke:none;stroke-width:0.37307256"
         id="path3496"
         inkscape:connector-curvature="0" /><path
         d="m 4406.7132,496.0942 c -0.1567,4.70108 -1.6863,8.46091 -4.5851,11.28097 -2.8987,2.82117 -6.8944,4.23213 -11.9905,4.23213 -5.0925,0 -9.2,-1.41096 -12.3338,-4.23213 -3.1338,-2.82006 -5.0141,-6.57989 -5.6409,-11.28097 z m 7.8718,-22.44554 c -3.2905,-4.23064 -6.8906,-7.18911 -10.8116,-8.87241 -3.9173,-1.68293 -8.4613,-2.52682 -13.6358,-2.52682 -4.3053,0 -8.1815,0.76368 -11.6287,2.29066 -3.4509,1.52736 -6.3683,3.58374 -8.756,6.17062 -2.3914,2.58502 -4.2307,5.63974 -5.5252,9.1664 -1.2908,3.52516 -1.9363,7.28498 -1.9363,11.28096 0,4.23065 0.7051,8.12739 2.1116,11.69359 1.414,3.56322 3.3689,6.62055 5.8797,9.16639 2.507,2.54473 5.4804,4.52351 8.9313,5.93559 3.4472,1.40947 7.204,2.11457 11.2817,2.11457 3.8389,0 7.3607,-0.6469 10.5729,-1.9396 3.2122,-1.2927 5.9766,-3.1741 8.2859,-5.63974 2.3094,-2.46862 4.0964,-5.48528 5.3462,-9.04999 1.2535,-3.56583 1.8803,-7.62038 1.8803,-12.16403 v -2.93646 h -44.4181 c 0.153,-2.35073 0.7201,-4.60371 1.7012,-6.75783 0.9812,-2.15524 2.2534,-4.03665 3.824,-5.63974 1.5669,-1.60757 3.4062,-2.87975 5.5215,-3.81952 2.1116,-0.94014 4.4247,-1.41059 6.928,-1.41059 4.003,0 7.3682,0.70511 10.1065,2.11458 2.7458,1.41059 5.2118,3.48562 7.4092,6.22845 l 6.9317,-5.40508"
         style="fill:#706d6e;fill-opacity:1;fill-rule:nonzero;stroke:none;stroke-width:0.37307256"
         id="path3498"
         inkscape:connector-curvature="0" /><path
         d="m 4464.2932,518.65912 h 9.1664 v -55.0006 h -9.1664 z m -2.1116,21.50427 c 0,1.8012 0.6454,3.36773 1.94,4.70109 1.2871,1.33187 2.8764,1.99668 4.7567,1.99668 1.8803,0 3.4695,-0.66481 4.7566,-1.99668 1.2983,-1.33336 1.9438,-2.89989 1.9438,-4.70109 0,-1.95863 -0.6305,-3.5647 -1.8841,-4.81935 -1.2535,-1.25352 -2.8577,-1.87991 -4.8163,-1.87991 -1.9587,0 -3.5629,0.62639 -4.8164,1.87991 -1.2535,1.25465 -1.8803,2.86072 -1.8803,4.81935"
         style="fill:#706d6e;fill-opacity:1;fill-rule:nonzero;stroke:none;stroke-width:0.37307256"
         id="path3500"
         inkscape:connector-curvature="0" /><path
         d="m 4491.6767,505.61314 c 0,2.50668 -0.078,4.85741 -0.2313,7.05219 -0.1604,2.19181 -0.2387,4.18961 -0.2387,5.99379 h 8.6963 c 0,-1.4908 0.037,-2.97861 0.1194,-4.46829 0.078,-1.48782 0.1156,-3.01667 0.1156,-4.5832 h 0.2351 c 0.6267,1.33224 1.5072,2.62606 2.6413,3.87958 1.1379,1.25315 2.4884,2.36789 4.059,3.3487 1.5669,0.97932 3.3278,1.76202 5.2865,2.35073 1.9586,0.58573 4.0739,0.88157 6.3459,0.88157 3.6039,0 6.7153,-0.54916 9.3418,-1.64525 2.6264,-1.0972 4.7977,-2.62605 6.525,-4.58319 1.7199,-1.96013 2.9958,-4.32951 3.8203,-7.11039 0.8207,-2.78051 1.2311,-5.81732 1.2311,-9.1082 v -33.96266 h -9.1664 v 33.02439 c 0,4.62087 -1.0222,8.2643 -3.0554,10.92692 -2.037,2.66374 -5.2081,3.99747 -9.5171,3.99747 -2.9771,0 -5.5439,-0.51036 -7.7002,-1.52885 -2.1564,-1.01849 -3.921,-2.46862 -5.2902,-4.34853 -1.3692,-1.87992 -2.3877,-4.11276 -3.0517,-6.69778 -0.6678,-2.58539 -0.9999,-5.44611 -0.9999,-8.57805 v -26.79557 h -9.1664 v 41.95462"
         style="fill:#706d6e;fill-opacity:1;fill-rule:nonzero;stroke:none;stroke-width:0.37307256"
         id="path3502"
         inkscape:connector-curvature="0" /><path
         d="m 3687.9814,412.55504 h 52.2974 v -9.16676 h -42.4259 v -26.08561 h 39.6054 v -9.16676 h -39.6054 v -29.61674 h 44.5374 v -9.16677 h -54.4089 v 83.20264"
         style="fill:#706d6e;fill-opacity:1;fill-rule:nonzero;stroke:none;stroke-width:0.37307256"
         id="path3504"
         inkscape:connector-curvature="0" /><path
         d="m 3756.0262,371.30553 c 0,2.50668 -0.082,4.86039 -0.2388,7.05368 -0.1567,2.19292 -0.2351,4.18961 -0.2351,5.99379 h 8.7001 c 0,-1.4908 0.037,-2.97712 0.1157,-4.46829 0.078,-1.48931 0.1156,-3.01667 0.1156,-4.5832 h 0.235 c 0.6268,1.33075 1.5073,2.62755 2.6451,3.88108 1.1379,1.25315 2.4847,2.36789 4.0553,3.3472 1.5669,0.98081 3.3241,1.76053 5.2865,2.35073 1.9586,0.58573 4.0739,0.88157 6.3459,0.88157 2.9809,0 5.4655,-0.37158 7.4615,-1.11474 1.9996,-0.74764 3.6636,-1.64674 4.9992,-2.70328 1.3281,-1.05654 2.369,-2.19329 3.1114,-3.41026 0.7424,-1.21659 1.3505,-2.29066 1.8206,-3.2323 2.0369,3.29087 4.3873,5.85575 7.0548,7.6991 2.66,1.83925 6.1072,2.76148 10.3378,2.76148 3.9173,0 7.2078,-0.53163 9.8752,-1.58817 2.66,-1.05691 4.8164,-2.5824 6.4617,-4.58357 1.6452,-1.99631 2.8204,-4.42277 3.5255,-7.28648 0.7051,-2.85624 1.0595,-6.04788 1.0595,-9.57453 V 329.3524 h -9.1664 v 32.90351 c 0,1.88252 -0.1977,3.72326 -0.5932,5.52297 -0.3917,1.80268 -1.0968,3.41025 -2.1115,4.81935 -1.0223,1.41059 -2.3914,2.54734 -4.115,3.40727 -1.7236,0.86254 -3.9136,1.29717 -6.581,1.29717 -1.9624,0 -3.8016,-0.39359 -5.5252,-1.17779 -1.7236,-0.78233 -3.2271,-1.87991 -4.5254,-3.289 -1.2871,-1.41358 -2.3093,-3.11591 -3.0517,-5.1152 -0.7425,-1.99669 -1.1155,-4.21162 -1.1155,-6.63808 v -31.7302 h -9.1664 v 31.14447 c 0,6.10907 -0.8245,10.43708 -2.4698,12.98293 -1.6452,2.54771 -4.35,3.82287 -8.1106,3.82287 -2.9771,0 -5.5401,-0.51036 -7.6927,-1.53034 -2.1564,-1.01998 -3.921,-2.47011 -5.2902,-4.35003 -1.3692,-1.87991 -2.3914,-4.10976 -3.0555,-6.69628 -0.6678,-2.58688 -0.9961,-5.44611 -0.9961,-8.57656 V 329.3524 h -9.1663 v 41.95313"
         style="fill:#706d6e;fill-opacity:1;fill-rule:nonzero;stroke:none;stroke-width:0.37307256"
         id="path3506"
         inkscape:connector-curvature="0" /><path
         d="m 3897.3945,361.78957 c -0.1567,4.69959 -1.6863,8.45942 -4.5813,11.27948 -2.9025,2.81968 -6.8981,4.23362 -11.9905,4.23362 -5.0925,0 -9.2037,-1.41394 -12.3376,-4.23362 -3.1338,-2.82006 -5.0103,-6.57989 -5.6371,-11.27948 z m 7.8756,-22.44703 c -3.2905,-4.22915 -6.8944,-7.18762 -10.8154,-8.87092 -3.9172,-1.6833 -8.4575,-2.52831 -13.632,-2.52831 -4.3053,0 -8.1815,0.76517 -11.6287,2.29066 -3.4509,1.52736 -6.3684,3.58225 -8.7598,6.16913 -2.3914,2.58651 -4.2306,5.63974 -5.5214,9.16639 -1.2909,3.52666 -1.94,7.28648 -1.94,11.28246 0,4.23065 0.7088,8.12888 2.1153,11.6921 1.4102,3.56321 3.3689,6.62353 5.8796,9.16639 2.5071,2.54622 5.4767,4.525 8.9277,5.93857 3.4471,1.40648 7.2077,2.11308 11.2854,2.11308 3.8352,0 7.357,-0.6484 10.5729,-1.93811 3.2121,-1.29419 5.9729,-3.17708 8.2822,-5.63974 2.3093,-2.47011 4.0963,-5.48677 5.3498,-9.04999 1.2536,-3.56732 1.8803,-7.62187 1.8803,-12.16552 v -2.93646 h -44.418 c 0.153,-2.34924 0.72,-4.60371 1.7012,-6.75783 0.9775,-2.15674 2.2497,-4.03665 3.8203,-5.63974 1.5669,-1.60757 3.4061,-2.87826 5.5252,-3.81803 2.1116,-0.94014 4.4209,-1.41357 6.928,-1.41357 3.9993,0 7.3681,0.7066 10.1065,2.11607 2.7421,1.41059 5.2081,3.48711 7.4055,6.22695 l 6.9354,-5.40358"
         style="fill:#706d6e;fill-opacity:1;fill-rule:nonzero;stroke:none;stroke-width:0.37307256"
         id="path3508"
         inkscape:connector-curvature="0" /><path
         d="m 3921.4876,371.30553 c 0,2.50668 -0.078,4.86039 -0.2351,7.05368 -0.1567,2.19292 -0.2387,4.18961 -0.2387,5.99379 h 8.7 c 0,-1.4908 0.037,-2.97712 0.1194,-4.46829 0.075,-1.48931 0.1156,-3.01667 0.1156,-4.5832 h 0.2314 c 0.6267,1.33075 1.5109,2.62755 2.645,3.88108 1.1379,1.25315 2.4847,2.36789 4.0553,3.3472 1.5669,0.98081 3.3278,1.76053 5.2865,2.35073 1.9623,0.58573 4.0739,0.88157 6.3459,0.88157 0.6268,0 1.2536,-0.0392 1.8803,-0.1164 0.6268,-0.0802 1.2535,-0.23764 1.8803,-0.4738 l -0.5857,-9.28316 c -1.5669,0.4738 -3.2122,0.70697 -4.9358,0.70697 -5.6408,0 -9.7372,-1.82171 -12.2778,-5.46477 -2.5518,-3.64342 -3.8202,-8.63924 -3.8202,-14.98147 V 329.3524 h -9.1664 v 41.95313"
         style="fill:#706d6e;fill-opacity:1;fill-rule:nonzero;stroke:none;stroke-width:0.37307256"
         id="path3510"
         inkscape:connector-curvature="0" /><path
         d="m 3967.4389,356.85195 c 0,-2.81968 0.5037,-5.4241 1.5259,-7.814 1.0147,-2.3899 2.4063,-4.4668 4.1709,-6.22994 1.7647,-1.76351 3.8203,-3.15507 6.1706,-4.17095 2.3467,-1.01737 4.8537,-1.52736 7.5212,-1.52736 3.1338,0 5.9132,0.54655 8.3419,1.64674 2.4287,1.09311 4.4843,2.56488 6.1743,4.40562 1.6826,1.83924 2.9548,3.95233 3.8166,6.34522 0.8618,2.38691 1.2908,4.91523 1.2908,7.58232 0,2.97302 -0.4663,5.69794 -1.4065,8.16395 -0.9401,2.46713 -2.2757,4.60222 -3.9956,6.40491 -1.7236,1.80418 -3.8016,3.19126 -6.2303,4.17207 -2.4324,0.97931 -5.0962,1.47214 -7.9912,1.47214 -2.8988,0 -5.5439,-0.532 -7.9353,-1.58854 -2.3914,-1.05654 -4.4209,-2.50667 -6.1109,-4.35003 -1.6863,-1.83924 -2.9958,-3.99336 -3.9359,-6.46348 -0.9402,-2.46563 -1.4065,-5.15138 -1.4065,-8.04867 z m 48.1786,-25.03242 c 0,-10.02632 -2.5667,-17.64484 -7.6965,-22.85778 -5.1335,-5.20992 -12.5539,-7.81124 -22.2687,-7.81124 -5.4058,0 -10.2819,0.78259 -14.6282,2.34629 -4.35,1.56951 -8.4836,4.27298 -12.4046,8.11003 l 6.581,7.51965 c 2.8987,-3.13045 5.9766,-5.50132 9.2298,-7.10889 3.2494,-1.60571 6.9914,-2.40744 11.222,-2.40744 4.0702,0 7.4652,0.60774 10.1662,1.82171 2.7011,1.21697 4.8351,2.85923 6.4057,4.93314 1.5632,2.07652 2.66,4.45188 3.2868,7.11151 0.6267,2.6671 0.9401,5.44761 0.9401,8.34302 v 7.05369 h -0.235 c -2.1937,-3.52666 -5.0514,-6.11354 -8.577,-7.75581 -3.5255,-1.64413 -7.1331,-2.4675 -10.8116,-2.4675 -4.309,0 -8.2673,0.70249 -11.8712,2.11308 -3.6039,1.41096 -6.6966,3.36661 -9.282,5.87589 -2.5854,2.50668 -4.5814,5.48417 -5.9953,8.93061 -1.4065,3.44645 -2.1153,7.20627 -2.1153,11.28246 0,4.46382 0.7088,8.50046 2.1153,12.10733 1.4139,3.59978 3.3875,6.63808 5.9356,9.10409 2.5443,2.46713 5.6185,4.36905 9.2261,5.70241 3.6001,1.32889 7.5957,1.99631 11.9868,1.99631 1.8803,0 3.7606,-0.21862 5.6408,-0.6484 1.8803,-0.42978 3.7009,-1.0972 5.4656,-1.99668 1.7609,-0.90321 3.3501,-2.03996 4.7566,-3.40988 1.414,-1.36993 2.5854,-2.95399 3.5256,-4.75817 h 0.235 v 9.40404 h 9.1664 v -52.53347"
         style="fill:#706d6e;fill-opacity:1;fill-rule:nonzero;stroke:none;stroke-width:0.37307256"
         id="path3512"
         inkscape:connector-curvature="0" /><path
         d="m 4073.7907,361.78957 c -0.1567,4.69959 -1.69,8.45942 -4.5851,11.27948 -2.8987,2.81968 -6.8981,4.23362 -11.9905,4.23362 -5.0925,0 -9.2037,-1.41394 -12.3338,-4.23362 -3.1338,-2.82006 -5.0141,-6.57989 -5.6408,-11.27948 z m 7.8718,-22.44703 c -3.2905,-4.22915 -6.8943,-7.18762 -10.8153,-8.87092 -3.9136,-1.6833 -8.4576,-2.52831 -13.6321,-2.52831 -4.3053,0 -8.1815,0.76517 -11.6287,2.29066 -3.4509,1.52736 -6.3683,3.58225 -8.7597,6.16913 -2.3877,2.58651 -4.2269,5.63974 -5.5215,9.16639 -1.2908,3.52666 -1.94,7.28648 -1.94,11.28246 0,4.23065 0.7089,8.12888 2.1153,11.6921 1.414,3.56321 3.3689,6.62353 5.8797,9.16639 2.507,2.54622 5.4804,4.525 8.9276,5.93857 3.4472,1.40648 7.2078,2.11308 11.2854,2.11308 3.8352,0 7.3608,-0.6484 10.5729,-1.93811 3.2122,-1.29419 5.9729,-3.17708 8.286,-5.63974 2.3093,-2.47011 4.0926,-5.48677 5.3461,-9.04999 1.2535,-3.56732 1.8803,-7.62187 1.8803,-12.16552 v -2.93646 h -44.418 c 0.1529,-2.34924 0.72,-4.60371 1.7012,-6.75783 0.9811,-2.15674 2.2496,-4.03665 3.8202,-5.63974 1.5669,-1.60757 3.4062,-2.87826 5.5252,-3.81803 2.1116,-0.94014 4.4209,-1.41357 6.928,-1.41357 3.9993,0 7.3682,0.7066 10.1065,2.11607 2.7458,1.41059 5.2118,3.48711 7.4092,6.22695 l 6.9317,-5.40358"
         style="fill:#706d6e;fill-opacity:1;fill-rule:nonzero;stroke:none;stroke-width:0.37307256"
         id="path3514"
         inkscape:connector-curvature="0" /><path
         d="m 4097.8837,371.30553 c 0,2.50668 -0.082,4.86039 -0.2387,7.05368 -0.1567,2.19292 -0.2351,4.18961 -0.2351,5.99379 h 8.7001 c 0,-1.4908 0.034,-2.97712 0.1156,-4.46829 0.075,-1.48931 0.1157,-3.01667 0.1157,-4.5832 h 0.235 c 0.6268,1.33075 1.5072,2.62755 2.6451,3.88108 1.1341,1.25315 2.4847,2.36789 4.0553,3.3472 1.5632,0.98081 3.3241,1.76053 5.2864,2.35073 1.9587,0.58573 4.0703,0.88157 6.346,0.88157 3.6039,0 6.719,-0.54916 9.3417,-1.64674 2.6265,-1.09571 4.8015,-2.62307 6.5251,-4.5832 1.7236,-1.96012 2.9958,-4.32801 3.8165,-7.10889 0.8245,-2.77902 1.2349,-5.81732 1.2349,-9.1082 V 329.3524 h -9.1664 v 33.02439 c 0,4.62237 -1.0185,8.26579 -3.0517,10.92543 -2.0408,2.66672 -5.2156,4.00045 -9.5246,4.00045 -2.9771,0 -5.5401,-0.51036 -7.6927,-1.53034 -2.1601,-1.01998 -3.921,-2.47011 -5.2902,-4.35003 -1.3729,-1.87991 -2.3914,-4.10976 -3.0555,-6.69628 -0.6678,-2.58688 -0.9961,-5.44611 -0.9961,-8.57656 V 329.3524 h -9.1664 v 41.95313"
         style="fill:#706d6e;fill-opacity:1;fill-rule:nonzero;stroke:none;stroke-width:0.37307256"
         id="path3516"
         inkscape:connector-curvature="0" /><path
         d="m 4202.3552,370.60192 c -1.9586,2.35035 -4.0739,4.05567 -6.3459,5.11221 -2.272,1.05654 -4.7791,1.58854 -7.5212,1.58854 -3.0592,0 -5.7602,-0.532 -8.1068,-1.58854 -2.3541,-1.05654 -4.2941,-2.52869 -5.8237,-4.4086 -1.5221,-1.87991 -2.6787,-4.05119 -3.4621,-6.52131 -0.7835,-2.46713 -1.1789,-5.11072 -1.1789,-7.93227 0,-2.81968 0.4514,-5.46476 1.3542,-7.93077 0.8991,-2.47012 2.1527,-4.6414 3.7606,-6.52131 1.6042,-1.87991 3.5405,-3.35206 5.8162,-4.4086 2.272,-1.05654 4.8201,-1.58817 7.6405,-1.58817 6.0289,0 10.6923,2.27313 13.9865,6.81566 l 6.8123,-6.46161 c -2.6637,-3.05733 -5.8013,-5.28719 -9.4014,-6.70076 -3.6039,-1.40648 -7.4018,-2.11308 -11.3974,-2.11308 -4.2306,0 -8.1068,0.7066 -11.6324,2.11308 -3.5292,1.41357 -6.5213,3.41026 -8.9948,5.99677 -2.4697,2.5839 -4.3836,5.63974 -5.7565,9.16639 -1.3729,3.52405 -2.0556,7.40325 -2.0556,11.6324 0,4.15044 0.6827,7.99047 2.0556,11.51713 1.3729,3.52665 3.3092,6.57988 5.8162,9.16676 2.5071,2.58652 5.5029,4.60073 8.9911,6.05049 3.4845,1.45163 7.3458,2.17576 11.5764,2.17576 4.074,0 7.9315,-0.7066 11.5727,-2.11308 3.645,-1.41357 6.8347,-3.60687 9.5805,-6.58249 l -7.2861,-6.4646"
         style="fill:#706d6e;fill-opacity:1;fill-rule:nonzero;stroke:none;stroke-width:0.37307256"
         id="path3518"
         inkscape:connector-curvature="0" /><path
         d="m 4240.0766,316.78023 c -0.9401,-2.35371 -1.8989,-4.48545 -2.8839,-6.40491 -0.9737,-1.92058 -2.1526,-3.56321 -3.5218,-4.93739 -1.3729,-1.36839 -3.0181,-2.42934 -4.9357,-3.17257 -1.9213,-0.74324 -4.2493,-1.11485 -6.9914,-1.11485 -1.3356,0 -2.7234,0.0758 -4.1709,0.23317 -1.4513,0.16031 -2.8018,0.54942 -4.0553,1.17316 l 1.1751,7.99345 c 0.9402,-0.39359 1.9176,-0.64877 2.9361,-0.76517 1.0222,-0.11677 2.1937,-0.17497 3.5293,-0.17497 2.9696,0 5.167,0.82337 6.5773,2.47011 1.4102,1.64264 2.6227,3.83594 3.6449,6.57988 l 3.7605,10.33971 -22.8021,55.35315 h 10.6959 l 17.042,-43.13055 h 0.235 l 16.3332,43.13055 h 9.9908 l -26.559,-67.57277"
         style="fill:#706d6e;fill-opacity:1;fill-rule:nonzero;stroke:none;stroke-width:0.37307256"
         id="path3520"
         inkscape:connector-curvature="0" /><path
         d="m 4310.8223,412.55504 h 14.6879 l 28.2043,-65.22203 h 0.235 l 28.4394,65.22203 h 14.3371 V 329.3524 h -9.8715 v 69.80561 h -0.235 L 4356.77,329.3524 h -5.9916 l -29.8495,69.80561 h -0.2388 V 329.3524 h -9.8678 v 83.20264"
         style="fill:#706d6e;fill-opacity:1;fill-rule:nonzero;stroke:none;stroke-width:0.37307256"
         id="path3522"
         inkscape:connector-curvature="0" /><path
         d="m 4457.0146,361.78957 c -0.1605,4.69959 -1.6901,8.45942 -4.5814,11.27948 -2.9025,2.81968 -6.8981,4.23362 -11.9905,4.23362 -5.0925,0 -9.2075,-1.41394 -12.3413,-4.23362 -3.1338,-2.82006 -5.0103,-6.57989 -5.6371,-11.27948 z m 7.8718,-22.44703 c -3.2868,-4.22915 -6.8944,-7.18762 -10.8117,-8.87092 -3.9172,-1.6833 -8.4612,-2.52831 -13.632,-2.52831 -4.309,0 -8.1852,0.76517 -11.6324,2.29066 -3.4472,1.52736 -6.3684,3.58225 -8.756,6.16913 -2.3952,2.58651 -4.2307,5.63974 -5.5215,9.16639 -1.2946,3.52666 -1.9437,7.28648 -1.9437,11.28246 0,4.23065 0.7088,8.12888 2.1153,11.6921 1.4102,3.56321 3.3726,6.62353 5.8796,9.16639 2.5071,2.54622 5.4805,4.525 8.9314,5.93857 3.4472,1.40648 7.2077,2.11308 11.2817,2.11308 3.8389,0 7.3607,-0.6484 10.5766,-1.93811 3.2084,-1.29419 5.9692,-3.17708 8.2822,-5.63974 2.3093,-2.47011 4.0926,-5.48677 5.3461,-9.04999 1.2536,-3.56732 1.8841,-7.62187 1.8841,-12.16552 v -2.93646 h -44.4218 c 0.1567,-2.34924 0.72,-4.60371 1.705,-6.75783 0.9737,-2.15674 2.2496,-4.03665 3.8165,-5.63974 1.5669,-1.60757 3.4099,-2.87826 5.5215,-3.81803 2.1153,-0.94014 4.4246,-1.41357 6.9354,-1.41357 3.9956,0 7.3644,0.7066 10.1065,2.11607 2.7421,1.41059 5.2081,3.48711 7.4055,6.22695 l 6.9317,-5.40358"
         style="fill:#706d6e;fill-opacity:1;fill-rule:nonzero;stroke:none;stroke-width:0.37307256"
         id="path3524"
         inkscape:connector-curvature="0" /><path
         d="m 4526.8202,356.85195 c 0,2.89729 -0.4515,5.58304 -1.3543,8.04867 -0.8991,2.47012 -2.2123,4.62424 -3.9359,6.46348 -1.7236,1.84336 -3.7792,3.29349 -6.1706,4.35003 -2.3914,1.05654 -5.0701,1.58854 -8.0472,1.58854 -2.9771,0 -5.6632,-0.532 -8.0509,-1.58854 -2.3877,-1.05654 -4.447,-2.50667 -6.1706,-4.35003 -1.7236,-1.83924 -3.0368,-3.99336 -3.9359,-6.46348 -0.9029,-2.46563 -1.3543,-5.15138 -1.3543,-8.04867 0,-2.89989 0.4514,-5.58452 1.3543,-8.04717 0.8991,-2.47011 2.2123,-4.62722 3.9359,-6.46311 1.7236,-1.84372 3.7829,-3.29386 6.1706,-4.3504 2.3877,-1.05654 5.0738,-1.58817 8.0509,-1.58817 2.9771,0 5.6558,0.53163 8.0472,1.58817 2.3914,1.05654 4.447,2.50668 6.1706,4.3504 1.7236,1.83589 3.0368,3.993 3.9359,6.46311 0.9028,2.46265 1.3543,5.14728 1.3543,8.04717 z m 0,-17.74556 h -0.2351 c -1.7236,-3.13344 -4.4507,-5.77853 -8.1703,-7.93078 -3.7195,-2.15412 -8.0471,-3.2323 -12.9829,-3.2323 -3.8389,0 -7.4428,0.72413 -10.8116,2.17128 -3.3726,1.45013 -6.2863,3.46846 -8.756,6.05534 -2.466,2.58651 -4.4098,5.63974 -5.8162,9.16639 -1.414,3.52666 -2.1154,7.36222 -2.1154,11.51563 0,4.15044 0.7014,7.99047 2.1154,11.51713 1.4064,3.52665 3.3651,6.57988 5.8721,9.16676 2.5071,2.58652 5.5476,4.60073 9.1105,6.05049 3.5628,1.45163 7.4987,2.17576 11.8114,2.17576 3.9919,0 7.6555,-0.82337 10.987,-2.47011 3.3316,-1.64227 6.2453,-3.95643 8.756,-6.92945 h 0.2351 v 41.83225 h 9.1664 V 329.3524 h -9.1664 v 9.75399"
         style="fill:#706d6e;fill-opacity:1;fill-rule:nonzero;stroke:none;stroke-width:0.37307256"
         id="path3526"
         inkscape:connector-curvature="0" /><path
         d="m 4553.8455,384.353 h 9.1664 v -55.0006 h -9.1664 z m -2.1153,21.50577 c 0,1.7997 0.6454,3.36623 1.94,4.69959 1.2908,1.33336 2.8801,1.99668 4.7604,1.99668 1.8803,0 3.4696,-0.66332 4.7567,-1.99668 1.2945,-1.33336 1.94,-2.89989 1.94,-4.69959 0,-1.96013 -0.6268,-3.56621 -1.8803,-4.82085 -1.2536,-1.25352 -2.8615,-1.87991 -4.8164,-1.87991 -1.9624,0 -3.5666,0.62639 -4.8201,1.87991 -1.2535,1.25464 -1.8803,2.86072 -1.8803,4.82085"
         style="fill:#706d6e;fill-opacity:1;fill-rule:nonzero;stroke:none;stroke-width:0.37307256"
         id="path3528"
         inkscape:connector-curvature="0" /><path
         d="m 4620.3569,370.60192 c -1.9586,2.35035 -4.0702,4.05567 -6.3459,5.11221 -2.2721,1.05654 -4.7791,1.58854 -7.5175,1.58854 -3.0554,0 -5.7565,-0.532 -8.1106,-1.58854 -2.3503,-1.05654 -4.2903,-2.52869 -5.8162,-4.4086 -1.5296,-1.87991 -2.6823,-4.05119 -3.4658,-6.52131 -0.7835,-2.46713 -1.1752,-5.11072 -1.1752,-7.93227 0,-2.81968 0.4477,-5.46476 1.3468,-7.93077 0.9066,-2.47012 2.1601,-4.6414 3.7606,-6.52131 1.6079,-1.87991 3.5479,-3.35206 5.8236,-4.4086 2.2683,-1.05654 4.8164,-1.58817 7.6368,-1.58817 6.0326,0 10.696,2.27313 13.9828,6.81566 l 6.8198,-6.46161 c -2.6675,-3.05733 -5.8013,-5.28719 -9.4052,-6.70076 -3.6001,-1.40648 -7.4055,-2.11308 -11.3974,-2.11308 -4.2306,0 -8.1106,0.7066 -11.6361,2.11308 -3.5255,1.41357 -6.525,3.41026 -8.991,5.99677 -2.4661,2.5839 -4.3874,5.63974 -5.7603,9.16639 -1.3692,3.52405 -2.0519,7.40325 -2.0519,11.6324 0,4.15044 0.6827,7.99047 2.0519,11.51713 1.3729,3.52665 3.3092,6.57988 5.82,9.16676 2.507,2.58652 5.5065,4.60073 8.991,6.05049 3.4882,1.45163 7.3458,2.17576 11.5764,2.17576 4.0703,0 7.9353,-0.7066 11.5728,-2.11308 3.6449,-1.41357 6.8346,-3.60687 9.5805,-6.58249 l -7.2899,-6.4646"
         style="fill:#706d6e;fill-opacity:1;fill-rule:nonzero;stroke:none;stroke-width:0.37307256"
         id="path3530"
         inkscape:connector-curvature="0" /><path
         d="m 4638.6934,384.353 h 9.1664 v -55.0006 h -9.1664 z m -2.1153,21.50577 c 0,1.7997 0.6454,3.36623 1.94,4.69959 1.2871,1.33336 2.8764,1.99668 4.7567,1.99668 1.8802,0 3.4695,-0.66332 4.7566,-1.99668 1.2983,-1.33336 1.9437,-2.89989 1.9437,-4.69959 0,-1.96013 -0.6304,-3.56621 -1.884,-4.82085 -1.2535,-1.25352 -2.8577,-1.87991 -4.8163,-1.87991 -1.9587,0 -3.5629,0.62639 -4.8164,1.87991 -1.2535,1.25464 -1.8803,2.86072 -1.8803,4.82085"
         style="fill:#706d6e;fill-opacity:1;fill-rule:nonzero;stroke:none;stroke-width:0.37307256"
         id="path3532"
         inkscape:connector-curvature="0" /><path
         d="m 4666.0732,371.30553 c 0,2.50668 -0.078,4.86039 -0.235,7.05368 -0.1567,2.19292 -0.2388,4.18961 -0.2388,5.99379 h 8.7001 c 0,-1.4908 0.037,-2.97712 0.1194,-4.46829 0.075,-1.48931 0.1156,-3.01667 0.1156,-4.5832 h 0.2313 c 0.6268,1.33075 1.511,2.62755 2.6451,3.88108 1.1379,1.25315 2.4847,2.36789 4.0553,3.3472 1.5669,0.98081 3.3278,1.76053 5.2864,2.35073 1.9624,0.58573 4.074,0.88157 6.3497,0.88157 3.6002,0 6.7153,-0.54916 9.338,-1.64674 2.6302,-1.09571 4.8052,-2.62307 6.5251,-4.5832 1.7236,-1.96012 2.9995,-4.32801 3.8202,-7.10889 0.8245,-2.77902 1.2349,-5.81732 1.2349,-9.1082 V 329.3524 h -9.1664 v 33.02439 c 0,4.62237 -1.0222,8.26579 -3.0517,10.92543 -2.0407,2.66672 -5.2156,4.00045 -9.5246,4.00045 -2.9771,0 -5.5438,-0.51036 -7.6964,-1.53034 -2.1564,-1.01998 -3.9173,-2.47011 -5.2902,-4.35003 -1.3692,-1.87991 -2.3877,-4.10976 -3.0517,-6.69628 -0.6716,-2.58688 -0.9999,-5.44611 -0.9999,-8.57656 V 329.3524 h -9.1664 v 41.95313"
         style="fill:#706d6e;fill-opacity:1;fill-rule:nonzero;stroke:none;stroke-width:0.37307256"
         id="path3534"
         inkscape:connector-curvature="0" /><path
         d="m 4772.6638,361.78957 c -0.1604,4.69959 -1.6863,8.45942 -4.5851,11.27948 -2.8987,2.81968 -6.8906,4.23362 -11.9868,4.23362 -5.0924,0 -9.2074,-1.41394 -12.3375,-4.23362 -3.1375,-2.82006 -5.0178,-6.57989 -5.6446,-11.27948 z m 7.8718,-22.44703 c -3.2905,-4.22915 -6.8981,-7.18762 -10.8079,-8.87092 -3.921,-1.6833 -8.465,-2.52831 -13.6358,-2.52831 -4.309,0 -8.1889,0.76517 -11.6361,2.29066 -3.4472,1.52736 -6.3646,3.58225 -8.7523,6.16913 -2.3914,2.58651 -4.2307,5.63974 -5.5215,9.16639 -1.2983,3.52666 -1.9437,7.28648 -1.9437,11.28246 0,4.23065 0.7051,8.12888 2.1191,11.6921 1.4064,3.56321 3.3651,6.62353 5.8721,9.16639 2.5071,2.54622 5.4879,4.525 8.9351,5.93857 3.4435,1.40648 7.204,2.11308 11.278,2.11308 3.8389,0 7.3682,-0.6484 10.5803,-1.93811 3.2085,-1.29419 5.9729,-3.17708 8.286,-5.63974 2.3093,-2.47011 4.0888,-5.48677 5.3424,-9.04999 1.2535,-3.56732 1.884,-7.62187 1.884,-12.16552 v -2.93646 h -44.4255 c 0.1604,-2.34924 0.7238,-4.60371 1.7049,-6.75783 0.9812,-2.15674 2.2534,-4.03665 3.8166,-5.63974 1.5669,-1.60757 3.4099,-2.87826 5.5252,-3.81803 2.1153,-0.94014 4.4246,-1.41357 6.9354,-1.41357 3.9956,0 7.3607,0.7066 10.1065,2.11607 2.7421,1.41059 5.2119,3.48711 7.4055,6.22695 l 6.9317,-5.40358"
         style="fill:#706d6e;fill-opacity:1;fill-rule:nonzero;stroke:none;stroke-width:0.37307256"
         id="path3536"
         inkscape:connector-curvature="0" /></g></g></svg>