<?xml version="1.0" encoding="UTF-8" standalone="no"?>
<!-- Created with Inkscape (http://www.inkscape.org/) -->

<svg
   xmlns:dc="http://purl.org/dc/elements/1.1/"
   xmlns:cc="http://creativecommons.org/ns#"
   xmlns:rdf="http://www.w3.org/1999/02/22-rdf-syntax-ns#"
   xmlns:svg="http://www.w3.org/2000/svg"
   xmlns="http://www.w3.org/2000/svg"
   xmlns:sodipodi="http://sodipodi.sourceforge.net/DTD/sodipodi-0.dtd"
   xmlns:inkscape="http://www.inkscape.org/namespaces/inkscape"
   width="28.222219mm"
   height="32.020737mm"
   viewBox="0 0 99.99999 113.4593"
   id="svg4227"
   version="1.1"
   inkscape:version="0.91 r13725"
   sodipodi:docname="bookclub-book.svg">
  <defs
     id="defs4229" />
  <sodipodi:namedview
     id="base"
     pagecolor="#ffffff"
     bordercolor="#666666"
     borderopacity="1.0"
     inkscape:pageopacity="0.0"
     inkscape:pageshadow="2"
     inkscape:zoom="1.979899"
     inkscape:cx="215.87902"
     inkscape:cy="-44.876673"
     inkscape:document-units="px"
     inkscape:current-layer="layer3"
     showgrid="false"
     showguides="true"
     inkscape:guide-bbox="true"
     inkscape:window-width="3840"
     inkscape:window-height="2067"
     inkscape:window-x="2160"
     inkscape:window-y="93"
     inkscape:window-maximized="0"
     fit-margin-top="0"
     fit-margin-left="0"
     fit-margin-right="0"
     fit-margin-bottom="0" />
  <metadata
     id="metadata4232">
    <rdf:RDF>
      <cc:Work
         rdf:about="">
        <dc:format>image/svg+xml</dc:format>
        <dc:type
           rdf:resource="http://purl.org/dc/dcmitype/StillImage" />
        <dc:title></dc:title>
      </cc:Work>
    </rdf:RDF>
  </metadata>
  <g
     inkscape:groupmode="layer"
     id="layer3"
     inkscape:label="Layer 2"
     style="display:inline"
     transform="translate(-298.71393,-518.90111)">
    <g
       id="g5441"
       transform="matrix(0.04299753,0,0,0.04299753,333.23482,555.04757)">
      <path
         sodipodi:nodetypes="ccccccc"
         inkscape:connector-curvature="0"
         id="path5376"
         d="m -690.71428,-286.55187 2046.33898,0 c 87.7369,-2.58165 124.9338,49.71255 140.0896,86.87316 l 0,-46.46702 c 3.7849,-31.631 -34.4801,-83.81599 -140.0896,-94.42064 l -2046.33898,0 z"
         style="fill:#e5e8de;fill-opacity:1;fill-rule:evenodd;stroke:none;stroke-width:1px;stroke-linecap:butt;stroke-linejoin:miter;stroke-opacity:1" />
      <path
         inkscape:connector-curvature="0"
         id="path5433"
         d="m -707.14286,-638.35208 0,486.42857 2217.14286,0 0,-484.28572 z"
         style="fill:#d8d6c9;fill-opacity:1;fill-rule:evenodd;stroke:none;stroke-width:1px;stroke-linecap:butt;stroke-linejoin:miter;stroke-opacity:1" />
      <g
         id="g5426">
        <path
           sodipodi:nodetypes="ccccccc"
           inkscape:connector-curvature="0"
           id="path5380"
           d="m -690.71428,-392.55187 2046.33898,0 c 91.864,0 140.0896,50.66649 140.0896,86.87316 l 0,-46.46702 c 0,-51.85537 -70.3179,-94.75561 -140.0896,-94.42064 l -2046.33898,0 z"
           style="fill:#e5e8de;fill-opacity:1;fill-rule:evenodd;stroke:none;stroke-width:1px;stroke-linecap:butt;stroke-linejoin:miter;stroke-opacity:1" />
        <path
           sodipodi:nodetypes="ccccccc"
           inkscape:connector-curvature="0"
           id="path5384"
           d="m -690.71428,-500.55187 2046.33898,0 c 65.5151,0 140.0896,40.40614 140.0896,86.87316 l 0,-46.46702 c 0,-49.32492 -56.6914,-94.42064 -140.0896,-94.42064 l -2046.33898,0 z"
           style="fill:#e5e8de;fill-opacity:1;fill-rule:evenodd;stroke:none;stroke-width:1px;stroke-linecap:butt;stroke-linejoin:miter;stroke-opacity:1" />
        <path
           style="fill:#e5e8de;fill-opacity:1;fill-rule:evenodd;stroke:none;stroke-width:1px;stroke-linecap:butt;stroke-linejoin:miter;stroke-opacity:1"
           d="m -690.71428,-606.55187 2046.33898,0 c 87.7369,-2.58165 124.9338,49.71255 140.0896,86.87316 l 0,-46.46702 c 3.7849,-31.631 -34.4801,-83.81599 -140.0896,-94.42064 l -2046.33898,0 z"
           id="path5388"
           inkscape:connector-curvature="0"
           sodipodi:nodetypes="ccccccc" />
        <path
           sodipodi:nodetypes="ccccccc"
           inkscape:connector-curvature="0"
           id="path5390"
           d="m -690.71428,-178.55187 2046.33898,-6.06092 c 0,-0.16788 140.5947,122.228504 140.5947,122.228504 l -0.5051,-75.761444 c 0,-32.66544 -36.4992,-94.42064 -140.0896,-94.42064 l -2046.33898,0 z"
           style="fill:#e5e8de;fill-opacity:1;fill-rule:evenodd;stroke:none;stroke-width:1px;stroke-linecap:butt;stroke-linejoin:miter;stroke-opacity:1" />
        <path
           sodipodi:nodetypes="ccccccc"
           inkscape:connector-curvature="0"
           id="path5374"
           d="m -690.71428,-286.55187 2046.33898,0 c 87.7369,-2.58165 124.9338,49.71255 140.0896,86.87316 l 0,-46.46702 c 0,-31.12697 -39.5296,-94.42064 -140.0896,-94.42064 l -2046.33898,0 z"
           style="fill:#e5e8de;fill-opacity:1;fill-rule:evenodd;stroke:none;stroke-width:1px;stroke-linecap:butt;stroke-linejoin:miter;stroke-opacity:1" />
      </g>
      <path
         sodipodi:nodetypes="ccccccccccccccccc"
         inkscape:connector-curvature="0"
         id="path5365"
         d="m -690.71484,-733.35156 c -78.5508,20.76724 -95.99735,61.5988 -112.14258,102.85742 l 0,445.71289 0,336.08789 2325.71482,0 0,-781.80078 c -5.2302,-49.14784 -59.0186,-102.0168 -122.7851,-102.85742 z M -660,-630.49414 l 2031.4277,0 c 61.0238,5.98586 112.3557,28.56093 124.2871,118.57031 l 0,450.000002 c -19.7217,-78.940742 -68.0388,-120.783612 -160,-122.857422 l -1995.7148,0 c -18.68128,-7.94961 -29.17563,-23.63213 -30.71484,-47.77148 l 0,-352.22852 c 0.83707,-22.75892 10.83079,-38.19155 30.71484,-45.71289 z"
         style="fill:#7bbadb;fill-opacity:1;fill-rule:evenodd;stroke:none;stroke-width:1px;stroke-linecap:butt;stroke-linejoin:miter;stroke-opacity:1" />
      <path
         sodipodi:nodetypes="ccccccccc"
         inkscape:connector-curvature="0"
         id="path5363"
         d="m -660,-61.923472 2054.0105,0 c 98.4829,0 128.5503,93.525254 128.8467,186.965642 l 0,1541.49283 c -25.6313,96.6546 -84.9091,118.1618 -151.07,131.5415 l -2031.7872,0 c -86.27396,-27.833 -122.85606,-76.2526 -142.85714,-131.5415 l 0,-1851.31567 c 31.24107,92.672319 86.54388,109.360224 142.85714,122.857198 z"
         style="fill:#3993c2;fill-opacity:1;fill-rule:evenodd;stroke:none;stroke-width:1px;stroke-linecap:butt;stroke-linejoin:miter;stroke-opacity:1" />
      <path
         inkscape:connector-curvature="0"
         id="path5410"
         d="M -690.71428,-70.137798 -660,-61.923472 -660,1798.0765 -690.71428,1786.238 Z"
         style="fill:#2b78a0;fill-opacity:1;fill-rule:evenodd;stroke:none;stroke-width:1px;stroke-linecap:butt;stroke-linejoin:miter;stroke-opacity:1" />
      <path
         sodipodi:nodetypes="ccccc"
         inkscape:connector-curvature="0"
         id="path5412"
         d="m -604.07122,-321.44526 -198.78592,198.61137 1.42857,514.42507 703.44377,-701.92476 z"
         style="fill:#000000;fill-opacity:0.20700636;fill-rule:evenodd;stroke:none;stroke-width:1px;stroke-linecap:butt;stroke-linejoin:miter;stroke-opacity:1" />
      <rect
         rx="11.214606"
         y="-840.66364"
         x="-608.11176"
         height="535.38086"
         width="511.13712"
         id="rect5407"
         style="fill:#e8522f;fill-opacity:1;stroke:none;stroke-width:2;stroke-miterlimit:4;stroke-dasharray:none;stroke-opacity:1" />
    </g>
  </g>
</svg>
