<?xml version="1.0" encoding="UTF-8" standalone="no"?>
<!-- Created with Inkscape (http://www.inkscape.org/) -->

<svg
   xmlns:dc="http://purl.org/dc/elements/1.1/"
   xmlns:cc="http://creativecommons.org/ns#"
   xmlns:rdf="http://www.w3.org/1999/02/22-rdf-syntax-ns#"
   xmlns:svg="http://www.w3.org/2000/svg"
   xmlns="http://www.w3.org/2000/svg"
   xmlns:sodipodi="http://sodipodi.sourceforge.net/DTD/sodipodi-0.dtd"
   xmlns:inkscape="http://www.inkscape.org/namespaces/inkscape"
   width="152.92126mm"
   height="56.329048mm"
   viewBox="0 0 541.847 199.59111"
   id="svg4768"
   version="1.1"
   inkscape:version="0.91 r13725"
   sodipodi:docname="call9-logo.svg">
  <defs
     id="defs4770" />
  <sodipodi:namedview
     id="base"
     pagecolor="#ffffff"
     bordercolor="#666666"
     borderopacity="1.0"
     inkscape:pageopacity="0.0"
     inkscape:pageshadow="2"
     inkscape:zoom="1.979899"
     inkscape:cx="400.42337"
     inkscape:cy="155.33802"
     inkscape:document-units="px"
     inkscape:current-layer="layer1"
     showgrid="false"
     fit-margin-top="0"
     fit-margin-left="0"
     fit-margin-right="0"
     fit-margin-bottom="0"
     inkscape:window-width="3840"
     inkscape:window-height="2067"
     inkscape:window-x="2160"
     inkscape:window-y="93"
     inkscape:window-maximized="0" />
  <metadata
     id="metadata4773">
    <rdf:RDF>
      <cc:Work
         rdf:about="">
        <dc:format>image/svg+xml</dc:format>
        <dc:type
           rdf:resource="http://purl.org/dc/dcmitype/StillImage" />
        <dc:title></dc:title>
      </cc:Work>
    </rdf:RDF>
  </metadata>
  <g
     inkscape:label="Layer 1"
     inkscape:groupmode="layer"
     id="layer1"
     transform="translate(-90.753675,-634.49858)">
    <path
       style="fill:#000000"
       d="m 533.64707,819.6995 c 0.0153,-0.38551 9.24028,-13.27285 20.5,-28.63854 11.25973,-15.3657 20.47223,-27.99441 20.47223,-28.06381 0,-0.0694 -2.5875,0.0598 -5.75,0.28716 -23.35663,1.67903 -46.73404,-15.7936 -53.77852,-40.19487 -2.7673,-9.58562 -2.29551,-24.16743 1.11589,-34.48925 6.30496,-19.07681 23.06864,-34.56263 42.41263,-39.17957 7.66166,-1.82865 22.27057,-1.56434 29.53565,0.53438 10.37402,2.99682 19.35339,8.39503 27.58578,16.58399 19.12803,19.02715 22.08678,43.82045 8.33088,69.80977 -4.47479,8.4543 -68.91751,97.22791 -70.95231,97.74094 z m 52.59224,-83.69728 c 6.71065,-2.98043 12.30946,-8.14311 15.94191,-14.70009 2.70133,-4.87619 2.93808,-6.10935 2.93808,-15.30355 0,-8.46415 -0.34651,-10.64847 -2.25614,-14.2222 -11.13776,-20.84349 -37.01781,-25.31519 -53.14953,-9.18347 -6.71845,6.71844 -9.54106,13.65516 -9.52398,23.40567 0.0171,9.75291 2.18852,15.18973 8.95651,22.42526 9.79406,10.47064 24.03159,13.37947 37.09315,7.57838 z m -17.62001,-26.50364 -16,0 0,-8 16,0 0,-16 8,0 0,16 16,0 0,8 -16,0 0,16 -8,0 z M 110.13824,797.22226 C 97.961705,782.00348 91.905982,765.99213 90.922383,746.41551 c -0.926391,-18.43802 1.915543,-32.49548 9.687157,-47.91693 4.59063,-9.10935 8.26443,-14.20932 16.42213,-22.79727 12.09629,-12.73424 25.61337,-20.87273 42.08763,-25.34051 20.78948,-4.55181 42.72029,-2.07664 59.05559,4.35392 6.81913,2.70012 12.47385,6.49193 12.47385,6.49193 l -0.52944,31.24131 c -6.47412,-4.66738 -13.29526,-9.28795 -20.33682,-12.64175 -36.63934,-17.22107 -78.06912,2.23075 -89.1642,41.86374 -2.57684,9.20481 -2.84184,25.38261 -0.57583,35.15347 4.24282,18.29469 17.05133,34.3253 34.01015,42.56575 10.42534,5.06576 16.77976,6.48051 29.0667,6.47141 23.60823,-1.42757 30.17967,-8.32931 46.73729,-18.41498 l 0.76271,31.77466 c -16.32762,8.24658 -32.8068,11.5215 -46,11.8725 -29.54322,1.8203 -58.80452,-14.76467 -74.48106,-33.8705 z m 159.4529,18.58706 c -21.46201,-22.94296 -21.42703,-63.71592 0.0744,-86.70099 10.36745,-11.08283 23.01048,-16.15154 38.34827,-15.37418 15.241,1.66173 21.36205,5.47003 32.10549,13.60444 l 0.59981,-10.84001 26.90019,0 0,112 -27,0 0,-10.01544 -5.79403,3.95497 c -10.26895,7.00952 -14.3972,8.35865 -26.70597,8.72763 -14.98689,1.17315 -29.46396,-5.82926 -38.52816,-15.35642 z m 49.4007,-8.81956 c 11.48038,-2.99026 18.9888,-10.94072 22.2165,-23.52444 4.92852,-19.21469 -3.97179,-39.27952 -19.74784,-44.51948 -7.38305,-2.45226 -18.16197,-1.6214 -24.09834,1.85755 -9.69408,5.6811 -15.60542,15.91321 -16.46503,28.49979 -1.26401,18.50779 7.87784,33.85347 22.5145,37.79324 6.29159,1.69352 8.73304,1.6768 15.58021,-0.10666 z m 80.62746,-172.49118 26,0 0,194 -26,0 z m 58,0 27,0 0,194 -27,0 z"
       id="path5327"
       inkscape:connector-curvature="0"
       sodipodi:nodetypes="csssssssssccssssssssccccccccccccccssscccccsssccccccscccccccsccssssssscccccccccc" />
  </g>
</svg>
