<?xml version="1.0" encoding="UTF-8" standalone="no"?>
<!-- Created with Inkscape (http://www.inkscape.org/) -->

<svg
   xmlns:dc="http://purl.org/dc/elements/1.1/"
   xmlns:cc="http://creativecommons.org/ns#"
   xmlns:rdf="http://www.w3.org/1999/02/22-rdf-syntax-ns#"
   xmlns:svg="http://www.w3.org/2000/svg"
   xmlns="http://www.w3.org/2000/svg"
   xmlns:sodipodi="http://sodipodi.sourceforge.net/DTD/sodipodi-0.dtd"
   xmlns:inkscape="http://www.inkscape.org/namespaces/inkscape"
   width="88.573128mm"
   height="23.66202mm"
   viewBox="0 0 313.84179 83.841802"
   id="svg2"
   version="1.1"
   inkscape:version="0.91 r13725"
   sodipodi:docname="cme-button.svg">
  <defs
     id="defs4" />
  <sodipodi:namedview
     id="base"
     pagecolor="#ffffff"
     bordercolor="#666666"
     borderopacity="1.0"
     inkscape:pageopacity="0.0"
     inkscape:pageshadow="2"
     inkscape:zoom="1.979899"
     inkscape:cx="389.02149"
     inkscape:cy="-12.010759"
     inkscape:document-units="px"
     inkscape:current-layer="layer2"
     showgrid="false"
     fit-margin-top="0"
     fit-margin-left="0"
     fit-margin-right="0"
     fit-margin-bottom="0"
     inkscape:window-width="3840"
     inkscape:window-height="2067"
     inkscape:window-x="2160"
     inkscape:window-y="93"
     inkscape:window-maximized="0" />
  <metadata
     id="metadata7">
    <rdf:RDF>
      <cc:Work
         rdf:about="">
        <dc:format>image/svg+xml</dc:format>
        <dc:type
           rdf:resource="http://purl.org/dc/dcmitype/StillImage" />
        <dc:title></dc:title>
      </cc:Work>
    </rdf:RDF>
  </metadata>
  <g
     inkscape:groupmode="layer"
     id="layer2"
     inkscape:label="Main"
     transform="translate(-205.50223,-526.57838)">
    <path
       style="opacity:1;fill:#00b092;fill-opacity:1;stroke:none;stroke-width:0.2;stroke-miterlimit:4;stroke-dasharray:none;stroke-opacity:1"
       d="m 215.50223,526.57838 c -5.54,0 -10,4.46 -10,10 l 0,63.8418 c 0,5.54 4.46,10 10,10 l 293.8418,0 c 5.54,0 10,-4.46 10,-10 l 0,-63.8418 c 0,-5.54 -4.46,-10 -10,-10 l -293.8418,0 z m 64.63086,22.44922 c 3.89649,0 7.03272,1.00048 9.4082,3 2.37549,1.98242 3.82764,4.80176 4.35743,8.45898 l -4.92188,0 c -0.92285,-4.93896 -3.8623,-7.4082 -8.81836,-7.4082 -3.29834,0 -5.80274,1.16211 -7.51172,3.48633 -1.69189,2.30712 -2.5454,5.65673 -2.5625,10.04883 l 0,3.05078 c 0,4.187 0.95704,7.51806 2.8711,9.99609 1.91406,2.46094 4.50341,3.69141 7.76757,3.69141 1.8457,0 3.45947,-0.20508 4.84375,-0.61524 1.38428,-0.41016 2.52978,-1.10205 3.43555,-2.07617 l 0,-8.38281 -8.63867,0 0,-3.99805 13.53516,0 0,13.68945 c -1.26465,1.81153 -3.03369,3.16846 -5.30665,4.07422 -2.25586,0.88868 -4.88867,1.33399 -7.89648,1.33399 -3.04199,0 -5.74121,-0.7085 -8.09961,-2.12696 -2.3584,-1.43554 -4.1875,-3.46972 -5.48633,-6.10156 -1.28174,-2.63184 -1.93847,-5.68311 -1.97265,-9.15234 l 0,-3.25586 c 0,-5.62256 1.30712,-9.97901 3.92187,-13.07227 2.63183,-3.09326 6.32324,-4.64062 11.07422,-4.64062 z m 93.66797,0 c 3.96485,0 7.14453,1.11035 9.53711,3.33203 2.39257,2.20459 3.78467,5.26416 4.17773,9.17773 l -4.94726,0 c -0.42725,-2.97362 -1.35743,-5.12792 -2.79297,-6.46093 -1.41846,-1.33301 -3.41113,-1.99805 -5.97461,-1.99805 -3.14453,0 -5.61376,1.16211 -7.4082,3.48633 -1.77734,2.32422 -2.66602,5.63037 -2.66602,9.91992 l 0,3.61523 c 0,4.0503 0.84717,7.27149 2.53906,9.66407 1.6919,2.39258 4.05762,3.58789 7.09961,3.58789 2.73438,0 4.82861,-0.61524 6.28125,-1.84571 1.46973,-1.24756 2.44336,-3.4082 2.92188,-6.48437 l 4.94726,0 c -0.46142,3.94775 -1.92188,6.99707 -4.38281,9.15039 -2.44385,2.13623 -5.70019,3.20508 -9.76758,3.20508 -4.40918,0 -7.94531,-1.58057 -10.61133,-4.74219 -2.64892,-3.16162 -3.97461,-7.3916 -3.97461,-12.68945 l 0,-3.58985 c 0,-3.46924 0.61524,-6.51855 1.84571,-9.15039 1.24756,-2.63183 3.0083,-4.64941 5.28125,-6.05078 2.27295,-1.41845 4.90381,-2.12695 7.89453,-2.12695 z m 20.40625,0.51172 6.35742,0 12.20117,30.45507 12.20313,-30.45507 6.38281,0 0,37.32422 -4.92188,0 0,-14.53321 0.46094,-15.68945 -12.25195,30.22266 -3.76953,0 -12.22656,-30.14649 0.48632,15.61328 0,14.53321 -4.92187,0 0,-37.32422 z m 45.83398,0 23.45703,0 0,4.05078 -18.53515,0 0,11.99805 16.17578,0 0,4.02343 -16.17578,0 0,13.22852 18.79101,0 0,4.02344 -23.71289,0 0,-37.32422 z m -109.17773,2.87109 4.74219,0 0,6.7168 5.17773,0 0,3.66601 -5.17773,0 0,17.20117 c 0,1.11085 0.23193,1.94776 0.69336,2.51172 0.46142,0.54688 1.24658,0.82032 2.35742,0.82032 0.54687,0 1.29882,-0.10156 2.25586,-0.30664 l 0,3.84375 c -1.24756,0.3418 -2.46143,0.51367 -3.64063,0.51367 -2.11914,0 -3.71631,-0.64014 -4.79297,-1.92188 -1.07666,-1.28174 -1.61523,-3.10254 -1.61523,-5.46094 l 0,-17.20117 -5.05078,0 0,-3.66601 5.05078,0 0,-6.7168 z m -18.5586,6.20508 c 3.60596,0 6.4087,1.18701 8.40821,3.5625 1.99951,2.37549 2.99804,5.77686 2.99805,10.20312 l 0,1.97266 -18.78907,0 c 0.0684,2.73437 0.86182,4.94873 2.38281,6.64062 1.53809,1.67481 3.48731,2.51172 5.84571,2.51172 1.6748,0 3.09179,-0.34179 4.2539,-1.02539 1.16211,-0.68359 2.17921,-1.58886 3.05079,-2.71679 l 2.89648,2.25586 c -2.32421,3.57178 -5.81054,5.35742 -10.45898,5.35742 -3.75977,0 -6.81739,-1.23047 -9.17579,-3.69141 -2.35839,-2.47803 -3.53906,-5.78418 -3.53906,-9.91992 l 0,-0.87305 c 0,-2.75146 0.52197,-5.2041 1.56445,-7.35742 1.05957,-2.17041 2.53027,-3.86084 4.41016,-5.07422 1.89697,-1.23046 3.94775,-1.8457 6.15234,-1.8457 z m 0,3.89648 c -1.91406,0 -3.52147,0.7002 -4.82031,2.10157 -1.29882,1.38427 -2.10254,3.33154 -2.41015,5.84375 l 13.89453,0 0,-0.35743 c -0.13672,-2.40967 -0.78516,-4.27393 -1.94727,-5.58984 -1.16211,-1.33301 -2.73437,-1.99805 -4.7168,-1.99805 z"
       id="rect4191"
       inkscape:connector-curvature="0" />
    <g
       transform="translate(130.05714,115.915)"
       style="font-style:normal;font-weight:normal;font-size:40px;line-height:125%;font-family:sans-serif;letter-spacing:0px;word-spacing:0px;fill:#ff00ff;fill-opacity:1;stroke:none;stroke-width:1px;stroke-linecap:butt;stroke-linejoin:miter;stroke-opacity:1"
       id="flowRoot4183" />
  </g>
</svg>
