<?xml version="1.0" encoding="UTF-8" standalone="no"?>
<!-- Created with Inkscape (http://www.inkscape.org/) -->

<svg
   xmlns:dc="http://purl.org/dc/elements/1.1/"
   xmlns:cc="http://creativecommons.org/ns#"
   xmlns:rdf="http://www.w3.org/1999/02/22-rdf-syntax-ns#"
   xmlns:svg="http://www.w3.org/2000/svg"
   xmlns="http://www.w3.org/2000/svg"
   xmlns:sodipodi="http://sodipodi.sourceforge.net/DTD/sodipodi-0.dtd"
   xmlns:inkscape="http://www.inkscape.org/namespaces/inkscape"
   width="11.288889mm"
   height="11.288889mm"
   viewBox="0 0 40 40"
   id="svg5802"
   version="1.1"
   inkscape:version="0.91 r13725"
   sodipodi:docname="dropbox-button-circle.svg">
  <defs
     id="defs5804">
    <clipPath
       id="clipPath3019"
       clipPathUnits="userSpaceOnUse">
      <path
         id="path3021"
         d="M 0,170 446,170 446,0 0,0 0,170 Z"
         inkscape:connector-curvature="0" />
    </clipPath>
  </defs>
  <sodipodi:namedview
     id="base"
     pagecolor="#ffffff"
     bordercolor="#666666"
     borderopacity="1.0"
     inkscape:pageopacity="0.0"
     inkscape:pageshadow="2"
     inkscape:zoom="22.4"
     inkscape:cx="24.622336"
     inkscape:cy="14.896133"
     inkscape:document-units="px"
     inkscape:current-layer="g6554"
     showgrid="false"
     fit-margin-top="0"
     fit-margin-left="0"
     fit-margin-right="0"
     fit-margin-bottom="0"
     inkscape:window-width="3840"
     inkscape:window-height="2067"
     inkscape:window-x="2160"
     inkscape:window-y="93"
     inkscape:window-maximized="0" />
  <metadata
     id="metadata5807">
    <rdf:RDF>
      <cc:Work
         rdf:about="">
        <dc:format>image/svg+xml</dc:format>
        <dc:type
           rdf:resource="http://purl.org/dc/dcmitype/StillImage" />
        <dc:title></dc:title>
      </cc:Work>
    </rdf:RDF>
  </metadata>
  <g
     inkscape:groupmode="layer"
     id="layer5"
     inkscape:label="Layer 2"
     style="display:inline"
     transform="translate(-303.15498,-665.84121)">
    <g
       id="g6554"
       transform="matrix(0.02264336,0,0,0.02264336,315.28676,677.22112)">
      <path
         style="fill:#00b092;fill-opacity:1;stroke:none;stroke-width:5;stroke-miterlimit:4;stroke-dasharray:none;stroke-opacity:1"
         d="M 20 0 A 19.999999 19.999999 0 0 0 0 20 A 19.999999 19.999999 0 0 0 20 40 A 19.999999 19.999999 0 0 0 40 20 A 19.999999 19.999999 0 0 0 20 0 z M 15.316406 9.2460938 L 19.980469 13.140625 L 13.257812 17.292969 L 19.982422 21.443359 L 26.705078 17.292969 L 19.982422 13.140625 L 24.648438 9.2460938 L 31.316406 13.599609 L 26.705078 17.292969 L 31.316406 20.984375 L 24.648438 25.339844 L 19.982422 21.443359 L 15.316406 25.339844 L 8.6464844 20.984375 L 13.257812 17.292969 L 8.6464844 13.599609 L 15.316406 9.2460938 z M 19.996094 22.28125 L 24.675781 26.166016 L 26.677734 24.857422 L 26.677734 26.324219 L 19.996094 30.330078 L 13.3125 26.324219 L 13.3125 24.857422 L 15.316406 26.166016 L 19.996094 22.28125 z "
         transform="matrix(44.163057,0,0,44.163057,-535.77649,-502.57161)"
         id="path6529" />
      <g
         id="g2993"
         inkscape:label="dropbox-logos_dropbox-logotype-blue"
         transform="matrix(9.9392294,0,0,-9.9392294,-2861.657,394.65031)">
        <g
           style="fill:#ffffff;fill-opacity:1"
           transform="translate(225.94558,-81.7923)"
           id="g6508">
          <g
             style="fill:#ffffff;fill-opacity:1"
             transform="translate(76.1162,130.9785)"
             id="g2995" />
          <g
             style="fill:#ffffff;fill-opacity:1"
             transform="translate(46.4863,78.8198)"
             id="g2999" />
          <g
             style="fill:#ffffff;fill-opacity:1"
             transform="translate(96.8486,76.7798)"
             id="g3003" />
          <g
             style="fill:#ffffff;fill-opacity:1"
             transform="translate(147.2109,111.6328)"
             id="g3007" />
          <g
             style="fill:#ffffff;fill-opacity:1"
             transform="translate(96.9092,73.0566)"
             id="g3011">
            <g
               id="g7269" />
          </g>
          <g
             style="fill:#ffffff;fill-opacity:1"
             id="g3015">
            <g
               style="fill:#ffffff;fill-opacity:1"
               clip-path="url(#clipPath3019)"
               id="g3017">
              <g
                 style="fill:#ffffff;fill-opacity:1"
                 transform="translate(173.7266,102.6348)"
                 id="g3023" />
              <g
                 style="fill:#ffffff;fill-opacity:1"
                 transform="translate(202.7119,98.0259)"
                 id="g3027" />
              <g
                 style="fill:#ffffff;fill-opacity:1"
                 transform="translate(240.333,91.3848)"
                 id="g3031" />
              <g
                 style="fill:#ffffff;fill-opacity:1"
                 transform="translate(269.7393,82.5566)"
                 id="g3035" />
              <g
                 style="fill:#ffffff;fill-opacity:1"
                 transform="translate(303.9316,84.4312)"
                 id="g3039" />
              <g
                 style="fill:#ffffff;fill-opacity:1"
                 transform="translate(342.8721,91.3848)"
                 id="g3043" />
              <g
                 style="fill:#ffffff;fill-opacity:1"
                 transform="translate(358.1104,98.0259)"
                 id="g3047" />
            </g>
          </g>
        </g>
      </g>
    </g>
  </g>
</svg>
