<?xml version="1.0" encoding="UTF-8" standalone="no"?>
<!-- Created with Inkscape (http://www.inkscape.org/) -->

<svg
   xmlns:dc="http://purl.org/dc/elements/1.1/"
   xmlns:cc="http://creativecommons.org/ns#"
   xmlns:rdf="http://www.w3.org/1999/02/22-rdf-syntax-ns#"
   xmlns:svg="http://www.w3.org/2000/svg"
   xmlns="http://www.w3.org/2000/svg"
   xmlns:sodipodi="http://sodipodi.sourceforge.net/DTD/sodipodi-0.dtd"
   xmlns:inkscape="http://www.inkscape.org/namespaces/inkscape"
   width="11.288889mm"
   height="11.288889mm"
   viewBox="0 0 40 40"
   id="svg6597"
   version="1.1"
   inkscape:version="0.91 r13725"
   sodipodi:docname="evernote-button-circle.svg">
  <defs
     id="defs6599" />
  <sodipodi:namedview
     id="base"
     pagecolor="#ffffff"
     bordercolor="#666666"
     borderopacity="1.0"
     inkscape:pageopacity="0.0"
     inkscape:pageshadow="2"
     inkscape:zoom="0.7"
     inkscape:cx="477.82453"
     inkscape:cy="-198.83548"
     inkscape:document-units="px"
     inkscape:current-layer="layer6"
     showgrid="false"
     fit-margin-top="0"
     fit-margin-left="0"
     fit-margin-right="0"
     fit-margin-bottom="0"
     inkscape:window-width="3840"
     inkscape:window-height="2067"
     inkscape:window-x="2160"
     inkscape:window-y="93"
     inkscape:window-maximized="0" />
  <metadata
     id="metadata6602">
    <rdf:RDF>
      <cc:Work
         rdf:about="">
        <dc:format>image/svg+xml</dc:format>
        <dc:type
           rdf:resource="http://purl.org/dc/dcmitype/StillImage" />
        <dc:title></dc:title>
      </cc:Work>
    </rdf:RDF>
  </metadata>
  <g
     inkscape:groupmode="layer"
     id="layer6"
     inkscape:label="Layer 2"
     transform="translate(-312.85687,-328.0762)">
    <path
       style="fill:#00b092;fill-opacity:1;stroke:none;stroke-width:5;stroke-miterlimit:4;stroke-dasharray:none;stroke-opacity:1"
       d="m 332.85689,328.0762 a 19.999997,19.999997 0 0 0 -20.00002,20 19.999997,19.999997 0 0 0 20.00002,20 19.999997,19.999997 0 0 0 19.99998,-20 19.999997,19.999997 0 0 0 -19.99998,-20 z m -1.28751,9.054 c 0.61706,0 1.3298,0.035 1.81896,0.1573 1.25007,0.3261 1.57614,0.9783 1.79354,1.5761 0.76091,0 1.84794,0.054 2.88061,0.1631 1.30442,0.1631 1.79357,0.3805 2.28273,0.5435 0.48916,0.1631 0.97831,0.5435 1.14137,1.4131 0.27175,1.4675 0.6522,7.3374 0.4348,9.3484 -0.27176,3.0436 -0.70655,4.8915 -0.92395,5.4894 -0.97831,3.0436 -1.79357,3.098 -4.18501,3.098 -3.04364,0 -3.96762,-0.4348 -3.96762,-2.8806 0,-2.6632 1.25007,-2.7175 3.36975,-2.6632 0.3261,0 0,0.2718 0,0.8153 0,0.4891 0.21741,0.7066 -0.0543,0.7066 -0.65221,0 -1.46747,-0.054 -1.46747,0.7609 0,1.087 0.48916,1.0326 1.79358,1.0326 1.57618,0 1.90228,-0.2174 1.90228,-1.6849 0,-2.3914 -0.70655,-2.7719 -1.63051,-2.8806 -1.03267,-0.1087 -2.06534,-0.2717 -2.5545,-0.4348 -1.25007,-0.4348 -1.14136,-2.0653 -1.14136,-2.5545 0,-0.054 -0.10869,-0.054 -0.10869,0 0,0.6523 -0.0543,1.5762 -0.38046,2.6089 -0.1087,0.2717 -0.16307,0.4892 -0.16307,0.4892 -0.38046,0.8152 -1.08699,0.4891 -2.11966,0.3804 -1.08702,-0.163 -3.31542,-0.5978 -4.29374,-1.0327 -0.43481,-0.2174 -0.59785,-0.3804 -0.81525,-0.8696 -0.54351,-1.1957 -1.14136,-4.7829 -1.19571,-5.3264 -0.10871,-0.7065 -0.10869,-1.0869 -0.10869,-1.0869 0,-0.4892 0.0543,-0.924 0.32606,-1.3045 0.10871,-0.163 0.32613,-0.3804 0.54354,-0.5435 0.27175,-0.1087 0.59787,-0.1631 1.03267,-0.1631 l 1.84789,0 c 0.76091,0 1.19575,-0.4891 1.19575,-1.1413 l 0,-0.924 0,-1.1957 c 0,-0.3804 0.16306,-0.9783 0.38046,-1.1957 0.2174,-0.2174 0.48914,-0.5435 1.25005,-0.6522 0.21401,-0.024 0.63606,-0.048 1.116,-0.049 z m -3.39873,0.5921 -0.0543,0.1631 c -0.1087,0.2717 -0.21742,0.6521 -0.21742,1.0326 l 0,2.2284 c 0,0.1087 -0.10868,0.2174 -0.21738,0.2174 l -2.06535,0 c -0.48916,0 -0.92395,0.054 -1.25006,0.2174 l -0.21742,0.1087 4.02197,-3.9676 z m 9.51138,8.4787 c -0.81526,0 -1.087,0.6522 -1.19571,1.1957 l 0,0.054 c 0,0.054 0.0543,0.054 0.0543,0.054 l 0.10869,0 c 0.27175,-0.054 0.43481,-0.054 0.70656,-0.054 0.48916,0.054 0.92399,0.1087 1.30445,0.2174 0,0.054 -1e-5,0.054 0.0543,0.054 0,0 0.0543,-1e-4 0.0543,-0.054 l 0,-0.054 c 0,-0.5978 -0.21741,-1.3587 -1.08703,-1.4131 z"
       id="path7240"
       inkscape:connector-curvature="0" />
    <g
       style="fill:#ffffff;fill-opacity:1"
       id="g7232"
       transform="matrix(24.768437,0,0,24.768437,-2805.5927,-1086.4505)" />
  </g>
</svg>
