<?xml version="1.0" encoding="UTF-8" standalone="no"?>
<!-- Created with Inkscape (http://www.inkscape.org/) -->

<svg
   xmlns:dc="http://purl.org/dc/elements/1.1/"
   xmlns:cc="http://creativecommons.org/ns#"
   xmlns:rdf="http://www.w3.org/1999/02/22-rdf-syntax-ns#"
   xmlns:svg="http://www.w3.org/2000/svg"
   xmlns="http://www.w3.org/2000/svg"
   xmlns:sodipodi="http://sodipodi.sourceforge.net/DTD/sodipodi-0.dtd"
   xmlns:inkscape="http://www.inkscape.org/namespaces/inkscape"
   width="104.46887mm"
   height="61.488129mm"
   viewBox="0 0 370.16529 217.87132"
   id="svg2"
   version="1.1"
   inkscape:version="0.91 r13725"
   sodipodi:docname="feminem-job-board.svg">
  <defs
     id="defs4" />
  <sodipodi:namedview
     id="base"
     pagecolor="#ffffff"
     bordercolor="#666666"
     borderopacity="1.0"
     inkscape:pageopacity="0.0"
     inkscape:pageshadow="2"
     inkscape:zoom="2.8"
     inkscape:cx="309.48601"
     inkscape:cy="73.139395"
     inkscape:document-units="px"
     inkscape:current-layer="layer1"
     showgrid="false"
     inkscape:snap-bbox="true"
     inkscape:snap-bbox-midpoints="false"
     showguides="true"
     inkscape:guide-bbox="true"
     inkscape:snap-center="true"
     fit-margin-top="0"
     fit-margin-left="0"
     fit-margin-right="0"
     fit-margin-bottom="0"
     inkscape:window-width="3840"
     inkscape:window-height="2067"
     inkscape:window-x="2160"
     inkscape:window-y="93"
     inkscape:window-maximized="0" />
  <metadata
     id="metadata7">
    <rdf:RDF>
      <cc:Work
         rdf:about="">
        <dc:format>image/svg+xml</dc:format>
        <dc:type
           rdf:resource="http://purl.org/dc/dcmitype/StillImage" />
        <dc:title></dc:title>
      </cc:Work>
    </rdf:RDF>
  </metadata>
  <g
     inkscape:label="Layer 1"
     inkscape:groupmode="layer"
     id="layer1"
     transform="translate(-160.98877,-348.47436)">
    <g
       style="font-style:normal;font-weight:normal;font-size:40px;line-height:125%;font-family:sans-serif;letter-spacing:0px;word-spacing:0px;fill:#000000;fill-opacity:1;stroke:none;stroke-width:1px;stroke-linecap:butt;stroke-linejoin:miter;stroke-opacity:1"
       id="flowRoot4286" />
    <g
       id="g4538">
      <g
         transform="translate(154.48877,400.28995)"
         id="g4266">
        <path
           style="fill:#772a8f;fill-opacity:1"
           inkscape:connector-curvature="0"
           d="m 304.9,78.1 c 0,0 0,-29.7 0,-44.6 5,0 9.8,0 14.8,0 0.1,1.2 0.2,2.2 0.4,3.7 3.7,-3.6 7.7,-5.6 12.6,-5.4 4.8,0.2 9,1.6 12.2,5.4 5.7,-4.7 12.2,-6.4 19.2,-5 7.3,1.4 12.2,7.2 12.4,14.9 0.3,10.2 0.1,20.5 0.1,30.9 -5,0 -10,0 -15.2,0 0,-0.9 0,-1.8 0,-2.7 0,-7.5 0,-15 0,-22.5 0,-6 -4,-9.4 -9,-7.6 -2.6,0.9 -4.2,3.9 -4.2,7.8 0,7.4 0,14.8 0,22.2 0,0.9 0,1.8 0,2.9 -5.1,0 -9.9,0 -15.1,0 0,-1.5 0,-2.9 0,-4.3 0,-7 0,-14 0,-21 0,-4.5 -2.1,-7.4 -5.6,-8 -3,-0.5 -5.6,0.8 -6.7,3.6 -0.6,1.6 -0.9,3.4 -0.9,5.1 -0.1,7.4 0,24.6 0,24.6 l -15,0 z"
           id="path4244" />
        <path
           style="fill:#772a8f;fill-opacity:1"
           inkscape:connector-curvature="0"
           d="m 298.1,60.6 c -10.7,0 -21.3,0 -32.1,0 2,8.1 11.9,9.3 21,2.7 3,2.8 6.1,5.7 9.2,8.6 -4.4,4.7 -9.8,6.9 -15.8,7.6 -7.2,0.8 -14.1,0.2 -20.3,-4.1 C 251.8,69.9 248,59 250.8,49 c 2.8,-9.9 11.7,-16.8 21.8,-17.2 16.8,-0.8 26.5,12.9 25.8,27.6 0,0.3 -0.2,0.6 -0.3,1.2 z m -32.3,-10 c 5.6,0 11,0 16.5,0 -0.3,-4.1 -3.6,-7.1 -7.8,-7.3 -4.2,-0.2 -7.8,2.7 -8.7,7.3 z"
           id="path4246" />
        <path
           style="fill:#772a8f;fill-opacity:1"
           inkscape:connector-curvature="0"
           d="m 89,60.6 c -10.7,0 -21.3,0 -31.9,0 0.8,8 11.5,9.3 20.8,2.8 3,2.8 6,5.6 9.2,8.6 -3.5,3.8 -7.7,6.1 -12.6,7 C 66.4,80.6 58.4,80.4 51.2,75.6 42.8,70.1 38.9,59.1 41.8,49 44.6,39.1 53.5,32.3 63.6,31.8 80.5,31 90.1,44.9 89.3,59.4 c 0,0.3 -0.1,0.6 -0.3,1.2 z m -32.1,-10 c 0.6,0.1 1.3,0.2 1.9,0.2 4.8,0 9.6,0 14.4,0 0.1,-4 -3.3,-7.2 -7.6,-7.5 -4.4,-0.3 -8.2,2.9 -8.7,7.3 z"
           id="path4248" />
        <path
           style="fill:#772a8f;fill-opacity:1"
           inkscape:connector-curvature="0"
           d="m 28.8,33.4 c 3.3,0 6.2,0 9.2,0 0,4.2 0,8.1 0,12.5 -2.3,0 -4.6,0.1 -6.8,0 -1.9,-0.1 -2.4,0.6 -2.4,2.5 0.1,8.9 0,17.8 0,26.7 0,1 0,2 0,3 -5.1,0 -9.9,0 -15,0 0,-10.6 0,-21.2 0,-32.2 -2.6,0 -4.9,0 -7.3,0 0,-4.3 0,-8.3 0,-12.5 2.4,0 4.7,0 7.2,0 0,-2.4 -0.1,-4.4 0,-6.5 0.2,-2.7 0.4,-5.5 1.1,-8.1 1.3,-5.5 4.9,-8.8 10.5,-9.7 4.9,-0.9 9.8,-0.8 14.5,0.8 1.2,0.4 1.8,0.9 1.5,2.3 -0.6,3.3 -1,6.7 -1.5,10.2 -1.9,-0.4 -3.5,-0.7 -5.1,-0.9 -3.9,-0.5 -5.9,1.3 -5.9,5.1 0,2.1 0,4.2 0,6.8 z"
           id="path4250" />
        <path
           style="fill:#772a8f;fill-opacity:1"
           inkscape:connector-curvature="0"
           d="m 239.9,78 c -1.5,0 -2.9,0 -4.5,0 0,-0.6 0,-1 0,-1.5 0,-8.1 0.1,-16.2 0,-24.4 0,-2.2 -0.4,-4.5 -1,-6.6 -1.3,-4.3 -4.1,-7.1 -8.5,-8.2 -4,-1 -8,-0.9 -11.7,1.2 -4.6,2.7 -6.9,6.9 -7,12 -0.3,8.6 -0.1,17.3 -0.1,25.9 0,0.5 0,1 0,1.5 -1.5,0 -2.9,0 -4.4,0 0,-14.7 0,-29.5 0,-44.3 1.4,0 2.8,0 4.4,0 0,2.3 0,4.6 0,7.3 0.7,-0.9 1.1,-1.6 1.7,-2.2 3.9,-4.5 8.9,-6.5 14.8,-6 2.1,0.2 4.2,0.5 6.1,1.2 6.2,2.5 9.2,7.5 10,13.9 0.2,1.5 0.2,2.9 0.2,4.4 0,8 0,16.1 0,24.1 0,0.7 0,1.1 0,1.7 z"
           id="path4252" />
        <path
           style="fill:#772a8f;fill-opacity:1"
           inkscape:connector-curvature="0"
           d="m 185.8,78 c -0.2,0 -0.4,0.1 -0.5,0.1 -1.2,0 -2.4,0 -3.8,0 0,-14.8 0,-29.5 0,-44.3 1.4,0 2.8,0 4.3,0 0,14.7 0,29.4 0,44.2 z"
           id="path4254" />
        <path
           style="fill:#772a8f;fill-opacity:1"
           inkscape:connector-curvature="0"
           d="m 180.1,17.5 c 0,-2 1.5,-3.4 3.6,-3.4 2,0 3.5,1.4 3.5,3.4 0,2 -1.6,3.5 -3.6,3.4 -2.1,0 -3.5,-1.4 -3.5,-3.4 z"
           id="path4256" />
        <path
           style="fill:#772a8f;fill-opacity:1"
           inkscape:connector-curvature="0"
           d="m 96,78.1 c 0,0 0,-29.7 0,-44.6 5,0 9.8,0 14.8,0 0.1,1.2 0.2,2.2 0.4,3.7 3.7,-3.6 7.7,-5.6 12.6,-5.4 4.8,0.2 9,1.6 12.2,5.4 5.7,-4.7 12.2,-6.4 19.2,-5 7.3,1.4 12.2,7.2 12.4,14.9 0.3,10.2 0.1,20.5 0.1,30.9 -5,0 -10,0 -15.2,0 0,-0.9 0,-1.8 0,-2.7 0,-7.5 0,-15 0,-22.5 0,-6 -4,-9.4 -9,-7.6 -2.6,0.9 -4.2,3.9 -4.2,7.8 0,7.4 0,14.8 0,22.2 0,0.9 0,1.8 0,2.9 -5.1,0 -9.9,0 -15.1,0 0,-1.5 0,-2.9 0,-4.3 0,-7 0,-14 0,-21 0,-4.5 -2.1,-7.4 -5.6,-8 -3,-0.5 -5.6,0.8 -6.7,3.6 -0.6,1.6 -0.9,3.4 -0.9,5.1 -0.1,7.4 0,24.6 0,24.6 l -15,0 z"
           id="path4258" />
      </g>
      <g
         id="flowRoot4276"
         style="font-style:normal;font-weight:normal;font-size:40px;line-height:125%;font-family:sans-serif;letter-spacing:0px;word-spacing:0px;fill:#000000;fill-opacity:1;stroke:none;stroke-width:1px;stroke-linecap:butt;stroke-linejoin:miter;stroke-opacity:1"
         transform="translate(-110.00767,23.214285)">
        <path
           id="path4411"
           style="font-style:normal;font-variant:normal;font-weight:normal;font-stretch:normal;font-size:25px;font-family:'Open Sans';-inkscape-font-specification:'Open Sans';text-align:center;text-anchor:middle;fill:#333333;fill-opacity:1"
           d="m 355.50537,344.38849 0,-17.84668 2.0752,0 0,15.9668 7.87353,0 0,1.87988 -9.94873,0 z"
           inkscape:connector-curvature="0" />
        <path
           id="path4413"
           style="font-style:normal;font-variant:normal;font-weight:normal;font-stretch:normal;font-size:25px;font-family:'Open Sans';-inkscape-font-specification:'Open Sans';text-align:center;text-anchor:middle;fill:#333333;fill-opacity:1"
           d="m 379.73633,337.68683 q 0,3.27148 -1.64795,5.11474 -1.64795,1.83106 -4.55322,1.83106 -1.79444,0 -3.18604,-0.84229 -1.3916,-0.84228 -2.14844,-2.41699 -0.75683,-1.57471 -0.75683,-3.68652 0,-3.27149 1.63574,-5.09033 1.63574,-1.83106 4.54102,-1.83106 2.80761,0 4.45556,1.86768 1.66016,1.86767 1.66016,5.05371 z m -10.19287,0 q 0,2.56347 1.02539,3.90625 1.02539,1.34277 3.01513,1.34277 1.98975,0 3.01514,-1.33056 1.0376,-1.34278 1.0376,-3.91846 0,-2.55127 -1.0376,-3.86963 -1.02539,-1.33057 -3.03955,-1.33057 -1.98975,0 -3.00293,1.30616 -1.01318,1.30615 -1.01318,3.89404 z"
           inkscape:connector-curvature="0" />
        <path
           id="path4415"
           style="font-style:normal;font-variant:normal;font-weight:normal;font-stretch:normal;font-size:25px;font-family:'Open Sans';-inkscape-font-specification:'Open Sans';text-align:center;text-anchor:middle;fill:#333333;fill-opacity:1"
           d="m 394.82422,337.68683 q 0,3.27148 -1.64795,5.11474 -1.64795,1.83106 -4.55322,1.83106 -1.79444,0 -3.18604,-0.84229 -1.3916,-0.84228 -2.14844,-2.41699 -0.75683,-1.57471 -0.75683,-3.68652 0,-3.27149 1.63574,-5.09033 1.63574,-1.83106 4.54102,-1.83106 2.80761,0 4.45556,1.86768 1.66016,1.86767 1.66016,5.05371 z m -10.19287,0 q 0,2.56347 1.02539,3.90625 1.02539,1.34277 3.01513,1.34277 1.98975,0 3.01514,-1.33056 1.0376,-1.34278 1.0376,-3.91846 0,-2.55127 -1.0376,-3.86963 -1.02539,-1.33057 -3.03955,-1.33057 -1.98975,0 -3.00293,1.30616 -1.01318,1.30615 -1.01318,3.89404 z"
           inkscape:connector-curvature="0" />
        <path
           id="path4417"
           style="font-style:normal;font-variant:normal;font-weight:normal;font-stretch:normal;font-size:25px;font-family:'Open Sans';-inkscape-font-specification:'Open Sans';text-align:center;text-anchor:middle;fill:#333333;fill-opacity:1"
           d="m 400.36621,337.54034 q 0.5249,-0.74463 1.59912,-1.95312 l 4.32129,-4.57764 2.40479,0 -5.41993,5.70069 5.79834,7.67822 -2.45361,0 -4.72412,-6.32324 -1.52588,1.31836 0,5.00488 -2.00195,0 0,-18.99414 2.00195,0 0,10.0708 q 0,0.67139 -0.0977,2.07519 l 0.0977,0 z"
           inkscape:connector-curvature="0" />
        <path
           id="path4419"
           style="font-style:normal;font-variant:normal;font-weight:normal;font-stretch:normal;font-size:25px;font-family:'Open Sans';-inkscape-font-specification:'Open Sans';text-align:center;text-anchor:middle;fill:#333333;fill-opacity:1"
           d="m 413.52539,344.38849 -2.02637,0 0,-13.37891 2.02637,0 0,13.37891 z m -2.19727,-17.0044 q 0,-0.6958 0.3418,-1.01318 0.3418,-0.32959 0.85449,-0.32959 0.48829,0 0.84229,0.32959 0.354,0.32959 0.354,1.01318 0,0.6836 -0.354,1.02539 -0.354,0.32959 -0.84229,0.32959 -0.51269,0 -0.85449,-0.32959 -0.3418,-0.34179 -0.3418,-1.02539 z"
           inkscape:connector-curvature="0" />
        <path
           id="path4421"
           style="font-style:normal;font-variant:normal;font-weight:normal;font-stretch:normal;font-size:25px;font-family:'Open Sans';-inkscape-font-specification:'Open Sans';text-align:center;text-anchor:middle;fill:#333333;fill-opacity:1"
           d="m 427.00195,344.38849 0,-8.65479 q 0,-1.63574 -0.74463,-2.4414 -0.74462,-0.80567 -2.33154,-0.80567 -2.09961,0 -3.07617,1.13526 -0.97656,1.13525 -0.97656,3.74756 l 0,7.01904 -2.02637,0 0,-13.37891 1.64795,0 0.32959,1.83106 0.0976,0 q 0.62256,-0.98877 1.74561,-1.52588 1.12305,-0.54932 2.50244,-0.54932 2.41699,0 3.6377,1.17188 1.2207,1.15966 1.2207,3.72314 l 0,8.72803 -2.02637,0 z"
           inkscape:connector-curvature="0" />
        <path
           id="path4423"
           style="font-style:normal;font-variant:normal;font-weight:normal;font-stretch:normal;font-size:25px;font-family:'Open Sans';-inkscape-font-specification:'Open Sans';text-align:center;text-anchor:middle;fill:#333333;fill-opacity:1"
           d="m 444.12842,331.00958 0,1.28174 -2.47803,0.29297 q 0.3418,0.42725 0.61035,1.12305 0.26856,0.68359 0.26856,1.55029 0,1.96533 -1.34278,3.13721 -1.34277,1.17187 -3.68652,1.17187 -0.59814,0 -1.12305,-0.0977 -1.29394,0.6836 -1.29394,1.7212 0,0.54931 0.45166,0.81787 0.45166,0.25634 1.55029,0.25634 l 2.36816,0 q 2.17286,0 3.33252,0.91553 1.17188,0.91553 1.17188,2.66114 0,2.22167 -1.78223,3.38134 -1.78222,1.17188 -5.20019,1.17188 -2.62451,0 -4.05274,-0.97656 -1.41601,-0.97657 -1.41601,-2.75879 0,-1.22071 0.78125,-2.11182 0.78125,-0.89111 2.19726,-1.2085 -0.51269,-0.23193 -0.8667,-0.72021 -0.34179,-0.48828 -0.34179,-1.13526 0,-0.73242 0.39062,-1.28173 0.39063,-0.54932 1.23291,-1.06202 -1.0376,-0.42724 -1.69678,-1.45263 -0.64697,-1.02539 -0.64697,-2.34375 0,-2.19727 1.31836,-3.38135 1.31836,-1.19629 3.73535,-1.19629 1.04981,0 1.89209,0.24414 l 4.62647,0 z m -10.66895,15.625 q 0,1.08643 0.91553,1.64795 0.91553,0.56152 2.62451,0.56152 2.55127,0 3.77197,-0.76904 1.23291,-0.75683 1.23291,-2.06299 0,-1.08642 -0.67138,-1.51367 -0.67139,-0.41504 -2.52686,-0.41504 l -2.4292,0 q -1.37939,0 -2.14843,0.65918 -0.76905,0.65918 -0.76905,1.89209 z m 1.09864,-11.34033 q 0,1.40381 0.79345,2.12402 0.79346,0.72022 2.20948,0.72022 2.9663,0 2.9663,-2.88086 0,-3.01514 -3.00293,-3.01514 -1.42822,0 -2.19726,0.76905 -0.76904,0.76904 -0.76904,2.28271 z"
           inkscape:connector-curvature="0" />
        <path
           id="path4425"
           style="font-style:normal;font-variant:normal;font-weight:normal;font-stretch:normal;font-size:25px;font-family:'Open Sans';-inkscape-font-specification:'Open Sans';text-align:center;text-anchor:middle;fill:#333333;fill-opacity:1"
           d="m 459.42383,332.58429 -3.40576,0 0,11.8042 -2.02637,0 0,-11.8042 -2.39258,0 0,-0.91553 2.39258,-0.73242 0,-0.74463 q 0,-4.93164 4.30908,-4.93164 1.06201,0 2.49024,0.42725 l -0.52491,1.62353 q -1.17187,-0.37842 -2.00195,-0.37842 -1.14746,0 -1.69678,0.76905 -0.54931,0.75683 -0.54931,2.4414 l 0,0.8667 3.40576,0 0,1.57471 z"
           inkscape:connector-curvature="0" />
        <path
           id="path4427"
           style="font-style:normal;font-variant:normal;font-weight:normal;font-stretch:normal;font-size:25px;font-family:'Open Sans';-inkscape-font-specification:'Open Sans';text-align:center;text-anchor:middle;fill:#333333;fill-opacity:1"
           d="m 473.4375,337.68683 q 0,3.27148 -1.64795,5.11474 -1.64795,1.83106 -4.55322,1.83106 -1.79444,0 -3.18604,-0.84229 -1.3916,-0.84228 -2.14843,-2.41699 -0.75684,-1.57471 -0.75684,-3.68652 0,-3.27149 1.63574,-5.09033 1.63574,-1.83106 4.54102,-1.83106 2.80761,0 4.45556,1.86768 1.66016,1.86767 1.66016,5.05371 z m -10.19287,0 q 0,2.56347 1.02539,3.90625 1.02539,1.34277 3.01514,1.34277 1.98974,0 3.01513,-1.33056 1.0376,-1.34278 1.0376,-3.91846 0,-2.55127 -1.0376,-3.86963 -1.02539,-1.33057 -3.03955,-1.33057 -1.98974,0 -3.00293,1.30616 -1.01318,1.30615 -1.01318,3.89404 z"
           inkscape:connector-curvature="0" />
        <path
           id="path4429"
           style="font-style:normal;font-variant:normal;font-weight:normal;font-stretch:normal;font-size:25px;font-family:'Open Sans';-inkscape-font-specification:'Open Sans';text-align:center;text-anchor:middle;fill:#333333;fill-opacity:1"
           d="m 483.08105,330.76544 q 0.89112,0 1.59913,0.14649 l -0.28077,1.87988 q -0.83007,-0.18311 -1.46484,-0.18311 -1.62353,0 -2.7832,1.31836 -1.14746,1.31836 -1.14746,3.28369 l 0,7.17774 -2.02637,0 0,-13.37891 1.67236,0 0.23194,2.47803 0.0976,0 q 0.74463,-1.30615 1.79444,-2.01416 1.0498,-0.70801 2.30712,-0.70801 z"
           inkscape:connector-curvature="0" />
        <path
           id="path4431"
           style="font-style:normal;font-variant:normal;font-weight:normal;font-stretch:normal;font-size:25px;font-family:'Open Sans';-inkscape-font-specification:'Open Sans';text-align:center;text-anchor:middle;fill:#333333;fill-opacity:1"
           d="m 501.9043,344.38849 -0.40284,-1.9043 -0.0976,0 q -1.00098,1.25733 -2.00195,1.70899 -0.98877,0.43945 -2.47803,0.43945 -1.98975,0 -3.125,-1.02539 -1.12305,-1.02539 -1.12305,-2.91748 0,-4.05274 6.48193,-4.24805 l 2.27051,-0.0732 0,-0.83008 q 0,-1.57471 -0.68359,-2.31934 -0.67139,-0.75683 -2.16065,-0.75683 -1.67236,0 -3.78418,1.02539 l -0.62255,-1.55029 q 0.98877,-0.53711 2.16064,-0.84229 1.18408,-0.30517 2.36816,-0.30517 2.39258,0 3.54004,1.06201 1.15967,1.06201 1.15967,3.40576 l 0,9.13086 -1.50146,0 z m -4.57764,-1.42822 q 1.89209,0 2.96631,-1.0376 1.08642,-1.0376 1.08642,-2.90528 l 0,-1.20849 -2.02636,0.0854 q -2.41699,0.0855 -3.49121,0.75683 -1.06202,0.65918 -1.06202,2.06299 0,1.09863 0.65918,1.67237 0.67139,0.57373 1.86768,0.57373 z"
           inkscape:connector-curvature="0" />
        <path
           id="path4433"
           style="font-style:normal;font-variant:normal;font-weight:normal;font-stretch:normal;font-size:25px;font-family:'Open Sans';-inkscape-font-specification:'Open Sans';text-align:center;text-anchor:middle;fill:#333333;fill-opacity:1"
           d="m 512.46338,350.39435 q -1.15967,0 -1.87988,-0.30518 l 0,-1.64795 q 0.84228,0.24414 1.66015,0.24414 0.95215,0 1.3916,-0.5249 0.45166,-0.51269 0.45166,-1.57471 l 0,-15.57617 2.02637,0 0,15.42969 q 0,3.95508 -3.6499,3.95508 z m 1.45264,-23.01026 q 0,-0.6958 0.34179,-1.01318 0.3418,-0.32959 0.85449,-0.32959 0.48829,0 0.84229,0.32959 0.354,0.32959 0.354,1.01318 0,0.6836 -0.354,1.02539 -0.354,0.32959 -0.84229,0.32959 -0.51269,0 -0.85449,-0.32959 -0.34179,-0.34179 -0.34179,-1.02539 z"
           inkscape:connector-curvature="0" />
        <path
           id="path4435"
           style="font-style:normal;font-variant:normal;font-weight:normal;font-stretch:normal;font-size:25px;font-family:'Open Sans';-inkscape-font-specification:'Open Sans';text-align:center;text-anchor:middle;fill:#333333;fill-opacity:1"
           d="m 531.98242,337.68683 q 0,3.27148 -1.64795,5.11474 -1.64795,1.83106 -4.55322,1.83106 -1.79443,0 -3.18604,-0.84229 -1.3916,-0.84228 -2.14843,-2.41699 -0.75684,-1.57471 -0.75684,-3.68652 0,-3.27149 1.63574,-5.09033 1.63575,-1.83106 4.54102,-1.83106 2.80762,0 4.45557,1.86768 1.66015,1.86767 1.66015,5.05371 z m -10.19287,0 q 0,2.56347 1.02539,3.90625 1.02539,1.34277 3.01514,1.34277 1.98974,0 3.01513,-1.33056 1.0376,-1.34278 1.0376,-3.91846 0,-2.55127 -1.0376,-3.86963 -1.02539,-1.33057 -3.03955,-1.33057 -1.98974,0 -3.00293,1.30616 -1.01318,1.30615 -1.01318,3.89404 z"
           inkscape:connector-curvature="0" />
        <path
           id="path4437"
           style="font-style:normal;font-variant:normal;font-weight:normal;font-stretch:normal;font-size:25px;font-family:'Open Sans';-inkscape-font-specification:'Open Sans';text-align:center;text-anchor:middle;fill:#333333;fill-opacity:1"
           d="m 541.74805,330.78986 q 2.63672,0 4.08935,1.80664 1.46485,1.79443 1.46485,5.09033 0,3.2959 -1.47705,5.12695 -1.46485,1.81885 -4.07715,1.81885 -1.30616,0 -2.39258,-0.47608 -1.07422,-0.48828 -1.80664,-1.48925 l -0.14649,0 -0.42724,1.72119 -1.45264,0 0,-18.99414 2.02637,0 0,4.61426 q 0,1.55029 -0.0977,2.7832 l 0.0977,0 q 1.41601,-2.00195 4.19922,-2.00195 z m -0.29297,1.69677 q -2.0752,0 -2.99072,1.19629 -0.91553,1.18408 -0.91553,4.00391 0,2.81982 0.93994,4.04053 0.93994,1.20849 3.01514,1.20849 1.86767,0 2.7832,-1.35498 0.91553,-1.36719 0.91553,-3.91846 0,-2.6123 -0.91553,-3.89404 -0.91553,-1.28174 -2.83203,-1.28174 z"
           inkscape:connector-curvature="0" />
        <path
           id="path4439"
           style="font-style:normal;font-variant:normal;font-weight:normal;font-stretch:normal;font-size:25px;font-family:'Open Sans';-inkscape-font-specification:'Open Sans';text-align:center;text-anchor:middle;fill:#333333;fill-opacity:1"
           d="m 552.23389,339.46905 0,-0.65917 q 0,-1.42823 0.43945,-2.34375 0.43945,-0.92774 1.63574,-1.95313 1.66016,-1.40381 2.0874,-2.11182 0.43946,-0.708 0.43946,-1.70898 0,-1.24512 -0.80567,-1.9165 -0.79345,-0.6836 -2.29492,-0.6836 -0.96435,0 -1.87988,0.23194 -0.91553,0.21972 -2.09961,0.81787 l -0.72022,-1.64795 q 2.30713,-1.2085 4.82178,-1.2085 2.33154,0 3.62549,1.14746 1.29395,1.14746 1.29395,3.23487 0,0.89111 -0.24415,1.5747 -0.23193,0.67139 -0.6958,1.28174 -0.46386,0.59815 -2.00195,1.94092 -1.23291,1.0498 -1.63574,1.7456 -0.39063,0.6958 -0.39063,1.85547 l 0,0.40283 -1.5747,0 z m -0.59815,3.62549 q 0,-1.66015 1.46485,-1.66015 0.708,0 1.08642,0.42724 0.39063,0.42725 0.39063,1.23291 0,0.78125 -0.39063,1.22071 -0.39062,0.42724 -1.08642,0.42724 -0.63477,0 -1.04981,-0.37842 -0.41504,-0.39062 -0.41504,-1.26953 z"
           inkscape:connector-curvature="0" />
        <path
           id="path4441"
           style="font-style:normal;font-variant:normal;font-weight:normal;font-stretch:normal;font-size:25px;font-family:'Open Sans';-inkscape-font-specification:'Open Sans';text-align:center;text-anchor:middle;fill:#333333;fill-opacity:1"
           d="m 295.30029,375.63849 -2.05078,0 -3.60107,-11.95069 q -0.25635,-0.79345 -0.57373,-2.00195 -0.31739,-1.20849 -0.32959,-1.45264 -0.26856,1.61133 -0.8545,3.52784 l -3.49121,11.87744 -2.05078,0 -4.74853,-17.84668 2.19726,0 2.81983,11.02295 q 0.58593,2.31933 0.85449,4.19922 0.32959,-2.23389 0.97656,-4.37012 l 3.19824,-10.85205 2.19727,0 3.35693,10.94971 q 0.58594,1.89209 0.98877,4.27246 0.23194,-1.7334 0.87891,-4.22364 l 2.80762,-10.99853 2.19726,0 -4.77295,17.84668 z"
           inkscape:connector-curvature="0" />
        <path
           id="path4443"
           style="font-style:normal;font-variant:normal;font-weight:normal;font-stretch:normal;font-size:25px;font-family:'Open Sans';-inkscape-font-specification:'Open Sans';text-align:center;text-anchor:middle;fill:#333333;fill-opacity:1"
           d="m 310.79102,375.63849 -0.40284,-1.9043 -0.0976,0 q -1.00098,1.25733 -2.00196,1.70899 -0.98877,0.43945 -2.47802,0.43945 -1.98975,0 -3.125,-1.02539 -1.12305,-1.02539 -1.12305,-2.91748 0,-4.05274 6.48193,-4.24805 l 2.27051,-0.0732 0,-0.83008 q 0,-1.57471 -0.68359,-2.31934 -0.67139,-0.75683 -2.16065,-0.75683 -1.67236,0 -3.78418,1.02539 l -0.62256,-1.55029 q 0.98877,-0.53711 2.16065,-0.84229 1.18408,-0.30517 2.36816,-0.30517 2.39258,0 3.54004,1.06201 1.15967,1.06201 1.15967,3.40576 l 0,9.13086 -1.50146,0 z m -4.57764,-1.42822 q 1.89209,0 2.96631,-1.0376 1.08642,-1.0376 1.08642,-2.90528 l 0,-1.20849 -2.02636,0.0854 q -2.417,0.0855 -3.49121,0.75683 -1.06202,0.65918 -1.06202,2.06299 0,1.09863 0.65918,1.67237 0.67139,0.57373 1.86768,0.57373 z"
           inkscape:connector-curvature="0" />
        <path
           id="path4445"
           style="font-style:normal;font-variant:normal;font-weight:normal;font-stretch:normal;font-size:25px;font-family:'Open Sans';-inkscape-font-specification:'Open Sans';text-align:center;text-anchor:middle;fill:#333333;fill-opacity:1"
           d="m 325.63477,375.63849 0,-8.65479 q 0,-1.63574 -0.74463,-2.4414 -0.74463,-0.80567 -2.33155,-0.80567 -2.09961,0 -3.07617,1.13526 -0.97656,1.13525 -0.97656,3.74756 l 0,7.01904 -2.02637,0 0,-13.37891 1.64795,0 0.32959,1.83106 0.0977,0 q 0.62256,-0.98877 1.7456,-1.52588 1.12305,-0.54932 2.50244,-0.54932 2.417,0 3.6377,1.17188 1.2207,1.15966 1.2207,3.72314 l 0,8.72803 -2.02636,0 z"
           inkscape:connector-curvature="0" />
        <path
           id="path4447"
           style="font-style:normal;font-variant:normal;font-weight:normal;font-stretch:normal;font-size:25px;font-family:'Open Sans';-inkscape-font-specification:'Open Sans';text-align:center;text-anchor:middle;fill:#333333;fill-opacity:1"
           d="m 340.9668,375.63849 0,-8.65479 q 0,-1.63574 -0.74463,-2.4414 -0.74463,-0.80567 -2.33155,-0.80567 -2.0996,0 -3.07617,1.13526 -0.97656,1.13525 -0.97656,3.74756 l 0,7.01904 -2.02637,0 0,-13.37891 1.64795,0 0.32959,1.83106 0.0977,0 q 0.62256,-0.98877 1.7456,-1.52588 1.12305,-0.54932 2.50245,-0.54932 2.41699,0 3.63769,1.17188 1.2207,1.15966 1.2207,3.72314 l 0,8.72803 -2.02636,0 z"
           inkscape:connector-curvature="0" />
        <path
           id="path4449"
           style="font-style:normal;font-variant:normal;font-weight:normal;font-stretch:normal;font-size:25px;font-family:'Open Sans';-inkscape-font-specification:'Open Sans';text-align:center;text-anchor:middle;fill:#333333;fill-opacity:1"
           d="m 355.37109,375.63849 -0.40283,-1.9043 -0.0976,0 q -1.00098,1.25733 -2.00196,1.70899 -0.98877,0.43945 -2.47803,0.43945 -1.98974,0 -3.125,-1.02539 -1.12304,-1.02539 -1.12304,-2.91748 0,-4.05274 6.48193,-4.24805 l 2.27051,-0.0732 0,-0.83008 q 0,-1.57471 -0.68359,-2.31934 -0.67139,-0.75683 -2.16065,-0.75683 -1.67236,0 -3.78418,1.02539 l -0.62256,-1.55029 q 0.98877,-0.53711 2.16065,-0.84229 1.18408,-0.30517 2.36816,-0.30517 2.39258,0 3.54004,1.06201 1.15967,1.06201 1.15967,3.40576 l 0,9.13086 -1.50147,0 z m -4.57763,-1.42822 q 1.89209,0 2.96631,-1.0376 1.08642,-1.0376 1.08642,-2.90528 l 0,-1.20849 -2.02637,0.0854 q -2.41699,0.0855 -3.49121,0.75683 -1.06201,0.65918 -1.06201,2.06299 0,1.09863 0.65918,1.67237 0.67139,0.57373 1.86768,0.57373 z"
           inkscape:connector-curvature="0" />
        <path
           id="path4451"
           style="font-style:normal;font-variant:normal;font-weight:normal;font-stretch:normal;font-size:25px;font-family:'Open Sans';-inkscape-font-specification:'Open Sans';text-align:center;text-anchor:middle;fill:#333333;fill-opacity:1"
           d="m 369.55566,368.79034 q 0.52491,-0.74463 1.59913,-1.95312 l 4.32128,-4.57764 2.40479,0 -5.41992,5.70069 5.79834,7.67822 -2.45362,0 -4.72412,-6.32324 -1.52588,1.31836 0,5.00488 -2.00195,0 0,-18.99414 2.00195,0 0,10.0708 q 0,0.67139 -0.0976,2.07519 l 0.0976,0 z"
           inkscape:connector-curvature="0" />
        <path
           id="path4453"
           style="font-style:normal;font-variant:normal;font-weight:normal;font-stretch:normal;font-size:25px;font-family:'Open Sans';-inkscape-font-specification:'Open Sans';text-align:center;text-anchor:middle;fill:#333333;fill-opacity:1"
           d="m 389.84375,375.63849 0,-8.65479 q 0,-1.63574 -0.74463,-2.4414 -0.74463,-0.80567 -2.33154,-0.80567 -2.09961,0 -3.07617,1.13526 -0.97657,1.13525 -0.97657,3.74756 l 0,7.01904 -2.02636,0 0,-13.37891 1.64795,0 0.32959,1.83106 0.0976,0 q 0.62256,-0.98877 1.74561,-1.52588 1.12304,-0.54932 2.50244,-0.54932 2.41699,0 3.63769,1.17188 1.22071,1.15966 1.22071,3.72314 l 0,8.72803 -2.02637,0 z"
           inkscape:connector-curvature="0" />
        <path
           id="path4455"
           style="font-style:normal;font-variant:normal;font-weight:normal;font-stretch:normal;font-size:25px;font-family:'Open Sans';-inkscape-font-specification:'Open Sans';text-align:center;text-anchor:middle;fill:#333333;fill-opacity:1"
           d="m 407.56836,368.93683 q 0,3.27148 -1.64795,5.11474 -1.64795,1.83106 -4.55322,1.83106 -1.79444,0 -3.18604,-0.84229 -1.3916,-0.84228 -2.14844,-2.41699 -0.75683,-1.57471 -0.75683,-3.68652 0,-3.27149 1.63574,-5.09033 1.63574,-1.83106 4.54102,-1.83106 2.80761,0 4.45556,1.86768 1.66016,1.86767 1.66016,5.05371 z m -10.19287,0 q 0,2.56347 1.02539,3.90625 1.02539,1.34277 3.01514,1.34277 1.98974,0 3.01513,-1.33056 1.0376,-1.34278 1.0376,-3.91846 0,-2.55127 -1.0376,-3.86963 -1.02539,-1.33057 -3.03955,-1.33057 -1.98974,0 -3.00293,1.30616 -1.01318,1.30615 -1.01318,3.89404 z"
           inkscape:connector-curvature="0" />
        <path
           id="path4457"
           style="font-style:normal;font-variant:normal;font-weight:normal;font-stretch:normal;font-size:25px;font-family:'Open Sans';-inkscape-font-specification:'Open Sans';text-align:center;text-anchor:middle;fill:#333333;fill-opacity:1"
           d="m 422.03369,375.63849 -2.45361,-7.84912 q -0.23194,-0.72022 -0.8667,-3.27149 l -0.0977,0 q -0.48828,2.13623 -0.85449,3.2959 l -2.52686,7.82471 -2.34375,0 -3.6499,-13.37891 2.12403,0 q 1.29394,5.04151 1.96533,7.67822 0.68359,2.63672 0.78125,3.55225 l 0.0976,0 q 0.13428,-0.6958 0.42725,-1.79443 0.30518,-1.11084 0.5249,-1.75782 l 2.45362,-7.67822 2.19726,0 2.39258,7.67822 q 0.68359,2.09961 0.92773,3.52784 l 0.0977,0 q 0.0488,-0.43946 0.25635,-1.35498 0.21972,-0.91553 2.55127,-9.85108 l 2.09961,0 -3.69873,13.37891 -2.40479,0 z"
           inkscape:connector-curvature="0" />
        <path
           id="path4459"
           style="font-style:normal;font-variant:normal;font-weight:normal;font-stretch:normal;font-size:25px;font-family:'Open Sans';-inkscape-font-specification:'Open Sans';text-align:center;text-anchor:middle;fill:#333333;fill-opacity:1"
           d="m 447.96143,375.63849 -2.45362,-7.84912 q -0.23193,-0.72022 -0.8667,-3.27149 l -0.0977,0 q -0.48828,2.13623 -0.8545,3.2959 l -2.52685,7.82471 -2.34375,0 -3.6499,-13.37891 2.12402,0 q 1.29395,5.04151 1.96533,7.67822 0.6836,2.63672 0.78125,3.55225 l 0.0977,0 q 0.13428,-0.6958 0.42724,-1.79443 0.30518,-1.11084 0.52491,-1.75782 l 2.45361,-7.67822 2.19727,0 2.39257,7.67822 q 0.6836,2.09961 0.92774,3.52784 l 0.0976,0 q 0.0488,-0.43946 0.25635,-1.35498 0.21973,-0.91553 2.55127,-9.85108 l 2.09961,0 -3.69873,13.37891 -2.40478,0 z"
           inkscape:connector-curvature="0" />
        <path
           id="path4461"
           style="font-style:normal;font-variant:normal;font-weight:normal;font-stretch:normal;font-size:25px;font-family:'Open Sans';-inkscape-font-specification:'Open Sans';text-align:center;text-anchor:middle;fill:#333333;fill-opacity:1"
           d="m 465.625,375.63849 0,-8.65479 q 0,-1.63574 -0.74463,-2.4414 -0.74463,-0.80567 -2.33154,-0.80567 -2.11182,0 -3.08838,1.14746 -0.96436,1.14746 -0.96436,3.75977 l 0,6.99463 -2.02636,0 0,-18.99414 2.02636,0 0,5.74951 q 0,1.0376 -0.0976,1.72119 l 0.12207,0 q 0.59814,-0.96435 1.69678,-1.51367 1.11083,-0.56152 2.52685,-0.56152 2.45361,0 3.67432,1.17187 1.23291,1.15967 1.23291,3.69873 l 0,8.72803 -2.02637,0 z"
           inkscape:connector-curvature="0" />
        <path
           id="path4463"
           style="font-style:normal;font-variant:normal;font-weight:normal;font-stretch:normal;font-size:25px;font-family:'Open Sans';-inkscape-font-specification:'Open Sans';text-align:center;text-anchor:middle;fill:#333333;fill-opacity:1"
           d="m 480.0293,375.63849 -0.40284,-1.9043 -0.0976,0 q -1.00098,1.25733 -2.00195,1.70899 -0.98877,0.43945 -2.47803,0.43945 -1.98975,0 -3.125,-1.02539 -1.12305,-1.02539 -1.12305,-2.91748 0,-4.05274 6.48193,-4.24805 l 2.27051,-0.0732 0,-0.83008 q 0,-1.57471 -0.68359,-2.31934 -0.67139,-0.75683 -2.16065,-0.75683 -1.67236,0 -3.78418,1.02539 l -0.62255,-1.55029 q 0.98877,-0.53711 2.16064,-0.84229 1.18408,-0.30517 2.36816,-0.30517 2.39258,0 3.54004,1.06201 1.15967,1.06201 1.15967,3.40576 l 0,9.13086 -1.50146,0 z m -4.57764,-1.42822 q 1.89209,0 2.96631,-1.0376 1.08642,-1.0376 1.08642,-2.90528 l 0,-1.20849 -2.02636,0.0854 q -2.41699,0.0855 -3.49121,0.75683 -1.06202,0.65918 -1.06202,2.06299 0,1.09863 0.65918,1.67237 0.67139,0.57373 1.86768,0.57373 z"
           inkscape:connector-curvature="0" />
        <path
           id="path4465"
           style="font-style:normal;font-variant:normal;font-weight:normal;font-stretch:normal;font-size:25px;font-family:'Open Sans';-inkscape-font-specification:'Open Sans';text-align:center;text-anchor:middle;fill:#333333;fill-opacity:1"
           d="m 490.03906,374.21027 q 0.53711,0 1.0376,-0.0732 0.50049,-0.0854 0.79346,-0.17089 l 0,1.55029 q -0.32959,0.15869 -0.97657,0.25635 -0.63476,0.10986 -1.14746,0.10986 -3.88183,0 -3.88183,-4.08936 l 0,-7.95898 -1.91651,0 0,-0.97656 1.91651,-0.84229 0.85449,-2.85644 1.17187,0 0,3.10058 3.88184,0 0,1.57471 -3.88184,0 0,7.87353 q 0,1.2085 0.57374,1.85547 0.57373,0.64698 1.5747,0.64698 z"
           inkscape:connector-curvature="0" />
        <path
           id="path4467"
           style="font-style:normal;font-variant:normal;font-weight:normal;font-stretch:normal;font-size:25px;font-family:'Open Sans';-inkscape-font-specification:'Open Sans';text-align:center;text-anchor:middle;fill:#333333;fill-opacity:1"
           d="m 496.30127,357.79181 -0.48828,6.44531 -1.28174,0 -0.50049,-6.44531 2.27051,0 z"
           inkscape:connector-curvature="0" />
        <path
           id="path4469"
           style="font-style:normal;font-variant:normal;font-weight:normal;font-stretch:normal;font-size:25px;font-family:'Open Sans';-inkscape-font-specification:'Open Sans';text-align:center;text-anchor:middle;fill:#333333;fill-opacity:1"
           d="m 508.70361,371.98859 q 0,1.86767 -1.3916,2.88086 -1.3916,1.01318 -3.90625,1.01318 -2.66113,0 -4.15039,-0.84229 l 0,-1.87988 q 0.96436,0.48828 2.06299,0.76904 1.11084,0.28077 2.13623,0.28077 1.58691,0 2.44141,-0.50049 0.85449,-0.5127 0.85449,-1.5503 0,-0.78125 -0.6836,-1.33056 -0.67138,-0.56153 -2.63671,-1.31836 -1.86768,-0.6958 -2.66114,-1.2085 -0.78125,-0.5249 -1.17187,-1.18408 -0.37842,-0.65918 -0.37842,-1.57471 0,-1.63574 1.33057,-2.57568 1.33056,-0.95215 3.6499,-0.95215 2.16064,0 4.22363,0.87891 l -0.72021,1.64795 q -2.01416,-0.83008 -3.64991,-0.83008 -1.44043,0 -2.17285,0.45166 -0.73242,0.45166 -0.73242,1.24512 0,0.53711 0.26856,0.91552 0.28076,0.37842 0.89111,0.72022 0.61035,0.3418 2.34375,0.98877 2.38037,0.8667 3.21045,1.7456 0.84228,0.87891 0.84228,2.20948 z"
           inkscape:connector-curvature="0" />
        <path
           id="path4471"
           style="font-style:normal;font-variant:normal;font-weight:normal;font-stretch:normal;font-size:25px;font-family:'Open Sans';-inkscape-font-specification:'Open Sans';text-align:center;text-anchor:middle;fill:#333333;fill-opacity:1"
           d="m 530.0293,368.93683 q 0,3.27148 -1.64795,5.11474 -1.64795,1.83106 -4.55323,1.83106 -1.79443,0 -3.18603,-0.84229 -1.3916,-0.84228 -2.14844,-2.41699 -0.75683,-1.57471 -0.75683,-3.68652 0,-3.27149 1.63574,-5.09033 1.63574,-1.83106 4.54101,-1.83106 2.80762,0 4.45557,1.86768 1.66016,1.86767 1.66016,5.05371 z m -10.19287,0 q 0,2.56347 1.02539,3.90625 1.02539,1.34277 3.01513,1.34277 1.98975,0 3.01514,-1.33056 1.0376,-1.34278 1.0376,-3.91846 0,-2.55127 -1.0376,-3.86963 -1.02539,-1.33057 -3.03955,-1.33057 -1.98975,0 -3.00293,1.30616 -1.01318,1.30615 -1.01318,3.89404 z"
           inkscape:connector-curvature="0" />
        <path
           id="path4473"
           style="font-style:normal;font-variant:normal;font-weight:normal;font-stretch:normal;font-size:25px;font-family:'Open Sans';-inkscape-font-specification:'Open Sans';text-align:center;text-anchor:middle;fill:#333333;fill-opacity:1"
           d="m 535.47363,362.25958 0,8.6792 q 0,1.63574 0.74463,2.44141 0.74463,0.80566 2.33154,0.80566 2.09961,0 3.06397,-1.14746 0.97656,-1.14746 0.97656,-3.74756 l 0,-7.03125 2.02637,0 0,13.37891 -1.67236,0 -0.29297,-1.79444 -0.10987,0 q -0.62255,0.98877 -1.73339,1.51368 -1.09864,0.5249 -2.51465,0.5249 -2.44141,0 -3.66211,-1.15967 -1.2085,-1.15967 -1.2085,-3.71094 l 0,-8.75244 2.05078,0 z"
           inkscape:connector-curvature="0" />
        <path
           id="path4475"
           style="font-style:normal;font-variant:normal;font-weight:normal;font-stretch:normal;font-size:25px;font-family:'Open Sans';-inkscape-font-specification:'Open Sans';text-align:center;text-anchor:middle;fill:#333333;fill-opacity:1"
           d="m 553.22266,374.21027 q 0.53711,0 1.03759,-0.0732 0.50049,-0.0854 0.79346,-0.17089 l 0,1.55029 q -0.32959,0.15869 -0.97656,0.25635 -0.63477,0.10986 -1.14746,0.10986 -3.88184,0 -3.88184,-4.08936 l 0,-7.95898 -1.9165,0 0,-0.97656 1.9165,-0.84229 0.85449,-2.85644 1.17188,0 0,3.10058 3.88183,0 0,1.57471 -3.88183,0 0,7.87353 q 0,1.2085 0.57373,1.85547 0.57373,0.64698 1.57471,0.64698 z"
           inkscape:connector-curvature="0" />
        <path
           id="path4477"
           style="font-style:normal;font-variant:normal;font-weight:normal;font-stretch:normal;font-size:25px;font-family:'Open Sans';-inkscape-font-specification:'Open Sans';text-align:center;text-anchor:middle;fill:#333333;fill-opacity:1"
           d="m 568.55469,374.21027 q 0.53711,0 1.0376,-0.0732 0.50048,-0.0854 0.79345,-0.17089 l 0,1.55029 q -0.32959,0.15869 -0.97656,0.25635 -0.63477,0.10986 -1.14746,0.10986 -3.88184,0 -3.88184,-4.08936 l 0,-7.95898 -1.9165,0 0,-0.97656 1.9165,-0.84229 0.85449,-2.85644 1.17188,0 0,3.10058 3.88184,0 0,1.57471 -3.88184,0 0,7.87353 q 0,1.2085 0.57373,1.85547 0.57373,0.64698 1.57471,0.64698 z"
           inkscape:connector-curvature="0" />
        <path
           id="path4479"
           style="font-style:normal;font-variant:normal;font-weight:normal;font-stretch:normal;font-size:25px;font-family:'Open Sans';-inkscape-font-specification:'Open Sans';text-align:center;text-anchor:middle;fill:#333333;fill-opacity:1"
           d="m 582.22656,375.63849 0,-8.65479 q 0,-1.63574 -0.74463,-2.4414 -0.74463,-0.80567 -2.33154,-0.80567 -2.11182,0 -3.08838,1.14746 -0.96435,1.14746 -0.96435,3.75977 l 0,6.99463 -2.02637,0 0,-18.99414 2.02637,0 0,5.74951 q 0,1.0376 -0.0977,1.72119 l 0.12207,0 q 0.59814,-0.96435 1.69678,-1.51367 1.11084,-0.56152 2.52685,-0.56152 2.45362,0 3.67432,1.17187 1.23291,1.15967 1.23291,3.69873 l 0,8.72803 -2.02637,0 z"
           inkscape:connector-curvature="0" />
        <path
           id="path4481"
           style="font-style:normal;font-variant:normal;font-weight:normal;font-stretch:normal;font-size:25px;font-family:'Open Sans';-inkscape-font-specification:'Open Sans';text-align:center;text-anchor:middle;fill:#333333;fill-opacity:1"
           d="m 594.05518,375.88263 q -2.96631,0 -4.6875,-1.80664 -1.70899,-1.80664 -1.70899,-5.01709 0,-3.23486 1.58692,-5.13916 1.59912,-1.9043 4.28466,-1.9043 2.51465,0 3.9795,1.66016 1.46484,1.64795 1.46484,4.35791 l 0,1.28174 -9.21631,0 q 0.061,2.35595 1.18408,3.57666 1.13526,1.2207 3.18604,1.2207 2.16064,0 4.27246,-0.90332 l 0,1.80664 q -1.07422,0.46387 -2.03858,0.65918 -0.95214,0.20752 -2.30712,0.20752 z m -0.54932,-12.17041 q -1.61133,0 -2.57568,1.0498 -0.95215,1.04981 -1.12305,2.90528 l 6.99463,0 q 0,-1.91651 -0.85449,-2.92969 -0.8545,-1.02539 -2.44141,-1.02539 z"
           inkscape:connector-curvature="0" />
        <path
           id="path4483"
           style="font-style:normal;font-variant:normal;font-weight:normal;font-stretch:normal;font-size:25px;font-family:'Open Sans';-inkscape-font-specification:'Open Sans';text-align:center;text-anchor:middle;fill:#333333;fill-opacity:1"
           d="m 608.52051,362.01544 q 0.89111,0 1.59912,0.14649 l -0.28076,1.87988 q -0.83008,-0.18311 -1.46485,-0.18311 -1.62353,0 -2.7832,1.31836 -1.14746,1.31836 -1.14746,3.28369 l 0,7.17774 -2.02637,0 0,-13.37891 1.67237,0 0.23193,2.47803 0.0977,0 q 0.74462,-1.30615 1.79443,-2.01416 1.0498,-0.70801 2.30713,-0.70801 z"
           inkscape:connector-curvature="0" />
        <path
           id="path4485"
           style="font-style:normal;font-variant:normal;font-weight:normal;font-stretch:normal;font-size:25px;font-family:'Open Sans';-inkscape-font-specification:'Open Sans';text-align:center;text-anchor:middle;fill:#333333;fill-opacity:1"
           d="m 618.27393,375.88263 q -2.96631,0 -4.6875,-1.80664 -1.70899,-1.80664 -1.70899,-5.01709 0,-3.23486 1.58692,-5.13916 1.59912,-1.9043 4.28466,-1.9043 2.51465,0 3.9795,1.66016 1.46484,1.64795 1.46484,4.35791 l 0,1.28174 -9.21631,0 q 0.061,2.35595 1.18408,3.57666 1.13526,1.2207 3.18604,1.2207 2.16064,0 4.27246,-0.90332 l 0,1.80664 q -1.07422,0.46387 -2.03858,0.65918 -0.95214,0.20752 -2.30712,0.20752 z m -0.54932,-12.17041 q -1.61133,0 -2.57568,1.0498 -0.95215,1.04981 -1.12305,2.90528 l 6.99463,0 q 0,-1.91651 -0.85449,-2.92969 -0.8545,-1.02539 -2.44141,-1.02539 z"
           inkscape:connector-curvature="0" />
        <path
           id="path4487"
           style="font-style:normal;font-variant:normal;font-weight:normal;font-stretch:normal;font-size:25px;font-family:'Open Sans';-inkscape-font-specification:'Open Sans';text-align:center;text-anchor:middle;fill:#333333;fill-opacity:1"
           d="m 628.01514,370.71905 0,-0.65917 q 0,-1.42823 0.43945,-2.34375 0.43945,-0.92774 1.63574,-1.95313 1.66016,-1.40381 2.0874,-2.11182 0.43946,-0.708 0.43946,-1.70898 0,-1.24512 -0.80567,-1.9165 -0.79345,-0.6836 -2.29492,-0.6836 -0.96435,0 -1.87988,0.23194 -0.91553,0.21972 -2.09961,0.81787 l -0.72022,-1.64795 q 2.30713,-1.2085 4.82178,-1.2085 2.33154,0 3.62549,1.14746 1.29395,1.14746 1.29395,3.23487 0,0.89111 -0.24415,1.5747 -0.23193,0.67139 -0.6958,1.28174 -0.46386,0.59815 -2.00195,1.94092 -1.23291,1.0498 -1.63574,1.7456 -0.39063,0.6958 -0.39063,1.85547 l 0,0.40283 -1.5747,0 z m -0.59815,3.62549 q 0,-1.66015 1.46485,-1.66015 0.708,0 1.08642,0.42724 0.39063,0.42725 0.39063,1.23291 0,0.78125 -0.39063,1.22071 -0.39062,0.42724 -1.08642,0.42724 -0.63477,0 -1.04981,-0.37842 -0.41504,-0.39062 -0.41504,-1.26953 z"
           inkscape:connector-curvature="0" />
      </g>
      <g
         id="text4294"
         style="font-style:normal;font-weight:normal;font-size:40px;line-height:125%;font-family:sans-serif;letter-spacing:0px;word-spacing:0px;fill:#000000;fill-opacity:1;stroke:none;stroke-width:1px;stroke-linecap:butt;stroke-linejoin:miter;stroke-opacity:1">
        <path
           id="path4491"
           style="font-style:normal;font-variant:normal;font-weight:bold;font-stretch:normal;font-size:40px;font-family:sans-serif;-inkscape-font-specification:'sans-serif Bold';fill:#333333;fill-opacity:1"
           d="m 243.34682,497.84497 7.51953,0 0,26.32813 q 0,5.44921 -2.96875,8.14453 -2.94922,2.69531 -8.94531,2.69531 l -1.52344,0 0,-5.68359 1.17187,0 q 2.34375,0 3.53516,-1.3086 1.21094,-1.30859 1.21094,-3.84765 l 0,-26.32813 z"
           inkscape:connector-curvature="0" />
        <path
           id="path4493"
           style="font-style:normal;font-variant:normal;font-weight:bold;font-stretch:normal;font-size:40px;font-family:sans-serif;-inkscape-font-specification:'sans-serif Bold';fill:#333333;fill-opacity:1"
           d="m 268.36635,509.60278 q -2.32422,0 -3.55469,1.67969 -1.21094,1.66016 -1.21094,4.80469 0,3.14453 1.21094,4.82422 1.23047,1.66015 3.55469,1.66015 2.28515,0 3.49609,-1.66015 1.21094,-1.67969 1.21094,-4.82422 0,-3.14453 -1.21094,-4.80469 -1.21094,-1.67969 -3.49609,-1.67969 z m 0,-5 q 5.64453,0 8.80859,3.04688 3.1836,3.04687 3.1836,8.4375 0,5.39062 -3.1836,8.4375 -3.16406,3.04687 -8.80859,3.04687 -5.66406,0 -8.86719,-3.04687 -3.18359,-3.04688 -3.18359,-8.4375 0,-5.39063 3.18359,-8.4375 3.20313,-3.04688 8.86719,-3.04688 z"
           inkscape:connector-curvature="0" />
        <path
           id="path4495"
           style="font-style:normal;font-variant:normal;font-weight:bold;font-stretch:normal;font-size:40px;font-family:sans-serif;-inkscape-font-specification:'sans-serif Bold';fill:#333333;fill-opacity:1"
           d="m 297.09682,522.49341 q 2.24609,0 3.41797,-1.64063 1.1914,-1.64062 1.1914,-4.76562 0,-3.125 -1.1914,-4.76563 -1.17188,-1.64062 -3.41797,-1.64062 -2.2461,0 -3.45703,1.66015 -1.19141,1.64063 -1.19141,4.7461 0,3.10547 1.19141,4.76562 1.21093,1.64063 3.45703,1.64063 z m -4.64844,-14.16016 q 1.44531,-1.91406 3.20312,-2.8125 1.75782,-0.91797 4.04297,-0.91797 4.04297,0 6.64063,3.22266 2.59765,3.20312 2.59765,8.26172 0,5.05859 -2.59765,8.28125 -2.59766,3.20312 -6.64063,3.20312 -2.28515,0 -4.04297,-0.89843 -1.75781,-0.91797 -3.20312,-2.83204 l 0,3.16407 -6.99219,0 0,-30.39063 6.99219,0 0,11.71875 z"
           inkscape:connector-curvature="0" />
        <path
           id="path4497"
           style="font-style:normal;font-variant:normal;font-weight:bold;font-stretch:normal;font-size:40px;font-family:sans-serif;-inkscape-font-specification:'sans-serif Bold';fill:#333333;fill-opacity:1"
           d="m 340.0265,509.13403 q 1.77735,0 2.69532,-0.78125 0.91797,-0.78125 0.91797,-2.30468 0,-1.50391 -0.91797,-2.28516 -0.91797,-0.80078 -2.69532,-0.80078 l -4.16015,0 0,6.17187 4.16015,0 z m 0.25391,12.75391 q 2.26563,0 3.39844,-0.95703 1.15234,-0.95703 1.15234,-2.89063 0,-1.89453 -1.13281,-2.83203 -1.13281,-0.95703 -3.41797,-0.95703 l -4.41406,0 0,7.63672 4.41406,0 z m 6.99219,-10.48828 q 2.42187,0.70312 3.75,2.59765 1.32812,1.89454 1.32812,4.64844 0,4.21875 -2.85156,6.28906 -2.85156,2.07032 -8.67187,2.07032 l -12.48047,0 0,-29.16016 11.28906,0 q 6.07422,0 8.78906,1.83594 2.73438,1.83594 2.73438,5.8789 0,2.12891 -0.9961,3.63282 -0.99609,1.48437 -2.89062,2.20703 z"
           inkscape:connector-curvature="0" />
        <path
           id="path4499"
           style="font-style:normal;font-variant:normal;font-weight:bold;font-stretch:normal;font-size:40px;font-family:sans-serif;-inkscape-font-specification:'sans-serif Bold';fill:#333333;fill-opacity:1"
           d="m 368.91322,509.60278 q -2.32422,0 -3.55468,1.67969 -1.21094,1.66016 -1.21094,4.80469 0,3.14453 1.21094,4.82422 1.23046,1.66015 3.55468,1.66015 2.28516,0 3.4961,-1.66015 1.21093,-1.67969 1.21093,-4.82422 0,-3.14453 -1.21093,-4.80469 -1.21094,-1.67969 -3.4961,-1.67969 z m 0,-5 q 5.64453,0 8.8086,3.04688 3.18359,3.04687 3.18359,8.4375 0,5.39062 -3.18359,8.4375 -3.16407,3.04687 -8.8086,3.04687 -5.66406,0 -8.86718,-3.04687 -3.1836,-3.04688 -3.1836,-8.4375 0,-5.39063 3.1836,-8.4375 3.20312,-3.04688 8.86718,-3.04688 z"
           inkscape:connector-curvature="0" />
        <path
           id="path4501"
           style="font-style:normal;font-variant:normal;font-weight:bold;font-stretch:normal;font-size:40px;font-family:sans-serif;-inkscape-font-specification:'sans-serif Bold';fill:#333333;fill-opacity:1"
           d="m 395.80775,517.16138 q -2.1875,0 -3.30078,0.74218 -1.09375,0.74219 -1.09375,2.1875 0,1.32813 0.87891,2.08985 0.89844,0.74219 2.48047,0.74219 1.97265,0 3.32031,-1.40625 1.34766,-1.42579 1.34766,-3.55469 l 0,-0.80078 -3.63282,0 z m 10.6836,-2.63672 0,12.48047 -7.05078,0 0,-3.24219 q -1.40625,1.99219 -3.16407,2.91016 -1.75781,0.89843 -4.27734,0.89843 -3.39844,0 -5.52734,-1.97265 -2.10938,-1.99219 -2.10938,-5.15625 0,-3.84766 2.63672,-5.64453 2.65625,-1.79688 8.32031,-1.79688 l 4.1211,0 0,-0.54687 q 0,-1.66016 -1.3086,-2.42188 -1.30859,-0.78125 -4.08203,-0.78125 -2.24609,0 -4.17969,0.44922 -1.93359,0.44922 -3.59375,1.34766 l 0,-5.33204 q 2.2461,-0.54687 4.51172,-0.82031 2.26563,-0.29297 4.53125,-0.29297 5.91797,0 8.53516,2.34375 2.63672,2.32422 2.63672,7.57813 z"
           inkscape:connector-curvature="0" />
        <path
           id="path4503"
           style="font-style:normal;font-variant:normal;font-weight:bold;font-stretch:normal;font-size:40px;font-family:sans-serif;-inkscape-font-specification:'sans-serif Bold';fill:#333333;fill-opacity:1"
           d="m 429.28432,511.08716 q -0.91797,-0.42969 -1.83594,-0.625 -0.89844,-0.21485 -1.81641,-0.21485 -2.69531,0 -4.16015,1.73829 -1.44532,1.71875 -1.44532,4.9414 l 0,10.07813 -6.99218,0 0,-21.875 6.99218,0 0,3.59375 q 1.34766,-2.14844 3.08594,-3.125 1.75781,-0.9961 4.19922,-0.9961 0.35156,0 0.76172,0.0391 0.41016,0.0195 1.19141,0.11718 l 0.0195,6.32813 z"
           inkscape:connector-curvature="0" />
        <path
           id="path4505"
           style="font-style:normal;font-variant:normal;font-weight:bold;font-stretch:normal;font-size:40px;font-family:sans-serif;-inkscape-font-specification:'sans-serif Bold';fill:#333333;fill-opacity:1"
           d="m 447.68275,508.33325 0,-11.71875 7.03125,0 0,30.39063 -7.03125,0 0,-3.16407 q -1.44531,1.9336 -3.18359,2.83204 -1.73828,0.89843 -4.02344,0.89843 -4.04297,0 -6.64062,-3.20312 -2.59766,-3.22266 -2.59766,-8.28125 0,-5.0586 2.59766,-8.26172 2.59765,-3.22266 6.64062,-3.22266 2.26563,0 4.00391,0.91797 1.75781,0.89844 3.20312,2.8125 z m -4.60937,14.16016 q 2.24609,0 3.41797,-1.64063 1.1914,-1.64062 1.1914,-4.76562 0,-3.125 -1.1914,-4.76563 -1.17188,-1.64062 -3.41797,-1.64062 -2.22656,0 -3.41797,1.64062 -1.17187,1.64063 -1.17187,4.76563 0,3.125 1.17187,4.76562 1.19141,1.64063 3.41797,1.64063 z"
           inkscape:connector-curvature="0" />
      </g>
      <g
         id="flowRoot4276-0"
         style="font-style:normal;font-weight:normal;font-size:40px;line-height:125%;font-family:sans-serif;letter-spacing:0px;word-spacing:0px;fill:#000000;fill-opacity:1;stroke:none;stroke-width:1px;stroke-linecap:butt;stroke-linejoin:miter;stroke-opacity:1"
         transform="translate(-109.74889,219.23592)">
        <path
           id="path4508"
           style="font-style:normal;font-variant:normal;font-weight:normal;font-stretch:normal;font-size:27.5px;font-family:'Open Sans';-inkscape-font-specification:'Open Sans';text-align:center;text-anchor:middle;fill:#333333;fill-opacity:1"
           d="m 352.6416,333.85659 -3.74634,0 0,12.98461 -2.229,0 0,-12.98461 -2.63184,0 0,-1.00708 2.63184,-0.80567 0,-0.81909 q 0,-5.42481 4.73999,-5.42481 1.16821,0 2.73926,0.46998 l -0.57739,1.78588 q -1.28907,-0.41626 -2.20215,-0.41626 -1.26221,0 -1.86646,0.84595 -0.60425,0.83252 -0.60425,2.68555 l 0,0.95337 3.74634,0 0,1.73218 z"
           inkscape:connector-curvature="0" />
        <path
           id="path4510"
           style="font-style:normal;font-variant:normal;font-weight:normal;font-stretch:normal;font-size:27.5px;font-family:'Open Sans';-inkscape-font-specification:'Open Sans';text-align:center;text-anchor:middle;fill:#333333;fill-opacity:1"
           d="m 368.05664,339.46938 q 0,3.59863 -1.81274,5.62622 -1.81275,2.01416 -5.00855,2.01416 -1.97388,0 -3.50464,-0.92651 -1.53076,-0.92652 -2.36328,-2.6587 -0.83252,-1.73217 -0.83252,-4.05517 0,-3.59863 1.79932,-5.59937 1.79931,-2.01416 4.99512,-2.01416 3.08837,0 4.90112,2.05445 1.82617,2.05444 1.82617,5.55908 z m -11.21216,0 q 0,2.81982 1.12793,4.29687 1.12793,1.47705 3.31665,1.47705 2.18872,0 3.31665,-1.46362 1.14136,-1.47705 1.14136,-4.3103 0,-2.8064 -1.14136,-4.25659 -1.12793,-1.46363 -3.3435,-1.46363 -2.18872,0 -3.30323,1.43677 -1.1145,1.43677 -1.1145,4.28345 z"
           inkscape:connector-curvature="0" />
        <path
           id="path4512"
           style="font-style:normal;font-variant:normal;font-weight:normal;font-stretch:normal;font-size:27.5px;font-family:'Open Sans';-inkscape-font-specification:'Open Sans';text-align:center;text-anchor:middle;fill:#333333;fill-opacity:1"
           d="m 378.66455,331.85585 q 0.98023,0 1.75903,0.16114 l -0.30883,2.06787 q -0.91309,-0.20142 -1.61133,-0.20142 -1.78589,0 -3.06153,1.4502 -1.2622,1.45019 -1.2622,3.61206 l 0,7.8955 -2.22901,0 0,-14.71679 1.8396,0 0.25513,2.72583 0.10742,0 q 0.81909,-1.43677 1.97388,-2.21558 1.15478,-0.77881 2.53784,-0.77881 z"
           inkscape:connector-curvature="0" />
        <path
           id="path4514"
           style="font-style:normal;font-variant:normal;font-weight:normal;font-stretch:normal;font-size:27.5px;font-family:'Open Sans';-inkscape-font-specification:'Open Sans';text-align:center;text-anchor:middle;fill:#333333;fill-opacity:1"
           d="m 399.37012,346.8412 -0.44312,-2.09472 -0.10742,0 q -1.10107,1.38305 -2.20215,1.87988 -1.08764,0.4834 -2.72583,0.4834 -2.18872,0 -3.4375,-1.12793 -1.23535,-1.12793 -1.23535,-3.20923 0,-4.45801 7.13013,-4.67285 l 2.49756,-0.0806 0,-0.91308 q 0,-1.73218 -0.75196,-2.55127 -0.73852,-0.83252 -2.37671,-0.83252 -1.8396,0 -4.16259,1.12793 l -0.68482,-1.70532 q 1.08765,-0.59082 2.37671,-0.92652 1.30249,-0.33569 2.60498,-0.33569 2.63184,0 3.89404,1.16821 1.27564,1.16821 1.27564,3.74634 l 0,10.04394 -1.65161,0 z m -5.0354,-1.57104 q 2.0813,0 3.26294,-1.14136 1.19506,-1.14136 1.19506,-3.1958 l 0,-1.32934 -2.229,0.094 q -2.65869,0.094 -3.84033,0.83252 -1.16821,0.7251 -1.16821,2.26929 0,1.20849 0.72509,1.8396 0.73853,0.6311 2.05445,0.6311 z"
           inkscape:connector-curvature="0" />
        <path
           id="path4516"
           style="font-style:normal;font-variant:normal;font-weight:normal;font-stretch:normal;font-size:27.5px;font-family:'Open Sans';-inkscape-font-specification:'Open Sans';text-align:center;text-anchor:middle;fill:#333333;fill-opacity:1"
           d="m 407.85645,346.8412 -2.22901,0 0,-20.89355 2.22901,0 0,20.89355 z"
           inkscape:connector-curvature="0" />
        <path
           id="path4518"
           style="font-style:normal;font-variant:normal;font-weight:normal;font-stretch:normal;font-size:27.5px;font-family:'Open Sans';-inkscape-font-specification:'Open Sans';text-align:center;text-anchor:middle;fill:#333333;fill-opacity:1"
           d="m 414.83887,346.8412 -2.22901,0 0,-20.89355 2.22901,0 0,20.89355 z"
           inkscape:connector-curvature="0" />
        <path
           id="path4520"
           style="font-style:normal;font-variant:normal;font-weight:normal;font-stretch:normal;font-size:27.5px;font-family:'Open Sans';-inkscape-font-specification:'Open Sans';text-align:center;text-anchor:middle;fill:#333333;fill-opacity:1"
           d="m 438.01514,346.8412 -10.94361,0 0,-19.63134 10.94361,0 0,2.02758 -8.66089,0 0,6.32447 8.13721,0 0,2.01416 -8.13721,0 0,7.22412 8.66089,0 0,2.04101 z"
           inkscape:connector-curvature="0" />
        <path
           id="path4522"
           style="font-style:normal;font-variant:normal;font-weight:normal;font-stretch:normal;font-size:27.5px;font-family:'Open Sans';-inkscape-font-specification:'Open Sans';text-align:center;text-anchor:middle;fill:#333333;fill-opacity:1"
           d="m 451.06689,346.8412 -6.66015,-17.40234 -0.10742,0 q 0.18798,2.06787 0.18798,4.91455 l 0,12.48779 -2.10815,0 0,-19.63134 3.4375,0 6.21704,16.19384 0.10742,0 6.27076,-16.19384 3.41064,0 0,19.63134 -2.28272,0 0,-12.64892 q 0,-2.17529 0.18799,-4.72656 l -0.10742,0 -6.71387,17.37548 -1.8396,0 z"
           inkscape:connector-curvature="0" />
        <path
           id="path4524"
           style="font-style:normal;font-variant:normal;font-weight:normal;font-stretch:normal;font-size:27.5px;font-family:'Open Sans';-inkscape-font-specification:'Open Sans';text-align:center;text-anchor:middle;fill:#333333;fill-opacity:1"
           d="m 484.01855,344.86733 -0.12084,0 q -1.54419,2.24243 -4.61915,2.24243 -2.88696,0 -4.49829,-1.97388 -1.5979,-1.97387 -1.5979,-5.61279 0,-3.63892 1.61133,-5.65308 1.61133,-2.01416 4.48486,-2.01416 2.99439,0 4.59229,2.1753 l 0.17456,0 -0.094,-1.0608 -0.0537,-1.03393 0,-5.98877 2.229,0 0,20.89355 -1.81275,0 -0.29541,-1.97387 z m -4.458,0.37597 q 2.28271,0 3.30322,-1.23535 1.03394,-1.24878 1.03394,-4.01489 l 0,-0.46997 q 0,-3.12866 -1.04737,-4.45801 -1.03393,-1.34277 -3.31665,-1.34277 -1.96045,0 -3.00781,1.53076 -1.03394,1.51733 -1.03394,4.29687 0,2.81983 1.03394,4.2566 1.03393,1.43676 3.03467,1.43676 z"
           inkscape:connector-curvature="0" />
        <path
           id="path4526"
           style="font-style:normal;font-variant:normal;font-weight:normal;font-stretch:normal;font-size:27.5px;font-family:'Open Sans';-inkscape-font-specification:'Open Sans';text-align:center;text-anchor:middle;fill:#333333;fill-opacity:1"
           d="m 503.56934,339.46938 q 0,3.59863 -1.81275,5.62622 -1.81274,2.01416 -5.00854,2.01416 -1.97388,0 -3.50464,-0.92651 -1.53076,-0.92652 -2.36328,-2.6587 -0.83252,-1.73217 -0.83252,-4.05517 0,-3.59863 1.79931,-5.59937 1.79932,-2.01416 4.99512,-2.01416 3.08838,0 4.90112,2.05445 1.82618,2.05444 1.82618,5.55908 z m -11.21216,0 q 0,2.81982 1.12793,4.29687 1.12793,1.47705 3.31665,1.47705 2.18872,0 3.31665,-1.46362 1.14136,-1.47705 1.14136,-4.3103 0,-2.8064 -1.14136,-4.25659 -1.12793,-1.46363 -3.34351,-1.46363 -2.18872,0 -3.30322,1.43677 -1.1145,1.43677 -1.1145,4.28345 z"
           inkscape:connector-curvature="0" />
        <path
           id="path4528"
           style="font-style:normal;font-variant:normal;font-weight:normal;font-stretch:normal;font-size:27.5px;font-family:'Open Sans';-inkscape-font-specification:'Open Sans';text-align:center;text-anchor:middle;fill:#333333;fill-opacity:1"
           d="m 513.34473,347.10976 q -3.1958,0 -4.95484,-1.96045 -1.7456,-1.97388 -1.7456,-5.57251 0,-3.69263 1.77246,-5.70679 1.78589,-2.01416 5.07568,-2.01416 1.06079,0 2.12158,0.22827 1.06079,0.22828 1.66504,0.53711 l -0.68481,1.89331 q -0.73853,-0.29541 -1.61133,-0.48339 -0.8728,-0.20142 -1.54419,-0.20142 -4.48486,0 -4.48486,5.72021 0,2.71241 1.08764,4.1626 1.10108,1.4502 3.24952,1.4502 1.8396,0 3.77319,-0.79224 l 0,1.97388 q -1.47705,0.76538 -3.71948,0.76538 z"
           inkscape:connector-curvature="0" />
        <path
           id="path4530"
           style="font-style:normal;font-variant:normal;font-weight:normal;font-stretch:normal;font-size:27.5px;font-family:'Open Sans';-inkscape-font-specification:'Open Sans';text-align:center;text-anchor:middle;fill:#333333;fill-opacity:1"
           d="m 525.32227,345.27016 q 0.59082,0 1.14135,-0.0806 0.55054,-0.094 0.87281,-0.18799 l 0,1.70533 q -0.36255,0.17456 -1.07422,0.28198 -0.69825,0.12085 -1.26221,0.12085 -4.27002,0 -4.27002,-4.49829 l 0,-8.75488 -2.10815,0 0,-1.07422 2.10815,-0.92652 0.93994,-3.14209 1.28906,0 0,3.41065 4.27002,0 0,1.73218 -4.27002,0 0,8.66088 q 0,1.32935 0.63111,2.04102 0.6311,0.71167 1.73218,0.71167 z"
           inkscape:connector-curvature="0" />
        <path
           id="path4532"
           style="font-style:normal;font-variant:normal;font-weight:normal;font-stretch:normal;font-size:27.5px;font-family:'Open Sans';-inkscape-font-specification:'Open Sans';text-align:center;text-anchor:middle;fill:#333333;fill-opacity:1"
           d="m 542.99316,339.46938 q 0,3.59863 -1.81274,5.62622 -1.81274,2.01416 -5.00855,2.01416 -1.97387,0 -3.50463,-0.92651 -1.53077,-0.92652 -2.36328,-2.6587 -0.83252,-1.73217 -0.83252,-4.05517 0,-3.59863 1.79931,-5.59937 1.79932,-2.01416 4.99512,-2.01416 3.08838,0 4.90112,2.05445 1.82617,2.05444 1.82617,5.55908 z m -11.21215,0 q 0,2.81982 1.12793,4.29687 1.12793,1.47705 3.31665,1.47705 2.18872,0 3.31665,-1.46362 1.14135,-1.47705 1.14135,-4.3103 0,-2.8064 -1.14135,-4.25659 -1.12793,-1.46363 -3.34351,-1.46363 -2.18872,0 -3.30322,1.43677 -1.1145,1.43677 -1.1145,4.28345 z"
           inkscape:connector-curvature="0" />
        <path
           id="path4534"
           style="font-style:normal;font-variant:normal;font-weight:normal;font-stretch:normal;font-size:27.5px;font-family:'Open Sans';-inkscape-font-specification:'Open Sans';text-align:center;text-anchor:middle;fill:#333333;fill-opacity:1"
           d="m 553.60107,331.85585 q 0.98023,0 1.75904,0.16114 l -0.30884,2.06787 q -0.91309,-0.20142 -1.61133,-0.20142 -1.78589,0 -3.06152,1.4502 -1.26221,1.45019 -1.26221,3.61206 l 0,7.8955 -2.229,0 0,-14.71679 1.8396,0 0.25512,2.72583 0.10743,0 q 0.81909,-1.43677 1.97387,-2.21558 1.15479,-0.77881 2.53784,-0.77881 z"
           inkscape:connector-curvature="0" />
        <path
           id="path4536"
           style="font-style:normal;font-variant:normal;font-weight:normal;font-stretch:normal;font-size:27.5px;font-family:'Open Sans';-inkscape-font-specification:'Open Sans';text-align:center;text-anchor:middle;fill:#333333;fill-opacity:1"
           d="m 567.6062,342.82631 q 0,2.05445 -1.53076,3.16895 -1.53076,1.1145 -4.29688,1.1145 -2.92724,0 -4.56543,-0.92651 l 0,-2.06788 q 1.0608,0.53711 2.26929,0.84595 1.22193,0.30884 2.34986,0.30884 1.7456,0 2.68554,-0.55054 0.93994,-0.56396 0.93994,-1.70532 0,-0.85937 -0.75195,-1.46362 -0.73852,-0.61768 -2.90039,-1.4502 -2.05444,-0.76538 -2.92725,-1.32934 -0.85937,-0.5774 -1.28906,-1.30249 -0.41626,-0.7251 -0.41626,-1.73218 0,-1.79932 1.46362,-2.83325 1.46363,-1.04737 4.0149,-1.04737 2.37671,0 4.64599,0.9668 l -0.79223,1.81274 q -2.21558,-0.91308 -4.0149,-0.91308 -1.58447,0 -2.39013,0.49682 -0.80567,0.49683 -0.80567,1.36963 0,0.59082 0.29541,1.00708 0.30884,0.41626 0.98023,0.79224 0.67139,0.37598 2.57812,1.08765 2.61841,0.95337 3.5315,1.92016 0.92651,0.9668 0.92651,2.43042 z"
           inkscape:connector-curvature="0" />
      </g>
    </g>
  </g>
</svg>
