<?xml version="1.0" encoding="UTF-8"?>
<!DOCTYPE svg PUBLIC "-//W3C//DTD SVG 1.1//EN" "http://www.w3.org/Graphics/SVG/1.1/DTD/svg11.dtd">
<svg version="1.1" xmlns="http://www.w3.org/2000/svg" xmlns:xlink="http://www.w3.org/1999/xlink" x="0" y="0" width="610" height="350" viewBox="0, 0, 610, 350">
  <g id="Main">
    <g id="Connectors">
      <path d="M34.688,176.114 L34.688,180.028 L108.645,180.028 L108.645,176.114 L34.688,176.114 z" fill="#808080" id="path5939"/>
      <path d="M198.426,33.585 L198.426,110.757 L202.426,110.757 L202.426,95.622 L225.566,95.622 L225.567,95.622 L225.584,95.64 L241.484,79.918 L238.401,77.395 L223.963,91.623 L202.426,91.623 L202.426,33.585 L198.426,33.585 z" fill="#808080" id="path5941"/>
      <path d="M220.428,227.821 L217.662,230.59 L257.303,270.232 L260.737,268.056 z" fill="#808080" id="path5965"/>
      <path d="M133.171,227.328 L97.776,262.601 L99.952,266.208 L121.115,244.972 L121.115,314.3 L125.029,314.3 L125.029,281.355 L147.551,281.355 L174.173,308.008 L177.262,305.512 L149.226,277.493 L149.226,277.441 L125.029,277.441 L125.029,241.045 L135.941,230.095 L133.171,227.328 z" fill="#808080" id="path5971"/>
      <path d="M69.737,124.405 L66.993,127.196 L109.871,169.541 L110.588,164.513 z" fill="#808080" id="path5986"/>
    </g>
    <path d="M160.023,144.868 L198.818,144.868 L198.818,156.961 L173.304,156.961 L173.304,168.146 L197.001,168.146 L197.001,179.889 L172.885,179.889 L172.885,201.978 L160.232,201.978 z" fill="#000000" id="path5990"/>
    <path d="M245.72,175.415 C245.72,213.027 215.23,243.517 177.619,243.517 C140.007,243.517 109.517,213.027 109.517,175.415 C109.517,137.804 140.007,107.314 177.619,107.314 C215.23,107.314 245.72,137.804 245.72,175.415 z" fill-opacity="0" stroke="#00B092" stroke-width="4.89" id="path5908"/>
    <g id="Nodes">
      <path d="M263.961,65.1 C263.961,74.052 256.704,81.309 247.752,81.309 C238.8,81.309 231.543,74.052 231.543,65.1 C231.543,56.148 238.8,48.892 247.752,48.892 C256.704,48.892 263.961,56.148 263.961,65.1 z" fill-opacity="0" stroke="#00B092" stroke-width="3.646" id="path5910"/>
      <path d="M71.785,115.022 C71.785,123.974 64.528,131.231 55.576,131.231 C46.624,131.231 39.368,123.974 39.368,115.022 C39.368,106.071 46.624,98.814 55.576,98.814 C64.528,98.814 71.785,106.071 71.785,115.022 z" fill-opacity="0" stroke="#00B092" stroke-width="3.646" id="circle5912"/>
      <path d="M34.417,178.883 C34.417,187.835 27.16,195.092 18.209,195.092 C9.257,195.092 2,187.835 2,178.883 C2,169.932 9.257,162.675 18.209,162.675 C27.16,162.675 34.417,169.932 34.417,178.883 z" fill-opacity="0" stroke="#00B092" stroke-width="3.646" id="circle5914"/>
      <path d="M104.039,275.068 C104.039,284.02 96.782,291.277 87.831,291.277 C78.879,291.277 71.622,284.02 71.622,275.068 C71.622,266.116 78.879,258.859 87.831,258.859 C96.782,258.859 104.039,266.116 104.039,275.068 z" fill-opacity="0" stroke="#00B092" stroke-width="3.646" id="circle5916"/>
      <path d="M139.331,329.538 C139.331,338.489 132.074,345.746 123.122,345.746 C114.17,345.746 106.914,338.489 106.914,329.538 C106.914,320.586 114.17,313.329 123.122,313.329 C132.074,313.329 139.331,320.586 139.331,329.538 z" fill-opacity="0" stroke="#00B092" stroke-width="3.646" id="circle5918"/>
      <path d="M201.313,318.96 C201.313,327.912 194.057,335.169 185.105,335.169 C176.153,335.169 168.896,327.912 168.896,318.96 C168.896,310.008 176.153,302.751 185.105,302.751 C194.057,302.751 201.313,310.008 201.313,318.96 z" fill-opacity="0" stroke="#00B092" stroke-width="3.646" id="circle5920"/>
      <path d="M283.463,282.284 C283.463,291.236 276.206,298.493 267.254,298.493 C258.302,298.493 251.046,291.236 251.046,282.284 C251.046,273.333 258.302,266.076 267.254,266.076 C276.206,266.076 283.463,273.333 283.463,282.284 z" fill-opacity="0" stroke="#00B092" stroke-width="3.646" id="circle5922"/>
      <path d="M218.154,18.209 C218.154,27.16 210.897,34.417 201.946,34.417 C192.994,34.417 185.737,27.16 185.737,18.209 C185.737,9.257 192.994,2 201.946,2 C210.897,2 218.154,9.257 218.154,18.209 z" fill-opacity="0" stroke="#00B092" stroke-width="3.646" id="circle5935"/>
    </g>
    <g id="Text">
      <path d="M217.924,328.217 L217.971,328.217 L223.373,313.773 L225.182,313.773 L218.817,330.402 L217.032,330.402 L210.69,313.773 L212.522,313.773 z" fill="#000000"/>
      <path d="M228.564,330.402 L226.967,330.402 L226.967,319.41 L228.564,319.41 z M228.893,315.182 Q228.893,315.675 228.54,315.992 Q228.188,316.309 227.765,316.309 Q227.343,316.309 226.99,315.992 Q226.638,315.675 226.638,315.182 Q226.638,314.689 226.99,314.372 Q227.343,314.055 227.765,314.055 Q228.188,314.055 228.54,314.372 Q228.893,314.689 228.893,315.182 z" fill="#000000"/>
      <path d="M232.815,321.829 Q232.815,321.383 232.792,320.678 Q232.768,319.973 232.721,319.41 L234.248,319.41 Q234.295,319.856 234.318,320.396 Q234.342,320.936 234.342,321.289 L234.389,321.289 Q234.858,320.326 235.798,319.727 Q236.737,319.128 237.912,319.128 Q238.217,319.128 238.464,319.151 Q238.71,319.175 238.969,319.245 L238.757,320.748 Q238.616,320.701 238.288,320.654 Q237.959,320.607 237.63,320.607 Q236.996,320.607 236.409,320.842 Q235.821,321.077 235.387,321.582 Q234.952,322.087 234.682,322.874 Q234.412,323.661 234.412,324.765 L234.412,330.402 L232.815,330.402 L232.815,321.829 z" fill="#000000"/>
      <path d="M245.944,320.748 L242.844,320.748 L242.844,327.16 Q242.844,327.771 242.961,328.17 Q243.079,328.57 243.302,328.793 Q243.525,329.016 243.83,329.098 Q244.136,329.18 244.488,329.18 Q244.817,329.18 245.181,329.086 Q245.545,328.992 245.874,328.828 L245.944,330.214 Q245.522,330.378 245.064,330.46 Q244.606,330.542 244.065,330.542 Q243.619,330.542 243.126,330.425 Q242.633,330.308 242.21,329.979 Q241.787,329.65 241.517,329.086 Q241.247,328.523 241.247,327.607 L241.247,320.748 L238.969,320.748 L238.969,319.41 L241.247,319.41 L241.247,316.309 L242.844,316.309 L242.844,319.41 L245.944,319.41 z" fill="#000000"/>
      <path d="M256.419,330.402 Q256.372,329.955 256.349,329.415 Q256.326,328.875 256.326,328.523 L256.279,328.523 Q255.809,329.486 254.752,330.084 Q253.695,330.683 252.521,330.683 Q250.43,330.683 249.385,329.439 Q248.34,328.194 248.34,326.15 L248.34,319.41 L249.937,319.41 L249.937,325.493 Q249.937,326.362 250.078,327.066 Q250.219,327.771 250.559,328.276 Q250.9,328.781 251.475,329.063 Q252.051,329.345 252.92,329.345 Q253.554,329.345 254.153,329.086 Q254.752,328.828 255.222,328.299 Q255.691,327.771 255.973,326.961 Q256.255,326.15 256.255,325.046 L256.255,319.41 L257.852,319.41 L257.852,327.982 Q257.852,328.429 257.876,329.133 Q257.899,329.838 257.946,330.402 z" fill="#000000"/>
      <path d="M269.009,323.308 Q269.009,321.876 268.257,321.171 Q267.505,320.467 266.073,320.467 Q265.086,320.467 264.241,320.819 Q263.395,321.171 262.808,321.758 L261.915,320.701 Q262.597,320.02 263.712,319.574 Q264.828,319.128 266.237,319.128 Q267.13,319.128 267.905,319.374 Q268.68,319.621 269.267,320.114 Q269.854,320.607 270.183,321.359 Q270.512,322.111 270.512,323.121 L270.512,327.935 Q270.512,328.57 270.559,329.251 Q270.606,329.932 270.7,330.402 L269.267,330.402 Q269.196,330.002 269.149,329.533 Q269.102,329.063 269.102,328.617 L269.055,328.617 Q268.304,329.72 267.353,330.202 Q266.401,330.683 265.063,330.683 Q264.429,330.683 263.759,330.507 Q263.09,330.331 262.538,329.932 Q261.986,329.533 261.622,328.898 Q261.258,328.264 261.258,327.348 Q261.258,326.08 261.904,325.34 Q262.55,324.6 263.63,324.236 Q264.71,323.872 266.108,323.766 Q267.505,323.661 269.009,323.661 z M268.539,324.906 Q267.552,324.906 266.554,324.988 Q265.556,325.07 264.746,325.317 Q263.935,325.563 263.419,326.033 Q262.902,326.503 262.902,327.278 Q262.902,327.865 263.125,328.264 Q263.348,328.663 263.724,328.91 Q264.1,329.157 264.558,329.262 Q265.016,329.368 265.485,329.368 Q266.331,329.368 266.989,329.074 Q267.646,328.781 268.093,328.276 Q268.539,327.771 268.774,327.113 Q269.009,326.456 269.009,325.728 L269.009,324.906 z" fill="#000000"/>
      <path d="M276.266,330.401 L274.669,330.401 L274.669,312.645 L276.266,312.645 z" fill="#000000"/>
      <path d="M300.505,327.724 Q300.082,328.358 299.483,328.922 Q298.884,329.486 298.097,329.908 Q297.31,330.331 296.359,330.578 Q295.408,330.824 294.28,330.824 Q292.402,330.824 290.804,330.167 Q289.207,329.509 288.056,328.346 Q286.906,327.184 286.26,325.587 Q285.614,323.99 285.614,322.087 Q285.614,320.185 286.271,318.588 Q286.929,316.99 288.092,315.828 Q289.254,314.665 290.84,314.008 Q292.425,313.35 294.28,313.35 Q295.196,313.35 296.077,313.538 Q296.958,313.726 297.733,314.066 Q298.508,314.407 299.142,314.888 Q299.776,315.37 300.199,315.981 L298.79,317.014 Q298.532,316.615 298.097,316.215 Q297.663,315.816 297.075,315.511 Q296.488,315.205 295.795,315.018 Q295.103,314.83 294.304,314.83 Q292.683,314.83 291.403,315.417 Q290.123,316.004 289.231,317.002 Q288.338,318 287.869,319.316 Q287.399,320.631 287.399,322.087 Q287.399,323.543 287.88,324.859 Q288.362,326.174 289.254,327.172 Q290.147,328.17 291.427,328.757 Q292.707,329.345 294.304,329.345 Q295.737,329.345 297.028,328.757 Q298.32,328.17 299.189,326.878 z" fill="#000000"/>
      <path d="M313.963,324.906 Q313.963,326.15 313.528,327.207 Q313.094,328.264 312.318,329.039 Q311.543,329.814 310.463,330.249 Q309.383,330.683 308.091,330.683 Q306.823,330.683 305.742,330.249 Q304.662,329.814 303.887,329.039 Q303.112,328.264 302.677,327.207 Q302.243,326.15 302.243,324.906 Q302.243,323.661 302.677,322.604 Q303.112,321.547 303.887,320.772 Q304.662,319.997 305.742,319.562 Q306.823,319.128 308.091,319.128 Q309.383,319.128 310.463,319.562 Q311.543,319.997 312.318,320.772 Q313.094,321.547 313.528,322.604 Q313.963,323.661 313.963,324.906 z M312.271,324.906 Q312.271,323.99 311.978,323.179 Q311.684,322.369 311.144,321.77 Q310.604,321.171 309.829,320.819 Q309.054,320.467 308.091,320.467 Q307.128,320.467 306.365,320.819 Q305.601,321.171 305.061,321.77 Q304.521,322.369 304.227,323.179 Q303.934,323.99 303.934,324.906 Q303.934,325.822 304.227,326.632 Q304.521,327.442 305.061,328.041 Q305.601,328.64 306.365,328.981 Q307.128,329.321 308.091,329.321 Q309.054,329.321 309.829,328.981 Q310.604,328.64 311.144,328.041 Q311.684,327.442 311.978,326.632 Q312.271,325.822 312.271,324.906 z" fill="#000000"/>
      <path d="M318.965,321.289 Q319.435,320.326 320.41,319.727 Q321.384,319.128 322.582,319.128 Q323.029,319.128 323.51,319.222 Q323.991,319.316 324.449,319.586 Q324.907,319.856 325.295,320.302 Q325.683,320.748 325.964,321.453 Q326.528,320.326 327.503,319.727 Q328.478,319.128 329.816,319.128 Q331.907,319.128 332.952,320.373 Q333.997,321.617 333.997,323.661 L333.997,330.402 L332.4,330.402 L332.4,324.318 Q332.4,322.58 331.754,321.523 Q331.108,320.467 329.558,320.467 Q328.689,320.467 328.09,320.819 Q327.491,321.171 327.127,321.747 Q326.763,322.322 326.599,323.05 Q326.434,323.778 326.434,324.553 L326.434,330.402 L324.837,330.402 L324.837,323.99 Q324.837,323.191 324.72,322.533 Q324.602,321.876 324.309,321.418 Q324.015,320.96 323.498,320.713 Q322.982,320.467 322.183,320.467 Q321.619,320.467 321.044,320.725 Q320.468,320.983 320.01,321.512 Q319.552,322.04 319.271,322.85 Q318.989,323.661 318.989,324.765 L318.989,330.402 L317.392,330.402 L317.392,321.829 Q317.392,321.383 317.368,320.678 Q317.345,319.973 317.298,319.41 L318.824,319.41 Q318.871,319.856 318.895,320.396 Q318.918,320.936 318.918,321.289 L318.965,321.289 z" fill="#000000"/>
      <path d="M339.704,321.289 Q340.174,320.326 341.149,319.727 Q342.123,319.128 343.321,319.128 Q343.767,319.128 344.249,319.222 Q344.73,319.316 345.188,319.586 Q345.646,319.856 346.034,320.302 Q346.422,320.748 346.703,321.453 Q347.267,320.326 348.242,319.727 Q349.216,319.128 350.555,319.128 Q352.646,319.128 353.691,320.373 Q354.736,321.617 354.736,323.661 L354.736,330.402 L353.139,330.402 L353.139,324.318 Q353.139,322.58 352.493,321.523 Q351.847,320.467 350.297,320.467 Q349.428,320.467 348.829,320.819 Q348.23,321.171 347.866,321.747 Q347.502,322.322 347.337,323.05 Q347.173,323.778 347.173,324.553 L347.173,330.402 L345.576,330.402 L345.576,323.99 Q345.576,323.191 345.459,322.533 Q345.341,321.876 345.048,321.418 Q344.754,320.96 344.237,320.713 Q343.72,320.467 342.922,320.467 Q342.358,320.467 341.783,320.725 Q341.207,320.983 340.749,321.512 Q340.291,322.04 340.01,322.85 Q339.728,323.661 339.728,324.765 L339.728,330.402 L338.131,330.402 L338.131,321.829 Q338.131,321.383 338.107,320.678 Q338.084,319.973 338.037,319.41 L339.563,319.41 Q339.61,319.856 339.634,320.396 Q339.657,320.936 339.657,321.289 L339.704,321.289 z" fill="#000000"/>
      <path d="M366.855,330.402 Q366.808,329.955 366.785,329.415 Q366.761,328.875 366.761,328.523 L366.714,328.523 Q366.245,329.486 365.188,330.084 Q364.131,330.683 362.956,330.683 Q360.866,330.683 359.821,329.439 Q358.776,328.194 358.776,326.15 L358.776,319.41 L360.373,319.41 L360.373,325.493 Q360.373,326.362 360.514,327.066 Q360.655,327.771 360.995,328.276 Q361.336,328.781 361.911,329.063 Q362.487,329.345 363.356,329.345 Q363.99,329.345 364.589,329.086 Q365.188,328.828 365.657,328.299 Q366.127,327.771 366.409,326.961 Q366.691,326.15 366.691,325.046 L366.691,319.41 L368.288,319.41 L368.288,327.982 Q368.288,328.429 368.311,329.133 Q368.335,329.838 368.382,330.402 z" fill="#000000"/>
      <path d="M373.948,319.41 Q373.995,319.856 374.019,320.396 Q374.042,320.936 374.042,321.289 L374.089,321.289 Q374.559,320.326 375.616,319.727 Q376.673,319.128 377.847,319.128 Q379.937,319.128 380.983,320.373 Q382.028,321.617 382.028,323.661 L382.028,330.402 L380.431,330.402 L380.431,324.318 Q380.431,323.449 380.29,322.745 Q380.149,322.04 379.808,321.535 Q379.468,321.03 378.892,320.748 Q378.317,320.467 377.448,320.467 Q376.814,320.467 376.215,320.725 Q375.616,320.983 375.146,321.512 Q374.676,322.04 374.395,322.85 Q374.113,323.661 374.113,324.765 L374.113,330.402 L372.516,330.402 L372.516,321.829 Q372.516,321.383 372.492,320.678 Q372.469,319.973 372.422,319.41 z" fill="#000000"/>
      <path d="M387.782,330.402 L386.185,330.402 L386.185,319.41 L387.782,319.41 z M388.111,315.182 Q388.111,315.675 387.759,315.992 Q387.406,316.309 386.983,316.309 Q386.561,316.309 386.208,315.992 Q385.856,315.675 385.856,315.182 Q385.856,314.689 386.208,314.372 Q386.561,314.055 386.983,314.055 Q387.406,314.055 387.759,314.372 Q388.111,314.689 388.111,315.182 z" fill="#000000"/>
      <path d="M396.989,320.748 L393.889,320.748 L393.889,327.16 Q393.889,327.771 394.006,328.17 Q394.124,328.57 394.347,328.793 Q394.57,329.016 394.875,329.098 Q395.18,329.18 395.533,329.18 Q395.862,329.18 396.226,329.086 Q396.59,328.992 396.918,328.828 L396.989,330.214 Q396.566,330.378 396.108,330.46 Q395.65,330.542 395.11,330.542 Q394.664,330.542 394.171,330.425 Q393.677,330.308 393.255,329.979 Q392.832,329.65 392.562,329.086 Q392.292,328.523 392.292,327.607 L392.292,320.748 L390.013,320.748 L390.013,319.41 L392.292,319.41 L392.292,316.309 L393.889,316.309 L393.889,319.41 L396.989,319.41 z" fill="#000000"/>
      <path d="M403.26,328.687 L403.307,328.687 L406.713,319.41 L408.451,319.41 L402.978,333.243 Q402.485,334.512 401.722,335.275 Q400.958,336.038 399.526,336.038 Q398.797,336.038 398.093,335.897 L398.257,334.441 Q398.821,334.629 399.432,334.629 Q400.254,334.629 400.723,334.124 Q401.193,333.619 401.545,332.68 L402.438,330.378 L397.741,319.41 L399.526,319.41 z" fill="#000000"/>
      <path d="M412.302,329.274 Q412.302,329.767 411.95,330.155 Q411.598,330.542 411.034,330.542 Q410.47,330.542 410.118,330.155 Q409.766,329.767 409.766,329.274 Q409.766,328.781 410.118,328.393 Q410.47,328.006 411.034,328.006 Q411.598,328.006 411.95,328.393 Q412.302,328.781 412.302,329.274 z" fill="#000000"/>
      <path d="M423.153,330.402 L421.462,330.402 L421.462,313.773 L426.348,313.773 Q427.569,313.773 428.614,314.008 Q429.659,314.242 430.423,314.771 Q431.186,315.299 431.609,316.145 Q432.031,316.99 432.031,318.212 Q432.031,319.128 431.703,319.879 Q431.374,320.631 430.81,321.183 Q430.246,321.735 429.471,322.064 Q428.696,322.392 427.78,322.486 L432.642,330.402 L430.575,330.402 L425.972,322.627 L423.153,322.627 z M423.153,321.171 L426.089,321.171 Q428.133,321.171 429.237,320.431 Q430.34,319.691 430.34,318.212 Q430.34,317.39 430.035,316.826 Q429.73,316.262 429.19,315.91 Q428.649,315.558 427.874,315.393 Q427.099,315.229 426.16,315.229 L423.153,315.229 z" fill="#000000"/>
      <path d="M443.54,324.06 Q443.47,322.51 442.542,321.488 Q441.614,320.467 439.9,320.467 Q439.101,320.467 438.42,320.76 Q437.739,321.054 437.222,321.559 Q436.705,322.064 436.4,322.71 Q436.095,323.355 436.048,324.06 z M445.161,324.577 Q445.161,324.741 445.161,324.929 Q445.161,325.117 445.137,325.328 L436.024,325.328 Q436.048,326.15 436.353,326.878 Q436.658,327.607 437.199,328.147 Q437.739,328.687 438.467,329.004 Q439.195,329.321 440.041,329.321 Q441.285,329.321 442.19,328.746 Q443.094,328.17 443.564,327.419 L444.761,328.358 Q443.775,329.603 442.589,330.143 Q441.403,330.683 440.041,330.683 Q438.819,330.683 437.774,330.249 Q436.729,329.814 435.977,329.039 Q435.226,328.264 434.791,327.207 Q434.357,326.15 434.357,324.906 Q434.357,323.661 434.779,322.604 Q435.202,321.547 435.954,320.772 Q436.705,319.997 437.715,319.562 Q438.725,319.128 439.9,319.128 Q441.191,319.128 442.178,319.562 Q443.164,319.997 443.822,320.737 Q444.48,321.476 444.82,322.463 Q445.161,323.449 445.161,324.577 z" fill="#000000"/>
      <path d="M455.378,323.308 Q455.378,321.876 454.626,321.171 Q453.874,320.467 452.442,320.467 Q451.455,320.467 450.61,320.819 Q449.764,321.171 449.177,321.758 L448.284,320.701 Q448.966,320.02 450.081,319.574 Q451.197,319.128 452.606,319.128 Q453.499,319.128 454.274,319.374 Q455.049,319.621 455.636,320.114 Q456.223,320.607 456.552,321.359 Q456.881,322.111 456.881,323.121 L456.881,327.935 Q456.881,328.57 456.928,329.251 Q456.975,329.932 457.069,330.402 L455.636,330.402 Q455.565,330.002 455.518,329.533 Q455.471,329.063 455.471,328.617 L455.424,328.617 Q454.673,329.72 453.722,330.202 Q452.77,330.683 451.432,330.683 Q450.798,330.683 450.128,330.507 Q449.459,330.331 448.907,329.932 Q448.355,329.533 447.991,328.898 Q447.627,328.264 447.627,327.348 Q447.627,326.08 448.273,325.34 Q448.919,324.6 449.999,324.236 Q451.079,323.872 452.477,323.766 Q453.874,323.661 455.378,323.661 z M454.908,324.906 Q453.921,324.906 452.923,324.988 Q451.925,325.07 451.115,325.317 Q450.304,325.563 449.788,326.033 Q449.271,326.503 449.271,327.278 Q449.271,327.865 449.494,328.264 Q449.717,328.663 450.093,328.91 Q450.469,329.157 450.927,329.262 Q451.385,329.368 451.854,329.368 Q452.7,329.368 453.358,329.074 Q454.015,328.781 454.462,328.276 Q454.908,327.771 455.143,327.113 Q455.378,326.456 455.378,325.728 L455.378,324.906 z" fill="#000000"/>
      <path d="M462.635,330.401 L461.038,330.401 L461.038,312.645 L462.635,312.645 z" fill="#000000"/>
      <path d="M474.566,330.402 L472.875,330.402 L472.875,313.773 L474.566,313.773 z" fill="#000000"/>
      <path d="M480.321,319.41 Q480.368,319.856 480.391,320.396 Q480.415,320.936 480.415,321.289 L480.462,321.289 Q480.931,320.326 481.988,319.727 Q483.045,319.128 484.22,319.128 Q486.31,319.128 487.355,320.373 Q488.4,321.617 488.4,323.661 L488.4,330.402 L486.803,330.402 L486.803,324.318 Q486.803,323.449 486.662,322.745 Q486.521,322.04 486.181,321.535 Q485.84,321.03 485.265,320.748 Q484.689,320.467 483.82,320.467 Q483.186,320.467 482.587,320.725 Q481.988,320.983 481.519,321.512 Q481.049,322.04 480.767,322.85 Q480.485,323.661 480.485,324.765 L480.485,330.402 L478.888,330.402 L478.888,321.829 Q478.888,321.383 478.865,320.678 Q478.841,319.973 478.794,319.41 z" fill="#000000"/>
      <path d="M493.967,319.41 Q494.014,319.856 494.037,320.396 Q494.061,320.936 494.061,321.289 L494.108,321.289 Q494.577,320.326 495.634,319.727 Q496.691,319.128 497.865,319.128 Q499.956,319.128 501.001,320.373 Q502.046,321.617 502.046,323.661 L502.046,330.402 L500.449,330.402 L500.449,324.318 Q500.449,323.449 500.308,322.745 Q500.167,322.04 499.827,321.535 Q499.486,321.03 498.911,320.748 Q498.335,320.467 497.466,320.467 Q496.832,320.467 496.233,320.725 Q495.634,320.983 495.164,321.512 Q494.695,322.04 494.413,322.85 Q494.131,323.661 494.131,324.765 L494.131,330.402 L492.534,330.402 L492.534,321.829 Q492.534,321.383 492.51,320.678 Q492.487,319.973 492.44,319.41 z" fill="#000000"/>
      <path d="M517.101,324.906 Q517.101,326.15 516.667,327.207 Q516.232,328.264 515.457,329.039 Q514.682,329.814 513.602,330.249 Q512.521,330.683 511.23,330.683 Q509.961,330.683 508.881,330.249 Q507.8,329.814 507.025,329.039 Q506.25,328.264 505.816,327.207 Q505.381,326.15 505.381,324.906 Q505.381,323.661 505.816,322.604 Q506.25,321.547 507.025,320.772 Q507.8,319.997 508.881,319.562 Q509.961,319.128 511.23,319.128 Q512.521,319.128 513.602,319.562 Q514.682,319.997 515.457,320.772 Q516.232,321.547 516.667,322.604 Q517.101,323.661 517.101,324.906 z M515.41,324.906 Q515.41,323.99 515.117,323.179 Q514.823,322.369 514.283,321.77 Q513.743,321.171 512.968,320.819 Q512.193,320.467 511.23,320.467 Q510.267,320.467 509.503,320.819 Q508.74,321.171 508.2,321.77 Q507.66,322.369 507.366,323.179 Q507.072,323.99 507.072,324.906 Q507.072,325.822 507.366,326.632 Q507.66,327.442 508.2,328.041 Q508.74,328.64 509.503,328.981 Q510.267,329.321 511.23,329.321 Q512.193,329.321 512.968,328.981 Q513.743,328.64 514.283,328.041 Q514.823,327.442 515.117,326.632 Q515.41,325.822 515.41,324.906 z" fill="#000000"/>
      <path d="M525.04,330.402 L523.278,330.402 L518.792,319.41 L520.577,319.41 L524.147,328.71 L524.194,328.71 L527.788,319.41 L529.502,319.41 z" fill="#000000"/>
      <path d="M538.921,323.308 Q538.921,321.876 538.169,321.171 Q537.417,320.467 535.985,320.467 Q534.998,320.467 534.153,320.819 Q533.307,321.171 532.72,321.758 L531.828,320.701 Q532.509,320.02 533.624,319.574 Q534.74,319.128 536.149,319.128 Q537.042,319.128 537.817,319.374 Q538.592,319.621 539.179,320.114 Q539.766,320.607 540.095,321.359 Q540.424,322.111 540.424,323.121 L540.424,327.935 Q540.424,328.57 540.471,329.251 Q540.518,329.932 540.612,330.402 L539.179,330.402 Q539.109,330.002 539.062,329.533 Q539.015,329.063 539.015,328.617 L538.968,328.617 Q538.216,329.72 537.265,330.202 Q536.314,330.683 534.975,330.683 Q534.341,330.683 533.671,330.507 Q533.002,330.331 532.45,329.932 Q531.898,329.533 531.534,328.898 Q531.17,328.264 531.17,327.348 Q531.17,326.08 531.816,325.34 Q532.462,324.6 533.542,324.236 Q534.622,323.872 536.02,323.766 Q537.417,323.661 538.921,323.661 z M538.451,324.906 Q537.464,324.906 536.466,324.988 Q535.468,325.07 534.658,325.317 Q533.847,325.563 533.331,326.033 Q532.814,326.503 532.814,327.278 Q532.814,327.865 533.037,328.264 Q533.26,328.663 533.636,328.91 Q534.012,329.157 534.47,329.262 Q534.928,329.368 535.398,329.368 Q536.243,329.368 536.901,329.074 Q537.558,328.781 538.005,328.276 Q538.451,327.771 538.686,327.113 Q538.921,326.456 538.921,325.728 L538.921,324.906 z" fill="#000000"/>
      <path d="M549.255,320.748 L546.155,320.748 L546.155,327.16 Q546.155,327.771 546.272,328.17 Q546.389,328.57 546.613,328.793 Q546.836,329.016 547.141,329.098 Q547.446,329.18 547.799,329.18 Q548.128,329.18 548.492,329.086 Q548.856,328.992 549.184,328.828 L549.255,330.214 Q548.832,330.378 548.374,330.46 Q547.916,330.542 547.376,330.542 Q546.93,330.542 546.436,330.425 Q545.943,330.308 545.52,329.979 Q545.098,329.65 544.828,329.086 Q544.557,328.523 544.557,327.607 L544.557,320.748 L542.279,320.748 L542.279,319.41 L544.557,319.41 L544.557,316.309 L546.155,316.309 L546.155,319.41 L549.255,319.41 z" fill="#000000"/>
      <path d="M553.365,330.402 L551.768,330.402 L551.768,319.41 L553.365,319.41 z M553.694,315.182 Q553.694,315.675 553.342,315.992 Q552.989,316.309 552.567,316.309 Q552.144,316.309 551.791,315.992 Q551.439,315.675 551.439,315.182 Q551.439,314.689 551.791,314.372 Q552.144,314.055 552.567,314.055 Q552.989,314.055 553.342,314.372 Q553.694,314.689 553.694,315.182 z" fill="#000000"/>
      <path d="M568.538,324.906 Q568.538,326.15 568.103,327.207 Q567.669,328.264 566.894,329.039 Q566.119,329.814 565.038,330.249 Q563.958,330.683 562.666,330.683 Q561.398,330.683 560.317,330.249 Q559.237,329.814 558.462,329.039 Q557.687,328.264 557.252,327.207 Q556.818,326.15 556.818,324.906 Q556.818,323.661 557.252,322.604 Q557.687,321.547 558.462,320.772 Q559.237,319.997 560.317,319.562 Q561.398,319.128 562.666,319.128 Q563.958,319.128 565.038,319.562 Q566.119,319.997 566.894,320.772 Q567.669,321.547 568.103,322.604 Q568.538,323.661 568.538,324.906 z M566.847,324.906 Q566.847,323.99 566.553,323.179 Q566.259,322.369 565.719,321.77 Q565.179,321.171 564.404,320.819 Q563.629,320.467 562.666,320.467 Q561.703,320.467 560.94,320.819 Q560.176,321.171 559.636,321.77 Q559.096,322.369 558.802,323.179 Q558.509,323.99 558.509,324.906 Q558.509,325.822 558.802,326.632 Q559.096,327.442 559.636,328.041 Q560.176,328.64 560.94,328.981 Q561.703,329.321 562.666,329.321 Q563.629,329.321 564.404,328.981 Q565.179,328.64 565.719,328.041 Q566.259,327.442 566.553,326.632 Q566.847,325.822 566.847,324.906 z" fill="#000000"/>
      <path d="M573.399,319.41 Q573.446,319.856 573.47,320.396 Q573.493,320.936 573.493,321.289 L573.54,321.289 Q574.01,320.326 575.067,319.727 Q576.124,319.128 577.298,319.128 Q579.389,319.128 580.434,320.373 Q581.479,321.617 581.479,323.661 L581.479,330.402 L579.882,330.402 L579.882,324.318 Q579.882,323.449 579.741,322.745 Q579.6,322.04 579.26,321.535 Q578.919,321.03 578.344,320.748 Q577.768,320.467 576.899,320.467 Q576.265,320.467 575.666,320.725 Q575.067,320.983 574.597,321.512 Q574.128,322.04 573.846,322.85 Q573.564,323.661 573.564,324.765 L573.564,330.402 L571.967,330.402 L571.967,321.829 Q571.967,321.383 571.943,320.678 Q571.92,319.973 571.873,319.41 z" fill="#000000"/>
      <path d="M587.82,329.274 Q587.82,329.767 587.468,330.155 Q587.116,330.542 586.552,330.542 Q585.989,330.542 585.636,330.155 Q585.284,329.767 585.284,329.274 Q585.284,328.781 585.636,328.393 Q585.989,328.006 586.552,328.006 Q587.116,328.006 587.468,328.393 Q587.82,328.781 587.82,329.274 z" fill="#000000"/>
      <path d="M462.82,249.765 L458.954,249.765 L473.927,215.122 L477.353,215.122 L492.228,249.765 L488.313,249.765 L484.496,240.664 L466.588,240.664 z M467.909,237.434 L483.175,237.434 L475.542,219.036 z" fill="#00B092"/>
      <path d="M500.84,246.633 L516.987,246.633 L516.987,249.765 L497.316,249.765 L497.316,215.122 L500.84,215.122 z" fill="#00B092"/>
      <path d="M525.452,249.765 L522.125,249.765 L522.125,226.865 L525.452,226.865 z M526.137,218.057 Q526.137,219.085 525.403,219.746 Q524.669,220.406 523.788,220.406 Q522.907,220.406 522.174,219.746 Q521.44,219.085 521.44,218.057 Q521.44,217.03 522.174,216.369 Q522.907,215.709 523.788,215.709 Q524.669,215.709 525.403,216.369 Q526.137,217.03 526.137,218.057 z" fill="#00B092"/>
      <path d="M538.027,246.633 L556.572,246.633 L556.572,249.765 L534.504,249.765 L534.504,215.122 L555.985,215.122 L555.985,218.253 L538.027,218.253 L538.027,230.192 L554.811,230.192 L554.811,233.275 L538.027,233.275 z" fill="#00B092"/>
      <path d="M580.597,243.795 L580.646,243.795 L592.243,215.122 L597.625,215.122 L597.625,249.765 L594.102,249.765 L594.102,219.672 L594.004,219.672 L581.478,249.765 L579.619,249.765 L567.092,219.672 L566.994,219.672 L566.994,249.765 L563.471,249.765 L563.471,215.122 L568.854,215.122 z" fill="#00B092"/>
      <path d="M261.339,202.791 L255.816,202.791 L255.816,164.777 L261.339,164.777 z M262.476,150.157 Q262.476,151.862 261.258,152.959 Q260.04,154.055 258.578,154.055 Q257.115,154.055 255.897,152.959 Q254.679,151.862 254.679,150.157 Q254.679,148.451 255.897,147.354 Q257.115,146.258 258.578,146.258 Q260.04,146.258 261.258,147.354 Q262.476,148.451 262.476,150.157 z" fill="#000000"/>
      <path d="M280.996,164.777 Q281.158,166.321 281.24,168.189 Q281.321,170.057 281.321,171.275 L281.483,171.275 Q283.108,167.945 286.763,165.874 Q290.418,163.803 294.479,163.803 Q301.708,163.803 305.323,168.107 Q308.938,172.412 308.938,179.479 L308.938,202.791 L303.414,202.791 L303.414,181.753 Q303.414,178.748 302.927,176.311 Q302.439,173.875 301.262,172.128 Q300.084,170.382 298.094,169.407 Q296.104,168.432 293.098,168.432 Q290.905,168.432 288.834,169.326 Q286.763,170.219 285.138,172.047 Q283.514,173.875 282.539,176.677 Q281.564,179.479 281.564,183.297 L281.564,202.791 L276.041,202.791 L276.041,173.144 Q276.041,171.6 275.96,169.163 Q275.879,166.727 275.716,164.777 z" fill="#000000"/>
      <path d="M350.606,173.468 Q349.226,171.275 346.586,169.854 Q343.946,168.432 340.859,168.432 Q337.529,168.432 334.849,169.61 Q332.168,170.788 330.259,172.859 Q328.35,174.93 327.335,177.733 Q326.32,180.535 326.32,183.784 Q326.32,187.033 327.335,189.795 Q328.35,192.556 330.219,194.628 Q332.087,196.699 334.767,197.877 Q337.448,199.055 340.778,199.055 Q344.433,199.055 346.951,197.674 Q349.469,196.293 351.094,194.1 L355.236,197.186 Q352.799,200.192 349.266,201.979 Q345.733,203.766 340.778,203.766 Q336.148,203.766 332.412,202.263 Q328.675,200.76 326.036,198.08 Q323.396,195.399 321.934,191.744 Q320.472,188.089 320.472,183.784 Q320.472,179.479 321.934,175.824 Q323.396,172.169 326.036,169.488 Q328.675,166.808 332.412,165.305 Q336.148,163.803 340.778,163.803 Q344.596,163.803 348.535,165.468 Q352.475,167.133 354.911,170.382 z" fill="#000000"/>
      <path d="M391.463,202.791 Q391.3,201.248 391.219,199.379 Q391.138,197.511 391.138,196.293 L390.976,196.293 Q389.351,199.623 385.696,201.694 Q382.041,203.766 377.979,203.766 Q370.75,203.766 367.136,199.461 Q363.521,195.156 363.521,188.089 L363.521,164.777 L369.045,164.777 L369.045,185.815 Q369.045,188.82 369.532,191.257 Q370.019,193.694 371.197,195.44 Q372.375,197.186 374.365,198.161 Q376.355,199.136 379.36,199.136 Q381.553,199.136 383.625,198.242 Q385.696,197.349 387.32,195.521 Q388.945,193.694 389.92,190.891 Q390.894,188.089 390.894,184.271 L390.894,164.777 L396.418,164.777 L396.418,194.425 Q396.418,195.968 396.499,198.405 Q396.58,200.841 396.743,202.791 z" fill="#000000"/>
      <path d="M416.724,196.374 L416.724,202.791 L411.201,202.791 L411.201,141.384 L416.724,141.384 L416.724,171.357 L416.887,171.357 Q419.323,167.62 423.222,165.711 Q427.121,163.803 431.263,163.803 Q435.731,163.803 439.345,165.346 Q442.96,166.889 445.519,169.57 Q448.077,172.25 449.499,175.905 Q450.92,179.56 450.92,183.784 Q450.92,188.008 449.499,191.663 Q448.077,195.318 445.519,197.999 Q442.96,200.679 439.345,202.222 Q435.731,203.766 431.263,203.766 Q427.121,203.766 423.222,201.897 Q419.323,200.029 416.887,196.374 z M445.072,183.784 Q445.072,180.616 444.097,177.814 Q443.122,175.012 441.295,172.94 Q439.467,170.869 436.787,169.651 Q434.106,168.432 430.695,168.432 Q427.527,168.432 424.847,169.61 Q422.166,170.788 420.217,172.859 Q418.267,174.93 417.171,177.733 Q416.074,180.535 416.074,183.784 Q416.074,187.033 417.171,189.835 Q418.267,192.638 420.217,194.668 Q422.166,196.699 424.847,197.877 Q427.527,199.055 430.695,199.055 Q434.106,199.055 436.787,197.877 Q439.467,196.699 441.295,194.628 Q443.122,192.556 444.097,189.754 Q445.072,186.952 445.072,183.784 z" fill="#000000"/>
      <path d="M486.741,178.261 Q486.741,173.306 484.141,170.869 Q481.542,168.432 476.587,168.432 Q473.176,168.432 470.252,169.651 Q467.328,170.869 465.297,172.9 L462.21,169.245 Q464.566,166.889 468.424,165.346 Q472.282,163.803 477.156,163.803 Q480.243,163.803 482.923,164.655 Q485.603,165.508 487.634,167.214 Q489.665,168.92 490.802,171.519 Q491.939,174.118 491.939,177.611 L491.939,194.262 Q491.939,196.455 492.102,198.811 Q492.264,201.166 492.589,202.791 L487.634,202.791 Q487.39,201.41 487.228,199.786 Q487.066,198.161 487.066,196.618 L486.903,196.618 Q484.304,200.435 481.014,202.1 Q477.725,203.766 473.095,203.766 Q470.902,203.766 468.587,203.156 Q466.272,202.547 464.363,201.166 Q462.454,199.786 461.195,197.592 Q459.936,195.399 459.936,192.232 Q459.936,187.845 462.17,185.287 Q464.404,182.728 468.14,181.469 Q471.876,180.21 476.709,179.845 Q481.542,179.479 486.741,179.479 z M485.116,183.784 Q481.705,183.784 478.253,184.068 Q474.8,184.353 471.998,185.206 Q469.196,186.058 467.409,187.683 Q465.622,189.307 465.622,191.988 Q465.622,194.019 466.394,195.399 Q467.165,196.78 468.465,197.633 Q469.764,198.486 471.348,198.851 Q472.932,199.217 474.557,199.217 Q477.481,199.217 479.755,198.202 Q482.03,197.186 483.573,195.44 Q485.116,193.694 485.928,191.419 Q486.741,189.145 486.741,186.627 L486.741,183.784 z" fill="#000000"/>
      <path d="M522.48,169.407 L511.758,169.407 L511.758,191.582 Q511.758,193.694 512.164,195.074 Q512.57,196.455 513.342,197.227 Q514.114,197.999 515.17,198.283 Q516.226,198.567 517.444,198.567 Q518.581,198.567 519.84,198.242 Q521.099,197.917 522.236,197.349 L522.48,202.141 Q521.018,202.71 519.434,202.994 Q517.85,203.278 515.982,203.278 Q514.439,203.278 512.733,202.872 Q511.027,202.466 509.565,201.329 Q508.103,200.192 507.169,198.242 Q506.235,196.293 506.235,193.125 L506.235,169.407 L498.356,169.407 L498.356,164.777 L506.235,164.777 L506.235,154.055 L511.758,154.055 L511.758,164.777 L522.48,164.777 z" fill="#000000"/>
      <path d="M568.86,183.784 Q568.86,188.089 567.357,191.744 Q565.854,195.399 563.174,198.08 Q560.494,200.76 556.757,202.263 Q553.021,203.766 548.553,203.766 Q544.167,203.766 540.431,202.263 Q536.694,200.76 534.014,198.08 Q531.334,195.399 529.831,191.744 Q528.328,188.089 528.328,183.784 Q528.328,179.479 529.831,175.824 Q531.334,172.169 534.014,169.488 Q536.694,166.808 540.431,165.305 Q544.167,163.803 548.553,163.803 Q553.021,163.803 556.757,165.305 Q560.494,166.808 563.174,169.488 Q565.854,172.169 567.357,175.824 Q568.86,179.479 568.86,183.784 z M563.012,183.784 Q563.012,180.616 561.996,177.814 Q560.981,175.012 559.113,172.94 Q557.245,170.869 554.564,169.651 Q551.884,168.432 548.553,168.432 Q545.223,168.432 542.583,169.651 Q539.943,170.869 538.075,172.94 Q536.207,175.012 535.192,177.814 Q534.176,180.616 534.176,183.784 Q534.176,186.952 535.192,189.754 Q536.207,192.556 538.075,194.628 Q539.943,196.699 542.583,197.877 Q545.223,199.055 548.553,199.055 Q551.884,199.055 554.564,197.877 Q557.245,196.699 559.113,194.628 Q560.981,192.556 561.996,189.754 Q563.012,186.952 563.012,183.784 z" fill="#000000"/>
      <path d="M580.719,173.144 Q580.719,171.6 580.638,169.163 Q580.556,166.727 580.394,164.777 L585.674,164.777 Q585.836,166.321 585.917,168.189 Q585.999,170.057 585.999,171.275 L586.161,171.275 Q587.786,167.945 591.035,165.874 Q594.284,163.803 598.345,163.803 Q599.401,163.803 600.254,163.884 Q601.107,163.965 602,164.209 L601.269,169.407 Q600.782,169.245 599.644,169.082 Q598.507,168.92 597.37,168.92 Q595.177,168.92 593.146,169.732 Q591.116,170.544 589.613,172.291 Q588.11,174.037 587.176,176.758 Q586.242,179.479 586.242,183.297 L586.242,202.791 L580.719,202.791 L580.719,173.144 z" fill="#000000"/>
    </g>
  </g>
</svg>
