<?xml version="1.0" encoding="UTF-8" standalone="no"?>
<!-- Created with Inkscape (http://www.inkscape.org/) -->

<svg
   xmlns:dc="http://purl.org/dc/elements/1.1/"
   xmlns:cc="http://creativecommons.org/ns#"
   xmlns:rdf="http://www.w3.org/1999/02/22-rdf-syntax-ns#"
   xmlns:svg="http://www.w3.org/2000/svg"
   xmlns="http://www.w3.org/2000/svg"
   xmlns:sodipodi="http://sodipodi.sourceforge.net/DTD/sodipodi-0.dtd"
   xmlns:inkscape="http://www.inkscape.org/namespaces/inkscape"
   width="11.288889mm"
   height="11.288889mm"
   viewBox="0 0 40 40"
   id="svg2"
   version="1.1"
   inkscape:version="0.91 r13725"
   sodipodi:docname="iphone-button-circle.svg">
  <defs
     id="defs4" />
  <sodipodi:namedview
     id="base"
     pagecolor="#ffffff"
     bordercolor="#666666"
     borderopacity="1.0"
     inkscape:pageopacity="0.0"
     inkscape:pageshadow="2"
     inkscape:zoom="3.959798"
     inkscape:cx="41.823274"
     inkscape:cy="46.887648"
     inkscape:document-units="px"
     inkscape:current-layer="layer2"
     showgrid="false"
     showguides="true"
     inkscape:guide-bbox="true"
     inkscape:window-width="3840"
     inkscape:window-height="2067"
     inkscape:window-x="2160"
     inkscape:window-y="93"
     inkscape:window-maximized="0"
     fit-margin-top="0"
     fit-margin-left="0"
     fit-margin-right="0"
     fit-margin-bottom="0" />
  <metadata
     id="metadata7">
    <rdf:RDF>
      <cc:Work
         rdf:about="">
        <dc:format>image/svg+xml</dc:format>
        <dc:type
           rdf:resource="http://purl.org/dc/dcmitype/StillImage" />
        <dc:title></dc:title>
      </cc:Work>
    </rdf:RDF>
  </metadata>
  <g
     inkscape:groupmode="layer"
     id="layer3"
     inkscape:label="Layer 3"
     transform="translate(-322.2383,-448.69707)">
    <ellipse
       style="fill:#00b092;fill-opacity:0;stroke:none;stroke-width:5;stroke-miterlimit:4;stroke-dasharray:none;stroke-opacity:1"
       id="path4223"
       cx="343.21423"
       cy="508.43362"
       rx="577.5"
       ry="574.62866" />
    <ellipse
       style="fill:#00b092;fill-opacity:0;stroke:none;stroke-width:5;stroke-miterlimit:4;stroke-dasharray:none;stroke-opacity:1"
       id="path4231"
       cx="-632.35547"
       cy="246.76555"
       rx="355.5737"
       ry="295.4696" />
  </g>
  <g
     inkscape:groupmode="layer"
     id="layer2"
     inkscape:label="Layer 2"
     style="display:inline"
     transform="translate(-322.2383,-448.69707)">
    <path
       style="fill:#00b092;fill-opacity:1;stroke:none;stroke-width:5;stroke-miterlimit:4;stroke-dasharray:none;stroke-opacity:1"
       d="m 342.23827,448.69707 a 19.999986,19.999986 0 0 0 -20.00003,20.00003 19.999986,19.999986 0 0 0 20.00003,19.99997 19.999986,19.999986 0 0 0 19.99997,-19.99997 19.999986,19.999986 0 0 0 -19.99997,-20.00003 z m -5.80075,8.80786 11.49465,0 c 0.84356,0.18405 1.15659,0.76417 1.15659,1.65482 l 0,19.51955 c -0.037,0.95171 -0.45566,1.42626 -1.15659,1.54803 l -11.49465,0 c -0.76885,-0.14632 -1.08669,-0.71451 -1.12095,-1.54803 l 0,-19.51955 c 0.0519,-1.06059 0.50985,-1.47877 1.12095,-1.65482 z m 4.34128,0.58583 c -0.27003,0 -0.28322,0.61651 0,0.61651 l 2.79324,0 c 0.29187,0.01 0.27807,-0.60942 0,-0.61651 l -2.79324,0 z m -3.52921,1.06899 c -0.54811,0.0654 -0.76608,0.40589 -0.81207,0.88968 l 0,14.64412 c 0.013,0.51833 0.23069,0.87462 0.81207,0.94301 l 9.72581,0 c 0.63915,-0.0208 0.88502,-0.40209 0.95677,-0.94301 l 0,-14.64412 c -0.0893,-0.5615 -0.43155,-0.83115 -0.95677,-0.88968 l -9.72581,0 z m 4.92394,16.8589 a 1.5039117,1.5039117 0 0 0 -1.50393,1.50386 1.5039117,1.5039117 0 0 0 1.50393,1.50393 1.5039117,1.5039117 0 0 0 1.50392,-1.50393 1.5039117,1.5039117 0 0 0 -1.50392,-1.50386 z"
       id="path4233"
       inkscape:connector-curvature="0" />
  </g>
</svg>
