<?xml version="1.0" encoding="UTF-8"?>
<!DOCTYPE svg PUBLIC "-//W3C//DTD SVG 1.1//EN" "http://www.w3.org/Graphics/SVG/1.1/DTD/svg11.dtd">
<svg version="1.1" xmlns="http://www.w3.org/2000/svg" xmlns:xlink="http://www.w3.org/1999/xlink" x="0" y="0" width="202" height="254" viewBox="0, 0, 202, 254">
  <g id="Layer_2">
    <path d="M17.335,39.068 C17.389,36.042 27.023,23.736 29.692,23.736 C31.38,23.736 34.036,28.906 36.811,30.268 C40.662,32.157 42.35,20.368 42.35,20.368 C42.35,20.368 46.57,12.789 51.633,15.315 C58.384,18.684 73.574,52.367 95.902,82.856 C122.519,49.841 170.62,1 173.152,1 C175.684,1 185.267,11.265 184.966,12.789 C184.665,14.313 183.178,15.724 183.228,16.362 C183.278,17 188.342,22.052 189.197,22.022 C190.03,22.052 191.976,20.199 193.535,20.283 C195.093,20.368 201,29.631 201,32.157 C201,34.683 196.781,38.052 196.781,38.894 C196.781,39.736 197.535,39.914 196.781,41.42 C180.747,59.104 141.084,102.892 124.657,126.267 C133.489,137.418 157.118,171.943 174.046,189.809 C173.996,202.258 155.43,213.205 155.43,214.048 C155.43,214.89 158.03,216.557 157.574,217.829 C157.118,219.1 148.636,227.216 146.548,226.526 C144.46,225.837 138.553,219.942 137.709,219.942 C136.865,219.942 128.905,231.285 123.602,232.771 C118.3,234.258 83.94,179.663 83.94,179.663 C83.94,179.663 33.328,252.292 31.932,252.959 C30.536,253.626 23.934,245.994 23.437,244.757 C22.941,243.52 24.629,240.994 24.302,237.105 C19.565,235.1 17.029,240.786 14.078,240.048 C11.127,239.31 2.025,223.406 1.935,221.674 C1.844,219.942 6.063,214.89 6.063,213.205 C4.376,208.153 1,202.642 1,199.503 C1,196.364 46.57,140.786 55.852,129.839 C49.101,120.576 17.126,50.96 17.335,39.068 z" fill="#FF0000"/>
  </g>
</svg>
