<?xml version="1.0" encoding="UTF-8" standalone="no"?>
<svg
   xmlns:dc="http://purl.org/dc/elements/1.1/"
   xmlns:cc="http://creativecommons.org/ns#"
   xmlns:rdf="http://www.w3.org/1999/02/22-rdf-syntax-ns#"
   xmlns:svg="http://www.w3.org/2000/svg"
   xmlns="http://www.w3.org/2000/svg"
   xmlns:sodipodi="http://sodipodi.sourceforge.net/DTD/sodipodi-0.dtd"
   xmlns:inkscape="http://www.inkscape.org/namespaces/inkscape"
   viewBox="0 0 200 176.47451"
   version="1.1"
   id="svg52"
   sodipodi:docname="the-teaching-institute-logo.svg"
   width="200"
   height="176.4745"
   inkscape:version="0.92.1 r">
  <metadata
     id="metadata58">
    <rdf:RDF>
      <cc:Work
         rdf:about="">
        <dc:format>image/svg+xml</dc:format>
        <dc:type
           rdf:resource="http://purl.org/dc/dcmitype/StillImage" />
        <dc:title>tti_logo</dc:title>
      </cc:Work>
    </rdf:RDF>
  </metadata>
  <defs
     id="defs56" />
  <sodipodi:namedview
     pagecolor="#ffffff"
     bordercolor="#666666"
     borderopacity="1"
     objecttolerance="10"
     gridtolerance="10"
     guidetolerance="10"
     inkscape:pageopacity="0"
     inkscape:pageshadow="2"
     inkscape:window-width="1918"
     inkscape:window-height="2115"
     id="namedview54"
     showgrid="false"
     fit-margin-top="0"
     fit-margin-left="0"
     fit-margin-right="0"
     fit-margin-bottom="0"
     inkscape:zoom="2"
     inkscape:cx="-52.49283"
     inkscape:cy="139.82656"
     inkscape:window-x="4080"
     inkscape:window-y="45"
     inkscape:window-maximized="0"
     inkscape:current-layer="svg52" />
  <title
     id="title2">tti_logo</title>
  <path
     d="m 160.8149,28.00521 a 7.6669501,7.6669501 0 0 1 -8.65692,-12.65647 l 1.5099,-1.03527 C 145.0637,5.83141 136.52891,1.85128 136.52891,1.85128 c 0,0 -34.57215,16.09815 -34.57215,52.56044 0,22.82051 15.47919,35.69625 34.57215,35.69625 19.09295,0 34.56937,-12.87297 34.56937,-35.69347 a 53.290405,53.290405 0 0 0 -7.85201,-28.07183 z"
     style="fill:#e95b2d;stroke-width:0.27755418"
     id="path4"
     inkscape:connector-curvature="0" />
  <path
     d="m 164.68678,25.46837 -0.92981,-1.51822 -3.88576,2.66729 a 5.981736,5.981736 0 1 1 -6.75289,-9.87537 l 3.19465,-2.18436 -1.45438,-1.43495 C 146.16004,4.53801 137.60582,0.49959 137.24777,0.33029 L 136.53723,0 135.8267,0.33029 c -0.3636,0.1693 -9.00664,4.2438 -17.76347,12.9368 a 62.310916,62.310916 0 0 0 -12.21239,16.81423 54.983486,54.983486 0 0 0 -5.57329,24.33595 c 0,11.31311 3.6776,20.86097 10.63588,27.61387 6.09232,5.9119 14.58825,9.36468 23.9335,9.73105 v 34.68317 h 3.37506 V 91.75109 c 9.34802,-0.36638 17.84396,-3.81915 23.9335,-9.73105 6.95828,-6.7529 10.63865,-16.30076 10.63865,-27.61387 a 54.994588,54.994588 0 0 0 -8.10736,-28.9378 z m -29.8454,51.01724 -10.87458,-10.87458 -2.38141,2.38419 13.25599,13.25599 v 7.1498 c -8.45985,-0.36082 -16.12313,-3.47498 -21.58817,-8.77627 -6.28938,-6.10619 -9.61447,-14.81584 -9.61447,-25.19637 a 51.683366,51.683366 0 0 1 4.84054,-22.0267 l 26.36765,26.36765 z m 0,-54.54773 -6.3671,-6.3782 -2.38141,2.3842 8.74851,8.7485 V 53.98429 L 110.08354,29.22645 a 59.951706,59.951706 0 0 1 10.26951,-13.49468 70.998362,70.998362 0 0 1 14.4911,-11.07164 z m 34.57215,32.47662 c 0,10.38052 -3.33065,19.09295 -9.61448,25.19637 -5.46227,5.30128 -13.12554,8.41821 -21.58816,8.77903 V 68.32274 l 29.00996,-29.00997 a 52.310639,52.310639 0 0 1 2.19268,15.10173 z m -6.70849,-25.66822 a 52.793583,52.793583 0 0 1 3.30012,7.00547 L 138.22199,63.55436 V 40.21205 l 11.79605,-11.79606 a 9.3452497,9.3452497 0 0 0 11.75997,0.97977 z m -15.40981,-8.80401 a 9.2592079,9.2592079 0 0 0 0.71887,5.68986 l -9.79211,9.81431 V 4.66013 a 71.331427,71.331427 0 0 1 12.79247,9.43684 9.2952899,9.2952899 0 0 0 -3.71923,5.85362 z"
     id="path6"
     inkscape:connector-curvature="0"
     style="stroke-width:0.27755418" />
  <path
     d="m 161.98063,53.20158 v 0.10547 c 0,8.62916 -2.66175,15.77341 -7.69381,20.65836 l -0.0749,0.0722 2.34811,2.41749 0.0749,-0.0722 c 5.70374,-5.53443 8.71798,-13.51411 8.71798,-23.07586 v -0.10269 z"
     id="path8"
     inkscape:connector-curvature="0"
     style="stroke-width:0.27755418" />
  <rect
     x="37.90213"
     y="119.03903"
     width="3.369508"
     height="9.595048"
     transform="rotate(-45)"
     id="rect10"
     style="stroke-width:0.27755418" />
  <path
     d="M 12.4372,52.8935 V 78.05101 H 8.01854 V 52.8935 H 0 v -3.96903 h 20.45297 v 3.96903 z"
     id="path12"
     inkscape:connector-curvature="0"
     style="stroke-width:0.27755418" />
  <path
     d="M 42.23542,78.05379 V 65.33348 H 30.41439 V 78.05656 H 25.99573 V 48.92725 h 4.41866 V 61.36168 H 42.23542 V 48.92725 h 4.41866 v 29.12654 z"
     id="path14"
     inkscape:connector-curvature="0"
     style="stroke-width:0.27755418" />
  <path
     d="M 55.60521,78.05379 V 48.92725 H 74.21799 V 52.8935 H 60.02387 v 8.50981 H 72.13356 V 65.3307 H 60.02387 v 8.75406 h 14.19412 v 3.96903 z"
     id="path16"
     inkscape:connector-curvature="0"
     style="stroke-width:0.27755418" />
  <path
     d="m 12.4372,101.98451 v 25.15751 H 8.01854 V 101.98451 H 0 v -3.96903 h 20.45297 v 3.96903 z"
     id="path18"
     inkscape:connector-curvature="0"
     style="stroke-width:0.27755418" />
  <path
     d="M 25.99573,127.14202 V 98.01548 h 18.61278 v 3.96903 H 30.41439 v 8.50981 H 42.5213 v 3.92739 H 30.41439 v 8.75406 h 14.19412 v 3.96903 z"
     id="path20"
     inkscape:connector-curvature="0"
     style="stroke-width:0.27755418" />
  <path
     d="m 68.7363,127.14202 -2.00395,-5.85084 H 55.23328 l -2.00394,5.85084 H 48.53035 L 59.20786,98.01548 h 3.55825 l 10.67473,29.12654 z m -7.6494,-22.54017 -4.54078,12.92569 h 8.95667 z"
     id="path22"
     inkscape:connector-curvature="0"
     style="stroke-width:0.27755418" />
  <path
     d="m 86.24997,127.38627 a 10.547059,10.547059 0 0 1 -7.6494,-3.10861 c -2.86158,-2.86158 -2.82828,-6.09509 -2.82828,-11.71001 0,-5.61492 -0.0416,-8.83455 2.82273,-11.69891 a 10.547059,10.547059 0 0 1 7.64939,-3.10861 c 5.35958,0 9.36746,3.15024 10.39163,8.95945 h -4.48805 c -0.69666,-2.94485 -2.65897,-4.99597 -5.8897,-4.99597 a 5.828638,5.828638 0 0 0 -4.29654,1.75969 c -1.43218,1.55431 -1.75969,3.23073 -1.75969,9.08157 0,5.85085 0.32751,7.52727 1.75969,9.08158 a 5.828638,5.828638 0 0 0 4.29654,1.75969 c 3.23073,0 5.23745,-2.04557 5.93134,-4.99597 h 4.45752 c -0.9881,5.81476 -5.1181,8.9761 -10.39718,8.9761 z"
     id="path24"
     inkscape:connector-curvature="0"
     style="stroke-width:0.27755418" />
  <path
     d="m 119.8368,127.14202 v -12.72308 h -11.82103 v 12.72308 H 103.5971 V 98.01548 h 4.41867 v 12.43443 H 119.8368 V 98.01548 h 4.41866 v 29.12654 z"
     id="path26"
     inkscape:connector-curvature="0"
     style="stroke-width:0.27755418" />
  <path
     d="M 134.3168,127.14202 V 3.37228 h 4.41866 v 123.76974 z"
     id="path28"
     inkscape:connector-curvature="0"
     style="stroke-width:0.27755418" />
  <path
     d="m 166.67407,127.14202 -13.46416,-20.4946 v 20.4946 H 148.7968 V 98.01548 h 4.05229 l 13.45861,20.45297 V 98.01548 h 4.41588 v 29.12654 z"
     id="path30"
     inkscape:connector-curvature="0"
     style="stroke-width:0.27755418" />
  <path
     d="m 197.37989,124.07505 c -2.22044,2.33145 -4.94879,3.31399 -8.01854,3.31399 a 10.547059,10.547059 0 0 1 -7.6494,-3.1086 c -2.86436,-2.86436 -2.82272,-6.10619 -2.82272,-11.69891 0,-5.59272 -0.0416,-8.83455 2.82272,-11.69891 a 10.419384,10.419384 0 0 1 7.6494,-3.10861 c 6.17558,0 9.77546,4.04952 10.59424,9.03994 h -4.45752 c -0.73552,-3.19465 -2.87546,-5.07091 -6.13672,-5.07091 a 5.8508424,5.8508424 0 0 0 -4.29654,1.79855 c -1.43218,1.5543 -1.75969,3.19187 -1.75969,9.03994 0,5.84807 0.32751,7.52727 1.75969,9.08157 a 5.828638,5.828638 0 0 0 4.29654,1.75969 6.1728052,6.1728052 0 0 0 4.74617,-2.04557 c 1.06304,-1.22679 1.47382,-2.7006 1.47382,-4.58242 v -1.63757 h -6.21722 V 111.3936 H 200 v 4.46029 c -0.003,3.76086 -0.69666,6.17558 -2.62011,8.22116 z"
     id="path32"
     inkscape:connector-curvature="0"
     style="stroke-width:0.27755418" />
  <path
     d="m 7.2969,176.23026 v -29.12654 h 4.41589 v 29.12654 z"
     id="path34"
     inkscape:connector-curvature="0"
     style="stroke-width:0.27755418" />
  <path
     d="m 36.86197,176.23026 -13.4586,-20.49461 v 20.49461 H 18.98748 V 147.10372 H 23.037 l 13.4586,20.45297 v -20.45297 h 4.41866 v 29.12654 z"
     id="path36"
     inkscape:connector-curvature="0"
     style="stroke-width:0.27755418" />
  <path
     d="m 56.14366,176.4745 c -4.37703,0 -7.52727,-1.02417 -10.30836,-3.84412 l 2.94485,-2.90322 c 2.12606,2.12607 4.45752,2.77554 7.444,2.77554 3.80527,0 6.0146,-1.63757 6.0146,-4.45752 0,-1.26842 -0.36914,-2.33145 -1.1463,-3.02811 -0.77715,-0.69666 -1.47381,-0.98255 -3.19187,-1.22679 l -3.43612,-0.49127 c -2.37309,-0.32752 -4.25491,-1.1463 -5.52333,-2.33146 -1.43218,-1.34891 -2.12606,-3.19187 -2.12606,-5.55108 0,-5.07369 3.68036,-8.54867 9.7366,-8.54867 3.84412,0 6.54472,0.98254 9.03994,3.31399 l -2.82273,2.77555 c -1.79855,-1.71806 -3.88576,-2.25097 -6.33934,-2.25097 -3.43612,0 -5.31794,1.96231 -5.31794,4.54079 a 3.4638763,3.4638763 0 0 0 1.11022,2.7006 c 0.73552,0.65503 1.92345,1.1463 3.27237,1.34891 l 3.31399,0.49128 c 2.7006,0.408 4.21327,1.06303 5.44006,2.16769 1.59594,1.38777 2.37309,3.47776 2.37309,5.97297 -0.008,5.35402 -4.38258,8.54589 -10.47767,8.54589 z"
     id="path38"
     inkscape:connector-curvature="0"
     style="stroke-width:0.27755418" />
  <path
     d="m 82.76388,151.06997 v 25.15751 h -4.41866 v -25.15751 h -8.01576 v -3.96903 h 20.45297 v 3.96903 z"
     id="path40"
     inkscape:connector-curvature="0"
     style="stroke-width:0.27755418" />
  <path
     d="m 95.46199,176.23026 v -29.12654 h 4.41866 v 29.12654 z"
     id="path42"
     inkscape:connector-curvature="0"
     style="stroke-width:0.27755418" />
  <path
     d="m 116.43953,151.06997 v 25.15751 h -4.41866 v -25.15751 h -8.01854 v -3.96903 h 20.45297 v 3.96903 z"
     id="path44"
     inkscape:connector-curvature="0"
     style="stroke-width:0.27755418" />
  <path
     d="m 139.92895,176.4745 c -5.93134,0 -10.43049,-4.04951 -10.43049,-10.06411 v -19.30667 h 4.41866 v 19.10405 c 0,3.88576 2.37309,6.30048 6.0146,6.30048 3.64151,0 6.05346,-2.41472 6.05346,-6.30048 v -19.10405 h 4.41866 v 19.30944 c -0.003,6.01183 -4.54356,10.06134 -10.47489,10.06134 z"
     id="path46"
     inkscape:connector-curvature="0"
     style="stroke-width:0.27755418" />
  <path
     d="m 166.48811,151.06997 v 25.15751 h -4.41589 v -25.15751 h -8.02964 v -3.96903 h 20.45297 v 3.96903 z"
     id="path48"
     inkscape:connector-curvature="0"
     style="stroke-width:0.27755418" />
  <path
     d="m 180.13267,176.23026 v -29.12654 h 18.61279 v 3.96902 h -14.19135 v 8.50982 h 12.10969 v 3.92739 h -12.10969 v 8.75406 h 14.19412 v 3.96902 z"
     id="path50"
     inkscape:connector-curvature="0"
     style="stroke-width:0.27755418" />
</svg>
