<?xml version="1.0" encoding="UTF-8" standalone="no"?>
<svg
   xmlns:dc="http://purl.org/dc/elements/1.1/"
   xmlns:cc="http://creativecommons.org/ns#"
   xmlns:rdf="http://www.w3.org/1999/02/22-rdf-syntax-ns#"
   xmlns:svg="http://www.w3.org/2000/svg"
   xmlns="http://www.w3.org/2000/svg"
   xmlns:sodipodi="http://sodipodi.sourceforge.net/DTD/sodipodi-0.dtd"
   xmlns:inkscape="http://www.inkscape.org/namespaces/inkscape"
   version="1.1"
   x="0"
   y="0"
   width="200"
   height="176"
   viewBox="0 0 200 176.00001"
   id="svg51"
   sodipodi:docname="the-teaching-institute-logo-inverted.svg"
   inkscape:version="0.92.1 r">
  <metadata
     id="metadata57">
    <rdf:RDF>
      <cc:Work
         rdf:about="">
        <dc:format>image/svg+xml</dc:format>
        <dc:type
           rdf:resource="http://purl.org/dc/dcmitype/StillImage" />
        <dc:title></dc:title>
      </cc:Work>
    </rdf:RDF>
  </metadata>
  <defs
     id="defs55" />
  <sodipodi:namedview
     pagecolor="#ffffff"
     bordercolor="#666666"
     borderopacity="1"
     objecttolerance="10"
     gridtolerance="10"
     guidetolerance="10"
     inkscape:pageopacity="0"
     inkscape:pageshadow="2"
     inkscape:window-width="1918"
     inkscape:window-height="2115"
     id="namedview53"
     showgrid="false"
     fit-margin-top="0"
     fit-margin-left="0"
     fit-margin-right="0"
     fit-margin-bottom="0"
     inkscape:zoom="2"
     inkscape:cx="-47.99525"
     inkscape:cy="10.840305"
     inkscape:window-x="4080"
     inkscape:window-y="45"
     inkscape:window-maximized="0"
     inkscape:current-layer="svg51" />
  <g
     id="Layer_1"
     transform="matrix(0.27755419,0,0,0.2768079,-13.045047,-11.468151)">
    <path
       d="m 626.4,142.33 c -12.592,8.613 -29.782,5.387 -38.395,-7.205 -8.613,-12.592 -5.387,-29.782 7.205,-38.395 L 600.65,93 c -31,-30.56 -61.75,-44.9 -61.75,-44.9 0,0 -124.56,58 -124.56,189.37 0,82.22 55.77,128.61 124.56,128.61 68.79,0 124.55,-46.38 124.55,-128.6 0.153,-35.687 -9.644,-70.711 -28.29,-101.14 z"
       id="path2"
       inkscape:connector-curvature="0"
       style="fill:#e95b2d" />
    <path
       d="m 640.35,133.19 -3.35,-5.47 -14,9.61 c -9.825,6.718 -23.236,4.2 -29.955,-5.625 -6.719,-9.825 -4.2,-23.237 5.625,-29.955 l 11.51,-7.87 -5.24,-5.17 C 573.6,57.78 542.78,43.23 541.49,42.62 l -2.56,-1.19 -2.56,1.19 c -1.31,0.61 -32.45,15.29 -64,46.61 -17.954,17.588 -32.828,38.066 -44,60.58 -13.328,27.3 -20.198,57.3 -20.08,87.68 0,40.76 13.25,75.16 38.32,99.49 21.95,21.3 52.56,33.74 86.23,35.06 V 497 H 545 V 372 c 33.68,-1.32 64.29,-13.76 86.23,-35.06 25.07,-24.33 38.33,-58.73 38.33,-99.49 0.132,-36.791 -9.982,-72.893 -29.21,-104.26 z M 532.82,317 l -39.18,-39.18 -8.58,8.59 47.76,47.76 v 25.76 c -30.48,-1.3 -58.09,-12.52 -77.78,-31.62 -22.66,-22 -34.64,-53.38 -34.64,-90.78 -0.099,-27.415 5.856,-54.513 17.44,-79.36 l 95,95 z m 0,-196.53 -22.94,-22.98 -8.58,8.59 31.52,31.52 v 98.33 l -89.2,-89.2 c 9.967,-17.878 22.425,-34.248 37,-48.62 15.616,-15.486 33.164,-28.893 52.21,-39.89 z m 124.56,117.01 c 0,37.4 -12,68.79 -34.64,90.78 -19.68,19.1 -47.29,30.33 -77.78,31.63 v -72.3 L 649.48,183.07 c 5.279,17.653 7.94,35.985 7.9,54.41 z M 633.21,145 c 4.576,8.111 8.55,16.547 11.89,25.24 L 545,270.41 v -84.1 l 42.5,-42.5 c 11.5,11.073 29.196,12.547 42.37,3.53 z m -55.52,-31.72 c -1.328,6.935 -0.421,14.113 2.59,20.5 L 545,169.14 V 58.22 c 16.582,9.581 32.041,20.985 46.09,34 -7.02,5.038 -11.821,12.595 -13.4,21.09 z"
       id="path4"
       inkscape:connector-curvature="0"
       style="fill:#dddddd" />
    <path
       d="m 630.6,233.11 v 0.38 c 0,31.09 -9.59,56.83 -27.72,74.43 l -0.27,0.26 8.46,8.71 0.27,-0.26 c 20.55,-19.94 31.41,-48.69 31.41,-83.14 v -0.37 z"
       id="path6"
       inkscape:connector-curvature="0"
       style="fill:#dddddd" />
    <path
       d="m 446.829,248.137 8.584,-8.584 24.445,24.445 -8.585,8.584 z"
       id="path8"
       inkscape:connector-curvature="0"
       style="fill:#dddddd" />
    <path
       d="m 91.81,232 v 90.64 H 75.89 V 232 H 47 v -14.3 h 73.69 V 232 Z"
       id="path10"
       inkscape:connector-curvature="0"
       style="fill:#dddddd" />
    <path
       d="m 199.17,322.65 v -45.83 h -42.59 v 45.84 H 140.66 V 217.71 h 15.92 v 44.8 h 42.59 v -44.8 h 15.92 v 104.94 z"
       id="path12"
       inkscape:connector-curvature="0"
       style="fill:#dddddd" />
    <path
       d="M 247.34,322.65 V 217.71 H 314.4 V 232 h -51.14 v 30.66 h 43.63 v 14.15 h -43.63 v 31.54 h 51.14 v 14.3 z"
       id="path14"
       inkscape:connector-curvature="0"
       style="fill:#dddddd" />
    <path
       d="m 91.81,408.87 v 90.64 H 75.89 V 408.87 H 47 v -14.3 h 73.69 v 14.3 z"
       id="path16"
       inkscape:connector-curvature="0"
       style="fill:#dddddd" />
    <path
       d="M 140.66,499.51 V 394.57 h 67.06 v 14.3 h -51.14 v 30.66 h 43.62 v 14.15 h -43.62 v 31.54 h 51.14 v 14.3 z"
       id="path18"
       inkscape:connector-curvature="0"
       style="fill:#dddddd" />
    <path
       d="m 294.65,499.51 -7.22,-21.08 H 246 l -7.22,21.08 h -16.93 l 38.47,-104.94 h 12.82 L 311.6,499.51 Z M 267.09,418.3 250.73,464.87 H 283 Z"
       id="path20"
       inkscape:connector-curvature="0"
       style="fill:#dddddd" />
    <path
       d="m 357.75,500.39 c -10.327,0.167 -20.277,-3.876 -27.56,-11.2 C 319.88,478.88 320,467.23 320,447 c 0,-20.23 -0.15,-31.83 10.17,-42.15 7.283,-7.324 17.233,-11.367 27.56,-11.2 19.31,0 33.75,11.35 37.44,32.28 H 379 c -2.51,-10.61 -9.58,-18 -21.22,-18 -5.815,-0.122 -11.421,2.174 -15.48,6.34 -5.16,5.6 -6.34,11.64 -6.34,32.72 0,21.08 1.18,27.12 6.34,32.72 4.059,4.166 9.665,6.462 15.48,6.34 11.64,0 18.87,-7.37 21.37,-18 h 16.06 c -3.56,20.95 -18.44,32.34 -37.46,32.34 z"
       id="path22"
       inkscape:connector-curvature="0"
       style="fill:#dddddd" />
    <path
       d="m 478.76,499.51 v -45.84 h -42.59 v 45.84 H 420.25 V 394.57 h 15.92 v 44.8 h 42.59 v -44.8 h 15.92 v 104.94 z"
       id="path24"
       inkscape:connector-curvature="0"
       style="fill:#dddddd" />
    <path
       d="M 530.93,499.51 V 53.58 h 15.92 v 445.93 z"
       id="path26"
       inkscape:connector-curvature="0"
       style="fill:#dddddd" />
    <path
       d="M 647.51,499.51 599,425.67 v 73.84 H 583.1 V 394.57 h 14.6 l 48.49,73.69 v -73.69 h 15.91 v 104.94 z"
       id="path28"
       inkscape:connector-curvature="0"
       style="fill:#dddddd" />
    <path
       d="m 758.14,488.46 c -8,8.4 -17.83,11.94 -28.89,11.94 -10.327,0.167 -20.277,-3.876 -27.56,-11.2 -10.32,-10.32 -10.17,-22 -10.17,-42.15 0,-20.15 -0.15,-31.83 10.17,-42.15 7.252,-7.369 17.223,-11.421 27.56,-11.2 22.25,0 35.22,14.59 38.17,32.57 H 751.36 C 748.71,414.76 741,408 729.25,408 c -5.834,-0.076 -11.439,2.271 -15.48,6.48 -5.16,5.6 -6.34,11.5 -6.34,32.57 0,21.07 1.18,27.12 6.34,32.72 4.059,4.166 9.665,6.462 15.48,6.34 6.504,0.163 12.752,-2.531 17.1,-7.37 3.83,-4.42 5.31,-9.73 5.31,-16.51 v -5.9 h -22.4 v -13.56 h 38.32 v 16.07 c -0.01,13.55 -2.51,22.25 -9.44,29.62 z"
       id="path30"
       inkscape:connector-curvature="0"
       style="fill:#dddddd" />
    <path
       d="M 73.29,676.37 V 571.43 H 89.2 v 104.94 z"
       id="path32"
       inkscape:connector-curvature="0"
       style="fill:#dddddd" />
    <path
       d="m 179.81,676.37 -48.49,-73.84 v 73.84 H 115.41 V 571.43 H 130 l 48.49,73.69 v -73.69 h 15.92 v 104.94 z"
       id="path34"
       inkscape:connector-curvature="0"
       style="fill:#dddddd" />
    <path
       d="m 249.28,677.25 c -15.77,0 -27.12,-3.69 -37.14,-13.85 l 10.61,-10.46 c 7.66,7.66 16.06,10 26.82,10 13.71,0 21.67,-5.9 21.67,-16.06 0,-4.57 -1.33,-8.4 -4.13,-10.91 -2.8,-2.51 -5.31,-3.54 -11.5,-4.42 l -12.38,-1.77 c -8.55,-1.18 -15.33,-4.13 -19.9,-8.4 -5.16,-4.86 -7.66,-11.5 -7.66,-20 0,-18.28 13.26,-30.8 35.08,-30.8 13.85,0 23.58,3.54 32.57,11.94 l -10.17,10 c -6.48,-6.19 -14,-8.11 -22.84,-8.11 -12.38,0 -19.16,7.07 -19.16,16.36 -0.166,3.674 1.298,7.235 4,9.73 2.65,2.36 6.93,4.13 11.79,4.86 l 11.94,1.77 c 9.73,1.47 15.18,3.83 19.6,7.81 5.75,5 8.55,12.53 8.55,21.52 -0.03,19.29 -15.79,30.79 -37.75,30.79 z"
       id="path36"
       inkscape:connector-curvature="0"
       style="fill:#dddddd" />
    <path
       d="m 345.19,585.72 v 90.64 h -15.92 v -90.64 h -28.88 v -14.3 h 73.69 v 14.3 z"
       id="path38"
       inkscape:connector-curvature="0"
       style="fill:#dddddd" />
    <path
       d="M 390.94,676.37 V 571.43 h 15.92 v 104.94 z"
       id="path40"
       inkscape:connector-curvature="0"
       style="fill:#dddddd" />
    <path
       d="m 466.52,585.72 v 90.64 H 450.6 v -90.64 h -28.89 v -14.3 h 73.69 v 14.3 z"
       id="path42"
       inkscape:connector-curvature="0"
       style="fill:#dddddd" />
    <path
       d="m 551.15,677.25 c -21.37,0 -37.58,-14.59 -37.58,-36.26 v -69.56 h 15.92 v 68.83 c 0,14 8.55,22.7 21.67,22.7 13.12,0 21.81,-8.7 21.81,-22.7 v -68.83 h 15.92 V 641 c -0.01,21.66 -16.37,36.25 -37.74,36.25 z"
       id="path44"
       inkscape:connector-curvature="0"
       style="fill:#dddddd" />
    <path
       d="m 646.84,585.72 v 90.64 H 630.93 V 585.72 H 602 v -14.3 h 73.69 v 14.3 z"
       id="path46"
       inkscape:connector-curvature="0"
       style="fill:#dddddd" />
    <path
       d="M 696,676.37 V 571.43 h 67.06 v 14.3 h -51.13 v 30.66 h 43.63 v 14.15 h -43.63 v 31.54 h 51.14 v 14.3 z"
       id="path48"
       inkscape:connector-curvature="0"
       style="fill:#dddddd" />
  </g>
</svg>
