<?xml version="1.0" encoding="UTF-8" standalone="no"?>
<!-- Created with Inkscape (http://www.inkscape.org/) -->

<svg
   xmlns:dc="http://purl.org/dc/elements/1.1/"
   xmlns:cc="http://creativecommons.org/ns#"
   xmlns:rdf="http://www.w3.org/1999/02/22-rdf-syntax-ns#"
   xmlns:svg="http://www.w3.org/2000/svg"
   xmlns="http://www.w3.org/2000/svg"
   xmlns:sodipodi="http://sodipodi.sourceforge.net/DTD/sodipodi-0.dtd"
   xmlns:inkscape="http://www.inkscape.org/namespaces/inkscape"
   id="svg2"
   version="1.1"
   inkscape:version="0.91 r13725"
   xml:space="preserve"
   width="712.57501"
   height="201.575"
   viewBox="0 0 712.57501 201.575"
   sodipodi:docname="USACSlogo.svg"><metadata
     id="metadata8"><rdf:RDF><cc:Work
         rdf:about=""><dc:format>image/svg+xml</dc:format><dc:type
           rdf:resource="http://purl.org/dc/dcmitype/StillImage" /><dc:title></dc:title></cc:Work></rdf:RDF></metadata><defs
     id="defs6" /><sodipodi:namedview
     pagecolor="#ffffff"
     bordercolor="#666666"
     borderopacity="1"
     objecttolerance="10"
     gridtolerance="10"
     guidetolerance="10"
     inkscape:pageopacity="0"
     inkscape:pageshadow="2"
     inkscape:window-width="959"
     inkscape:window-height="1058"
     id="namedview4"
     showgrid="false"
     inkscape:zoom="0.49398308"
     inkscape:cx="321.87337"
     inkscape:cy="262.73636"
     inkscape:window-x="960"
     inkscape:window-y="22"
     inkscape:window-maximized="0"
     inkscape:current-layer="g12" /><g
     id="g10"
     inkscape:groupmode="layer"
     inkscape:label="ink_ext_XXXXXX"
     transform="matrix(1.25,0,0,-1.25,0,201.575)"><g
       id="g12"
       transform="scale(0.1,0.1)"><path
         d="m 1634.13,987.621 c 0.18,-10.496 0.82,-21.066 0.82,-28.945 0.38,-9.828 0.67,-19.699 0.67,-29.66 0,-413.586 -335.3,-748.856 -748.917,-748.856 -413.582,0 -748.875,335.27 -748.875,748.856 0,288.424 163.149,538.494 402.07,663.584 5.012,2.95 21.969,11.97 32.723,17.58 10.859,5.68 -11.91,0.4 -27.98,-5.95 C 226.961,1488.84 0,1184.47 0,826.922 0,370.23 370.203,0 826.898,0 c 456.732,0 826.952,370.23 826.952,826.922 0,41.707 -3.19,82.621 -9.17,122.66 l -0.08,0 c -2.6,21.941 -10.75,53.258 -10.47,38.039"
         style="fill:#ed1c24;fill-opacity:1;fill-rule:nonzero;stroke:none"
         id="path14"
         inkscape:connector-curvature="0" /><path
         d="m 1565.21,922.988 c 0,379.572 -307.72,687.282 -687.284,687.282 -379.598,0 -687.324,-307.71 -687.324,-687.282 0,-52.754 6.128,-104.05 17.386,-153.39 -2.531,22.922 -3.953,46.175 -3.953,69.769 0,346.313 280.778,627.083 627.106,627.083 346.299,0 627.069,-280.77 627.069,-627.083 0,-250.816 -147.32,-467.129 -360.1,-567.437 271.55,91.851 467.1,348.535 467.1,651.058"
         style="fill:#a19e9d;fill-opacity:1;fill-rule:nonzero;stroke:none"
         id="path16"
         inkscape:connector-curvature="0" /><path
         d="m 1207.86,768.852 c -34.77,-60.477 -90.01,-126.821 -175.85,-196.301 l -0.21,-0.071 C 600.91,580.039 561.676,845.566 561.676,845.566 529.852,1005.57 683.813,1065.4 683.813,1065.4 c 99.859,45.14 174.992,4.56 177.597,2.13 0.477,2.5 26.488,50.35 66.121,75.73 0,0 51.164,33.99 98.369,3.69 23.65,-15.13 73.17,-77.46 17.65,-173.61 0,0 -103.769,-179.922 -364.152,-294.985 0,0 389.702,15.629 537.292,333.185 26.86,64.61 -32.12,124.16 -45.53,139.54 -15.92,16.87 -35.52,35.22 -58.45,52.24 l -0.14,0 C 995.238,1291.59 837.801,1322.07 688.438,1270.64 449.305,1188.27 322.238,927.68 404.605,688.543 486.953,449.41 747.461,322.289 986.652,404.629 1223.6,486.172 1350.44,742.781 1272.59,980.121 1259.18,854.93 1217.74,784.234 1207.86,768.852"
         style="fill:#ed1c24;fill-opacity:1;fill-rule:nonzero;stroke:none"
         id="path18"
         inkscape:connector-curvature="0" /><path
         d="m 2267,1110.26 c 0,-132.291 -33.72,-242.385 -197.08,-242.385 -110.7,0 -169.87,56.711 -169.87,183.075 l 0,212.4 c 0,56.03 -61.56,35.18 -61.56,59.93 0,8.48 7.7,10.42 12.45,10.42 7.68,0 52.07,-2.6 81.65,-2.6 30.21,0 72.23,2.6 83.46,2.6 5.35,0 6.51,-5.19 6.51,-9.1 0,-22.16 -49.72,12.36 -49.72,-94.47 l 0,-141.38 c 0,-99.687 23.7,-182.434 129.62,-182.434 117.79,0 133.18,102.944 133.18,213.054 l 0,129 c 0,74.91 -72.81,54.72 -72.81,78.18 0,10.41 10.06,7.15 17.77,7.15 17.15,-1.31 33.14,-2.6 49.69,-2.6 19.54,0 37.91,1.29 67.49,2.6 7.09,0 10.66,-1.31 10.66,-8.45 0,-17.61 -41.44,5.85 -41.44,-67.77 l 0,-147.22"
         style="fill:#ed1c24;fill-opacity:1;fill-rule:nonzero;stroke:none"
         id="path20"
         inkscape:connector-curvature="0" /><path
         d="m 2338.51,1006.01 c -1.98,9.12 -8.56,28.01 7.89,28.01 10.52,0 11.85,-5.87 14.47,-14.33 21.04,-62.557 61.83,-121.838 134.84,-121.838 51.33,0 90.81,31.261 90.81,83.402 0,55.376 -41.46,63.856 -147.35,110.096 -56.58,24.75 -95.41,50.17 -95.41,118.59 0,74.92 52.64,129.62 129.6,129.62 53.94,0 81.57,-25.41 101.31,-25.41 8.55,0 24.98,10.45 33.54,10.45 9.87,0 7.87,-9.79 9.19,-24.78 l 7.26,-87.29 c 1.3,-14.33 -0.66,-22.16 -15.14,-22.16 -15.12,0 -25,121.17 -138.13,121.17 -43.43,0 -73.01,-24.74 -73.01,-68.4 0,-43.65 36.16,-52.11 124.31,-90.55 70.4,-30.63 113.81,-58.64 113.81,-141.38 0,-85.355 -60.51,-143.335 -146.7,-143.335 -40.1,0 -73.66,15.648 -111.82,24.098 -16.43,3.941 -15.79,9.132 -19.08,24.777 l -20.39,89.26"
         style="fill:#ed1c24;fill-opacity:1;fill-rule:nonzero;stroke:none"
         id="path22"
         inkscape:connector-curvature="0" /><path
         d="m 3019.08,1067.89 c 11.34,0 20.16,-0.66 20.16,5.85 0,9.14 -3.77,16.31 -6.91,24.12 l -51.75,117.93 c -3.8,5.19 -1.89,5.19 -5.06,5.19 -1.23,0 -3.76,-0.63 -6.94,-7.8 l -48.57,-115.32 c -3.16,-7.81 -6.94,-14.98 -6.94,-24.12 0,-6.51 8.82,-5.85 20.18,-5.85 l 85.83,0 z m -104.75,-35.18 c -10.74,0 -23.99,-2.6 -38.49,-45.585 -4.43,-13.027 -13.25,-35.852 -13.25,-51.484 0,-46.922 68.12,-36.469 68.12,-54.078 0,-13.688 -19.55,-9.122 -32.79,-9.122 -20.2,0 -39.12,2.618 -59.3,2.618 -18.95,0 -37.23,-2.618 -55.51,-2.618 -8.86,0 -18.95,-1.304 -18.95,7.157 0,15.004 32.18,11.093 47.95,47.578 l 171,394.144 c 4.41,10.44 7.58,22.81 15.77,22.81 5.69,0 6.95,-1.31 15.13,-20.85 l 170.37,-398.694 c 20.16,-46.277 54.25,-20.863 54.25,-42.367 0,-11.082 -5.69,-9.778 -22.7,-9.778 -22.73,0 -39.75,2.618 -81.38,2.618 -27.78,0 -51.14,-2.618 -69.43,-2.618 -11.34,0 -19.55,-1.304 -19.55,7.813 0,18.918 44.79,11.719 44.79,51.476 0,14.321 -4.43,26.059 -11.36,43.641 -20.83,50.829 -23.99,57.339 -40.38,57.339 l -124.29,0"
         style="fill:#ed1c24;fill-opacity:1;fill-rule:nonzero;stroke:none"
         id="path24"
         inkscape:connector-curvature="0" /><path
         d="m 3383.08,1189.46 c 24.14,0 89.43,-12.47 89.43,-54.98 0,-13.16 -40.44,-44.68 -52.53,-44.68 -6.38,0 -7.79,5.86 -9.21,10.98 -8.52,35.18 -20.59,60.08 -58.91,60.08 -54.66,0 -66.7,-52.76 -66.7,-98.18 0,-70.383 37.57,-149.532 104.31,-149.532 41.9,0 76.67,38.844 88,38.844 2.85,0 7.1,-0.719 7.1,-8.777 0,-18.344 -59.6,-76.235 -132.71,-76.235 -80.92,0 -137.69,63.059 -137.69,146.59 0,98.21 73.08,175.89 168.91,175.89"
         style="fill:#ed1c24;fill-opacity:1;fill-rule:nonzero;stroke:none"
         id="path26"
         inkscape:connector-curvature="0" /><path
         d="m 3799.04,932.207 c 0,-45.426 54.63,-19.059 54.63,-39.578 0,-11.723 -8.51,-10.25 -17.71,-11.723 L 3728.77,866.98 c -3.55,7.333 -4.98,15.399 -4.98,49.114 -14.9,-11.731 -41.88,-49.114 -102.21,-49.114 -84.45,0 -97.24,59.379 -97.24,125.317 l 0,124.603 c 0,35.17 -45.42,14.65 -45.42,35.17 0,20.53 48.27,10.28 92.99,28.61 10.62,5.12 14.92,8.78 19.16,8.78 8.5,0 8.5,-6.6 8.5,-16.12 l 0,-185.438 c 0,-46.16 12.08,-74.754 61.78,-74.754 27.65,0 62.44,16.129 62.44,47.637 l 0,156.115 c 0,35.17 -45.44,14.65 -45.44,35.17 0,20.53 48.29,10.28 93.02,28.61 10.62,5.12 14.88,8.78 19.14,8.78 8.53,0 8.53,-6.6 8.53,-16.12 l 0,-241.133"
         style="fill:#ed1c24;fill-opacity:1;fill-rule:nonzero;stroke:none"
         id="path28"
         inkscape:connector-curvature="0" /><path
         d="m 3906.25,1139.61 -22,0 c -13.47,0 -18.45,6.62 -18.45,11 0,16.13 12.07,18.33 31.95,37.39 53.25,52.03 63.18,85.73 75.24,85.73 5.66,0 8.51,-5.12 8.51,-8.05 l 0,-78.43 c 0,-7.32 7.83,-7.32 15.62,-7.32 l 48.98,0 c 16.32,0 12.07,16.12 22.7,16.12 2.85,0 4.26,-2.2 4.26,-5.12 0,-5.13 -7.1,-21.25 -9.21,-27.13 -4.99,-10.25 -4.99,-23.44 -14.21,-23.44 l -68.14,0 0,-191.282 c 0,-25.652 4.97,-40.312 32.65,-40.312 35.49,0 48.99,17.593 56.78,17.593 4.99,0 7.82,-2.218 7.82,-11.007 0,-12.434 -40.47,-48.372 -98.68,-48.372 -80.92,0 -73.82,63.059 -73.82,82.098 l 0,190.532"
         style="fill:#ed1c24;fill-opacity:1;fill-rule:nonzero;stroke:none"
         id="path30"
         inkscape:connector-curvature="0" /><path
         d="m 4256.93,1077.35 c 12.07,0 16.3,-0.76 16.3,19.78 0,27.82 -19.84,71.08 -64.58,71.08 -42.57,0 -58.2,-43.26 -58.2,-76.96 0,-11.73 1.44,-13.9 3.56,-13.9 l 102.92,0 z m -90.13,-25.67 c -12.79,0 -15.63,5.12 -15.63,-18.32 0,-63.051 43.28,-120.212 105.04,-120.212 41.91,0 76.66,38.844 88.03,38.844 2.83,0 7.1,-0.719 7.1,-8.777 0,-18.344 -59.63,-76.235 -132.75,-76.235 -70.26,0 -139.82,46.168 -139.82,146.59 0,84.28 46.14,175.89 137.7,175.89 95.13,0 133.44,-83.53 133.44,-121.65 0,-16.13 -4.28,-16.13 -8.5,-16.13 l -174.61,0"
         style="fill:#ed1c24;fill-opacity:1;fill-rule:nonzero;stroke:none"
         id="path32"
         inkscape:connector-curvature="0" /><path
         d="m 4863.79,1193.63 c 0.59,-6.51 2.92,-21.5 -7,-21.5 -9.38,0 -13.48,13.67 -17.56,22.15 -29.26,62.57 -80.74,119.21 -148.61,119.21 -86.01,0 -133.41,-91.2 -133.41,-178.48 0,-91.87 46.82,-220.877 158.59,-220.877 90.68,0 130.44,85.34 145.66,85.34 2.92,0 8.19,-3.254 8.19,-7.164 0,-26.032 -62,-124.434 -186.64,-124.434 -171.43,0 -197.75,166.805 -197.75,218.255 0,109.46 60.27,253.43 207.7,253.43 70.77,0 115.83,-39.74 133.4,-39.74 11.11,0 11.68,21.5 19.88,21.5 2.94,0 7.03,-0.64 7.03,-3.92 l 10.52,-123.77"
         style="fill:#ed1c24;fill-opacity:1;fill-rule:nonzero;stroke:none"
         id="path34"
         inkscape:connector-curvature="0" /><path
         d="m 5040.38,1006.23 c 0,19.79 1.42,26.41 -4.95,26.41 -27.7,0 -83.77,-24.95 -83.77,-74.023 0,-11.75 0.7,-48.394 37.61,-48.394 15.59,0 51.11,8.078 51.11,24.914 l 0,71.093 z m 75.25,-50.57 c 0,-36.633 0.69,-45.437 19.16,-45.437 8.53,0 17.75,3.668 22.71,3.668 4.97,0 7.81,-2.918 7.81,-6.598 0,-14.664 -43.3,-40.313 -68.85,-40.313 -33.35,0 -43.29,29.34 -46.12,44.715 -29.84,-24.914 -71.69,-44.715 -110.74,-44.715 -39.04,0 -66.72,28.583 -66.72,68.903 0,90.137 94.41,102.597 167.5,121.677 0,63.01 -4.95,107.71 -61.04,107.71 -26.98,0 -32.64,-7.32 -32.64,-41.05 0,-34.42 -45.43,-34.42 -50.42,-34.42 -5.62,0 -18.45,1.45 -18.45,15.38 0,63.76 80.21,84.28 129.9,84.28 73.12,0 107.9,-33.72 107.9,-107.73 l 0,-126.07"
         style="fill:#ed1c24;fill-opacity:1;fill-rule:nonzero;stroke:none"
         id="path36"
         inkscape:connector-curvature="0" /><path
         d="m 5295.23,951.273 c 0,-67.421 66.02,-45.429 66.02,-66.703 0,-4.398 -2.84,-12.449 -10.64,-12.449 -17.05,0 -57.49,2.938 -80.92,2.938 -33.37,0 -53.95,-2.938 -71.68,-2.938 -9.2,0 -12.07,1.442 -12.07,7.332 0,22.711 34.06,3.652 34.06,57.875 l 0,172.242 c 0,35.17 -45.41,14.65 -45.41,35.17 0,11.74 10.62,12.49 35.49,19.06 59.61,13.94 68.15,31.52 76.62,31.52 8.53,0 8.53,-5.13 8.53,-14.64 l 0,-56.46 c 31.24,38.13 56.8,65.24 74.52,65.24 17.75,0 56.08,-32.98 56.08,-46.92 0,-27.12 -24.11,-61.54 -36.9,-61.54 -14.21,0 -17.76,29.32 -56.81,29.32 -39,0 -36.89,-55.71 -36.89,-61.58 l 0,-97.467"
         style="fill:#ed1c24;fill-opacity:1;fill-rule:nonzero;stroke:none"
         id="path38"
         inkscape:connector-curvature="0" /><path
         d="m 5606.14,1077.35 c 12.08,0 16.34,-0.76 16.34,19.78 0,27.82 -19.87,71.08 -64.58,71.08 -42.6,0 -58.22,-43.26 -58.22,-76.96 0,-11.73 1.42,-13.9 3.55,-13.9 l 102.91,0 z m -90.12,-25.67 c -12.79,0 -15.64,5.12 -15.64,-18.32 0,-63.051 43.29,-120.212 105.05,-120.212 41.88,0 76.66,38.844 88.01,38.844 2.84,0 7.12,-0.719 7.12,-8.777 0,-18.344 -59.64,-76.235 -132.75,-76.235 -70.26,0 -139.82,46.168 -139.82,146.59 0,84.28 46.12,175.89 137.71,175.89 95.11,0 133.42,-83.53 133.42,-121.65 0,-16.13 -4.24,-16.13 -8.49,-16.13 l -174.61,0"
         style="fill:#ed1c24;fill-opacity:1;fill-rule:nonzero;stroke:none"
         id="path40"
         inkscape:connector-curvature="0" /><path
         d="m 1909.11,394.391 c -1.97,9.129 -8.54,28.019 7.91,28.019 10.52,0 11.82,-5.851 14.43,-14.308 21.08,-62.563 61.88,-121.852 134.88,-121.852 51.31,0 90.77,31.25 90.77,83.391 0,55.39 -41.43,63.879 -147.34,110.089 -56.57,24.758 -95.36,50.168 -95.36,118.571 0,74.922 52.6,129.648 129.56,129.648 53.95,0 81.59,-25.398 101.3,-25.398 8.57,0 25,10.429 33.55,10.429 9.88,0 7.92,-9.777 9.23,-24.746 l 7.21,-87.304 c 1.33,-14.36 -0.65,-22.141 -15.12,-22.141 -15.13,0 -24.99,121.16 -138.15,121.16 -43.41,0 -73.01,-24.758 -73.01,-68.41 0,-43.66 36.18,-52.117 124.32,-90.539 70.39,-30.629 113.81,-58.629 113.81,-141.391 0,-85.347 -60.51,-143.328 -146.68,-143.328 -40.14,0 -73.69,15.649 -111.83,24.129 -16.45,3.891 -15.78,9.09 -19.08,24.738 l -20.4,89.243"
         style="fill:#979494;fill-opacity:1;fill-rule:nonzero;stroke:none"
         id="path42"
         inkscape:connector-curvature="0" /><path
         d="m 2307.41,448.852 c -2.13,-48.364 20.57,-167.832 99.36,-167.832 55.37,0 71.69,42.531 71.69,92.378 0,58.614 -20.57,181.024 -97.23,181.024 -61.76,0 -71.7,-52.813 -73.82,-105.57 z m 77.36,-193.454 c -85.88,0 -152.6,61.532 -152.6,151.704 0,96.019 66.02,170.75 161.12,170.75 88.72,0 156.86,-60.821 156.86,-153.161 0,-99.679 -67.43,-169.293 -165.38,-169.293"
         style="fill:#979494;fill-opacity:1;fill-rule:nonzero;stroke:none"
         id="path44"
         inkscape:connector-curvature="0" /><path
         d="m 2612.65,645.594 c 0,43.23 -46.83,19.746 -46.83,41.047 0,12.433 10.63,9.515 56.08,25.621 54.65,16.125 52.51,29.324 64.58,29.324 9.21,0 1.41,-20.504 1.41,-61.582 l 0,-352.063 c 0,-52.043 52.52,-41.781 52.52,-57.89 0,-7.34 -2.82,-9.531 -14.89,-9.531 -14.19,0 -58.19,2.91 -79.5,2.91 -16.32,0 -48.26,-2.91 -63.17,-2.91 -5.68,0 -12.07,0 -12.07,7.32 0,22.73 41.87,-6.602 41.87,62.289 l 0,315.465"
         style="fill:#979494;fill-opacity:1;fill-rule:nonzero;stroke:none"
         id="path46"
         inkscape:connector-curvature="0" /><path
         d="m 3067.64,320.602 c 0,-45.422 54.66,-19.051 54.66,-39.582 0,-11.731 -8.51,-10.25 -17.77,-11.731 l -107.14,-13.891 c -3.55,7.313 -4.99,15.372 -4.99,49.114 -14.9,-11.731 -41.85,-49.114 -102.18,-49.114 -84.47,0 -97.24,59.352 -97.24,125.301 l 0,124.61 c 0,35.171 -45.43,14.66 -45.43,35.171 0,20.52 48.25,10.231 92.97,28.598 10.64,5.121 14.91,8.774 19.17,8.774 8.49,0 8.49,-6.582 8.49,-16.133 l 0,-185.391 c 0,-46.199 12.09,-74.777 61.79,-74.777 27.65,0 62.43,16.14 62.43,47.648 l 0,156.11 c 0,35.171 -45.4,14.66 -45.4,35.171 0,20.52 48.25,10.231 92.96,28.598 10.68,5.121 14.94,8.774 19.15,8.774 8.53,0 8.53,-6.582 8.53,-16.133 l 0,-241.117"
         style="fill:#979494;fill-opacity:1;fill-rule:nonzero;stroke:none"
         id="path48"
         inkscape:connector-curvature="0" /><path
         d="m 3174.86,528.031 -21.97,0 c -13.48,0 -18.44,6.59 -18.44,11 0,16.11 12.03,18.321 31.92,37.36 53.24,52.047 63.18,85.73 75.24,85.73 5.65,0 8.49,-5.117 8.49,-8.051 l 0,-78.429 c 0,-7.321 7.85,-7.321 15.63,-7.321 l 48.99,0 c 16.36,0 12.06,16.129 22.71,16.129 2.86,0 4.26,-2.187 4.26,-5.129 0,-5.121 -7.09,-21.25 -9.22,-27.101 -4.97,-10.278 -4.97,-23.469 -14.2,-23.469 l -68.17,0 0,-191.262 c 0,-25.668 4.99,-40.308 32.67,-40.308 35.5,0 48.98,17.57 56.77,17.57 4.99,0 7.81,-2.191 7.81,-11 0,-12.461 -40.45,-48.352 -98.66,-48.352 -80.88,0 -73.83,63 -73.83,82.09 l 0,190.543"
         style="fill:#979494;fill-opacity:1;fill-rule:nonzero;stroke:none"
         id="path50"
         inkscape:connector-curvature="0" /><path
         d="m 3439.69,624.117 c -11.4,0 -46.9,46.883 -46.9,57.891 0,11.008 35.5,58.625 46.9,58.625 12.03,0 46.81,-47.617 46.81,-58.625 0,-11.008 -34.78,-57.891 -46.81,-57.891 z m -38.36,-126.168 c 0,35.192 -45.43,14.672 -45.43,35.192 0,11.73 10.63,12.449 35.5,19.078 59.6,13.929 68.12,31.519 76.63,31.519 8.54,0 8.54,-5.129 8.54,-14.66 l 0,-247.027 c 0,-46.871 51.81,-27.082 51.81,-52 0,-11.711 -20.58,-9.531 -29.08,-9.531 -22.73,0 -44.75,2.91 -67.46,2.91 -17.03,0 -34.77,-2.91 -52.5,-2.91 -12.08,0 -19.89,-2.18 -19.89,10.25 0,18.359 41.88,5.859 41.88,39.582 l 0,187.597"
         style="fill:#979494;fill-opacity:1;fill-rule:nonzero;stroke:none"
         id="path52"
         inkscape:connector-curvature="0" /><path
         d="m 3617.16,448.852 c -2.17,-48.364 20.55,-167.832 99.35,-167.832 55.37,0 71.68,42.531 71.68,92.378 0,58.614 -20.57,181.024 -97.23,181.024 -61.77,0 -71.7,-52.813 -73.8,-105.57 z m 77.35,-193.454 c -85.9,0 -152.65,61.532 -152.65,151.704 0,96.019 66.05,170.75 161.19,170.75 88.69,0 156.84,-60.821 156.84,-153.161 0,-99.679 -67.43,-169.293 -165.38,-169.293"
         style="fill:#979494;fill-opacity:1;fill-rule:nonzero;stroke:none"
         id="path54"
         inkscape:connector-curvature="0" /><path
         d="m 3920.26,497.949 c 0,35.192 -45.43,14.672 -45.43,35.192 0,11.73 10.65,12.449 35.5,19.078 59.6,13.929 68.14,31.519 76.67,31.519 8.5,0 8.5,-5.129 8.5,-14.66 l 0,-41.797 1.44,0 c 19.14,32.258 54.64,50.571 96.52,50.571 76.64,0 107.89,-65.231 107.89,-136.313 l 0,-118.711 c 0,-46.199 43.98,-35.199 43.98,-51.34 0,-8.777 -4.23,-10.968 -16.31,-10.968 -22.71,0 -45.41,2.91 -60.32,2.91 -17.75,0 -43.3,-2.91 -51.82,-2.91 -13.5,0 -23.42,-3.692 -23.42,9.531 0,12.437 32.64,19.078 32.64,46.14 l 0,124.629 c 0,47.641 -16.32,89.391 -69.55,89.391 -46.86,0 -61.05,-27.852 -61.05,-70.332 l 0,-135.59 c 0,-41.801 57.52,-35.16 57.52,-52.801 0,-6.566 -5,-10.968 -22.04,-10.968 -7.8,0 -33.34,2.91 -69.55,2.91 -24.86,0 -49.71,-2.91 -70.98,-2.91 -7.08,0 -7.82,4.402 -7.82,8.05 0,21.282 37.63,1.481 37.63,62.282 l 0,167.097"
         style="fill:#979494;fill-opacity:1;fill-rule:nonzero;stroke:none"
         id="path56"
         inkscape:connector-curvature="0" /><path
         d="m 4457.61,498.711 c 0,-5.883 -2.11,-7.34 -9.21,-7.34 -14.19,0 -21.3,63.77 -88.02,63.77 -23.42,0 -44.74,-10.993 -44.74,-37.371 0,-34.481 28.4,-38.129 85.9,-61.579 46.14,-19.05 75.24,-41.793 75.24,-97.453 0,-78.437 -66.71,-103.34 -121.36,-103.34 -24.14,0 -70.28,5.122 -88.72,16.09 -4.98,2.942 -7.13,4.41 -7.13,14.672 l 2.15,75.481 c 0.72,10.289 5.67,12.468 12.79,12.468 12.03,0 19.85,-98.929 96.51,-98.929 29.84,0 51.12,20.511 51.12,51.3 0,29.309 -39.75,46.168 -102.93,74.782 -39.03,17.539 -55.38,36.617 -55.38,81.308 0,69.649 56.07,95.282 115.71,95.282 5.68,0 72.41,-5.864 73.13,-18.313 l 4.94,-60.828"
         style="fill:#979494;fill-opacity:1;fill-rule:nonzero;stroke:none"
         id="path58"
         inkscape:connector-curvature="0" /></g></g></svg>