<?xml version="1.0" encoding="UTF-8" standalone="no"?>
<svg
   xmlns:dc="http://purl.org/dc/elements/1.1/"
   xmlns:cc="http://creativecommons.org/ns#"
   xmlns:rdf="http://www.w3.org/1999/02/22-rdf-syntax-ns#"
   xmlns:svg="http://www.w3.org/2000/svg"
   xmlns="http://www.w3.org/2000/svg"
   xmlns:sodipodi="http://sodipodi.sourceforge.net/DTD/sodipodi-0.dtd"
   xmlns:inkscape="http://www.inkscape.org/namespaces/inkscape"
   width="879.79999pt"
   height="386.32999pt"
   viewBox="0 0 879.79999 386.32999"
   version="1.1"
   id="svg2"
   inkscape:version="0.91 r13725"
   sodipodi:docname="USFTW.006.svg">
  <metadata
     id="metadata138">
    <rdf:RDF>
      <cc:Work
         rdf:about="">
        <dc:format>image/svg+xml</dc:format>
        <dc:type
           rdf:resource="http://purl.org/dc/dcmitype/StillImage" />
        <dc:title></dc:title>
      </cc:Work>
    </rdf:RDF>
  </metadata>
  <defs
     id="defs136" />
  <sodipodi:namedview
     pagecolor="#ffffff"
     bordercolor="#666666"
     borderopacity="1"
     objecttolerance="10"
     gridtolerance="10"
     guidetolerance="10"
     inkscape:pageopacity="0"
     inkscape:pageshadow="2"
     inkscape:window-width="3840"
     inkscape:window-height="2079"
     id="namedview134"
     showgrid="false"
     fit-margin-top="0"
     fit-margin-left="0"
     fit-margin-right="0"
     fit-margin-bottom="0"
     inkscape:zoom="2.7812867"
     inkscape:cx="231.12664"
     inkscape:cy="223.13255"
     inkscape:window-x="2160"
     inkscape:window-y="81"
     inkscape:window-maximized="0"
     inkscape:current-layer="svg2" />
  <path
     d="m 145.27,0 c 6.57,10.99 12.14,22.56 18.55,33.65 3.55,0.07 7.81,3.11 10.72,-0.08 9,-7.32 17.93,-14.73 27.05,-21.9 1.15,11.74 2.45,23.46 3.59,35.2 0.17,1.14 0.11,2.57 1.32,3.17 2.42,1.78 4.99,3.36 7.35,5.23 12.13,-3.26 24.08,-7.15 36.16,-10.59 -3.62,12.39 -7.32,24.76 -11.04,37.13 1.22,2.04 2.5,4.04 3.9,5.97 11.92,1.13 23.84,2.41 35.75,3.67 0.4,1.19 -0.81,1.96 -1.36,2.86 -7.24,8.83 -14.45,17.68 -21.59,26.58 0.44,2.25 0.84,4.5 1.23,6.76 10.89,6.09 22,11.8 32.87,17.93 -10.42,5.68 -20.86,11.33 -31.32,16.93 -2.3,0.85 -2.54,3.79 -2.29,5.87 7.58,9.66 15.58,19 23.12,28.71 -11.13,1.42 -22.32,2.37 -33.48,3.56 -3.96,0.01 -4.52,4.96 -6.78,7.37 3.6,12.39 7.42,24.73 10.99,37.14 -11.85,-3.41 -23.63,-7.05 -35.47,-10.49 14.36,44.48 28.88,88.9 43.26,133.37 -13.77,-6.76 -27.39,-13.84 -41.11,-20.69 -6.4,12.09 -12.37,24.42 -18.88,36.44 -12.94,-39.39 -25.64,-78.86 -38.47,-118.29 -0.91,0.74 -1.69,1.6 -2.16,2.68 -3.86,7.28 -7.8,14.51 -11.73,21.74 -4.38,-7.9 -8.59,-15.9 -12.95,-23.82 -12.82,40.13 -26,80.15 -38.96,120.23 -7,-12.82 -13.44,-25.96 -20.14,-38.96 -12.97,6.32 -25.75,13.06 -38.69,19.43 13.14,-40.56 26.33,-81.1 39.49,-121.65 1.1,-3.52 2.47,-6.97 3.15,-10.6 -12.27,3.1 -24.24,7.29 -36.48,10.53 3.56,-12.35 7.4,-24.62 10.92,-36.98 -1.27,-1.92 -2.51,-3.85 -3.72,-5.79 -12.53,-1.58 -25.18,-2.33 -37.67,-4.19 7.88,-9.67 15.73,-19.37 23.61,-29.04 1.32,-1.36 0.29,-3.29 0.25,-4.9 C 22.9,157.81 11.16,152.06 0,145.35 c 11.41,-5.99 22.76,-12.11 34.01,-18.39 0.36,-2.39 0.79,-4.77 1.24,-7.15 -7.75,-9.92 -16.09,-19.4 -23.63,-29.47 12.35,-1.25 24.68,-2.6 37.03,-3.79 1.12,-1.59 2.19,-3.22 3.21,-4.88 -3.73,-12.31 -7.35,-24.65 -11.03,-36.96 12.01,3.4 23.91,7.16 35.92,10.57 2.84,-2.03 5.71,-4.02 8.61,-5.97 1.4,-12.53 2.62,-25.09 3.94,-37.63 9.9,7.71 19.43,15.91 29.34,23.61 2.9,-0.61 5.82,-1.18 8.71,-1.87 5.87,-11.2 12.1,-22.2 17.92,-33.42 z"
     id="path6"
     inkscape:connector-curvature="0"
     style="fill:#54a8f9" />
  <path
     d="m 91.14,58.11 c 17.83,-10.71 38.98,-15.68 59.71,-14.19 24.35,1.62 47.93,12.36 65.13,29.68 16.65,16.46 27.29,38.82 29.57,62.12 2.37,22.95 -3.26,46.66 -15.86,66 -11.43,17.69 -28.41,31.75 -47.99,39.53 -0.86,-1.48 -1.8,-2.9 -2.74,-4.32 22.4,-7.34 41.6,-23.75 52.28,-44.75 7.9,-15.82 12.09,-33.66 11.17,-51.36 -1.03,-21.12 -9.09,-41.84 -22.72,-58.01 -14.34,-17.28 -34.92,-29.2 -57,-33.17 -24.47,-4.37 -50.42,0.66 -71.62,13.59 -15.05,9.14 -27.86,22.11 -36.44,37.52 -8.24,17.29 -11.49,37.03 -8.89,56.03 3.14,25.23 16.32,49.05 36.07,65.08 8.86,7.1 18.63,13.21 29.34,17.12 -0.73,1.19 -1.45,2.39 -2.16,3.6 C 84.12,233.71 63.04,214.81 51.53,191.05 40.13,167.88 38.06,140.35 45.77,115.72 53.09,91.78 69.65,70.89 91.14,58.11 Z"
     id="path8"
     inkscape:connector-curvature="0"
     style="fill:#ffffff" />
  <path
     d="m 91.07,63.23 c 21.2,-12.93 47.15,-17.96 71.62,-13.59 22.08,3.97 42.66,15.89 57,33.17 13.63,16.17 21.69,36.89 22.72,58.01 0.92,17.7 -3.27,35.54 -11.17,51.36 -10.68,21 -29.88,37.41 -52.28,44.75 0.94,1.42 1.88,2.84 2.74,4.32 3.48,6.93 5.33,14.51 8.25,21.67 2.23,-0.75 4.39,-1.78 6.73,-2.17 9.55,5.57 16.53,15.15 19.49,25.75 1.42,4.68 2.16,9.75 5.05,13.84 3.45,4.57 8.61,7.44 12.17,11.91 4.81,5.59 7.24,13.32 5.81,20.63 -0.03,-2.96 -0.05,-5.92 -0.09,-8.88 -1.36,0.32 -2.7,0.67 -4.04,1.04 -0.71,-3.15 -1.85,-6.25 -3.86,-8.8 -3.56,-5.02 -9.19,-8.02 -12.95,-12.83 -3.59,-4.6 -4.55,-10.48 -6.17,-15.92 -2.47,-8.78 -8.01,-16.74 -15.59,-21.86 -2.99,-0.04 -5.7,1.58 -8.51,2.42 -2.33,0.95 -4.99,1.34 -7.02,2.87 -2.08,6.18 -1.33,13.02 0.22,19.26 1.79,7.58 6.94,13.92 8.31,21.63 1.37,7.44 -2.5,14.64 -1.61,22.09 0.27,2.61 1.53,4.94 2.66,7.26 -1.27,0.67 -2.47,1.45 -3.66,2.24 -4.68,-7.42 -3.23,-16.41 -1.61,-24.51 1.62,-7.53 -2.84,-14.25 -5.77,-20.8 -4.06,-9.15 -4.89,-19.64 -2.6,-29.36 0.07,-1.67 2.02,-1.73 3.12,-2.39 -0.94,-4.26 -2.93,-8.17 -4.59,-12.18 -1.42,-3.1 -2.59,-6.46 -5.06,-8.92 -5.07,-4.16 -11.89,-2.54 -17.84,-2.12 -10.57,1.19 -21.29,0.64 -31.71,-1.44 -0.72,1.28 -1.45,2.57 -2.16,3.87 -2.96,5.75 -5.99,11.55 -7.9,17.75 1.34,0.51 2.68,1.03 4.02,1.55 3.22,10.79 2.05,22.68 -3.07,32.7 -2.89,5.67 -6.56,11.63 -5.38,18.29 1.2,8.17 1.93,17.08 -2.53,24.46 -1.26,-0.61 -2.51,-1.21 -3.77,-1.8 4.54,-7.48 2.78,-16.49 1.84,-24.67 -0.36,-9.81 7.16,-17.3 9.26,-26.5 1.71,-6.28 1.42,-12.85 0.33,-19.21 -5.08,-2.27 -10.21,-4.45 -15.4,-6.48 -5.24,4.29 -10.01,9.33 -12.95,15.52 -3.51,6.65 -3.91,14.57 -8.09,20.92 -4.07,6.22 -11.4,9.19 -15.82,15.11 -1.61,2.14 -2.35,4.76 -3.19,7.28 -0.89,-0.3 -2.67,-0.9 -3.56,-1.2 -0.04,2.91 -0.09,5.83 -0.21,8.74 -1.45,-6.33 0.21,-13.18 4.28,-18.22 4.1,-5.33 10.66,-8.07 14.65,-13.5 3.46,-4.96 4.14,-11.14 6.31,-16.66 3.41,-9.3 10.03,-17.26 18.29,-22.67 1.67,0.66 3.34,1.33 5.01,2.01 2.54,-5.56 4.96,-11.19 8.2,-16.39 0.71,-1.21 1.43,-2.41 2.16,-3.6 -10.71,-3.91 -20.48,-10.02 -29.34,-17.12 -19.75,-16.03 -32.93,-39.85 -36.07,-65.08 -2.6,-19 0.65,-38.74 8.89,-56.03 8.58,-15.41 21.39,-28.38 36.44,-37.52 z"
     id="path10"
     inkscape:connector-curvature="0"
     style="fill:#757b82" />
  <path
     d="m 126.6,52.16 c 9.25,-1.94 18.77,-1.67 28.15,-1.28 21.83,2.15 42.74,12.21 58.11,27.84 13.33,13.64 22.47,31.32 25.82,50.1 3.86,21.3 0.01,43.7 -9.86,62.89 -10.58,20.21 -29.22,36.28 -51.08,43.01 -2.18,-0.59 -3.91,-2.2 -5.82,-3.32 18.29,-5.5 34.44,-17.57 45.42,-33.14 12.2,-17.14 17.8,-38.71 16.19,-59.62 -1.44,-17.66 -7.85,-34.95 -18.84,-48.9 C 200.02,70.76 177.56,58.03 153.7,55.35 119.21,50.96 83.31,69.06 65.88,99.08 c -10.35,17.46 -14.99,38.58 -11.35,58.68 3.77,21.9 15.52,42.44 32.79,56.47 18.8,15.74 44.1,23.44 68.48,20.68 4.28,-0.18 8.44,-1.79 12.75,-1.44 4.14,1.02 8.12,3.48 10.16,7.34 4.09,7.11 5.85,15.23 8.96,22.77 -1.76,0.64 -3.52,1.25 -5.28,1.86 -1.81,-5.64 -4.24,-11.04 -6.66,-16.42 -1.7,-3.85 -4.91,-7.17 -9.03,-8.3 -5.31,-1.64 -10.78,0.25 -16.17,0.18 -15.81,1.46 -32.17,-0.54 -46.56,-7.51 C 87.36,225.08 72.65,212.61 62.7,196.83 49.72,176.66 44.62,151.65 48.5,127.98 50.75,115.69 54.53,103.29 62.16,93.21 77.25,71.86 100.88,56.83 126.6,52.16 Z"
     id="path12"
     inkscape:connector-curvature="0"
     style="fill:#a6aaaa" />
  <path
     d="m 576.99,66.95 c 3.32,-5.29 9.65,-8.06 15.76,-8.17 6.28,-0.23 13.49,1.12 17.36,6.6 -2.03,1.77 -4.02,3.58 -6.02,5.38 -4.07,-5.09 -11.84,-6.29 -17.39,-3.03 -4.38,2.7 -5.21,9.82 -0.92,13 6.71,4.86 16.48,4.33 22.09,10.95 5.8,7.61 2.46,19.97 -6.12,24.05 -9.27,4.53 -22,2.89 -28.75,-5.3 2.06,-1.81 4.12,-3.62 6.19,-5.43 4.63,6.23 14.61,8.22 20.54,2.75 3.38,-2.7 3.96,-8.49 0.49,-11.33 -3.9,-3.06 -8.97,-3.81 -13.46,-5.63 -4.56,-1.64 -8.95,-4.69 -10.81,-9.33 -1.79,-4.66 -1.72,-10.23 1.04,-14.51 z"
     id="path16"
     inkscape:connector-curvature="0"
     style="fill:#a6aaaa" />
  <path
     d="m 646.27,59.46 c 9.84,-2.07 20.89,0.55 27.94,7.96 10.83,11.13 10.9,30.75 0.13,41.96 -10.9,11.6 -31.43,11.72 -42.51,0.31 -9.8,-9.91 -11.04,-26.74 -3.37,-38.25 3.99,-6.21 10.62,-10.5 17.81,-11.98 z"
     id="path18"
     inkscape:connector-curvature="0"
     style="fill:#a6aaaa" />
  <path
     d="m 311.04,60.14 c 2.53,0 5.07,-0.01 7.61,-0.02 0.16,10.89 0.01,21.78 0.06,32.67 0.11,4.41 0.44,9.19 3.21,12.85 4.89,7.1 16.89,7.16 21.91,0.18 2.87,-3.68 3.23,-8.53 3.35,-13.02 0,-10.88 -0.02,-21.76 0,-32.64 2.52,-0.02 5.04,-0.03 7.57,-0.05 0.21,12.22 0.13,24.44 0.04,36.65 -0.04,7.45 -4.02,14.88 -10.59,18.54 -8.35,4.71 -19.86,3.65 -26.74,-3.19 -4.33,-4.21 -6.47,-10.29 -6.41,-16.27 -0.08,-11.9 -0.05,-23.8 -0.01,-35.7 z"
     id="path20"
     inkscape:connector-curvature="0"
     style="fill:#a6aaaa" />
  <path
     d="m 373.17,60.17 c 2.51,-0.02 5.03,-0.05 7.56,-0.07 0.32,16.49 0.01,33 0.15,49.49 8.66,0 17.31,-0.03 25.97,0.01 0.01,2.39 0.01,4.79 0,7.18 -11.24,-0.03 -22.49,0.11 -33.73,-0.07 0.11,-18.85 0.02,-37.69 0.05,-56.54 z"
     id="path22"
     inkscape:connector-curvature="0"
     style="fill:#a6aaaa" />
  <path
     d="m 405.86,60.09 c 14.62,0.09 29.25,0.08 43.88,0.01 0.21,2.43 0.22,4.87 -0.01,7.31 -6.02,-0.08 -12.03,-0.07 -18.05,-0.02 -0.03,16.46 -0.01,32.92 -0.01,49.39 -2.58,0.02 -5.15,0.01 -7.72,-0.02 0.03,-16.46 0.02,-32.91 0,-49.36 -6.03,-0.07 -12.05,-0.07 -18.08,0.01 -0.16,-2.44 -0.17,-4.88 -0.01,-7.32 z"
     id="path24"
     inkscape:connector-curvature="0"
     style="fill:#a6aaaa" />
  <path
     d="m 462.9,60.12 c 6.98,0.09 13.97,-0.08 20.95,0.1 4.63,0.1 9.49,1.34 12.88,4.66 3.5,3.27 4.28,8.41 4.06,12.98 -0.72,6.89 -6.97,12.19 -13.61,13.12 5.07,8.72 10.69,17.12 15.85,25.8 -3.14,0.01 -6.27,0 -9.4,0.07 -5.09,-8.24 -9.6,-16.83 -14.68,-25.08 -2.8,0.06 -5.6,0.07 -8.39,0.08 -0.03,8.3 -0.02,16.6 0,24.91 -2.58,0.03 -5.16,0.04 -7.73,0.01 C 462.9,97.89 462.77,79 462.9,60.12 Z"
     id="path26"
     inkscape:connector-curvature="0"
     style="fill:#a6aaaa" />
  <path
     d="m 534.26,60.18 c 2.35,-0.04 4.7,-0.04 7.06,0.01 8.02,18.87 16.08,37.72 24.19,56.55 -2.97,0.05 -5.95,0.07 -8.91,0.08 -2.06,-4.63 -3.77,-9.41 -5.81,-14.04 -8.97,0.04 -17.93,-0.03 -26.89,0.04 -1.82,4.59 -3.76,9.13 -5.4,13.79 -3.04,0.25 -6.09,0.22 -9.13,0.15 8.24,-18.88 16.63,-37.71 24.89,-56.58 z"
     id="path28"
     inkscape:connector-curvature="0"
     style="fill:#a6aaaa" />
  <path
     d="m 697.24,60.17 c 2.48,-0.01 4.98,-0.04 7.47,-0.11 0.58,11.56 -0.03,23.17 0.3,34.75 0.19,3.93 0.89,8.09 3.46,11.23 5.02,6.69 16.57,6.62 21.52,-0.13 2.49,-3.12 3.14,-7.21 3.35,-11.09 0.29,-11.57 -0.22,-23.16 0.24,-34.73 2.53,-0.01 5.07,0.01 7.61,0.27 -0.2,9.46 -0.05,18.92 -0.09,28.38 -0.04,5.79 0.44,11.9 -2.16,17.27 -2.91,6.41 -9.25,11.03 -16.22,11.9 -8,1.29 -16.8,-1.83 -21.42,-8.65 -3.03,-4.15 -4.1,-9.37 -4.04,-14.43 -0.04,-11.55 0,-23.11 -0.02,-34.66 z"
     id="path30"
     inkscape:connector-curvature="0"
     style="fill:#a6aaaa" />
  <path
     d="m 759.34,60.33 c 3.37,-0.32 6.76,-0.19 10.15,-0.17 10.49,15.43 20.66,31.07 31.26,46.43 0.26,-15.49 -0.05,-30.98 0.15,-46.47 2.54,0.01 5.08,0.02 7.63,0.03 0.06,18.87 -0.02,37.73 0.04,56.6 -3.27,0.05 -6.53,0.06 -9.78,0.04 -8.52,-12.5 -16.96,-25.05 -25.45,-37.57 -2.04,-2.94 -3.85,-6.05 -6.24,-8.72 -0.02,15.43 0.04,30.86 -0.02,46.29 -2.55,0 -5.1,0 -7.65,0 -0.1,-18.82 0.08,-37.64 -0.09,-56.46 z"
     id="path32"
     inkscape:connector-curvature="0"
     style="fill:#a6aaaa" />
  <path
     d="m 826.81,60.08 c 11.49,0.76 23.73,-1.85 34.55,3.18 14.08,6.54 18.61,26.09 11.07,39.09 -4.7,8.43 -14.1,13.52 -23.58,14.18 -7.4,0.51 -14.82,0.17 -22.22,0.25 0.09,-18.9 -0.27,-37.81 0.18,-56.7 z"
     id="path34"
     inkscape:connector-curvature="0"
     style="fill:#a6aaaa" />
  <path
     d="m 123,63.15 c 18.04,-4.42 37.32,-2.14 54.35,5.01 17.52,7.34 32.38,20.54 42.31,36.67 17.27,32.25 10.89,75.02 -14.67,101.12 -17.68,18.94 -44.44,29.68 -70.34,26.36 -4.66,-0.69 -9.3,-1.62 -13.81,-2.99 4.83,-4.27 11.21,-1.48 16.89,-1.59 17.12,-0.05 34.43,-4.57 48.79,-14.06 18.44,-11.95 31.82,-31.47 36.1,-53.06 3.21,-15.07 1.5,-31.01 -4.29,-45.25 -7.47,-18.63 -22.15,-34.27 -40.28,-42.87 -17.09,-8.25 -37.14,-10.13 -55.42,-5.02 -14.68,4.06 -28.18,12.34 -38.36,23.69 -15.84,17.15 -23.58,41.49 -20.5,64.64 3.54,30.04 23.49,57.49 50.95,70.17 1.56,0.67 3.14,1.41 4.25,2.76 C 99.06,222.48 81.46,209.01 70.32,191.36 63.12,180.12 59.03,167.03 57.84,153.78 57.76,148.8 57.73,143.81 57.85,138.82 59.32,123.4 64.84,108.34 74,95.81 85.69,79.5 103.46,67.7 123,63.15 Z"
     id="path36"
     inkscape:connector-curvature="0"
     style="fill:#a6aaaa" />
  <path
     d="m 648.3,66.44 c 6.38,-1.32 13.41,0.14 18.36,4.49 10.07,8.62 10.1,26.21 0.17,34.94 -6.92,6.18 -18.06,6.79 -25.71,1.59 -6.74,-4.39 -10,-12.78 -9.43,-20.63 0.28,-9.47 7.11,-18.59 16.61,-20.39 z"
     id="path38"
     inkscape:connector-curvature="0"
     style="fill:#ffffff" />
  <path
     d="m 133.35,67.69 c 13.29,-2.09 27.04,0.09 39.46,5.05 18.35,7.43 33.62,22.07 41.85,40.07 6.43,13.93 8.92,29.83 6.11,44.99 -3.17,18.43 -12.98,35.66 -27.28,47.72 -17.36,14.91 -41.09,21.74 -63.75,19.24 -3.07,-0.56 -6,0.35 -8.89,1.23 -30.83,-11.68 -53.24,-42.41 -55.22,-75.3 -1.31,-19.5 5.06,-39.37 17.41,-54.51 12.33,-15.42 30.72,-25.9 50.31,-28.49 z"
     id="path40"
     inkscape:connector-curvature="0"
     style="fill:#ffffff" />
  <path
     d="m 470.56,66.88 c 5.64,0.19 11.5,-0.69 16.94,1.13 6.94,1.93 7.1,13.64 0.31,15.85 -5.52,1.95 -11.51,1.05 -17.24,1.21 -0.04,-6.06 -0.04,-12.12 -0.01,-18.19 z"
     id="path42"
     inkscape:connector-curvature="0"
     style="fill:#ffffff" />
  <path
     d="m 834.32,67.38 c 8.16,0.24 17.15,-1.25 24.43,3.35 11.62,7.09 12.42,26.41 1.15,34.21 -7.34,5.42 -16.88,4.61 -25.48,4.69 -0.25,-14.08 -0.07,-28.17 -0.1,-42.25 z"
     id="path44"
     inkscape:connector-curvature="0"
     style="fill:#ffffff" />
  <path
     d="m 537.25,70.27 c 4.09,8.33 7.15,17.15 10.71,25.73 -7.09,0.1 -14.19,0.06 -21.28,0.03 3.46,-8.62 7.07,-17.16 10.57,-25.76 z"
     id="path46"
     inkscape:connector-curvature="0"
     style="fill:#ffffff" />
  <path
     d="m 133.18,80.33 c 12.28,-1.9 25.08,-0.31 36.48,4.62 15.08,6.45 27.55,18.71 34.26,33.67 6.23,13.74 7.56,29.62 3.7,44.2 -3.91,15.15 -13.45,28.72 -26.3,37.64 -13.96,9.83 -31.82,13.82 -48.65,11.03 -25.14,-3.79 -46.91,-23.42 -53.35,-48 -4.8,-17.34 -2.15,-36.59 7.25,-51.94 9.96,-16.58 27.46,-28.39 46.61,-31.22 z"
     id="path48"
     inkscape:connector-curvature="0"
     style="fill:#54a8f9" />
  <path
     d="m 521.72,138.63 c 14.01,-3.2 29.95,-0.72 40.86,9.13 -4.35,4.68 -8.85,9.21 -13.1,13.96 -4.91,-6.14 -13.13,-8.75 -20.79,-7.77 -4.71,0.31 -9.69,2.3 -12.2,6.51 -2.7,4.51 -2.35,11.39 2.33,14.48 9.81,6.99 22.69,7.32 32.57,14.17 5.3,3.71 9.91,9.09 11.08,15.61 1.72,9.45 0.04,19.98 -6.34,27.43 -6.45,7.75 -16.62,11.33 -26.43,12.02 -13.45,0.77 -28.19,-2.73 -37.18,-13.44 4.37,-4.67 9,-9.13 13.8,-13.37 6.74,10.37 22.35,13.99 32.57,6.72 6.07,-4.04 7.27,-14.18 1.38,-18.86 -9.67,-7.7 -23.01,-7.81 -33.05,-14.85 -5.3,-3.69 -9.83,-9.13 -10.85,-15.67 -1.33,-7.55 -0.64,-15.95 3.98,-22.31 4.8,-7.35 12.95,-11.89 21.37,-13.76 z"
     id="path52"
     inkscape:connector-curvature="0"
     style="fill:#54a8f9" />
  <path
     d="m 328.59,139.83 c 4.21,-0.02 8.42,-0.01 12.64,-0.02 -1.32,10.05 -2.91,20.06 -4.24,30.1 4.92,0 9.84,0.01 14.76,-0.01 1.45,-10 2.91,-20.01 4.29,-30.02 4.19,-0.1 8.39,-0.08 12.6,-0.03 -1.45,10.02 -2.91,20.03 -4.3,30.05 4.33,0.04 8.65,-0.06 12.97,0.1 -0.12,4.03 0.13,8.07 -0.2,12.1 -4.8,-0.13 -9.6,0 -14.39,-0.11 -1.11,5.82 -1.68,11.72 -2.59,17.57 4.31,0.05 8.63,0.02 12.94,0.04 0.03,4.04 0.03,8.07 0,12.11 -4.79,0.01 -9.58,-0.01 -14.36,0.02 -1.48,9.98 -3.05,19.95 -4.39,29.96 -4.21,0.18 -8.42,0.08 -12.63,0.1 1.41,-10.03 2.89,-20.04 4.28,-30.06 -4.98,-0.01 -9.97,-0.07 -14.95,0.04 -1.41,10.01 -2.85,20.01 -4.29,30.02 -4.18,0 -8.36,0 -12.53,0 1.36,-10.03 2.92,-20.04 4.24,-30.08 -4.3,0 -8.59,0.01 -12.88,0 -0.03,-4.04 -0.03,-8.07 -0.01,-12.11 4.86,-0.05 9.72,0.06 14.58,-0.08 0.79,-5.84 1.71,-11.66 2.53,-17.49 -4.31,0 -8.62,0.02 -12.93,0 -0.02,-4.04 -0.02,-8.08 0.01,-12.11 4.83,-0.02 9.67,0 14.51,-0.02 1.48,-10.02 2.85,-20.05 4.34,-30.07 z"
     id="path54"
     inkscape:connector-curvature="0"
     style="fill:#54a8f9" />
  <path
     d="m 394.94,139.85 c 6.05,-0.06 12.11,-0.03 18.16,-0.03 0.04,20.99 0,41.99 0.03,62.98 -0.05,6.75 1.98,13.87 7.07,18.56 6.77,6.3 17.34,7.05 25.7,3.83 8.46,-3.38 13.04,-12.65 12.96,-21.43 0.07,-21.31 -0.01,-42.62 0.03,-63.93 6.05,-0.02 12.1,-0.01 18.15,0 0.03,16.99 0,33.98 0.02,50.97 -0.06,6.71 0.25,13.44 -0.57,20.12 -1.37,10.3 -6.95,20.11 -15.57,26.03 -10.13,7.03 -23.27,8.73 -35.18,6.27 -10.69,-2.25 -20.68,-8.88 -25.82,-18.67 -3.93,-6.89 -4.92,-14.95 -4.98,-22.75 0.01,-20.65 0.02,-41.3 0,-61.95 z"
     id="path56"
     inkscape:connector-curvature="0"
     style="fill:#54a8f9" />
  <path
     d="m 616.73,139.76 c 6.47,0.13 12.95,0.02 19.43,0.06 0.04,21.89 0.01,43.77 0.02,65.66 4.94,0.04 9.88,-0.01 14.82,0.03 0.01,5.18 0.01,10.36 0,15.54 -4.95,0.03 -9.89,-0.01 -14.83,0.03 0,6.9 0.02,13.8 0,20.71 -5.77,-0.01 -11.54,0.01 -17.31,-0.01 -0.02,-6.91 0.07,-13.82 -0.05,-20.72 -14.42,0 -28.84,0.01 -43.26,-0.01 0.03,-5.43 -0.11,-10.86 0.03,-16.28 -0.01,-1.39 1.04,-2.44 1.66,-3.58 13.24,-20.43 26.16,-41.06 39.49,-61.43 z"
     id="path58"
     inkscape:connector-curvature="0"
     style="fill:#54a8f9" />
  <path
     d="m 656.88,139.84 c 26.9,-0.04 53.79,-0.03 80.68,0 -0.01,5.48 0.03,10.95 -0.03,16.43 -10.41,-0.01 -20.81,-0.02 -31.21,0.01 0.01,28.48 -0.07,56.96 0.04,85.43 -6.09,0.14 -12.18,0.11 -18.26,0.02 0.14,-28.44 -0.09,-56.87 0.11,-85.3 -10.43,-0.4 -20.89,-0.03 -31.33,-0.19 0.01,-5.47 0,-10.93 0,-16.4 z"
     id="path60"
     inkscape:connector-curvature="0"
     style="fill:#54a8f9" />
  <path
     d="m 738.56,139.83 c 6.64,0.01 13.28,-0.07 19.93,0.05 5.79,22.56 11.75,45.08 17.58,67.63 0.55,1.81 0.6,3.9 1.92,5.38 7.58,-24.36 15.15,-48.72 22.77,-73.06 5.96,-0.01 11.92,-0.03 17.89,0.01 7.49,24.42 14.84,48.87 22.45,73.25 3.06,-8.54 4.87,-17.52 7.46,-26.23 4.19,-15.64 8.63,-31.22 12.68,-46.91 6.18,-0.29 12.37,-0.07 18.56,-0.12 -9.75,33.96 -19.86,67.81 -29.47,101.81 -5.82,0.32 -11.64,0.07 -17.46,0.15 -7.88,-25.76 -15.66,-51.56 -23.55,-77.32 -0.61,1.06 -1.17,2.16 -1.48,3.35 -7.38,24.65 -15.06,49.21 -22.37,73.89 -5.6,0.18 -11.2,0.02 -16.79,0.1 -10.11,-33.98 -20.1,-67.98 -30.12,-101.98 z"
     id="path62"
     inkscape:connector-curvature="0"
     style="fill:#54a8f9" />
  <path
     d="m 593.2,205.24 c 8.7,-13.47 16.68,-27.42 25.56,-40.78 0.17,13.69 0.21,27.4 -0.03,41.09 -8.51,-0.29 -17.05,0.32 -25.53,-0.31 z"
     id="path64"
     inkscape:connector-curvature="0"
     style="fill:#ffffff" />
  <path
     d="m 335.21,182.06 c 4.86,-0.07 9.74,0.05 14.61,-0.1 -0.35,5.92 -1.52,11.75 -2.24,17.63 -4.94,0 -9.86,-0.01 -14.79,0.02 0.78,-5.86 1.63,-11.7 2.42,-17.55 z"
     id="path66"
     inkscape:connector-curvature="0"
     style="fill:#ffffff" />
  <path
     d="m 223.07,183.08 c 0.51,0.49 0.51,0.49 0,0 z"
     id="path68"
     inkscape:connector-curvature="0"
     style="fill:#a6aaaa" />
  <path
     d="m 222.09,185.04 c 0.46,0.54 0.46,0.54 0,0 z"
     id="path70"
     inkscape:connector-curvature="0"
     style="fill:#a6aaaa" />
  <path
     d="m 221.08,187.07 c 0.51,0.49 0.51,0.49 0,0 z"
     id="path72"
     inkscape:connector-curvature="0"
     style="fill:#a6aaaa" />
  <path
     d="m 216.98,194.1 c 0.55,0.44 0.55,0.44 0,0 z"
     id="path74"
     inkscape:connector-curvature="0"
     style="fill:#a6aaaa" />
  <path
     d="m 214.98,197.11 c 0.55,0.45 0.55,0.45 0,0 z"
     id="path76"
     inkscape:connector-curvature="0"
     style="fill:#a6aaaa" />
  <path
     d="m 113.17,240.24 c 1.76,-0.46 3.52,0.58 5.25,0.89 -3.8,6.69 -7.11,13.65 -9.9,20.82 -1.81,-0.56 -3.55,-1.29 -5.24,-2.13 2.4,-6.93 6.01,-13.39 9.89,-19.58 z"
     id="path78"
     inkscape:connector-curvature="0"
     style="fill:#a6aaaa" />
  <path
     d="m 120.83,241.68 c 10.42,2.08 21.14,2.63 31.71,1.44 5.95,-0.42 12.77,-2.04 17.84,2.12 -16.92,4.1 -34.76,4.56 -51.71,0.31 0.71,-1.3 1.44,-2.59 2.16,-3.87 z"
     id="path80"
     inkscape:connector-curvature="0"
     style="fill:#ffffff" />
  <path
     d="m 96.07,261.64 c 5.19,2.03 10.32,4.21 15.4,6.48 1.09,6.36 1.38,12.93 -0.33,19.21 -2.1,9.2 -9.62,16.69 -9.26,26.5 0.94,8.18 2.7,17.19 -1.84,24.67 -14.28,-6.92 -28.99,-12.93 -44.02,-18.03 0.84,-2.52 1.58,-5.14 3.19,-7.28 4.42,-5.92 11.75,-8.89 15.82,-15.11 4.18,-6.35 4.58,-14.27 8.09,-20.92 2.94,-6.19 7.71,-11.23 12.95,-15.52 z"
     id="path82"
     inkscape:connector-curvature="0"
     style="fill:#cccece" />
  <path
     d="m 375.27,263.5 c 9.86,-2.11 20.95,0.41 28.06,7.8 11.01,11.15 11.06,31.01 0.11,42.22 -10.96,11.5 -31.44,11.52 -42.45,0.09 -10.03,-10.24 -10.99,-27.73 -2.56,-39.22 3.99,-5.59 10.17,-9.44 16.84,-10.89 z"
     id="path84"
     inkscape:connector-curvature="0"
     style="fill:#a6aaaa" />
  <path
     d="m 307.08,264.14 c 11.85,0 23.7,0.03 35.55,-0.02 0.04,2.42 0.03,4.84 -0.02,7.26 -9.28,-0.04 -18.56,-0.04 -27.85,0 -0.02,5.9 -0.02,11.8 0,17.7 8.65,0.04 17.29,0.04 25.94,-0.01 0.08,2.43 0.06,4.87 -0.05,7.3 -8.63,-0.1 -17.26,-0.06 -25.89,-0.02 -0.04,8.14 0,16.28 0,24.43 -2.58,0.02 -5.16,0.01 -7.74,-0.03 0.07,-18.87 -0.03,-37.74 0.06,-56.61 z"
     id="path86"
     inkscape:connector-curvature="0"
     style="fill:#a6aaaa" />
  <path
     d="m 425.98,264.12 c 7.28,0.12 14.58,-0.14 21.86,0.15 5.63,0.18 11.71,2.63 14.4,7.88 2.27,5.09 2.51,11.51 -0.85,16.2 -2.73,3.51 -6.74,6.04 -11.18,6.67 5.19,8.64 10.71,17.09 15.88,25.75 -3.12,-0.01 -6.26,0.17 -9.37,-0.08 -5.07,-8.02 -9.67,-16.4 -14.33,-24.69 -2.92,-0.21 -5.84,-0.22 -8.75,-0.15 -0.04,8.31 -0.02,16.61 -0.01,24.92 -2.57,0.02 -5.15,0.02 -7.72,0 0.07,-18.89 -0.06,-37.77 0.07,-56.65 z"
     id="path88"
     inkscape:connector-curvature="0"
     style="fill:#a6aaaa" />
  <path
     d="m 497.06,264.15 c 14.74,0.11 29.5,-0.26 44.24,0.18 -0.07,2.28 -0.07,4.56 -0.01,6.84 -6.11,0.47 -12.23,-0.04 -18.34,0.28 0.06,16.44 0.03,32.89 0.02,49.33 -2.56,0.01 -5.11,0.01 -7.65,0.01 -0.15,-16.49 0.17,-32.98 -0.16,-49.47 -6.03,0.07 -12.06,0.02 -18.08,0.04 -0.04,-2.41 -0.04,-4.81 -0.02,-7.21 z"
     id="path90"
     inkscape:connector-curvature="0"
     style="fill:#a6aaaa" />
  <path
     d="m 552.73,264.1 c 2.51,0.03 5.02,0.05 7.54,0.08 0.03,7.84 -0.11,15.68 0.07,23.52 9.76,-0.09 19.51,0 29.26,-0.04 0.16,-7.87 -0.28,-15.75 0.23,-23.6 2.49,0.07 4.98,0.1 7.48,0.11 0.03,18.83 -0.1,37.66 0.06,56.49 -2.58,0.13 -5.17,0.17 -7.74,0.12 -0.04,-8.63 -0.02,-17.25 -0.01,-25.88 -9.8,-0.01 -19.61,-0.14 -29.41,0.07 0.1,8.6 0.05,17.21 0.03,25.82 -2.56,0 -5.11,0 -7.66,-0.01 0.08,-18.89 -0.22,-37.8 0.15,-56.68 z"
     id="path92"
     inkscape:connector-curvature="0"
     style="fill:#a6aaaa" />
  <path
     d="m 615.06,264.16 c 12.18,-0.04 24.35,0.02 36.53,-0.04 0.04,2.42 0.04,4.84 0,7.26 -9.61,-0.03 -19.22,-0.05 -28.83,0 -0.02,5.61 -0.03,11.21 0.01,16.82 8.93,0.04 17.87,0.03 26.82,0 0.04,2.41 0.04,4.83 0.01,7.25 -8.94,-0.01 -17.89,-0.04 -26.84,0 -0.01,6.05 -0.07,12.1 0.05,18.15 10.08,-0.02 20.16,-0.04 30.24,0.01 0.01,2.39 0.01,4.78 0,7.17 -12.68,-0.01 -25.35,0.06 -38.02,-0.03 0.05,-18.87 -0.02,-37.73 0.03,-56.59 z"
     id="path94"
     inkscape:connector-curvature="0"
     style="fill:#a6aaaa" />
  <path
     d="m 719.34,264.18 c 2.95,-0.06 5.9,-0.06 8.86,0 4.42,14.94 8.77,29.89 13.25,44.81 1.37,-2.43 1.73,-5.25 2.53,-7.89 3.43,-12.31 6.74,-24.66 10.22,-36.96 2.56,0 5.12,-0.01 7.69,-0.03 -4.85,19.02 -10.86,37.77 -16.2,56.68 -2.7,0.01 -5.39,0 -8.08,-0.01 -4.66,-15.39 -9.06,-30.85 -13.83,-46.19 -4.8,15.35 -9.07,30.87 -13.83,46.24 -2.69,-0.03 -5.37,-0.05 -8.05,-0.07 -5.46,-18.86 -11.04,-37.69 -16.49,-56.56 2.72,-0.11 5.47,-0.17 8.19,0.18 2.9,11.76 6.38,23.38 9.52,35.08 0.99,3.17 1.42,6.56 2.97,9.55 4.49,-14.92 8.85,-29.88 13.25,-44.83 z"
     id="path96"
     inkscape:connector-curvature="0"
     style="fill:#a6aaaa" />
  <path
     d="m 772.86,264.1 c 2.51,0.02 5.03,0.04 7.56,0.06 0.04,18.85 -0.06,37.71 0.05,56.56 -2.58,0.07 -5.16,0.09 -7.72,0.07 0.05,-18.9 -0.18,-37.8 0.11,-56.69 z"
     id="path98"
     inkscape:connector-curvature="0"
     style="fill:#a6aaaa" />
  <path
     d="m 798.18,264.16 c 3.37,-0.04 6.76,-0.04 10.15,0.03 10.42,15.46 20.57,31.13 31.25,46.41 0.17,-15.5 -0.18,-31 0.18,-46.5 2.51,0.03 5.02,0.05 7.55,0.07 0.06,18.82 -0.14,37.63 0.1,56.45 -3.25,0.24 -6.51,0.17 -9.76,0.21 -10.76,-15.38 -20.92,-31.18 -31.74,-46.52 -0.12,15.49 0,30.98 -0.06,46.47 -2.58,0.03 -5.16,0.01 -7.72,-0.07 0.1,-18.85 0,-37.7 0.05,-56.55 z"
     id="path100"
     inkscape:connector-curvature="0"
     style="fill:#a6aaaa" />
  <path
     d="m 864.95,264.12 c 2.52,0.01 5.06,0.02 7.6,0.01 0.07,13.45 0.04,26.9 0.02,40.35 -2.56,0 -5.1,0 -7.64,0.01 -0.05,-13.46 -0.09,-26.91 0.02,-40.37 z"
     id="path102"
     inkscape:connector-curvature="0"
     style="fill:#a6aaaa" />
  <path
     d="m 187.99,268.05 c 2.81,-0.84 5.52,-2.46 8.51,-2.42 7.58,5.12 13.12,13.08 15.59,21.86 1.62,5.44 2.58,11.32 6.17,15.92 3.76,4.81 9.39,7.81 12.95,12.83 2.01,2.55 3.15,5.65 3.86,8.8 -15.18,4.37 -29.96,10.01 -44.52,16.12 -1.13,-2.32 -2.39,-4.65 -2.66,-7.26 -0.89,-7.45 2.98,-14.65 1.61,-22.09 -1.37,-7.71 -6.52,-14.05 -8.31,-21.63 -1.55,-6.24 -2.3,-13.08 -0.22,-19.26 2.03,-1.53 4.69,-1.92 7.02,-2.87 z"
     id="path104"
     inkscape:connector-curvature="0"
     style="fill:#cccece" />
  <path
     d="m 377.27,270.5 c 6.41,-1.41 13.51,0 18.54,4.34 10.41,8.8 10.22,27.15 -0.48,35.65 -7.36,5.95 -18.86,5.98 -26.24,0.05 -10.46,-8.23 -10.97,-25.82 -1.4,-34.93 2.65,-2.53 6.01,-4.3 9.58,-5.11 z"
     id="path106"
     inkscape:connector-curvature="0"
     style="fill:#ffffff" />
  <path
     d="m 433.65,270.88 c 5.61,0.19 11.44,-0.68 16.88,1.11 7.02,1.9 7.17,13.78 0.25,15.91 -5.5,1.89 -11.44,1.02 -17.14,1.17 -0.03,-6.06 -0.04,-12.12 0.01,-18.19 z"
     id="path108"
     inkscape:connector-curvature="0"
     style="fill:#ffffff" />
  <path
     d="m 75.34,309.87 c -0.31,-3.22 3.09,-0.71 4.37,-0.06 4.66,2.87 9.95,4.33 15.19,5.69 0.02,0.62 0.07,1.87 0.09,2.49 -6.91,-1.56 -14.02,-3.7 -19.65,-8.12 z"
     id="path110"
     inkscape:connector-curvature="0"
     style="fill:#757b82" />
  <path
     d="m 867,311.11 c 3.54,-1.59 7.82,1.89 7.07,5.67 -0.44,3.86 -5.61,5.89 -8.5,3.23 -3.1,-2.3 -2.18,-7.64 1.43,-8.9 z"
     id="path112"
     inkscape:connector-curvature="0"
     style="fill:#a6aaaa" />
  <path
     d="m 207.63,315.4 c 3.25,-1.13 6.04,-3.36 9.44,-4.07 -0.07,0.57 -0.21,1.69 -0.28,2.25 -5.97,3.65 -12.7,6.32 -19.72,6.93 0.12,-0.6 0.36,-1.81 0.47,-2.41 3.42,-0.68 6.87,-1.34 10.09,-2.7 z"
     id="path114"
     inkscape:connector-curvature="0"
     style="fill:#757b82" />
  <path
     d="m 70.91,312.68 c 7.51,4.69 15.74,8.15 24.44,9.88 -0.02,0.63 -0.06,1.9 -0.09,2.53 -9.04,-1.85 -17.83,-5.16 -25.47,-10.38 0.28,-0.51 0.84,-1.52 1.12,-2.03 z"
     id="path116"
     inkscape:connector-curvature="0"
     style="fill:#757b82" />
  <path
     d="m 220.07,316.87 c 0.5,-0.12 1.51,-0.35 2.02,-0.47 -0.05,0.54 -0.13,1.61 -0.18,2.15 -6.48,4.08 -13.74,6.88 -21.22,8.52 -1.4,0.15 -5.2,1.67 -4.22,-1.36 1.14,-1.01 2.81,-0.85 4.2,-1.26 6.88,-1.27 13.31,-4.2 19.4,-7.58 z"
     id="path118"
     inkscape:connector-curvature="0"
     style="fill:#757b82" />
  <path
     d="m 64.75,317.51 c 5.28,2.89 10.43,6.08 16.11,8.15 4.84,2 10.02,2.91 15,4.48 -0.55,1.37 -1.55,2.15 -3.06,1.48 -10.07,-2.24 -19.94,-6.04 -28.42,-11.98 0.09,-0.53 0.28,-1.6 0.37,-2.13 z"
     id="path120"
     inkscape:connector-curvature="0"
     style="fill:#757b82" />
  <path
     d="m 52.161271,319.20008 3.56,1.2 c 15.03,5.1 30.038729,11.17992 44.318729,18.09992 1.26,0.59 2.51,1.19 3.77,1.8 -1.84,2.31 -3.53,4.87 -6.06,6.48 -2.05,0.13 -4,-0.7 -5.96,-1.16 -13.98,-3.8 -27.4,-9.68 -39.54,-17.61 -0.649068,-2.82102 -0.713972,-5.6544 -0.08873,-8.80992 z"
     id="path122"
     inkscape:connector-curvature="0"
     style="fill:#136fc5"
     sodipodi:nodetypes="cccccccc" />
  <path
     d="m 223.16,323.15 c 1.28,-0.81 3.93,-2.33 3.71,0.42 -6.86,4.61 -14.66,7.71 -22.61,9.86 -2.77,0.61 -5.54,1.64 -8.41,1.35 -0.14,-0.47 -0.41,-1.41 -0.54,-1.88 9.77,-1.52 19.32,-4.7 27.85,-9.75 z"
     id="path124"
     inkscape:connector-curvature="0"
     style="fill:#757b82" />
  <path
     d="m 235.07,325.04 c 1.34,-0.37 2.72494,-0.71101 4.08494,-1.03101 0.58831,2.94202 0.59033,6.09978 0.0451,8.87101 -14.34,8.19 -30.13,13.89 -46.45,16.44 -1.29,-1.15 -2.51,-2.36 -3.66,-3.63 -0.05,-0.05 -0.14,-0.15 -0.19,-0.2 -0.5,-0.52 -1.51,-1.57 -2.01,-2.09 1.19,-0.79 2.39,-1.57 3.66,-2.24 14.56,-6.11 29.34,-11.75 44.52,-16.12 z"
     id="path126"
     inkscape:connector-curvature="0"
     style="fill:#136fc5"
     sodipodi:nodetypes="cccccccccc" />
  <path
     d="m 57.2,325.55 c 13.71,4.09 26.9,9.91 39.77,16.12 -1.59,-0.01 -3.21,0.08 -4.74,-0.39 -9.35,-2.73 -18.47,-6.32 -27.11,-10.84 -2.73,-1.46 -5.6,-2.77 -7.92,-4.89 z"
     id="path128"
     inkscape:connector-curvature="0"
     style="fill:#54a8f9" />
  <path
     d="m 221.49,333.62 c 4.52,-1.41 8.94,-3.21 13.63,-3.99 -2.5,2.61 -6.13,3.56 -9.26,5.18 -10.28,4.39 -21,8.27 -32.12,9.7 9,-4.22 18.38,-7.6 27.75,-10.89 z"
     id="path130"
     inkscape:connector-curvature="0"
     style="fill:#54a8f9" />
  <path
     d="m 188.9,345.49 c 0.05,0.05 0.14,0.15 0.19,0.2 -0.05,-0.05 -0.14,-0.15 -0.19,-0.2 z"
     id="path132"
     inkscape:connector-curvature="0"
     style="fill:#757b82" />
</svg>
