<?xml version="1.0" encoding="UTF-8" standalone="no"?>
<!-- Created with Inkscape (http://www.inkscape.org/) -->

<svg
   xmlns:dc="http://purl.org/dc/elements/1.1/"
   xmlns:cc="http://creativecommons.org/ns#"
   xmlns:rdf="http://www.w3.org/1999/02/22-rdf-syntax-ns#"
   xmlns:svg="http://www.w3.org/2000/svg"
   xmlns="http://www.w3.org/2000/svg"
   xmlns:sodipodi="http://sodipodi.sourceforge.net/DTD/sodipodi-0.dtd"
   xmlns:inkscape="http://www.inkscape.org/namespaces/inkscape"
   width="462.4465mm"
   height="111.96532mm"
   viewBox="0 0 1638.59 396.72753"
   id="svg2"
   version="1.1"
   inkscape:version="0.91 r13725"
   sodipodi:docname="westjem-logo.svg">
  <defs
     id="defs4" />
  <sodipodi:namedview
     id="base"
     pagecolor="#ffffff"
     bordercolor="#666666"
     borderopacity="1.0"
     inkscape:pageopacity="0.0"
     inkscape:pageshadow="2"
     inkscape:zoom="1.4"
     inkscape:cx="549.3708"
     inkscape:cy="351.66063"
     inkscape:document-units="px"
     inkscape:current-layer="layer1"
     showgrid="false"
     inkscape:snap-bbox="true"
     fit-margin-top="0"
     fit-margin-left="0"
     fit-margin-right="0"
     fit-margin-bottom="0"
     inkscape:window-width="3840"
     inkscape:window-height="2067"
     inkscape:window-x="2160"
     inkscape:window-y="93"
     inkscape:window-maximized="0" />
  <metadata
     id="metadata7">
    <rdf:RDF>
      <cc:Work
         rdf:about="">
        <dc:format>image/svg+xml</dc:format>
        <dc:type
           rdf:resource="http://purl.org/dc/dcmitype/StillImage" />
        <dc:title />
      </cc:Work>
    </rdf:RDF>
  </metadata>
  <g
     inkscape:label="Layer 1"
     inkscape:groupmode="layer"
     id="layer1"
     transform="translate(1010.3006,-237.58573)">
    <path
       sodipodi:nodetypes="sscssssssssscccccssssscsscs"
       inkscape:connector-curvature="0"
       id="path4149"
       d="m -134.36943,633.72729 c -6.2532,-1.1261 -13.99152,-4.0946 -19.13056,-7.3387 -4.51797,-2.8521 -13.37326,-11.6998 -15.28505,-15.2721 -1.2372,-2.3117 -1.14164,-2.6923 1.11037,-4.4229 3.32949,-2.5586 4.11512,-2.438 7.52697,1.1553 1.6154,1.7013 5.18709,4.2884 7.93709,5.7492 4.45239,2.3651 6.09752,2.6561 15.02103,2.6568 9.29297,7e-4 10.50236,-0.2362 16.64612,-3.2608 12.36842,-6.089 23.086833,-20.5787 27.247593,-36.8347 3.47335,-13.5704 3.68531,-23.9817 3.33688,-163.9038 -0.3186,-127.94057 -0.47206,-138.48438 -2.10537,-144.64525 -3.63821,-13.72337 -11.210873,-20.37017 -24.589743,-21.58332 l -6.05651,-0.54919 0,-3.86111 0,-3.86111 51.499998,0 51.5,0 0,4 c 0,3.97242 -0.026,4 -3.8411,4 -5.0316,0 -12.501,2.29141 -16.5798,5.08626 -4.6825,3.2085 -7.7012,8.11629 -10.0108,16.27565 -1.975,6.97748 -2.0326,10.51321 -2.5625,157.13807 l -0.5421,150 -2.2181,8 c -5.7045,20.5746 -17.85852,36.2937 -34.279445,44.3345 -4.65638,2.2801 -11.166153,4.83 -14.466153,5.6665 -7.56062,1.9164 -23.39582,2.6886 -30.15882,1.4707 z"
       style="fill:#f6371d;fill-opacity:1" />
    <path
       style="fill:#ddddde;fill-opacity:1"
       d="m -566.46374,528.65249 c -21.58776,-2.5112 -40.28796,-12.1388 -51.7735,-26.6551 -6.25575,-7.9065 -11.99251,-19.6936 -14.01986,-28.8061 -2.52918,-11.3682 -1.61642,-32.4854 1.98552,-45.9357 8.74064,-32.63919 32.12727,-61.14729 62.06097,-75.65179 15.35824,-7.4419 23.06292,-9.1698 41,-9.19495 13.66752,-0.0192 15.72971,0.22026 23.21451,2.69516 19.70234,6.51473 36.01687,23.00493 40.7543,41.19315 1.5485,5.94512 2.05362,20.59633 0.90763,26.32623 l -0.62356,3.1178 -130.25288,0.5144 -1.18724,7.5 c -0.65298,4.125 -1.20957,13.575 -1.23686,21 -0.092,25.0388 5.33279,41.4009 17.91541,54.0357 11.06238,11.1083 22.74343,15.9428 38.50869,15.9377 20.47376,-0.01 34.73554,-6.9138 59.17853,-28.6608 l 8.59355,-7.6458 -0.71331,5.9166 c -0.66679,5.5308 -1.11582,6.3295 -6.88604,12.2475 -13.02232,13.3559 -29.21753,23.7875 -44.23383,28.4918 -13.05358,4.0894 -28.07581,5.3325 -43.19203,3.5742 z m 72.30604,-128.54636 c 2.25695,-21.07504 -5.2225,-36.85212 -20.8186,-43.91459 -7.34319,-3.32526 -20.64917,-4.4258 -30.01129,-2.48223 -10.90846,2.26459 -22.36227,9.60209 -30.82503,19.74703 -4.56083,5.46742 -12.10367,20.25605 -14.30634,28.04927 l -1.48385,5.24998 96.73301,0 z m 105.7981,128.20606 c -3.38194,-0.7643 -11.55126,-3.6773 -18.15403,-6.4732 -15.48715,-6.5578 -18.96265,-6.7065 -24.35182,-1.0413 -2.11484,2.2232 -3.84516,4.6529 -3.84516,5.3993 0,0.8889 -1.5529,1.4807 -4.5,1.7151 -2.6678,0.2122 -4.5,-0.064 -4.5,-0.678 l 10,-58.5012 c 0,-0.5375 2.025,-0.9773 4.5,-0.9773 4.15323,0 4.5,0.1959 4.5,2.5422 0,5.8345 3.40757,18.4101 6.67995,24.6523 15.5099,29.586 58.45412,32.6024 73.05744,5.1315 3.64544,-6.8575 5.50012,-16.1344 4.38138,-21.915 -2.21467,-11.4435 -10.08021,-18.6062 -33.5353,-30.5387 -27.53935,-14.0104 -35.56841,-20.0337 -40.75856,-30.5764 -2.9519,-5.9961 -3.26074,-7.4807 -3.268,-15.70891 -0.0232,-26.34869 20.41071,-50.28962 49.20953,-57.65511 12.50397,-3.19798 21.87353,-2.23896 38.45858,3.93644 3.14876,1.17244 7.8142,2.1317 10.36764,2.1317 4.08307,0 5.12474,-0.48211 8.64263,-4 3.29293,-3.29293 4.68628,-4 7.88236,-4 2.13529,0 3.88235,0.45554 3.88235,1.01231 0,1.91748 -9.13586,52.39851 -9.62658,53.19249 -0.2703,0.43736 -2.40764,0.7952 -4.74966,0.7952 l -4.2582,0 -1.11245,-9.50651 c -1.85898,-15.88593 -8.50068,-26.52583 -20.1116,-32.2185 -4.95575,-2.42973 -6.79629,-2.7665 -15.14151,-2.77047 -10.86756,-0.005 -15.69668,1.19695 -22.25248,5.53933 -9.14395,6.0567 -14.14097,17.97911 -11.73649,28.00214 2.41486,10.06627 9.85883,16.48709 33.48897,28.88589 23.56488,12.3645 33.41015,20.4337 38.79072,31.7929 3.00725,6.3487 3.20928,7.4677 3.20928,17.7752 0,8.9291 -0.45482,12.3886 -2.41582,18.3757 -9.76325,29.8081 -45.01206,51.9465 -72.73317,45.6809 z m 165.14899,0.8036 c -15.85092,-2.4126 -28.93213,-12.9741 -32.9889,-26.6348 -3.04697,-10.2602 -2.15697,-18.3188 8.9889,-81.3907 5.775,-32.67934 10.5,-59.84848 10.5,-60.37584 -11.69089,-1.51491 -20.30501,-0.95884 -33.23326,-0.95884 l 0.60297,-2.25 c 0.33164,-1.2375 0.60913,-3.25602 0.61664,-4.4856 0.0106,-1.7312 1.40848,-2.93972 6.19575,-5.35632 19.58605,-9.88701 42.86795,-30.7131 57.8179,-51.71919 6.4334,-9.03953 6.54355,-9.13339 10.75,-9.161 2.3375,-0.0153 4.25,0.42765 4.25,0.98442 0,0.94731 -8.3949,49.22391 -9.60538,55.23769 l -0.55353,2.75 61.386,0 -0.68531,4.75 c -0.37692,2.6125 -0.9268,5.7625 -1.22195,7 l -0.53665,2.25 -61.36374,0 -10.33659,58.65868 c -5.68513,32.2622 -10.36262,61.4243 -10.39442,64.8045 -0.086,9.1436 1.98273,15.2606 6.78525,20.0631 5.29512,5.2952 10.79113,6.8681 21.95105,6.2823 7.20238,-0.378 9.5333,-0.9813 15.76372,-4.08 4.02135,-2 9.49805,-5.4572 12.17043,-7.6825 2.67239,-2.2253 5.16287,-4.0461 5.5344,-4.0461 0.37153,0 1.49343,1.3847 2.49312,3.077 1.79484,3.0384 1.78814,3.1084 -0.5344,5.5865 -8.98753,9.5893 -25.30881,20.1003 -36.94925,23.7956 -7.46854,2.3709 -21.27937,3.833 -27.40275,2.9011 z m -701.5,-2.0147 c 0,-3.0135 -47.6248,-245.9353 -49.5576,-252.78032 -6.0099,-21.28453 -11.727,-26.95568 -28.47629,-28.24729 -7.6221,-0.58777 -7.5039,-0.73198 -7.5561,-2.72197 l 0,-5.74322 106.59409,0.14732 -0.015,2.75 c -0.023,4.11436 -0.8544,4.766 -8.4847,6.64985 -9.0286,2.22908 -14.8668,5.68627 -18.2592,10.81251 l 33.0805,203.10532 c 0.417,1.5232 89.6787,-164.38858 89.6787,-166.68679 0,-4.59423 -4.08072,-24.77419 -6.14162,-30.37151 -3.98791,-10.83099 -12.21576,-16.6151 -25.59982,-17.99645 -4.90135,-0.50587 -5.36097,-0.75802 -4.85016,-2.66088 0.31036,-1.15613 1.4633,-4.80919 1.47081,-5.77169 0,0 53.88836,0.16964 104.12079,0.16964 l -0.0153,2.75 c -0.008,1.5125 -0.34592,3.2188 -0.75,3.79177 -0.40408,0.57298 -4.54845,1.58332 -9.20971,2.2452 -15.45338,2.19433 -22.01,8.7913 -22.03928,22.17492 l 35.91008,191.25929 c 0.83501,0.9313 88.27438,-160.34463 93.76713,-172.94702 4.86689,-11.16645 6.85583,-20.32927 5.85766,-26.98557 -1.25008,-8.33612 -9.43578,-14.26749 -19.71155,-14.28301 -4.34701,-0.007 -4.73081,-0.45431 -4.07645,-4.75558 l 0.49443,-3.25 86.773,0 -0.0153,2.75 c -0.0229,4.11168 -0.94528,4.90522 -7.20417,6.19787 -14.50932,2.99662 -26.73508,13.09471 -40.01627,33.05213 -57.17618,101.39462 -67.72842,123.5749 -134.26427,247.92848 l -4.75,0.036 c -2.6125,0.02 -4.75,-0.3705 -4.75,-0.867 0,-0.8549 -39.81171,-207.7038 -40.30264,-209.39962 -40.44421,73.68636 -70.41573,130.3329 -113.19736,210.26892 l -4.25,0.017 c -2.3375,0.01 -4.25,-0.2778 -4.25,-0.6378 z m 942.999998,-11.1125 6.4767,-0.6936 c 8.1084,-0.8683 16.234,-4.8511 19.2815,-9.451 6.8747,-10.3765 7.5048,-22.8328 6.9542,-137.4814 -0.3953,-82.30445 -0.64,-93.91468 -2.1088,-100.06856 -3.3819,-14.1693 -9.4383,-19.88753 -23.1571,-21.86392 l -7.4465,-1.07278 0,-3.80086 0,-3.80086 206.000002,0 0,24 0,24 -2.3821,0 c -2.1061,0 -2.6847,-0.95603 -4.9925,-8.25 -4.7068,-14.87603 -9.3721,-20.29806 -20.1254,-23.38987 -5.2366,-1.50565 -12.4567,-1.77478 -56.75,-2.11541 l -50.750002,-0.39028 0,61.12821 0,61.12822 45.750002,-0.30544 c 44.2428,-0.29537 45.9018,-0.37564 50.3585,-2.43659 6.9063,-3.1938 11.614,-10.63572 13.3596,-21.11884 l 0.7077,-4.25 8.8242,0 0,35 0,34.99998 -4.3813,0 c -4.3753,0 -4.3829,-0.01 -5.5452,-4.6225 -0.6402,-2.5424 -2.3183,-6.9299 -3.7291,-9.75004 -6.4969,-12.9872 -6.1462,-12.91034 -61.0944,-13.38888 l -44.250002,0.95391 0,53.99971 c 0,62.4224 -0.2484,60.3148 7.5793,64.3078 3.743002,1.9094 5.846602,1.998 46.420702,1.9557 46.359,-0.048 52.5165,-0.6381 61.4761,-5.8888 6.6728,-3.9105 13.8134,-12.5447 19.4506,-23.5192 l 5.1611,-10.0477 4.2876,0 4.2875,0 -6.5651,27 -6.5651,27 -206.532702,0 z m 250.000002,3.8665 c 0,-3.8795 0.028,-3.9069 5.25,-5.1517 19.5189,-4.6526 26.8844,-15.1306 30.6778,-43.6411 1.9732,-14.8306 18.1709,-202.77718 17.6492,-204.78899 -1.2009,-4.63069 -18.6447,-15.90022 -28.6022,-18.47838 -2.4612,-0.63723 -5.2623,-1.38713 -6.2248,-1.66646 -1.2839,-0.3726 -1.75,-1.55527 -1.75,-4.44048 l 0,-3.93261 72.6292,0 91.3149,223.46542 93.28814,-223.63506 67.76776,0.14338 0,3.8843 0,3.8843 -5.2092,0.69102 c -11.6742,1.54864 -20.8748,8.51974 -24.2478,18.37211 -4.0554,11.84566 -4.0305,12.54475 3.9393,110.52335 4.1237,50.6942 7.9796,95.9962 8.5689,100.6712 3.2789,26.0143 9.4658,34.8646 27.0077,38.6341 l 7.9411,1.7065 0,3.8297 0,3.8297 -104,0 0,-3.8813 c 0,-3.7942 0.1062,-3.908 4.7365,-5.074 18.3886,-4.6303 25.2635,-14.0492 25.2635,-34.612 0,-7.6089 -14.4905,-188.303 -15.302,-190.81232 -0.1564,-0.48378 -22.1657,51.94122 -48.9094,116.50002 l -48.75137,118.07408 -7.79403,-0.0914 -3.4518,-8.3016 c -1.8985,-4.5658 -23.4126,-57.014 -47.8092,-116.55148 -24.3965,-59.5375 -44.617,-108.25 -44.9342,-108.25 -0.4513,0 -10.8295,109.69753 -16.176,170.98048 -2.5987,29.7868 7.8335,46.6067 32.878,53.01 4.1019,1.0487 4.25,1.2246 4.25,5.0481 l 0,3.9614 -90,0 0,-3.9002 z"
       id="path4147"
       inkscape:connector-curvature="0"
       sodipodi:nodetypes="sssssssssccssscscsssssssssccscssssccsssssssssssssscscsscssssssccssccscsscssccssccssssssssssccssccccsccsssscccssccsscsccsscccsccccccsssssccccccsssscccsssccccscsscssssscccccccscscssscccccccssscsccccscscsccsssscscccs" />
  </g>
</svg>
