<?xml version="1.0" encoding="UTF-8" standalone="no"?>
<!-- Created with Inkscape (http://www.inkscape.org/) -->

<svg
   xmlns:dc="http://purl.org/dc/elements/1.1/"
   xmlns:cc="http://creativecommons.org/ns#"
   xmlns:rdf="http://www.w3.org/1999/02/22-rdf-syntax-ns#"
   xmlns:svg="http://www.w3.org/2000/svg"
   xmlns="http://www.w3.org/2000/svg"
   xmlns:sodipodi="http://sodipodi.sourceforge.net/DTD/sodipodi-0.dtd"
   xmlns:inkscape="http://www.inkscape.org/namespaces/inkscape"
   width="56.444447mm"
   height="47.883564mm"
   viewBox="0 0 200.00001 169.66617"
   id="svg2"
   version="1.1"
   inkscape:version="0.91 r13725"
   sodipodi:docname="work-smarter-logo.svg">
  <defs
     id="defs4" />
  <sodipodi:namedview
     id="base"
     pagecolor="#ffffff"
     bordercolor="#666666"
     borderopacity="1.0"
     inkscape:pageopacity="0.0"
     inkscape:pageshadow="2"
     inkscape:zoom="5.6"
     inkscape:cx="111.48019"
     inkscape:cy="49.673586"
     inkscape:document-units="px"
     inkscape:current-layer="layer2"
     showgrid="false"
     showguides="true"
     inkscape:guide-bbox="true"
     fit-margin-top="0"
     fit-margin-left="0"
     fit-margin-right="0"
     fit-margin-bottom="0"
     inkscape:window-width="3840"
     inkscape:window-height="2091"
     inkscape:window-x="2160"
     inkscape:window-y="69"
     inkscape:window-maximized="0" />
  <metadata
     id="metadata7">
    <rdf:RDF>
      <cc:Work
         rdf:about="">
        <dc:format>image/svg+xml</dc:format>
        <dc:type
           rdf:resource="http://purl.org/dc/dcmitype/StillImage" />
        <dc:title></dc:title>
      </cc:Work>
    </rdf:RDF>
  </metadata>
  <g
     inkscape:groupmode="layer"
     id="layer2"
     inkscape:label="Layer 2"
     transform="translate(-274.36831,-403.28179)">
    <g
       id="g4246"
       transform="matrix(0.06748123,0,0,0.06748123,356.30423,452.92151)">
      <rect
         style="fill:#009c7e;fill-opacity:1;stroke:none;stroke-width:2;stroke-miterlimit:4;stroke-dasharray:none;stroke-opacity:1"
         id="rect4184"
         width="2355.6755"
         height="1753.6249"
         x="-606.09155"
         y="-735.60785"
         rx="209.40802"
         ry="223.8454" />
      <path
         sodipodi:nodetypes="cccccc"
         inkscape:connector-curvature="0"
         id="path4244"
         d="m 1081.4286,-373.35209 666.1074,666.10746 2.0482,520.20068 c -17.931,139.27178 -92.4187,190.83735 -184.8579,204.05085 l -482.8529,2.0203 z"
         style="fill:#007c5e;fill-opacity:1;fill-rule:evenodd;stroke:none;stroke-width:1px;stroke-linecap:butt;stroke-linejoin:miter;stroke-opacity:1" />
      <path
         id="rect4182"
         d="m -1004.7949,-436.60352 c -116.0121,0 -209.4082,99.83536 -209.4082,223.84571 l 0,1305.93551 c 0,124.0104 93.3961,223.8438 209.4082,223.8438 l 390.62302,0 0,403.5566 0,0.5059 0.0176,0.01 a 58.083771,58.083771 0 0 0 58.06446,57.5703 58.083771,58.083771 0 0 0 44.48828,-20.748 l 440.890622,-440.8926 1002.775388,0 c 116.01203,0 209.40823,-99.8334 209.40823,-223.8438 l 0,-1305.93551 c 0,-124.01035 -93.3962,-223.84571 -209.40823,-223.84571 l -1936.85937,0 z"
         style="fill:#00b092;fill-opacity:1;stroke:none;stroke-width:2;stroke-miterlimit:4;stroke-dasharray:none;stroke-opacity:1"
         inkscape:connector-curvature="0" />
      <g
         id="flowRoot4199"
         style="font-style:normal;font-weight:normal;font-size:40px;line-height:124.00000095%;font-family:sans-serif;letter-spacing:0px;word-spacing:0px;fill:#ffffff;fill-opacity:1;stroke:none;stroke-width:1px;stroke-linecap:butt;stroke-linejoin:miter;stroke-opacity:1"
         transform="translate(2951.4286,85.714287)" />
    </g>
    <path
       transform="translate(2.3646376e-5,6.4295677e-5)"
       d="m 318.19833,464.35654 -4.68627,0 0,-8.16407 -6.94214,0 0,8.16407 -4.71314,0 0,-19.55079 4.71314,0 0,7.76124 6.94214,0 0,-7.76124 4.68627,0 0,19.55079 z"
       style="display:inline;font-style:normal;font-variant:normal;font-weight:900;font-stretch:normal;font-size:27.50000191px;line-height:100%;font-family:Roboto;-inkscape-font-specification:'Roboto Heavy';letter-spacing:0px;word-spacing:-0.05999986px;fill:#ffffff;fill-opacity:1;stroke:none;stroke-width:1px;stroke-linecap:butt;stroke-linejoin:miter;stroke-opacity:1"
       id="path6605" />
    <path
       transform="translate(2.3646376e-5,6.4295677e-5)"
       d="m 320.41391,456.95785 q 0,-2.17529 0.84595,-3.86718 0.84595,-1.70533 2.43042,-2.61841 1.58447,-0.91309 3.71948,-0.91309 3.26294,0 5.14282,2.02759 1.87989,2.01416 1.87989,5.49194 l 0,0.16114 q 0,3.39721 -1.89331,5.39795 -1.87989,1.9873 -5.10254,1.9873 -3.10181,0 -4.98169,-1.85303 -1.87989,-1.86645 -2.02759,-5.04882 l -0.0134,-0.76539 z m 4.52515,0.28199 q 0,2.01416 0.6311,2.9541 0.63111,0.93994 1.86646,0.93994 2.41699,0 2.4707,-3.71948 l 0,-0.45655 q 0,-3.90747 -2.49756,-3.90747 -2.26929,0 -2.45727,3.37037 l -0.0134,0.81909 z"
       style="display:inline;font-style:normal;font-variant:normal;font-weight:900;font-stretch:normal;font-size:27.50000191px;line-height:100%;font-family:Roboto;-inkscape-font-specification:'Roboto Heavy';letter-spacing:0px;word-spacing:-0.05999986px;fill:#ffffff;fill-opacity:1;stroke:none;stroke-width:1px;stroke-linecap:butt;stroke-linejoin:miter;stroke-opacity:1"
       id="path6607" />
    <path
       transform="translate(2.3646376e-5,6.4295677e-5)"
       d="m 349.00156,458.39462 1.46362,-8.56689 4.33716,0 -3.42407,14.52881 -3.8269,0 -2.40357,-8.62061 -2.41699,8.62061 -3.82691,0 -3.42407,-14.52881 4.33716,0 1.43677,8.76831 2.30957,-8.76831 3.15552,0 2.28271,8.56689 z"
       style="display:inline;font-style:normal;font-variant:normal;font-weight:900;font-stretch:normal;font-size:27.50000191px;line-height:100%;font-family:Roboto;-inkscape-font-specification:'Roboto Heavy';letter-spacing:0px;word-spacing:-0.05999986px;fill:#ffffff;fill-opacity:1;stroke:none;stroke-width:1px;stroke-linecap:butt;stroke-linejoin:miter;stroke-opacity:1"
       id="path6609" />
    <path
       transform="translate(2.3646376e-5,6.4295677e-5)"
       d="m 368.47892,464.35654 -4.69971,0 0,-19.55079 4.69971,0 0,19.55079 z"
       style="display:inline;font-style:normal;font-variant:normal;font-weight:900;font-stretch:normal;font-size:27.50000191px;line-height:100%;font-family:Roboto;-inkscape-font-specification:'Roboto Heavy';letter-spacing:0px;word-spacing:-0.05999986px;fill:#ffffff;fill-opacity:1;stroke:none;stroke-width:1px;stroke-linecap:butt;stroke-linejoin:miter;stroke-opacity:1"
       id="path6611" />
    <path
       transform="translate(2.3646376e-5,6.4295677e-5)"
       d="m 317.00327,484.56528 2.24243,-12.25952 4.67285,0 -4.14917,19.55078 -4.8877,0 -2.6184,-11.14502 -2.5647,11.14502 -4.87427,0 -4.1626,-19.55078 4.68628,0 2.24243,12.25952 2.68555,-12.25952 4.00147,0 2.72583,12.25952 z"
       style="display:inline;font-style:normal;font-variant:normal;font-weight:900;font-stretch:normal;font-size:27.50000191px;line-height:100%;font-family:Roboto;-inkscape-font-specification:'Roboto Heavy';letter-spacing:0px;word-spacing:-0.05999986px;fill:#ffffff;fill-opacity:1;stroke:none;stroke-width:1px;stroke-linecap:butt;stroke-linejoin:miter;stroke-opacity:1"
       id="path6613" />
    <path
       transform="translate(2.3646376e-5,6.4295677e-5)"
       d="m 324.54965,484.45786 q 0,-2.1753 0.84595,-3.86719 0.84595,-1.70532 2.43042,-2.61841 1.58447,-0.91309 3.71948,-0.91309 3.26294,0 5.14283,2.02759 1.87988,2.01416 1.87988,5.49195 l 0,0.16113 q 0,3.39722 -1.89331,5.39795 -1.87988,1.9873 -5.10254,1.9873 -3.10181,0 -4.98169,-1.85302 -1.87988,-1.86646 -2.02759,-5.04883 l -0.0134,-0.76538 z m 4.52515,0.28198 q 0,2.01416 0.6311,2.9541 0.63111,0.93994 1.86646,0.93994 2.41699,0 2.4707,-3.71948 l 0,-0.45654 q 0,-3.90747 -2.49756,-3.90747 -2.26928,0 -2.45727,3.37036 l -0.0134,0.81909 z"
       style="display:inline;font-style:normal;font-variant:normal;font-weight:900;font-stretch:normal;font-size:27.50000191px;line-height:100%;font-family:Roboto;-inkscape-font-specification:'Roboto Heavy';letter-spacing:0px;word-spacing:-0.05999986px;fill:#ffffff;fill-opacity:1;stroke:none;stroke-width:1px;stroke-linecap:butt;stroke-linejoin:miter;stroke-opacity:1"
       id="path6615" />
    <path
       transform="translate(2.3646376e-5,6.4295677e-5)"
       d="m 349.37754,481.42319 -1.49048,-0.10742 q -2.13501,0 -2.73926,1.34277 l 0,9.198 -4.52515,0 0,-14.52881 4.24317,0 0.1477,1.86645 q 1.14136,-2.13501 3.18238,-2.13501 0.72509,0 1.2622,0.16114 l -0.0806,4.20288 z"
       style="display:inline;font-style:normal;font-variant:normal;font-weight:900;font-stretch:normal;font-size:27.50000191px;line-height:100%;font-family:Roboto;-inkscape-font-specification:'Roboto Heavy';letter-spacing:0px;word-spacing:-0.05999986px;fill:#ffffff;fill-opacity:1;stroke:none;stroke-width:1px;stroke-linecap:butt;stroke-linejoin:miter;stroke-opacity:1"
       id="path6617" />
    <path
       transform="translate(2.3646376e-5,6.4295677e-5)"
       d="m 356.84336,486.44516 -1.27564,1.27564 0,4.13574 -4.52514,0 0,-20.63843 4.52514,0 0,10.95703 0.45655,-0.60425 3.41064,-4.24316 5.42481,0 -5.08912,5.97534 5.42481,8.55347 -5.18311,0 -3.16894,-5.41138 z"
       style="display:inline;font-style:normal;font-variant:normal;font-weight:900;font-stretch:normal;font-size:27.50000191px;line-height:100%;font-family:Roboto;-inkscape-font-specification:'Roboto Heavy';letter-spacing:0px;word-spacing:-0.05999986px;fill:#ffffff;fill-opacity:1;stroke:none;stroke-width:1px;stroke-linecap:butt;stroke-linejoin:miter;stroke-opacity:1"
       id="path6619" />
    <path
       transform="translate(2.3646376e-5,6.4295677e-5)"
       d="m 311.94101,514.16001 q 0,-1.03394 -0.73853,-1.61133 -0.72509,-0.57739 -2.56469,-1.19507 -1.8396,-0.61768 -3.00782,-1.19507 -3.80004,-1.86645 -3.80004,-5.12939 0,-1.62476 0.93994,-2.86011 0.95337,-1.24878 2.68554,-1.93359 1.73218,-0.69825 3.89405,-0.69825 2.10815,0 3.77319,0.75196 1.67847,0.75195 2.60498,2.14843 0.92652,1.38306 0.92652,3.16895 l -4.69971,0 q 0,-1.19507 -0.73853,-1.85303 -0.7251,-0.65796 -1.97387,-0.65796 -1.26221,0 -2.00074,0.56397 -0.72509,0.55054 -0.72509,1.40991 0,0.75195 0.80566,1.36963 0.80566,0.60425 2.83325,1.26221 2.02759,0.64453 3.33008,1.39648 3.16895,1.82617 3.16895,5.0354 0,2.5647 -1.9336,4.02832 -1.93359,1.46363 -5.30395,1.46363 -2.37671,0 -4.31031,-0.84595 -1.92016,-0.85938 -2.90039,-2.33643 -0.96679,-1.49048 -0.96679,-3.42407 l 4.72656,0 q 0,1.57104 0.80566,2.323 0.81909,0.73852 2.64527,0.73852 1.16821,0 1.8396,-0.49682 0.68481,-0.51026 0.68481,-1.42334 z"
       style="display:inline;font-style:normal;font-variant:normal;font-weight:900;font-stretch:normal;font-size:27.50000191px;line-height:100%;font-family:Roboto;-inkscape-font-specification:'Roboto Heavy';letter-spacing:0px;word-spacing:-0.05999986px;fill:#ffffff;fill-opacity:1;stroke:none;stroke-width:1px;stroke-linecap:butt;stroke-linejoin:miter;stroke-opacity:1"
       id="path6621" />
    <path
       transform="translate(2.3646376e-5,6.4295677e-5)"
       d="m 323.1666,504.82773 0.1477,1.70532 q 1.54419,-1.97387 4.14917,-1.97387 2.75269,0 3.71949,2.18872 1.47705,-2.18872 4.27002,-2.18872 4.41772,0 4.53857,5.34424 l 0,9.45312 -4.53857,0 0,-9.17114 q 0,-1.1145 -0.37598,-1.62476 -0.37598,-0.51025 -1.36963,-0.51025 -1.34277,0 -2.00073,1.19507 l 0.0134,0.18798 0,9.9231 -4.53858,0 0,-9.14429 q 0,-1.14135 -0.36255,-1.65161 -0.36255,-0.51025 -1.38305,-0.51025 -1.3025,0 -1.98731,1.19507 l 0,10.11108 -4.52515,0 0,-14.52881 4.24317,0 z"
       style="display:inline;font-style:normal;font-variant:normal;font-weight:900;font-stretch:normal;font-size:27.50000191px;line-height:100%;font-family:Roboto;-inkscape-font-specification:'Roboto Heavy';letter-spacing:0px;word-spacing:-0.05999986px;fill:#ffffff;fill-opacity:1;stroke:none;stroke-width:1px;stroke-linecap:butt;stroke-linejoin:miter;stroke-opacity:1"
       id="path6623" />
    <path
       transform="translate(2.3646376e-5,6.4295677e-5)"
       d="m 350.76059,519.35654 q -0.2417,-0.44311 -0.42968,-1.30249 -1.24878,1.57105 -3.49121,1.57105 -2.05445,0 -3.49122,-1.23536 -1.43676,-1.24878 -1.43676,-3.12866 0,-2.36328 1.7456,-3.57178 1.74561,-1.20849 5.07569,-1.20849 l 1.39648,0 0,-0.76538 q 0,-2.00074 -1.73218,-2.00074 -1.61133,0 -1.61133,1.58448 l -4.52514,0 q 0,-2.10816 1.78589,-3.42408 1.79931,-1.31591 4.57885,-1.31591 2.77955,0 4.39087,1.3562 1.61133,1.3562 1.65162,3.71948 l 0,6.43189 q 0.0269,2.00073 0.61767,3.06152 l 0,0.22827 -4.52515,0 z m -2.83325,-2.9541 q 0.84595,0 1.39649,-0.36255 0.56396,-0.36255 0.80566,-0.81909 l 0,-2.323 -1.31592,0 q -2.36328,0 -2.36328,2.12158 0,0.61768 0.41626,1.00708 0.41626,0.37598 1.06079,0.37598 z"
       style="display:inline;font-style:normal;font-variant:normal;font-weight:900;font-stretch:normal;font-size:27.50000191px;line-height:100%;font-family:Roboto;-inkscape-font-specification:'Roboto Heavy';letter-spacing:0px;word-spacing:-0.05999986px;fill:#ffffff;fill-opacity:1;stroke:none;stroke-width:1px;stroke-linecap:butt;stroke-linejoin:miter;stroke-opacity:1"
       id="path6625" />
    <path
       transform="translate(2.3646376e-5,6.4295677e-5)"
       d="m 365.97422,508.92319 -1.49048,-0.10742 q -2.13501,0 -2.73926,1.34277 l 0,9.198 -4.52515,0 0,-14.52881 4.24317,0 0.1477,1.86646 q 1.14136,-2.13501 3.18238,-2.13501 0.72509,0 1.2622,0.16113 l -0.0806,4.20288 z"
       style="display:inline;font-style:normal;font-variant:normal;font-weight:900;font-stretch:normal;font-size:27.50000191px;line-height:100%;font-family:Roboto;-inkscape-font-specification:'Roboto Heavy';letter-spacing:0px;word-spacing:-0.05999986px;fill:#ffffff;fill-opacity:1;stroke:none;stroke-width:1px;stroke-linecap:butt;stroke-linejoin:miter;stroke-opacity:1"
       id="path6627" />
    <path
       transform="translate(2.3646376e-5,6.4295677e-5)"
       d="m 373.57432,501.21567 0,3.61206 2.39014,0 0,3.14209 -2.39014,0 0,6.64673 q 0,0.81909 0.29541,1.14136 0.29541,0.32226 1.16821,0.32226 0.67139,0 1.12793,-0.0806 l 0,3.23608 q -1.22192,0.38941 -2.55127,0.38941 -2.33642,0 -3.45093,-1.10108 -1.1145,-1.10107 -1.1145,-3.34351 l 0,-7.21069 -1.85303,0 0,-3.14209 1.85303,0 0,-3.61206 4.52515,0 z"
       style="display:inline;font-style:normal;font-variant:normal;font-weight:900;font-stretch:normal;font-size:27.50000191px;line-height:100%;font-family:Roboto;-inkscape-font-specification:'Roboto Heavy';letter-spacing:0px;word-spacing:-0.05999986px;fill:#ffffff;fill-opacity:1;stroke:none;stroke-width:1px;stroke-linecap:butt;stroke-linejoin:miter;stroke-opacity:1"
       id="path6629" />
    <path
       transform="translate(2.3646376e-5,6.4295677e-5)"
       d="m 384.78648,519.6251 q -3.34351,0 -5.41138,-1.98731 -2.06787,-2.00073 -2.06787,-5.19653 l 0,-0.37598 q 0,-2.229 0.81909,-3.93433 0.83252,-1.70532 2.41699,-2.63183 1.58448,-0.93994 3.75977,-0.93994 3.06152,0 4.83398,1.90673 1.77246,1.89332 1.77246,5.29053 l 0,1.75904 -8.99658,0 q 0.2417,1.22192 1.06079,1.92016 0.81909,0.69824 2.12158,0.69824 2.14844,0 3.35694,-1.5039 l 2.06787,2.44385 q -0.84595,1.16821 -2.40356,1.86645 -1.54419,0.68482 -3.33008,0.68482 z m -0.51026,-11.57471 q -1.9873,0 -2.36328,2.63183 l 4.56543,0 0,-0.34912 q 0.0269,-1.08764 -0.55054,-1.67846 -0.57739,-0.60425 -1.65161,-0.60425 z"
       style="display:inline;font-style:normal;font-variant:normal;font-weight:900;font-stretch:normal;font-size:27.50000191px;line-height:100%;font-family:Roboto;-inkscape-font-specification:'Roboto Heavy';letter-spacing:0px;word-spacing:-0.05999986px;fill:#ffffff;fill-opacity:1;stroke:none;stroke-width:1px;stroke-linecap:butt;stroke-linejoin:miter;stroke-opacity:1"
       id="path6631" />
    <path
       transform="translate(2.3646376e-5,6.4295677e-5)"
       d="m 401.53086,508.92319 -1.49048,-0.10742 q -2.13501,0 -2.73926,1.34277 l 0,9.198 -4.52514,0 0,-14.52881 4.24316,0 0.14771,1.86646 q 1.14136,-2.13501 3.18237,-2.13501 0.7251,0 1.26221,0.16113 l -0.0806,4.20288 z"
       style="display:inline;font-style:normal;font-variant:normal;font-weight:900;font-stretch:normal;font-size:27.50000191px;line-height:100%;font-family:Roboto;-inkscape-font-specification:'Roboto Heavy';letter-spacing:0px;word-spacing:-0.05999986px;fill:#ffffff;fill-opacity:1;stroke:none;stroke-width:1px;stroke-linecap:butt;stroke-linejoin:miter;stroke-opacity:1"
       id="path6633" />
  </g>
  <g
     inkscape:groupmode="layer"
     id="layer1"
     inkscape:label="Layer 4"
     style="display:inline">
    <g
       transform="translate(-274.36829,-403.28173)"
       style="font-style:normal;font-variant:normal;font-weight:bold;font-stretch:normal;font-size:40px;line-height:100%;font-family:'Noto Sans';-inkscape-font-specification:'Noto Sans Bold';letter-spacing:0px;word-spacing:0px;fill:#000000;fill-opacity:1;stroke:none;stroke-width:1px;stroke-linecap:butt;stroke-linejoin:miter;stroke-opacity:1"
       id="text6591" />
  </g>
</svg>
