<?xml version="1.0" encoding="UTF-8" standalone="no"?>
<!-- Created with Inkscape (http://www.inkscape.org/) -->

<svg
   xmlns:dc="http://purl.org/dc/elements/1.1/"
   xmlns:cc="http://creativecommons.org/ns#"
   xmlns:rdf="http://www.w3.org/1999/02/22-rdf-syntax-ns#"
   xmlns:svg="http://www.w3.org/2000/svg"
   xmlns="http://www.w3.org/2000/svg"
   xmlns:sodipodi="http://sodipodi.sourceforge.net/DTD/sodipodi-0.dtd"
   xmlns:inkscape="http://www.inkscape.org/namespaces/inkscape"
   id="svg3436"
   version="1.1"
   inkscape:version="0.91 r13725"
   xml:space="preserve"
   width="870.77502"
   height="107.2125"
   viewBox="0 0 870.77502 107.2125"
   sodipodi:docname="aliem-logo-horizontal-full.svg"><metadata
     id="metadata3442"><rdf:RDF><cc:Work
         rdf:about=""><dc:format>image/svg+xml</dc:format><dc:type
           rdf:resource="http://purl.org/dc/dcmitype/StillImage" /><dc:title></dc:title></cc:Work></rdf:RDF></metadata><defs
     id="defs3440" /><sodipodi:namedview
     pagecolor="#ffffff"
     bordercolor="#666666"
     borderopacity="1"
     objecttolerance="10"
     gridtolerance="10"
     guidetolerance="10"
     inkscape:pageopacity="0"
     inkscape:pageshadow="2"
     inkscape:window-width="1920"
     inkscape:window-height="1042"
     id="namedview3438"
     showgrid="false"
     inkscape:zoom="1.4142136"
     inkscape:cx="385.96027"
     inkscape:cy="-9.5801174"
     inkscape:window-x="0"
     inkscape:window-y="38"
     inkscape:window-maximized="0"
     inkscape:current-layer="g3446" /><g
     id="g3444"
     inkscape:groupmode="layer"
     inkscape:label="ink_ext_XXXXXX"
     transform="matrix(1.25,0,0,-1.25,0,107.2125)"><g
       id="g3446"
       transform="scale(0.1,0.1)"><path
         d="m 161.836,327.742 c 9.941,13.481 20.644,27.082 31.977,40.688 -4.305,8.203 -6.778,17.515 -6.809,27.41 C 117.617,410.945 53.1367,408.281 0,399.18 l 0,-116.133 130.891,0 c 9.722,14.902 19.976,29.824 30.945,44.695"
         style="fill:#00b092;fill-opacity:1;fill-rule:nonzero;stroke:none"
         id="path3448"
         inkscape:connector-curvature="0" /><path
         d="m 305.879,397.148 c 10.844,-5.144 21.559,-10.675 32.133,-16.601 10.648,10.039 24.957,16.23 40.75,16.23 18.828,0 35.574,-8.769 46.472,-22.414 29.485,9.016 59.84,15.95 91.012,20 14.906,1.938 29.723,3.059 44.469,3.653 2.957,8.515 7.742,16.183 13.969,22.445 -16.215,37.117 -35.297,72.281 -57.262,105.437 -6.594,-2.515 -13.711,-3.957 -21.184,-3.957 -14.613,0 -27.976,5.293 -38.328,14.036 -57.265,-30.879 -110.023,-68.731 -158.254,-113.45 3.828,-7.664 6.059,-16.265 6.223,-25.379"
         style="fill:#00b092;fill-opacity:1;fill-rule:nonzero;stroke:none"
         id="path3450"
         inkscape:connector-curvature="0" /><path
         d="m 319.285,337.305 c 0,2.566 0.219,5.086 0.539,7.578 -8.871,5 -17.847,9.668 -26.902,14.082 -10.902,-13.633 -27.645,-22.395 -46.457,-22.395 -8.242,0 -16.094,1.684 -23.235,4.707 -9.953,-12.097 -19.734,-24.453 -29.203,-37.285 -5.136,-6.961 -10.089,-13.953 -14.941,-20.945 l 56.684,0 c 26.496,17.422 54.488,33.848 83.8,48.594 -0.175,1.867 -0.285,3.75 -0.285,5.664"
         style="fill:#00b092;fill-opacity:1;fill-rule:nonzero;stroke:none"
         id="path3452"
         inkscape:connector-curvature="0" /><path
         d="m 583.328,138.43 0,144.617 36.008,0 c -2.813,12.305 -5.844,24.453 -9.16,36.418 -22.676,2.527 -41.438,17.82 -49.071,38.512 -13.175,-0.547 -26.398,-1.551 -39.703,-3.282 -28.375,-3.687 -56.148,-9.988 -83.214,-18.261 -0.118,-8.106 -1.84,-15.809 -4.887,-22.821 C 487.59,267.117 537.656,208.66 583.328,138.43"
         style="fill:#00b092;fill-opacity:1;fill-rule:nonzero;stroke:none"
         id="path3454"
         inkscape:connector-curvature="0" /><path
         d="m 405.93,284.441 c -8.153,-4.199 -17.371,-6.609 -27.168,-6.609 -16.36,0 -31.164,6.609 -41.914,17.297 -15.43,-7.832 -30.508,-16.156 -45.188,-24.895 l 0,-270.234 291.668,0 0,61.5313 C 530.625,154.316 471.383,228.738 405.93,284.441"
         style="fill:#00b092;fill-opacity:1;fill-rule:nonzero;stroke:none"
         id="path3456"
         inkscape:connector-curvature="0" /><path
         d="m 444.043,674.688 c 11.687,-11.055 23.598,-23.149 35.547,-36.208 5.289,1.54 10.863,2.411 16.648,2.411 19.516,0 36.789,-9.45 47.633,-23.977 12.828,4.805 26.024,9.316 39.457,13.649 l 0,227.179 -291.668,0 0,-72.148 c 45.203,-24.715 99.047,-60.461 152.383,-110.906"
         style="fill:#00b092;fill-opacity:1;fill-rule:nonzero;stroke:none"
         id="path3458"
         inkscape:connector-curvature="0" /><path
         d="m 668.512,349.133 c -4.836,-8.481 -11.688,-15.625 -19.907,-20.832 4.071,-14.66 7.84,-29.738 11.278,-45.254 l 167.281,0 c -51.285,32.566 -104.269,54.637 -158.652,66.086"
         style="fill:#00b092;fill-opacity:1;fill-rule:nonzero;stroke:none"
         id="path3460"
         inkscape:connector-curvature="0" /><path
         d="m 200.531,433.816 c 10.907,13.254 27.43,21.7 45.934,21.7 8.89,0 17.297,-2 24.875,-5.496 46.773,43.054 102,83.871 166.785,118.843 -0.875,4.047 -1.355,8.242 -1.355,12.555 0,12.387 3.796,23.887 10.277,33.41 -9.824,10.516 -19.938,20.817 -30.488,30.797 -42.911,40.586 -86.508,71.191 -124.899,93.793 l 0,-164.711 -291.66,0 0,-134.59 c 57.2695,9.094 126.145,10.828 200.531,-6.301"
         style="fill:#00b092;fill-opacity:1;fill-rule:nonzero;stroke:none"
         id="path3462"
         inkscape:connector-curvature="0" /><path
         d="m 583.328,574.707 0,15.484 c -9.312,-3.125 -18.543,-6.402 -27.668,-9.824 -0.18,-10.508 -3.101,-20.332 -8.062,-28.836 22.351,-33.566 43.519,-71.441 62.211,-113.972 2.316,0.273 4.66,0.449 7.046,0.449 29.395,0 53.735,-21.336 58.551,-49.348 68.93,-14.258 135.617,-44.187 199.582,-89.566 l 0,275.613 -291.66,0"
         style="fill:#00b092;fill-opacity:1;fill-rule:nonzero;stroke:none"
         id="path3464"
         inkscape:connector-curvature="0" /><path
         d="m 1400.86,575.801 -74.82,-191.399 150.52,0 -75.7,191.399 z m -52.19,179.222 112.22,0 267.97,-615.96 -153.12,0 -53.07,130.496 -239.26,0 -51.33,-130.496 -149.63,0 266.22,615.96"
         style="fill:#706d6e;fill-opacity:1;fill-rule:nonzero;stroke:none"
         id="path3466"
         inkscape:connector-curvature="0" /><path
         d="m 1795.84,755.023 135.72,0 0,-490.687 251.43,0 0,-125.273 -387.15,0 0,615.96"
         style="fill:#706d6e;fill-opacity:1;fill-rule:nonzero;stroke:none"
         id="path3468"
         inkscape:connector-curvature="0" /><path
         d="m 2243.01,561.887 130.5,0 0,-422.824 -130.5,0 0,422.824 z m -10.44,133.101 c 0,20.887 7.4,38.719 22.19,53.508 14.79,14.789 32.62,22.188 53.5,22.188 20.88,0 38.72,-7.399 53.51,-22.188 14.79,-14.789 22.18,-32.621 22.18,-53.508 0,-20.879 -7.39,-38.711 -22.18,-53.5 -14.79,-14.789 -32.63,-22.187 -53.51,-22.187 -20.88,0 -38.71,7.398 -53.5,22.187 -14.79,14.789 -22.19,32.621 -22.19,53.5"
         style="fill:#706d6e;fill-opacity:1;fill-rule:nonzero;stroke:none"
         id="path3470"
         inkscape:connector-curvature="0" /><path
         d="m 2489.22,755.023 418.47,0 0,-125.281 -282.75,0 0,-114.84 267.09,0 0,-125.273 -267.09,0 0,-125.293 298.41,0 0,-125.273 -434.13,0 0,615.96"
         style="fill:#706d6e;fill-opacity:1;fill-rule:nonzero;stroke:none"
         id="path3472"
         inkscape:connector-curvature="0" /><path
         d="m 3032.09,755.023 205.32,0 141.81,-401.937 1.74,0 142.68,401.937 204.45,0 0,-615.96 -135.72,0 0,472.41 -1.74,0 -161.82,-472.41 -103.53,0 -155.73,472.41 -1.74,0 0,-472.41 -135.72,0 0,615.96"
         style="fill:#706d6e;fill-opacity:1;fill-rule:nonzero;stroke:none"
         id="path3474"
         inkscape:connector-curvature="0" /><path
         d="m 4116.71,711.117 -0.63,0 -46.3,-109.617 91.03,0 -44.1,109.617 z m -11.97,34.02 24.88,0 94.82,-223.02 -30.88,0 -22.67,54.813 -111.51,0 -22.99,-54.813 -29.93,0 98.28,223.02"
         style="fill:#706d6e;fill-opacity:1;fill-rule:nonzero;stroke:none"
         id="path3476"
         inkscape:connector-curvature="0" /><path
         d="m 4354.53,632.684 c -5.24,6.3 -10.92,10.867 -17,13.703 -6.09,2.836 -12.81,4.254 -20.17,4.254 -8.19,0 -15.44,-1.418 -21.73,-4.254 -6.3,-2.836 -11.5,-6.774 -15.6,-11.813 -4.08,-5.039 -7.19,-10.867 -9.29,-17.484 -2.1,-6.613 -3.15,-13.699 -3.15,-21.262 0,-7.558 1.21,-14.648 3.63,-21.262 2.4,-6.617 5.76,-12.441 10.08,-17.48 4.3,-5.039 9.49,-8.981 15.58,-11.813 6.1,-2.835 12.92,-4.253 20.48,-4.253 16.17,0 28.67,6.089 37.49,18.265 l 18.27,-17.32 c -7.14,-8.192 -15.55,-14.176 -25.2,-17.957 -9.67,-3.778 -19.84,-5.668 -30.56,-5.668 -11.33,0 -21.73,1.89 -31.18,5.668 -9.45,3.781 -17.48,9.137 -24.1,16.066 -6.62,6.93 -11.76,15.121 -15.43,24.571 -3.68,9.449 -5.52,19.843 -5.52,31.183 0,11.129 1.84,21.422 5.52,30.871 3.67,9.449 8.87,17.641 15.59,24.571 6.72,6.929 14.74,12.332 24.1,16.218 9.33,3.891 19.69,5.832 31.02,5.832 10.92,0 21.26,-1.89 31.03,-5.668 9.76,-3.785 18.32,-9.664 25.67,-17.64 l -19.53,-17.328"
         style="fill:#706d6e;fill-opacity:1;fill-rule:nonzero;stroke:none"
         id="path3478"
         inkscape:connector-curvature="0" /><path
         d="m 4470.77,592.992 c -15.75,0 -28.24,-2.199 -37.48,-6.613 -9.25,-4.41 -13.87,-11.652 -13.87,-21.734 0,-9.247 3.1,-15.805 9.3,-19.688 6.19,-3.887 13.91,-5.824 23.15,-5.824 7.13,0 13.39,1.203 18.75,3.621 5.35,2.406 9.8,5.613 13.37,9.605 3.58,3.989 6.31,8.661 8.2,14.02 1.88,5.355 2.94,11.07 3.15,17.168 l 0,9.445 -24.57,0 z m -71.19,57.649 c 7.56,7.765 16.54,13.492 26.93,17.168 10.39,3.671 20.95,5.511 31.66,5.511 21.84,0 37.58,-5.152 47.25,-15.433 9.66,-10.293 14.49,-25.938 14.49,-46.942 l 0,-63.312 c 0,-4.199 0.21,-8.555 0.63,-13.074 0.42,-4.516 0.94,-8.661 1.58,-12.442 l -23.63,0 c -0.84,3.356 -1.31,7.094 -1.42,11.184 -0.11,4.097 -0.16,7.719 -0.16,10.871 l -0.63,0 c -4.82,-7.563 -11.29,-13.762 -19.37,-18.586 -8.09,-4.828 -17.8,-7.246 -29.14,-7.246 -7.56,0 -14.64,0.941 -21.26,2.832 -6.62,1.894 -12.4,4.672 -17.32,8.348 -4.94,3.671 -8.88,8.238 -11.82,13.703 -2.95,5.457 -4.41,11.757 -4.41,18.902 0,12.176 3.15,21.73 9.45,28.668 6.31,6.926 14.12,12.066 23.48,15.434 9.33,3.351 19.41,5.457 30.23,6.296 10.81,0.836 20.74,1.262 29.77,1.262 l 9.45,0 0,4.406 c 0,10.715 -3.2,18.797 -9.61,24.258 -6.4,5.457 -15.39,8.192 -26.93,8.192 -7.99,0 -15.8,-1.317 -23.47,-3.942 -7.66,-2.629 -14.44,-6.664 -20.32,-12.125 l -15.43,16.067"
         style="fill:#706d6e;fill-opacity:1;fill-rule:nonzero;stroke:none"
         id="path3480"
         inkscape:connector-curvature="0" /><path
         d="m 4687.49,595.828 c 0,7.766 -1.21,14.965 -3.63,21.578 -2.41,6.617 -5.93,12.391 -10.55,17.324 -4.62,4.934 -10.14,8.821 -16.54,11.657 -6.41,2.836 -13.6,4.254 -21.57,4.254 -7.98,0 -15.18,-1.418 -21.58,-4.254 -6.4,-2.836 -11.92,-6.723 -16.54,-11.657 -4.62,-4.933 -8.14,-10.707 -10.55,-17.324 -2.42,-6.613 -3.63,-13.812 -3.63,-21.578 0,-7.773 1.21,-14.965 3.63,-21.574 2.41,-6.617 5.93,-12.395 10.55,-17.324 4.62,-4.938 10.14,-8.825 16.54,-11.657 6.4,-2.835 13.6,-4.253 21.58,-4.253 7.97,0 15.16,1.418 21.57,4.253 6.4,2.832 11.92,6.719 16.54,11.657 4.62,4.929 8.14,10.707 10.55,17.324 2.42,6.609 3.63,13.801 3.63,21.574 z m 0,-47.566 -0.63,0 c -4.62,-8.399 -11.93,-15.489 -21.9,-21.258 -9.97,-5.774 -21.57,-8.664 -34.8,-8.664 -10.3,0 -19.95,1.941 -28.98,5.824 -9.04,3.887 -16.85,9.293 -23.47,16.227 -6.62,6.929 -11.82,15.117 -15.59,24.57 -3.79,9.449 -5.67,19.734 -5.67,30.867 0,11.129 1.88,21.422 5.67,30.871 3.77,9.449 9.02,17.641 15.74,24.571 6.72,6.929 14.86,12.332 24.42,16.218 9.55,3.891 20.1,5.832 31.66,5.832 10.7,0 20.52,-2.207 29.45,-6.617 8.92,-4.406 16.74,-10.605 23.47,-18.582 l 0.63,0 0,112.137 24.57,0 0,-238.141 -24.57,0 0,26.145"
         style="fill:#706d6e;fill-opacity:1;fill-rule:nonzero;stroke:none"
         id="path3482"
         inkscape:connector-curvature="0" /><path
         d="m 4867.98,609.059 c -0.43,12.601 -4.52,22.679 -12.29,30.238 -7.77,7.562 -18.47,11.344 -32.13,11.344 -13.65,0 -24.68,-3.782 -33.07,-11.344 -8.41,-7.559 -13.45,-17.637 -15.13,-30.238 l 92.62,0 z m 21.1,-60.164 c -8.82,-11.34 -18.48,-19.27 -28.97,-23.782 -10.51,-4.511 -22.69,-6.773 -36.55,-6.773 -11.55,0 -21.95,2.047 -31.19,6.14 -9.24,4.094 -17.06,9.606 -23.45,16.54 -6.42,6.929 -11.35,15.117 -14.81,24.57 -3.48,9.449 -5.2,19.527 -5.2,30.238 0,11.34 1.88,21.785 5.67,31.344 3.77,9.551 9.02,17.746 15.74,24.57 6.72,6.821 14.71,12.125 23.95,15.91 9.24,3.778 19.31,5.668 30.23,5.668 10.29,0 19.75,-1.734 28.36,-5.199 8.6,-3.465 16.01,-8.508 22.21,-15.117 6.19,-6.617 10.97,-14.703 14.32,-24.258 3.36,-9.558 5.05,-20.426 5.05,-32.605 l 0,-7.871 -119.08,0 c 0.43,-6.301 1.94,-12.34 4.57,-18.114 2.63,-5.777 6.04,-10.82 10.24,-15.117 4.2,-4.309 9.14,-7.719 14.8,-10.238 5.67,-2.52 11.87,-3.781 18.59,-3.781 10.71,0 19.73,1.89 27.09,5.668 7.35,3.781 13.97,9.343 19.85,16.695 l 18.58,-14.488"
         style="fill:#706d6e;fill-opacity:1;fill-rule:nonzero;stroke:none"
         id="path3484"
         inkscape:connector-curvature="0" /><path
         d="m 4932.55,634.574 c 0,6.719 -0.21,13.02 -0.63,18.903 -0.43,5.875 -0.62,11.23 -0.62,16.066 l 23.3,0 c 0,-3.996 0.11,-7.984 0.31,-11.977 0.22,-3.988 0.32,-8.086 0.32,-12.285 l 0.64,0 c 1.68,3.571 4.03,7.039 7.08,10.399 3.04,3.359 6.67,6.347 10.87,8.976 4.2,2.625 8.92,4.723 14.18,6.301 5.24,1.57 10.92,2.363 17.01,2.363 7.97,0 14.64,-1 20,-2.992 5.35,-2 9.8,-4.41 13.38,-7.246 3.57,-2.832 6.35,-5.879 8.35,-9.137 2,-3.257 3.62,-6.14 4.88,-8.664 5.46,8.824 11.77,15.699 18.9,20.637 7.15,4.93 16.38,7.402 27.72,7.402 10.5,0 19.33,-1.422 26.46,-4.254 7.15,-2.836 12.92,-6.925 17.32,-12.285 4.42,-5.355 7.57,-11.863 9.45,-19.531 1.9,-7.664 2.84,-16.219 2.84,-25.672 l 0,-89.461 -24.57,0 0,88.199 c 0,5.043 -0.52,9.977 -1.57,14.805 -1.05,4.828 -2.95,9.137 -5.67,12.914 -2.73,3.785 -6.42,6.828 -11.03,9.137 -4.62,2.308 -10.5,3.469 -17.63,3.469 -5.26,0 -10.2,-1.055 -14.81,-3.153 -4.63,-2.101 -8.67,-5.039 -12.13,-8.82 -3.46,-3.781 -6.2,-8.348 -8.19,-13.703 -2,-5.356 -3,-11.289 -3,-17.797 l 0,-85.051 -24.57,0 0,83.481 c 0,16.375 -2.19,27.976 -6.61,34.8 -4.4,6.825 -11.65,10.243 -21.73,10.243 -7.99,0 -14.86,-1.368 -20.63,-4.098 -5.78,-2.73 -10.51,-6.617 -14.18,-11.656 -3.67,-5.039 -6.41,-11.024 -8.2,-17.953 -1.77,-6.93 -2.67,-14.598 -2.67,-22.993 l 0,-71.824 -24.57,0 0,112.457"
         style="fill:#706d6e;fill-opacity:1;fill-rule:nonzero;stroke:none"
         id="path3486"
         inkscape:connector-curvature="0" /><path
         d="m 5203.13,669.543 24.58,0 0,-147.426 -24.58,0 0,147.426 z m -5.66,57.641 c 0,4.828 1.73,9.027 5.2,12.601 3.45,3.57 7.71,5.352 12.75,5.352 5.04,0 9.3,-1.782 12.75,-5.352 3.48,-3.574 5.21,-7.773 5.21,-12.601 0,-5.25 -1.69,-9.555 -5.05,-12.918 -3.36,-3.36 -7.66,-5.039 -12.91,-5.039 -5.25,0 -9.55,1.679 -12.91,5.039 -3.36,3.363 -5.04,7.668 -5.04,12.918"
         style="fill:#706d6e;fill-opacity:1;fill-rule:nonzero;stroke:none"
         id="path3488"
         inkscape:connector-curvature="0" /><path
         d="m 5381.42,632.684 c -5.25,6.3 -10.92,10.867 -17.01,13.703 -6.09,2.836 -12.81,4.254 -20.16,4.254 -8.19,0 -15.43,-1.418 -21.73,-4.254 -6.3,-2.836 -11.49,-6.774 -15.6,-11.813 -4.09,-5.039 -7.18,-10.867 -9.29,-17.484 -2.09,-6.613 -3.15,-13.699 -3.15,-21.262 0,-7.558 1.21,-14.648 3.63,-21.262 2.41,-6.617 5.77,-12.441 10.07,-17.48 4.31,-5.039 9.51,-8.981 15.6,-11.813 6.09,-2.835 12.91,-4.253 20.47,-4.253 16.17,0 28.67,6.089 37.49,18.265 l 18.27,-17.32 c -7.15,-8.192 -15.55,-14.176 -25.2,-17.957 -9.66,-3.778 -19.85,-5.668 -30.56,-5.668 -11.33,0 -21.73,1.89 -31.18,5.668 -9.45,3.781 -17.48,9.137 -24.1,16.066 -6.62,6.93 -11.76,15.121 -15.43,24.571 -3.69,9.449 -5.52,19.843 -5.52,31.183 0,11.129 1.83,21.422 5.52,30.871 3.67,9.449 8.86,17.641 15.59,24.571 6.72,6.929 14.75,12.332 24.1,16.218 9.34,3.891 19.69,5.832 31.02,5.832 10.92,0 21.27,-1.89 31.03,-5.668 9.77,-3.785 18.32,-9.664 25.67,-17.64 l -19.53,-17.328"
         style="fill:#706d6e;fill-opacity:1;fill-rule:nonzero;stroke:none"
         id="path3490"
         inkscape:connector-curvature="0" /><path
         d="m 5520.34,745.137 26.46,0 0,-198.449 102.06,0 0,-24.571 -128.52,0 0,223.02"
         style="fill:#706d6e;fill-opacity:1;fill-rule:nonzero;stroke:none"
         id="path3492"
         inkscape:connector-curvature="0" /><path
         d="m 5675.63,669.543 24.58,0 0,-147.426 -24.58,0 0,147.426 z m -5.67,57.641 c 0,4.828 1.73,9.027 5.21,12.601 3.45,3.57 7.71,5.352 12.75,5.352 5.04,0 9.3,-1.782 12.75,-5.352 3.47,-3.574 5.2,-7.773 5.2,-12.601 0,-5.25 -1.68,-9.555 -5.04,-12.918 -3.36,-3.36 -7.67,-5.039 -12.91,-5.039 -5.25,0 -9.56,1.679 -12.92,5.039 -3.36,3.363 -5.04,7.668 -5.04,12.918"
         style="fill:#706d6e;fill-opacity:1;fill-rule:nonzero;stroke:none"
         id="path3494"
         inkscape:connector-curvature="0" /><path
         d="m 5761.62,648.75 -32.13,0 0,20.793 32.13,0 0,33.07 c 0,9.028 0.84,17.27 2.52,24.731 1.68,7.453 4.57,13.906 8.66,19.371 4.1,5.457 9.5,9.711 16.23,12.758 6.72,3.043 15,4.566 24.89,4.566 3.14,0 6.5,-0.312 10.07,-0.945 3.58,-0.629 6.51,-1.574 8.82,-2.836 l -3.46,-22.051 c -5.88,2.102 -11.45,3.148 -16.7,3.148 -6.29,0 -11.23,-1.097 -14.81,-3.304 -3.57,-2.207 -6.25,-5.254 -8.03,-9.133 -1.78,-3.891 -2.83,-8.563 -3.14,-14.02 -0.31,-5.464 -0.48,-11.339 -0.48,-17.636 l 0,-27.719 35.91,0 0,-20.793 -35.91,0 0,-126.633 -24.57,0 0,126.633"
         style="fill:#706d6e;fill-opacity:1;fill-rule:nonzero;stroke:none"
         id="path3496"
         inkscape:connector-curvature="0" /><path
         d="m 5958.81,609.059 c -0.42,12.601 -4.52,22.679 -12.29,30.238 -7.77,7.562 -18.48,11.344 -32.14,11.344 -13.65,0 -24.66,-3.782 -33.06,-11.344 -8.4,-7.559 -13.44,-17.637 -15.12,-30.238 l 92.61,0 z m 21.1,-60.164 c -8.82,-11.34 -18.47,-19.27 -28.98,-23.782 -10.5,-4.511 -22.68,-6.773 -36.55,-6.773 -11.54,0 -21.93,2.047 -31.17,6.14 -9.25,4.094 -17.07,9.606 -23.47,16.54 -6.41,6.929 -11.34,15.117 -14.81,24.57 -3.46,9.449 -5.19,19.527 -5.19,30.238 0,11.34 1.89,21.785 5.66,31.344 3.79,9.551 9.03,17.746 15.76,24.57 6.72,6.821 14.69,12.125 23.94,15.91 9.24,3.778 19.31,5.668 30.24,5.668 10.29,0 19.73,-1.734 28.34,-5.199 8.61,-3.465 16.02,-8.508 22.21,-15.117 6.19,-6.617 10.98,-14.703 14.33,-24.258 3.36,-9.558 5.04,-20.426 5.04,-32.605 l 0,-7.871 -119.06,0 c 0.41,-6.301 1.93,-12.34 4.56,-18.114 2.63,-5.777 6.04,-10.82 10.25,-15.117 4.2,-4.309 9.13,-7.719 14.8,-10.238 5.66,-2.52 11.86,-3.781 18.57,-3.781 10.73,0 19.75,1.89 27.09,5.668 7.36,3.781 13.97,9.343 19.86,16.695 l 18.58,-14.488"
         style="fill:#706d6e;fill-opacity:1;fill-rule:nonzero;stroke:none"
         id="path3498"
         inkscape:connector-curvature="0" /><path
         d="m 6113.15,669.543 24.57,0 0,-147.426 -24.57,0 0,147.426 z m -5.66,57.641 c 0,4.828 1.73,9.027 5.2,12.601 3.45,3.57 7.71,5.352 12.75,5.352 5.04,0 9.3,-1.782 12.75,-5.352 3.48,-3.574 5.21,-7.773 5.21,-12.601 0,-5.25 -1.69,-9.555 -5.05,-12.918 -3.36,-3.36 -7.66,-5.039 -12.91,-5.039 -5.25,0 -9.55,1.679 -12.91,5.039 -3.36,3.363 -5.04,7.668 -5.04,12.918"
         style="fill:#706d6e;fill-opacity:1;fill-rule:nonzero;stroke:none"
         id="path3500"
         inkscape:connector-curvature="0" /><path
         d="m 6186.55,634.574 c 0,6.719 -0.21,13.02 -0.62,18.903 -0.43,5.875 -0.64,11.23 -0.64,16.066 l 23.31,0 c 0,-3.996 0.1,-7.984 0.32,-11.977 0.21,-3.988 0.31,-8.086 0.31,-12.285 l 0.63,0 c 1.68,3.571 4.04,7.039 7.08,10.399 3.05,3.359 6.67,6.347 10.88,8.976 4.2,2.625 8.92,4.723 14.17,6.301 5.25,1.57 10.92,2.363 17.01,2.363 9.66,0 18,-1.472 25.04,-4.41 7.04,-2.941 12.86,-7.039 17.49,-12.285 4.61,-5.254 8.03,-11.605 10.24,-19.059 2.2,-7.453 3.3,-15.593 3.3,-24.414 l 0,-91.035 -24.57,0 0,88.52 c 0,12.386 -2.74,22.152 -8.19,29.289 -5.46,7.14 -13.96,10.715 -25.51,10.715 -7.98,0 -14.86,-1.368 -20.64,-4.098 -5.78,-2.73 -10.51,-6.617 -14.18,-11.656 -3.67,-5.039 -6.4,-11.024 -8.18,-17.953 -1.79,-6.93 -2.68,-14.598 -2.68,-22.993 l 0,-71.824 -24.57,0 0,112.457"
         style="fill:#706d6e;fill-opacity:1;fill-rule:nonzero;stroke:none"
         id="path3502"
         inkscape:connector-curvature="0" /><path
         d="m 4032.29,385.137 140.18,0 0,-24.571 -113.72,0 0,-69.921 106.16,0 0,-24.571 -106.16,0 0,-79.386 119.38,0 0,-24.571 -145.84,0 0,223.02"
         style="fill:#706d6e;fill-opacity:1;fill-rule:nonzero;stroke:none"
         id="path3504"
         inkscape:connector-curvature="0" /><path
         d="m 4214.68,274.57 c 0,6.719 -0.22,13.028 -0.64,18.907 -0.42,5.878 -0.63,11.23 -0.63,16.066 l 23.32,0 c 0,-3.996 0.1,-7.98 0.31,-11.977 0.21,-3.992 0.31,-8.086 0.31,-12.285 l 0.63,0 c 1.68,3.567 4.04,7.043 7.09,10.403 3.05,3.359 6.66,6.347 10.87,8.972 4.2,2.629 8.91,4.719 14.17,6.301 5.25,1.57 10.92,2.363 17.01,2.363 7.99,0 14.65,-0.996 20,-2.988 5.36,-2.004 9.82,-4.414 13.4,-7.246 3.56,-2.832 6.35,-5.879 8.34,-9.141 1.99,-3.261 3.62,-6.14 4.88,-8.664 5.46,8.821 11.76,15.696 18.91,20.637 7.13,4.93 16.37,7.402 27.71,7.402 10.5,0 19.32,-1.425 26.47,-4.257 7.13,-2.833 12.91,-6.922 17.32,-12.286 4.41,-5.351 7.56,-11.855 9.45,-19.531 1.89,-7.656 2.84,-16.211 2.84,-25.664 l 0,-89.465 -24.57,0 0,88.196 c 0,5.046 -0.53,9.98 -1.59,14.804 -1.05,4.832 -2.94,9.141 -5.66,12.918 -2.74,3.781 -6.41,6.828 -11.03,9.133 -4.62,2.312 -10.49,3.477 -17.64,3.477 -5.26,0 -10.19,-1.055 -14.81,-3.157 -4.62,-2.097 -8.65,-5.039 -12.13,-8.816 -3.45,-3.789 -6.19,-8.352 -8.18,-13.711 -1.99,-5.352 -2.99,-11.289 -2.99,-17.793 l 0,-85.051 -24.57,0 0,83.481 c 0,16.375 -2.21,27.976 -6.62,34.8 -4.41,6.829 -11.66,10.247 -21.74,10.247 -7.98,0 -14.85,-1.368 -20.62,-4.102 -5.78,-2.734 -10.51,-6.621 -14.18,-11.66 -3.67,-5.039 -6.41,-11.016 -8.19,-17.949 -1.79,-6.934 -2.67,-14.598 -2.67,-22.989 l 0,-71.828 -24.57,0 0,112.453"
         style="fill:#706d6e;fill-opacity:1;fill-rule:nonzero;stroke:none"
         id="path3506"
         inkscape:connector-curvature="0" /><path
         d="m 4593.61,249.063 c -0.42,12.597 -4.52,22.675 -12.28,30.234 -7.78,7.558 -18.49,11.348 -32.14,11.348 -13.65,0 -24.67,-3.79 -33.07,-11.348 -8.4,-7.559 -13.43,-17.637 -15.11,-30.234 l 92.6,0 z m 21.11,-60.168 c -8.82,-11.336 -18.48,-19.266 -28.99,-23.778 -10.5,-4.512 -22.67,-6.777 -36.54,-6.777 -11.54,0 -21.93,2.051 -31.17,6.14 -9.25,4.094 -17.07,9.602 -23.48,16.536 -6.41,6.933 -11.34,15.117 -14.8,24.57 -3.46,9.453 -5.2,19.531 -5.2,30.242 0,11.34 1.9,21.789 5.67,31.34 3.78,9.551 9.03,17.754 15.76,24.57 6.72,6.825 14.68,12.129 23.93,15.918 9.24,3.77 19.32,5.664 30.25,5.664 10.28,0 19.72,-1.738 28.34,-5.195 8.61,-3.469 16.01,-8.516 22.2,-15.117 6.19,-6.621 10.98,-14.707 14.34,-24.258 3.36,-9.562 5.04,-20.43 5.04,-32.609 l 0,-7.871 -119.06,0 c 0.41,-6.297 1.93,-12.34 4.56,-18.114 2.62,-5.781 6.03,-10.82 10.24,-15.117 4.2,-4.309 9.13,-7.715 14.81,-10.234 5.66,-2.52 11.85,-3.789 18.57,-3.789 10.72,0 19.75,1.894 27.09,5.672 7.35,3.781 13.96,9.347 19.85,16.691 l 18.59,-14.484"
         style="fill:#706d6e;fill-opacity:1;fill-rule:nonzero;stroke:none"
         id="path3508"
         inkscape:connector-curvature="0" /><path
         d="m 4658.19,274.57 c 0,6.719 -0.21,13.028 -0.63,18.907 -0.42,5.878 -0.64,11.23 -0.64,16.066 l 23.32,0 c 0,-3.996 0.1,-7.98 0.32,-11.977 0.2,-3.992 0.31,-8.086 0.31,-12.285 l 0.62,0 c 1.68,3.567 4.05,7.043 7.09,10.403 3.05,3.359 6.66,6.347 10.87,8.972 4.2,2.629 8.92,4.719 14.17,6.301 5.26,1.57 10.92,2.363 17.01,2.363 1.68,0 3.36,-0.105 5.04,-0.312 1.68,-0.215 3.36,-0.637 5.04,-1.27 l -1.57,-24.883 c -4.2,1.27 -8.61,1.895 -13.23,1.895 -15.12,0 -26.1,-4.883 -32.91,-14.648 -6.84,-9.766 -10.24,-23.157 -10.24,-40.157 l 0,-71.828 -24.57,0 0,112.453"
         style="fill:#706d6e;fill-opacity:1;fill-rule:nonzero;stroke:none"
         id="path3510"
         inkscape:connector-curvature="0" /><path
         d="m 4781.36,235.828 c 0,-7.558 1.35,-14.539 4.09,-20.945 2.72,-6.406 6.45,-11.973 11.18,-16.699 4.73,-4.727 10.24,-8.457 16.54,-11.18 6.29,-2.727 13.01,-4.094 20.16,-4.094 8.4,0 15.85,1.465 22.36,4.414 6.51,2.93 12.02,6.875 16.55,11.809 4.51,4.93 7.92,10.594 10.23,17.008 2.31,6.398 3.46,13.175 3.46,20.324 0,7.969 -1.25,15.273 -3.77,21.883 -2.52,6.613 -6.1,12.336 -10.71,17.168 -4.62,4.836 -10.19,8.554 -16.7,11.183 -6.52,2.625 -13.66,3.946 -21.42,3.946 -7.77,0 -14.86,-1.426 -21.27,-4.258 -6.41,-2.832 -11.85,-6.719 -16.38,-11.66 -4.52,-4.93 -8.03,-10.704 -10.55,-17.325 -2.52,-6.609 -3.77,-13.808 -3.77,-21.574 z M 4910.5,168.73 c 0,-26.875 -6.88,-47.296 -20.63,-61.269 -13.76,-13.9649 -33.65,-20.9376 -59.69,-20.9376 -14.49,0 -27.56,2.0977 -39.21,6.2891 -11.66,4.207 -22.74,11.4535 -33.25,21.7385 l 17.64,20.156 c 7.77,-8.391 16.02,-14.746 24.74,-19.055 8.71,-4.304 18.74,-6.453 30.08,-6.453 10.91,0 20.01,1.629 27.25,4.883 7.24,3.262 12.96,7.664 17.17,13.223 4.19,5.566 7.13,11.933 8.81,19.062 1.68,7.149 2.52,14.602 2.52,22.363 l 0,18.907 -0.63,0 c -5.88,-9.453 -13.54,-16.387 -22.99,-20.789 -9.45,-4.407 -19.12,-6.614 -28.98,-6.614 -11.55,0 -22.16,1.883 -31.82,5.664 -9.66,3.782 -17.95,9.024 -24.88,15.75 -6.93,6.719 -12.28,14.7 -16.07,23.938 -3.77,9.238 -5.67,19.316 -5.67,30.242 0,11.965 1.9,22.785 5.67,32.453 3.79,9.649 9.08,17.793 15.91,24.403 6.82,6.613 15.06,11.711 24.73,15.285 9.65,3.562 20.36,5.351 32.13,5.351 5.04,0 10.08,-0.586 15.12,-1.738 5.04,-1.152 9.92,-2.941 14.65,-5.352 4.72,-2.421 8.98,-5.468 12.75,-9.14 3.79,-3.672 6.93,-7.918 9.45,-12.754 l 0.63,0 0,25.207 24.57,0 0,-140.813"
         style="fill:#706d6e;fill-opacity:1;fill-rule:nonzero;stroke:none"
         id="path3512"
         inkscape:connector-curvature="0" /><path
         d="m 5066.43,249.063 c -0.42,12.597 -4.53,22.675 -12.29,30.234 -7.77,7.558 -18.49,11.348 -32.14,11.348 -13.65,0 -24.67,-3.79 -33.06,-11.348 -8.4,-7.559 -13.44,-17.637 -15.12,-30.234 l 92.61,0 z m 21.1,-60.168 c -8.82,-11.336 -18.48,-19.266 -28.99,-23.778 -10.49,-4.512 -22.67,-6.777 -36.54,-6.777 -11.54,0 -21.93,2.051 -31.17,6.14 -9.25,4.094 -17.07,9.602 -23.48,16.536 -6.4,6.933 -11.33,15.117 -14.8,24.57 -3.46,9.453 -5.2,19.531 -5.2,30.242 0,11.34 1.9,21.789 5.67,31.34 3.79,9.551 9.03,17.754 15.76,24.57 6.72,6.825 14.69,12.129 23.93,15.918 9.24,3.77 19.32,5.664 30.25,5.664 10.28,0 19.73,-1.738 28.34,-5.195 8.61,-3.469 16.01,-8.516 22.21,-15.117 6.19,-6.621 10.97,-14.707 14.33,-24.258 3.36,-9.562 5.04,-20.43 5.04,-32.609 l 0,-7.871 -119.06,0 c 0.41,-6.297 1.93,-12.34 4.56,-18.114 2.63,-5.781 6.03,-10.82 10.24,-15.117 4.2,-4.309 9.13,-7.715 14.81,-10.234 5.66,-2.52 11.85,-3.789 18.57,-3.789 10.72,0 19.75,1.894 27.09,5.672 7.36,3.781 13.97,9.347 19.86,16.691 l 18.58,-14.484"
         style="fill:#706d6e;fill-opacity:1;fill-rule:nonzero;stroke:none"
         id="path3514"
         inkscape:connector-curvature="0" /><path
         d="m 5131.01,274.57 c 0,6.719 -0.22,13.028 -0.64,18.907 -0.42,5.878 -0.63,11.23 -0.63,16.066 l 23.32,0 c 0,-3.996 0.09,-7.98 0.31,-11.977 0.2,-3.992 0.31,-8.086 0.31,-12.285 l 0.63,0 c 1.68,3.567 4.04,7.043 7.09,10.403 3.04,3.359 6.66,6.347 10.87,8.972 4.19,2.629 8.91,4.719 14.17,6.301 5.25,1.57 10.91,2.363 17.01,2.363 9.66,0 18.01,-1.472 25.04,-4.414 7.04,-2.937 12.87,-7.031 17.49,-12.285 4.62,-5.254 8.03,-11.601 10.23,-19.055 2.21,-7.449 3.31,-15.593 3.31,-24.414 l 0,-91.035 -24.57,0 0,88.52 c 0,12.39 -2.73,22.156 -8.18,29.285 -5.47,7.148 -13.98,10.723 -25.53,10.723 -7.98,0 -14.85,-1.368 -20.62,-4.102 -5.79,-2.734 -10.51,-6.621 -14.18,-11.66 -3.68,-5.039 -6.41,-11.016 -8.19,-17.949 -1.79,-6.934 -2.67,-14.598 -2.67,-22.989 l 0,-71.828 -24.57,0 0,112.453"
         style="fill:#706d6e;fill-opacity:1;fill-rule:nonzero;stroke:none"
         id="path3516"
         inkscape:connector-curvature="0" /><path
         d="m 5411.04,272.684 c -5.25,6.3 -10.92,10.871 -17.01,13.703 -6.09,2.832 -12.81,4.258 -20.16,4.258 -8.2,0 -15.44,-1.426 -21.73,-4.258 -6.31,-2.832 -11.51,-6.778 -15.61,-11.817 -4.08,-5.039 -7.18,-10.859 -9.28,-17.48 -2.1,-6.613 -3.16,-13.699 -3.16,-21.262 0,-7.558 1.21,-14.648 3.63,-21.258 2.41,-6.621 5.77,-12.441 10.08,-17.48 4.3,-5.039 9.49,-8.985 15.59,-11.817 6.09,-2.832 12.92,-4.257 20.48,-4.257 16.16,0 28.66,6.093 37.49,18.269 l 18.26,-17.32 c -7.14,-8.195 -15.55,-14.172 -25.2,-17.961 -9.66,-3.77 -19.84,-5.664 -30.55,-5.664 -11.34,0 -21.73,1.894 -31.18,5.664 -9.46,3.789 -17.48,9.141 -24.11,16.074 -6.62,6.926 -11.75,15.117 -15.43,24.57 -3.68,9.446 -5.51,19.844 -5.51,31.18 0,11.125 1.83,21.418 5.51,30.871 3.68,9.453 8.87,17.637 15.59,24.571 6.72,6.933 14.75,12.332 24.1,16.218 9.34,3.891 19.69,5.832 31.03,5.832 10.92,0 21.26,-1.894 31.02,-5.664 9.77,-3.789 18.32,-9.668 25.68,-17.644 l -19.53,-17.328"
         style="fill:#706d6e;fill-opacity:1;fill-rule:nonzero;stroke:none"
         id="path3518"
         inkscape:connector-curvature="0" /><path
         d="m 5512.15,128.418 c -2.52,-6.309 -5.09,-12.023 -7.73,-17.168 -2.61,-5.148 -5.77,-9.551 -9.44,-13.2344 -3.68,-3.6679 -8.09,-6.5117 -13.23,-8.5039 -5.15,-1.9922 -11.39,-2.9883 -18.74,-2.9883 -3.58,0 -7.3,0.2032 -11.18,0.625 -3.89,0.4297 -7.51,1.4727 -10.87,3.1446 l 3.15,21.426 c 2.52,-1.055 5.14,-1.739 7.87,-2.051 2.74,-0.313 5.88,-0.469 9.46,-0.469 7.96,0 13.85,2.207 17.63,6.621 3.78,4.403 7.03,10.282 9.77,17.637 l 10.08,27.715 -61.12,148.371 28.67,0 45.68,-115.609 0.63,0 43.78,115.609 26.78,0 -71.19,-181.125"
         style="fill:#706d6e;fill-opacity:1;fill-rule:nonzero;stroke:none"
         id="path3520"
         inkscape:connector-curvature="0" /><path
         d="m 5701.78,385.137 39.37,0 75.6,-174.824 0.63,0 76.23,174.824 38.43,0 0,-223.02 -26.46,0 0,187.11 -0.63,0 -80.01,-187.11 -16.06,0 -80.01,187.11 -0.64,0 0,-187.11 -26.45,0 0,223.02"
         style="fill:#706d6e;fill-opacity:1;fill-rule:nonzero;stroke:none"
         id="path3522"
         inkscape:connector-curvature="0" /><path
         d="m 6093.64,249.063 c -0.43,12.597 -4.53,22.675 -12.28,30.234 -7.78,7.558 -18.49,11.348 -32.14,11.348 -13.65,0 -24.68,-3.79 -33.08,-11.348 -8.4,-7.559 -13.43,-17.637 -15.11,-30.234 l 92.61,0 z m 21.1,-60.168 c -8.81,-11.336 -18.48,-19.266 -28.98,-23.778 -10.5,-4.512 -22.68,-6.777 -36.54,-6.777 -11.55,0 -21.94,2.051 -31.18,6.14 -9.24,4.094 -17.07,9.602 -23.47,16.536 -6.42,6.933 -11.34,15.117 -14.8,24.57 -3.47,9.453 -5.21,19.531 -5.21,30.242 0,11.34 1.9,21.789 5.67,31.34 3.78,9.551 9.04,17.754 15.76,24.57 6.72,6.825 14.69,12.129 23.94,15.918 9.24,3.77 19.32,5.664 30.24,5.664 10.29,0 19.73,-1.738 28.35,-5.195 8.6,-3.469 16,-8.516 22.2,-15.117 6.19,-6.621 10.97,-14.707 14.33,-24.258 3.36,-9.562 5.05,-20.43 5.05,-32.609 l 0,-7.871 -119.07,0 c 0.42,-6.297 1.93,-12.34 4.57,-18.114 2.61,-5.781 6.03,-10.82 10.23,-15.117 4.2,-4.309 9.14,-7.715 14.8,-10.234 5.67,-2.52 11.86,-3.789 18.59,-3.789 10.71,0 19.74,1.894 27.09,5.672 7.35,3.781 13.96,9.347 19.85,16.691 l 18.58,-14.484"
         style="fill:#706d6e;fill-opacity:1;fill-rule:nonzero;stroke:none"
         id="path3524"
         inkscape:connector-curvature="0" /><path
         d="m 6280.75,235.828 c 0,7.766 -1.21,14.965 -3.63,21.574 -2.41,6.621 -5.93,12.395 -10.55,17.325 -4.62,4.941 -10.13,8.828 -16.54,11.66 -6.41,2.832 -13.59,4.258 -21.57,4.258 -7.98,0 -15.18,-1.426 -21.58,-4.258 -6.4,-2.832 -11.92,-6.719 -16.54,-11.66 -4.62,-4.93 -8.14,-10.704 -10.55,-17.325 -2.42,-6.609 -3.63,-13.808 -3.63,-21.574 0,-7.773 1.21,-14.969 3.63,-21.57 2.41,-6.621 5.93,-12.403 10.55,-17.324 4.62,-4.942 10.14,-8.829 16.54,-11.661 6.4,-2.832 13.6,-4.257 21.58,-4.257 7.98,0 15.16,1.425 21.57,4.257 6.41,2.832 11.92,6.719 16.54,11.661 4.62,4.921 8.14,10.703 10.55,17.324 2.42,6.601 3.63,13.797 3.63,21.57 z m 0,-47.566 -0.63,0 c -4.62,-8.399 -11.93,-15.489 -21.9,-21.258 -9.97,-5.774 -21.57,-8.664 -34.8,-8.664 -10.29,0 -19.95,1.941 -28.98,5.82 -9.04,3.887 -16.85,9.297 -23.47,16.231 -6.61,6.933 -11.82,15.117 -15.59,24.57 -3.79,9.453 -5.67,19.734 -5.67,30.867 0,11.125 1.88,21.418 5.67,30.871 3.77,9.453 9.02,17.637 15.74,24.571 6.72,6.933 14.87,12.332 24.42,16.218 9.55,3.891 20.1,5.832 31.66,5.832 10.7,0 20.52,-2.207 29.45,-6.621 8.93,-4.402 16.74,-10.605 23.47,-18.574 l 0.63,0 0,112.129 24.57,0 0,-238.137 -24.57,0 0,26.145"
         style="fill:#706d6e;fill-opacity:1;fill-rule:nonzero;stroke:none"
         id="path3526"
         inkscape:connector-curvature="0" /><path
         d="m 6353.19,309.543 24.57,0 0,-147.426 -24.57,0 0,147.426 z m -5.67,57.645 c 0,4.824 1.73,9.023 5.2,12.597 3.46,3.574 7.72,5.352 12.76,5.352 5.04,0 9.3,-1.778 12.75,-5.352 3.47,-3.574 5.2,-7.773 5.2,-12.597 0,-5.254 -1.68,-9.559 -5.04,-12.922 -3.36,-3.36 -7.67,-5.039 -12.91,-5.039 -5.26,0 -9.56,1.679 -12.92,5.039 -3.36,3.363 -5.04,7.668 -5.04,12.922"
         style="fill:#706d6e;fill-opacity:1;fill-rule:nonzero;stroke:none"
         id="path3528"
         inkscape:connector-curvature="0" /><path
         d="m 6531.47,272.684 c -5.25,6.3 -10.91,10.871 -17.01,13.703 -6.09,2.832 -12.81,4.258 -20.15,4.258 -8.19,0 -15.43,-1.426 -21.74,-4.258 -6.3,-2.832 -11.5,-6.778 -15.59,-11.817 -4.1,-5.039 -7.19,-10.859 -9.29,-17.48 -2.1,-6.613 -3.15,-13.699 -3.15,-21.262 0,-7.558 1.2,-14.648 3.61,-21.258 2.43,-6.621 5.79,-12.441 10.08,-17.48 4.31,-5.039 9.51,-8.985 15.61,-11.817 6.08,-2.832 12.91,-4.257 20.47,-4.257 16.17,0 28.67,6.093 37.48,18.269 l 18.28,-17.32 c -7.15,-8.195 -15.55,-14.172 -25.21,-17.961 -9.65,-3.77 -19.85,-5.664 -30.55,-5.664 -11.34,0 -21.74,1.894 -31.19,5.664 -9.45,3.789 -17.49,9.141 -24.1,16.074 -6.61,6.926 -11.76,15.117 -15.44,24.57 -3.67,9.446 -5.5,19.844 -5.5,31.18 0,11.125 1.83,21.418 5.5,30.871 3.68,9.453 8.87,17.637 15.6,24.571 6.72,6.933 14.76,12.332 24.1,16.218 9.35,3.891 19.69,5.832 31.03,5.832 10.91,0 21.27,-1.894 31.02,-5.664 9.77,-3.789 18.32,-9.668 25.68,-17.644 l -19.54,-17.328"
         style="fill:#706d6e;fill-opacity:1;fill-rule:nonzero;stroke:none"
         id="path3530"
         inkscape:connector-curvature="0" /><path
         d="m 6580.62,309.543 24.57,0 0,-147.426 -24.57,0 0,147.426 z m -5.67,57.645 c 0,4.824 1.73,9.023 5.2,12.597 3.45,3.574 7.71,5.352 12.75,5.352 5.04,0 9.3,-1.778 12.75,-5.352 3.48,-3.574 5.21,-7.773 5.21,-12.597 0,-5.254 -1.69,-9.559 -5.05,-12.922 -3.36,-3.36 -7.66,-5.039 -12.91,-5.039 -5.25,0 -9.55,1.679 -12.91,5.039 -3.36,3.363 -5.04,7.668 -5.04,12.922"
         style="fill:#706d6e;fill-opacity:1;fill-rule:nonzero;stroke:none"
         id="path3532"
         inkscape:connector-curvature="0" /><path
         d="m 6654.01,274.57 c 0,6.719 -0.21,13.028 -0.63,18.907 -0.42,5.878 -0.64,11.23 -0.64,16.066 l 23.32,0 c 0,-3.996 0.1,-7.98 0.32,-11.977 0.2,-3.992 0.31,-8.086 0.31,-12.285 l 0.62,0 c 1.68,3.567 4.05,7.043 7.09,10.403 3.05,3.359 6.66,6.347 10.87,8.972 4.2,2.629 8.92,4.719 14.17,6.301 5.26,1.57 10.92,2.363 17.02,2.363 9.65,0 18,-1.472 25.03,-4.414 7.05,-2.937 12.88,-7.031 17.49,-12.285 4.62,-5.254 8.04,-11.601 10.24,-19.055 2.21,-7.449 3.31,-15.593 3.31,-24.414 l 0,-91.035 -24.57,0 0,88.52 c 0,12.39 -2.74,22.156 -8.18,29.285 -5.47,7.148 -13.98,10.723 -25.53,10.723 -7.98,0 -14.86,-1.368 -20.63,-4.102 -5.78,-2.734 -10.5,-6.621 -14.18,-11.66 -3.67,-5.039 -6.4,-11.016 -8.18,-17.949 -1.8,-6.934 -2.68,-14.598 -2.68,-22.989 l 0,-71.828 -24.57,0 0,112.453"
         style="fill:#706d6e;fill-opacity:1;fill-rule:nonzero;stroke:none"
         id="path3534"
         inkscape:connector-curvature="0" /><path
         d="m 6939.72,249.063 c -0.43,12.597 -4.52,22.675 -12.29,30.234 -7.77,7.558 -18.47,11.348 -32.13,11.348 -13.65,0 -24.68,-3.79 -33.07,-11.348 -8.41,-7.559 -13.45,-17.637 -15.13,-30.234 l 92.62,0 z m 21.1,-60.168 c -8.82,-11.336 -18.49,-19.266 -28.97,-23.778 -10.51,-4.512 -22.69,-6.777 -36.55,-6.777 -11.55,0 -21.95,2.051 -31.19,6.14 -9.24,4.094 -17.06,9.602 -23.46,16.536 -6.41,6.933 -11.34,15.117 -14.8,24.57 -3.48,9.453 -5.21,19.531 -5.21,30.242 0,11.34 1.89,21.789 5.68,31.34 3.77,9.551 9.02,17.754 15.74,24.57 6.72,6.825 14.71,12.129 23.95,15.918 9.23,3.77 19.31,5.664 30.23,5.664 10.29,0 19.75,-1.738 28.36,-5.195 8.6,-3.469 16.01,-8.516 22.21,-15.117 6.19,-6.621 10.96,-14.707 14.32,-24.258 3.36,-9.562 5.05,-20.43 5.05,-32.609 l 0,-7.871 -119.08,0 c 0.43,-6.297 1.94,-12.34 4.57,-18.114 2.63,-5.781 6.04,-10.82 10.23,-15.117 4.2,-4.309 9.14,-7.715 14.81,-10.234 5.67,-2.52 11.86,-3.789 18.59,-3.789 10.71,0 19.73,1.894 27.09,5.672 7.35,3.781 13.97,9.347 19.85,16.691 l 18.58,-14.484"
         style="fill:#706d6e;fill-opacity:1;fill-rule:nonzero;stroke:none"
         id="path3536"
         inkscape:connector-curvature="0" /></g></g></svg>