<?xml version="1.0" encoding="UTF-8"?>
<!DOCTYPE svg PUBLIC "-//W3C//DTD SVG 1.1//EN" "http://www.w3.org/Graphics/SVG/1.1/DTD/svg11.dtd">
<svg version="1.1" xmlns="http://www.w3.org/2000/svg" xmlns:xlink="http://www.w3.org/1999/xlink" x="0" y="0" width="410" height="107.218" viewBox="0, 0, 410, 107.218">
  <g id="ink_ext_XXXXXX">
    <g>
      <path d="M358.721,58.202 C359.812,58.037 360.943,57.902 362.104,57.797 C362.286,57.214 362.604,56.666 363.064,56.203 C360.536,52.27 357.41,49.392 354.513,47.341 L349.106,52.748 L355.2,58.842 C356.346,58.601 357.518,58.384 358.721,58.202" fill="#00B092" id="path3448"/>
      <path d="M368.659,61.677 C368.924,62.422 369.166,63.178 369.382,63.946 C370.345,63.974 371.3,64.352 372.035,65.088 C372.912,65.964 373.283,67.152 373.155,68.295 C374.948,69.248 376.684,70.338 378.324,71.601 C379.108,72.205 379.85,72.843 380.564,73.501 C381.098,73.243 381.678,73.108 382.26,73.107 C383.233,70.624 383.982,68.098 384.503,65.532 C384.078,65.342 383.68,65.078 383.332,64.73 C382.652,64.049 382.276,63.181 382.201,62.292 C378.097,61.063 373.879,60.369 369.551,60.206 C369.372,60.741 369.076,61.245 368.659,61.677" fill="#00B092" id="path3450"/>
      <path d="M366.497,65.087 C366.617,64.968 366.744,64.861 366.875,64.76 C366.695,64.114 366.494,63.479 366.278,62.852 C365.136,62.979 363.948,62.607 363.073,61.731 C362.689,61.348 362.402,60.904 362.21,60.43 C361.183,60.53 360.153,60.65 359.114,60.807 C358.551,60.892 357.995,60.987 357.444,61.086 L360.083,63.725 C362.127,64.148 364.195,64.686 366.247,65.364 C366.325,65.269 366.408,65.177 366.497,65.087" fill="#00B092" id="path3452"/>
      <path d="M369.531,86.64 L376.264,79.907 L377.941,81.583 C378.383,80.88 378.807,80.173 379.21,79.461 C378.272,78.288 378.11,76.702 378.718,75.384 C378.079,74.796 377.417,74.227 376.717,73.688 C375.224,72.539 373.638,71.539 371.992,70.664 C371.61,71.036 371.171,71.314 370.702,71.499 C371.065,76.191 370.675,81.244 369.531,86.64" fill="#00B092" id="path3454"/>
      <path d="M368.07,71.583 C367.495,71.399 366.953,71.082 366.497,70.626 C365.736,69.864 365.354,68.867 365.351,67.869 C364.268,67.515 363.179,67.201 362.088,66.924 L349.507,79.506 L363.086,93.085 L365.951,90.22 C367.817,83.447 368.524,77.224 368.07,71.583" fill="#00B092" id="path3456"/>
      <path d="M388.014,55.188 C388.043,56.247 388.034,57.364 387.983,58.529 C388.301,58.703 388.601,58.922 388.87,59.192 C389.779,60.1 390.143,61.344 389.972,62.526 C390.792,62.899 391.617,63.304 392.444,63.727 L403.021,53.15 L389.442,39.571 L386.082,42.93 C387.036,46.185 387.879,50.356 388.014,55.188" fill="#00B092" id="path3458"/>
      <path d="M383.307,80.796 C382.687,80.966 382.036,80.979 381.41,80.839 C380.917,81.711 380.391,82.589 379.829,83.471 L387.617,91.26 C386.745,87.356 385.306,83.861 383.307,80.796" fill="#00B092" id="path3460"/>
      <path d="M365.461,55.065 C366.586,54.956 367.749,55.332 368.61,56.193 C369.024,56.607 369.323,57.092 369.513,57.607 C373.695,57.781 378.167,58.451 382.811,59.84 C382.959,59.61 383.132,59.393 383.332,59.192 C383.909,58.615 384.621,58.257 385.366,58.115 C385.399,57.168 385.407,56.217 385.381,55.262 C385.273,51.374 384.668,47.919 383.933,45.08 L376.264,52.748 L362.685,39.169 L356.418,45.435 C359.508,47.678 362.796,50.804 365.461,55.065" fill="#00B092" id="path3462"/>
      <path d="M389.843,66.328 L390.564,65.607 C389.985,65.319 389.403,65.042 388.819,64.776 C388.321,65.257 387.728,65.578 387.101,65.743 C386.579,68.347 385.801,71.096 384.691,73.946 C384.812,74.041 384.929,74.142 385.04,74.253 C386.409,75.622 386.548,77.748 385.468,79.277 C388.014,83.15 389.725,87.648 390.591,92.739 L403.423,79.907 L389.843,66.328" fill="#00B092" id="path3464"/>
    </g>
    <path d="M48.543,38.493 L39.191,62.418 L58.006,62.418 L48.543,38.493 z M42.019,16.09 L56.047,16.09 L89.543,93.085 L70.403,93.085 L63.769,76.773 L33.862,76.773 L27.446,93.085 L8.742,93.085 L42.019,16.09" fill="#FFFFFF" id="path3466"/>
    <path d="M97.916,16.09 L114.881,16.09 L114.881,77.426 L146.309,77.426 L146.309,93.085 L97.916,93.085 L97.916,16.09" fill="#FFFFFF" id="path3468"/>
    <path d="M153.812,40.232 L170.124,40.232 L170.124,93.085 L153.812,93.085 L153.812,40.232 z M152.507,23.595 C152.507,20.984 153.432,18.755 155.281,16.906 C157.129,15.057 159.358,14.133 161.968,14.133 C164.578,14.133 166.808,15.057 168.657,16.906 C170.506,18.755 171.429,20.984 171.429,23.595 C171.429,26.204 170.506,28.433 168.657,30.282 C166.808,32.131 164.578,33.055 161.968,33.055 C159.358,33.055 157.129,32.131 155.281,30.282 C153.432,28.433 152.507,26.204 152.507,23.595" fill="#FFFFFF" id="path3470"/>
    <path d="M184.588,16.09 L236.897,16.09 L236.897,31.75 L201.553,31.75 L201.553,46.105 L234.939,46.105 L234.939,61.764 L201.553,61.764 L201.553,77.426 L238.854,77.426 L238.854,93.085 L184.588,93.085 L184.588,16.09" fill="#FFFFFF" id="path3472"/>
    <path d="M252.447,16.09 L278.112,16.09 L295.838,66.332 L296.056,66.332 L313.891,16.09 L339.447,16.09 L339.447,93.085 L322.482,93.085 L322.482,34.034 L322.264,34.034 L302.037,93.085 L289.096,93.085 L269.629,34.034 L269.412,34.034 L269.412,93.085 L252.447,93.085 L252.447,16.09" fill="#FFFFFF" id="path3474"/>
  </g>
</svg>
