<?xml version="1.0" encoding="UTF-8"?>
<!DOCTYPE svg PUBLIC "-//W3C//DTD SVG 1.1//EN" "http://www.w3.org/Graphics/SVG/1.1/DTD/svg11.dtd">
<svg version="1.1" xmlns="http://www.w3.org/2000/svg" xmlns:xlink="http://www.w3.org/1999/xlink" x="0" y="0" width="200" height="200" viewBox="0, 0, 200, 200">
  <g id="Layer_1">
    <path d="M200,0 L200,200 L-0,200 L-0,0 L200,0 z M158.56,76.432 C156.119,76.624 157.123,76.47 155.529,76.765 C150.1,78.055 145.394,82.385 143.624,87.719 C142.666,90.604 142.534,94.681 143.311,97.361 C145.288,104.183 151.85,109.068 158.407,108.599 C159.294,108.535 160.021,108.499 160.021,108.519 C160.021,108.538 157.435,112.069 154.274,116.365 C151.113,120.661 148.524,124.264 148.52,124.372 L153.986,128.395 C154.557,128.252 172.646,103.432 173.902,101.068 C177.764,93.802 176.933,86.87 171.564,81.551 C169.253,79.261 166.732,77.752 163.82,76.914 C162.109,76.428 160.319,76.464 158.56,76.432 z M159.968,83.328 C163.538,83.638 166.126,85.615 167.949,88.607 C168.485,89.606 168.582,90.216 168.582,92.583 C168.582,95.153 168.516,95.498 167.757,96.861 C166.738,98.695 165.166,100.138 163.283,100.971 C159.616,102.593 155.62,101.78 152.87,98.853 C150.97,96.83 150.361,95.31 150.356,92.583 C150.351,89.857 151.144,87.917 153.03,86.039 C154.368,84.735 156.015,83.808 157.867,83.462 C158.557,83.333 159.268,83.373 159.968,83.328 z M160.582,86.851 L158.336,86.851 L158.336,91.325 L153.845,91.325 L153.845,93.561 L158.336,93.561 L158.336,98.035 L160.582,98.035 L160.582,93.561 L165.073,93.561 L165.073,91.325 L160.582,91.325 L160.582,86.851 z M84.385,94.724 C80.28,94.722 77.334,96.228 74.419,99.044 C68.383,105.47 68.374,116.87 74.398,123.284 C76.942,125.948 81.006,127.906 85.213,127.578 C88.668,127.474 89.827,127.097 92.709,125.137 L94.336,124.032 L94.336,126.832 L101.915,126.832 L101.915,95.518 L94.364,95.518 L94.196,98.549 C91.18,96.275 89.462,95.21 85.183,94.746 L84.385,94.724 z M86.346,101.401 C88.421,101.608 87.559,101.427 88.958,101.794 C93.386,103.259 95.885,108.869 94.501,114.241 C93.595,117.76 91.488,119.982 88.265,120.818 C86.343,121.317 85.658,121.322 83.892,120.848 C79.783,119.747 77.217,115.456 77.572,110.282 C77.813,106.763 79.472,103.902 82.193,102.314 C83.468,101.558 84.916,101.511 86.346,101.401 z M49.989,76.379 C44.845,76.685 47.035,76.386 43.388,77.027 C38.764,78.277 34.969,80.552 31.574,84.112 C29.284,86.513 28.253,87.939 26.964,90.486 C24.783,94.798 23.985,98.728 24.245,103.883 C24.521,109.356 26.221,113.833 29.639,118.088 C34.039,123.429 42.253,128.066 50.546,127.557 C54.249,127.459 58.875,126.543 63.458,124.238 L63.244,115.354 C58.597,118.174 56.752,120.104 50.125,120.503 C46.676,120.505 44.892,120.11 41.966,118.693 C37.205,116.389 33.61,111.908 32.419,106.793 C31.783,104.061 31.857,99.538 32.581,96.964 C35.695,85.884 47.325,80.445 57.609,85.26 C59.586,86.198 61.501,87.489 63.318,88.794 L63.467,80.06 C63.467,80.06 61.879,79 59.965,78.245 C58.12,77.55 56.202,76.998 54.244,76.734 C52.833,76.544 51.407,76.497 49.989,76.379 z M134.757,72.593 L127.178,72.593 L127.178,126.832 L134.757,126.832 L134.757,72.593 z M118.196,72.593 L110.897,72.593 L110.897,126.832 L118.196,126.832 L118.196,72.593 z" fill="#0075DE"/>
  </g>
</svg>
