<?xml version="1.0" encoding="UTF-8"?>
<!DOCTYPE svg PUBLIC "-//W3C//DTD SVG 1.1//EN" "http://www.w3.org/Graphics/SVG/1.1/DTD/svg11.dtd">
<svg version="1.1" xmlns="http://www.w3.org/2000/svg" xmlns:xlink="http://www.w3.org/1999/xlink" x="0" y="0" width="604" height="350" viewBox="0, 0, 604, 350">
  <g id="Main">
    <g id="Connections">
      <path d="M34.688,176.114 L34.688,180.028 L108.645,180.028 L108.645,176.114 L34.688,176.114 z" fill="#808080" id="path5939"/>
      <path d="M198.426,33.585 L198.426,110.757 L202.426,110.757 L202.426,95.622 L225.566,95.622 L225.567,95.622 L225.584,95.64 L241.484,79.918 L238.401,77.395 L223.963,91.623 L202.426,91.623 L202.426,33.585 L198.426,33.585 z" fill="#808080" id="path5941"/>
      <path d="M220.428,227.821 L217.662,230.59 L257.303,270.232 L260.737,268.056 z" fill="#808080" id="path5965"/>
      <path d="M133.171,227.328 L97.776,262.601 L99.952,266.208 L121.115,244.972 L121.115,314.3 L125.029,314.3 L125.029,281.355 L147.551,281.355 L174.173,308.008 L177.262,305.512 L149.225,277.493 L149.225,277.441 L125.029,277.441 L125.029,241.045 L135.941,230.095 L133.171,227.328 z" fill="#808080" id="path5971"/>
      <path d="M69.737,124.405 L66.993,127.196 L109.871,169.541 L110.588,164.513 z" fill="#808080" id="path5986"/>
    </g>
    <g id="Nodes">
      <path d="M263.961,65.1 C263.961,74.052 256.704,81.309 247.752,81.309 C238.8,81.309 231.543,74.052 231.543,65.1 C231.543,56.148 238.8,48.892 247.752,48.892 C256.704,48.892 263.961,56.148 263.961,65.1 z" fill-opacity="0" stroke="#00B092" stroke-width="3.646" id="path5910"/>
      <path d="M71.785,115.022 C71.785,123.974 64.528,131.231 55.576,131.231 C46.624,131.231 39.368,123.974 39.368,115.022 C39.368,106.071 46.624,98.814 55.576,98.814 C64.528,98.814 71.785,106.071 71.785,115.022 z" fill-opacity="0" stroke="#00B092" stroke-width="3.646" id="circle5912"/>
      <path d="M34.417,178.883 C34.417,187.835 27.16,195.092 18.209,195.092 C9.257,195.092 2,187.835 2,178.883 C2,169.932 9.257,162.675 18.209,162.675 C27.16,162.675 34.417,169.932 34.417,178.883 z" fill-opacity="0" stroke="#00B092" stroke-width="3.646" id="circle5914"/>
      <path d="M104.039,275.068 C104.039,284.02 96.782,291.277 87.831,291.277 C78.879,291.277 71.622,284.02 71.622,275.068 C71.622,266.116 78.879,258.859 87.831,258.859 C96.782,258.859 104.039,266.116 104.039,275.068 z" fill-opacity="0" stroke="#00B092" stroke-width="3.646" id="circle5916"/>
      <path d="M139.331,329.538 C139.331,338.489 132.074,345.746 123.122,345.746 C114.17,345.746 106.914,338.489 106.914,329.538 C106.914,320.586 114.17,313.329 123.122,313.329 C132.074,313.329 139.331,320.586 139.331,329.538 z" fill-opacity="0" stroke="#00B092" stroke-width="3.646" id="circle5918"/>
      <path d="M201.313,318.96 C201.313,327.912 194.057,335.169 185.105,335.169 C176.153,335.169 168.896,327.912 168.896,318.96 C168.896,310.008 176.153,302.751 185.105,302.751 C194.057,302.751 201.313,310.008 201.313,318.96 z" fill-opacity="0" stroke="#00B092" stroke-width="3.646" id="circle5920"/>
      <path d="M283.463,282.285 C283.463,291.236 276.206,298.493 267.254,298.493 C258.302,298.493 251.046,291.236 251.046,282.285 C251.046,273.333 258.302,266.076 267.254,266.076 C276.206,266.076 283.463,273.333 283.463,282.285 z" fill-opacity="0" stroke="#00B092" stroke-width="3.646" id="circle5922"/>
      <path d="M218.154,18.209 C218.154,27.16 210.897,34.417 201.946,34.417 C192.994,34.417 185.737,27.16 185.737,18.209 C185.737,9.257 192.994,2 201.946,2 C210.897,2 218.154,9.257 218.154,18.209 z" fill-opacity="0" stroke="#00B092" stroke-width="3.646" id="circle5935"/>
    </g>
    <g id="CR">
      <path d="M155.279,156.423 Q148.589,156.423 144.919,161.469 Q141.249,166.477 141.249,175.46 Q141.249,194.154 155.279,194.154 Q161.166,194.154 169.538,191.21 L169.538,201.149 Q162.657,204.016 154.17,204.016 Q141.976,204.016 135.515,196.638 Q129.055,189.222 129.055,175.384 Q129.055,166.668 132.228,160.131 Q135.4,153.556 141.326,150.077 Q147.289,146.56 155.279,146.56 Q163.421,146.56 171.64,150.498 L167.817,160.131 Q164.683,158.64 161.51,157.532 Q158.337,156.423 155.279,156.423 z" fill="#000000" id="path4499"/>
      <path d="M193.239,172.173 L197.061,172.173 Q202.681,172.173 205.357,170.3 Q208.033,168.427 208.033,164.413 Q208.033,160.437 205.28,158.755 Q202.566,157.073 196.832,157.073 L193.239,157.073 L193.239,172.173 z M193.239,181.806 L193.239,203.252 L181.388,203.252 L181.388,147.363 L197.673,147.363 Q209.065,147.363 214.531,151.53 Q219.998,155.659 219.998,164.107 Q219.998,169.038 217.284,172.899 Q214.57,176.722 209.6,178.901 L226.038,203.252 L212.888,203.252 L199.546,181.806 L193.239,181.806 z" fill="#000000" id="path4501"/>
      <path d="M245.721,175.415 C245.721,213.027 215.23,243.517 177.619,243.517 C140.007,243.517 109.517,213.027 109.517,175.415 C109.517,137.804 140.007,107.314 177.619,107.314 C215.23,107.314 245.721,137.804 245.721,175.415 z" fill-opacity="0" stroke="#00B092" stroke-width="4.89" id="path5908"/>
    </g>
    <g id="Text">
      <path d="M217.924,329.196 L217.971,329.196 L223.373,314.751 L225.182,314.751 L218.817,331.38 L217.032,331.38 L210.69,314.751 L212.522,314.751 z" fill="#000000"/>
      <path d="M228.564,331.38 L226.967,331.38 L226.967,320.388 L228.564,320.388 z M228.893,316.161 Q228.893,316.654 228.54,316.971 Q228.188,317.288 227.765,317.288 Q227.343,317.288 226.99,316.971 Q226.638,316.654 226.638,316.161 Q226.638,315.667 226.99,315.35 Q227.343,315.033 227.765,315.033 Q228.188,315.033 228.54,315.35 Q228.893,315.667 228.893,316.161 z" fill="#000000"/>
      <path d="M232.815,322.807 Q232.815,322.361 232.792,321.657 Q232.768,320.952 232.721,320.388 L234.248,320.388 Q234.295,320.834 234.318,321.375 Q234.342,321.915 234.342,322.267 L234.389,322.267 Q234.858,321.304 235.798,320.705 Q236.737,320.106 237.912,320.106 Q238.217,320.106 238.464,320.13 Q238.71,320.153 238.969,320.224 L238.757,321.727 Q238.616,321.68 238.288,321.633 Q237.959,321.586 237.63,321.586 Q236.996,321.586 236.409,321.821 Q235.821,322.056 235.387,322.561 Q234.952,323.066 234.682,323.853 Q234.412,324.639 234.412,325.743 L234.412,331.38 L232.815,331.38 L232.815,322.807 z" fill="#000000"/>
      <path d="M245.944,321.727 L242.844,321.727 L242.844,328.139 Q242.844,328.75 242.961,329.149 Q243.079,329.548 243.302,329.771 Q243.525,329.994 243.83,330.077 Q244.136,330.159 244.488,330.159 Q244.817,330.159 245.181,330.065 Q245.545,329.971 245.874,329.807 L245.944,331.192 Q245.522,331.357 245.064,331.439 Q244.606,331.521 244.065,331.521 Q243.619,331.521 243.126,331.404 Q242.633,331.286 242.21,330.957 Q241.787,330.629 241.517,330.065 Q241.247,329.501 241.247,328.585 L241.247,321.727 L238.969,321.727 L238.969,320.388 L241.247,320.388 L241.247,317.288 L242.844,317.288 L242.844,320.388 L245.944,320.388 z" fill="#000000"/>
      <path d="M256.419,331.38 Q256.373,330.934 256.349,330.394 Q256.326,329.853 256.326,329.501 L256.279,329.501 Q255.809,330.464 254.752,331.063 Q253.695,331.662 252.521,331.662 Q250.43,331.662 249.385,330.417 Q248.34,329.172 248.34,327.129 L248.34,320.388 L249.937,320.388 L249.937,326.471 Q249.937,327.34 250.078,328.045 Q250.219,328.75 250.559,329.255 Q250.9,329.76 251.475,330.041 Q252.051,330.323 252.92,330.323 Q253.554,330.323 254.153,330.065 Q254.752,329.807 255.222,329.278 Q255.691,328.75 255.973,327.939 Q256.255,327.129 256.255,326.025 L256.255,320.388 L257.852,320.388 L257.852,328.961 Q257.852,329.407 257.876,330.112 Q257.899,330.816 257.946,331.38 z" fill="#000000"/>
      <path d="M269.009,324.287 Q269.009,322.854 268.257,322.15 Q267.505,321.445 266.073,321.445 Q265.086,321.445 264.241,321.797 Q263.395,322.15 262.808,322.737 L261.915,321.68 Q262.597,320.999 263.712,320.553 Q264.828,320.106 266.237,320.106 Q267.13,320.106 267.905,320.353 Q268.68,320.6 269.267,321.093 Q269.854,321.586 270.183,322.338 Q270.512,323.089 270.512,324.099 L270.512,328.914 Q270.512,329.548 270.559,330.229 Q270.606,330.91 270.7,331.38 L269.267,331.38 Q269.196,330.981 269.149,330.511 Q269.102,330.041 269.102,329.595 L269.056,329.595 Q268.304,330.699 267.353,331.181 Q266.401,331.662 265.063,331.662 Q264.429,331.662 263.759,331.486 Q263.09,331.31 262.538,330.91 Q261.986,330.511 261.622,329.877 Q261.258,329.243 261.258,328.327 Q261.258,327.059 261.904,326.319 Q262.55,325.579 263.63,325.215 Q264.71,324.851 266.108,324.745 Q267.505,324.639 269.009,324.639 z M268.539,325.884 Q267.552,325.884 266.554,325.966 Q265.556,326.049 264.746,326.295 Q263.935,326.542 263.419,327.012 Q262.902,327.481 262.902,328.256 Q262.902,328.844 263.125,329.243 Q263.348,329.642 263.724,329.889 Q264.1,330.135 264.558,330.241 Q265.016,330.347 265.485,330.347 Q266.331,330.347 266.989,330.053 Q267.646,329.76 268.093,329.255 Q268.539,328.75 268.774,328.092 Q269.009,327.434 269.009,326.706 L269.009,325.884 z" fill="#000000"/>
      <path d="M276.266,331.38 L274.669,331.38 L274.669,313.624 L276.266,313.624 z" fill="#000000"/>
      <path d="M300.505,328.703 Q300.082,329.337 299.483,329.9 Q298.884,330.464 298.097,330.887 Q297.31,331.31 296.359,331.556 Q295.408,331.803 294.28,331.803 Q292.402,331.803 290.804,331.145 Q289.207,330.488 288.056,329.325 Q286.906,328.162 286.26,326.565 Q285.614,324.968 285.614,323.066 Q285.614,321.163 286.271,319.566 Q286.929,317.969 288.092,316.806 Q289.254,315.644 290.84,314.986 Q292.425,314.329 294.28,314.329 Q295.197,314.329 296.077,314.517 Q296.958,314.704 297.733,315.045 Q298.508,315.386 299.142,315.867 Q299.776,316.348 300.199,316.959 L298.79,317.993 Q298.532,317.593 298.097,317.194 Q297.663,316.795 297.075,316.489 Q296.488,316.184 295.795,315.996 Q295.103,315.808 294.304,315.808 Q292.683,315.808 291.403,316.395 Q290.123,316.983 289.231,317.981 Q288.338,318.979 287.869,320.294 Q287.399,321.61 287.399,323.066 Q287.399,324.522 287.88,325.837 Q288.362,327.152 289.254,328.151 Q290.147,329.149 291.427,329.736 Q292.707,330.323 294.304,330.323 Q295.737,330.323 297.028,329.736 Q298.32,329.149 299.189,327.857 z" fill="#000000"/>
      <path d="M313.963,325.884 Q313.963,327.129 313.528,328.186 Q313.094,329.243 312.318,330.018 Q311.543,330.793 310.463,331.227 Q309.383,331.662 308.091,331.662 Q306.823,331.662 305.742,331.227 Q304.662,330.793 303.887,330.018 Q303.112,329.243 302.677,328.186 Q302.243,327.129 302.243,325.884 Q302.243,324.639 302.677,323.582 Q303.112,322.526 303.887,321.75 Q304.662,320.975 305.742,320.541 Q306.823,320.106 308.091,320.106 Q309.383,320.106 310.463,320.541 Q311.543,320.975 312.318,321.75 Q313.094,322.526 313.528,323.582 Q313.963,324.639 313.963,325.884 z M312.272,325.884 Q312.272,324.968 311.978,324.158 Q311.684,323.348 311.144,322.749 Q310.604,322.15 309.829,321.797 Q309.054,321.445 308.091,321.445 Q307.128,321.445 306.365,321.797 Q305.601,322.15 305.061,322.749 Q304.521,323.348 304.227,324.158 Q303.934,324.968 303.934,325.884 Q303.934,326.8 304.227,327.611 Q304.521,328.421 305.061,329.02 Q305.601,329.619 306.365,329.959 Q307.128,330.3 308.091,330.3 Q309.054,330.3 309.829,329.959 Q310.604,329.619 311.144,329.02 Q311.684,328.421 311.978,327.611 Q312.272,326.8 312.272,325.884 z" fill="#000000"/>
      <path d="M318.965,322.267 Q319.435,321.304 320.41,320.705 Q321.384,320.106 322.582,320.106 Q323.029,320.106 323.51,320.2 Q323.991,320.294 324.449,320.564 Q324.907,320.834 325.295,321.281 Q325.683,321.727 325.964,322.432 Q326.528,321.304 327.503,320.705 Q328.478,320.106 329.816,320.106 Q331.907,320.106 332.952,321.351 Q333.997,322.596 333.997,324.639 L333.997,331.38 L332.4,331.38 L332.4,325.297 Q332.4,323.559 331.754,322.502 Q331.108,321.445 329.558,321.445 Q328.689,321.445 328.09,321.797 Q327.491,322.15 327.127,322.725 Q326.763,323.301 326.599,324.029 Q326.434,324.757 326.434,325.532 L326.434,331.38 L324.837,331.38 L324.837,324.968 Q324.837,324.17 324.72,323.512 Q324.602,322.854 324.309,322.396 Q324.015,321.938 323.498,321.692 Q322.982,321.445 322.183,321.445 Q321.619,321.445 321.044,321.703 Q320.468,321.962 320.01,322.49 Q319.552,323.019 319.271,323.829 Q318.989,324.639 318.989,325.743 L318.989,331.38 L317.392,331.38 L317.392,322.807 Q317.392,322.361 317.368,321.657 Q317.345,320.952 317.298,320.388 L318.824,320.388 Q318.871,320.834 318.895,321.375 Q318.918,321.915 318.918,322.267 L318.965,322.267 z" fill="#000000"/>
      <path d="M339.704,322.267 Q340.174,321.304 341.149,320.705 Q342.123,320.106 343.321,320.106 Q343.768,320.106 344.249,320.2 Q344.73,320.294 345.188,320.564 Q345.646,320.834 346.034,321.281 Q346.422,321.727 346.703,322.432 Q347.267,321.304 348.242,320.705 Q349.216,320.106 350.555,320.106 Q352.646,320.106 353.691,321.351 Q354.736,322.596 354.736,324.639 L354.736,331.38 L353.139,331.38 L353.139,325.297 Q353.139,323.559 352.493,322.502 Q351.847,321.445 350.297,321.445 Q349.428,321.445 348.829,321.797 Q348.23,322.15 347.866,322.725 Q347.502,323.301 347.338,324.029 Q347.173,324.757 347.173,325.532 L347.173,331.38 L345.576,331.38 L345.576,324.968 Q345.576,324.17 345.459,323.512 Q345.341,322.854 345.048,322.396 Q344.754,321.938 344.237,321.692 Q343.721,321.445 342.922,321.445 Q342.358,321.445 341.783,321.703 Q341.207,321.962 340.749,322.49 Q340.291,323.019 340.01,323.829 Q339.728,324.639 339.728,325.743 L339.728,331.38 L338.131,331.38 L338.131,322.807 Q338.131,322.361 338.107,321.657 Q338.084,320.952 338.037,320.388 L339.563,320.388 Q339.61,320.834 339.634,321.375 Q339.657,321.915 339.657,322.267 L339.704,322.267 z" fill="#000000"/>
      <path d="M366.855,331.38 Q366.808,330.934 366.785,330.394 Q366.761,329.853 366.761,329.501 L366.714,329.501 Q366.245,330.464 365.188,331.063 Q364.131,331.662 362.956,331.662 Q360.866,331.662 359.821,330.417 Q358.776,329.172 358.776,327.129 L358.776,320.388 L360.373,320.388 L360.373,326.471 Q360.373,327.34 360.514,328.045 Q360.655,328.75 360.995,329.255 Q361.336,329.76 361.911,330.041 Q362.487,330.323 363.356,330.323 Q363.99,330.323 364.589,330.065 Q365.188,329.807 365.657,329.278 Q366.127,328.75 366.409,327.939 Q366.691,327.129 366.691,326.025 L366.691,320.388 L368.288,320.388 L368.288,328.961 Q368.288,329.407 368.311,330.112 Q368.335,330.816 368.382,331.38 z" fill="#000000"/>
      <path d="M373.948,320.388 Q373.995,320.834 374.019,321.375 Q374.042,321.915 374.042,322.267 L374.089,322.267 Q374.559,321.304 375.616,320.705 Q376.673,320.106 377.847,320.106 Q379.937,320.106 380.983,321.351 Q382.028,322.596 382.028,324.639 L382.028,331.38 L380.431,331.38 L380.431,325.297 Q380.431,324.428 380.29,323.723 Q380.149,323.019 379.808,322.514 Q379.468,322.009 378.892,321.727 Q378.317,321.445 377.448,321.445 Q376.814,321.445 376.215,321.703 Q375.616,321.962 375.146,322.49 Q374.676,323.019 374.395,323.829 Q374.113,324.639 374.113,325.743 L374.113,331.38 L372.516,331.38 L372.516,322.807 Q372.516,322.361 372.492,321.657 Q372.469,320.952 372.422,320.388 z" fill="#000000"/>
      <path d="M387.782,331.38 L386.185,331.38 L386.185,320.388 L387.782,320.388 z M388.111,316.161 Q388.111,316.654 387.759,316.971 Q387.406,317.288 386.983,317.288 Q386.561,317.288 386.208,316.971 Q385.856,316.654 385.856,316.161 Q385.856,315.667 386.208,315.35 Q386.561,315.033 386.983,315.033 Q387.406,315.033 387.759,315.35 Q388.111,315.667 388.111,316.161 z" fill="#000000"/>
      <path d="M396.989,321.727 L393.889,321.727 L393.889,328.139 Q393.889,328.75 394.006,329.149 Q394.124,329.548 394.347,329.771 Q394.57,329.994 394.875,330.077 Q395.18,330.159 395.533,330.159 Q395.862,330.159 396.226,330.065 Q396.59,329.971 396.919,329.807 L396.989,331.192 Q396.566,331.357 396.108,331.439 Q395.65,331.521 395.11,331.521 Q394.664,331.521 394.171,331.404 Q393.677,331.286 393.255,330.957 Q392.832,330.629 392.562,330.065 Q392.292,329.501 392.292,328.585 L392.292,321.727 L390.013,321.727 L390.013,320.388 L392.292,320.388 L392.292,317.288 L393.889,317.288 L393.889,320.388 L396.989,320.388 z" fill="#000000"/>
      <path d="M403.26,329.666 L403.307,329.666 L406.713,320.388 L408.451,320.388 L402.978,334.222 Q402.485,335.49 401.722,336.254 Q400.958,337.017 399.526,337.017 Q398.797,337.017 398.093,336.876 L398.257,335.42 Q398.821,335.608 399.432,335.608 Q400.254,335.608 400.723,335.103 Q401.193,334.598 401.545,333.658 L402.438,331.357 L397.741,320.388 L399.526,320.388 z" fill="#000000"/>
      <path d="M412.302,330.253 Q412.302,330.746 411.95,331.134 Q411.598,331.521 411.034,331.521 Q410.471,331.521 410.118,331.134 Q409.766,330.746 409.766,330.253 Q409.766,329.76 410.118,329.372 Q410.471,328.984 411.034,328.984 Q411.598,328.984 411.95,329.372 Q412.302,329.76 412.302,330.253 z" fill="#000000"/>
      <path d="M423.153,331.38 L421.462,331.38 L421.462,314.751 L426.348,314.751 Q427.569,314.751 428.614,314.986 Q429.659,315.221 430.423,315.75 Q431.186,316.278 431.609,317.124 Q432.032,317.969 432.032,319.19 Q432.032,320.106 431.703,320.858 Q431.374,321.61 430.81,322.161 Q430.246,322.713 429.471,323.042 Q428.696,323.371 427.78,323.465 L432.642,331.38 L430.575,331.38 L425.972,323.606 L423.153,323.606 z M423.153,322.15 L426.089,322.15 Q428.133,322.15 429.237,321.41 Q430.34,320.67 430.34,319.19 Q430.34,318.368 430.035,317.805 Q429.73,317.241 429.19,316.889 Q428.649,316.536 427.874,316.372 Q427.099,316.208 426.16,316.208 L423.153,316.208 z" fill="#000000"/>
      <path d="M443.54,325.039 Q443.47,323.489 442.542,322.467 Q441.614,321.445 439.9,321.445 Q439.101,321.445 438.42,321.739 Q437.739,322.032 437.222,322.537 Q436.705,323.042 436.4,323.688 Q436.095,324.334 436.048,325.039 z M445.161,325.555 Q445.161,325.72 445.161,325.908 Q445.161,326.096 445.137,326.307 L436.024,326.307 Q436.048,327.129 436.353,327.857 Q436.658,328.585 437.199,329.125 Q437.739,329.666 438.467,329.983 Q439.195,330.3 440.041,330.3 Q441.285,330.3 442.19,329.724 Q443.094,329.149 443.564,328.397 L444.761,329.337 Q443.775,330.582 442.589,331.122 Q441.403,331.662 440.041,331.662 Q438.819,331.662 437.774,331.227 Q436.729,330.793 435.977,330.018 Q435.226,329.243 434.791,328.186 Q434.357,327.129 434.357,325.884 Q434.357,324.639 434.78,323.582 Q435.202,322.526 435.954,321.75 Q436.705,320.975 437.715,320.541 Q438.725,320.106 439.9,320.106 Q441.191,320.106 442.178,320.541 Q443.164,320.975 443.822,321.715 Q444.48,322.455 444.82,323.442 Q445.161,324.428 445.161,325.555 z" fill="#000000"/>
      <path d="M455.378,324.287 Q455.378,322.854 454.626,322.15 Q453.874,321.445 452.442,321.445 Q451.455,321.445 450.61,321.797 Q449.764,322.15 449.177,322.737 L448.284,321.68 Q448.966,320.999 450.081,320.553 Q451.197,320.106 452.606,320.106 Q453.499,320.106 454.274,320.353 Q455.049,320.6 455.636,321.093 Q456.223,321.586 456.552,322.338 Q456.881,323.089 456.881,324.099 L456.881,328.914 Q456.881,329.548 456.928,330.229 Q456.975,330.91 457.069,331.38 L455.636,331.38 Q455.565,330.981 455.518,330.511 Q455.471,330.041 455.471,329.595 L455.424,329.595 Q454.673,330.699 453.722,331.181 Q452.77,331.662 451.432,331.662 Q450.798,331.662 450.128,331.486 Q449.459,331.31 448.907,330.91 Q448.355,330.511 447.991,329.877 Q447.627,329.243 447.627,328.327 Q447.627,327.059 448.273,326.319 Q448.919,325.579 449.999,325.215 Q451.079,324.851 452.477,324.745 Q453.874,324.639 455.378,324.639 z M454.908,325.884 Q453.921,325.884 452.923,325.966 Q451.925,326.049 451.115,326.295 Q450.304,326.542 449.788,327.012 Q449.271,327.481 449.271,328.256 Q449.271,328.844 449.494,329.243 Q449.717,329.642 450.093,329.889 Q450.469,330.135 450.927,330.241 Q451.385,330.347 451.854,330.347 Q452.7,330.347 453.358,330.053 Q454.015,329.76 454.462,329.255 Q454.908,328.75 455.143,328.092 Q455.378,327.434 455.378,326.706 L455.378,325.884 z" fill="#000000"/>
      <path d="M462.635,331.38 L461.038,331.38 L461.038,313.624 L462.635,313.624 z" fill="#000000"/>
      <path d="M474.566,331.38 L472.875,331.38 L472.875,314.751 L474.566,314.751 z" fill="#000000"/>
      <path d="M480.321,320.388 Q480.368,320.834 480.391,321.375 Q480.415,321.915 480.415,322.267 L480.462,322.267 Q480.931,321.304 481.988,320.705 Q483.045,320.106 484.22,320.106 Q486.31,320.106 487.355,321.351 Q488.4,322.596 488.4,324.639 L488.4,331.38 L486.803,331.38 L486.803,325.297 Q486.803,324.428 486.662,323.723 Q486.521,323.019 486.181,322.514 Q485.84,322.009 485.265,321.727 Q484.689,321.445 483.82,321.445 Q483.186,321.445 482.587,321.703 Q481.988,321.962 481.519,322.49 Q481.049,323.019 480.767,323.829 Q480.485,324.639 480.485,325.743 L480.485,331.38 L478.888,331.38 L478.888,322.807 Q478.888,322.361 478.865,321.657 Q478.841,320.952 478.794,320.388 z" fill="#000000"/>
      <path d="M493.967,320.388 Q494.014,320.834 494.037,321.375 Q494.061,321.915 494.061,322.267 L494.108,322.267 Q494.577,321.304 495.634,320.705 Q496.691,320.106 497.865,320.106 Q499.956,320.106 501.001,321.351 Q502.046,322.596 502.046,324.639 L502.046,331.38 L500.449,331.38 L500.449,325.297 Q500.449,324.428 500.308,323.723 Q500.167,323.019 499.827,322.514 Q499.486,322.009 498.911,321.727 Q498.335,321.445 497.466,321.445 Q496.832,321.445 496.233,321.703 Q495.634,321.962 495.164,322.49 Q494.695,323.019 494.413,323.829 Q494.131,324.639 494.131,325.743 L494.131,331.38 L492.534,331.38 L492.534,322.807 Q492.534,322.361 492.51,321.657 Q492.487,320.952 492.44,320.388 z" fill="#000000"/>
      <path d="M517.101,325.884 Q517.101,327.129 516.667,328.186 Q516.232,329.243 515.457,330.018 Q514.682,330.793 513.602,331.227 Q512.521,331.662 511.23,331.662 Q509.961,331.662 508.881,331.227 Q507.801,330.793 507.025,330.018 Q506.25,329.243 505.816,328.186 Q505.381,327.129 505.381,325.884 Q505.381,324.639 505.816,323.582 Q506.25,322.526 507.025,321.75 Q507.801,320.975 508.881,320.541 Q509.961,320.106 511.23,320.106 Q512.521,320.106 513.602,320.541 Q514.682,320.975 515.457,321.75 Q516.232,322.526 516.667,323.582 Q517.101,324.639 517.101,325.884 z M515.41,325.884 Q515.41,324.968 515.117,324.158 Q514.823,323.348 514.283,322.749 Q513.743,322.15 512.968,321.797 Q512.193,321.445 511.23,321.445 Q510.267,321.445 509.503,321.797 Q508.74,322.15 508.2,322.749 Q507.66,323.348 507.366,324.158 Q507.072,324.968 507.072,325.884 Q507.072,326.8 507.366,327.611 Q507.66,328.421 508.2,329.02 Q508.74,329.619 509.503,329.959 Q510.267,330.3 511.23,330.3 Q512.193,330.3 512.968,329.959 Q513.743,329.619 514.283,329.02 Q514.823,328.421 515.117,327.611 Q515.41,326.8 515.41,325.884 z" fill="#000000"/>
      <path d="M525.04,331.38 L523.278,331.38 L518.792,320.388 L520.577,320.388 L524.147,329.689 L524.194,329.689 L527.788,320.388 L529.502,320.388 z" fill="#000000"/>
      <path d="M538.921,324.287 Q538.921,322.854 538.169,322.15 Q537.418,321.445 535.985,321.445 Q534.998,321.445 534.153,321.797 Q533.307,322.15 532.72,322.737 L531.828,321.68 Q532.509,320.999 533.624,320.553 Q534.74,320.106 536.149,320.106 Q537.042,320.106 537.817,320.353 Q538.592,320.6 539.179,321.093 Q539.766,321.586 540.095,322.338 Q540.424,323.089 540.424,324.099 L540.424,328.914 Q540.424,329.548 540.471,330.229 Q540.518,330.91 540.612,331.38 L539.179,331.38 Q539.109,330.981 539.062,330.511 Q539.015,330.041 539.015,329.595 L538.968,329.595 Q538.216,330.699 537.265,331.181 Q536.314,331.662 534.975,331.662 Q534.341,331.662 533.671,331.486 Q533.002,331.31 532.45,330.91 Q531.898,330.511 531.534,329.877 Q531.17,329.243 531.17,328.327 Q531.17,327.059 531.816,326.319 Q532.462,325.579 533.542,325.215 Q534.623,324.851 536.02,324.745 Q537.418,324.639 538.921,324.639 z M538.451,325.884 Q537.464,325.884 536.466,325.966 Q535.468,326.049 534.658,326.295 Q533.847,326.542 533.331,327.012 Q532.814,327.481 532.814,328.256 Q532.814,328.844 533.037,329.243 Q533.26,329.642 533.636,329.889 Q534.012,330.135 534.47,330.241 Q534.928,330.347 535.398,330.347 Q536.243,330.347 536.901,330.053 Q537.558,329.76 538.005,329.255 Q538.451,328.75 538.686,328.092 Q538.921,327.434 538.921,326.706 L538.921,325.884 z" fill="#000000"/>
      <path d="M549.255,321.727 L546.155,321.727 L546.155,328.139 Q546.155,328.75 546.272,329.149 Q546.39,329.548 546.613,329.771 Q546.836,329.994 547.141,330.077 Q547.446,330.159 547.799,330.159 Q548.128,330.159 548.492,330.065 Q548.856,329.971 549.185,329.807 L549.255,331.192 Q548.832,331.357 548.374,331.439 Q547.916,331.521 547.376,331.521 Q546.93,331.521 546.437,331.404 Q545.943,331.286 545.521,330.957 Q545.098,330.629 544.828,330.065 Q544.558,329.501 544.558,328.585 L544.558,321.727 L542.279,321.727 L542.279,320.388 L544.558,320.388 L544.558,317.288 L546.155,317.288 L546.155,320.388 L549.255,320.388 z" fill="#000000"/>
      <path d="M553.365,331.38 L551.768,331.38 L551.768,320.388 L553.365,320.388 z M553.694,316.161 Q553.694,316.654 553.342,316.971 Q552.989,317.288 552.567,317.288 Q552.144,317.288 551.792,316.971 Q551.439,316.654 551.439,316.161 Q551.439,315.667 551.792,315.35 Q552.144,315.033 552.567,315.033 Q552.989,315.033 553.342,315.35 Q553.694,315.667 553.694,316.161 z" fill="#000000"/>
      <path d="M568.538,325.884 Q568.538,327.129 568.103,328.186 Q567.669,329.243 566.894,330.018 Q566.119,330.793 565.038,331.227 Q563.958,331.662 562.666,331.662 Q561.398,331.662 560.317,331.227 Q559.237,330.793 558.462,330.018 Q557.687,329.243 557.252,328.186 Q556.818,327.129 556.818,325.884 Q556.818,324.639 557.252,323.582 Q557.687,322.526 558.462,321.75 Q559.237,320.975 560.317,320.541 Q561.398,320.106 562.666,320.106 Q563.958,320.106 565.038,320.541 Q566.119,320.975 566.894,321.75 Q567.669,322.526 568.103,323.582 Q568.538,324.639 568.538,325.884 z M566.847,325.884 Q566.847,324.968 566.553,324.158 Q566.26,323.348 565.719,322.749 Q565.179,322.15 564.404,321.797 Q563.629,321.445 562.666,321.445 Q561.703,321.445 560.94,321.797 Q560.176,322.15 559.636,322.749 Q559.096,323.348 558.802,324.158 Q558.509,324.968 558.509,325.884 Q558.509,326.8 558.802,327.611 Q559.096,328.421 559.636,329.02 Q560.176,329.619 560.94,329.959 Q561.703,330.3 562.666,330.3 Q563.629,330.3 564.404,329.959 Q565.179,329.619 565.719,329.02 Q566.26,328.421 566.553,327.611 Q566.847,326.8 566.847,325.884 z" fill="#000000"/>
      <path d="M573.4,320.388 Q573.447,320.834 573.47,321.375 Q573.493,321.915 573.493,322.267 L573.54,322.267 Q574.01,321.304 575.067,320.705 Q576.124,320.106 577.298,320.106 Q579.389,320.106 580.434,321.351 Q581.479,322.596 581.479,324.639 L581.479,331.38 L579.882,331.38 L579.882,325.297 Q579.882,324.428 579.741,323.723 Q579.6,323.019 579.26,322.514 Q578.919,322.009 578.344,321.727 Q577.768,321.445 576.899,321.445 Q576.265,321.445 575.666,321.703 Q575.067,321.962 574.597,322.49 Q574.128,323.019 573.846,323.829 Q573.564,324.639 573.564,325.743 L573.564,331.38 L571.967,331.38 L571.967,322.807 Q571.967,322.361 571.943,321.657 Q571.92,320.952 571.873,320.388 z" fill="#000000"/>
      <path d="M587.821,330.253 Q587.821,330.746 587.468,331.134 Q587.116,331.521 586.552,331.521 Q585.989,331.521 585.636,331.134 Q585.284,330.746 585.284,330.253 Q585.284,329.76 585.636,329.372 Q585.989,328.984 586.552,328.984 Q587.116,328.984 587.468,329.372 Q587.821,329.76 587.821,330.253 z" fill="#000000"/>
      <path d="M462.82,250.743 L458.954,250.743 L473.927,216.1 L477.353,216.1 L492.228,250.743 L488.313,250.743 L484.497,241.642 L466.588,241.642 z M467.909,238.413 L483.175,238.413 L475.542,220.015 z" fill="#00B092"/>
      <path d="M500.84,247.612 L516.987,247.612 L516.987,250.743 L497.316,250.743 L497.316,216.1 L500.84,216.1 z" fill="#00B092"/>
      <path d="M525.452,250.743 L522.125,250.743 L522.125,227.844 L525.452,227.844 z M526.137,219.036 Q526.137,220.064 525.403,220.724 Q524.669,221.385 523.788,221.385 Q522.907,221.385 522.174,220.724 Q521.44,220.064 521.44,219.036 Q521.44,218.008 522.174,217.348 Q522.907,216.687 523.788,216.687 Q524.669,216.687 525.403,217.348 Q526.137,218.008 526.137,219.036 z" fill="#00B092"/>
      <path d="M538.027,247.612 L556.572,247.612 L556.572,250.743 L534.504,250.743 L534.504,216.1 L555.985,216.1 L555.985,219.232 L538.027,219.232 L538.027,231.171 L554.811,231.171 L554.811,234.254 L538.027,234.254 z" fill="#00B092"/>
      <path d="M580.597,244.774 L580.646,244.774 L592.243,216.1 L597.625,216.1 L597.625,250.743 L594.102,250.743 L594.102,220.651 L594.004,220.651 L581.478,250.743 L579.619,250.743 L567.092,220.651 L566.994,220.651 L566.994,250.743 L563.471,250.743 L563.471,216.1 L568.854,216.1 z" fill="#00B092"/>
      <path d="M261.339,203.77 L255.816,203.77 L255.816,165.756 L261.339,165.756 z M262.476,151.135 Q262.476,152.841 261.258,153.938 Q260.04,155.034 258.578,155.034 Q257.116,155.034 255.897,153.938 Q254.679,152.841 254.679,151.135 Q254.679,149.43 255.897,148.333 Q257.116,147.236 258.578,147.236 Q260.04,147.236 261.258,148.333 Q262.476,149.43 262.476,151.135 z" fill="#000000"/>
      <path d="M280.996,165.756 Q281.158,167.299 281.24,169.167 Q281.321,171.036 281.321,172.254 L281.483,172.254 Q283.108,168.924 286.763,166.852 Q290.418,164.781 294.479,164.781 Q301.708,164.781 305.323,169.086 Q308.938,173.391 308.938,180.458 L308.938,203.77 L303.414,203.77 L303.414,182.732 Q303.414,179.727 302.927,177.29 Q302.439,174.853 301.262,173.107 Q300.084,171.36 298.094,170.386 Q296.104,169.411 293.099,169.411 Q290.905,169.411 288.834,170.305 Q286.763,171.198 285.138,173.026 Q283.514,174.853 282.539,177.655 Q281.564,180.458 281.564,184.275 L281.564,203.77 L276.041,203.77 L276.041,174.122 Q276.041,172.579 275.96,170.142 Q275.879,167.705 275.716,165.756 z" fill="#000000"/>
      <path d="M350.606,174.447 Q349.226,172.254 346.586,170.832 Q343.946,169.411 340.859,169.411 Q337.529,169.411 334.849,170.589 Q332.168,171.767 330.259,173.838 Q328.351,175.909 327.335,178.711 Q326.32,181.514 326.32,184.763 Q326.32,188.012 327.335,190.773 Q328.351,193.535 330.219,195.606 Q332.087,197.678 334.767,198.855 Q337.448,200.033 340.778,200.033 Q344.433,200.033 346.951,198.652 Q349.469,197.271 351.094,195.078 L355.236,198.165 Q352.799,201.17 349.266,202.957 Q345.733,204.744 340.778,204.744 Q336.148,204.744 332.412,203.242 Q328.675,201.739 326.036,199.058 Q323.396,196.378 321.934,192.723 Q320.472,189.068 320.472,184.763 Q320.472,180.458 321.934,176.803 Q323.396,173.147 326.036,170.467 Q328.675,167.787 332.412,166.284 Q336.148,164.781 340.778,164.781 Q344.596,164.781 348.535,166.446 Q352.475,168.111 354.911,171.36 z" fill="#000000"/>
      <path d="M391.463,203.77 Q391.3,202.226 391.219,200.358 Q391.138,198.49 391.138,197.271 L390.976,197.271 Q389.351,200.602 385.696,202.673 Q382.041,204.744 377.979,204.744 Q370.75,204.744 367.136,200.439 Q363.521,196.134 363.521,189.068 L363.521,165.756 L369.045,165.756 L369.045,186.793 Q369.045,189.799 369.532,192.235 Q370.019,194.672 371.197,196.419 Q372.375,198.165 374.365,199.14 Q376.355,200.114 379.36,200.114 Q381.553,200.114 383.625,199.221 Q385.696,198.327 387.32,196.5 Q388.945,194.672 389.92,191.87 Q390.894,189.068 390.894,185.25 L390.894,165.756 L396.418,165.756 L396.418,195.403 Q396.418,196.947 396.499,199.383 Q396.58,201.82 396.743,203.77 z" fill="#000000"/>
      <path d="M416.724,197.353 L416.724,203.77 L411.201,203.77 L411.201,142.363 L416.724,142.363 L416.724,172.335 L416.887,172.335 Q419.323,168.599 423.222,166.69 Q427.121,164.781 431.264,164.781 Q435.731,164.781 439.345,166.324 Q442.96,167.868 445.519,170.548 Q448.077,173.229 449.499,176.884 Q450.92,180.539 450.92,184.763 Q450.92,188.986 449.499,192.642 Q448.077,196.297 445.519,198.977 Q442.96,201.658 439.345,203.201 Q435.731,204.744 431.264,204.744 Q427.121,204.744 423.222,202.876 Q419.323,201.008 416.887,197.353 z M445.072,184.763 Q445.072,181.595 444.097,178.793 Q443.122,175.99 441.295,173.919 Q439.467,171.848 436.787,170.629 Q434.106,169.411 430.695,169.411 Q427.527,169.411 424.847,170.589 Q422.166,171.767 420.217,173.838 Q418.267,175.909 417.171,178.711 Q416.074,181.514 416.074,184.763 Q416.074,188.012 417.171,190.814 Q418.267,193.616 420.217,195.647 Q422.166,197.678 424.847,198.855 Q427.527,200.033 430.695,200.033 Q434.106,200.033 436.787,198.855 Q439.467,197.678 441.295,195.606 Q443.122,193.535 444.097,190.733 Q445.072,187.931 445.072,184.763 z" fill="#000000"/>
      <path d="M486.741,179.239 Q486.741,174.285 484.141,171.848 Q481.542,169.411 476.587,169.411 Q473.176,169.411 470.252,170.629 Q467.328,171.848 465.297,173.878 L462.211,170.223 Q464.566,167.868 468.424,166.324 Q472.283,164.781 477.156,164.781 Q480.243,164.781 482.923,165.634 Q485.604,166.487 487.634,168.193 Q489.665,169.898 490.802,172.498 Q491.939,175.097 491.939,178.59 L491.939,195.241 Q491.939,197.434 492.102,199.789 Q492.264,202.145 492.589,203.77 L487.634,203.77 Q487.391,202.389 487.228,200.764 Q487.066,199.14 487.066,197.596 L486.903,197.596 Q484.304,201.414 481.014,203.079 Q477.725,204.744 473.095,204.744 Q470.902,204.744 468.587,204.135 Q466.272,203.526 464.363,202.145 Q462.454,200.764 461.195,198.571 Q459.936,196.378 459.936,193.21 Q459.936,188.824 462.17,186.265 Q464.404,183.707 468.14,182.448 Q471.876,181.189 476.709,180.823 Q481.542,180.458 486.741,180.458 z M485.116,184.763 Q481.705,184.763 478.253,185.047 Q474.801,185.331 471.998,186.184 Q469.196,187.037 467.409,188.662 Q465.622,190.286 465.622,192.967 Q465.622,194.997 466.394,196.378 Q467.165,197.759 468.465,198.612 Q469.764,199.465 471.348,199.83 Q472.932,200.196 474.557,200.196 Q477.481,200.196 479.755,199.18 Q482.03,198.165 483.573,196.419 Q485.116,194.672 485.928,192.398 Q486.741,190.124 486.741,187.606 L486.741,184.763 z" fill="#000000"/>
      <path d="M522.48,170.386 L511.758,170.386 L511.758,192.56 Q511.758,194.672 512.164,196.053 Q512.57,197.434 513.342,198.206 Q514.114,198.977 515.17,199.262 Q516.226,199.546 517.444,199.546 Q518.581,199.546 519.84,199.221 Q521.099,198.896 522.236,198.327 L522.48,203.12 Q521.018,203.688 519.434,203.973 Q517.85,204.257 515.982,204.257 Q514.439,204.257 512.733,203.851 Q511.027,203.445 509.565,202.307 Q508.103,201.17 507.169,199.221 Q506.235,197.271 506.235,194.104 L506.235,170.386 L498.356,170.386 L498.356,165.756 L506.235,165.756 L506.235,155.034 L511.758,155.034 L511.758,165.756 L522.48,165.756 z" fill="#000000"/>
      <path d="M568.86,184.763 Q568.86,189.068 567.357,192.723 Q565.855,196.378 563.174,199.058 Q560.494,201.739 556.757,203.242 Q553.021,204.744 548.553,204.744 Q544.167,204.744 540.431,203.242 Q536.695,201.739 534.014,199.058 Q531.334,196.378 529.831,192.723 Q528.328,189.068 528.328,184.763 Q528.328,180.458 529.831,176.803 Q531.334,173.147 534.014,170.467 Q536.695,167.787 540.431,166.284 Q544.167,164.781 548.553,164.781 Q553.021,164.781 556.757,166.284 Q560.494,167.787 563.174,170.467 Q565.855,173.147 567.357,176.803 Q568.86,180.458 568.86,184.763 z M563.012,184.763 Q563.012,181.595 561.996,178.793 Q560.981,175.99 559.113,173.919 Q557.245,171.848 554.564,170.629 Q551.884,169.411 548.553,169.411 Q545.223,169.411 542.583,170.629 Q539.944,171.848 538.075,173.919 Q536.207,175.99 535.192,178.793 Q534.177,181.595 534.177,184.763 Q534.177,187.931 535.192,190.733 Q536.207,193.535 538.075,195.606 Q539.944,197.678 542.583,198.855 Q545.223,200.033 548.553,200.033 Q551.884,200.033 554.564,198.855 Q557.245,197.678 559.113,195.606 Q560.981,193.535 561.996,190.733 Q563.012,187.931 563.012,184.763 z" fill="#000000"/>
      <path d="M580.719,174.122 Q580.719,172.579 580.638,170.142 Q580.556,167.705 580.394,165.756 L585.674,165.756 Q585.836,167.299 585.917,169.167 Q585.998,171.036 585.998,172.254 L586.161,172.254 Q587.785,168.924 591.034,166.852 Q594.284,164.781 598.345,164.781 Q599.401,164.781 600.254,164.862 Q601.107,164.944 602,165.187 L601.269,170.386 Q600.782,170.223 599.644,170.061 Q598.507,169.898 597.37,169.898 Q595.177,169.898 593.146,170.711 Q591.116,171.523 589.613,173.269 Q588.11,175.016 587.176,177.737 Q586.242,180.458 586.242,184.275 L586.242,203.77 L580.719,203.77 L580.719,174.122 z" fill="#000000"/>
    </g>
  </g>
</svg>
