<?xml version="1.0" encoding="UTF-8" standalone="no"?>
<!-- Created with Inkscape (http://www.inkscape.org/) -->

<svg
   xmlns:dc="http://purl.org/dc/elements/1.1/"
   xmlns:cc="http://creativecommons.org/ns#"
   xmlns:rdf="http://www.w3.org/1999/02/22-rdf-syntax-ns#"
   xmlns:svg="http://www.w3.org/2000/svg"
   xmlns="http://www.w3.org/2000/svg"
   xmlns:sodipodi="http://sodipodi.sourceforge.net/DTD/sodipodi-0.dtd"
   xmlns:inkscape="http://www.inkscape.org/namespaces/inkscape"
   width="341.43619mm"
   height="52.853191mm"
   viewBox="0 0 1209.8133 187.27509"
   id="svg4170"
   version="1.1"
   inkscape:version="0.91 r13725"
   sodipodi:docname="dynamed-logo.svg">
  <defs
     id="defs4172" />
  <sodipodi:namedview
     id="base"
     pagecolor="#ffffff"
     bordercolor="#666666"
     borderopacity="1.0"
     inkscape:pageopacity="0.0"
     inkscape:pageshadow="2"
     inkscape:zoom="0.7"
     inkscape:cx="501.70379"
     inkscape:cy="247.8099"
     inkscape:document-units="px"
     inkscape:current-layer="layer2"
     showgrid="false"
     showguides="true"
     inkscape:guide-bbox="true"
     fit-margin-top="0"
     fit-margin-left="0"
     fit-margin-right="0"
     fit-margin-bottom="0"
     inkscape:window-width="3840"
     inkscape:window-height="2067"
     inkscape:window-x="2160"
     inkscape:window-y="93"
     inkscape:window-maximized="0" />
  <metadata
     id="metadata4175">
    <rdf:RDF>
      <cc:Work
         rdf:about="">
        <dc:format>image/svg+xml</dc:format>
        <dc:type
           rdf:resource="http://purl.org/dc/dcmitype/StillImage" />
        <dc:title />
      </cc:Work>
    </rdf:RDF>
  </metadata>
  <g
     inkscape:groupmode="layer"
     id="layer2"
     inkscape:label="Layer 2"
     transform="translate(343.50516,-301.65326)">
    <path
       style="fill:#dddddd;fill-opacity:1"
       d="m -221.30183,480.80349 c 0,0 2.08293,-1.11467 4.44075,-2.31065 2.35785,-1.19595 5.55775,-3.1167 7.11091,-4.2683 5.97519,-4.43031 12.61291,-12.15718 16.90255,-19.67596 3.06762,-5.37688 5.42067,-11.01957 5.40494,-12.96117 l -36.7309,-93.52563 10.42746,-0.11188 32.72321,82.97202 30.60968,-82.79798 10.54532,-0.0152 c 0,0 -4.37005,11.02722 -9.71125,24.2887 -5.34117,13.26144 -13.39253,33.27532 -17.8919,44.47527 -9.41958,23.44736 -11.82035,29.08357 -15.56878,36.54996 -8.7377,17.4045 -17.29363,26.86255 -30.08218,33.25396 -2.47795,1.23845 -4.92986,2.25172 -4.92986,2.25172 z M 0.5883598,446.42272 C -13.22647,444.43047 -22.319421,433.85027 -22.261867,419.83503 c 0.04221,-10.27917 4.04017,-18.12453 12.4073815,-24.34756 9.09094936,-6.76129 21.4037605,-10.04717 40.6400725,-10.84549 l 5.830589,-0.24196 c -0.157858,-4.3047 -0.389344,-8.69209 -1.216835,-12.91787 -0.618321,-3.00869 -3.120775,-8.15141 -5.048594,-10.37517 -1.930708,-2.22712 -6.149652,-4.9787 -8.979524,-5.85646 -9.359504,-2.90307 -23.8201647,-0.6918 -31.920151,4.88113 -0.889671,0.61212 -1.671513,1.05869 -1.737421,0.99238 -0.26757,-0.26974 -2.963607,-6.70984 -2.963607,-7.08046 0,-0.21999 1.201269,-1.08734 2.669484,-1.92736 12.21191908,-6.98714 30.289529,-8.57421 41.134876,-3.61135 7.700101,3.52359 13.635606,10.71161 15.714811,19.03097 1.577148,6.31051 1.74493,9.23788 1.756104,30.63869 0.01357,26.0628 1.666525,46.39967 1.666525,46.39967 l -8.987099,0.0439 c 0,-0.0562 -0.312554,-3.1361 -0.694588,-6.84425 -0.63235,-6.13795 -0.83783,-7.37706 -1.152264,-6.94839 -1.598556,2.17925 -4.022201,5.03091 -5.182158,6.0973 -8.04562,7.3966 -20.109299,11.08313 -31.0873752,9.49996 z m 14.8072232,-8.98206 c 6.961688,-1.85061 13.08412,-6.17207 16.921169,-11.94359 3.736485,-5.62027 4.299424,-8.53097 4.299424,-22.23073 l 0,-10.41221 -4.264162,0 c -19.597914,0.007 -32.33118803,3.74198 -39.4064942,11.56044 -3.5779838,3.9538 -4.9006668,7.85946 -4.8669368,14.3712 0.02426,4.68386 0.552684,7.02104 2.3588822,10.43306 2.0526108,3.87757 6.6193332,7.39002 11.0211317,8.47681 4.460811,1.07009 9.5290891,0.82819 13.9369861,-0.25637 z m 345.865957,8.99752 c -17.13302,-2.37463 -30.06819,-14.71526 -34.63857,-33.04645 -2.78135,-11.15564 -2.23627,-25.54543 1.37678,-36.3464 4.94354,-14.77833 14.77127,-25.19239 27.76565,-29.42212 4.41109,-1.43586 7.61945,-1.88901 13.28135,-1.87595 7.60646,0.0174 13.52857,1.59246 19.66736,5.23033 4.69331,3.42333 8.51734,6.91863 11.48713,11.76634 l 0.17784,-61.09066 9.39477,0 1.10965,143.06699 -9.00709,0 -0.46157,-13.54402 c -0.008,-4.87437 -0.14951,-4.99053 -2.10991,-1.72871 -5.05281,8.40708 -12.82663,13.83799 -23.3486,16.31166 -3.73767,0.87873 -10.87452,1.20848 -14.69476,0.67899 z m 14.77962,-8.97497 c 11.20569,-2.93698 19.82216,-11.82888 22.96764,-23.70188 1.13678,-4.29093 1.46493,-9.75271 1.26651,-21.08125 -0.23322,-13.31717 -0.83556,-16.74614 -3.9398,-22.42928 -4.5857,-8.39521 -12.42511,-14.21108 -21.4612,-15.92148 -3.53577,-0.66924 -10.89004,-0.46439 -14.00779,0.39018 -5.42286,1.48644 -10.05033,4.14884 -13.93956,8.02004 -5.45628,5.43101 -9.3405,13.41108 -11.16427,22.93698 -1.16052,6.06162 -1.14708,16.37998 0.0296,22.65916 2.66289,14.21108 10.91886,24.89477 22.05563,28.54131 5.15149,1.68676 13.02623,1.94049 18.19328,0.58622 z m 280.18385,9.09217 c -2.63331,-0.30691 -7.58872,-1.57286 -9.57261,-2.4455 -9.63868,-4.23966 -16.15595,-14.10481 -18.49473,-27.99532 -1.13371,-25.79481 -0.86391,-68.16466 -0.86391,-68.16466 l 9.74551,0 0.86376,65.78992 c 1.78573,10.85416 7.66474,20.72791 17.79983,23.52275 8.90928,1.57618 16.39468,0.24903 23.71181,-4.64031 5.67039,-3.86382 11.82969,-11.31073 13.33993,-17.38836 l 0.36853,-67.28404 9.39856,0 1.12661,96.79115 -9.30667,-0.19483 -0.24892,-7.30999 c -0.37312,-10.95789 -0.0869,-10.18811 -2.47742,-6.66146 -7.51551,11.08693 -21.84821,17.55898 -35.39004,15.98062 z M 264.09616,445.975 c -6.82851,-1.13033 -13.70074,-3.97329 -18.81516,-7.78364 -8.38261,-6.24524 -14.36176,-15.96008 -16.65599,-27.06225 -2.0319,-9.83291 -1.51167,-23.0199 1.28399,-32.54687 3.20208,-10.91204 9.51799,-20.30263 17.41031,-25.88593 7.42235,-5.25087 17.87359,-7.85727 27.66445,-6.89917 7.58022,0.74175 12.19282,2.39879 17.30808,6.21784 10.69911,7.98787 16.5202,21.91751 16.12083,38.57653 l -0.10847,4.52524 -71.29038,0.17732 c 0.26233,8.12583 1.59515,16.88466 4.4584,23.18109 6.37964,13.76155 18.28981,20.24231 35.85154,19.50825 8.21998,-0.34357 14.05858,-1.54843 20.33873,-4.19705 1.54474,-0.6515 2.86694,-1.08164 2.93827,-0.9559 0.1841,0.32452 2.30797,7.25192 2.30797,7.52782 0,0.8559 -10.11031,4.23179 -15.66427,5.23037 -4.45436,0.8009 -19.16116,1.04634 -23.1483,0.38635 z m 23.01919,-86.43985 c -7.11316,-5.67899 -19.08958,-6.85345 -26.50014,-4.52923 -9.39783,3.14771 -17.03096,11.43011 -20.6979,22.45841 -1.00898,3.03449 -2.20121,8.46422 -2.20121,9.80167 l 60.72281,0.0186 c -1.13042,-10.58373 -4.80737,-22.01057 -11.32356,-27.74948 z m 440.4691,80.30809 3.39709,-8.23491 c 7.96044,4.2127 16.4008,6.60261 23.5081,6.40776 7.26731,-0.2454 11.67851,-1.73427 15.08476,-5.09137 3.82187,-3.76673 5.44225,-7.66432 5.44333,-13.09324 0,-8.50841 -3.93521,-13.61556 -14.60797,-18.94987 -1.87623,-0.93773 -4.62483,-2.18589 -6.10802,-2.77365 -12.68622,-5.02746 -20.44421,-11.67621 -22.98645,-19.69977 -1.6326,-6.37835 -0.48019,-13.99331 2.37105,-19.20324 1.58658,-2.85706 6.07965,-7.43687 8.94318,-9.11591 8.17178,-4.79145 19.11236,-5.81485 29.68512,-2.77675 2.80031,0.80466 9.09467,4.2823 9.09467,4.2823 l -3.42891,7.90175 c 0,0 -7.09327,-3.56916 -10.96245,-4.60644 -9.91774,-1.66051 -20.50696,-1.16099 -25.29497,8.49609 -2.67156,5.64717 -1.9825,12.29164 1.74664,16.84257 2.33491,2.84947 9.01649,6.86954 16.6617,10.02474 13.76179,5.67959 21.17527,12.05891 23.65314,20.35367 0.81155,2.7166 1.18586,7.86168 0.8426,11.5816 -1.15675,12.53611 -10.35916,21.46837 -24.47667,23.75813 -13.37419,1.04928 -21.08727,-0.0752 -32.56594,-6.10346 z m -1062.7597,5.21436 c -2.21611,-0.14018 -4.9969,-0.36717 -6.17959,-0.50442 l -2.15032,-0.24959 0.17583,-133.75377 3.13285,-0.42422 c 12.84902,-1.73989 17.19091,-2.02769 30.4583,-2.01892 11.7333,0.008 13.54646,0.0864 17.92688,0.77719 20.09816,3.16961 32.81922,10.09179 42.68621,23.22771 6.00694,7.99703 10.01424,18.56035 11.48863,30.28425 0.55838,4.44033 0.54525,16.6066 -0.0233,21.58188 -1.99232,17.43364 -7.69443,30.77642 -17.60159,41.18714 -10.57338,11.11084 -25.61394,17.67824 -45.15539,19.71696 -5.47174,0.57084 -26.80692,0.67875 -34.75852,0.17579 z m 35.23569,-8.49672 c 23.21076,-2.88821 40.01476,-14.57748 47.41313,-32.98184 3.52993,-8.78111 5.17301,-18.16892 5.16698,-29.52203 -0.009,-17.89897 -4.55054,-31.10235 -14.08785,-40.96161 -5.19538,-5.37076 -10.08618,-8.66123 -17.29749,-11.63754 -8.96035,-3.6982 -15.68439,-4.85979 -29.42696,-5.08351 -10.0289,-0.16329 -16.17597,0.19525 -23.23534,1.35531 l -2.34964,0.38611 0,118.18185 2.1756,0.25842 c 7.49149,0.88994 24.50772,0.89255 31.64157,0.005 z m 177.60347,-88.61098 8.83371,0 c 0.40613,6.21846 0.8819,17.37835 0.8819,17.37835 3.16245,-5.27019 7.67948,-10.4967 12.08873,-13.55032 11.890943,-8.07497 29.329865,-8.14928 40.551607,-0.17283 5.283969,3.75587 10.321242,11.02838 12.296294,17.75263 2.012462,6.85158 1.947451,5.53565 2.067871,41.8584 l 0.111077,33.50413 -9.775961,0 -0.0021,-31.06746 c -0.0021,-33.7258 -0.05067,-34.74262 -1.952046,-40.97627 -2.842884,-9.32037 -8.538648,-15.3216 -16.692297,-17.58752 -3.124436,-0.86829 -9.801564,-1.0729 -13.311146,-0.40787 -12.001399,2.27411 -22.149169,12.99397 -24.416079,25.79251 -0.23757,1.34131 -0.36584,12.96584 -0.36584,33.15603 l 4e-5,31.09058 -9.70099,0 c -0.33914,-32.25511 -0.61478,-96.77036 -0.61478,-96.77036 z m 205.997284,-39.35174 11.199534,0.19107 44.054192,121.65169 45.56095,-121.65169 11.52273,-0.005 9.54355,135.93632 -9.84663,-0.23211 -7.05745,-124.2118 -46.74193,124.26986 -6.90989,0 c 0,0 -28.70455,-79.74829 -42.698535,-118.83077 -1.881348,-6.54484 -1.879016,-6.55184 -2.197592,6.57019 -2.122797,49.02773 -6.662118,112.26058 -6.662118,112.26058 l -9.776104,0.19233 C 77.032469,399.3623 80.332913,353.9787 83.661194,308.59815 Z m 402.693516,1.82979 c 11.03765,-2.08456 25.67548,-3.24913 37.7683,-2.19404 4.82985,0.46941 11.0093,1.77699 14.37117,3.04096 14.42383,5.42293 22.64538,16.95893 23.28486,32.67193 0.52789,12.97131 -2.98714,22.70376 -11.19929,31.00888 -7.561,7.6466 -18.53274,11.99413 -33.06484,13.10181 -7.23711,0.076 -14.39945,0.28739 -21.41354,-1.37769 l 0,58.04046 -9.74666,0 c -0.12274,-1.47292 0,-134.29231 0,-134.29231 z m 37.42021,68.68514 c 14.58806,-2.60372 24.00761,-10.4456 27.00286,-22.48018 1.65453,-9.89394 1.79102,-19.78603 -4.13836,-27.89186 -4.54876,-6.08049 -10.74774,-9.62486 -20.36577,-11.64444 -10.01826,-1.47355 -21.02688,-1.70899 -30.17228,0.65021 l 0,60.11239 c 8.67075,2.22181 18.73607,2.71333 27.67355,1.25388 z m 61.78683,-77.45983 9.74666,0 0,143.067 -9.74666,0 z m 243.66639,69.25339 c -5.43759,-0.65909 -11.86408,-3.31046 -16.30305,-6.72621 -5.28871,-4.06954 -9.41691,-10.3492 -11.24194,-17.10078 -1.0927,-4.04246 -1.09796,-12.37007 -0.0104,-16.36046 0.83762,-3.07302 2.9336,-7.70031 4.55614,-10.05858 4.50059,-6.5414 11.84094,-11.39712 20.1399,-13.32281 3.69374,-0.85708 10.75505,-0.8504 14.48256,0.0136 13.95672,3.23551 23.82378,14.2485 25.27113,28.20603 0.63844,6.15685 -0.36289,11.76094 -3.11848,17.45302 -3.73969,7.72495 -9.58069,13.02418 -17.81556,16.16305 -4.16757,1.58853 -11.01658,2.33224 -15.9604,1.73299 z m 12.4028,-7.08036 c 6.78562,-2.18743 12.59243,-7.89698 15.30802,-15.05162 5.54028,-14.5968 -2.01366,-30.86341 -16.37427,-35.26013 -10.00314,-3.06264 -21.81949,1.17622 -27.83948,9.98674 -7.60716,11.13347 -5.64143,27.01487 4.3972,35.52558 2.64967,2.2464 7.57994,4.70642 10.8874,5.43248 3.75379,0.82401 10.00209,0.53363 13.62113,-0.63305 z m -20.06088,-41.19765 1.82749,-0.24749 c 15.91911,-2.15579 23.91624,0.80688 23.91624,8.86019 0,3.7454 -1.18885,5.61989 -4.82564,7.60869 -1.57502,0.8613 -1.75293,1.0531 -1.15348,1.24333 1.21464,0.38551 3.43002,3.12363 4.20655,5.19914 0.40856,1.09194 1.04404,3.36542 1.41219,5.05218 0.36815,1.68677 0.91653,3.65848 1.21868,4.38161 0.30215,0.72313 0.54936,1.45229 0.54936,1.62038 l -6.65296,0.3056 -0.6477,-1.47941 c -0.35627,-0.81367 -0.99217,-3.12415 -1.41316,-5.1344 -1.30097,-6.21241 -2.54558,-7.30985 -8.6039,-7.58644 l -3.56797,-0.16291 0,14.36316 -6.2657,0 z m 15.53623,13.78699 c 2.36207,-0.88374 3.25768,-2.14938 3.2596,-4.60609 -0.1029,-2.63827 -2.22795,-4.20406 -4.45405,-4.69834 -2.86837,-0.48461 -5.36411,-0.40417 -8.07608,0.0441 l 0,10.45429 3.6747,-0.23757 c 2.34233,-0.15142 4.37127,-0.49819 5.59583,-0.95636 z"
       id="path4743"
       inkscape:connector-curvature="0"
       sodipodi:nodetypes="ccssccccccssssccssssccssscscsssccscsscssccsssccccsssccccccccsscccssssssssscccscccccccccccssccsssssssscccsscsssccsccccccscscccssccccssssccccccsssssssscccssssssccsccccccsssccsssssscccccccccccccccccccccssscccccccccccccccccsscsscsssccscsssssccssccsssccsscccccsccccss" />
  </g>
</svg>
