<?xml version="1.0" encoding="UTF-8"?>
<!DOCTYPE svg PUBLIC "-//W3C//DTD SVG 1.1//EN" "http://www.w3.org/Graphics/SVG/1.1/DTD/svg11.dtd">
<svg version="1.1" xmlns="http://www.w3.org/2000/svg" xmlns:xlink="http://www.w3.org/1999/xlink" x="0" y="0" width="200" height="93" viewBox="0, 0, 200, 93">
  <g id="Layer_5">
    <g id="Main">
      <g id="ESSENTIALS_OF_EM">
        <path d="M16.425,86.715 L13.043,86.715 C13.043,86.715 12.56,92.271 19.807,92.271 C25.845,92.271 26.328,88.406 26.328,87.198 C26.328,85.99 26.274,84.645 23.913,83.333 C21.739,82.126 16.908,82.367 16.908,79.952 C16.908,77.536 22.464,77.536 22.464,80.676 C22.464,80.676 25.845,80.676 25.845,80.676 C25.845,79.71 25.362,75.604 19.807,75.604 C13.285,75.604 13.527,80.435 13.527,80.435 C13.527,80.435 13.527,83.575 16.908,84.541 C20.29,85.507 22.947,85.749 22.947,87.44 C22.947,87.44 22.947,87.44 22.947,87.44 C22.947,89.13 21.739,89.613 19.807,89.613 C16.425,89.613 16.425,86.715 16.425,86.715 z" fill="#211F1F"/>
        <path d="M-0,76.087 L11.836,76.087 L11.836,78.985 L3.382,78.985 L3.382,82.126 L10.87,82.126 C10.87,82.126 10.87,85.266 10.87,85.266 C10.87,85.266 3.382,85.266 3.382,85.266 L3.382,88.889 L11.836,88.889 L11.836,91.787 L-0,91.787 L-0,76.087 z" fill="#211F1F"/>
        <path d="M30.683,86.715 L27.301,86.715 C27.301,86.715 26.818,92.271 34.065,92.271 C40.103,92.271 40.586,88.406 40.586,87.198 C40.586,85.99 40.532,84.645 38.171,83.333 C35.997,82.126 31.166,82.367 31.166,79.952 C31.166,77.536 36.722,77.536 36.722,80.676 C36.722,80.676 40.103,80.676 40.103,80.676 C40.103,79.71 39.62,75.604 34.065,75.604 C27.543,75.604 27.784,80.435 27.784,80.435 C27.784,80.435 27.784,83.575 31.166,84.541 C34.548,85.507 37.205,85.749 37.205,87.44 C37.205,87.44 37.205,87.44 37.205,87.44 C37.205,89.13 35.997,89.613 34.065,89.613 C30.683,89.613 30.683,86.715 30.683,86.715 z" fill="#211F1F"/>
        <path d="M42.512,76.087 L54.348,76.087 L54.348,78.985 L45.894,78.985 L45.894,82.126 L53.382,82.126 C53.382,82.126 53.382,85.266 53.382,85.266 C53.382,85.266 45.894,85.266 45.894,85.266 L45.894,88.889 L54.348,88.889 L54.348,91.787 L42.512,91.787 L42.512,76.087 z" fill="#211F1F"/>
        <path d="M56.593,91.743 L56.593,76.101 L60.108,76.101 L66.908,86.715 C66.908,86.715 66.962,76.101 66.962,76.101 C66.962,76.101 69.95,76.101 69.95,76.101 L69.95,91.743 L66.962,91.743 L59.903,81.159 L59.932,91.743 L56.593,91.743 z" fill="#201E1F"/>
        <path d="M71.739,76.087 L84.541,76.087 L84.541,78.985 L79.952,78.985 L79.952,91.787 L76.328,91.787 L76.328,78.985 L71.739,78.985" fill="#201E1F"/>
        <path d="M86.232,76.087 L89.855,76.087 L89.855,91.787 L86.232,91.787" fill="#201E1F"/>
        <path d="M96.981,76.02 L90.942,91.72 L94.324,91.72 L95.773,88.097 L101.57,88.097 L102.778,91.72 L106.401,91.72 C106.401,91.72 100.604,76.02 100.604,76.02 M98.792,79.71 L100.725,85.749 L96.618,85.749" fill="#201E1F"/>
        <path d="M107.729,76.087 L111.353,76.087 L111.353,88.889 L118.841,88.889 L118.841,91.787 L107.729,91.787" fill="#201E1F"/>
        <path d="M123.195,86.648 L119.813,86.648 C119.813,86.648 119.33,92.203 126.577,92.203 C132.615,92.203 133.098,88.339 133.098,87.131 C133.098,85.923 133.044,84.578 130.683,83.266 C128.509,82.058 123.678,82.3 123.678,79.885 C123.678,77.469 129.234,77.469 129.234,80.609 C129.234,80.609 132.615,80.609 132.615,80.609 C132.615,79.643 132.132,75.537 126.577,75.537 C120.055,75.537 120.297,80.368 120.297,80.368 C120.297,80.368 120.297,83.508 123.678,84.474 C127.06,85.44 129.717,85.682 129.717,87.372 C129.717,87.372 129.717,87.372 129.717,87.372 C129.717,89.063 128.509,89.546 126.577,89.546 C123.195,89.546 123.195,86.648 123.195,86.648 z" fill="#211F1F"/>
        <path d="M171.014,76.02 L182.85,76.02 L182.85,78.918 L174.396,78.918 L174.396,82.058 L181.884,82.058 C181.884,82.058 181.884,85.199 181.884,85.199 C181.884,85.199 174.396,85.199 174.396,85.199 L174.396,88.822 L182.85,88.822 L182.85,91.72 L171.014,91.72 L171.014,76.02 z" fill="#211F1F"/>
        <path d="M184.783,76.087 L189.613,76.087 L192.512,88.647 L195.411,76.087 L200,76.087 L200,91.787 L197.101,91.787 L197.101,78.744 L193.961,91.787 L190.821,91.787 L187.681,78.744 L187.681,91.787 L184.783,91.787" fill="#211F1F"/>
        <path d="M146.377,92.271 C142.754,92.271 139.13,90.097 138.889,84.058 C138.657,78.265 142.241,75.604 146.377,75.604 C150.512,75.604 153.865,78.502 153.865,84.058 C153.865,88.727 150.512,92.271 146.377,92.271 z M146.256,90.821 C149.524,90.821 152.415,88.406 152.415,83.816 C152.415,79.227 149.524,76.812 146.256,76.812 C142.988,76.812 140.338,79.469 140.338,83.816 C140.338,87.923 142.988,90.821 146.256,90.821 z" fill="#201E1F"/>
        <path d="M155.556,91.787 L157.005,91.787 L157.005,84.299 L164.734,84.299 L164.734,83.092 L157.005,83.092 L157.005,77.295 L165.7,77.295 L165.7,76.087 L155.556,76.087" fill="#201E1F"/>
      </g>
      <g id="EEM">
        <path d="M-0,-0 L58.454,-0 C58.454,-0 58.454,18.357 58.454,18.357 C58.454,18.357 21.981,18.357 21.981,18.357 L21.981,27.295 L50.966,27.295 L50.966,44.203 C50.966,44.203 21.981,44.203 21.981,44.203 C21.981,44.203 21.981,53.14 21.981,53.14 L58.454,53.14 L58.454,71.498 L-0,71.498" fill="#211F1F"/>
        <path d="M58.454,-0 L116.908,-0 C116.908,-0 116.908,18.357 116.908,18.357 C116.908,18.357 80.435,18.357 80.435,18.357 L80.435,27.295 L109.42,27.295 L109.42,44.203 C109.42,44.203 80.435,44.203 80.435,44.203 C80.435,44.203 80.435,53.14 80.435,53.14 L116.908,53.14 L116.908,71.498 L58.454,71.498" fill="#E51936"/>
        <path d="M116.908,-0 L148.068,-0 L158.454,42.271 L168.841,-0 L200,-0 L200,71.498 L179.469,71.498 L179.469,24.879 L166.425,71.498 L150.242,71.498 L137.44,25.121 L137.198,71.498 L116.908,71.498" fill="#E51936"/>
      </g>
    </g>
  </g>
</svg>
