<?xml version="1.0" encoding="UTF-8"?>
<!DOCTYPE svg PUBLIC "-//W3C//DTD SVG 1.1//EN" "http://www.w3.org/Graphics/SVG/1.1/DTD/svg11.dtd">
<svg version="1.1" xmlns="http://www.w3.org/2000/svg" xmlns:xlink="http://www.w3.org/1999/xlink" x="0" y="0" width="200" height="121" viewBox="0, 0, 200, 121">
  <g id="Layer_2">
    <g>
      <path d="M33.798,34.493 L63.42,34.493 L63.42,39.861 L46.521,39.861 L46.521,54.175 L60.935,54.175 L60.935,59.145 L46.521,59.145 L46.521,76.441 L65.905,76.441 L65.905,81.411 L33.798,81.411 L33.798,34.493 z" fill="#000000"/>
      <path d="M70.477,81.411 L75.448,81.411 L75.448,50.199 L84.493,81.411 L91.849,81.411 L101.193,49.503 L101.392,81.411 L114.314,81.411 L114.314,34.493 L100.398,34.493 L92.147,62.624 L84.195,34.493 L70.477,34.493 L70.477,81.411 z" fill="#000000"/>
      <path d="M138.106,34.449 C139.855,34.45 141.604,34.448 143.353,34.462 C143.663,34.464 144.037,34.468 144.35,34.473 C144.577,34.477 144.804,34.48 145.03,34.493 C146.422,34.592 158.34,35.78 158.847,45.924 C159.344,55.865 148.907,57.455 148.907,57.455 C148.907,57.455 155.268,59.543 156.461,62.922 C157.403,65.59 157.654,74.652 158.35,77.535 C158.927,79.925 160.04,81.411 160.04,81.411 L146.422,81.411 C146.422,81.411 145.527,79.523 145.03,77.733 C144.831,76.342 144.235,66.401 143.439,62.525 C142.776,59.288 140.557,58.946 140.557,58.946 L135.388,58.946 L135.388,81.411 L121.968,81.411 L121.968,34.493 C127.347,34.469 132.726,34.452 138.106,34.449 z M140.274,39.463 L140.259,39.463 L135.288,39.463 L135.388,55.567 L140.457,55.567 C140.457,55.567 146.123,54.97 145.825,46.918 C145.732,44.385 144.998,41.592 142.683,40.194 C141.962,39.759 141.117,39.49 140.274,39.463 z" fill="#000000"/>
      <path d="M161.531,16.203 C161.531,16.203 161.531,16.203 161.531,16.203 C153.678,9.642 129.645,1.728 99.106,2.286 C44.732,3.28 3.885,29.63 4.275,61.232 C4.648,91.469 38.444,107.069 45.229,109.841 C45.229,109.841 45.229,109.841 45.229,109.841 C45.229,109.841 45.229,109.841 45.229,109.841 C65.01,118.467 83.742,121.103 105.567,120.676 C146.223,119.88 182.008,101.093 192.445,78.529 C170.577,111.232 127.035,115.359 104.772,115.706 C66.402,116.302 12.128,97.018 11.73,61.431 C11.56,46.177 24.881,21.483 70.271,9.311 C95.726,2.485 134.791,2.485 161.531,16.203 z" fill="#000000"/>
      <path d="M161.531,81.411 L167.098,81.411 L169.881,71.471 L183.698,71.471 L186.978,81.411 L200,81.411 L187.078,34.493 L175.547,34.493 L161.531,81.411 z M171.074,66.898 L177.038,45.626 L182.505,66.898 L171.074,66.898 z" fill="#000000"/>
      <path d="M0,96.521 C-0.099,96.521 16.004,107.554 15.905,107.853 C48.012,92.743 141.451,92.048 175.845,93.638 C165.606,91.65 72.366,78.23 0,96.521 z" fill="#0F487F"/>
      <path d="M157.058,32.008 L164.314,21.869 L149.702,19.682 L164.414,17.594 L157.058,7.356 L167.296,14.712 L169.325,0 L171.471,14.712 L181.71,7.455 L174.354,17.694 L189.165,19.682 L174.354,21.769 L181.809,32.107 L171.471,24.751 L169.384,39.563 L167.296,24.652 z" fill="#0F487F"/>
    </g>
  </g>
</svg>
