<?xml version="1.0" encoding="UTF-8"?>
<!DOCTYPE svg PUBLIC "-//W3C//DTD SVG 1.1//EN" "http://www.w3.org/Graphics/SVG/1.1/DTD/svg11.dtd">
<svg version="1.1" xmlns="http://www.w3.org/2000/svg" xmlns:xlink="http://www.w3.org/1999/xlink" x="0" y="0" width="604" height="350" viewBox="0, 0, 604, 350">
  <g id="gray">
    <g id="Connections">
      <path d="M34.688,176.114 L34.688,180.028 L108.645,180.028 L108.645,176.114 L34.688,176.114 z" fill="#808080" id="path5939"/>
      <path d="M198.426,33.585 L198.426,110.757 L202.426,110.757 L202.426,95.622 L225.566,95.622 L225.567,95.622 L225.584,95.64 L241.484,79.918 L238.401,77.395 L223.963,91.623 L202.426,91.623 L202.426,33.585 L198.426,33.585 z" fill="#808080" id="path5941"/>
      <path d="M220.428,227.821 L217.662,230.59 L257.303,270.232 L260.737,268.056 z" fill="#808080" id="path5965"/>
      <path d="M133.171,227.328 L97.776,262.601 L99.952,266.208 L121.115,244.972 L121.115,314.3 L125.029,314.3 L125.029,281.355 L147.551,281.355 L174.173,308.008 L177.262,305.512 L149.225,277.493 L149.225,277.441 L125.029,277.441 L125.029,241.045 L135.941,230.095 L133.171,227.328 z" fill="#808080" id="path5971"/>
      <path d="M69.737,124.405 L66.993,127.196 L109.871,169.541 L110.588,164.513 z" fill="#808080" id="path5986"/>
    </g>
    <g id="Nodes">
      <path d="M263.961,65.1 C263.961,74.052 256.704,81.309 247.752,81.309 C238.8,81.309 231.543,74.052 231.543,65.1 C231.543,56.148 238.8,48.892 247.752,48.892 C256.704,48.892 263.961,56.148 263.961,65.1 z" fill-opacity="0" stroke="#E9460A" stroke-width="3.646" id="path5910"/>
      <path d="M71.785,115.022 C71.785,123.974 64.528,131.231 55.576,131.231 C46.624,131.231 39.368,123.974 39.368,115.022 C39.368,106.071 46.624,98.814 55.576,98.814 C64.528,98.814 71.785,106.071 71.785,115.022 z" fill-opacity="0" stroke="#E9460A" stroke-width="3.646" id="circle5912"/>
      <path d="M34.417,178.883 C34.417,187.835 27.16,195.092 18.209,195.092 C9.257,195.092 2,187.835 2,178.883 C2,169.932 9.257,162.675 18.209,162.675 C27.16,162.675 34.417,169.932 34.417,178.883 z" fill-opacity="0" stroke="#E9460A" stroke-width="3.646" id="circle5914"/>
      <path d="M104.039,275.068 C104.039,284.02 96.782,291.277 87.831,291.277 C78.879,291.277 71.622,284.02 71.622,275.068 C71.622,266.116 78.879,258.859 87.831,258.859 C96.782,258.859 104.039,266.116 104.039,275.068 z" fill-opacity="0" stroke="#E9460A" stroke-width="3.646" id="circle5916"/>
      <path d="M139.331,329.538 C139.331,338.489 132.074,345.746 123.122,345.746 C114.17,345.746 106.914,338.489 106.914,329.538 C106.914,320.586 114.17,313.329 123.122,313.329 C132.074,313.329 139.331,320.586 139.331,329.538 z" fill-opacity="0" stroke="#E9460A" stroke-width="3.646" id="circle5918"/>
      <path d="M201.313,318.96 C201.313,327.912 194.057,335.169 185.105,335.169 C176.153,335.169 168.896,327.912 168.896,318.96 C168.896,310.008 176.153,302.751 185.105,302.751 C194.057,302.751 201.313,310.008 201.313,318.96 z" fill-opacity="0" stroke="#E9460A" stroke-width="3.646" id="circle5920"/>
      <path d="M283.463,282.284 C283.463,291.236 276.206,298.493 267.254,298.493 C258.302,298.493 251.046,291.236 251.046,282.284 C251.046,273.333 258.302,266.076 267.254,266.076 C276.206,266.076 283.463,273.333 283.463,282.284 z" fill-opacity="0" stroke="#E9460A" stroke-width="3.646" id="circle5922"/>
      <path d="M218.154,18.209 C218.154,27.16 210.897,34.417 201.946,34.417 C192.994,34.417 185.737,27.16 185.737,18.209 C185.737,9.257 192.994,2 201.946,2 C210.897,2 218.154,9.257 218.154,18.209 z" fill-opacity="0" stroke="#E9460A" stroke-width="3.646" id="circle5935"/>
    </g>
    <g id="Fac">
      <path d="M131.755,201.225 L120.824,201.225 L120.824,148.829 L150.857,148.829 L150.857,157.932 L131.755,157.932 L131.755,171.443 L149.531,171.443 L149.531,180.51 L131.755,180.51 L131.755,201.225 z" fill="#000000" id="path5128"/>
      <path d="M185.692,201.225 L183.577,195.777 L183.29,195.777 Q180.531,199.254 177.592,200.615 Q174.689,201.941 169.994,201.941 Q164.224,201.941 160.891,198.644 Q157.594,195.347 157.594,189.255 Q157.594,182.875 162.038,179.865 Q166.518,176.819 175.513,176.496 L182.466,176.281 L182.466,174.525 Q182.466,168.433 176.23,168.433 Q171.428,168.433 164.941,171.336 L161.322,163.953 Q168.238,160.333 176.66,160.333 Q184.724,160.333 189.024,163.845 Q193.325,167.357 193.325,174.525 L193.325,201.225 L185.692,201.225 z M182.466,182.66 L178.237,182.804 Q173.471,182.947 171.141,184.524 Q168.812,186.101 168.812,189.326 Q168.812,193.949 174.116,193.949 Q177.915,193.949 180.172,191.763 Q182.466,189.577 182.466,185.958 L182.466,182.66 z" fill="#000000" id="path5130"/>
      <path d="M220.813,201.941 Q202.105,201.941 202.105,181.406 Q202.105,171.192 207.194,165.816 Q212.284,160.405 221.781,160.405 Q228.733,160.405 234.252,163.129 L231.027,171.586 Q228.447,170.547 226.225,169.902 Q224.003,169.221 221.781,169.221 Q213.251,169.221 213.251,181.334 Q213.251,193.089 221.781,193.089 Q224.934,193.089 227.622,192.265 Q230.31,191.405 232.998,189.613 L232.998,198.967 Q230.346,200.651 227.622,201.296 Q224.934,201.941 220.813,201.941 z" fill="#000000" id="path5132"/>
      <path d="M245.72,175.415 C245.72,213.027 215.23,243.517 177.619,243.517 C140.007,243.517 109.517,213.027 109.517,175.415 C109.517,137.804 140.007,107.314 177.619,107.314 C215.23,107.314 245.72,137.804 245.72,175.415 z" fill-opacity="0" stroke="#E9460A" stroke-width="4.89" id="path5908"/>
    </g>
    <g id="Text">
      <path d="M217.924,326.26 L217.971,326.26 L223.373,311.815 L225.182,311.815 L218.817,328.444 L217.032,328.444 L210.69,311.815 L212.522,311.815 z" fill="#000000"/>
      <path d="M228.564,328.444 L226.967,328.444 L226.967,317.452 L228.564,317.452 z M228.893,313.225 Q228.893,313.718 228.54,314.035 Q228.188,314.352 227.765,314.352 Q227.343,314.352 226.99,314.035 Q226.638,313.718 226.638,313.225 Q226.638,312.731 226.99,312.414 Q227.343,312.097 227.765,312.097 Q228.188,312.097 228.54,312.414 Q228.893,312.731 228.893,313.225 z" fill="#000000"/>
      <path d="M232.815,319.872 Q232.815,319.425 232.792,318.721 Q232.768,318.016 232.721,317.452 L234.248,317.452 Q234.295,317.899 234.318,318.439 Q234.342,318.979 234.342,319.331 L234.389,319.331 Q234.858,318.368 235.798,317.769 Q236.737,317.171 237.912,317.171 Q238.217,317.171 238.464,317.194 Q238.71,317.217 238.969,317.288 L238.757,318.791 Q238.616,318.744 238.288,318.697 Q237.959,318.65 237.63,318.65 Q236.996,318.65 236.409,318.885 Q235.821,319.12 235.387,319.625 Q234.952,320.13 234.682,320.917 Q234.412,321.704 234.412,322.807 L234.412,328.444 L232.815,328.444 L232.815,319.872 z" fill="#000000"/>
      <path d="M245.944,318.791 L242.844,318.791 L242.844,325.203 Q242.844,325.814 242.961,326.213 Q243.079,326.612 243.302,326.835 Q243.525,327.059 243.83,327.141 Q244.136,327.223 244.488,327.223 Q244.817,327.223 245.181,327.129 Q245.545,327.035 245.874,326.871 L245.944,328.256 Q245.522,328.421 245.064,328.503 Q244.606,328.585 244.065,328.585 Q243.619,328.585 243.126,328.468 Q242.633,328.35 242.21,328.021 Q241.787,327.693 241.517,327.129 Q241.247,326.565 241.247,325.649 L241.247,318.791 L238.969,318.791 L238.969,317.452 L241.247,317.452 L241.247,314.352 L242.844,314.352 L242.844,317.452 L245.944,317.452 z" fill="#000000"/>
      <path d="M256.419,328.444 Q256.372,327.998 256.349,327.458 Q256.326,326.918 256.326,326.565 L256.279,326.565 Q255.809,327.528 254.752,328.127 Q253.695,328.726 252.521,328.726 Q250.43,328.726 249.385,327.481 Q248.34,326.236 248.34,324.193 L248.34,317.452 L249.937,317.452 L249.937,323.535 Q249.937,324.405 250.078,325.109 Q250.219,325.814 250.559,326.319 Q250.9,326.824 251.475,327.105 Q252.051,327.387 252.92,327.387 Q253.554,327.387 254.153,327.129 Q254.752,326.871 255.222,326.342 Q255.691,325.814 255.973,325.003 Q256.255,324.193 256.255,323.089 L256.255,317.452 L257.852,317.452 L257.852,326.025 Q257.852,326.471 257.876,327.176 Q257.899,327.881 257.946,328.444 z" fill="#000000"/>
      <path d="M269.009,321.351 Q269.009,319.918 268.257,319.214 Q267.505,318.509 266.073,318.509 Q265.086,318.509 264.241,318.862 Q263.395,319.214 262.808,319.801 L261.915,318.744 Q262.597,318.063 263.712,317.617 Q264.828,317.171 266.237,317.171 Q267.13,317.171 267.905,317.417 Q268.68,317.664 269.267,318.157 Q269.854,318.65 270.183,319.402 Q270.512,320.153 270.512,321.163 L270.512,325.978 Q270.512,326.612 270.559,327.293 Q270.606,327.975 270.7,328.444 L269.267,328.444 Q269.196,328.045 269.149,327.575 Q269.102,327.105 269.102,326.659 L269.055,326.659 Q268.304,327.763 267.353,328.245 Q266.401,328.726 265.063,328.726 Q264.429,328.726 263.759,328.55 Q263.09,328.374 262.538,327.975 Q261.986,327.575 261.622,326.941 Q261.258,326.307 261.258,325.391 Q261.258,324.123 261.904,323.383 Q262.55,322.643 263.63,322.279 Q264.71,321.915 266.108,321.809 Q267.505,321.703 269.009,321.703 z M268.539,322.948 Q267.552,322.948 266.554,323.031 Q265.556,323.113 264.746,323.359 Q263.935,323.606 263.419,324.076 Q262.902,324.545 262.902,325.32 Q262.902,325.908 263.125,326.307 Q263.348,326.706 263.724,326.953 Q264.1,327.199 264.558,327.305 Q265.016,327.411 265.485,327.411 Q266.331,327.411 266.989,327.117 Q267.646,326.824 268.093,326.319 Q268.539,325.814 268.774,325.156 Q269.009,324.498 269.009,323.77 L269.009,322.948 z" fill="#000000"/>
      <path d="M276.266,328.444 L274.669,328.444 L274.669,310.688 L276.266,310.688 z" fill="#000000"/>
      <path d="M300.505,325.767 Q300.082,326.401 299.483,326.965 Q298.884,327.528 298.097,327.951 Q297.31,328.374 296.359,328.62 Q295.408,328.867 294.28,328.867 Q292.402,328.867 290.804,328.209 Q289.207,327.552 288.056,326.389 Q286.906,325.227 286.26,323.629 Q285.614,322.032 285.614,320.13 Q285.614,318.227 286.271,316.63 Q286.929,315.033 288.092,313.871 Q289.254,312.708 290.84,312.05 Q292.425,311.393 294.28,311.393 Q295.196,311.393 296.077,311.581 Q296.958,311.769 297.733,312.109 Q298.508,312.45 299.142,312.931 Q299.776,313.413 300.199,314.023 L298.79,315.057 Q298.532,314.657 298.097,314.258 Q297.663,313.859 297.075,313.554 Q296.488,313.248 295.795,313.06 Q295.103,312.872 294.304,312.872 Q292.683,312.872 291.403,313.46 Q290.123,314.047 289.231,315.045 Q288.338,316.043 287.869,317.358 Q287.399,318.674 287.399,320.13 Q287.399,321.586 287.88,322.901 Q288.362,324.217 289.254,325.215 Q290.147,326.213 291.427,326.8 Q292.707,327.387 294.304,327.387 Q295.737,327.387 297.028,326.8 Q298.32,326.213 299.189,324.921 z" fill="#000000"/>
      <path d="M313.963,322.948 Q313.963,324.193 313.528,325.25 Q313.094,326.307 312.318,327.082 Q311.543,327.857 310.463,328.292 Q309.383,328.726 308.091,328.726 Q306.823,328.726 305.742,328.292 Q304.662,327.857 303.887,327.082 Q303.112,326.307 302.677,325.25 Q302.243,324.193 302.243,322.948 Q302.243,321.703 302.677,320.647 Q303.112,319.59 303.887,318.815 Q304.662,318.04 305.742,317.605 Q306.823,317.171 308.091,317.171 Q309.383,317.171 310.463,317.605 Q311.543,318.04 312.318,318.815 Q313.094,319.59 313.528,320.647 Q313.963,321.703 313.963,322.948 z M312.271,322.948 Q312.271,322.032 311.978,321.222 Q311.684,320.412 311.144,319.813 Q310.604,319.214 309.829,318.862 Q309.054,318.509 308.091,318.509 Q307.128,318.509 306.365,318.862 Q305.601,319.214 305.061,319.813 Q304.521,320.412 304.227,321.222 Q303.934,322.032 303.934,322.948 Q303.934,323.864 304.227,324.675 Q304.521,325.485 305.061,326.084 Q305.601,326.683 306.365,327.023 Q307.128,327.364 308.091,327.364 Q309.054,327.364 309.829,327.023 Q310.604,326.683 311.144,326.084 Q311.684,325.485 311.978,324.675 Q312.271,323.864 312.271,322.948 z" fill="#000000"/>
      <path d="M318.965,319.331 Q319.435,318.368 320.41,317.769 Q321.384,317.171 322.582,317.171 Q323.029,317.171 323.51,317.264 Q323.991,317.358 324.449,317.629 Q324.907,317.899 325.295,318.345 Q325.683,318.791 325.964,319.496 Q326.528,318.368 327.503,317.769 Q328.477,317.171 329.816,317.171 Q331.907,317.171 332.952,318.415 Q333.997,319.66 333.997,321.704 L333.997,328.444 L332.4,328.444 L332.4,322.361 Q332.4,320.623 331.754,319.566 Q331.108,318.509 329.558,318.509 Q328.689,318.509 328.09,318.862 Q327.491,319.214 327.127,319.789 Q326.763,320.365 326.599,321.093 Q326.434,321.821 326.434,322.596 L326.434,328.444 L324.837,328.444 L324.837,322.032 Q324.837,321.234 324.72,320.576 Q324.602,319.918 324.309,319.461 Q324.015,319.003 323.498,318.756 Q322.982,318.509 322.183,318.509 Q321.619,318.509 321.044,318.768 Q320.468,319.026 320.01,319.554 Q319.552,320.083 319.271,320.893 Q318.989,321.704 318.989,322.807 L318.989,328.444 L317.392,328.444 L317.392,319.872 Q317.392,319.425 317.368,318.721 Q317.345,318.016 317.298,317.452 L318.824,317.452 Q318.871,317.899 318.895,318.439 Q318.918,318.979 318.918,319.331 L318.965,319.331 z" fill="#000000"/>
      <path d="M339.704,319.331 Q340.174,318.368 341.149,317.769 Q342.123,317.171 343.321,317.171 Q343.767,317.171 344.249,317.264 Q344.73,317.358 345.188,317.629 Q345.646,317.899 346.034,318.345 Q346.422,318.791 346.703,319.496 Q347.267,318.368 348.242,317.769 Q349.216,317.171 350.555,317.171 Q352.646,317.171 353.691,318.415 Q354.736,319.66 354.736,321.704 L354.736,328.444 L353.139,328.444 L353.139,322.361 Q353.139,320.623 352.493,319.566 Q351.847,318.509 350.297,318.509 Q349.428,318.509 348.829,318.862 Q348.23,319.214 347.866,319.789 Q347.502,320.365 347.337,321.093 Q347.173,321.821 347.173,322.596 L347.173,328.444 L345.576,328.444 L345.576,322.032 Q345.576,321.234 345.459,320.576 Q345.341,319.918 345.048,319.461 Q344.754,319.003 344.237,318.756 Q343.72,318.509 342.922,318.509 Q342.358,318.509 341.783,318.768 Q341.207,319.026 340.749,319.554 Q340.291,320.083 340.01,320.893 Q339.728,321.704 339.728,322.807 L339.728,328.444 L338.131,328.444 L338.131,319.872 Q338.131,319.425 338.107,318.721 Q338.084,318.016 338.037,317.452 L339.563,317.452 Q339.61,317.899 339.634,318.439 Q339.657,318.979 339.657,319.331 L339.704,319.331 z" fill="#000000"/>
      <path d="M366.855,328.444 Q366.808,327.998 366.785,327.458 Q366.761,326.918 366.761,326.565 L366.714,326.565 Q366.245,327.528 365.188,328.127 Q364.131,328.726 362.956,328.726 Q360.866,328.726 359.821,327.481 Q358.776,326.236 358.776,324.193 L358.776,317.452 L360.373,317.452 L360.373,323.535 Q360.373,324.405 360.514,325.109 Q360.655,325.814 360.995,326.319 Q361.336,326.824 361.911,327.105 Q362.487,327.387 363.356,327.387 Q363.99,327.387 364.589,327.129 Q365.188,326.871 365.657,326.342 Q366.127,325.814 366.409,325.003 Q366.691,324.193 366.691,323.089 L366.691,317.452 L368.288,317.452 L368.288,326.025 Q368.288,326.471 368.311,327.176 Q368.335,327.881 368.382,328.444 z" fill="#000000"/>
      <path d="M373.948,317.452 Q373.995,317.899 374.019,318.439 Q374.042,318.979 374.042,319.331 L374.089,319.331 Q374.559,318.368 375.616,317.769 Q376.673,317.171 377.847,317.171 Q379.937,317.171 380.983,318.415 Q382.028,319.66 382.028,321.704 L382.028,328.444 L380.431,328.444 L380.431,322.361 Q380.431,321.492 380.29,320.788 Q380.149,320.083 379.808,319.578 Q379.468,319.073 378.892,318.791 Q378.317,318.509 377.448,318.509 Q376.814,318.509 376.215,318.768 Q375.616,319.026 375.146,319.554 Q374.676,320.083 374.395,320.893 Q374.113,321.704 374.113,322.807 L374.113,328.444 L372.516,328.444 L372.516,319.872 Q372.516,319.425 372.492,318.721 Q372.469,318.016 372.422,317.452 z" fill="#000000"/>
      <path d="M387.782,328.444 L386.185,328.444 L386.185,317.452 L387.782,317.452 z M388.111,313.225 Q388.111,313.718 387.759,314.035 Q387.406,314.352 386.983,314.352 Q386.561,314.352 386.208,314.035 Q385.856,313.718 385.856,313.225 Q385.856,312.731 386.208,312.414 Q386.561,312.097 386.983,312.097 Q387.406,312.097 387.759,312.414 Q388.111,312.731 388.111,313.225 z" fill="#000000"/>
      <path d="M396.989,318.791 L393.889,318.791 L393.889,325.203 Q393.889,325.814 394.006,326.213 Q394.124,326.612 394.347,326.835 Q394.57,327.059 394.875,327.141 Q395.18,327.223 395.533,327.223 Q395.862,327.223 396.226,327.129 Q396.59,327.035 396.918,326.871 L396.989,328.256 Q396.566,328.421 396.108,328.503 Q395.65,328.585 395.11,328.585 Q394.664,328.585 394.171,328.468 Q393.677,328.35 393.255,328.021 Q392.832,327.693 392.562,327.129 Q392.292,326.565 392.292,325.649 L392.292,318.791 L390.013,318.791 L390.013,317.452 L392.292,317.452 L392.292,314.352 L393.889,314.352 L393.889,317.452 L396.989,317.452 z" fill="#000000"/>
      <path d="M403.26,326.73 L403.307,326.73 L406.713,317.452 L408.451,317.452 L402.978,331.286 Q402.485,332.554 401.722,333.318 Q400.958,334.081 399.526,334.081 Q398.797,334.081 398.093,333.94 L398.257,332.484 Q398.821,332.672 399.432,332.672 Q400.254,332.672 400.723,332.167 Q401.193,331.662 401.545,330.722 L402.438,328.421 L397.741,317.452 L399.526,317.452 z" fill="#000000"/>
      <path d="M412.302,327.317 Q412.302,327.81 411.95,328.198 Q411.598,328.585 411.034,328.585 Q410.47,328.585 410.118,328.198 Q409.766,327.81 409.766,327.317 Q409.766,326.824 410.118,326.436 Q410.47,326.049 411.034,326.049 Q411.598,326.049 411.95,326.436 Q412.302,326.824 412.302,327.317 z" fill="#000000"/>
      <path d="M423.153,328.444 L421.462,328.444 L421.462,311.815 L426.348,311.815 Q427.569,311.815 428.614,312.05 Q429.659,312.285 430.423,312.814 Q431.186,313.342 431.609,314.188 Q432.031,315.033 432.031,316.255 Q432.031,317.171 431.703,317.922 Q431.374,318.674 430.81,319.226 Q430.246,319.778 429.471,320.106 Q428.696,320.435 427.78,320.529 L432.642,328.444 L430.575,328.444 L425.972,320.67 L423.153,320.67 z M423.153,319.214 L426.089,319.214 Q428.133,319.214 429.237,318.474 Q430.34,317.734 430.34,316.255 Q430.34,315.432 430.035,314.869 Q429.73,314.305 429.19,313.953 Q428.649,313.6 427.874,313.436 Q427.099,313.272 426.16,313.272 L423.153,313.272 z" fill="#000000"/>
      <path d="M443.54,322.103 Q443.47,320.553 442.542,319.531 Q441.614,318.509 439.9,318.509 Q439.101,318.509 438.42,318.803 Q437.739,319.096 437.222,319.601 Q436.705,320.106 436.4,320.752 Q436.095,321.398 436.048,322.103 z M445.161,322.62 Q445.161,322.784 445.161,322.972 Q445.161,323.16 445.137,323.371 L436.024,323.371 Q436.048,324.193 436.353,324.921 Q436.658,325.649 437.199,326.19 Q437.739,326.73 438.467,327.047 Q439.195,327.364 440.041,327.364 Q441.285,327.364 442.19,326.788 Q443.094,326.213 443.564,325.461 L444.761,326.401 Q443.775,327.646 442.589,328.186 Q441.403,328.726 440.041,328.726 Q438.819,328.726 437.774,328.292 Q436.729,327.857 435.977,327.082 Q435.226,326.307 434.791,325.25 Q434.357,324.193 434.357,322.948 Q434.357,321.703 434.779,320.647 Q435.202,319.59 435.954,318.815 Q436.705,318.04 437.715,317.605 Q438.725,317.171 439.9,317.171 Q441.191,317.171 442.178,317.605 Q443.164,318.04 443.822,318.779 Q444.48,319.519 444.82,320.506 Q445.161,321.492 445.161,322.62 z" fill="#000000"/>
      <path d="M455.378,321.351 Q455.378,319.918 454.626,319.214 Q453.874,318.509 452.442,318.509 Q451.455,318.509 450.61,318.862 Q449.764,319.214 449.177,319.801 L448.284,318.744 Q448.966,318.063 450.081,317.617 Q451.197,317.171 452.606,317.171 Q453.499,317.171 454.274,317.417 Q455.049,317.664 455.636,318.157 Q456.223,318.65 456.552,319.402 Q456.881,320.153 456.881,321.163 L456.881,325.978 Q456.881,326.612 456.928,327.293 Q456.975,327.975 457.069,328.444 L455.636,328.444 Q455.565,328.045 455.518,327.575 Q455.471,327.105 455.471,326.659 L455.424,326.659 Q454.673,327.763 453.722,328.245 Q452.77,328.726 451.432,328.726 Q450.798,328.726 450.128,328.55 Q449.459,328.374 448.907,327.975 Q448.355,327.575 447.991,326.941 Q447.627,326.307 447.627,325.391 Q447.627,324.123 448.273,323.383 Q448.919,322.643 449.999,322.279 Q451.079,321.915 452.477,321.809 Q453.874,321.703 455.378,321.703 z M454.908,322.948 Q453.921,322.948 452.923,323.031 Q451.925,323.113 451.115,323.359 Q450.304,323.606 449.788,324.076 Q449.271,324.545 449.271,325.32 Q449.271,325.908 449.494,326.307 Q449.717,326.706 450.093,326.953 Q450.469,327.199 450.927,327.305 Q451.385,327.411 451.854,327.411 Q452.7,327.411 453.358,327.117 Q454.015,326.824 454.462,326.319 Q454.908,325.814 455.143,325.156 Q455.378,324.498 455.378,323.77 L455.378,322.948 z" fill="#000000"/>
      <path d="M462.635,328.444 L461.038,328.444 L461.038,310.688 L462.635,310.688 z" fill="#000000"/>
      <path d="M474.566,328.444 L472.875,328.444 L472.875,311.815 L474.566,311.815 z" fill="#000000"/>
      <path d="M480.321,317.452 Q480.368,317.899 480.391,318.439 Q480.415,318.979 480.415,319.331 L480.462,319.331 Q480.931,318.368 481.988,317.769 Q483.045,317.171 484.22,317.171 Q486.31,317.171 487.355,318.415 Q488.4,319.66 488.4,321.704 L488.4,328.444 L486.803,328.444 L486.803,322.361 Q486.803,321.492 486.662,320.788 Q486.521,320.083 486.181,319.578 Q485.84,319.073 485.265,318.791 Q484.689,318.509 483.82,318.509 Q483.186,318.509 482.587,318.768 Q481.988,319.026 481.519,319.554 Q481.049,320.083 480.767,320.893 Q480.485,321.704 480.485,322.807 L480.485,328.444 L478.888,328.444 L478.888,319.872 Q478.888,319.425 478.865,318.721 Q478.841,318.016 478.794,317.452 z" fill="#000000"/>
      <path d="M493.967,317.452 Q494.014,317.899 494.037,318.439 Q494.061,318.979 494.061,319.331 L494.108,319.331 Q494.577,318.368 495.634,317.769 Q496.691,317.171 497.865,317.171 Q499.956,317.171 501.001,318.415 Q502.046,319.66 502.046,321.704 L502.046,328.444 L500.449,328.444 L500.449,322.361 Q500.449,321.492 500.308,320.788 Q500.167,320.083 499.827,319.578 Q499.486,319.073 498.911,318.791 Q498.335,318.509 497.466,318.509 Q496.832,318.509 496.233,318.768 Q495.634,319.026 495.164,319.554 Q494.695,320.083 494.413,320.893 Q494.131,321.704 494.131,322.807 L494.131,328.444 L492.534,328.444 L492.534,319.872 Q492.534,319.425 492.51,318.721 Q492.487,318.016 492.44,317.452 z" fill="#000000"/>
      <path d="M517.101,322.948 Q517.101,324.193 516.667,325.25 Q516.232,326.307 515.457,327.082 Q514.682,327.857 513.602,328.292 Q512.521,328.726 511.23,328.726 Q509.961,328.726 508.881,328.292 Q507.8,327.857 507.025,327.082 Q506.25,326.307 505.816,325.25 Q505.381,324.193 505.381,322.948 Q505.381,321.703 505.816,320.647 Q506.25,319.59 507.025,318.815 Q507.8,318.04 508.881,317.605 Q509.961,317.171 511.23,317.171 Q512.521,317.171 513.602,317.605 Q514.682,318.04 515.457,318.815 Q516.232,319.59 516.667,320.647 Q517.101,321.703 517.101,322.948 z M515.41,322.948 Q515.41,322.032 515.117,321.222 Q514.823,320.412 514.283,319.813 Q513.743,319.214 512.968,318.862 Q512.193,318.509 511.23,318.509 Q510.267,318.509 509.503,318.862 Q508.74,319.214 508.2,319.813 Q507.66,320.412 507.366,321.222 Q507.072,322.032 507.072,322.948 Q507.072,323.864 507.366,324.675 Q507.66,325.485 508.2,326.084 Q508.74,326.683 509.503,327.023 Q510.267,327.364 511.23,327.364 Q512.193,327.364 512.968,327.023 Q513.743,326.683 514.283,326.084 Q514.823,325.485 515.117,324.675 Q515.41,323.864 515.41,322.948 z" fill="#000000"/>
      <path d="M525.04,328.444 L523.278,328.444 L518.792,317.452 L520.577,317.452 L524.147,326.753 L524.194,326.753 L527.788,317.452 L529.502,317.452 z" fill="#000000"/>
      <path d="M538.921,321.351 Q538.921,319.918 538.169,319.214 Q537.417,318.509 535.985,318.509 Q534.998,318.509 534.153,318.862 Q533.307,319.214 532.72,319.801 L531.828,318.744 Q532.509,318.063 533.624,317.617 Q534.74,317.171 536.149,317.171 Q537.042,317.171 537.817,317.417 Q538.592,317.664 539.179,318.157 Q539.766,318.65 540.095,319.402 Q540.424,320.153 540.424,321.163 L540.424,325.978 Q540.424,326.612 540.471,327.293 Q540.518,327.975 540.612,328.444 L539.179,328.444 Q539.109,328.045 539.062,327.575 Q539.015,327.105 539.015,326.659 L538.968,326.659 Q538.216,327.763 537.265,328.245 Q536.314,328.726 534.975,328.726 Q534.341,328.726 533.671,328.55 Q533.002,328.374 532.45,327.975 Q531.898,327.575 531.534,326.941 Q531.17,326.307 531.17,325.391 Q531.17,324.123 531.816,323.383 Q532.462,322.643 533.542,322.279 Q534.622,321.915 536.02,321.809 Q537.417,321.703 538.921,321.703 z M538.451,322.948 Q537.464,322.948 536.466,323.031 Q535.468,323.113 534.658,323.359 Q533.847,323.606 533.331,324.076 Q532.814,324.545 532.814,325.32 Q532.814,325.908 533.037,326.307 Q533.26,326.706 533.636,326.953 Q534.012,327.199 534.47,327.305 Q534.928,327.411 535.398,327.411 Q536.243,327.411 536.901,327.117 Q537.558,326.824 538.005,326.319 Q538.451,325.814 538.686,325.156 Q538.921,324.498 538.921,323.77 L538.921,322.948 z" fill="#000000"/>
      <path d="M549.255,318.791 L546.155,318.791 L546.155,325.203 Q546.155,325.814 546.272,326.213 Q546.389,326.612 546.613,326.835 Q546.836,327.059 547.141,327.141 Q547.446,327.223 547.799,327.223 Q548.128,327.223 548.492,327.129 Q548.856,327.035 549.184,326.871 L549.255,328.256 Q548.832,328.421 548.374,328.503 Q547.916,328.585 547.376,328.585 Q546.93,328.585 546.436,328.468 Q545.943,328.35 545.52,328.021 Q545.098,327.693 544.828,327.129 Q544.557,326.565 544.557,325.649 L544.557,318.791 L542.279,318.791 L542.279,317.452 L544.557,317.452 L544.557,314.352 L546.155,314.352 L546.155,317.452 L549.255,317.452 z" fill="#000000"/>
      <path d="M553.365,328.444 L551.768,328.444 L551.768,317.452 L553.365,317.452 z M553.694,313.225 Q553.694,313.718 553.342,314.035 Q552.989,314.352 552.567,314.352 Q552.144,314.352 551.791,314.035 Q551.439,313.718 551.439,313.225 Q551.439,312.731 551.791,312.414 Q552.144,312.097 552.567,312.097 Q552.989,312.097 553.342,312.414 Q553.694,312.731 553.694,313.225 z" fill="#000000"/>
      <path d="M568.538,322.948 Q568.538,324.193 568.103,325.25 Q567.669,326.307 566.894,327.082 Q566.119,327.857 565.038,328.292 Q563.958,328.726 562.666,328.726 Q561.398,328.726 560.317,328.292 Q559.237,327.857 558.462,327.082 Q557.687,326.307 557.252,325.25 Q556.818,324.193 556.818,322.948 Q556.818,321.703 557.252,320.647 Q557.687,319.59 558.462,318.815 Q559.237,318.04 560.317,317.605 Q561.398,317.171 562.666,317.171 Q563.958,317.171 565.038,317.605 Q566.119,318.04 566.894,318.815 Q567.669,319.59 568.103,320.647 Q568.538,321.703 568.538,322.948 z M566.847,322.948 Q566.847,322.032 566.553,321.222 Q566.259,320.412 565.719,319.813 Q565.179,319.214 564.404,318.862 Q563.629,318.509 562.666,318.509 Q561.703,318.509 560.94,318.862 Q560.176,319.214 559.636,319.813 Q559.096,320.412 558.802,321.222 Q558.509,322.032 558.509,322.948 Q558.509,323.864 558.802,324.675 Q559.096,325.485 559.636,326.084 Q560.176,326.683 560.94,327.023 Q561.703,327.364 562.666,327.364 Q563.629,327.364 564.404,327.023 Q565.179,326.683 565.719,326.084 Q566.259,325.485 566.553,324.675 Q566.847,323.864 566.847,322.948 z" fill="#000000"/>
      <path d="M573.399,317.452 Q573.446,317.899 573.47,318.439 Q573.493,318.979 573.493,319.331 L573.54,319.331 Q574.01,318.368 575.067,317.769 Q576.124,317.171 577.298,317.171 Q579.389,317.171 580.434,318.415 Q581.479,319.66 581.479,321.704 L581.479,328.444 L579.882,328.444 L579.882,322.361 Q579.882,321.492 579.741,320.788 Q579.6,320.083 579.26,319.578 Q578.919,319.073 578.344,318.791 Q577.768,318.509 576.899,318.509 Q576.265,318.509 575.666,318.768 Q575.067,319.026 574.597,319.554 Q574.128,320.083 573.846,320.893 Q573.564,321.704 573.564,322.807 L573.564,328.444 L571.967,328.444 L571.967,319.872 Q571.967,319.425 571.943,318.721 Q571.92,318.016 571.873,317.452 z" fill="#000000"/>
      <path d="M587.82,327.317 Q587.82,327.81 587.468,328.198 Q587.116,328.585 586.552,328.585 Q585.989,328.585 585.636,328.198 Q585.284,327.81 585.284,327.317 Q585.284,326.824 585.636,326.436 Q585.989,326.049 586.552,326.049 Q587.116,326.049 587.468,326.436 Q587.82,326.824 587.82,327.317 z" fill="#000000"/>
      <path d="M462.82,247.808 L458.954,247.808 L473.927,213.164 L477.353,213.164 L492.228,247.808 L488.313,247.808 L484.496,238.706 L466.588,238.706 z M467.909,235.477 L483.175,235.477 L475.542,217.079 z" fill="#E9460A"/>
      <path d="M500.839,244.676 L516.987,244.676 L516.987,247.808 L497.316,247.808 L497.316,213.164 L500.839,213.164 z" fill="#E9460A"/>
      <path d="M525.452,247.808 L522.125,247.808 L522.125,224.908 L525.452,224.908 z M526.137,216.1 Q526.137,217.128 525.403,217.788 Q524.669,218.449 523.788,218.449 Q522.907,218.449 522.174,217.788 Q521.44,217.128 521.44,216.1 Q521.44,215.073 522.174,214.412 Q522.907,213.751 523.788,213.751 Q524.669,213.751 525.403,214.412 Q526.137,215.073 526.137,216.1 z" fill="#E9460A"/>
      <path d="M538.027,244.676 L556.572,244.676 L556.572,247.808 L534.504,247.808 L534.504,213.164 L555.985,213.164 L555.985,216.296 L538.027,216.296 L538.027,228.235 L554.811,228.235 L554.811,231.318 L538.027,231.318 z" fill="#E9460A"/>
      <path d="M580.597,241.838 L580.646,241.838 L592.243,213.164 L597.625,213.164 L597.625,247.808 L594.102,247.808 L594.102,217.715 L594.004,217.715 L581.478,247.808 L579.619,247.808 L567.092,217.715 L566.994,217.715 L566.994,247.808 L563.471,247.808 L563.471,213.164 L568.854,213.164 z" fill="#E9460A"/>
      <path d="M261.339,200.834 L255.816,200.834 L255.816,162.82 L261.339,162.82 z M262.476,148.199 Q262.476,149.905 261.258,151.002 Q260.04,152.098 258.578,152.098 Q257.115,152.098 255.897,151.002 Q254.679,149.905 254.679,148.199 Q254.679,146.494 255.897,145.397 Q257.115,144.301 258.578,144.301 Q260.04,144.301 261.258,145.397 Q262.476,146.494 262.476,148.199 z" fill="#000000"/>
      <path d="M280.996,162.82 Q281.158,164.363 281.24,166.231 Q281.321,168.1 281.321,169.318 L281.483,169.318 Q283.108,165.988 286.763,163.917 Q290.418,161.845 294.479,161.845 Q301.708,161.845 305.323,166.15 Q308.938,170.455 308.938,177.522 L308.938,200.834 L303.414,200.834 L303.414,179.796 Q303.414,176.791 302.927,174.354 Q302.439,171.917 301.262,170.171 Q300.084,168.425 298.094,167.45 Q296.104,166.475 293.098,166.475 Q290.905,166.475 288.834,167.369 Q286.763,168.262 285.138,170.09 Q283.514,171.917 282.539,174.72 Q281.564,177.522 281.564,181.339 L281.564,200.834 L276.041,200.834 L276.041,171.186 Q276.041,169.643 275.96,167.206 Q275.879,164.769 275.716,162.82 z" fill="#000000"/>
      <path d="M350.606,171.511 Q349.225,169.318 346.586,167.897 Q343.946,166.475 340.859,166.475 Q337.529,166.475 334.849,167.653 Q332.168,168.831 330.259,170.902 Q328.35,172.973 327.335,175.776 Q326.32,178.578 326.32,181.827 Q326.32,185.076 327.335,187.838 Q328.35,190.599 330.219,192.67 Q332.087,194.742 334.767,195.919 Q337.448,197.097 340.778,197.097 Q344.433,197.097 346.951,195.716 Q349.469,194.336 351.094,192.142 L355.236,195.229 Q352.799,198.234 349.266,200.021 Q345.733,201.808 340.778,201.808 Q336.148,201.808 332.412,200.306 Q328.675,198.803 326.036,196.123 Q323.396,193.442 321.934,189.787 Q320.472,186.132 320.472,181.827 Q320.472,177.522 321.934,173.867 Q323.396,170.212 326.036,167.531 Q328.675,164.851 332.412,163.348 Q336.148,161.845 340.778,161.845 Q344.596,161.845 348.535,163.51 Q352.475,165.176 354.911,168.425 z" fill="#000000"/>
      <path d="M391.463,200.834 Q391.3,199.29 391.219,197.422 Q391.138,195.554 391.138,194.336 L390.976,194.336 Q389.351,197.666 385.696,199.737 Q382.041,201.808 377.979,201.808 Q370.75,201.808 367.136,197.503 Q363.521,193.198 363.521,186.132 L363.521,162.82 L369.045,162.82 L369.045,183.857 Q369.045,186.863 369.532,189.3 Q370.019,191.736 371.197,193.483 Q372.375,195.229 374.365,196.204 Q376.355,197.178 379.36,197.178 Q381.553,197.178 383.625,196.285 Q385.696,195.392 387.32,193.564 Q388.945,191.736 389.92,188.934 Q390.894,186.132 390.894,182.314 L390.894,162.82 L396.418,162.82 L396.418,192.467 Q396.418,194.011 396.499,196.447 Q396.58,198.884 396.743,200.834 z" fill="#000000"/>
      <path d="M416.724,194.417 L416.724,200.834 L411.201,200.834 L411.201,139.427 L416.724,139.427 L416.724,169.399 L416.887,169.399 Q419.323,165.663 423.222,163.754 Q427.121,161.845 431.263,161.845 Q435.731,161.845 439.345,163.389 Q442.96,164.932 445.519,167.612 Q448.077,170.293 449.499,173.948 Q450.92,177.603 450.92,181.827 Q450.92,186.051 449.499,189.706 Q448.077,193.361 445.519,196.041 Q442.96,198.722 439.345,200.265 Q435.731,201.808 431.263,201.808 Q427.121,201.808 423.222,199.94 Q419.323,198.072 416.887,194.417 z M445.072,181.827 Q445.072,178.659 444.097,175.857 Q443.122,173.054 441.295,170.983 Q439.467,168.912 436.787,167.694 Q434.106,166.475 430.695,166.475 Q427.527,166.475 424.847,167.653 Q422.166,168.831 420.217,170.902 Q418.267,172.973 417.171,175.776 Q416.074,178.578 416.074,181.827 Q416.074,185.076 417.171,187.878 Q418.267,190.68 420.217,192.711 Q422.166,194.742 424.847,195.92 Q427.527,197.097 430.695,197.097 Q434.106,197.097 436.787,195.92 Q439.467,194.742 441.295,192.67 Q443.122,190.599 444.097,187.797 Q445.072,184.995 445.072,181.827 z" fill="#000000"/>
      <path d="M486.741,176.303 Q486.741,171.349 484.141,168.912 Q481.542,166.475 476.587,166.475 Q473.176,166.475 470.252,167.694 Q467.328,168.912 465.297,170.943 L462.21,167.287 Q464.566,164.932 468.424,163.389 Q472.282,161.845 477.156,161.845 Q480.243,161.845 482.923,162.698 Q485.603,163.551 487.634,165.257 Q489.665,166.963 490.802,169.562 Q491.939,172.161 491.939,175.654 L491.939,192.305 Q491.939,194.498 492.102,196.854 Q492.264,199.209 492.589,200.834 L487.634,200.834 Q487.39,199.453 487.228,197.828 Q487.066,196.204 487.066,194.66 L486.903,194.66 Q484.304,198.478 481.014,200.143 Q477.725,201.808 473.095,201.808 Q470.902,201.808 468.587,201.199 Q466.272,200.59 464.363,199.209 Q462.454,197.828 461.195,195.635 Q459.936,193.442 459.936,190.274 Q459.936,185.888 462.17,183.329 Q464.404,180.771 468.14,179.512 Q471.876,178.253 476.709,177.887 Q481.542,177.522 486.741,177.522 z M485.116,181.827 Q481.705,181.827 478.253,182.111 Q474.8,182.395 471.998,183.248 Q469.196,184.101 467.409,185.726 Q465.622,187.35 465.622,190.031 Q465.622,192.061 466.394,193.442 Q467.165,194.823 468.465,195.676 Q469.764,196.529 471.348,196.894 Q472.932,197.26 474.557,197.26 Q477.481,197.26 479.755,196.244 Q482.03,195.229 483.573,193.483 Q485.116,191.736 485.928,189.462 Q486.741,187.188 486.741,184.67 L486.741,181.827 z" fill="#000000"/>
      <path d="M522.48,167.45 L511.758,167.45 L511.758,189.624 Q511.758,191.736 512.164,193.117 Q512.57,194.498 513.342,195.27 Q514.114,196.041 515.17,196.326 Q516.226,196.61 517.444,196.61 Q518.581,196.61 519.84,196.285 Q521.099,195.96 522.236,195.392 L522.48,200.184 Q521.018,200.752 519.434,201.037 Q517.85,201.321 515.982,201.321 Q514.439,201.321 512.733,200.915 Q511.027,200.509 509.565,199.372 Q508.103,198.234 507.169,196.285 Q506.235,194.336 506.235,191.168 L506.235,167.45 L498.356,167.45 L498.356,162.82 L506.235,162.82 L506.235,152.098 L511.758,152.098 L511.758,162.82 L522.48,162.82 z" fill="#000000"/>
      <path d="M568.86,181.827 Q568.86,186.132 567.357,189.787 Q565.854,193.442 563.174,196.123 Q560.494,198.803 556.757,200.306 Q553.021,201.808 548.553,201.808 Q544.167,201.808 540.431,200.306 Q536.694,198.803 534.014,196.123 Q531.334,193.442 529.831,189.787 Q528.328,186.132 528.328,181.827 Q528.328,177.522 529.831,173.867 Q531.334,170.212 534.014,167.531 Q536.694,164.851 540.431,163.348 Q544.167,161.845 548.553,161.845 Q553.021,161.845 556.757,163.348 Q560.494,164.851 563.174,167.531 Q565.854,170.212 567.357,173.867 Q568.86,177.522 568.86,181.827 z M563.012,181.827 Q563.012,178.659 561.996,175.857 Q560.981,173.054 559.113,170.983 Q557.245,168.912 554.564,167.694 Q551.884,166.475 548.553,166.475 Q545.223,166.475 542.583,167.694 Q539.943,168.912 538.075,170.983 Q536.207,173.054 535.192,175.857 Q534.176,178.659 534.176,181.827 Q534.176,184.995 535.192,187.797 Q536.207,190.599 538.075,192.67 Q539.943,194.742 542.583,195.919 Q545.223,197.097 548.553,197.097 Q551.884,197.097 554.564,195.919 Q557.245,194.742 559.113,192.67 Q560.981,190.599 561.996,187.797 Q563.012,184.995 563.012,181.827 z" fill="#000000"/>
      <path d="M580.719,171.186 Q580.719,169.643 580.638,167.206 Q580.556,164.769 580.394,162.82 L585.674,162.82 Q585.836,164.363 585.917,166.231 Q585.999,168.1 585.999,169.318 L586.161,169.318 Q587.786,165.988 591.035,163.917 Q594.284,161.845 598.345,161.845 Q599.401,161.845 600.254,161.927 Q601.107,162.008 602,162.251 L601.269,167.45 Q600.782,167.287 599.644,167.125 Q598.507,166.963 597.37,166.963 Q595.177,166.963 593.146,167.775 Q591.116,168.587 589.613,170.333 Q588.11,172.08 587.176,174.801 Q586.242,177.522 586.242,181.339 L586.242,200.834 L580.719,200.834 L580.719,171.186 z" fill="#000000"/>
    </g>
  </g>
</svg>
