<?xml version="1.0" encoding="UTF-8"?>
<!DOCTYPE svg PUBLIC "-//W3C//DTD SVG 1.1//EN" "http://www.w3.org/Graphics/SVG/1.1/DTD/svg11.dtd">
<svg version="1.1" xmlns="http://www.w3.org/2000/svg" xmlns:xlink="http://www.w3.org/1999/xlink" x="0" y="0" width="200" height="45.941" viewBox="0, 0, 200, 45.941">
  <g id="Layer_1">
    <path d="M159.175,40.773 C159.175,40.773 159.175,25.268 159.175,17.489 C161.785,17.489 164.291,17.489 166.902,17.489 C166.954,18.115 167.006,18.637 167.11,19.421 C169.042,17.541 171.13,16.497 173.688,16.601 C176.194,16.706 178.387,17.437 180.057,19.421 C183.033,16.967 186.426,16.079 190.081,16.81 C193.892,17.541 196.45,20.569 196.554,24.589 C196.711,29.914 196.607,35.291 196.607,40.72 C193.996,40.72 191.386,40.72 188.671,40.72 C188.671,40.251 188.671,39.781 188.671,39.311 C188.671,35.395 188.671,31.48 188.671,27.565 C188.671,24.432 186.583,22.657 183.973,23.597 C182.615,24.067 181.78,25.633 181.78,27.669 C181.78,31.532 181.78,35.395 181.78,39.259 C181.78,39.729 181.78,40.198 181.78,40.773 C179.118,40.773 176.612,40.773 173.897,40.773 C173.897,39.99 173.897,39.259 173.897,38.528 C173.897,34.873 173.897,31.219 173.897,27.565 C173.897,25.215 172.801,23.701 170.974,23.388 C169.407,23.127 168.05,23.806 167.476,25.268 C167.163,26.103 167.006,27.043 167.006,27.93 C166.954,31.793 167.006,40.773 167.006,40.773 L159.175,40.773 z" fill="#8D31AA"/>
    <path d="M155.625,31.637 C150.039,31.637 144.505,31.637 138.867,31.637 C139.911,35.865 145.08,36.492 149.83,33.046 C151.396,34.508 153.015,36.022 154.633,37.536 C152.336,39.99 149.517,41.138 146.385,41.504 C142.626,41.921 139.024,41.608 135.787,39.363 C131.454,36.492 129.47,30.801 130.932,25.581 C132.394,20.412 137.04,16.81 142.313,16.601 C151.083,16.184 156.147,23.336 155.782,31.01 C155.782,31.167 155.677,31.323 155.625,31.637 z M138.763,26.416 C141.686,26.416 144.505,26.416 147.377,26.416 C147.22,24.276 145.497,22.709 143.305,22.605 C141.112,22.501 139.233,24.015 138.763,26.416 z" fill="#8D31AA"/>
    <path d="M46.463,31.637 C40.877,31.637 35.343,31.637 29.809,31.637 C30.227,35.813 35.813,36.492 40.668,33.098 C42.234,34.56 43.801,36.022 45.471,37.588 C43.644,39.572 41.451,40.773 38.893,41.242 C34.665,42.078 30.488,41.973 26.729,39.468 C22.344,36.596 20.308,30.854 21.822,25.581 C23.284,20.412 27.93,16.862 33.203,16.601 C42.026,16.184 47.037,23.44 46.62,31.01 C46.62,31.167 46.567,31.323 46.463,31.637 z M29.705,26.416 C30.018,26.468 30.384,26.52 30.697,26.52 C33.203,26.52 35.709,26.52 38.215,26.52 C38.267,24.432 36.492,22.762 34.247,22.605 C31.95,22.448 29.966,24.119 29.705,26.416 z" fill="#8D31AA"/>
    <path d="M15.035,17.437 C16.758,17.437 18.272,17.437 19.838,17.437 C19.838,19.629 19.838,21.665 19.838,23.962 C18.637,23.962 17.437,24.015 16.288,23.962 C15.296,23.91 15.035,24.276 15.035,25.268 C15.087,29.914 15.035,34.56 15.035,39.206 C15.035,39.729 15.035,40.251 15.035,40.773 C12.373,40.773 9.867,40.773 7.204,40.773 C7.204,35.239 7.204,29.705 7.204,23.962 C5.847,23.962 4.646,23.962 3.393,23.962 C3.393,21.718 3.393,19.629 3.393,17.437 C4.646,17.437 5.847,17.437 7.152,17.437 C7.152,16.184 7.1,15.14 7.152,14.043 C7.257,12.634 7.361,11.172 7.726,9.815 C8.405,6.943 10.285,5.221 13.208,4.751 C15.766,4.281 18.324,4.333 20.778,5.168 C21.404,5.377 21.718,5.638 21.561,6.369 C21.248,8.092 21.039,9.867 20.778,11.694 C19.786,11.485 18.951,11.329 18.115,11.224 C16.079,10.963 15.035,11.903 15.035,13.887 C15.035,14.983 15.035,16.079 15.035,17.437 z" fill="#8D31AA"/>
    <path d="M125.241,40.72 C124.458,40.72 123.727,40.72 122.892,40.72 C122.892,40.407 122.892,40.198 122.892,39.937 C122.892,35.709 122.944,31.48 122.892,27.199 C122.892,26.051 122.683,24.85 122.37,23.754 C121.691,21.509 120.23,20.047 117.933,19.473 C115.844,18.951 113.756,19.003 111.825,20.099 C109.423,21.509 108.222,23.701 108.17,26.364 C108.014,30.854 108.118,35.395 108.118,39.885 C108.118,40.146 108.118,40.407 108.118,40.668 C107.335,40.668 106.604,40.668 105.821,40.668 C105.821,32.994 105.821,25.268 105.821,17.541 C106.552,17.541 107.283,17.541 108.118,17.541 C108.118,18.742 108.118,19.943 108.118,21.352 C108.483,20.882 108.692,20.517 109.005,20.204 C111.041,17.854 113.652,16.81 116.732,17.071 C117.828,17.176 118.925,17.332 119.916,17.698 C123.153,19.003 124.719,21.613 125.137,24.954 C125.241,25.737 125.241,26.468 125.241,27.251 C125.241,31.428 125.241,35.656 125.241,39.833 C125.241,40.198 125.241,40.407 125.241,40.72 z" fill="#8D31AA"/>
    <path d="M96.998,40.72 C96.894,40.72 96.789,40.773 96.737,40.773 C96.111,40.773 95.484,40.773 94.753,40.773 C94.753,33.046 94.753,25.372 94.753,17.646 C95.484,17.646 96.215,17.646 96.998,17.646 C96.998,25.32 96.998,32.994 96.998,40.72 z" fill="#8D31AA"/>
    <path d="M94.022,9.136 C94.022,8.092 94.806,7.361 95.902,7.361 C96.946,7.361 97.729,8.092 97.729,9.136 C97.729,10.18 96.894,10.963 95.85,10.911 C94.753,10.911 94.022,10.18 94.022,9.136 z" fill="#8D31AA"/>
    <path d="M50.117,40.773 C50.117,40.773 50.117,25.268 50.117,17.489 C52.728,17.489 55.234,17.489 57.844,17.489 C57.896,18.115 57.948,18.637 58.053,19.421 C59.984,17.541 62.073,16.497 64.631,16.601 C67.137,16.706 69.329,17.437 71,19.421 C73.975,16.967 77.369,16.079 81.023,16.81 C84.834,17.541 87.392,20.569 87.497,24.589 C87.653,29.914 87.549,35.291 87.549,40.72 C84.939,40.72 82.328,40.72 79.614,40.72 C79.614,40.251 79.614,39.781 79.614,39.311 C79.614,35.395 79.614,31.48 79.614,27.565 C79.614,24.432 77.525,22.657 74.915,23.597 C73.558,24.067 72.723,25.633 72.723,27.669 C72.723,31.532 72.723,35.395 72.723,39.259 C72.723,39.729 72.723,40.198 72.723,40.773 C70.06,40.773 67.554,40.773 64.839,40.773 C64.839,39.99 64.839,39.259 64.839,38.528 C64.839,34.873 64.839,31.219 64.839,27.565 C64.839,25.215 63.743,23.701 61.916,23.388 C60.35,23.127 58.992,23.806 58.418,25.268 C58.105,26.103 57.948,27.043 57.948,27.93 C57.896,31.793 57.948,40.773 57.948,40.773 L50.117,40.773 z" fill="#8D31AA"/>
  </g>
</svg>
