<?xml version="1.0" encoding="UTF-8"?>
<svg width="200px" height="78px" viewBox="0 0 200 78" version="1.1" xmlns="http://www.w3.org/2000/svg" xmlns:xlink="http://www.w3.org/1999/xlink">
    <!-- Generator: Sketch 42 (36781) - http://www.bohemiancoding.com/sketch -->
    <title>Main</title>
    <desc>Created with Sketch.</desc>
    <defs></defs>
    <g id="Page-1" stroke="none" stroke-width="1" fill="none" fill-rule="evenodd">
        <g id="Main" fill="#474747">
            <g id="HIPPO" transform="translate(0.892841, 0.000000)">
                <path d="M1.02518397e-13,43.2141885 C1.02518397e-13,44.3134323 0.904631341,45.2045455 2.00865586,45.2045455 L5.13407139,45.2045455 C6.24342138,45.2045455 7.14272724,44.3078904 7.14272724,43.1973806 L7.14272724,26.6141163 L29.4637499,26.6141163 L29.4637499,43.1973806 C29.4637499,44.3059072 30.3683812,45.2045455 31.4724057,45.2045455 L34.5978213,45.2045455 C35.7071713,45.2045455 36.6064771,44.2991904 36.6064771,43.2141885 L36.6064771,2.87672062 C36.6064771,1.77747681 35.7018458,0.886363636 34.5978213,0.886363636 L31.4724057,0.886363636 C30.3630557,0.886363636 29.4637499,1.78413801 29.4637499,2.87834878 L29.4637499,19.5 L7.14272724,19.5 L7.14272724,2.87834878 C7.14272724,1.77820577 6.2380959,0.886363636 5.13407139,0.886363636 L2.00865586,0.886363636 C0.89930586,0.886363636 1.02518397e-13,1.79171873 1.02518397e-13,2.87672062 L1.02518397e-13,43.2141885 Z" id="Path"></path>
                <path d="M49.1062498,2.87672062 C49.1062498,1.77747681 50.0108812,0.886363636 51.1149057,0.886363636 L54.2403212,0.886363636 C55.3496712,0.886363636 56.2489771,1.79171873 56.2489771,2.87672062 L56.2489771,43.2141885 C56.2489771,44.3134323 55.3443457,45.2045455 54.2403212,45.2045455 L51.1149057,45.2045455 C50.0055557,45.2045455 49.1062498,44.2991904 49.1062498,43.2141885 L49.1062498,2.87672062 Z" id="Path-2"></path>
                <g id="P" transform="translate(68.748750, 0.886364)">
                    <path d="M0,2.00492334 C0,0.897634756 0.898059286,0 2.00694484,0 L20.5285056,0 C21.0862889,0 21.986351,0.0465505981 22.5283206,0.12510626 C22.5283206,0.12510626 35,0.88 35,14.08 C35,27.28 22.5065822,29.6718467 22.5065822,29.6718467 C21.9719039,29.808898 21.0905721,29.92 20.537656,29.92 L8.07692308,29.92 L8.07692308,41.9976322 C8.07692308,43.1035094 7.1816907,44 6.08037981,44 L1.99654327,44 C0.89388287,44 0,43.1011449 0,41.9950767 L0,2.00492334 Z M8.07692308,7.04 L8.07692308,22.88 L17.2384701,22.88 C29.7314887,22.88 30.5643566,7.04 17.2384701,7.04 L8.07692308,7.04 Z" id="Combined-Shape"></path>
                </g>
                <g id="P" transform="translate(111.605113, 0.886364)">
                    <path d="M0,2.00492334 C0,0.897634756 0.898059286,0 2.00694484,0 L20.5285056,0 C21.0862889,0 21.986351,0.0465505981 22.5283206,0.12510626 C22.5283206,0.12510626 35,0.88 35,14.08 C35,27.28 22.5065822,29.6718467 22.5065822,29.6718467 C21.9719039,29.808898 21.0905721,29.92 20.537656,29.92 L8.07692308,29.92 L8.07692308,41.9976322 C8.07692308,43.1035094 7.1816907,44 6.08037981,44 L1.99654327,44 C0.89388287,44 0,43.1011449 0,41.9950767 L0,2.00492334 Z M8.07692308,7.04 L8.07692308,22.88 L17.2384701,22.88 C29.7314887,22.88 30.5643566,7.04 17.2384701,7.04 L8.07692308,7.04 Z" id="Combined-Shape"></path>
                </g>
                <path d="M175.443238,46.0909091 C162.376024,46.0909091 151.782954,35.7731076 151.782954,23.0454545 C151.782954,10.3178014 162.376024,0 175.443238,0 C188.510452,0 199.103522,10.3178014 199.103522,23.0454545 C199.103522,35.7731076 188.510452,46.0909091 175.443238,46.0909091 Z M175.443238,39 C184.07253,39 191.067954,31.8569067 191.067954,23.0454545 C191.067954,14.2340024 184.07253,7.09090909 175.443238,7.09090909 C166.813946,7.09090909 159.818522,14.2340024 159.818522,23.0454545 C159.818522,31.8569067 166.813946,39 175.443238,39 Z" id="Combined-Shape"></path>
            </g>
            <path d="M10.2187215,75.1655951 C10.4323544,75.3855331 10.5391692,75.6447418 10.5391692,75.9432291 C10.5391692,76.2574262 10.4323544,76.5127075 10.2187215,76.7090807 C10.0050886,76.9054538 9.73211737,77.003639 9.39979956,77.003639 L1.13936964,77.003639 C0.822876493,77.003639 0.553861351,76.8936716 0.332316146,76.6737337 C0.110770941,76.4537957 0,76.1867322 0,75.8725351 L0,61.6394778 C0,61.3252807 0.110770941,61.0582172 0.332316146,60.8382792 C0.553861351,60.6183413 0.822876493,60.5083739 1.13936964,60.5083739 L9.39979956,60.5083739 C9.73211737,60.5083739 10.0050886,60.6104864 10.2187215,60.8147146 C10.4323544,61.0189427 10.5391692,61.2860062 10.5391692,61.6159131 C10.5391692,61.9301102 10.4323544,62.1853915 10.2187215,62.3817647 C10.0050886,62.5781379 9.73211737,62.676323 9.39979956,62.676323 L2.34994989,62.676323 L2.34994989,67.4835146 L8.33164052,67.4835146 C8.66395833,67.4835146 8.93692957,67.5856271 9.15056245,67.7898552 C9.36419533,67.9940833 9.47101016,68.253292 9.47101016,68.5674891 C9.47101016,68.8973961 9.36419533,69.1566048 9.15056245,69.345123 C8.93692957,69.5336413 8.66395833,69.627899 8.33164052,69.627899 L2.34994989,69.627899 L2.34994989,74.8356898 L9.39979956,74.8356898 C9.73211737,74.8356898 10.0050886,74.9456572 10.2187215,75.1655951 Z M33.1859666,61.6159131 C34.2462187,62.3542763 35.0453519,63.3479097 35.5833902,64.5968432 C36.1214286,65.8457766 36.3904437,67.2321505 36.3904437,68.7560064 C36.3904437,70.2955722 36.1214286,71.6898009 35.5833902,72.9387344 C35.0453519,74.1876678 34.2462187,75.1773738 33.1859666,75.9078821 C32.1257146,76.6383903 30.8518487,77.003639 29.3643309,77.003639 L23.5250615,77.003639 C23.2085684,77.003639 22.9395532,76.8936716 22.718008,76.6737337 C22.4964628,76.4537957 22.3856919,76.1867322 22.3856919,75.8725351 L22.3856919,61.6394778 C22.3856919,61.3252807 22.4964628,61.0582172 22.718008,60.8382792 C22.9395532,60.6183413 23.2085684,60.5083739 23.5250615,60.5083739 L29.3643309,60.5083739 C30.8518487,60.5083739 32.1257146,60.87755 33.1859666,61.6159131 Z M32.758703,73.1272517 C33.5657605,71.9882872 33.9692832,70.53122 33.9692832,68.7560064 C33.9692832,66.9965027 33.5618044,65.5433629 32.7468346,64.3965435 C31.9318647,63.2497241 30.7252527,62.676323 29.1269622,62.676323 L24.7356417,62.676323 L24.7356417,74.8356898 L29.1269622,74.8356898 C30.7410773,74.8356898 31.9516455,74.2662161 32.758703,73.1272517 Z M60.8293746,60.8029322 C61.0271828,61.0150153 61.1260855,61.2860062 61.1260855,61.6159131 L61.1260855,70.6647442 C61.1260855,71.9058228 60.8491581,73.0212057 60.2952951,74.0109266 C59.7414321,75.0006474 58.9779038,75.7743462 58.0046874,76.332046 C57.031471,76.8897459 55.9356299,77.1685916 54.7171312,77.1685916 C53.4828079,77.1685916 52.3750985,76.8897459 51.3939698,76.332046 C50.412841,75.7743462 49.6453566,75.0006474 49.0914936,74.0109266 C48.5376306,73.0212057 48.2607033,71.9058228 48.2607033,70.6647442 L48.2607033,61.6159131 C48.2607033,61.2860062 48.3714742,61.0150153 48.5930194,60.8029322 C48.8145646,60.5908492 49.0994042,60.4848093 49.4475466,60.4848093 C49.7482151,60.4848093 50.0132742,60.5947766 50.2427317,60.8147146 C50.4721892,61.0346525 50.5869163,61.301716 50.5869163,61.6159131 L50.5869163,70.6647442 C50.5869163,71.4816567 50.7768093,72.2160814 51.1566011,72.8680404 C51.5363929,73.5199993 52.0427743,74.0266346 52.6757606,74.3879612 C53.3087469,74.7492879 53.989197,74.9299485 54.7171312,74.9299485 C55.4767148,74.9299485 56.1809015,74.7492879 56.8297124,74.3879612 C57.4785234,74.0266346 57.9967732,73.5199993 58.3844773,72.8680404 C58.7721814,72.2160814 58.9660305,71.4816567 58.9660305,70.6647442 L58.9660305,61.6159131 C58.9660305,61.2860062 59.060977,61.0150153 59.2508729,60.8029322 C59.4407688,60.5908492 59.7018718,60.4848093 60.0341896,60.4848093 C60.3665074,60.4848093 60.6315664,60.5908492 60.8293746,60.8029322 Z M86.3364646,62.4171117 C86.3364646,62.6998891 86.2415181,62.9590978 86.0516222,63.1947457 C85.8617263,63.4461033 85.6006233,63.5717803 85.2683055,63.5717803 C85.0467603,63.5717803 84.8331307,63.5167966 84.6274101,63.4068276 C83.6462813,62.8569827 82.5860452,62.5820644 81.4466699,62.5820644 C80.2598205,62.5820644 79.2114527,62.8412731 78.3015349,63.3596983 C77.3916171,63.8781235 76.6834743,64.6046934 76.1770853,65.5394298 C75.6706962,66.4741661 75.4175055,67.5463476 75.4175055,68.7560064 C75.4175055,70.0599244 75.6786084,71.1831622 76.2008221,72.1257534 C76.7230358,73.0683447 77.4430469,73.7870598 78.3608771,74.2819202 C79.2787072,74.7767807 80.3072945,75.0242072 81.4466699,75.0242072 C82.6176945,75.0242072 83.6779307,74.741434 84.6274101,74.1758792 C84.817306,74.0816201 85.0230235,74.0344913 85.2445687,74.0344913 C85.5927111,74.0344913 85.8696385,74.168023 86.075359,74.4350905 C86.2652549,74.6707384 86.3602014,74.9220923 86.3602014,75.1891598 C86.3602014,75.3776781 86.3087721,75.5544113 86.2059118,75.7193648 C86.1030515,75.8843182 85.9645879,76.0139226 85.7905166,76.1081817 C85.173355,76.4537985 84.4810366,76.7287169 83.7135407,76.932945 C82.9460448,77.1371731 82.1904288,77.2392856 81.4466699,77.2392856 C79.9116781,77.2392856 78.4993486,76.9015288 77.209639,76.226005 C75.9199294,75.5504813 74.8913421,74.5686301 74.1238462,73.280422 C73.3563503,71.9922139 72.9726081,70.4840905 72.9726081,68.7560064 C72.9726081,67.1693111 73.3405259,65.7358084 74.0763725,64.4554552 C74.812219,63.175102 75.8249819,62.1696864 77.1146915,61.4391782 C78.4044011,60.7086699 79.8483794,60.3434213 81.4466699,60.3434213 C82.9816616,60.3434213 84.4216839,60.7204521 85.7667798,61.4745252 C86.1465715,61.6787533 86.3364646,61.9929456 86.3364646,62.4171117 Z M110.763527,75.9903584 C110.763527,76.3045555 110.656712,76.5637642 110.443079,76.7679923 C110.229446,76.9722204 109.980212,77.074333 109.695368,77.074333 C109.473823,77.074333 109.272061,77.0075671 109.090078,76.8740333 C108.908094,76.7404995 108.761718,76.5559115 108.650946,76.3202637 L107.17926,72.856258 L99.844568,72.856258 L98.396619,76.3438284 C98.3174958,76.5794762 98.1869443,76.7601368 98.0049607,76.8858156 C97.8229772,77.0114945 97.6212158,77.074333 97.3996706,77.074333 C97.0673528,77.074333 96.8141621,76.98793 96.6400908,76.8151216 C96.4660196,76.6423132 96.3789853,76.406669 96.3789853,76.1081817 C96.3789853,76.0453423 96.3948097,75.9196653 96.426459,75.7311471 L102.47936,61.1681845 C102.590133,60.9168268 102.744421,60.724384 102.942229,60.5908502 C103.140037,60.4573165 103.365535,60.4062602 103.61873,60.4376799 C103.8561,60.4376799 104.069729,60.5005184 104.259625,60.6261972 C104.449521,60.7518761 104.584029,60.9325367 104.663152,61.1681845 L110.692316,75.5426298 C110.73979,75.6840185 110.763527,75.8332598 110.763527,75.9903584 Z M100.746569,70.7118736 L106.277259,70.7118736 L103.500046,64.1137676 L100.746569,70.7118736 Z M132.425244,60.8029322 C132.638877,60.9993054 132.745692,61.2624415 132.745692,61.5923485 C132.745692,61.9222554 132.638877,62.1814641 132.425244,62.3699824 C132.211612,62.5585007 131.93864,62.6527584 131.606323,62.6527584 L127.38116,62.6527584 L127.38116,75.8725351 C127.38116,76.1867322 127.266433,76.4537957 127.036976,76.6737337 C126.807518,76.8936716 126.518722,77.003639 126.17058,77.003639 C125.822437,77.003639 125.533642,76.8936716 125.304184,76.6737337 C125.074727,76.4537957 124.96,76.1867322 124.96,75.8725351 L124.96,62.6527584 L120.758574,62.6527584 C120.426256,62.6527584 120.153285,62.5545733 119.939652,62.3582001 C119.726019,62.1618269 119.619204,61.8986908 119.619204,61.5687838 C119.619204,61.2545867 119.726019,60.9993054 119.939652,60.8029322 C120.153285,60.606559 120.426256,60.5083739 120.758574,60.5083739 L131.606323,60.5083739 C131.93864,60.5083739 132.211612,60.606559 132.425244,60.8029322 Z M146.325006,76.6737337 C146.087636,76.8936716 145.810709,77.003639 145.494216,77.003639 C145.146073,77.003639 144.86519,76.8936716 144.651557,76.6737337 C144.437924,76.4537957 144.331109,76.1788774 144.331109,75.8489704 L144.331109,61.6394778 C144.331109,61.3252807 144.44188,61.0582172 144.663425,60.8382792 C144.884971,60.6183413 145.16981,60.5083739 145.517953,60.5083739 C145.834446,60.5083739 146.107417,60.6183413 146.336875,60.8382792 C146.566332,61.0582172 146.681059,61.3252807 146.681059,61.6394778 L146.681059,75.8489704 C146.681059,76.1788774 146.562376,76.4537957 146.325006,76.6737337 Z M173.541151,73.06834 C172.852778,74.3565481 171.899357,75.3737459 170.680858,76.119964 C169.462359,76.8661821 168.085635,77.2392856 166.550643,77.2392856 C165.015651,77.2392856 163.638927,76.8661821 162.420428,76.119964 C161.201929,75.3737459 160.248508,74.3565481 159.560136,73.06834 C158.871763,71.7801319 158.527582,70.3427018 158.527582,68.7560064 C158.527582,67.1693111 158.871763,65.731881 159.560136,64.4436729 C160.248508,63.1554648 161.201929,62.1382669 162.420428,61.3920488 C163.638927,60.6458307 165.015651,60.2727273 166.550643,60.2727273 C168.085635,60.2727273 169.462359,60.6458307 170.680858,61.3920488 C171.899357,62.1382669 172.852778,63.1554648 173.541151,64.4436729 C174.229523,65.731881 174.573704,67.1693111 174.573704,68.7560064 C174.573704,70.3427018 174.229523,71.7801319 173.541151,73.06834 Z M171.416701,65.5629944 C170.941961,64.6125482 170.281292,63.8663413 169.434672,63.3243513 C168.588053,62.7823613 167.62672,62.5113704 166.550643,62.5113704 C165.474566,62.5113704 164.513233,62.7784339 163.666614,63.312569 C162.819994,63.846704 162.159325,64.5889835 161.684585,65.5394298 C161.209845,66.489876 160.972479,67.5620575 160.972479,68.7560064 C160.972479,69.9342455 161.209845,70.9985722 161.684585,71.9490185 C162.159325,72.8994647 162.819994,73.6456716 163.666614,74.1876616 C164.513233,74.7296516 165.474566,75.0006425 166.550643,75.0006425 C167.62672,75.0006425 168.588053,74.7296516 169.434672,74.1876616 C170.281292,73.6456716 170.941961,72.8994647 171.416701,71.9490185 C171.891441,70.9985722 172.128807,69.9342455 172.128807,68.7560064 C172.128807,67.5777673 171.891441,66.5134406 171.416701,65.5629944 Z M199.570452,60.8029322 C199.760347,60.9993054 199.855294,61.2467319 199.855294,61.5452191 L199.855294,75.8489704 C199.855294,76.1788774 199.748479,76.4537957 199.534846,76.6737337 C199.321213,76.8936716 199.048242,77.003639 198.715924,77.003639 C198.541853,77.003639 198.371741,76.9761471 198.205582,76.9211626 C198.039423,76.8661781 197.908871,76.7837026 197.813923,76.6737337 L188.485334,64.6086255 L188.485334,75.9667937 C188.485334,76.265281 188.386432,76.5127075 188.188624,76.7090807 C187.990815,76.9054538 187.741581,77.003639 187.440912,77.003639 C187.140244,77.003639 186.894965,76.9054538 186.705069,76.7090807 C186.515173,76.5127075 186.420227,76.265281 186.420227,75.9667937 L186.420227,61.6394778 C186.420227,61.3095709 186.527042,61.0385799 186.740675,60.8264969 C186.954308,60.6144138 187.219367,60.5083739 187.53586,60.5083739 C187.725756,60.5083739 187.907736,60.5437206 188.081808,60.6144149 C188.255879,60.6851093 188.390386,60.7832944 188.485334,60.9089732 L197.790187,72.997646 L197.790187,61.5452191 C197.790187,61.2467319 197.889089,60.9993054 198.086897,60.8029322 C198.284706,60.606559 198.53394,60.5083739 198.834609,60.5083739 C199.135277,60.5083739 199.380556,60.606559 199.570452,60.8029322 Z" id="EDUCATION"></path>
        </g>
    </g>
</svg>