<?xml version="1.0" encoding="UTF-8"?>
<!DOCTYPE svg PUBLIC "-//W3C//DTD SVG 1.1//EN" "http://www.w3.org/Graphics/SVG/1.1/DTD/svg11.dtd">
<svg version="1.1" xmlns="http://www.w3.org/2000/svg" xmlns:xlink="http://www.w3.org/1999/xlink" x="0" y="0" width="200" height="100" viewBox="0, 0, 200, 100">
  <g id="Layer_1">
    <g>
      <path d="M37.673,0.003 C38.889,-0.002 40.105,-0.002 41.323,0.012 C41.325,3.345 41.318,6.676 41.327,10.009 C40.109,10.03 38.891,10.032 37.673,10.025 C37.671,6.685 37.673,3.343 37.673,0.003 z" fill="#52A7FA"/>
      <path d="M55.435,15.442 C57.865,12.989 60.285,10.527 62.723,8.083 C63.564,8.949 64.412,9.806 65.278,10.649 C62.911,13.174 60.449,15.608 57.993,18.043 C57.138,17.179 56.276,16.318 55.435,15.442 z" fill="#52A7FA"/>
      <path d="M10.906,11.829 C11.74,10.938 12.595,10.062 13.482,9.224 C15.888,11.689 18.329,14.116 20.738,16.579 C19.888,17.447 19.033,18.309 18.178,19.17 C15.747,16.729 13.335,14.269 10.906,11.829 z" fill="#52A7FA"/>
      <path d="M26.232,18.692 C31.121,15.544 37.14,14.232 42.877,15.1 C48.86,15.943 54.482,19.115 58.349,23.804 C62.298,28.676 64.362,35.03 64.179,41.313 C63.989,45.584 62.915,49.883 60.68,53.542 C55.703,62.425 52.396,72.247 50.921,82.344 C43.073,82.364 35.225,82.36 27.377,82.351 C25.677,72.965 22.74,63.804 18.603,55.225 C17.634,53.128 16.384,51.16 15.655,48.952 C13.063,41.8 13.982,33.48 18.057,27.075 C20.194,23.776 22.907,20.794 26.232,18.692 z" fill="#51A7F9"/>
      <path d="M115.619,39.821 C115.672,32.207 115.615,24.594 115.647,16.978 C118.307,16.98 120.967,16.98 123.625,16.98 C123.634,33.963 123.627,50.948 123.63,67.932 C121.104,67.932 118.577,67.932 116.051,67.932 C116.042,66.304 116.076,64.675 116.026,63.049 C115.165,64.093 114.422,65.267 113.32,66.082 C110.724,68.108 107.328,68.847 104.099,68.708 C100.904,68.625 97.722,67.556 95.197,65.56 C92.265,63.331 90.361,59.917 89.598,56.325 C88.501,51.285 89.216,45.723 92.109,41.403 C94.04,38.433 97.087,36.254 100.472,35.323 C103.836,34.439 107.511,34.577 110.703,36.026 C112.637,36.839 114.253,38.238 115.619,39.821 z M103.984,42.369 C101.623,42.995 99.535,44.618 98.351,46.778 C96.822,49.592 96.698,53.128 98.012,56.048 C98.762,57.764 100.072,59.217 101.669,60.166 C104.014,61.592 106.974,61.825 109.561,60.989 C111.638,60.289 113.46,58.822 114.559,56.902 C116.163,54.098 116.319,50.52 115.034,47.561 C114.228,45.683 112.763,44.117 110.982,43.149 C108.866,41.978 106.304,41.819 103.984,42.369 z" fill="#525860"/>
      <path d="M25.766,22.162 C29.8,18.937 34.985,17.239 40.123,17.415 C45.494,17.611 50.789,19.824 54.665,23.601 C58.169,26.925 60.408,31.487 61.265,36.24 C62.17,41.234 61.444,46.549 59.149,51.072 C54.009,59.915 50.505,69.699 48.739,79.794 C42.321,79.789 35.904,79.791 29.486,79.796 C27.631,70.672 24.66,61.772 20.56,53.426 C19.712,51.657 18.674,49.975 18.05,48.106 C15.667,41.546 16.583,33.898 20.427,28.093 C21.935,25.892 23.663,23.809 25.766,22.162 z" fill="#FFFFFF"/>
      <path d="M76.925,19.782 C78.632,19.623 80.454,20.247 81.567,21.598 C83.109,23.395 82.958,26.451 81.171,28.031 C79.802,29.366 77.704,29.731 75.906,29.241 C73.858,28.673 72.258,26.608 72.416,24.432 C72.418,22.007 74.576,19.935 76.925,19.782 z" fill="#525860"/>
      <path d="M33.989,21.951 C34.807,21.448 35.701,20.963 36.692,21.037 C37.847,20.965 38.875,21.582 39.714,22.319 C40.58,21.718 41.551,21.161 42.641,21.226 C43.962,21.083 45.036,22.007 46.296,22.199 C48.451,22.621 50.218,24.18 51.255,26.093 C52.96,26.306 54.608,27.357 55.211,29.034 C55.657,30.38 56.589,31.501 56.955,32.88 C57.476,34.552 57.542,36.365 57.09,38.061 C56.857,38.821 57.03,39.613 57.008,40.389 C56.79,42.048 57.762,43.572 57.62,45.237 C57.711,46.522 56.493,47.42 56.603,48.709 C56.555,50.557 55.572,52.25 54.247,53.472 C53.202,54.417 51.655,54.826 50.314,54.345 C49.029,53.84 47.612,54.403 46.328,53.879 C45.953,53.837 45.498,53.456 45.171,53.775 C44.259,54.595 43.455,55.533 42.587,56.401 C42.029,56.41 41.471,56.417 40.914,56.424 C40.909,64.195 40.918,71.968 40.909,79.738 C39.949,79.74 38.989,79.74 38.032,79.729 C38.027,71.963 38.034,64.199 38.027,56.434 C37.408,56.434 36.788,56.434 36.169,56.431 C35.154,55.482 34.096,54.583 33.077,53.641 C31.774,54.359 30.307,54.623 28.888,54.994 C27.647,55.304 26.271,55.073 25.261,54.265 C24.44,53.676 24.081,52.682 23.41,51.959 C22.962,51.465 22.475,50.984 22.201,50.363 C21.645,49.28 21.986,47.942 21.282,46.912 C20.443,45.475 20.701,43.683 21.43,42.258 C21.318,41.572 21.168,40.849 21.428,40.176 C21.956,38.788 21.746,37.224 21.291,35.845 C20.873,34.529 21.021,33.064 21.577,31.81 C21.951,30.937 22.699,30.295 23.076,29.419 C23.389,28.689 23.714,27.939 24.28,27.366 C25.096,26.43 26.376,26.142 27.235,25.255 C27.894,24.601 28.995,24.705 29.576,23.949 C30.083,23.321 30.558,22.61 31.319,22.27 C32.138,21.827 33.091,21.836 33.989,21.951 z" fill="#C0569E"/>
      <path d="M34.332,23.423 C34.903,22.965 35.481,22.434 36.233,22.328 C37.245,22.166 38.413,22.612 38.944,23.524 C39.005,24.839 38.672,26.135 38.672,27.449 C38.507,30.533 38.9,33.607 38.843,36.691 C37.794,36.492 37.175,35.529 36.482,34.806 C35.822,34.095 35.653,33.108 35.552,32.177 C35.122,32.163 34.69,32.152 34.261,32.143 C34.382,33.097 34.501,34.092 35.013,34.928 C35.579,35.866 36.393,36.617 37.179,37.361 C37.62,37.804 38.258,37.887 38.834,38.038 C38.493,41.576 38.39,45.164 38.978,48.682 C37.979,48.792 36.939,48.816 35.989,48.439 C35.047,48.129 34.297,47.455 33.573,46.804 C32.709,46.944 31.621,46.88 31.15,46.007 C30.165,44.092 30.056,41.879 30.106,39.763 C29.393,39.026 29.023,38.065 28.972,37.044 C28.549,37.012 28.129,36.982 27.708,36.954 C27.775,37.525 27.807,38.107 27.962,38.664 C28.243,39.47 28.911,40.158 28.821,41.07 C28.778,42.724 29.217,44.32 29.596,45.914 C28.883,45.686 28.129,45.503 27.528,45.03 C26.867,44.538 26.472,43.794 26.061,43.099 C25.27,42.699 24.433,42.274 23.949,41.491 C23.437,40.812 23.339,39.945 23.272,39.121 C22.882,38.442 22.836,37.677 23.096,36.94 C22.107,35.286 22.002,32.99 23.286,31.464 C23.883,30.826 24.251,30.034 24.561,29.225 C24.916,28.311 25.759,27.758 26.527,27.23 C26.55,27.881 26.479,28.569 26.783,29.17 C26.954,29.653 27.338,30.138 27.121,30.674 C26.936,31.588 26.225,32.224 25.654,32.903 C25.167,33.448 25.037,34.189 24.861,34.875 C25.274,34.878 25.688,34.88 26.102,34.878 C26.31,34.254 26.621,33.667 27.094,33.208 C27.75,32.563 28.124,31.708 28.435,30.854 C30.053,31.332 31.603,30.491 32.935,29.648 C33.856,29.059 34.501,28.149 35.072,27.23 C34.7,27.035 34.329,26.844 33.959,26.652 C33.081,28.186 31.555,29.253 29.861,29.662 C29.064,29.84 28.145,29.357 27.891,28.565 C27.793,27.779 27.891,26.985 27.928,26.199 C28.819,25.853 29.859,25.654 30.483,24.86 C30.986,24.289 31.393,23.548 32.149,23.291 C32.862,23.005 33.621,23.268 34.332,23.423 z" fill="#FFC5F9"/>
      <path d="M40.861,23.09 C41.759,22.383 42.959,22.404 44.01,22.681 C42.929,24.275 42.198,26.169 42.344,28.13 C42.353,29.692 43.286,31.025 43.503,32.545 C42.552,33.302 41.885,34.362 41.787,35.603 C42.191,35.596 42.603,35.589 43.012,35.58 C43.231,34.947 43.514,34.342 43.864,33.771 C44.717,34.531 44.959,35.67 44.918,36.776 C45.336,36.862 45.752,36.947 46.172,37.033 C46.165,36.245 46.2,35.437 45.951,34.681 C45.711,33.949 45.139,33.399 44.819,32.713 C44.605,31.9 44.547,31.041 44.184,30.272 C43.114,28.04 43.565,25.155 45.238,23.351 C47.262,23.42 49.166,24.804 50.037,26.631 C50.234,27.472 49.875,28.324 49.772,29.158 C49.043,29.394 48.186,29.599 47.77,30.322 C47.253,31.223 47.514,32.311 47.71,33.27 C48.092,33.071 48.478,32.884 48.862,32.688 C48.817,32.096 48.499,31.362 48.974,30.863 C49.26,30.683 49.587,30.581 49.898,30.447 C50.215,31.32 50.656,32.133 51.148,32.919 C51.582,33.586 51.568,34.409 51.641,35.176 C52.039,35.215 52.441,35.254 52.843,35.293 C52.827,34.654 52.864,34.007 52.729,33.378 C52.473,32.307 51.634,31.517 51.287,30.486 C50.976,29.475 51.159,28.403 51.385,27.396 C52.53,27.671 53.666,28.364 54.036,29.558 C54.452,30.902 55.419,31.99 55.78,33.358 C56.425,35.58 56.027,37.98 55.14,40.077 C54.816,40.766 54.292,41.327 53.796,41.893 C53.589,40.35 53.739,38.793 54.075,37.282 C53.678,37.169 53.282,37.058 52.887,36.95 C52.553,38.372 52.245,39.842 52.473,41.306 C52.51,41.879 52.702,42.473 52.565,43.043 C51.966,44.2 50.846,44.951 49.756,45.584 C49.886,43.93 49.927,42.274 49.813,40.62 C49.717,39.564 50.723,38.67 50.357,37.615 C50.202,36.936 49.536,36.631 48.986,36.337 C48.942,36.73 48.908,37.125 48.881,37.52 C49.495,38.564 48.305,39.514 48.519,40.604 C48.711,42.484 48.753,44.436 48.167,46.254 C47.516,47.277 46.193,47.3 45.121,47.263 C44.383,48.282 43.274,49.178 41.949,49.03 C41.316,48.931 40.319,48.82 40.21,48.026 C39.316,43.9 40.187,39.694 40.089,35.529 C40.025,31.988 39.753,28.428 40.139,24.894 C40.242,24.257 40.244,23.464 40.861,23.09 z" fill="#FFC5F9"/>
      <path d="M31.255,36.471 C31.075,35.45 31.543,34.501 32.115,33.7 C32.405,33.991 32.693,34.284 32.983,34.58 C32.654,35.282 32.208,36.13 32.682,36.88 C33.246,37.721 34.151,38.303 34.56,39.259 C35.141,40.377 35.022,41.685 35.392,42.863 C35.593,43.567 36.308,43.872 36.884,44.207 C36.832,45 36.811,45.796 36.825,46.593 C36.436,46.679 36.05,46.764 35.664,46.85 C35.6,46.24 35.6,45.612 35.413,45.027 C35.042,44.434 34.444,43.999 34.194,43.332 C33.715,41.997 33.991,40.382 33.04,39.234 C32.343,38.396 31.285,37.679 31.255,36.471 z" fill="#C0569E"/>
      <path d="M138.035,37.92 C141.013,35.843 144.64,34.857 148.235,34.769 C151.619,34.746 155.093,35.693 157.751,37.876 C160.686,40.237 162.377,43.863 163.051,47.534 C163.535,49.853 163.46,52.236 163.467,54.595 C155.342,54.597 147.218,54.586 139.095,54.602 C139.36,56.822 140.311,59.051 142.128,60.413 C144.427,62.278 147.613,62.587 150.413,61.952 C152.792,61.414 154.636,59.693 156.27,57.967 C158.256,59.282 160.087,60.841 161.995,62.275 C159.984,64.821 157.301,66.879 154.19,67.826 C149.498,69.348 144.212,68.939 139.817,66.678 C136.57,65.017 133.951,62.169 132.502,58.799 C131.115,55.717 130.895,52.232 131.3,48.91 C131.951,44.533 134.39,40.407 138.035,37.92 z M142.779,42.041 C140.606,43.454 139.44,46.004 139.093,48.524 C144.562,48.534 150.031,48.529 155.502,48.524 C155.422,46.841 155.047,45.101 154.012,43.738 C152.821,42.105 150.883,41.163 148.913,40.95 C146.831,40.747 144.585,40.858 142.779,42.041 z" fill="#525860"/>
      <path d="M0,38.717 C-0.005,37.483 0,36.252 0.014,35.021 C3.513,35.03 7.012,35.021 10.513,35.025 C10.518,36.257 10.518,37.488 10.513,38.721 C7.009,38.714 3.506,38.721 0,38.717 z" fill="#52A7FA"/>
      <path d="M178.514,35.577 C181.366,34.746 184.369,34.764 187.306,34.945 C190.524,35.333 193.845,36.672 195.828,39.373 C197.636,42.015 198.13,45.318 198.134,48.467 C198.15,54.953 198.137,61.441 198.141,67.93 C195.73,67.932 193.319,67.937 190.908,67.928 C190.899,66.398 190.935,64.867 190.876,63.338 C189.969,64.585 189.013,65.837 187.708,66.685 C184.676,68.708 180.797,69.122 177.289,68.403 C174.394,67.821 171.553,66.251 170.019,63.627 C168.742,61.578 168.634,59.023 169.036,56.699 C169.503,54.191 171.162,52.005 173.324,50.728 C176.329,48.899 179.881,48.3 183.323,47.972 C185.843,47.788 188.376,47.827 190.901,47.815 C190.997,46.161 190.819,44.35 189.651,43.082 C188.065,41.401 185.654,40.809 183.419,40.881 C180.326,40.816 177.337,42.147 175.043,44.193 C173.676,42.757 172.252,41.38 170.881,39.952 C172.983,37.834 175.63,36.296 178.514,35.577 z M178.169,55.641 C176.409,56.863 176.409,59.757 177.972,61.141 C179.362,62.453 181.364,62.76 183.195,62.652 C185.439,62.573 187.905,61.829 189.185,59.824 C190.515,57.986 190.49,55.618 190.449,53.447 C188.597,53.451 186.739,53.424 184.897,53.615 C182.564,53.816 180.102,54.209 178.169,55.641 z" fill="#525860"/>
      <path d="M73.54,35.603 C76.205,35.608 78.872,35.596 81.537,35.612 C81.539,46.383 81.537,57.157 81.537,67.928 C78.872,67.937 76.205,67.93 73.54,67.932 C73.543,57.157 73.54,46.379 73.54,35.603 z" fill="#525860"/>
      <path d="M44.047,39.015 C44.385,39.241 44.726,39.463 45.064,39.694 C44.648,40.643 44.632,41.68 44.621,42.699 C44.625,43.63 43.818,44.24 43.446,45.02 C43.384,45.575 43.601,46.111 43.706,46.649 C43.377,46.852 43.048,47.055 42.719,47.259 C42.603,47.035 42.486,46.815 42.369,46.593 C42.335,46.762 42.267,47.099 42.232,47.268 C41.782,47.24 41.336,47.21 40.888,47.182 C41.11,46.314 41.288,45.385 41.869,44.674 C42.321,44.062 42.973,43.595 43.297,42.893 C43.476,42.218 43.364,41.512 43.432,40.823 C43.469,40.174 43.795,39.597 44.047,39.015 z" fill="#C0569E"/>
      <path d="M53.104,44.491 C53.856,43.459 54.85,42.65 55.707,41.713 C56.112,43.327 56.841,45.242 55.776,46.76 C55.024,47.882 55.563,49.354 54.887,50.513 C54.254,51.747 53.269,53.096 51.788,53.232 C50.99,53.35 50.252,52.987 49.55,52.666 C49.646,52.23 49.767,51.8 49.875,51.366 C51.369,51.495 52.971,51.181 54.064,50.067 C54.916,49.333 55.047,48.113 54.898,47.058 C54.804,46.217 54.251,45.538 53.796,44.863 C53.518,45.145 53.227,45.42 52.99,45.741 C53.365,46.658 54.062,47.649 53.525,48.663 C52.802,49.924 51.184,50.262 49.859,49.975 C49.356,50.303 48.789,50.631 48.556,51.22 C48.341,51.765 48.33,52.364 48.252,52.939 C47.404,52.782 46.46,52.768 45.743,52.23 C45.183,51.557 45.35,50.603 45.324,49.795 C45.107,49.723 44.893,49.656 44.678,49.589 C44.998,49.284 45.297,48.947 45.681,48.718 C46.485,48.446 47.411,48.497 48.124,47.97 C48.769,47.513 49.392,47.009 50.14,46.725 C51.303,46.263 52.357,45.515 53.104,44.491 z" fill="#FFC5F9"/>
      <path d="M22.025,44.995 C21.926,44.029 22.427,43.17 22.923,42.394 C23.446,42.923 24.02,43.394 24.635,43.808 C25.514,44.374 25.894,45.441 26.744,46.041 C27.519,46.683 28.511,46.912 29.457,47.162 C29.068,47.418 28.725,47.788 28.259,47.887 C27.754,47.901 27.26,47.762 26.767,47.67 C26.568,48.037 26.371,48.407 26.177,48.776 C26.927,49.003 27.704,49.287 28.499,49.155 C29.459,49.049 30.04,48.083 30.974,47.919 C31.699,47.919 32.407,48.113 33.123,48.201 C33.952,48.848 34.855,49.395 35.831,49.788 C35.568,50.966 34.759,51.881 33.763,52.502 C33.55,52.345 33.335,52.188 33.125,52.033 C32.055,52.812 30.814,53.308 29.505,53.463 C29.486,52.985 29.377,52.488 29.502,52.019 C29.818,51.52 30.328,51.192 30.759,50.807 C30.469,50.536 30.179,50.266 29.891,49.996 C29.247,50.402 28.577,50.881 27.784,50.885 C26.152,50.968 24.58,49.455 24.726,47.781 C24.795,46.901 24.948,46.03 25.041,45.15 C24.635,45.108 24.23,45.067 23.823,45.025 C23.602,46.653 23.046,48.474 23.983,49.987 C24.769,51.483 26.44,52.188 28.051,52.227 C28.14,52.789 28.236,53.35 28.33,53.913 C27.59,53.826 26.79,53.8 26.159,53.345 C25.578,52.98 25.295,52.329 24.936,51.77 C24.488,51.028 23.668,50.576 23.33,49.758 C22.982,49.007 23.08,48.162 23.076,47.363 C22.566,46.66 22.029,45.905 22.025,44.995 z" fill="#FFC5F9"/>
      <path d="M37.134,50.035 C38.066,50.031 39.001,49.959 39.91,49.746 C40.313,49.903 40.715,50.063 41.117,50.225 C41.544,51.587 42.486,52.703 43.745,53.354 C43.185,53.93 42.63,54.507 42.081,55.096 C40.514,55.112 38.944,55.124 37.376,55.126 C36.217,55.209 35.566,54.054 34.761,53.41 C35.906,52.583 36.745,51.405 37.134,50.035 z" fill="#FFC5F9"/>
      <path d="M42.525,50.361 C43.039,50.211 43.553,50.067 44.07,49.92 C44.083,50.666 44.106,51.414 44.12,52.16 C43.464,51.682 42.902,51.086 42.525,50.361 z" fill="#FFC5F9"/>
      <path d="M8.952,62.227 C10.572,60.617 12.131,58.942 13.802,57.383 C14.645,58.256 15.504,59.113 16.354,59.984 C14.076,62.287 11.802,64.594 9.516,66.888 C8.726,65.971 7.665,65.264 7.044,64.218 C7.604,63.486 8.319,62.894 8.952,62.227 z" fill="#52A7FA"/>
      <path d="M78.33,74.217 C80.728,73.483 83.427,73.587 85.671,74.758 C86.643,75.248 87.388,76.07 88.103,76.874 C87.445,77.361 86.78,77.839 86.105,78.301 C85.308,77.347 84.364,76.44 83.132,76.123 C81.215,75.59 78.998,75.874 77.38,77.082 C75.629,78.424 75.227,81.138 76.342,83.009 C77.384,84.48 79.137,85.159 80.783,85.686 C82.956,86.372 85.363,86.901 86.979,88.652 C88.32,90.033 88.622,92.101 88.414,93.953 C88.174,96.152 86.707,98.125 84.75,99.083 C82.305,100.301 79.384,100.218 76.845,99.349 C75.19,98.795 73.801,97.642 72.768,96.245 C73.483,95.748 74.201,95.251 74.921,94.757 C75.787,96.069 77.003,97.203 78.548,97.605 C80.543,98.111 82.869,97.94 84.499,96.556 C85.984,95.362 86.556,93.182 85.9,91.392 C85.349,90.043 84.028,89.243 82.739,88.735 C80.81,87.996 78.792,87.485 76.932,86.571 C75.298,85.76 73.972,84.231 73.604,82.404 C73.248,80.627 73.373,78.646 74.402,77.107 C75.279,75.673 76.754,74.7 78.33,74.217 z" fill="#52A7FA"/>
      <path d="M186.623,76.192 C188.026,74.663 190.099,73.95 192.117,73.785 C193.909,73.642 195.767,73.963 197.353,74.841 C198.256,75.333 198.948,76.116 199.634,76.874 C198.975,77.359 198.308,77.837 197.636,78.304 C196.804,77.299 195.792,76.366 194.489,76.075 C192.563,75.603 190.348,75.915 188.778,77.19 C187.176,78.528 186.815,81.036 187.777,82.856 C188.668,84.272 190.27,84.991 191.786,85.513 C194.112,86.303 196.752,86.758 198.505,88.652 C199.805,89.973 200.116,91.941 199.965,93.729 C199.81,95.896 198.45,97.889 196.578,98.924 C194.64,100.01 192.313,100.201 190.161,99.816 C187.829,99.465 185.663,98.194 184.296,96.242 C185.009,95.746 185.729,95.256 186.447,94.762 C187.32,96.067 188.531,97.206 190.076,97.605 C192.074,98.113 194.407,97.938 196.034,96.55 C197.467,95.39 198.052,93.313 197.49,91.556 C197.083,90.368 196.034,89.551 194.946,89.033 C192.496,87.899 189.71,87.506 187.457,85.952 C184.413,83.801 184.107,78.87 186.623,76.192 z" fill="#52A7FA"/>
      <path d="M97.88,74.414 C102.912,74.375 107.947,74.409 112.982,74.398 C112.98,75.1 112.98,75.802 112.982,76.504 C108.713,76.525 104.444,76.481 100.177,76.527 C100.188,79.472 100.179,82.42 100.181,85.365 C104.19,85.39 108.196,85.37 112.205,85.377 C112.205,86.095 112.205,86.813 112.205,87.534 C108.196,87.541 104.188,87.518 100.179,87.546 C100.184,90.786 100.177,94.025 100.186,97.266 C104.654,97.282 109.122,97.247 113.59,97.284 C113.583,97.979 113.581,98.672 113.574,99.368 C108.345,99.372 103.116,99.372 97.889,99.368 C97.88,91.05 97.898,82.732 97.88,74.414 z" fill="#52A7FA"/>
      <path d="M122.789,74.395 C125.102,74.405 127.414,74.388 129.73,74.402 C131.734,74.423 133.834,74.705 135.557,75.814 C138.812,77.98 138.976,83.485 135.854,85.841 C134.68,86.762 133.194,87.093 131.773,87.405 C134.166,91.387 136.558,95.369 138.933,99.363 C138.062,99.37 137.194,99.37 136.325,99.37 C134.022,95.427 131.706,91.493 129.407,87.546 C127.965,87.527 126.523,87.532 125.081,87.539 C125.063,91.484 125.088,95.429 125.067,99.375 C124.306,99.372 123.545,99.37 122.784,99.368 C122.786,91.045 122.78,82.72 122.789,74.395 z M125.074,76.516 C125.076,79.468 125.07,82.42 125.079,85.372 C126.989,85.365 128.9,85.409 130.813,85.351 C132.381,85.282 134.051,84.697 135.018,83.381 C136.149,81.787 135.996,79.348 134.556,77.994 C133.501,76.982 132.024,76.567 130.598,76.525 C128.756,76.486 126.914,76.513 125.074,76.516 z" fill="#52A7FA"/>
      <path d="M147.675,74.402 C148.438,74.398 149.204,74.398 149.969,74.395 C149.967,82.72 149.972,91.045 149.967,99.372 C149.204,99.37 148.44,99.37 147.677,99.37 C147.675,91.047 147.679,82.725 147.675,74.402 z" fill="#52A7FA"/>
      <path d="M160.926,74.407 C165.965,74.386 171.002,74.402 176.041,74.398 C176.037,75.102 176.034,75.807 176.034,76.511 C171.77,76.507 167.505,76.507 163.241,76.511 C163.243,79.466 163.241,82.422 163.243,85.377 C167.247,85.377 171.253,85.374 175.26,85.377 C175.262,86.081 175.267,86.783 175.269,87.488 C171.262,87.592 167.252,87.506 163.243,87.534 C163.241,90.779 163.238,94.022 163.245,97.268 C167.702,97.268 172.158,97.273 176.615,97.266 C176.617,97.965 176.619,98.665 176.631,99.368 C171.397,99.375 166.161,99.372 160.928,99.368 C160.926,91.047 160.932,82.727 160.926,74.407 z" fill="#52A7FA"/>
      <path d="M30.204,83.977 C30.529,83.903 30.867,83.905 31.201,83.898 C36.617,83.91 42.036,83.898 47.452,83.905 C48.131,83.85 48.892,84.15 49.121,84.85 C49.258,85.524 49.255,86.243 49.123,86.92 C48.908,87.626 48.136,87.931 47.457,87.871 C42.04,87.878 36.624,87.867 31.205,87.878 C30.668,87.862 30.056,87.901 29.63,87.502 C29.034,86.98 29.196,86.097 29.187,85.39 C29.146,84.744 29.566,84.118 30.204,83.977 z" fill="#53585F"/>
      <path d="M31.76,89.479 C35.077,89.345 38.406,89.463 41.729,89.423 C43.368,89.465 45.018,89.333 46.652,89.486 C47.864,89.807 47.886,91.338 47.658,92.341 C47.496,93.043 46.764,93.445 46.088,93.403 C41.503,93.42 36.919,93.413 32.336,93.408 C31.47,93.505 30.631,92.794 30.647,91.897 C30.52,90.978 30.691,89.71 31.76,89.479 z" fill="#53585F"/>
      <path d="M33.826,95.048 C34.391,94.923 34.974,94.96 35.55,94.953 C38.365,94.976 41.183,94.933 43.999,94.972 C44.746,94.921 45.452,95.533 45.498,96.291 C45.528,97.03 45.658,97.931 45.066,98.497 C44.623,98.984 43.923,98.919 43.329,98.933 C40.354,98.913 37.376,98.947 34.398,98.917 C33.607,98.973 32.864,98.282 32.885,97.473 C32.803,96.6 32.809,95.36 33.826,95.048 z" fill="#53585F"/>
    </g>
  </g>
</svg>
