<?xml version="1.0" encoding="UTF-8"?>
<!DOCTYPE svg PUBLIC "-//W3C//DTD SVG 1.1//EN" "http://www.w3.org/Graphics/SVG/1.1/DTD/svg11.dtd">
<svg version="1.1" xmlns="http://www.w3.org/2000/svg" xmlns:xlink="http://www.w3.org/1999/xlink" x="0" y="0" width="200" height="74" viewBox="0, 0, 200, 74">
  <g id="Layer_2">
    <g id="Text">
      <path d="M2.237,73.201 L2.237,67.212 L-0,67.212 L-0,66.41 L5.383,66.41 L5.383,67.212 L3.136,67.212 L3.136,73.201 z" fill="#373535"/>
      <path d="M6.026,73.201 L6.026,66.41 L6.859,66.41 L6.859,68.847 Q7.443,68.171 8.333,68.171 Q8.879,68.171 9.282,68.386 Q9.685,68.601 9.859,68.981 Q10.033,69.361 10.033,70.084 L10.033,73.201 L9.199,73.201 L9.199,70.084 Q9.199,69.458 8.928,69.174 Q8.657,68.889 8.161,68.889 Q7.791,68.889 7.464,69.081 Q7.137,69.273 6.998,69.602 Q6.859,69.931 6.859,70.51 L6.859,73.201 z" fill="#373535"/>
      <path d="M14.295,71.652 L15.157,71.758 Q14.953,72.513 14.402,72.93 Q13.851,73.347 12.994,73.347 Q11.914,73.347 11.282,72.682 Q10.65,72.018 10.65,70.818 Q10.65,69.576 11.289,68.891 Q11.928,68.205 12.947,68.205 Q13.934,68.205 14.559,68.877 Q15.185,69.549 15.185,70.767 Q15.185,70.841 15.18,70.989 L11.511,70.989 Q11.558,71.8 11.97,72.231 Q12.382,72.662 12.998,72.662 Q13.457,72.662 13.781,72.421 Q14.105,72.18 14.295,71.652 z M11.558,70.304 L14.305,70.304 Q14.249,69.683 13.99,69.372 Q13.591,68.891 12.957,68.891 Q12.382,68.891 11.991,69.275 Q11.599,69.66 11.558,70.304 z" fill="#373535"/>
      <path d="M18.975,71.274 L19.786,71.163 Q19.818,71.941 20.078,72.229 Q20.337,72.516 20.796,72.516 Q21.134,72.516 21.379,72.361 Q21.625,72.205 21.717,71.939 Q21.81,71.673 21.81,71.089 L21.81,66.41 L22.709,66.41 L22.709,71.038 Q22.709,71.89 22.503,72.358 Q22.296,72.826 21.849,73.072 Q21.402,73.317 20.8,73.317 Q19.906,73.317 19.431,72.803 Q18.957,72.289 18.975,71.274 z" fill="#373535"/>
      <path d="M23.718,70.776 Q23.718,69.41 24.478,68.752 Q25.112,68.205 26.025,68.205 Q27.039,68.205 27.683,68.87 Q28.327,69.535 28.327,70.707 Q28.327,71.656 28.042,72.201 Q27.757,72.745 27.213,73.046 Q26.669,73.347 26.025,73.347 Q24.992,73.347 24.355,72.685 Q23.718,72.022 23.718,70.776 z M24.575,70.776 Q24.575,71.721 24.987,72.191 Q25.4,72.662 26.025,72.662 Q26.646,72.662 27.058,72.189 Q27.47,71.716 27.47,70.748 Q27.47,69.836 27.056,69.366 Q26.641,68.895 26.025,68.895 Q25.4,68.895 24.987,69.363 Q24.575,69.831 24.575,70.776 z" fill="#373535"/>
      <path d="M32.345,73.125 L32.345,72.402 Q31.771,73.236 30.784,73.236 Q30.349,73.236 29.971,73.069 Q29.594,72.902 29.411,72.65 Q29.228,72.397 29.154,72.032 Q29.103,71.786 29.103,71.253 L29.103,68.205 L29.936,68.205 L29.936,70.934 Q29.936,71.587 29.987,71.814 Q30.066,72.143 30.321,72.33 Q30.576,72.518 30.951,72.518 Q31.326,72.518 31.655,72.326 Q31.984,72.133 32.121,71.802 Q32.257,71.471 32.257,70.841 L32.257,68.205 L33.091,68.205 L33.091,73.125 z" fill="#373535"/>
      <path d="M33.974,73.236 L33.974,68.316 L34.725,68.316 L34.725,69.062 Q35.012,68.539 35.255,68.372 Q35.498,68.205 35.79,68.205 Q36.212,68.205 36.647,68.474 L36.36,69.247 Q36.054,69.067 35.749,69.067 Q35.475,69.067 35.258,69.231 Q35.04,69.396 34.947,69.688 Q34.808,70.132 34.808,70.66 L34.808,73.236 z" fill="#373535"/>
      <path d="M36.923,73.236 L36.923,68.316 L37.674,68.316 L37.674,69.016 Q38.216,68.205 39.239,68.205 Q39.684,68.205 40.057,68.365 Q40.43,68.525 40.615,68.784 Q40.8,69.044 40.875,69.4 Q40.921,69.632 40.921,70.211 L40.921,73.236 L40.087,73.236 L40.087,70.243 Q40.087,69.734 39.99,69.481 Q39.892,69.229 39.645,69.078 Q39.397,68.928 39.063,68.928 Q38.531,68.928 38.144,69.266 Q37.757,69.604 37.757,70.549 L37.757,73.236 z" fill="#373535"/>
      <path d="M45.16,72.629 Q44.696,73.023 44.268,73.185 Q43.839,73.347 43.348,73.347 Q42.538,73.347 42.102,72.951 Q41.667,72.555 41.667,71.939 Q41.667,71.578 41.831,71.279 Q41.996,70.98 42.262,70.799 Q42.528,70.619 42.862,70.526 Q43.107,70.461 43.603,70.401 Q44.613,70.28 45.09,70.114 Q45.095,69.942 45.095,69.896 Q45.095,69.386 44.858,69.178 Q44.539,68.895 43.909,68.895 Q43.32,68.895 43.04,69.102 Q42.76,69.308 42.626,69.831 L41.81,69.72 Q41.921,69.196 42.176,68.875 Q42.431,68.553 42.913,68.379 Q43.395,68.205 44.029,68.205 Q44.659,68.205 45.053,68.353 Q45.447,68.502 45.632,68.726 Q45.817,68.951 45.891,69.294 Q45.933,69.507 45.933,70.063 L45.933,71.175 Q45.933,72.337 45.986,72.645 Q46.04,72.953 46.197,73.236 L45.326,73.236 Q45.197,72.977 45.16,72.629 z M45.09,70.767 Q44.636,70.952 43.728,71.082 Q43.214,71.156 43.001,71.249 Q42.788,71.341 42.672,71.52 Q42.556,71.698 42.556,71.916 Q42.556,72.249 42.809,72.472 Q43.061,72.694 43.547,72.694 Q44.029,72.694 44.404,72.483 Q44.78,72.272 44.956,71.906 Q45.09,71.624 45.09,71.073 z" fill="#373535"/>
      <path d="M47.051,73.201 L47.051,66.41 L47.885,66.41 L47.885,73.201 z" fill="#373535"/>
      <path d="M52.281,70.776 Q52.281,69.41 53.041,68.752 Q53.676,68.205 54.588,68.205 Q55.603,68.205 56.246,68.87 Q56.89,69.535 56.89,70.707 Q56.89,71.656 56.606,72.201 Q56.321,72.745 55.776,73.046 Q55.232,73.347 54.588,73.347 Q53.555,73.347 52.918,72.685 Q52.281,72.022 52.281,70.776 z M53.138,70.776 Q53.138,71.721 53.55,72.191 Q53.963,72.662 54.588,72.662 Q55.209,72.662 55.621,72.189 Q56.033,71.716 56.033,70.748 Q56.033,69.836 55.619,69.366 Q55.204,68.895 54.588,68.895 Q53.963,68.895 53.55,69.363 Q53.138,69.831 53.138,70.776 z" fill="#373535"/>
      <path d="M58.067,73.317 L58.067,69.046 L57.33,69.046 L57.33,68.398 L58.067,68.398 L58.067,67.874 Q58.067,67.378 58.155,67.138 Q58.275,66.813 58.579,66.612 Q58.882,66.41 59.429,66.41 Q59.781,66.41 60.207,66.494 L60.082,67.221 Q59.823,67.175 59.591,67.175 Q59.211,67.175 59.054,67.337 Q58.896,67.499 58.896,67.944 L58.896,68.398 L59.855,68.398 L59.855,69.046 L58.896,69.046 L58.896,73.317 z" fill="#373535"/>
      <path d="M66.638,72.303 L66.759,73.039 Q66.407,73.113 66.129,73.113 Q65.675,73.113 65.424,72.97 Q65.174,72.826 65.072,72.592 Q64.97,72.358 64.97,71.608 L64.97,68.777 L64.359,68.777 L64.359,68.129 L64.97,68.129 L64.97,66.911 L65.8,66.41 L65.8,68.129 L66.638,68.129 L66.638,68.777 L65.8,68.777 L65.8,71.654 Q65.8,72.011 65.844,72.113 Q65.888,72.215 65.987,72.275 Q66.087,72.335 66.272,72.335 Q66.411,72.335 66.638,72.303 z" fill="#373535"/>
      <path d="M67.436,73.201 L67.436,66.41 L68.27,66.41 L68.27,68.847 Q68.853,68.171 69.743,68.171 Q70.289,68.171 70.692,68.386 Q71.096,68.601 71.269,68.981 Q71.443,69.361 71.443,70.084 L71.443,73.201 L70.609,73.201 L70.609,70.084 Q70.609,69.458 70.338,69.174 Q70.067,68.889 69.571,68.889 Q69.201,68.889 68.874,69.081 Q68.548,69.273 68.409,69.602 Q68.27,69.931 68.27,70.51 L68.27,73.201 z" fill="#373535"/>
      <path d="M75.825,71.652 L76.687,71.758 Q76.483,72.513 75.932,72.93 Q75.38,73.347 74.523,73.347 Q73.444,73.347 72.812,72.682 Q72.179,72.018 72.179,70.818 Q72.179,69.576 72.819,68.891 Q73.458,68.205 74.477,68.205 Q75.464,68.205 76.089,68.877 Q76.715,69.549 76.715,70.767 Q76.715,70.841 76.71,70.989 L73.041,70.989 Q73.087,71.8 73.5,72.231 Q73.912,72.662 74.528,72.662 Q74.987,72.662 75.311,72.421 Q75.635,72.18 75.825,71.652 z M73.087,70.304 L75.834,70.304 Q75.779,69.683 75.519,69.372 Q75.121,68.891 74.486,68.891 Q73.912,68.891 73.521,69.275 Q73.129,69.66 73.087,70.304 z" fill="#373535"/>
      <path d="M80.385,73.201 L82.993,66.41 L83.961,66.41 L86.74,73.201 L85.717,73.201 L84.924,71.145 L82.085,71.145 L81.339,73.201 z M82.344,70.413 L84.646,70.413 L83.938,68.532 Q83.613,67.675 83.456,67.124 Q83.326,67.777 83.09,68.421 z" fill="#373535"/>
      <path d="M86.923,73.236 L86.923,68.316 L87.669,68.316 L87.669,69.007 Q87.901,68.645 88.285,68.425 Q88.67,68.205 89.161,68.205 Q89.707,68.205 90.057,68.432 Q90.407,68.659 90.55,69.067 Q91.134,68.205 92.07,68.205 Q92.802,68.205 93.195,68.61 Q93.589,69.016 93.589,69.859 L93.589,73.236 L92.76,73.236 L92.76,70.137 Q92.76,69.637 92.679,69.417 Q92.598,69.196 92.385,69.062 Q92.172,68.928 91.884,68.928 Q91.366,68.928 91.023,69.273 Q90.68,69.618 90.68,70.378 L90.68,73.236 L89.846,73.236 L89.846,70.04 Q89.846,69.484 89.642,69.206 Q89.438,68.928 88.975,68.928 Q88.623,68.928 88.324,69.113 Q88.026,69.298 87.891,69.655 Q87.757,70.012 87.757,70.683 L87.757,73.236 z" fill="#373535"/>
      <path d="M97.876,71.652 L98.738,71.758 Q98.534,72.513 97.983,72.93 Q97.432,73.347 96.575,73.347 Q95.495,73.347 94.863,72.682 Q94.231,72.018 94.231,70.818 Q94.231,69.576 94.87,68.891 Q95.509,68.205 96.528,68.205 Q97.515,68.205 98.141,68.877 Q98.766,69.549 98.766,70.767 Q98.766,70.841 98.761,70.989 L95.092,70.989 Q95.139,71.8 95.551,72.231 Q95.963,72.662 96.579,72.662 Q97.038,72.662 97.362,72.421 Q97.687,72.18 97.876,71.652 z M95.139,70.304 L97.886,70.304 Q97.83,69.683 97.571,69.372 Q97.172,68.891 96.538,68.891 Q95.963,68.891 95.572,69.275 Q95.18,69.66 95.139,70.304 z" fill="#373535"/>
      <path d="M99.359,73.236 L99.359,68.316 L100.109,68.316 L100.109,69.062 Q100.397,68.539 100.64,68.372 Q100.883,68.205 101.175,68.205 Q101.596,68.205 102.032,68.474 L101.745,69.247 Q101.439,69.067 101.133,69.067 Q100.86,69.067 100.642,69.231 Q100.424,69.396 100.332,69.688 Q100.193,70.132 100.193,70.66 L100.193,73.236 z" fill="#373535"/>
      <path d="M102.308,67.369 L102.308,66.41 L103.142,66.41 L103.142,67.369 z M102.308,73.201 L102.308,68.282 L103.142,68.282 L103.142,73.201 z" fill="#373535"/>
      <path d="M107.311,71.434 L108.131,71.54 Q107.997,72.388 107.443,72.868 Q106.89,73.347 106.084,73.347 Q105.074,73.347 104.46,72.687 Q103.846,72.027 103.846,70.795 Q103.846,69.998 104.11,69.4 Q104.374,68.803 104.914,68.504 Q105.454,68.205 106.088,68.205 Q106.89,68.205 107.399,68.61 Q107.909,69.016 108.052,69.762 L107.242,69.887 Q107.126,69.391 106.832,69.141 Q106.538,68.891 106.121,68.891 Q105.491,68.891 105.097,69.342 Q104.703,69.794 104.703,70.771 Q104.703,71.763 105.083,72.212 Q105.463,72.662 106.074,72.662 Q106.565,72.662 106.894,72.36 Q107.223,72.059 107.311,71.434 z" fill="#373535"/>
      <path d="M111.954,72.629 Q111.491,73.023 111.063,73.185 Q110.634,73.347 110.143,73.347 Q109.332,73.347 108.897,72.951 Q108.462,72.555 108.462,71.939 Q108.462,71.578 108.626,71.279 Q108.79,70.98 109.057,70.799 Q109.323,70.619 109.657,70.526 Q109.902,70.461 110.398,70.401 Q111.408,70.28 111.885,70.114 Q111.89,69.942 111.89,69.896 Q111.89,69.386 111.653,69.178 Q111.334,68.895 110.704,68.895 Q110.115,68.895 109.835,69.102 Q109.555,69.308 109.42,69.831 L108.605,69.72 Q108.716,69.196 108.971,68.875 Q109.226,68.553 109.708,68.379 Q110.189,68.205 110.824,68.205 Q111.454,68.205 111.848,68.353 Q112.242,68.502 112.427,68.726 Q112.612,68.951 112.686,69.294 Q112.728,69.507 112.728,70.063 L112.728,71.175 Q112.728,72.337 112.781,72.645 Q112.835,72.953 112.992,73.236 L112.121,73.236 Q111.991,72.977 111.954,72.629 z M111.885,70.767 Q111.431,70.952 110.523,71.082 Q110.009,71.156 109.796,71.249 Q109.583,71.341 109.467,71.52 Q109.351,71.698 109.351,71.916 Q109.351,72.249 109.603,72.472 Q109.856,72.694 110.342,72.694 Q110.824,72.694 111.199,72.483 Q111.575,72.272 111.751,71.906 Q111.885,71.624 111.885,71.073 z" fill="#373535"/>
      <path d="M113.974,73.236 L113.974,68.316 L114.725,68.316 L114.725,69.016 Q115.267,68.205 116.291,68.205 Q116.735,68.205 117.108,68.365 Q117.481,68.525 117.666,68.784 Q117.852,69.044 117.926,69.4 Q117.972,69.632 117.972,70.211 L117.972,73.236 L117.138,73.236 L117.138,70.243 Q117.138,69.734 117.041,69.481 Q116.944,69.229 116.696,69.078 Q116.448,68.928 116.115,68.928 Q115.582,68.928 115.195,69.266 Q114.808,69.604 114.808,70.549 L114.808,73.236 z" fill="#373535"/>
      <path d="M121.795,73.201 L121.795,66.41 L123.148,66.41 L124.755,71.219 Q124.977,71.89 125.079,72.224 Q125.195,71.853 125.441,71.135 L127.067,66.41 L128.276,66.41 L128.276,73.201 L127.409,73.201 L127.409,67.517 L125.436,73.201 L124.625,73.201 L122.661,67.42 L122.661,73.201 z" fill="#373535"/>
      <path d="M132.364,71.652 L133.225,71.758 Q133.021,72.513 132.47,72.93 Q131.919,73.347 131.062,73.347 Q129.983,73.347 129.35,72.682 Q128.718,72.018 128.718,70.818 Q128.718,69.576 129.357,68.891 Q129.997,68.205 131.016,68.205 Q132.002,68.205 132.628,68.877 Q133.253,69.549 133.253,70.767 Q133.253,70.841 133.248,70.989 L129.58,70.989 Q129.626,71.8 130.038,72.231 Q130.45,72.662 131.067,72.662 Q131.525,72.662 131.849,72.421 Q132.174,72.18 132.364,71.652 z M129.626,70.304 L132.373,70.304 Q132.317,69.683 132.058,69.372 Q131.66,68.891 131.025,68.891 Q130.45,68.891 130.059,69.275 Q129.668,69.66 129.626,70.304 z" fill="#373535"/>
      <path d="M137.339,73.201 L137.339,72.581 Q136.871,73.313 135.963,73.313 Q135.375,73.313 134.882,72.988 Q134.388,72.664 134.117,72.083 Q133.846,71.501 133.846,70.746 Q133.846,70.01 134.092,69.41 Q134.337,68.81 134.828,68.49 Q135.319,68.171 135.926,68.171 Q136.371,68.171 136.718,68.358 Q137.066,68.546 137.283,68.847 L137.283,66.41 L138.113,66.41 L138.113,73.201 z M134.703,70.746 Q134.703,71.691 135.102,72.159 Q135.5,72.627 136.042,72.627 Q136.589,72.627 136.971,72.18 Q137.353,71.733 137.353,70.816 Q137.353,69.806 136.964,69.333 Q136.575,68.861 136.005,68.861 Q135.449,68.861 135.076,69.315 Q134.703,69.769 134.703,70.746 z" fill="#373535"/>
      <path d="M139.359,67.369 L139.359,66.41 L140.193,66.41 L140.193,67.369 z M139.359,73.201 L139.359,68.282 L140.193,68.282 L140.193,73.201 z" fill="#373535"/>
      <path d="M144.362,71.434 L145.182,71.54 Q145.048,72.388 144.495,72.868 Q143.941,73.347 143.135,73.347 Q142.125,73.347 141.511,72.687 Q140.897,72.027 140.897,70.795 Q140.897,69.998 141.161,69.4 Q141.426,68.803 141.965,68.504 Q142.505,68.205 143.14,68.205 Q143.941,68.205 144.451,68.61 Q144.96,69.016 145.104,69.762 L144.293,69.887 Q144.177,69.391 143.883,69.141 Q143.589,68.891 143.172,68.891 Q142.542,68.891 142.148,69.342 Q141.754,69.794 141.754,70.771 Q141.754,71.763 142.134,72.212 Q142.514,72.662 143.126,72.662 Q143.617,72.662 143.946,72.36 Q144.274,72.059 144.362,71.434 z" fill="#373535"/>
      <path d="M149.134,72.629 Q148.671,73.023 148.242,73.185 Q147.814,73.347 147.323,73.347 Q146.512,73.347 146.076,72.951 Q145.641,72.555 145.641,71.939 Q145.641,71.578 145.805,71.279 Q145.97,70.98 146.236,70.799 Q146.503,70.619 146.836,70.526 Q147.082,70.461 147.577,70.401 Q148.587,70.28 149.064,70.114 Q149.069,69.942 149.069,69.896 Q149.069,69.386 148.833,69.178 Q148.513,68.895 147.883,68.895 Q147.295,68.895 147.015,69.102 Q146.734,69.308 146.6,69.831 L145.785,69.72 Q145.896,69.196 146.151,68.875 Q146.405,68.553 146.887,68.379 Q147.369,68.205 148.004,68.205 Q148.634,68.205 149.027,68.353 Q149.421,68.502 149.606,68.726 Q149.792,68.951 149.866,69.294 Q149.907,69.507 149.907,70.063 L149.907,71.175 Q149.907,72.337 149.961,72.645 Q150.014,72.953 150.172,73.236 L149.301,73.236 Q149.171,72.977 149.134,72.629 z M149.064,70.767 Q148.61,70.952 147.702,71.082 Q147.188,71.156 146.975,71.249 Q146.762,71.341 146.646,71.52 Q146.53,71.698 146.53,71.916 Q146.53,72.249 146.783,72.472 Q147.035,72.694 147.522,72.694 Q148.004,72.694 148.379,72.483 Q148.754,72.272 148.93,71.906 Q149.064,71.624 149.064,71.073 z" fill="#373535"/>
      <path d="M150.897,73.201 L150.897,66.41 L151.731,66.41 L151.731,73.201 z" fill="#373535"/>
      <path d="M155.128,73.201 L157.736,66.41 L158.704,66.41 L161.484,73.201 L160.46,73.201 L159.668,71.145 L156.828,71.145 L156.082,73.201 z M157.088,70.413 L159.39,70.413 L158.681,68.532 Q158.357,67.675 158.2,67.124 Q158.07,67.777 157.834,68.421 z" fill="#373535"/>
      <path d="M161.484,71.767 L162.308,71.638 Q162.378,72.133 162.695,72.397 Q163.013,72.662 163.582,72.662 Q164.157,72.662 164.435,72.428 Q164.713,72.194 164.713,71.879 Q164.713,71.596 164.467,71.434 Q164.296,71.323 163.615,71.151 Q162.698,70.92 162.343,70.751 Q161.989,70.582 161.806,70.283 Q161.623,69.984 161.623,69.623 Q161.623,69.294 161.773,69.013 Q161.924,68.733 162.183,68.548 Q162.378,68.404 162.714,68.305 Q163.05,68.205 163.434,68.205 Q164.013,68.205 164.451,68.372 Q164.889,68.539 165.097,68.824 Q165.306,69.108 165.384,69.586 L164.569,69.697 Q164.513,69.317 164.247,69.104 Q163.981,68.891 163.494,68.891 Q162.92,68.891 162.674,69.081 Q162.429,69.271 162.429,69.525 Q162.429,69.688 162.531,69.817 Q162.633,69.952 162.85,70.04 Q162.976,70.086 163.587,70.253 Q164.472,70.489 164.822,70.639 Q165.171,70.79 165.37,71.077 Q165.57,71.364 165.57,71.791 Q165.57,72.208 165.326,72.576 Q165.083,72.944 164.625,73.146 Q164.166,73.347 163.587,73.347 Q162.628,73.347 162.125,72.949 Q161.623,72.55 161.484,71.767 z" fill="#373535"/>
      <path d="M165.897,71.767 L166.722,71.638 Q166.792,72.133 167.109,72.397 Q167.426,72.662 167.996,72.662 Q168.57,72.662 168.848,72.428 Q169.126,72.194 169.126,71.879 Q169.126,71.596 168.881,71.434 Q168.709,71.323 168.028,71.151 Q167.111,70.92 166.757,70.751 Q166.402,70.582 166.219,70.283 Q166.036,69.984 166.036,69.623 Q166.036,69.294 166.187,69.013 Q166.338,68.733 166.597,68.548 Q166.792,68.404 167.127,68.305 Q167.463,68.205 167.848,68.205 Q168.427,68.205 168.865,68.372 Q169.302,68.539 169.511,68.824 Q169.719,69.108 169.798,69.586 L168.983,69.697 Q168.927,69.317 168.661,69.104 Q168.394,68.891 167.908,68.891 Q167.333,68.891 167.088,69.081 Q166.842,69.271 166.842,69.525 Q166.842,69.688 166.944,69.817 Q167.046,69.952 167.264,70.04 Q167.389,70.086 168.001,70.253 Q168.885,70.489 169.235,70.639 Q169.585,70.79 169.784,71.077 Q169.983,71.364 169.983,71.791 Q169.983,72.208 169.74,72.576 Q169.497,72.944 169.038,73.146 Q168.58,73.347 168.001,73.347 Q167.042,73.347 166.539,72.949 Q166.036,72.55 165.897,71.767 z" fill="#373535"/>
      <path d="M170.128,70.776 Q170.128,69.41 170.888,68.752 Q171.523,68.205 172.435,68.205 Q173.45,68.205 174.094,68.87 Q174.737,69.535 174.737,70.707 Q174.737,71.656 174.453,72.201 Q174.168,72.745 173.623,73.046 Q173.079,73.347 172.435,73.347 Q171.402,73.347 170.765,72.685 Q170.128,72.022 170.128,70.776 z M170.985,70.776 Q170.985,71.721 171.397,72.191 Q171.81,72.662 172.435,72.662 Q173.056,72.662 173.468,72.189 Q173.88,71.716 173.88,70.748 Q173.88,69.836 173.466,69.366 Q173.051,68.895 172.435,68.895 Q171.81,68.895 171.397,69.363 Q170.985,69.831 170.985,70.776 z" fill="#373535"/>
      <path d="M178.85,71.434 L179.67,71.54 Q179.535,72.388 178.982,72.868 Q178.428,73.347 177.622,73.347 Q176.612,73.347 175.998,72.687 Q175.385,72.027 175.385,70.795 Q175.385,69.998 175.649,69.4 Q175.913,68.803 176.452,68.504 Q176.992,68.205 177.627,68.205 Q178.428,68.205 178.938,68.61 Q179.447,69.016 179.591,69.762 L178.78,69.887 Q178.664,69.391 178.37,69.141 Q178.076,68.891 177.659,68.891 Q177.029,68.891 176.635,69.342 Q176.242,69.794 176.242,70.771 Q176.242,71.763 176.621,72.212 Q177.001,72.662 177.613,72.662 Q178.104,72.662 178.433,72.36 Q178.762,72.059 178.85,71.434 z" fill="#373535"/>
      <path d="M180.256,67.369 L180.256,66.41 L181.09,66.41 L181.09,67.369 z M180.256,73.201 L180.256,68.282 L181.09,68.282 L181.09,73.201 z" fill="#373535"/>
      <path d="M185.288,72.629 Q184.824,73.023 184.396,73.185 Q183.967,73.347 183.476,73.347 Q182.666,73.347 182.23,72.951 Q181.795,72.555 181.795,71.939 Q181.795,71.578 181.959,71.279 Q182.124,70.98 182.39,70.799 Q182.657,70.619 182.99,70.526 Q183.236,70.461 183.731,70.401 Q184.741,70.28 185.218,70.114 Q185.223,69.942 185.223,69.896 Q185.223,69.386 184.987,69.178 Q184.667,68.895 184.037,68.895 Q183.449,68.895 183.168,69.102 Q182.888,69.308 182.754,69.831 L181.938,69.72 Q182.05,69.196 182.304,68.875 Q182.559,68.553 183.041,68.379 Q183.523,68.205 184.157,68.205 Q184.787,68.205 185.181,68.353 Q185.575,68.502 185.76,68.726 Q185.946,68.951 186.02,69.294 Q186.061,69.507 186.061,70.063 L186.061,71.175 Q186.061,72.337 186.115,72.645 Q186.168,72.953 186.325,73.236 L185.454,73.236 Q185.325,72.977 185.288,72.629 z M185.218,70.767 Q184.764,70.952 183.856,71.082 Q183.342,71.156 183.129,71.249 Q182.916,71.341 182.8,71.52 Q182.684,71.698 182.684,71.916 Q182.684,72.249 182.937,72.472 Q183.189,72.694 183.676,72.694 Q184.157,72.694 184.533,72.483 Q184.908,72.272 185.084,71.906 Q185.218,71.624 185.218,71.073 z" fill="#373535"/>
      <path d="M188.818,72.303 L188.938,73.039 Q188.586,73.113 188.308,73.113 Q187.854,73.113 187.604,72.97 Q187.354,72.826 187.252,72.592 Q187.15,72.358 187.15,71.608 L187.15,68.777 L186.538,68.777 L186.538,68.129 L187.15,68.129 L187.15,66.911 L187.979,66.41 L187.979,68.129 L188.818,68.129 L188.818,68.777 L187.979,68.777 L187.979,71.654 Q187.979,72.011 188.023,72.113 Q188.067,72.215 188.167,72.275 Q188.266,72.335 188.452,72.335 Q188.591,72.335 188.818,72.303 z" fill="#373535"/>
      <path d="M189.487,67.369 L189.487,66.41 L190.321,66.41 L190.321,67.369 z M189.487,73.201 L189.487,68.282 L190.321,68.282 L190.321,73.201 z" fill="#373535"/>
      <path d="M190.769,70.776 Q190.769,69.41 191.529,68.752 Q192.164,68.205 193.076,68.205 Q194.091,68.205 194.735,68.87 Q195.378,69.535 195.378,70.707 Q195.378,71.656 195.094,72.201 Q194.809,72.745 194.264,73.046 Q193.72,73.347 193.076,73.347 Q192.043,73.347 191.406,72.685 Q190.769,72.022 190.769,70.776 z M191.626,70.776 Q191.626,71.721 192.039,72.191 Q192.451,72.662 193.076,72.662 Q193.697,72.662 194.109,72.189 Q194.521,71.716 194.521,70.748 Q194.521,69.836 194.107,69.366 Q193.692,68.895 193.076,68.895 Q192.451,68.895 192.039,69.363 Q191.626,69.831 191.626,70.776 z" fill="#373535"/>
      <path d="M195.897,73.236 L195.897,68.316 L196.648,68.316 L196.648,69.016 Q197.19,68.205 198.214,68.205 Q198.658,68.205 199.031,68.365 Q199.404,68.525 199.589,68.784 Q199.775,69.044 199.849,69.4 Q199.895,69.632 199.895,70.211 L199.895,73.236 L199.061,73.236 L199.061,70.243 Q199.061,69.734 198.964,69.481 Q198.867,69.229 198.619,69.078 Q198.371,68.928 198.038,68.928 Q197.505,68.928 197.118,69.266 Q196.731,69.604 196.731,70.549 L196.731,73.236 z" fill="#373535"/>
    </g>
    <g id="JAMA">
      <path d="M27.051,0.385 L36.154,0.385 L36.026,44.487 C36.026,44.487 35.641,58.846 17.436,58.846 C1.667,58.846 0.385,43.333 0.385,43.333 L0.385,37.692 L9.487,37.692 L9.487,42.051 C9.487,42.051 10.127,50.385 17.564,50.385 C26.41,50.385 27.051,42.692 27.051,42.692 L27.051,0.385 z" fill="#D71653"/>
      <path d="M34.231,57.436 L43.077,57.436 L48.333,42.949 L72.051,42.949 L77.436,57.436 L87.179,57.436 L66.154,0.385 L53.974,0.385 L34.231,57.436 z M50.897,35.128 L59.744,10.128 L69.231,35.128 L50.897,35.128 z" fill="#D71653"/>
      <path d="M87.308,57.436 L96.282,57.436 L96.282,11.667 L113.077,57.436 L121.667,57.436 L137.692,11.795 L137.692,57.436 L146.795,57.436 L146.795,0.385 L132.179,0.385 L117.436,43.205 L101.923,0.385 L87.179,0.385 L87.308,57.436 z" fill="#D71653"/>
      <path d="M147.051,57.436 L155.897,57.436 L161.154,42.949 L184.872,42.949 L190.256,57.436 L200,57.436 L178.974,0.385 L166.795,0.385 L147.051,57.436 z M163.718,35.128 L172.564,10.128 L182.051,35.128 L163.718,35.128 z" fill="#D71653"/>
    </g>
    <g id="Restricted">
      <path d="M184.551,6.538 C182.746,6.538 181.282,5.075 181.282,3.269 C181.282,1.464 182.746,-0 184.551,-0 C186.357,-0 187.821,1.464 187.821,3.269 C187.821,5.075 186.357,6.538 184.551,6.538 z M184.551,6.026 C186.074,6.026 187.308,4.792 187.308,3.269 C187.308,1.747 186.074,0.513 184.551,0.513 C183.029,0.513 181.795,1.747 181.795,3.269 C181.795,4.792 183.029,6.026 184.551,6.026 z" fill="#373535"/>
      <path d="M183.333,1.41 L183.333,5.128 L183.974,5.128 L183.974,3.59 L184.615,3.59 L185.513,5.128 L186.282,5.128 L185.128,3.462 C185.128,3.462 186.154,3.333 186.154,2.436 C186.154,1.538 185.385,1.41 185.385,1.41 L183.333,1.41 z M183.974,3.077 L183.974,1.923 L185.256,1.923 C185.256,1.923 185.641,1.923 185.641,2.436 C185.641,3.077 185.128,3.077 185.128,3.077 L183.974,3.077 z" fill="#373535"/>
    </g>
  </g>
</svg>
