<?xml version="1.0" encoding="UTF-8"?>
<svg width="612px" height="792px" viewBox="0 0 612 792" version="1.1" xmlns="http://www.w3.org/2000/svg" xmlns:xlink="http://www.w3.org/1999/xlink">
    <!-- Generator: Sketch 41.2 (35397) - http://www.bohemiancoding.com/sketch -->
    <title>Letter</title>
    <desc>Created with Sketch.</desc>
    <defs>
        <rect id="path-1" x="0" y="113" width="612" height="679"></rect>
        <mask id="mask-2" maskContentUnits="userSpaceOnUse" maskUnits="objectBoundingBox" x="0" y="0" width="612" height="679" fill="white">
            <use xlink:href="#path-1"></use>
        </mask>
        <rect id="path-3" x="0" y="0" width="612" height="113"></rect>
        <mask id="mask-4" maskContentUnits="userSpaceOnUse" maskUnits="objectBoundingBox" x="0" y="0" width="612" height="113" fill="white">
            <use xlink:href="#path-3"></use>
        </mask>
        <rect id="path-5" x="210" y="620" width="378" height="140"></rect>
        <mask id="mask-6" maskContentUnits="userSpaceOnUse" maskUnits="objectBoundingBox" x="0" y="0" width="378" height="140" fill="white">
            <use xlink:href="#path-5"></use>
        </mask>
    </defs>
    <g id="Page-1" stroke="none" stroke-width="1" fill="none" fill-rule="evenodd">
        <use id="Background" stroke="#979797" mask="url(#mask-2)" stroke-width="2" fill="#FFFFFF" xlink:href="#path-1"></use>
        <g id="Letter">
            <use id="Rectangle" stroke="#979797" mask="url(#mask-4)" stroke-width="2" fill="#3A7DA2" xlink:href="#path-3"></use>
            <use id="Rectangle-2" stroke="#979797" mask="url(#mask-6)" stroke-width="2" fill="#D8D8D8" xlink:href="#path-5"></use>
            <g id="Column-1" transform="translate(212.000000, 167.000000)" stroke="#999999" stroke-width="5" stroke-linecap="square">
                <path d="M0.5,1.5 L161.5,1.5" id="Line"></path>
                <path d="M0.5,11.5 L161.5,11.5" id="Line-Copy"></path>
                <path d="M0.5,21.5 L168.5,21.5" id="Line-Copy"></path>
                <path d="M0.5,31.5 L168.5,31.5" id="Line-Copy"></path>
                <path d="M0.5,41.5 L168.5,41.5" id="Line-Copy"></path>
                <path d="M0.5,51.5 L175.5,51.5" id="Line-Copy"></path>
                <path d="M0.5,61.5 L168.5,61.5" id="Line-Copy"></path>
                <path d="M0.5,71.5 L55.5,71.5" id="Line-Copy"></path>
                <path d="M0.5,90.5 L176.5,90.5" id="Line"></path>
                <path d="M0.5,100.5 L161.5,100.5" id="Line-Copy"></path>
                <path d="M0.5,110.5 L168.5,110.5" id="Line-Copy"></path>
                <path d="M0.5,120.5 L168.5,120.5" id="Line-Copy"></path>
                <path d="M0.5,130.5 L161.5,130.5" id="Line-Copy"></path>
                <path d="M0.5,140.5 L152.5,140.5" id="Line-Copy"></path>
                <path d="M0.5,150.5 L160.5,150.5" id="Line-Copy"></path>
                <path d="M0.5,160.5 L152.5,160.5" id="Line-Copy"></path>
                <path d="M0.5,325.5 L160.5,325.5" id="Line"></path>
                <path d="M0.5,335.5 L167.5,335.5" id="Line-Copy"></path>
                <path d="M0.5,345.5 L175.5,345.5" id="Line-Copy"></path>
                <path d="M0.5,355.5 L167.5,355.5" id="Line-Copy"></path>
                <path d="M0.5,365 L160.5,365" id="Line-Copy"></path>
                <path d="M0.5,374.5 L160.5,374.5" id="Line-Copy"></path>
                <path d="M0.5,384.5 L167.5,384.5" id="Line-Copy"></path>
                <path d="M0.5,394.5 L145.5,394.5" id="Line-Copy"></path>
                <path d="M0.5,404.5 L175.5,404.5" id="Line-Copy"></path>
                <path d="M0.5,414.5 L168.5,414.5" id="Line-Copy"></path>
                <path d="M0.5,198.5 L147.5,198.5" id="Line"></path>
                <path d="M0.5,208.5 L161.5,208.5" id="Line-Copy"></path>
                <path d="M0.5,218.5 L155.5,218.5" id="Line-Copy"></path>
                <path d="M0.5,228.5 L177.5,228.5" id="Line-Copy"></path>
                <path d="M0.5,238.5 L147.5,238.5" id="Line-Copy"></path>
                <path d="M0.5,258.5 L175.5,258.5" id="Line"></path>
                <path d="M0.5,268.5 L145.5,268.5" id="Line-Copy"></path>
                <path d="M0.5,278.5 L167.5,278.5" id="Line-Copy"></path>
                <path d="M0.5,297 L175.5,297" id="Line-Copy"></path>
                <path d="M1,306 L47.5,306" id="Line-Copy"></path>
                <path d="M0,179 L107.5,179" id="Paragraph-3"></path>
            </g>
            <g id="Column-2" transform="translate(412.000000, 167.000000)" stroke="#999999" stroke-width="5" stroke-linecap="square">
                <path d="M0.5,1.5 L160.5,1.5" id="Line"></path>
                <path d="M0.5,11.5 L33.5,11.5" id="Line"></path>
                <path d="M0.5,30.5 L167.5,30.5" id="Line"></path>
                <path d="M0.5,40.5 L130.5,40.5" id="Line"></path>
                <path d="M0.5,50.5 L153.5,50.5" id="Line"></path>
                <path d="M0.5,69.5 L138.5,69.5" id="Line"></path>
                <path d="M0.5,79.5 L160.5,79.5" id="Line"></path>
                <path d="M0.5,89.5 L145.5,89.5" id="Line"></path>
                <path d="M0.5,99.5 L145.5,99.5" id="Line"></path>
                <path d="M0.5,109.5 L138.5,109.5" id="Line"></path>
                <path d="M0.5,128.5 L145.5,128.5" id="Line"></path>
                <path d="M0.5,138.5 L167.5,138.5" id="Line"></path>
                <path d="M0.5,148.5 L155.5,148.5" id="Line"></path>
                <path d="M0.5,158.5 L167.5,158.5" id="Line"></path>
                <path d="M0.5,168.5 L145.5,168.5" id="Line"></path>
                <path d="M0.5,178.5 L167.5,178.5" id="Line"></path>
                <path d="M0.5,188.5 L167.5,188.5" id="Line"></path>
                <path d="M0.5,198.5 L145.5,198.5" id="Line"></path>
                <path d="M0.5,208.5 L152.5,208.5" id="Line"></path>
                <path d="M0.5,218.5 L137.5,218.5" id="Line"></path>
                <path d="M0.5,228.5 L160.5,228.5" id="Line"></path>
                <path d="M0.5,238.5 L160.5,238.5" id="Line"></path>
                <path d="M0.5,248.5 L100.5,248.5" id="Line"></path>
                <path d="M0.5,267.5 L160.5,267.5" id="Line"></path>
                <path d="M0.5,277.5 L130.5,277.5" id="Line"></path>
                <path d="M0.5,287.5 L153.5,287.5" id="Line"></path>
                <path d="M0.5,297.5 L160.5,297.5" id="Line"></path>
                <path d="M0.5,307.5 L145.5,307.5" id="Line"></path>
                <path d="M0.5,317.5 L145.5,317.5" id="Line"></path>
                <path d="M0.5,327.5 L152.5,327.5" id="Line"></path>
                <path d="M0.5,337.5 L167.5,337.5" id="Line"></path>
                <path d="M0.5,347.5 L160.5,347.5" id="Line"></path>
                <path d="M0.5,357.5 L160.5,357.5" id="Line"></path>
                <path d="M0.5,367.5 L160.5,367.5" id="Line"></path>
                <path d="M0.5,377.5 L167.5,377.5" id="Line"></path>
                <path d="M0.5,387.5 L145.5,387.5" id="Line"></path>
                <path d="M0.5,397.5 L153.5,397.5" id="Line"></path>
                <path d="M0.5,407.5 L33.5,407.5" id="Line"></path>
            </g>
            <g id="Side-Meta" transform="translate(42.000000, 233.000000)" stroke-width="5" stroke-linecap="square">
                <path d="M0.5,1.5 L18.5,1.5" id="Line" stroke="#666666"></path>
                <path d="M0.5,13.5 L85.5,13.5" id="Line" stroke="#999999"></path>
                <path d="M0.5,49.5 L77.5,49.5" id="Line" stroke="#999999"></path>
                <path d="M0.5,61.5 L55.5,61.5" id="Line" stroke="#999999"></path>
                <path d="M0.5,97.5 L62.5,97.5" id="Line" stroke="#999999"></path>
                <path d="M0.5,109.5 L63.5,109.5" id="Line" stroke="#999999"></path>
                <path d="M0.5,121.5 L55.5,121.5" id="Line" stroke="#999999"></path>
                <path d="M0.5,169.5 L100.5,169.5" id="Line" stroke="#999999"></path>
                <path d="M0.5,205.5 L55.5,205.5" id="Line" stroke="#999999"></path>
                <path d="M0.5,241.5 L47.5,241.5" id="Line" stroke="#999999"></path>
                <path d="M0.5,37.5 L85.5,37.5" id="Line" stroke="#666666"></path>
                <path d="M0.5,85.5 L62.5,85.5" id="Line" stroke="#666666"></path>
                <path d="M0.5,145.5 L70.5,145.5" id="Line" stroke="#666666"></path>
                <path d="M0.5,157.5 L40.5,157.5" id="Line" stroke="#666666"></path>
                <path d="M0.5,193.5 L70.5,193.5" id="Line" stroke="#666666"></path>
                <path d="M0.5,229.5 L77.5,229.5" id="Line" stroke="#666666"></path>
            </g>
        </g>
    </g>
</svg>