<?xml version="1.0" encoding="UTF-8" standalone="no"?>
<!-- Created with Inkscape (http://www.inkscape.org/) -->

<svg
   xmlns:dc="http://purl.org/dc/elements/1.1/"
   xmlns:cc="http://creativecommons.org/ns#"
   xmlns:rdf="http://www.w3.org/1999/02/22-rdf-syntax-ns#"
   xmlns:svg="http://www.w3.org/2000/svg"
   xmlns="http://www.w3.org/2000/svg"
   xmlns:sodipodi="http://sodipodi.sourceforge.net/DTD/sodipodi-0.dtd"
   xmlns:inkscape="http://www.inkscape.org/namespaces/inkscape"
   width="340.70572mm"
   height="82.870941mm"
   viewBox="0 0 1207.225 293.63719"
   id="svg2"
   version="1.1"
   inkscape:version="0.91 r13725"
   sodipodi:docname="medic-logo.svg">
  <defs
     id="defs4" />
  <sodipodi:namedview
     id="base"
     pagecolor="#ffffff"
     bordercolor="#666666"
     borderopacity="1.0"
     inkscape:pageopacity="0.0"
     inkscape:pageshadow="2"
     inkscape:zoom="0.64"
     inkscape:cx="541.88531"
     inkscape:cy="-57.685565"
     inkscape:document-units="px"
     inkscape:current-layer="layer1"
     showgrid="false"
     fit-margin-top="0"
     fit-margin-left="0"
     fit-margin-right="0"
     fit-margin-bottom="0"
     inkscape:window-width="1440"
     inkscape:window-height="851"
     inkscape:window-x="0"
     inkscape:window-y="1"
     inkscape:window-maximized="1" />
  <metadata
     id="metadata7">
    <rdf:RDF>
      <cc:Work
         rdf:about="">
        <dc:format>image/svg+xml</dc:format>
        <dc:type
           rdf:resource="http://purl.org/dc/dcmitype/StillImage" />
        <dc:title></dc:title>
      </cc:Work>
    </rdf:RDF>
  </metadata>
  <g
     inkscape:label="Layer 1"
     inkscape:groupmode="layer"
     id="layer1"
     style="display:inline"
     transform="translate(265.17525,-194.8125)">
    <g
       id="g3967"
       transform="matrix(1.25,0,0,1.25,-275.61275,-117.24912)">
      <path
         style="fill:#0365c0"
         d="m 662.52539,194.8125 c -13.475,0.15 -26.93906,3.8e-4 -40.41406,0.0879 -0.0375,29.025 0.13902,58.06289 -0.0859,87.08789 -5,-5.70001 -10.8375,-10.97578 -18.1875,-13.36328 -14.65,-4.7875 -31.25078,-5.96289 -45.67578,0.22461 -10.2625,4.8625 -19.38828,12.4375 -25.42578,22.125 -10.5375,15.8625 -14.38672,35.63828 -11.94922,54.42578 1.7125,15.0875 8.71328,29.48711 19.42578,40.22461 12.9625,12.3 31.475,17.86211 49.125,16.28711 14.1875,-1.5 27.46172,-9.19884 36.01172,-20.61133 0.0125,5.89999 -7.6e-4,11.79922 0.0117,17.69922 12.4375,-0.0375 24.875,0.075 37.3125,-0.0625 -0.175,-68.0375 0.13906,-136.0875 -0.14844,-204.125 z m -69.3125,104.86328 c 10.31771,0 19.82751,4.44434 25.67188,11.86133 4.65508,5.90769 6.7539,13.79437 6.7539,22.1543 0,8.81992 -2.96084,17.0989 -8.00976,22.875 -5.74493,6.57232 -14.19307,10.05273 -24.0586,10.05273 -10.15655,0 -19.4047,-3.51763 -25.34765,-10.37109 -4.903,-5.65422 -7.43555,-13.78083 -7.43555,-22.30469 0,-8.89439 2.08,-17.14826 7.29101,-23.25391 5.83608,-6.83803 15.34243,-11.01367 25.13477,-11.01367 z"
         transform="matrix(0.8,0,0,0.8,220.4902,93.799296)"
         id="path3689"
         inkscape:connector-curvature="0" />
      <path
         id="path3691"
         d="m 120.1,262.14 c 13.95,-16.32 41.61,-15.08 56.13,-0.16 -5.4,0.01 -10.8,0.12 -16.2,-0.11 -8.03,-3.35 -17.44,-3.45 -25.38,0.22 -3.04,1.34 -5.61,3.54 -7.8,6.01 -0.71,0.96 -1.36,1.95 -2,2.96 l -0.54,0.86 c -0.75,1.45 -1.42,2.95 -2.11,4.44 44.37,0.07 88.75,-0.19 133.12,0.12 -44.38,0.38 -88.76,0.05 -133.14,0.17 l -0.26,1.15 c -0.36,1.39 -0.74,2.78 -1.05,4.2 -0.22,1.42 -0.41,2.85 -0.57,4.29 41.56,0.04 83.12,-0.01 124.68,0.01 3.63,-0.01 7.27,-0.09 10.9,0.18 l -0.51,0.04 c -45.04,0.45 -90.1,0.02 -135.15,0.22 -0.05,1.34 -0.09,2.68 -0.13,4.02 l -0.04,1.17 c -0.02,0.88 -0.06,2.64 -0.08,3.52 45.12,-0.15 90.25,-0.18 135.38,0.02 -45.07,0.47 -90.15,-0.05 -135.22,0.25 -0.02,1.29 -0.04,2.59 -0.02,3.89 0.03,2.09 0.1,4.19 0.18,6.29 l 0.05,1.2 c 0.08,1.88 0.15,3.76 0.21,5.65 0.02,0.61 0.05,1.83 0.06,2.43 0.01,0.46 0.02,1.38 0.03,1.83 0,0.75 -0.01,2.25 -0.01,2.99 -0.01,0.48 -0.03,1.44 -0.04,1.92 -0.08,2.8 -0.3,5.59 -0.5,8.39 43.76,0.18 87.52,-0.17 131.26,0.18 -18.44,0.34 -36.89,0.09 -55.34,0.14 -25.39,-0.04 -50.78,0.11 -76.16,-0.06 -0.12,0.93 -0.36,2.78 -0.48,3.7 42.22,-0.01 84.43,0.03 126.65,0 1.85,0 3.71,0.06 5.57,0.18 -3.52,0.36 -7.05,0.3 -10.58,0.27 -40.58,0.01 -81.16,-0.01 -121.74,-0.01 -0.5,2.55 -1.03,5.09 -1.73,7.59 -0.57,1.99 -1.2,3.96 -1.86,5.93 -0.13,0.33 -0.37,1 -0.49,1.33 -0.78,2 -1.61,3.99 -2.5,5.95 -0.29,0.62 -0.88,1.86 -1.17,2.49 -0.24,0.47 -0.71,1.41 -0.94,1.88 -1.48,2.99 -3.25,5.8 -5.19,8.51 47.87,-0.09 95.73,0.01 143.59,-0.05 3.35,-0.09 6.7,0.15 10.03,0.48 1.71,-0.51 3.27,-1.37 4.73,-2.37 3.8,-3.36 6.15,-8.28 6.04,-13.38 0.14,-9.54 -6.34,-18.36 -15.02,-21.97 -0.24,-0.13 -0.71,-0.4 -0.95,-0.53 -0.35,-3.41 -0.31,-6.86 0.33,-10.24 14.5,3.73 25.83,17.55 25.67,32.66 0.24,10.57 -6.28,20.85 -16.06,24.96 -1.52,0.68 -3.08,1.31 -4.65,1.88 -3.78,1.22 -7.49,2.62 -11.23,3.96 -2.6,0.84 -5.12,1.92 -7.54,3.17 -3.24,1.62 -6.09,3.92 -8.69,6.42 -0.61,0.57 -1.2,1.16 -1.78,1.78 -1.92,2.08 -3.63,4.35 -5.18,6.71 -0.83,1.27 -1.64,2.55 -2.45,3.84 14.84,-0.01 29.67,0.1 44.51,-0.05 -0.01,0.14 -0.02,0.44 -0.02,0.59 -14.9,-0.13 -29.79,-0.03 -44.69,-0.05 -0.88,1.66 -1.76,3.32 -2.63,5 15.65,0.29 31.31,-0.12 46.96,0.26 -15.73,0.55 -31.49,0.1 -47.23,0.18 -0.69,1.56 -1.38,3.12 -2.07,4.69 16.59,0.07 33.18,0.04 49.78,-0.02 l 0.08,0.34 c -16.65,-0.03 -33.31,0.09 -49.96,-0.02 -0.8,1.84 -1.59,3.68 -2.38,5.53 17.36,0.42 34.73,-0.18 52.08,0.31 l 0.52,0.04 c -17.48,0.34 -35,0.32 -52.49,0 -0.68,1.58 -1.34,3.18 -2.02,4.77 17.94,0.23 35.89,-0.22 53.83,0.22 l 0.54,0.04 c -18.11,0.26 -36.22,0.11 -54.33,0.08 -1.04,3.47 -1.99,6.97 -3.04,10.45 l -0.31,0.92 c 1.93,1.27 3.86,2.56 5.65,4.05 0.5,0.46 0.98,0.93 1.46,1.43 1.18,1.44 2.3,2.94 3.27,4.54 0.16,0.34 0.49,1.02 0.66,1.36 0.56,1.31 1.11,2.62 1.65,3.95 14.83,0.01 29.68,-0.19 44.5,0.1 l 0.66,0.05 c -15,0.55 -30.03,0.06 -45.04,0.25 0.2,1.56 0.4,3.12 0.61,4.69 14.58,-0.09 29.17,-0.23 43.75,0.08 l 0.64,0.05 c -14.75,0.36 -29.5,-0.08 -44.25,0.21 -0.16,1.74 -0.3,3.5 -0.52,5.25 -0.4,1.78 -0.96,3.52 -1.61,5.23 -3.77,8.8 -13.19,14.8 -22.79,14.3 -9.04,-0.21 -17.47,-6.12 -21.08,-14.35 -0.6,-1.71 -1.14,-3.43 -1.55,-5.18 -0.22,-1.61 -0.38,-3.23 -0.46,-4.84 l 0.14,-1.12 c 0.2,-1.47 0.4,-2.92 0.61,-4.37 -28.13,0.12 -56.27,0.11 -84.4,-0.02 -0.88,1.46 -1.77,2.92 -2.7,4.36 -0.22,0.29 -0.66,0.87 -0.88,1.16 -1.26,1.64 -2.54,3.27 -3.85,4.89 -1.43,1.75 -2.91,3.46 -4.44,5.14 -4.17,4.28 -8.68,8.2 -13.41,11.86 -9.5,-3.66 -19.03,-7.25 -28.54,-10.89 1.41,-3.71 2.85,-7.4 4.17,-11.14 3.27,1.06 6.46,2.34 9.66,3.58 4.21,1.59 8.41,3.21 12.64,4.74 1.12,-1.02 2.25,-2.03 3.35,-3.06 3.33,-3.25 6.4,-6.75 9.28,-10.39 -6.31,-0.44 -12.64,0.14 -18.95,-0.42 6.46,-0.33 12.93,-0.2 19.39,-0.03 1.04,-1.53 2.07,-3.05 3.1,-4.58 -7.45,-0.44 -14.93,0.23 -22.36,-0.46 7.53,-0.22 15.07,-0.21 22.6,0.08 1.17,-1.86 2.3,-3.73 3.41,-5.62 -8.73,-0.45 -17.47,0.05 -26.2,-0.31 8.8,-0.53 17.64,-0.27 26.45,-0.1 0.75,-1.54 1.49,-3.08 2.24,-4.61 -9.52,-0.39 -19.07,0.26 -28.58,-0.38 9.56,-0.34 19.13,-0.24 28.69,-0.04 0.79,-1.68 1.54,-3.38 2.33,-5.05 -10,-1.52 -20.14,-0.19 -30.2,-0.81 10.17,-0.56 20.39,-0.36 30.57,-0.03 0.35,-1.56 0.7,-3.12 1.04,-4.67 -10.97,-0.39 -21.95,-0.11 -32.93,-0.19 l 0,-0.31 c 11.07,0.07 22.15,-0.3 33.21,0.24 0.44,-1.62 0.87,-3.23 1.3,-4.84 -11.51,-0.13 -23.01,-0.01 -34.51,-0.08 l 0,-0.38 c 11.57,-0.01 23.15,-0.06 34.72,0.04 0.27,-1.89 0.55,-3.77 0.81,-5.65 -11.85,-0.14 -23.7,0.02 -35.55,-0.06 l 0,-0.29 c 11.92,0.05 23.84,-0.1 35.76,0.06 0.15,-1.56 0.29,-3.11 0.43,-4.66 -11.92,-0.22 -23.84,0.21 -35.75,-0.22 11.93,-0.46 23.88,-0.14 35.82,-0.17 0.08,-1.72 0.15,-3.44 0.23,-5.16 -11.77,0.25 -23.59,-0.57 -35.32,0.46 0.17,-0.38 0.37,-0.75 0.58,-1.1 11.58,0.36 23.18,0.09 34.76,0.15 -0.04,-0.98 -0.12,-2.94 -0.16,-3.93 -0.13,-2.26 -0.35,-4.52 -0.64,-6.76 -0.07,-0.45 -0.21,-1.34 -0.27,-1.78 -0.39,-2.13 -0.82,-4.24 -1.36,-6.32 -0.32,-1.2 -0.65,-2.4 -0.99,-3.58 -6.06,-0.05 -12.12,0.09 -18.17,-0.07 -0.25,-0.01 -0.74,-0.04 -0.99,-0.05 0.36,-0.07 1.08,-0.2 1.44,-0.27 5.87,-0.18 11.74,-0.02 17.62,-0.09 -0.6,-1.51 -1.19,-3.03 -1.79,-4.53 -5.71,0.17 -11.49,0.43 -17.02,2.02 -23.99,6.48 -43.64,25.51 -52.69,48.42 4.68,6 9.25,12.11 13.71,18.29 -2.38,1.79 -4.76,3.58 -7.18,5.33 C 19.56,444.91 13.99,437.43 8.35,430 18.37,401.35 42.7,377.04 72.88,370.77 c -0.17,-0.55 -0.51,-1.65 -0.68,-2.2 7.26,0.28 14.53,0.05 21.8,0.12 0.97,-1.29 1.94,-2.57 2.91,-3.85 -8.23,-0.44 -16.47,0.1 -24.7,-0.34 l -0.37,-0.02 c 8.42,-0.26 16.85,-0.25 25.27,0.04 1.46,-2.15 2.86,-4.33 4.17,-6.58 0.33,-0.59 1,-1.77 1.33,-2.36 1.05,-1.96 1.95,-3.99 2.82,-6.02 0.12,-0.3 0.37,-0.91 0.49,-1.21 0.78,-1.94 1.54,-3.88 2.14,-5.88 0.34,-1.24 0.66,-2.49 0.97,-3.73 -10.88,-0.05 -21.77,-0.28 -32.65,0.15 -0.07,-0.07 -0.22,-0.23 -0.3,-0.3 11.03,-0.46 22.07,-0.22 33.1,-0.15 0.28,-1.26 0.56,-2.51 0.85,-3.76 l 0.07,-0.31 c 0.2,-0.99 0.6,-2.96 0.8,-3.95 -11.83,0.43 -23.68,0.2 -35.52,0.17 l 0,-0.25 c 11.8,-0.1 23.6,0.31 35.39,-0.26 0.2,-1.49 0.41,-2.97 0.62,-4.44 -12.01,0.12 -24.03,0.03 -36.04,0.05 l 0,-0.34 c 12,-0.09 24.01,0.06 36.01,-0.08 0.11,-2.76 0.23,-5.51 0.27,-8.26 0.01,-1.5 -0.01,-2.99 -0.04,-4.47 -0.07,-1.85 -0.18,-3.69 -0.25,-5.53 l -0.04,-1.04 c -0.08,-2.06 -0.15,-4.11 -0.24,-6.16 -0.06,-1.38 -0.14,-2.75 -0.22,-4.12 -13.82,-0.04 -27.64,-0.22 -41.45,0.16 -0.08,-0.08 -0.23,-0.24 -0.31,-0.32 13.97,-0.31 27.95,-0.23 41.92,-0.11 0,-0.94 0,-2.84 0,-3.79 -14.19,0.1 -28.38,0.02 -42.58,0.01 l -0.02,-0.33 c 14.13,-0.01 28.27,0.05 42.41,0 0.16,-1.39 0.32,-2.78 0.48,-4.17 0.24,-2.05 0.5,-4.1 0.76,-6.15 0.19,-1.44 0.38,-2.87 0.58,-4.3 -14.75,-0.08 -29.51,-0.05 -44.26,-0.02 l 0.03,-0.35 c 14.82,0.12 29.65,-0.08 44.47,0.11 0.44,-1.42 0.87,-2.84 1.35,-4.24 l 0.43,-0.99 c 0.45,-1.05 0.93,-2.1 1.44,-3.11 1.15,-2.1 2.5,-4.09 4.01,-5.95 z"
         inkscape:connector-curvature="0"
         style="fill:#53585f" />
      <path
         id="path3693"
         d="m 863.54,274.56 c 15.38,-12.76 35.67,-18.45 55.45,-18.33 19.16,0.05 39.34,7.04 51.46,22.51 -8.74,6.93 -17.23,14.18 -26.01,21.07 -6.71,-7.98 -16.98,-12.51 -27.38,-12.47 -12.82,-0.67 -25.52,5.17 -33.79,14.88 -14.7,17.6 -15.86,44.82 -3.51,63.98 6.46,10.1 17.25,17.67 29.26,19.19 9.15,1.14 18.89,-0.42 26.63,-5.63 4.17,-2.68 7.55,-6.39 10.45,-10.37 9.35,6.96 18.68,13.95 28.03,20.91 -10.88,15.65 -29.42,24.46 -48.08,26.18 -15.83,1.28 -32.1,-1.17 -46.54,-7.91 -13.48,-6.24 -25.08,-16.6 -32.42,-29.55 -9.79,-16.8 -12.33,-37.04 -9.76,-56.11 2.46,-18.56 11.6,-36.45 26.21,-48.35 z"
         inkscape:connector-curvature="0"
         style="fill:#0365c0" />
      <path
         id="path3695"
         d="m 134.65,262.09 c 7.94,-3.67 17.35,-3.57 25.38,-0.22 -8.45,0.54 -16.92,0.18 -25.38,0.22 z"
         inkscape:connector-curvature="0"
         style="fill:#ffffff" />
      <path
         id="path3697"
         d="m 304.56,260.06 c 16.53,0.02 33.06,-0.02 49.58,0.02 1.6,-0.51 1.8,1.3 2.25,2.3 11.48,32.63 22.88,65.29 34.58,97.85 11.94,-33.31 23.79,-66.67 35.49,-100.06 16.96,-0.23 33.93,-0.04 50.89,-0.1 0.01,50.97 0.01,101.95 0,152.93 -11.23,0 -22.46,0 -33.69,0 -0.05,-39.19 0.08,-78.37 -0.07,-117.56 -4.51,11.34 -8,23.07 -12.11,34.57 -9.48,27.66 -18.95,55.32 -28.43,82.99 -8.59,-0.03 -17.19,0.06 -25.78,-0.05 -11.42,-34.99 -23.03,-69.91 -34.52,-104.88 -1.49,-4.15 -2.48,-8.5 -4.41,-12.48 -0.2,39.13 -0.03,78.27 -0.09,117.41 -11.23,0 -22.46,0 -33.7,0 0,-50.98 -0.01,-101.96 0.01,-152.94 z"
         inkscape:connector-curvature="0"
         style="fill:#0365c0" />
      <path
         id="path3699"
         d="m 509.75,260.07 c 34.64,0.02 69.28,-0.05 103.92,0.04 -0.03,10.32 -0.07,20.64 0.02,30.97 -23.41,0.25 -46.84,0.01 -70.26,0.12 0.03,9.49 0.01,18.98 0.01,28.48 22.11,0.03 44.22,-0.03 66.33,0.03 -0.02,10.36 -0.01,20.72 -0.01,31.08 -22.07,-0.03 -44.13,0.08 -66.2,-0.06 -0.29,10.37 -0.01,20.75 -0.14,31.12 24.71,0.17 49.44,-0.12 74.15,0.15 -0.06,10.31 -0.07,20.62 0.01,30.93 -35.94,0.15 -71.89,0.03 -107.83,0.07 -0.01,-50.98 0,-101.96 0,-152.93 z"
         inkscape:connector-curvature="0"
         style="fill:#0365c0" />
      <path
         id="path3701"
         d="m 780.18,260.08 c 11.23,-0.02 22.47,-0.02 33.7,-0.01 0.01,50.97 -0.01,101.95 0.01,152.92 -11.24,0.02 -22.48,0.01 -33.72,0 0.02,-50.97 0.01,-101.94 0.01,-152.91 z"
         inkscape:connector-curvature="0"
         style="fill:#0365c0" />
      <path
         id="path3703"
         d="m 64.82,265.83 c 1.68,-2.73 5.04,-3.9 8.12,-3.82 15.72,0.01 31.44,-0.06 47.16,0.13 -1.51,1.86 -2.86,3.85 -4.01,5.95 -12.67,-0.14 -25.34,-0.03 -38.02,-0.09 -2.83,-0.15 -5.6,0.73 -7.79,2.54 -0.41,0.55 -0.79,1.1 -1.15,1.68 -0.3,1.36 -0.54,2.72 -0.73,4.1 l -0.03,0.35 c -0.03,1.45 -0.04,2.91 -0.03,4.36 l 0.01,0.94 c 0,1.38 0,2.77 -0.01,4.16 l 0,0.89 c -0.01,1.43 0.01,2.86 0.06,4.29 l 0.02,0.33 c 0.17,0.97 0.5,2.92 0.66,3.89 0.08,0.08 0.23,0.24 0.31,0.32 1.91,2.23 4.52,4.01 7.57,3.91 11.36,0.13 22.74,-0.03 34.1,0.05 0.09,2.05 0.16,4.1 0.24,6.16 -13.11,0.02 -26.22,0.07 -39.32,-0.01 -4.11,0.02 -8.16,-3.13 -8.33,-7.41 -0.42,-7.84 -0.04,-15.71 -0.19,-23.56 0.1,-3.07 -0.28,-6.41 1.36,-9.16 z"
         inkscape:connector-curvature="0"
         style="fill:#51a7f9" />
      <path
         id="path3705"
         d="m 126.85,268.1 c 2.19,-2.47 4.76,-4.67 7.8,-6.01 8.46,-0.04 16.93,0.32 25.38,-0.22 5.4,0.23 10.8,0.12 16.2,0.11 29.52,0.16 59.05,-0.23 88.56,0.2 -0.03,2.06 -0.06,4.13 -0.1,6.2 -2.2,-0.06 -4.4,-0.16 -6.6,-0.25 -43.74,0 -87.49,0.05 -131.24,-0.03 z"
         inkscape:connector-curvature="0"
         style="fill:#51a7f9" />
      <path
         id="path3707"
         d="m 70.28,270.54 c 2.19,-1.81 4.96,-2.69 7.79,-2.54 12.68,0.06 25.35,-0.05 38.02,0.09 -0.51,1.01 -0.99,2.06 -1.44,3.11 -14.78,-0.74 -29.62,0.51 -44.37,-0.66 z"
         inkscape:connector-curvature="0"
         style="fill:#e9ebee" />
      <path
         id="path3709"
         d="m 126.85,268.1 c 43.75,0.08 87.5,0.03 131.24,0.03 -1.09,0.89 -2.11,1.87 -3.04,2.92 -43.4,-0.08 -86.8,-0.1 -130.2,0.01 0.64,-1.01 1.29,-2 2,-2.96 z"
         inkscape:connector-curvature="0"
         style="fill:#e9ebee" />
      <path
         id="path3711"
         d="m 69.13,272.22 c 0.36,-0.58 0.74,-1.13 1.15,-1.68 14.75,1.17 29.59,-0.08 44.37,0.66 l -0.43,0.99 c -15.03,0.24 -30.06,0.14 -45.09,0.03 z"
         inkscape:connector-curvature="0"
         style="fill:#b3b9ba" />
      <path
         id="path3713"
         d="m 124.85,271.06 c 43.4,-0.11 86.8,-0.09 130.2,-0.01 l 0.84,1.1 c -36.28,0.38 -72.58,0.06 -108.87,0.16 -7.57,-0.14 -15.16,0.37 -22.71,-0.39 l 0.54,-0.86 z"
         inkscape:connector-curvature="0"
         style="fill:#b5b9b8" />
      <path
         id="path3715"
         d="m 69.13,272.22 c 15.03,0.11 30.06,0.21 45.09,-0.03 -0.48,1.4 -0.91,2.82 -1.35,4.24 -14.82,-0.19 -29.65,0.01 -44.47,-0.11 0.19,-1.38 0.43,-2.74 0.73,-4.1 z"
         inkscape:connector-curvature="0"
         style="fill:#e9ebee" />
      <path
         id="path3717"
         d="m 122.2,276.36 c 0.69,-1.49 1.36,-2.99 2.11,-4.44 7.55,0.76 15.14,0.25 22.71,0.39 36.29,-0.1 72.59,0.22 108.87,-0.16 -0.23,2.94 -0.23,5.9 -0.23,8.86 -44.77,-0.05 -89.53,-0.02 -134.3,-0.01 0.14,-0.8 0.42,-2.4 0.56,-3.2 l 0.26,-1.15 c 44.38,-0.12 88.76,0.21 133.14,-0.17 -44.37,-0.31 -88.75,-0.05 -133.12,-0.12 z"
         inkscape:connector-curvature="0"
         style="fill:#e9ebee" />
      <path
         id="path3719"
         d="m 68.37,276.67 c 14.75,-0.03 29.51,-0.06 44.26,0.02 -0.2,1.43 -0.39,2.86 -0.58,4.3 -14.57,0.01 -29.14,-0.07 -43.71,0.04 -0.01,-1.45 0,-2.91 0.03,-4.36 z"
         inkscape:connector-curvature="0"
         style="fill:#e9ebee" />
      <path
         id="path3721"
         d="m 120.87,282 c 0.31,-1.42 0.69,-2.81 1.05,-4.2 -0.14,0.8 -0.42,2.4 -0.56,3.2 44.77,-0.01 89.53,-0.04 134.3,0.01 l -0.02,0.99 c -44.92,0 -89.84,0 -134.77,0 z"
         inkscape:connector-curvature="0"
         style="fill:#a6aaa9" />
      <path
         id="path3723"
         d="m 68.34,281.03 c 14.57,-0.11 29.14,-0.03 43.71,-0.04 -0.26,2.05 -0.52,4.1 -0.76,6.15 -14.32,-0.09 -28.64,0.13 -42.95,-0.12 l 0,-0.89 c 14.25,-0.14 28.5,0.04 42.75,-0.09 0.13,-1.35 0.25,-2.7 0.38,-4.04 -14.37,-0.02 -28.75,0.05 -43.12,-0.03 l -0.01,-0.94 z"
         inkscape:connector-curvature="0"
         style="fill:#a9acac" />
      <path
         id="path3725"
         d="m 68.35,281.97 c 14.37,0.08 28.75,0.01 43.12,0.03 -0.13,1.34 -0.25,2.69 -0.38,4.04 -14.25,0.13 -28.5,-0.05 -42.75,0.09 0.01,-1.39 0.01,-2.78 0.01,-4.16 z"
         inkscape:connector-curvature="0"
         style="fill:#e9ebee" />
      <path
         id="path3727"
         d="m 120.87,282 c 44.93,0 89.85,0 134.77,0 0.08,1.49 0.16,2.98 0.24,4.48 -3.63,-0.27 -7.27,-0.19 -10.9,-0.18 -41.56,-0.02 -83.12,0.03 -124.68,-0.01 0.16,-1.44 0.35,-2.87 0.57,-4.29 z"
         inkscape:connector-curvature="0"
         style="fill:#e9ebee" />
      <path
         id="path3729"
         d="m 68.34,287.02 c 14.31,0.25 28.63,0.03 42.95,0.12 -0.16,1.39 -0.32,2.78 -0.48,4.17 -14.14,0.05 -28.28,-0.01 -42.41,0 -0.05,-1.43 -0.07,-2.86 -0.06,-4.29 z"
         inkscape:connector-curvature="0"
         style="fill:#e9ebee" />
      <path
         id="path3731"
         d="m 120.22,286.74 c 45.05,-0.2 90.11,0.23 135.15,-0.22 0.14,1.41 0.3,2.82 0.45,4.24 -45.24,-0.17 -90.49,-0.16 -135.73,0 0.04,-1.34 0.08,-2.68 0.13,-4.02 z"
         inkscape:connector-curvature="0"
         style="fill:#e9ebee" />
      <path
         id="path3733"
         d="m 120.09,290.76 c 45.24,-0.16 90.49,-0.17 135.73,0 l -0.14,1.2 c -45.21,0.04 -90.42,0.11 -135.63,-0.03 l 0.04,-1.17 z"
         inkscape:connector-curvature="0"
         style="fill:#b6baba" />
      <path
         id="path3735"
         d="m 68.42,291.64 c 14.2,0.01 28.39,0.09 42.58,-0.01 0,0.95 0,2.85 0,3.79 -13.97,-0.12 -27.95,-0.2 -41.92,0.11 -0.16,-0.97 -0.49,-2.92 -0.66,-3.89 z"
         inkscape:connector-curvature="0"
         style="fill:#e9ebee" />
      <path
         id="path3737"
         d="m 120.05,291.93 c 45.21,0.14 90.42,0.07 135.63,0.03 0.08,2.58 0.12,5.16 0.13,7.74 -45.23,-0.3 -90.47,-0.13 -135.7,-0.09 -0.02,-1.3 0,-2.6 0.02,-3.89 45.07,-0.3 90.15,0.22 135.22,-0.25 -45.13,-0.2 -90.26,-0.17 -135.38,-0.02 0.02,-0.88 0.06,-2.64 0.08,-3.52 z"
         inkscape:connector-curvature="0"
         style="fill:#e9ebee" />
      <path
         id="path3739"
         d="m 69.39,295.85 c 13.81,-0.38 27.63,-0.2 41.45,-0.16 0.08,1.37 0.16,2.74 0.22,4.12 -11.36,-0.08 -22.74,0.08 -34.1,-0.05 -3.05,0.1 -5.66,-1.68 -7.57,-3.91 z"
         inkscape:connector-curvature="0"
         style="fill:#e9ebee" />
      <path
         id="path3741"
         d="m 120.11,299.61 c 45.23,-0.04 90.47,-0.21 135.7,0.09 3,0.03 5.99,0.04 8.99,0.14 -0.02,2.01 -0.04,4.02 -0.05,6.03 -48.15,0.06 -96.3,0 -144.46,0.03 -0.08,-2.1 -0.15,-4.2 -0.18,-6.29 z"
         inkscape:connector-curvature="0"
         style="fill:#51a7f9" />
      <path
         id="path3743"
         d="m 70.98,313.94 c 0.14,-4.05 4.06,-6.99 7.93,-6.91 10.81,-0.07 21.62,0 32.43,-0.02 0.07,1.84 0.18,3.68 0.25,5.53 -9.19,-0.07 -18.38,-0.1 -27.57,-0.03 -3.33,-0.14 -6.55,1.48 -8.17,4.43 -0.37,2.79 -0.49,5.6 -0.5,8.41 l 0,0.34 c 0.01,1.55 0.02,3.1 0.03,4.65 l 0,0.25 c 0.01,0.94 0.01,2.82 0.02,3.76 11.56,-0.07 23.13,-0.03 34.7,0.02 l -0.07,0.31 c -11.6,-0.05 -23.19,0.01 -34.78,-0.09 0.2,1 0.62,3 0.83,4 0.08,0.07 0.23,0.23 0.3,0.3 1.71,1.9 3.92,3.52 6.59,3.51 8.36,0.23 16.73,0.01 25.09,0.07 -0.6,2 -1.36,3.94 -2.14,5.88 -8.63,0.13 -17.27,0.06 -25.91,0.06 -3.62,0.14 -7.76,-1.7 -8.74,-5.47 -0.8,-3.91 -0.36,-7.93 -0.46,-11.88 0.1,-5.71 -0.23,-11.43 0.17,-17.12 z"
         inkscape:connector-curvature="0"
         style="fill:#002452" />
      <path
         id="path3745"
         d="m 120.55,312.75 c -0.06,-1.89 -0.13,-3.77 -0.21,-5.65 46.57,0.02 93.13,0 139.7,0.01 0,1.93 0,3.86 0,5.79 -2.02,-0.01 -4.05,-0.03 -6.07,-0.08 -44.47,-0.17 -88.95,-0.04 -133.42,-0.07 z"
         inkscape:connector-curvature="0"
         style="fill:#002452" />
      <path
         id="path3747"
         d="m 75.85,316.94 c 1.62,-2.95 4.84,-4.57 8.17,-4.43 9.19,-0.07 18.38,-0.04 27.57,0.03 0.03,1.48 0.05,2.97 0.04,4.47 -11.92,0.25 -23.86,0.36 -35.78,-0.07 z"
         inkscape:connector-curvature="0"
         style="fill:#cfd2d3" />
      <path
         id="path3749"
         d="m 120.55,312.75 c 44.47,0.03 88.95,-0.1 133.42,0.07 0.22,2.49 0.61,5.02 0.17,7.51 -0.64,3.38 -0.68,6.83 -0.33,10.24 0.24,0.13 0.71,0.4 0.95,0.53 -0.46,3.74 -0.69,7.51 -0.78,11.29 -45.48,-0.24 -90.96,-0.07 -136.44,-0.09 0.7,-2.5 1.23,-5.04 1.73,-7.59 40.58,0 81.16,0.02 121.74,0.01 3.53,0.03 7.06,0.09 10.58,-0.27 -1.86,-0.12 -3.72,-0.18 -5.57,-0.18 -42.22,0.03 -84.43,-0.01 -126.65,0 0.12,-0.92 0.36,-2.77 0.48,-3.7 25.38,0.17 50.77,0.02 76.16,0.06 18.45,-0.05 36.9,0.2 55.34,-0.14 -43.74,-0.35 -87.5,0 -131.26,-0.18 0.2,-2.8 0.42,-5.59 0.5,-8.39 40.12,-0.07 80.24,0 120.36,-0.02 3.17,-0.05 6.38,0.27 9.54,-0.21 0.24,-0.4 0.72,-1.19 0.97,-1.59 -43.61,-0.3 -87.22,-0.15 -130.83,-0.1 0,-0.74 0.01,-2.24 0.01,-2.99 42.14,0.22 84.28,-0.03 126.42,0.13 1.81,0.04 3.62,-0.23 5.13,-1.32 -5.01,-0.98 -10.13,-0.52 -15.2,-0.57 -38.79,-0.08 -77.58,0.07 -116.38,-0.07 -0.01,-0.6 -0.04,-1.82 -0.06,-2.43 z"
         inkscape:connector-curvature="0"
         style="fill:#e9ebee" />
      <path
         id="path3751"
         d="m 120.61,315.18 c 38.8,0.14 77.59,-0.01 116.38,0.07 5.07,0.05 10.19,-0.41 15.2,0.57 -1.51,1.09 -3.32,1.36 -5.13,1.32 -42.14,-0.16 -84.28,0.09 -126.42,-0.13 -0.01,-0.45 -0.02,-1.37 -0.03,-1.83 z"
         inkscape:connector-curvature="0"
         style="fill:#c7cacb" />
      <path
         id="path3753"
         d="m 75.85,316.94 c 11.92,0.43 23.86,0.32 35.78,0.07 -0.04,2.75 -0.16,5.5 -0.27,8.26 -12,0.14 -24.01,-0.01 -36.01,0.08 0.01,-2.81 0.13,-5.62 0.5,-8.41 z"
         inkscape:connector-curvature="0"
         style="fill:#e9ebee" />
      <path
         id="path3755"
         d="m 120.63,320 c 43.61,-0.05 87.22,-0.2 130.83,0.1 -0.25,0.4 -0.73,1.19 -0.97,1.59 -3.16,0.48 -6.37,0.16 -9.54,0.21 -40.12,0.02 -80.24,-0.05 -120.36,0.02 0.01,-0.48 0.03,-1.44 0.04,-1.92 z"
         inkscape:connector-curvature="0"
         style="fill:#c7cacb" />
      <path
         id="path3757"
         d="m 75.35,325.69 c 12.01,-0.02 24.03,0.07 36.04,-0.05 -0.21,1.47 -0.42,2.95 -0.62,4.44 -11.79,0.57 -23.59,0.16 -35.39,0.26 -0.01,-1.55 -0.02,-3.1 -0.03,-4.65 z"
         inkscape:connector-curvature="0"
         style="fill:#e9ebee" />
      <path
         id="path3759"
         d="m 75.38,330.59 c 11.84,0.03 23.69,0.26 35.52,-0.17 -0.2,0.99 -0.6,2.96 -0.8,3.95 -11.57,-0.05 -23.14,-0.09 -34.7,-0.02 -0.01,-0.94 -0.01,-2.82 -0.02,-3.76 z"
         inkscape:connector-curvature="0"
         style="fill:#e9ebee" />
      <path
         id="path3761"
         d="m 253.98,342.39 c 0.09,-3.78 0.32,-7.55 0.78,-11.29 8.68,3.61 15.16,12.43 15.02,21.97 0.11,5.1 -2.24,10.02 -6.04,13.38 -0.08,-3.79 0.31,-7.65 -0.53,-11.38 -1.03,-3.94 -5.34,-5.88 -9.12,-5.82 -26.7,-0.19 -53.4,0.47 -80.11,0.26 -19.59,0.03 -39.19,-0.08 -58.79,0.05 0.12,-0.33 0.36,-1 0.49,-1.33 48.12,0.02 96.24,0 144.37,0 -0.01,-1.93 -0.02,-3.86 -0.02,-5.79 -2.02,-0.01 -4.04,-0.02 -6.05,-0.05 z"
         inkscape:connector-curvature="0"
         style="fill:#ffffff" />
      <path
         id="path3765"
         d="m 75.25,334.59 c 11.59,0.1 23.18,0.04 34.78,0.09 -0.29,1.25 -0.57,2.5 -0.85,3.76 -11.03,-0.07 -22.07,-0.31 -33.1,0.15 -0.21,-1 -0.63,-3 -0.83,-4 z"
         inkscape:connector-curvature="0"
         style="fill:#e9ebee" />
      <path
         id="path3767"
         d="m 76.38,338.89 c 10.88,-0.43 21.77,-0.2 32.65,-0.15 -0.31,1.24 -0.63,2.49 -0.97,3.73 -8.36,-0.06 -16.73,0.16 -25.09,-0.07 -2.67,0.01 -4.88,-1.61 -6.59,-3.51 z"
         inkscape:connector-curvature="0"
         style="fill:#e9ebee" />
      <path
         id="path3769"
         d="m 115.68,348.23 c 0.66,-1.97 1.29,-3.94 1.86,-5.93 45.48,0.02 90.96,-0.15 136.44,0.09 2.01,0.03 4.03,0.04 6.05,0.05 0,1.93 0.01,3.86 0.02,5.79 -48.13,0 -96.25,0.02 -144.37,0 z"
         inkscape:connector-curvature="0"
         style="fill:#002452" />
      <path
         id="path3771"
         d="m 173.98,349.51 c 26.71,0.21 53.41,-0.45 80.11,-0.26 3.78,-0.06 8.09,1.88 9.12,5.82 0.84,3.73 0.45,7.59 0.53,11.38 -1.46,1 -3.02,1.86 -4.73,2.37 -0.18,-2.96 -0.22,-5.94 -0.76,-8.87 -0.48,-0.78 -0.99,-1.54 -1.52,-2.27 -2.79,-2.17 -6.34,-2.68 -9.76,-2.46 -44.76,0.3 -89.52,0.32 -134.28,0.29 0.89,-1.96 1.72,-3.95 2.5,-5.95 19.6,-0.13 39.2,-0.02 58.79,-0.05 z"
         inkscape:connector-curvature="0"
         style="fill:#0365c0" />
      <path
         id="path3773"
         d="m 62.48,349.51 c 14.32,0.02 28.63,-0.07 42.95,0.05 -0.87,2.03 -1.77,4.06 -2.82,6.02 -13.4,-0.02 -26.8,-0.1 -40.2,0.04 0.03,-2.04 0.05,-4.07 0.07,-6.11 z"
         inkscape:connector-curvature="0"
         style="fill:#0365c0" />
      <path
         id="path3775"
         d="m 112.69,355.51 c 44.76,0.03 89.52,0.01 134.28,-0.29 3.42,-0.22 6.97,0.29 9.76,2.46 -4.88,0.66 -9.81,0.57 -14.72,0.5 -37.01,0 -74.02,0 -111.02,-0.01 -6.49,-0.01 -12.99,0.15 -19.47,-0.17 0.29,-0.63 0.88,-1.87 1.17,-2.49 z"
         inkscape:connector-curvature="0"
         style="fill:#e9ebee" />
      <path
         id="path3777"
         d="m 71.62,357.66 c 9.88,-0.01 19.81,-0.64 29.66,0.28 -1.31,2.25 -2.71,4.43 -4.17,6.58 -8.42,-0.29 -16.85,-0.3 -25.27,-0.04 -0.07,-2.28 -0.15,-4.55 -0.22,-6.82 z"
         inkscape:connector-curvature="0"
         style="fill:#e9ebee" />
      <path
         id="path3779"
         d="m 110.58,359.88 c 0.23,-0.47 0.7,-1.41 0.94,-1.88 6.48,0.32 12.98,0.16 19.47,0.17 37,0.01 74.01,0.01 111.02,0.01 4.91,0.07 9.84,0.16 14.72,-0.5 0.53,0.73 1.04,1.49 1.52,2.27 -38.74,0.31 -77.5,0.03 -116.25,0.15 -10.47,-0.12 -20.95,0.23 -31.42,-0.22 z"
         inkscape:connector-curvature="0"
         style="fill:#c7cacb" />
      <path
         id="path3781"
         d="m 105.39,368.39 c 1.94,-2.71 3.71,-5.52 5.19,-8.51 10.47,0.45 20.95,0.1 31.42,0.22 38.75,-0.12 77.51,0.16 116.25,-0.15 0.54,2.93 0.58,5.91 0.76,8.87 -3.33,-0.33 -6.68,-0.57 -10.03,-0.48 -47.86,0.06 -95.72,-0.04 -143.59,0.05 z"
         inkscape:connector-curvature="0"
         style="fill:#e9ebee" />
      <path
         id="path3783"
         d="m 72.21,364.5 c 8.23,0.44 16.47,-0.1 24.7,0.34 -0.97,1.28 -1.94,2.56 -2.91,3.85 -7.27,-0.07 -14.54,0.16 -21.8,-0.12 0.01,-1.02 0.01,-3.05 0.01,-4.07 z"
         inkscape:connector-curvature="0"
         style="fill:#e9ebee" />
      <path
         id="path3785"
         d="m 105.27,368.7 c 48.24,-0.11 96.48,0 144.71,-0.05 2.72,0.06 5.59,-0.33 8.14,0.85 -3.89,1.41 -7.74,3.13 -11.83,3.86 -4.42,-0.27 -8.84,-0.48 -13.27,-0.38 -39.01,0.06 -78.02,-0.01 -117.03,0.03 -4.5,0.06 -9.02,0.13 -13.5,-0.41 0.92,-1.31 1.85,-2.6 2.78,-3.9 z"
         inkscape:connector-curvature="0"
         style="fill:#e9ebee" />
      <path
         id="path3787"
         d="m 102.18,372.57 0.31,0.03 c 4.48,0.54 9,0.47 13.5,0.41 39.01,-0.04 78.02,0.03 117.03,-0.03 4.43,-0.1 8.85,0.11 13.27,0.38 -1.77,0.82 -3.5,2.01 -5.48,2.21 -3.91,-0.63 -7.87,-0.78 -11.82,-0.64 -42.68,0.03 -85.37,0.04 -128.06,-0.03 0.41,-0.78 0.83,-1.56 1.25,-2.33 z"
         inkscape:connector-curvature="0"
         style="fill:#c6c9ca" />
      <path
         id="path3789"
         d="m 100.01,374.91 0.92,-0.01 c 42.69,0.07 85.38,0.06 128.06,0.03 3.95,-0.14 7.91,0.01 11.82,0.64 -1.86,0.92 -3.69,1.98 -5.71,2.52 -44.64,-0.16 -89.28,-0.08 -133.92,-0.04 -0.39,-1.05 -0.78,-2.1 -1.17,-3.14 z"
         inkscape:connector-curvature="0"
         style="fill:#e9ebee" />
      <path
         id="path3791"
         d="m 101.18,378.05 c 44.64,-0.04 89.28,-0.12 133.92,0.04 -0.36,0.27 -1.07,0.8 -1.43,1.07 -39.88,-0.07 -79.76,-0.01 -119.65,-0.04 -4.14,-0.06 -8.28,-0.07 -12.41,0.29 l -0.41,0.03 c -0.01,-0.35 -0.02,-1.04 -0.02,-1.39 z"
         inkscape:connector-curvature="0"
         style="fill:#acafb0" />
      <path
         id="path3793"
         d="m 259.1,379.83 c 1.57,-0.57 3.13,-1.2 4.65,-1.88 -0.11,3.33 0.3,6.78 -0.64,10.04 -1.18,3.82 -5.47,5.56 -9.19,5.45 -7.43,0 -14.86,0.06 -22.28,-0.06 2.6,-2.5 5.45,-4.8 8.69,-6.42 5.49,-0.34 11.65,1.35 16.46,-2.16 0.9,-1.59 1.61,-3.28 2.31,-4.97 z"
         inkscape:connector-curvature="0"
         style="fill:#0365c0" />
      <path
         id="path3795"
         d="m 71.3,380.35 c 5.53,-1.59 11.31,-1.85 17.02,-2.02 0.6,1.5 1.19,3.02 1.79,4.53 -5.88,0.07 -11.75,-0.09 -17.62,0.09 l -1.19,-2.6 z"
         inkscape:connector-curvature="0"
         style="fill:#e9ebee" />
      <path
         id="path3797"
         d="m 101.61,379.41 c 4.13,-0.36 8.27,-0.35 12.41,-0.29 39.89,0.03 79.77,-0.03 119.65,0.04 -1.88,1.18 -3.59,2.77 -5.69,3.53 -41.54,-0.02 -83.09,-0.19 -124.62,0.09 l -0.87,0.05 c -0.22,-0.86 -0.66,-2.57 -0.88,-3.42 z"
         inkscape:connector-curvature="0"
         style="fill:#e9ebee" />
      <path
         id="path3799"
         d="m 247.87,383.79 c 3.74,-1.34 7.45,-2.74 11.23,-3.96 -0.7,1.69 -1.41,3.38 -2.31,4.97 -2.95,-0.5 -5.93,-0.9 -8.92,-1.01 z"
         inkscape:connector-curvature="0"
         style="fill:#cfd2d3" />
      <path
         id="path3801"
         d="m 103.36,382.78 c 41.53,-0.28 83.08,-0.11 124.62,-0.09 -0.28,0.43 -0.83,1.29 -1.11,1.72 l -0.34,-0.03 c -8.82,-0.84 -17.69,-0.23 -26.54,-0.39 -32.48,-0.17 -64.97,0.28 -97.44,-0.22 l 0.81,-0.99 z"
         inkscape:connector-curvature="0"
         style="fill:#b6baba" />
      <path
         id="path3803"
         d="m 72.04,383.27 c 6.05,0.16 12.11,0.02 18.17,0.07 0.34,1.18 0.67,2.38 0.99,3.58 -6.41,0.02 -12.83,-0.08 -19.25,0.07 0.02,-0.93 0.07,-2.79 0.09,-3.72 z"
         inkscape:connector-curvature="0"
         style="fill:#e9ebee" />
      <path
         id="path3805"
         d="m 102.55,383.77 c 32.47,0.5 64.96,0.05 97.44,0.22 8.85,0.16 17.72,-0.45 26.54,0.39 -1.01,0.86 -1.92,1.89 -3.07,2.59 -39.93,-0.1 -79.87,-0.03 -119.8,-0.06 -0.36,-1.05 -0.73,-2.1 -1.11,-3.14 z"
         inkscape:connector-curvature="0"
         style="fill:#e9ebee" />
      <path
         id="path3807"
         d="m 240.33,386.96 c 2.42,-1.25 4.94,-2.33 7.54,-3.17 2.99,0.11 5.97,0.51 8.92,1.01 -4.81,3.51 -10.97,1.82 -16.46,2.16 z"
         inkscape:connector-curvature="0"
         style="fill:#e9ebee" />
      <path
         id="path3809"
         d="m 62.4,387.13 c 3.19,-0.04 6.37,-0.04 9.55,-0.14 6.42,-0.15 12.84,-0.05 19.25,-0.07 0.54,2.08 0.97,4.19 1.36,6.32 -10,0.06 -20,-0.06 -30,0.06 -0.07,-2.06 -0.11,-4.12 -0.16,-6.17 z"
         inkscape:connector-curvature="0"
         style="fill:#0365c0" />
      <path
         id="path3811"
         d="m 103.66,386.91 c 39.93,0.03 79.87,-0.04 119.8,0.06 -1.67,2.15 -3.4,4.27 -5.13,6.38 -37.91,-0.21 -75.81,-0.05 -113.72,-0.09 -0.26,-2.12 -0.62,-4.24 -0.95,-6.35 z"
         inkscape:connector-curvature="0"
         style="fill:#0365c0" />
      <path
         id="path3813"
         d="m 104.61,393.26 c 37.91,0.04 75.81,-0.12 113.72,0.09 -0.31,0.45 -0.94,1.35 -1.26,1.81 -37.32,-0.08 -74.65,0.17 -111.97,-0.13 -0.12,-0.44 -0.37,-1.32 -0.49,-1.77 z"
         inkscape:connector-curvature="0"
         style="fill:#ffffff" />
      <path
         id="path3815"
         d="m 52.77,398.84 c 2.08,-2.91 5.86,-3.95 9.29,-3.84 10.25,0.03 20.51,0.01 30.77,0.02 0.29,2.24 0.51,4.5 0.64,6.76 -8.82,0.04 -17.64,-0.09 -26.45,0.03 -3.13,-0.03 -6.37,0.99 -8.15,3.75 -0.21,0.35 -0.41,0.72 -0.58,1.1 -1.42,3.04 -1.14,6.44 -1.17,9.69 l 0,0.29 c 0.01,1.88 0.02,3.77 0.02,5.67 l 0,0.38 c 0,1.55 0,3.11 0,4.68 l 0,0.31 c -0.01,8.45 0.02,16.9 0,25.34 0.07,3.21 -0.07,6.92 2.39,9.38 1.93,2.23 5.03,2.4 7.73,2.89 -1.1,1.03 -2.23,2.04 -3.35,3.06 -4.23,-1.53 -8.43,-3.15 -12.64,-4.74 -0.79,-17.85 -0.12,-35.74 -0.36,-53.61 0.14,-3.73 -0.47,-7.94 1.86,-11.16 z"
         inkscape:connector-curvature="0"
         style="fill:#51a7f9" />
      <path
         id="path3817"
         d="m 105.1,395.03 c 37.32,0.3 74.65,0.05 111.97,0.13 -1.42,2.21 -2.79,4.45 -4.11,6.72 -35.78,-0.05 -71.56,0.1 -107.34,-0.07 l -0.15,0 c -0.15,-2.26 -0.3,-4.52 -0.37,-6.78 z"
         inkscape:connector-curvature="0"
         style="fill:#51a7f9" />
      <path
         id="path3819"
         d="m 229.86,395.16 c 16.02,-0.01 32.04,0.01 48.06,-0.01 0.01,2.3 0.02,4.61 0.02,6.92 -3.64,0.05 -7.27,-0.05 -10.9,-0.16 -14.12,-0.08 -28.24,0.01 -42.36,-0.04 1.55,-2.36 3.26,-4.63 5.18,-6.71 z"
         inkscape:connector-curvature="0"
         style="fill:#51a7f9" />
      <path
         id="path3821"
         d="m 58.87,405.56 c 1.78,-2.76 5.02,-3.78 8.15,-3.75 8.81,-0.12 17.63,0.01 26.45,-0.03 0.04,0.99 0.12,2.95 0.16,3.93 -11.58,-0.06 -23.18,0.21 -34.76,-0.15 z"
         inkscape:connector-curvature="0"
         style="fill:#e9ebee" />
      <path
         id="path3823"
         d="m 105.62,401.81 c 35.78,0.17 71.56,0.02 107.34,0.07 -0.67,1.27 -1.34,2.54 -2,3.82 -35.14,0.05 -70.28,0.03 -105.42,0.01 0.02,-0.98 0.06,-2.92 0.08,-3.9 z"
         inkscape:connector-curvature="0"
         style="fill:#e9ebee" />
      <path
         id="path3825"
         d="m 222.23,405.71 c 0.81,-1.29 1.62,-2.57 2.45,-3.84 14.12,0.05 28.24,-0.04 42.36,0.04 -0.07,0.94 -0.23,2.81 -0.3,3.75 -14.84,0.15 -29.67,0.04 -44.51,0.05 z"
         inkscape:connector-curvature="0"
         style="fill:#e9ebee" />
      <path
         id="path3827"
         d="m 58.29,406.66 c 11.73,-1.03 23.55,-0.21 35.32,-0.46 -0.08,1.72 -0.15,3.44 -0.23,5.16 -11.94,0.03 -23.89,-0.29 -35.82,0.17 11.91,0.43 23.83,0 35.75,0.22 -0.14,1.55 -0.28,3.1 -0.43,4.66 -11.92,-0.16 -23.84,-0.01 -35.76,-0.06 0.03,-3.25 -0.25,-6.65 1.17,-9.69 z"
         inkscape:connector-curvature="0"
         style="fill:#e9ebee" />
      <path
         id="path3829"
         d="m 105.66,406.2 c 35.02,-0.03 70.05,0 105.07,-0.01 -0.78,1.62 -1.56,3.26 -2.32,4.91 -27.46,-0.23 -54.92,-0.04 -82.37,-0.1 -6.94,0.08 -13.88,-0.23 -20.8,0.25 0.17,-1.69 0.31,-3.37 0.42,-5.05 z"
         inkscape:connector-curvature="0"
         style="fill:#e9ebee" />
      <path
         id="path3831"
         d="m 219.4,411.2 c 0.87,-1.68 1.75,-3.34 2.63,-5 14.9,0.02 29.79,-0.08 44.69,0.05 0.17,3.35 0.22,6.7 0.12,10.06 -16.6,0.06 -33.19,0.09 -49.78,0.02 0.69,-1.57 1.38,-3.13 2.07,-4.69 15.74,-0.08 31.5,0.37 47.23,-0.18 -15.65,-0.38 -31.31,0.03 -46.96,-0.26 z"
         inkscape:connector-curvature="0"
         style="fill:#e9ebee" />
      <path
         id="path3833"
         d="m 105.24,411.25 c 6.92,-0.48 13.86,-0.17 20.8,-0.25 27.45,0.06 54.91,-0.13 82.37,0.1 -0.38,0.95 -0.78,1.9 -1.19,2.84 -0.03,-0.41 -0.1,-1.25 -0.14,-1.66 -33.65,-0.23 -67.3,0.08 -100.95,-0.15 l -0.89,-0.88 z"
         inkscape:connector-curvature="0"
         style="fill:#b0b4b4" />
      <path
         id="path3835"
         d="m 106.13,412.13 c 33.65,0.23 67.3,-0.08 100.95,0.15 0.04,0.41 0.11,1.25 0.14,1.66 -0.28,0.66 -0.85,1.96 -1.13,2.61 -33.7,-0.37 -67.42,-0.25 -101.12,-0.1 0.1,-1.45 0.2,-2.9 0.3,-4.35 l 0.86,0.03 z"
         inkscape:connector-curvature="0"
         style="fill:#e9ebee" />
      <path
         id="path3837"
         d="m 57.12,416.64 c 11.85,0.08 23.7,-0.08 35.55,0.06 -0.26,1.88 -0.54,3.76 -0.81,5.65 -11.57,-0.1 -23.15,-0.05 -34.72,-0.04 0,-1.9 -0.01,-3.79 -0.02,-5.67 z"
         inkscape:connector-curvature="0"
         style="fill:#e9ebee" />
      <path
         id="path3839"
         d="m 105.05,416.71 c 33.58,-0.09 67.18,-0.18 100.76,0.08 -0.59,1.75 -1.19,3.5 -1.8,5.25 -33.26,-0.02 -66.54,-0.18 -99.8,0.08 0.14,-1.82 0.48,-3.62 0.84,-5.41 z"
         inkscape:connector-curvature="0"
         style="fill:#e9ebee" />
      <path
         id="path3841"
         d="m 216.96,416.63 c 16.65,0.11 33.31,-0.01 49.96,0.02 -0.08,1.94 -0.17,3.88 -0.26,5.82 -17.35,-0.49 -34.72,0.11 -52.08,-0.31 0.79,-1.85 1.58,-3.69 2.38,-5.53 z"
         inkscape:connector-curvature="0"
         style="fill:#e9ebee" />
      <path
         id="path3843"
         d="m 104.21,422.12 c 33.26,-0.26 66.54,-0.1 99.8,-0.08 -0.06,0.35 -0.18,1.03 -0.23,1.37 l -0.32,-0.02 c -5.82,-0.5 -11.67,-0.23 -17.5,-0.27 -27.43,-0.05 -54.87,0.09 -82.3,-0.08 l 0.55,-0.92 z"
         inkscape:connector-curvature="0"
         style="fill:#acb0af" />
      <path
         id="path3845"
         d="m 57.14,422.69 c 11.5,0.07 23,-0.05 34.51,0.08 -0.43,1.61 -0.86,3.22 -1.3,4.84 -11.06,-0.54 -22.14,-0.17 -33.21,-0.24 0,-1.57 0,-3.13 0,-4.68 z"
         inkscape:connector-curvature="0"
         style="fill:#e9ebee" />
      <path
         id="path3847"
         d="m 103.66,423.04 c 27.43,0.17 54.87,0.03 82.3,0.08 5.83,0.04 11.68,-0.23 17.5,0.27 -0.35,1.24 -0.67,2.49 -0.97,3.75 -33.09,-0.26 -66.2,-0.2 -99.29,-0.03 0.14,-1.36 0.32,-2.72 0.46,-4.07 z"
         inkscape:connector-curvature="0"
         style="fill:#e9ebee" />
      <path
         id="path3849"
         d="m 212.67,427.28 c 0.68,-1.59 1.34,-3.19 2.02,-4.77 17.49,0.32 35.01,0.34 52.49,0 -0.23,1.66 -0.46,3.32 -0.68,4.99 -17.94,-0.44 -35.89,0.01 -53.83,-0.22 z"
         inkscape:connector-curvature="0"
         style="fill:#e9ebee" />
      <path
         id="path3851"
         d="m 484.01,426.16 c 1.61,0 3.23,0.01 4.85,0.01 0.02,13.61 0,27.21 0.01,40.82 -1.63,0 -3.25,0 -4.87,0.01 0.01,-13.61 -0.02,-27.22 0.01,-40.84 z"
         inkscape:connector-curvature="0"
         style="fill:#53585f" />
      <path
         id="path3853"
         d="m 103.2,427.11 c 33.09,-0.17 66.2,-0.23 99.29,0.03 l -0.71,0.94 c -17.23,0.68 -34.49,0.1 -51.73,0.28 -15.82,-0.06 -31.64,0.18 -47.45,-0.13 l 0.6,-1.12 z"
         inkscape:connector-curvature="0"
         style="fill:#b8bbbb" />
      <path
         style="fill:#53585f"
         d="m 229.88672,415.47656 c 0.05,7.825 -0.0738,15.64961 0.0762,23.47461 -4.7875,-5.55 -13.62617,-6.98828 -19.76367,-2.86328 -8.125,4.6875 -10.25,16.60117 -4.875,24.13867 4.875,8.6625 18.47617,9.38711 24.63867,1.72461 -0.0375,1.5125 -0.0754,3.01133 -0.0879,4.54883 2.025,-0.0125 4.06211,-0.0125 6.09961,0 0.0125,-17.0125 -0.0133,-34.01172 0.0117,-51.01172 -2.0375,-0.0125 -4.07461,-0.0117 -6.09961,-0.0117 z m -10.17383,23.97266 c 5.07598,0.2625 9.91133,4.16133 9.98633,9.62695 1.4375,7.3 -5.69922,14.41211 -13.01172,12.09961 -9.4125,-1.8375 -10.46289,-16.91172 -1.96289,-20.69922 1.57812,-0.79687 3.29629,-1.11484 4.98828,-1.02734 z"
         transform="matrix(0.8,0,0,0.8,220.4902,93.799296)"
         id="path3855"
         inkscape:connector-curvature="0" />
      <path
         style="fill:#53585f"
         d="m 431.11133,415.47656 c 0.0375,7.8125 -0.0738,15.63672 0.0762,23.44922 -6.2,-7.4 -18.87539,-6.67578 -24.27539,1.26172 -5.7625,7.4875 -3.76328,19.46328 4.07422,24.67578 6.3125,4.05 15.10156,2.8375 20.16406,-2.6875 l -0.10156,4.25 c 2.0375,0.0375 4.08867,0.0621 6.13867,0.0996 0.0125,-17.0125 -7.8e-4,-34.02461 0.0117,-51.03711 -2.0375,-0.0125 -4.06289,-0.0242 -6.08789,-0.0117 z m -10.21289,23.97266 c 5.07832,0.24668 9.92929,4.12422 10.01367,9.58984 1.475,7.3375 -5.71328,14.47422 -13.05078,12.13672 -9.3625,-1.8875 -10.39922,-16.8875 -1.94922,-20.6875 1.575,-0.8 3.29355,-1.12129 4.98633,-1.03906 z"
         transform="matrix(0.8,0,0,0.8,220.4902,93.799296)"
         id="path3857"
         inkscape:connector-curvature="0" />
      <path
         id="path3859"
         d="m 57.14,427.68 c 10.98,0.08 21.96,-0.2 32.93,0.19 -0.34,1.55 -0.69,3.11 -1.04,4.67 -10.18,-0.33 -20.4,-0.53 -30.57,0.03 10.06,0.62 20.2,-0.71 30.2,0.81 -0.79,1.67 -1.54,3.37 -2.33,5.05 -9.56,-0.2 -19.13,-0.3 -28.69,0.04 9.51,0.64 19.06,-0.01 28.58,0.38 -0.75,1.53 -1.49,3.07 -2.24,4.61 -8.81,-0.17 -17.65,-0.43 -26.45,0.1 8.73,0.36 17.47,-0.14 26.2,0.31 -1.11,1.89 -2.24,3.76 -3.41,5.62 -7.53,-0.29 -15.07,-0.3 -22.6,-0.08 7.43,0.69 14.91,0.02 22.36,0.46 -1.03,1.53 -2.06,3.05 -3.1,4.58 -6.46,-0.17 -12.93,-0.3 -19.39,0.03 6.31,0.56 12.64,-0.02 18.95,0.42 -2.88,3.64 -5.95,7.14 -9.28,10.39 -2.7,-0.49 -5.8,-0.66 -7.73,-2.89 -2.46,-2.46 -2.32,-6.17 -2.39,-9.38 0.02,-8.44 -0.01,-16.89 0,-25.34 z"
         inkscape:connector-curvature="0"
         style="fill:#e9ebee" />
      <path
         id="path3861"
         d="m 102.6,428.23 c 15.81,0.31 31.63,0.07 47.45,0.13 17.24,-0.18 34.5,0.4 51.73,-0.28 -0.23,1.47 -0.54,2.93 -0.84,4.4 -33.14,0.26 -66.29,0.02 -99.44,0.12 0.38,-1.46 0.78,-2.9 1.1,-4.37 z"
         inkscape:connector-curvature="0"
         style="fill:#e9ebee" />
      <path
         id="path3863"
         d="m 212.71,427.62 c 18.11,0.03 36.22,0.18 54.33,-0.08 0.2,3.47 0.21,6.96 -0.17,10.42 -19.07,0.09 -38.14,-0.13 -57.2,0.11 1.05,-3.48 2,-6.98 3.04,-10.45 z"
         inkscape:connector-curvature="0"
         style="fill:#e9ebee" />
      <path
         id="path3865"
         d="m 835.45,434.43 c 6.9,-8.27 21.42,-9.08 28.55,-0.68 -1.47,1.07 -2.94,2.15 -4.41,3.2 -4.2,-5.06 -12.18,-5.54 -17.32,-1.7 -7.8,5.69 -8.28,19.03 -0.57,25.01 5.55,4.37 14.48,3.64 18.75,-2.21 1.44,1.06 2.87,2.11 4.33,3.17 -3.77,4.64 -9.92,7.21 -15.87,6.65 -6.49,-0.32 -12.58,-4.28 -15.68,-9.95 -4.11,-7.3 -3.16,-17.08 2.22,-23.49 z"
         inkscape:connector-curvature="0"
         style="fill:#53585f" />
      <path
         id="path3867"
         d="m 305.54,428.77 c 2.55,0 5.1,-0.01 7.66,-0.03 4.16,9.64 8.17,19.35 12.22,29.04 4.4,-9.55 8.07,-19.42 12.3,-29.04 2.55,0.02 5.11,0.03 7.66,0.03 0.02,12.75 0.01,25.49 0.01,38.24 -1.74,-0.02 -3.48,-0.03 -5.21,-0.04 -0.05,-10.19 0.21,-20.39 -0.13,-30.58 -4.77,9.98 -8.49,20.44 -12.86,30.61 -0.86,0 -2.57,0.02 -3.42,0.03 -4.44,-10.32 -8.31,-20.88 -12.98,-31.08 -0.15,10.35 -0.01,20.7 -0.07,31.05 -1.73,0 -3.46,-0.01 -5.18,0 -0.01,-12.75 -0.01,-25.49 0,-38.23 z"
         inkscape:connector-curvature="0"
         style="fill:#53585f" />
      <path
         id="path3869"
         d="m 417.29,429.41 c 2.4,-2.1 6.4,0.54 5.58,3.55 -0.43,2.52 -3.86,3.73 -5.73,1.94 -1.77,-1.33 -1.63,-4.25 0.15,-5.49 z"
         inkscape:connector-curvature="0"
         style="fill:#53585f" />
      <path
         id="path3871"
         d="m 512.84,428.77 c 8.2,-0.03 16.39,0.04 24.59,-0.04 0.03,1.62 0.07,3.25 0.12,4.89 -6.51,0.02 -13.02,0 -19.52,0.01 -0.01,3.79 -0.01,7.59 0,11.38 6.04,0.01 12.09,0 18.13,0.01 -0.01,1.62 -0.01,3.24 0,4.87 -6.05,0 -12.09,-0.01 -18.13,0 -0.01,4.08 -0.01,8.16 0,12.24 6.82,0.02 13.63,-0.04 20.46,0.04 0.01,1.57 0.03,3.15 0.07,4.74 -8.57,0.2 -17.15,0.04 -25.72,0.09 0,-12.75 -0.01,-25.49 0,-38.23 z"
         inkscape:connector-curvature="0"
         style="fill:#53585f" />
      <path
         id="path3873"
         d="m 682.3,429.43 c 2.09,-1.85 5.66,-0.09 5.67,2.63 0.28,2.61 -2.99,4.69 -5.22,3.25 -2.23,-1.09 -2.47,-4.47 -0.45,-5.88 z"
         inkscape:connector-curvature="0"
         style="fill:#53585f" />
      <path
         id="path3875"
         d="m 772.97,428.77 c 1.71,-0.01 3.44,-0.01 5.17,0 0.01,12.74 0.01,25.48 0.01,38.23 -1.74,-0.01 -3.47,-0.01 -5.19,0 0,-12.75 0,-25.49 0.01,-38.23 z"
         inkscape:connector-curvature="0"
         style="fill:#53585f" />
      <path
         id="path3877"
         d="m 101.09,433.43 c 33.16,-0.37 66.33,-0.06 99.49,-0.16 -0.21,0.85 -0.62,2.55 -0.82,3.4 -3.71,0.09 -7.29,1.05 -10.9,1.74 -29.74,-0.35 -59.5,0.05 -89.25,-0.2 0.5,-1.6 1,-3.19 1.48,-4.78 z"
         inkscape:connector-curvature="0"
         style="fill:#e9ebee" />
      <path
         id="path3879"
         d="m 663.53,434.27 c 1.62,-0.03 3.24,-0.06 4.88,-0.07 0,2.4 0.01,4.8 0.02,7.2 2.31,0 4.62,0 6.94,0.01 0.01,1.04 0.04,3.11 0.05,4.15 -2.33,0.04 -4.67,0.06 -6.99,0.07 0.18,5.08 -0.47,10.24 0.38,15.27 0.91,2.96 4.54,2.03 6.8,1.71 -0.06,1.46 -0.1,2.94 -0.14,4.41 -3.8,0.83 -9.51,1.42 -11.23,-3.05 -1.39,-5.99 -0.38,-12.25 -0.7,-18.35 -1.89,-0.01 -3.77,-0.01 -5.64,-0.01 0.04,-1.42 0.08,-2.84 0.14,-4.24 1.83,0.01 3.66,0.02 5.51,0.04 -0.01,-2.39 -0.01,-4.77 -0.02,-7.14 z"
         inkscape:connector-curvature="0"
         style="fill:#53585f" />
      <path
         id="path3881"
         d="m 209.67,438.07 c 19.06,-0.24 38.13,-0.02 57.2,-0.11 l 0.04,1.04 c -19.18,-0.01 -38.36,0.02 -57.55,-0.01 l 0.31,-0.92 z"
         inkscape:connector-curvature="0"
         style="fill:#a7abaa" />
      <path
         id="path3883"
         d="m 99.25,438.72 c 23.25,0.03 46.5,-0.02 69.74,0.01 6.36,0.06 12.74,-0.27 19.08,0.28 -2.07,1.49 -4.03,3.13 -6.16,4.55 -28.11,-0.65 -56.24,0.07 -84.36,-0.39 0.57,-1.49 1.14,-2.97 1.7,-4.45 z"
         inkscape:connector-curvature="0"
         style="fill:#e9ebee" />
      <path
         id="path3885"
         d="m 209.36,438.99 c 19.19,0.03 38.37,0 57.55,0.01 0.02,1.33 0.04,2.66 0.06,4 -17.32,0.04 -34.64,-0.02 -51.96,0.04 -1.79,-1.49 -3.72,-2.78 -5.65,-4.05 z"
         inkscape:connector-curvature="0"
         style="fill:#e9ebee" />
      <path
         style="fill:#53585f"
         d="m 180.81836,433.70898 c -2.24678,0.0409 -4.48242,0.51954 -6.49414,1.42969 -9.125,3.95 -12.7625,16.375 -7.1875,24.625 5.7125,9.9 21.32578,9.775 28.05078,1 -1.5375,-1.1625 -3.06211,-2.30117 -4.59961,-3.45117 -2.4875,2.1375 -5.05156,4.95156 -8.66406,4.66406 -5.375,0.1875 -10.53672,-3.70156 -11.01172,-9.22656 8.625,-0.0625 17.25,0.0641 25.875,-0.0859 -0.5125,-4.3625 -0.49961,-9.13867 -3.22461,-12.82617 -2.80156,-4.19375 -7.80122,-6.21897 -12.74414,-6.12891 z m 0.22266,4.90235 c 0.72439,0.0114 1.45937,0.10898 2.19531,0.30273 4.4375,0.5125 6.53906,4.97383 7.03906,8.92383 -6.4875,0.0375 -12.9625,0.05 -19.4375,0 0.59063,-5.15156 5.1324,-9.30637 10.20313,-9.22656 z"
         transform="matrix(0.8,0,0,0.8,220.4902,93.799296)"
         id="path3887"
         inkscape:connector-curvature="0" />
      <path
         id="path3889"
         d="m 417.07,441.34 c 1.59,0.02 3.17,0.05 4.77,0.07 0.02,8.53 0,17.05 0.02,25.58 -1.63,0 -3.25,0 -4.87,0.01 0.04,-8.55 -0.11,-17.11 0.08,-25.66 z"
         inkscape:connector-curvature="0"
         style="fill:#53585f" />
      <path
         id="path3891"
         d="m 431.51,445.41 c 4.9,-5.96 14.78,-6.02 20.09,-0.56 -1.22,1.09 -2.42,2.18 -3.64,3.27 -2.72,-2.28 -6.55,-3.57 -9.93,-1.93 -5.82,3.02 -5.97,12.81 -0.13,15.91 3.34,1.78 7.44,0.75 10.12,-1.74 1.14,1.06 2.28,2.12 3.44,3.19 -5.5,6.33 -16.81,5.03 -21.2,-1.94 -2.9,-4.98 -2.54,-11.77 1.25,-16.2 z"
         inkscape:connector-curvature="0"
         style="fill:#53585f" />
      <path
         style="fill:#53585f"
         d="m 306.55078,433.77148 c -4.45154,0.0731 -8.9082,1.69141 -12.52539,4.31641 1.1625,1.3375 2.32461,2.68828 3.47461,4.05078 3.7875,-2.925 9.20039,-4.9 13.71289,-2.375 2.525,1.3 2.94922,4.3 3.44922,6.8125 -6.1625,0.1875 -12.81172,-0.0762 -18.26172,3.29883 -5.5125,3.3375 -5.23867,12.63828 0.42383,15.67578 5.95,3.35 13.92539,1.68789 18.02539,-3.78711 0,1.1625 -0.0117,3.47422 -0.0117,4.63672 1.8125,0.0375 3.63594,0.075 5.46094,0.125 -0.4875,-7.55 0.0504,-15.12383 -0.34961,-22.67383 -0.1375,-3.575 -2.31172,-6.93828 -5.57422,-8.42578 -2.48438,-1.18594 -5.1533,-1.69817 -7.82422,-1.6543 z m 8.03711,17.30469 c 0.0125,4.425 -1.55156,9.91172 -6.53906,10.88672 -4.15,1.65 -11.1625,-0.71172 -9.375,-6.19922 3.125,-5.425 10.55156,-4.3625 15.91406,-4.6875 z"
         transform="matrix(0.8,0,0,0.8,220.4902,93.799296)"
         id="path3893"
         inkscape:connector-curvature="0" />
      <path
         id="path3895"
         d="m 595.4,441.35 c 1.64,0.06 3.29,0.12 4.94,0.17 -0.16,8.49 -0.03,16.98 -0.07,25.48 -1.65,-0.01 -3.28,0 -4.91,0 0.05,-1.29 0.11,-2.57 0.19,-3.85 -3.22,4.8 -10.5,5.98 -14.95,2.25 -2.68,-2.36 -2.97,-6.13 -3.02,-9.46 -0.03,-4.85 0.03,-9.69 0.01,-14.53 1.61,-0.01 3.23,-0.01 4.86,-0.01 0.04,4.82 -0.07,9.64 0.02,14.47 0.07,2.27 0.45,4.96 2.55,6.29 3.61,2.29 9.03,0.09 9.86,-4.16 1.01,-5.48 0.32,-11.1 0.52,-16.65 z"
         inkscape:connector-curvature="0"
         style="fill:#53585f" />
      <path
         id="path3897"
         d="m 609.51,445.46 c 4.88,-6.02 14.8,-6.07 20.14,-0.62 -1.24,1.1 -2.47,2.2 -3.71,3.29 -2.67,-2.3 -6.45,-3.56 -9.81,-1.97 -5.9,2.99 -6.05,12.87 -0.15,15.96 3.34,1.76 7.4,0.72 10.08,-1.76 1.14,1.06 2.28,2.12 3.43,3.18 -5.46,6.32 -16.72,5.04 -21.15,-1.85 -2.94,-4.96 -2.6,-11.78 1.17,-16.23 z"
         inkscape:connector-curvature="0"
         style="fill:#53585f" />
      <path
         style="fill:#53585f"
         d="m 528.88281,433.73828 c -4.44272,0.0374 -8.74531,1.87813 -12.37109,4.4375 1.1875,1.3125 2.38711,2.6125 3.59961,3.9375 3.775,-2.95 9.22617,-4.8875 13.70117,-2.3125 2.5,1.3125 2.87539,4.28789 3.40039,6.77539 -6.175,0.1875 -12.81367,-0.0754 -18.26367,3.28711 -5.5125,3.3625 -5.25039,12.6125 0.41211,15.6875 5.9375,3.3625 13.88828,1.66172 18.05078,-3.73828 0,1.15 -0.0117,3.45156 -0.0117,4.60156 1.8,0.0375 3.61172,0.0613 5.44922,0.11133 -0.5625,-7.875 0.17539,-15.78789 -0.47461,-23.65039 -0.5,-5.15 -5.53789,-8.54883 -10.40039,-8.86133 -1.03359,-0.19687 -2.06655,-0.28401 -3.0918,-0.27539 z m 8.25391,17.33789 c 0,4.4125 -1.53789,9.9 -6.52539,10.875 -4.1625,1.7 -11.22383,-0.7375 -9.36133,-6.25 3.1875,-5.3375 10.53672,-4.3125 15.88672,-4.625 z"
         transform="matrix(0.8,0,0,0.8,220.4902,93.799296)"
         id="path3899"
         inkscape:connector-curvature="0" />
      <path
         id="path3901"
         d="m 682.06,441.37 c 1.59,0.01 3.19,0.01 4.8,0.02 0.05,8.54 0,17.07 0.03,25.6 -1.64,0 -3.26,0 -4.88,0.01 0.03,-8.55 -0.06,-17.09 0.05,-25.63 z"
         inkscape:connector-curvature="0"
         style="fill:#53585f" />
      <path
         style="fill:#53585f"
         d="m 608.06836,433.66211 c -1.91674,-0.0231 -3.84844,0.31211 -5.70703,1.06445 -6.2875,2.475 -11.26133,8.66172 -11.23633,15.57422 -0.2875,9.0625 8.09883,17.23789 17.11133,16.96289 9.3375,0.125 17.80039,-8.78711 16.77539,-18.16211 -0.60938,-8.53125 -8.63749,-15.33912 -16.94336,-15.43945 z m 0.32422,5.7832 c 5.07715,0.24024 9.9375,4.10508 10.03125,9.58008 1.4875,7.3125 -5.68672,14.47539 -13.01172,12.15039 -9.4,-1.8375 -10.45,-16.8625 -2,-20.6875 1.57187,-0.8 3.28809,-1.12305 4.98047,-1.04297 z"
         transform="matrix(0.8,0,0,0.8,220.4902,93.799296)"
         id="path3903"
         inkscape:connector-curvature="0" />
      <path
         id="path3905"
         d="m 726.64,441.48 c 1.63,-0.04 3.28,-0.08 4.93,-0.11 -0.04,0.92 -0.1,2.77 -0.14,3.69 2.34,-2.83 5.88,-4.76 9.64,-4.18 3.85,0.15 7.39,3.17 7.89,7.04 0.85,6.33 0.21,12.75 0.4,19.11 -1.65,-0.05 -3.29,-0.07 -4.92,-0.12 -0.14,-5.96 0.6,-12.02 -0.46,-17.91 -1.58,-5.27 -9.92,-4.52 -11.56,0.35 -1.63,5.69 -0.62,11.73 -0.83,17.58 -1.64,0.04 -3.28,0.05 -4.91,0.1 -0.03,-8.52 0.05,-17.04 -0.04,-25.55 z"
         inkscape:connector-curvature="0"
         style="fill:#53585f" />
      <path
         id="path3907"
         d="m 786.67,441.5 c 1.64,-0.05 3.29,-0.09 4.94,-0.14 -0.03,0.91 -0.09,2.72 -0.11,3.62 4.04,-5.7 14.48,-5.75 17.08,1.29 1.62,6.77 0.51,13.83 0.83,20.73 -1.63,0 -3.25,0 -4.86,0 -0.05,-4.68 0.05,-9.36 -0.02,-14.03 -0.05,-2.25 -0.26,-4.82 -2.09,-6.39 -3.38,-2.69 -9.16,-0.81 -10.22,3.43 -1.19,5.55 -0.44,11.3 -0.59,16.94 -1.64,0.02 -3.28,0.04 -4.9,0.07 -0.04,-8.51 0.06,-17.02 -0.06,-25.52 z"
         inkscape:connector-curvature="0"
         style="fill:#53585f" />
      <path
         style="fill:#53585f"
         d="m 824.06641,433.77539 c -4.39954,0.12134 -8.78125,1.74024 -12.36719,4.32617 1.1875,1.3125 2.34961,2.66172 3.53711,4.01172 3.7625,-2.85 8.975,-4.81211 13.5,-2.47461 2.6625,1.2625 3.15117,4.33633 3.63867,6.92383 -6.2,0.1875 -12.86289,-0.0484 -18.33789,3.35156 -5.375,3.4 -5.13828,12.46172 0.38672,15.57422 5.9625,3.425 14.10117,1.81172 18.13867,-3.80078 0.0125,1.5875 0.0379,3.2 0.0879,4.8125 1.775,-0.0125 3.56133,-0.0125 5.36133,0 -0.4625,-7.55 0.0629,-15.12383 -0.34961,-22.67383 -0.125,-3.675 -2.44922,-7.08711 -5.82422,-8.53711 -2.48437,-1.12031 -5.13176,-1.58647 -7.77148,-1.51367 z m 8.23242,17.30078 c -0.3875,2.875 -0.32461,6.1375 -2.41211,8.4375 -2.65,2.85 -7.2,3.52461 -10.75,2.22461 -3.325,-0.975 -4.08672,-6.10078 -1.19922,-7.98828 4.1,-3.0375 9.53633,-2.46133 14.36133,-2.67383 z"
         transform="matrix(0.8,0,0,0.8,220.4902,93.799296)"
         id="path3909"
         inkscape:connector-curvature="0" />
      <path
         id="path3911"
         d="m 899.29,443.23 c 4.4,-3.57 11.83,-3.3 15.56,1.16 -0.07,1.63 -2.08,2.36 -3.23,3.22 -2.29,-1.32 -4.87,-3.03 -7.58,-1.83 -2.48,0.24 -2.62,3.62 -0.69,4.7 3.2,1.88 7.36,1.53 10.3,3.99 3.34,2.93 2.77,8.86 -1,11.19 -5.21,3.13 -13.35,2.81 -16.93,-2.63 1.15,-0.96 2.3,-1.93 3.47,-2.87 2.24,1.76 4.89,3.59 7.92,2.79 2.28,-0.09 4.68,-2.65 2.89,-4.78 -3.18,-2.74 -8.15,-1.93 -11.28,-4.84 -2.85,-2.64 -2.53,-7.76 0.57,-10.1 z"
         inkscape:connector-curvature="0"
         style="fill:#53585f" />
      <path
         style="fill:#53585f"
         d="m 891.47266,433.70312 c -3.67932,-0.0191 -7.37539,1.14297 -10.19727,3.47266 -7.75,5.6625 -8.67617,17.87539 -2.26367,24.90039 6.9125,7.65 19.82539,6.425 26.46289,-1 -1.55,-1.2875 -3.07461,-2.56367 -4.59961,-3.82617 -2.5375,2.225 -5.19961,5.08906 -8.91211,4.72656 -5.3375,0.125 -10.31406,-3.78789 -10.85156,-9.21289 8.625,-0.075 17.25,0.0117 25.875,-0.0508 -0.45,-4.45 -0.4875,-9.33633 -3.3125,-13.04883 -2.77031,-3.95859 -7.47063,-5.93641 -12.20117,-5.96094 z M 891,438.61719 c 0.71135,-0.008 1.43555,0.0672 2.16211,0.23437 4.55,0.4 6.92461,4.88672 7.28711,9.01172 -6.4625,0 -12.925,0.0246 -19.375,-0.0254 0.56875,-5.04219 4.94631,-9.16465 9.92578,-9.2207 z"
         transform="matrix(0.8,0,0,0.8,220.4902,93.799296)"
         id="path3913"
         inkscape:connector-curvature="0" />
      <path
         id="path3915"
         d="m 953.31,443.21 c 4.18,-3.36 11.08,-3.31 14.94,0.55 1.87,1.76 -1.7,2.8 -2.61,4.02 -2.15,-1.67 -4.93,-3.17 -7.67,-1.97 -2.15,0.22 -2.62,3.11 -1.03,4.34 3.15,2.32 7.62,1.71 10.67,4.29 3.39,2.93 2.82,8.91 -0.99,11.24 -5.23,3.12 -13.26,2.74 -16.93,-2.61 1.17,-0.99 2.35,-1.96 3.54,-2.93 2.21,1.79 4.84,3.61 7.87,2.82 2.32,-0.09 4.72,-2.72 2.86,-4.84 -3.22,-2.68 -8.15,-1.9 -11.26,-4.81 -2.84,-2.66 -2.5,-7.77 0.61,-10.1 z"
         inkscape:connector-curvature="0"
         style="fill:#53585f" />
      <path
         id="path3917"
         d="m 194.11,443.15 c 5.55,-1.56 11.82,-0.23 16.22,3.51 4.5,3.69 6.97,9.68 6.34,15.47 -0.55,6.38 -4.87,12.25 -10.79,14.69 -5.91,2.6 -13.22,1.59 -18.2,-2.52 -4.85,-3.84 -7.43,-10.32 -6.48,-16.44 0.89,-6.89 6.2,-12.92 12.91,-14.71 z"
         inkscape:connector-curvature="0"
         style="fill:#ffffff" />
      <path
         id="path3919"
         d="m 215.01,443.04 c 17.32,-0.06 34.64,0 51.96,-0.04 l -0.02,1.19 c -16.83,0.2 -33.67,-0.36 -50.48,0.28 -0.48,-0.5 -0.96,-0.97 -1.46,-1.43 z"
         inkscape:connector-curvature="0"
         style="fill:#afb3b3" />
      <path
         id="path3921"
         d="m 97.22,443.62 c 28.13,0.3 56.28,-0.27 84.4,0.32 -1.33,1.76 -2.61,3.55 -3.85,5.38 -27.7,-0.19 -55.4,0.21 -83.09,-0.21 0.85,-1.83 1.71,-3.66 2.54,-5.49 z"
         inkscape:connector-curvature="0"
         style="fill:#e9ebee" />
      <path
         id="path3923"
         d="m 216.47,444.47 c 16.81,-0.64 33.65,-0.08 50.48,-0.28 0,1.57 0.01,3.15 0.02,4.74 -15.74,0 -31.49,-0.15 -47.23,0.08 -0.97,-1.6 -2.09,-3.1 -3.27,-4.54 z"
         inkscape:connector-curvature="0"
         style="fill:#e9ebee" />
      <path
         id="path3935"
         d="m 219.74,449.01 c 15.74,-0.23 31.49,-0.08 47.23,-0.08 l 0.08,1.07 c -15.55,0.24 -31.13,-0.49 -46.65,0.37 -0.17,-0.34 -0.5,-1.02 -0.66,-1.36 z"
         inkscape:connector-curvature="0"
         style="fill:#abafae" />
      <path
         id="path3937"
         d="m 94.2,449.61 c 27.78,0.24 55.57,-0.02 83.35,0.14 -0.59,1.5 -1.17,3.01 -1.74,4.52 -28,0.03 -56.01,0.21 -84.01,-0.11 0.8,-1.52 1.6,-3.04 2.4,-4.55 z"
         inkscape:connector-curvature="0"
         style="fill:#e9ebee" />
      <path
         id="path3939"
         d="m 220.4,450.37 c 15.52,-0.86 31.1,-0.13 46.65,-0.37 -0.17,1.47 -0.34,2.94 -0.5,4.42 -14.82,-0.29 -29.67,-0.09 -44.5,-0.1 -0.54,-1.33 -1.09,-2.64 -1.65,-3.95 z"
         inkscape:connector-curvature="0"
         style="fill:#e9ebee" />
      <path
         id="path3941"
         d="m 91.26,454.65 c 28.13,0.13 56.27,0.14 84.4,0.02 -0.21,1.45 -0.41,2.9 -0.61,4.37 -28.83,-0.08 -57.66,-0.03 -86.49,-0.03 0.93,-1.44 1.82,-2.9 2.7,-4.36 z"
         inkscape:connector-curvature="0"
         style="fill:#e9ebee" />
      <path
         id="path3943"
         d="m 222.17,454.72 c 15.01,-0.19 30.04,0.3 45.04,-0.25 -0.23,1.67 -0.46,3.34 -0.68,5.02 -14.58,-0.31 -29.17,-0.17 -43.75,-0.08 -0.21,-1.57 -0.41,-3.13 -0.61,-4.69 z"
         inkscape:connector-curvature="0"
         style="fill:#e9ebee" />
      <path
         id="path3951"
         d="m 87.68,460.17 c 0.22,-0.29 0.66,-0.87 0.88,-1.16 28.83,0 57.66,-0.05 86.49,0.03 l -0.14,1.12 c -20.27,0.48 -40.57,0.07 -60.85,0.21 -8.8,-0.08 -17.59,0.18 -26.38,-0.2 z"
         inkscape:connector-curvature="0"
         style="fill:#b8bbbb" />
      <path
         id="path3953"
         d="m 87.68,460.17 c 8.79,0.38 17.58,0.12 26.38,0.2 20.28,-0.14 40.58,0.27 60.85,-0.21 0.08,1.61 0.24,3.23 0.46,4.84 -30.51,-0.02 -61.02,0.03 -91.54,0.06 1.31,-1.62 2.59,-3.25 3.85,-4.89 z"
         inkscape:connector-curvature="0"
         style="fill:#e9ebee" />
      <path
         id="path3955"
         d="m 222.92,459.75 c 14.75,-0.29 29.5,0.15 44.25,-0.21 -0.1,1.82 -0.19,3.66 -0.28,5.49 -14.83,-0.07 -29.67,0 -44.49,-0.03 0.22,-1.75 0.36,-3.51 0.52,-5.25 z"
         inkscape:connector-curvature="0"
         style="fill:#e9ebee" />
      <path
         id="path3957"
         d="m 83.83,465.06 c 30.52,-0.03 61.03,-0.08 91.54,-0.06 0.41,1.75 0.95,3.47 1.55,5.18 -32.51,0.1 -65.03,0.19 -97.53,0.02 1.53,-1.68 3.01,-3.39 4.44,-5.14 z"
         inkscape:connector-curvature="0"
         style="fill:#51a7f9" />
      <path
         id="path3959"
         d="m 220.79,470.23 c 0.65,-1.71 1.21,-3.45 1.61,-5.23 14.82,0.03 29.66,-0.04 44.49,0.03 3.68,0.03 7.36,0.03 11.04,0.03 0,1.72 0.01,3.45 0.01,5.18 -19.05,0.03 -38.1,0.05 -57.15,-0.01 z"
         inkscape:connector-curvature="0"
         style="fill:#51a7f9" />
    </g>
  </g>
</svg>
