<?xml version="1.0" encoding="UTF-8" standalone="no"?>
<!-- Created with Inkscape (http://www.inkscape.org/) -->

<svg
   xmlns:dc="http://purl.org/dc/elements/1.1/"
   xmlns:cc="http://creativecommons.org/ns#"
   xmlns:rdf="http://www.w3.org/1999/02/22-rdf-syntax-ns#"
   xmlns:svg="http://www.w3.org/2000/svg"
   xmlns="http://www.w3.org/2000/svg"
   xmlns:sodipodi="http://sodipodi.sourceforge.net/DTD/sodipodi-0.dtd"
   xmlns:inkscape="http://www.inkscape.org/namespaces/inkscape"
   width="56.444447mm"
   height="47.883564mm"
   viewBox="0 0 200.00001 169.66617"
   id="svg2"
   version="1.1"
   inkscape:version="0.91 r13725"
   sodipodi:docname="stay-healthy-logo.svg">
  <defs
     id="defs4" />
  <sodipodi:namedview
     id="base"
     pagecolor="#ffffff"
     bordercolor="#666666"
     borderopacity="1.0"
     inkscape:pageopacity="0.0"
     inkscape:pageshadow="2"
     inkscape:zoom="1.979899"
     inkscape:cx="215.35856"
     inkscape:cy="55.392644"
     inkscape:document-units="px"
     inkscape:current-layer="layer2"
     showgrid="false"
     showguides="true"
     inkscape:guide-bbox="true"
     fit-margin-top="0"
     fit-margin-left="0"
     fit-margin-right="0"
     fit-margin-bottom="0"
     inkscape:window-width="3840"
     inkscape:window-height="2067"
     inkscape:window-x="2160"
     inkscape:window-y="93"
     inkscape:window-maximized="0" />
  <metadata
     id="metadata7">
    <rdf:RDF>
      <cc:Work
         rdf:about="">
        <dc:format>image/svg+xml</dc:format>
        <dc:type
           rdf:resource="http://purl.org/dc/dcmitype/StillImage" />
        <dc:title></dc:title>
      </cc:Work>
    </rdf:RDF>
  </metadata>
  <g
     inkscape:groupmode="layer"
     id="layer2"
     inkscape:label="Layer 2"
     transform="translate(-274.36831,-403.28179)">
    <g
       id="g4246"
       transform="matrix(0.06748123,0,0,0.06748123,356.30423,452.92151)">
      <rect
         style="fill:#029ae4;fill-opacity:1;stroke:none;stroke-width:2;stroke-miterlimit:4;stroke-dasharray:none;stroke-opacity:1"
         id="rect4184"
         width="2355.6755"
         height="1753.6249"
         x="-606.09155"
         y="-735.60785"
         rx="209.40802"
         ry="223.8454" />
      <path
         sodipodi:nodetypes="cccccc"
         inkscape:connector-curvature="0"
         id="path4244"
         d="m 1081.4286,-373.35209 666.1074,666.10746 2.0482,520.20068 c -17.931,139.27178 -92.4187,190.83735 -184.8579,204.05085 l -482.8529,2.0203 z"
         style="fill:#0076b1;fill-opacity:1;fill-rule:evenodd;stroke:none;stroke-width:1px;stroke-linecap:butt;stroke-linejoin:miter;stroke-opacity:1" />
      <path
         id="rect4182"
         d="m -1004.7949,-436.60352 c -116.0121,0 -209.4082,99.83536 -209.4082,223.84571 l 0,1305.93551 c 0,124.0104 93.3961,223.8438 209.4082,223.8438 l 390.62302,0 0,403.5566 0,0.5059 0.0176,0.01 a 58.083771,58.083771 0 0 0 58.06446,57.5703 58.083771,58.083771 0 0 0 44.48828,-20.748 l 440.890622,-440.8926 1002.775388,0 c 116.01203,0 209.40823,-99.8334 209.40823,-223.8438 l 0,-1305.93551 c 0,-124.01035 -93.3962,-223.84571 -209.40823,-223.84571 l -1936.85937,0 z"
         style="fill:#20aded;fill-opacity:1;stroke:none;stroke-width:2;stroke-miterlimit:4;stroke-dasharray:none;stroke-opacity:1"
         inkscape:connector-curvature="0" />
      <g
         id="flowRoot4199"
         style="font-style:normal;font-weight:normal;font-size:40px;line-height:124.00000095%;font-family:sans-serif;letter-spacing:0px;word-spacing:0px;fill:#ffffff;fill-opacity:1;stroke:none;stroke-width:1px;stroke-linecap:butt;stroke-linejoin:miter;stroke-opacity:1"
         transform="translate(2951.4286,85.714287)">
        <path
           id="path4212"
           style="font-style:normal;font-variant:normal;font-weight:bold;font-stretch:normal;font-size:375px;line-height:102.99999714%;font-family:sans-serif;-inkscape-font-specification:'sans-serif Bold';letter-spacing:-25px;word-spacing:-35.54999924px;fill:#ffffff;fill-opacity:1"
           d="m -3757.0039,-207.30481 70.4956,0 0,104.18701 104.0039,0 0,-104.18701 70.4956,0 0,273.376464 -70.4956,0 0,-115.905762 -104.0039,0 0,115.905762 -70.4956,0 0,-273.376464 z"
           inkscape:connector-curvature="0" />
        <path
           id="path4214"
           style="font-style:normal;font-variant:normal;font-weight:bold;font-stretch:normal;font-size:375px;line-height:102.99999714%;font-family:sans-serif;-inkscape-font-specification:'sans-serif Bold';letter-spacing:-25px;word-spacing:-35.54999924px;fill:#ffffff;fill-opacity:1"
           d="m -3373.1294,-97.075319 q -21.7895,0 -33.3252,15.747071 -11.3525,15.563965 -11.3525,45.043945 0,29.4799805 11.3525,45.2270508 11.5357,15.5639652 33.3252,15.5639652 21.4233,0 32.7759,-15.5639652 11.3525,-15.7470703 11.3525,-45.2270508 0,-29.47998 -11.3525,-45.043945 -11.3526,-15.747071 -32.7759,-15.747071 z m 0,-46.875001 q 52.9175,0 82.5806,28.56445 29.8462,28.564458 29.8462,79.101567 0,50.537109 -29.8462,79.101563 -29.6631,28.564453 -82.5806,28.564453 -53.1006,0 -83.1299,-28.564453 -29.8462,-28.564454 -29.8462,-79.101563 0,-50.537109 29.8462,-79.101567 30.0293,-28.56445 83.1299,-28.56445 z"
           inkscape:connector-curvature="0" />
        <path
           id="path4216"
           style="font-style:normal;font-variant:normal;font-weight:bold;font-stretch:normal;font-size:375px;line-height:102.99999714%;font-family:sans-serif;-inkscape-font-specification:'sans-serif Bold';letter-spacing:-25px;word-spacing:-35.54999924px;fill:#ffffff;fill-opacity:1"
           d="m -3256.2227,-139.00647 63.7207,0 34.4239,141.357421 34.6069,-141.357421 54.7485,0 34.4239,139.89257722 34.6069,-139.89257722 63.7207,0 -54.0161,205.078124 -71.5942,0 -34.607,-140.991211 -34.4238,140.991211 -71.5942,0 -54.0162,-205.078124 z"
           inkscape:connector-curvature="0" />
        <path
           id="path4218"
           style="font-style:normal;font-variant:normal;font-weight:bold;font-stretch:normal;font-size:375px;line-height:102.99999714%;font-family:sans-serif;-inkscape-font-specification:'sans-serif Bold';letter-spacing:-25px;word-spacing:-35.54999924px;fill:#ffffff;fill-opacity:1"
           d="m -2843.7258,-207.30481 70.4956,0 0,273.376464 -70.4956,0 0,-273.376464 z"
           inkscape:connector-curvature="0" />
        <path
           id="path4220"
           style="font-style:normal;font-variant:normal;font-weight:bold;font-stretch:normal;font-size:375px;line-height:102.99999714%;font-family:sans-serif;-inkscape-font-specification:'sans-serif Bold';letter-spacing:-25px;word-spacing:-35.54999924px;fill:#ffffff;fill-opacity:1"
           d="m -3566.7573,187.55115 0,57.86132 q -22.522,-10.0708 -43.9453,-15.19775 -21.4234,-5.12695 -40.4663,-5.12695 -25.2686,0 -37.3536,6.95801 -12.0849,6.958 -12.0849,21.60644 0,10.98633 8.0566,17.21191 8.2398,6.04249 29.6631,10.43702 l 30.0293,6.04248 q 45.5933,9.15527 64.8193,27.83203 19.2261,18.67676 19.2261,53.10058 0,45.22705 -26.9165,67.38282 -26.7334,21.97265 -81.8481,21.97265 -26.001,0 -52.1851,-4.94384 -26.1841,-4.94385 -52.3682,-14.64844 l 0,-59.50928 q 26.1841,13.91602 50.5371,21.05713 24.5362,6.95801 47.2413,6.95801 23.0712,0 35.3393,-7.69043 12.2681,-7.69043 12.2681,-21.97266 0,-12.81738 -8.4229,-19.77539 -8.2397,-6.95801 -33.1421,-12.45117 l -27.2827,-6.04248 q -41.0156,-8.78906 -60.0586,-28.01514 -18.8598,-19.22607 -18.8598,-51.81885 0,-40.83252 26.3672,-62.80517 26.3671,-21.97266 75.8056,-21.97266 22.522,0 46.3257,3.47901 23.8037,3.29589 49.2554,10.0708 z"
           inkscape:connector-curvature="0" />
        <path
           id="path4222"
           style="font-style:normal;font-variant:normal;font-weight:bold;font-stretch:normal;font-size:375px;line-height:102.99999714%;font-family:sans-serif;-inkscape-font-specification:'sans-serif Bold';letter-spacing:-25px;word-spacing:-35.54999924px;fill:#ffffff;fill-opacity:1"
           d="m -3443.0757,189.01599 0,58.22754 67.5659,0 0,46.875 -67.5659,0 0,86.9751 q 0,14.28222 5.6763,19.40918 5.6763,4.94384 22.522,4.94384 l 33.6914,0 0,46.875 -56.2134,0 q -38.8184,0 -55.1148,-16.11328 -16.1132,-16.29638 -16.1132,-55.11474 l 0,-86.9751 -32.5928,0 0,-46.875 32.5928,0 0,-58.22754 65.5517,0 z"
           inkscape:connector-curvature="0" />
        <path
           id="path4224"
           style="font-style:normal;font-variant:normal;font-weight:bold;font-stretch:normal;font-size:375px;line-height:102.99999714%;font-family:sans-serif;-inkscape-font-specification:'sans-serif Bold';letter-spacing:-25px;word-spacing:-35.54999924px;fill:#ffffff;fill-opacity:1"
           d="m -3268.3076,360.0365 q -20.5078,0 -30.9448,6.95801 -10.2539,6.958 -10.2539,20.50781 0,12.45117 8.2397,19.59228 8.4228,6.95801 23.2544,6.95801 18.4936,0 31.1279,-13.18359 12.6343,-13.3667 12.6343,-33.3252 l 0,-7.50732 -34.0576,0 z m 100.1587,-24.71924 0,117.00439 -66.1011,0 0,-30.3955 q -13.1836,18.67675 -29.6631,27.28271 -16.4795,8.42285 -40.1001,8.42285 -31.8603,0 -51.8188,-18.49365 -19.7754,-18.67676 -19.7754,-48.33984 0,-36.07178 24.7192,-52.91748 24.9024,-16.84571 78.0029,-16.84571 l 38.6353,0 0,-5.12695 q 0,-15.56396 -12.2681,-22.70508 -12.268,-7.32422 -38.269,-7.32422 -21.0571,0 -39.1846,4.21143 -18.1274,4.21142 -33.6914,12.63428 l 0,-49.9878 q 21.0571,-5.12695 42.2974,-7.69043 21.2402,-2.74658 42.4804,-2.74658 55.481,0 80.0171,21.97266 24.7193,21.78955 24.7193,71.04492 z"
           inkscape:connector-curvature="0" />
        <path
           id="path4226"
           style="font-style:normal;font-variant:normal;font-weight:bold;font-stretch:normal;font-size:375px;line-height:102.99999714%;font-family:sans-serif;-inkscape-font-specification:'sans-serif Bold';letter-spacing:-25px;word-spacing:-35.54999924px;fill:#ffffff;fill-opacity:1"
           d="m -3170.4438,247.24353 65.5517,0 55.1148,139.16016 46.875,-139.16016 65.5517,0 -86.2427,224.4873 q -13.0005,34.24073 -30.3955,47.79053 -17.2119,13.73291 -45.5932,13.73291 l -37.9029,0 0,-43.02978 20.5078,0 q 16.6626,0 24.17,-5.31006 7.6904,-5.31006 11.9018,-19.04297 l 1.8311,-5.67627 -91.3696,-212.95166 z"
           inkscape:connector-curvature="0" />
        <path
           id="path4228"
           style="font-style:normal;font-variant:normal;font-weight:bold;font-stretch:normal;font-size:375px;line-height:102.99999714%;font-family:sans-serif;-inkscape-font-specification:'sans-serif Bold';letter-spacing:-25px;word-spacing:-35.54999924px;fill:#ffffff;fill-opacity:1"
           d="m -3757.0039,565.19519 70.4956,0 0,104.18701 104.0039,0 0,-104.18701 70.4956,0 0,273.37646 -70.4956,0 0,-115.90576 -104.0039,0 0,115.90576 -70.4956,0 0,-273.37646 z"
           inkscape:connector-curvature="0" />
        <path
           id="path4230"
           style="font-style:normal;font-variant:normal;font-weight:bold;font-stretch:normal;font-size:375px;line-height:102.99999714%;font-family:sans-serif;-inkscape-font-specification:'sans-serif Bold';letter-spacing:-25px;word-spacing:-35.54999924px;fill:#ffffff;fill-opacity:1"
           d="m -3266.0127,735.48328 0,18.67675 -153.2593,0 q 2.3804,23.07129 16.6626,34.60694 14.2823,11.53564 39.917,11.53564 20.6909,0 42.2974,-6.04248 21.7895,-6.22559 44.6777,-18.67676 l 0,50.53711 q -23.2544,8.78906 -46.5088,13.1836 -23.2544,4.57763 -46.5088,4.57763 -55.664,0 -86.6089,-28.19824 -30.7617,-28.38135 -30.7617,-79.46777 0,-50.1709 30.2124,-78.91846 30.3955,-28.74756 83.4961,-28.74756 48.3399,0 77.2705,29.11377 29.1138,29.11377 29.1138,77.81983 z m -67.3828,-21.78956 q 0,-18.67675 -10.9863,-30.02929 -10.8033,-11.53565 -28.3814,-11.53565 -19.043,0 -30.9448,10.80323 -11.9019,10.62011 -14.8316,30.76171 l 85.1441,0 z"
           inkscape:connector-curvature="0" />
        <path
           id="path4232"
           style="font-style:normal;font-variant:normal;font-weight:bold;font-stretch:normal;font-size:375px;line-height:102.99999714%;font-family:sans-serif;-inkscape-font-specification:'sans-serif Bold';letter-spacing:-25px;word-spacing:-35.54999924px;fill:#ffffff;fill-opacity:1"
           d="m -3149.6553,746.2865 q -20.5078,0 -30.9448,6.95801 -10.2539,6.958 -10.2539,20.50781 0,12.45117 8.2397,19.59228 8.4229,6.95801 23.2544,6.95801 18.4937,0 31.128,-13.18359 12.6342,-13.3667 12.6342,-33.3252 l 0,-7.50732 -34.0576,0 z m 100.1587,-24.71924 0,117.00439 -66.1011,0 0,-30.3955 q -13.1836,18.67675 -29.663,27.28271 -16.4795,8.42285 -40.1001,8.42285 -31.8604,0 -51.8189,-18.49365 -19.7754,-18.67676 -19.7754,-48.33984 0,-36.07178 24.7193,-52.91748 24.9023,-16.84571 78.0029,-16.84571 l 38.6352,0 0,-5.12695 q 0,-15.56396 -12.268,-22.70508 -12.2681,-7.32422 -38.2691,-7.32422 -21.0571,0 -39.1845,4.21143 -18.1275,4.21142 -33.6914,12.63428 l 0,-49.9878 q 21.0571,-5.12695 42.2973,-7.69043 21.2403,-2.74658 42.4805,-2.74658 55.4809,0 80.0171,21.97266 24.7192,21.78955 24.7192,71.04492 z"
           inkscape:connector-curvature="0" />
        <path
           id="path4234"
           style="font-style:normal;font-variant:normal;font-weight:bold;font-stretch:normal;font-size:375px;line-height:102.99999714%;font-family:sans-serif;-inkscape-font-specification:'sans-serif Bold';letter-spacing:-25px;word-spacing:-35.54999924px;fill:#ffffff;fill-opacity:1"
           d="m -3013.1563,553.65954 65.5518,0 0,284.91211 -65.5518,0 0,-284.91211 z"
           inkscape:connector-curvature="0" />
        <path
           id="path4236"
           style="font-style:normal;font-variant:normal;font-weight:bold;font-stretch:normal;font-size:375px;line-height:102.99999714%;font-family:sans-serif;-inkscape-font-specification:'sans-serif Bold';letter-spacing:-25px;word-spacing:-35.54999924px;fill:#ffffff;fill-opacity:1"
           d="m -2837.6558,575.26599 0,58.22754 67.566,0 0,46.875 -67.566,0 0,86.9751 q 0,14.28222 5.6763,19.40918 5.6763,4.94384 22.522,4.94384 l 33.6914,0 0,46.875 -56.2134,0 q -38.8184,0 -55.1147,-16.11328 -16.1133,-16.29638 -16.1133,-55.11474 l 0,-86.9751 -32.5928,0 0,-46.875 32.5928,0 0,-58.22754 65.5517,0 z"
           inkscape:connector-curvature="0" />
        <path
           id="path4238"
           style="font-style:normal;font-variant:normal;font-weight:bold;font-stretch:normal;font-size:375px;line-height:102.99999714%;font-family:sans-serif;-inkscape-font-specification:'sans-serif Bold';letter-spacing:-25px;word-spacing:-35.54999924px;fill:#ffffff;fill-opacity:1"
           d="m -2548.6299,713.69372 0,124.87793 -65.918,0 0,-20.3247 0,-74.89014 q 0,-26.9165 -1.2817,-36.9873 -1.0986,-10.07081 -4.0283,-14.83155 -3.8452,-6.40869 -10.437,-9.88769 -6.5918,-3.66211 -15.0147,-3.66211 -20.5078,0 -32.2265,15.93017 -11.7188,15.74707 -11.7188,43.76221 l 0,100.89111 -65.5517,0 0,-284.91211 65.5517,0 0,109.86329 q 14.8316,-17.94434 31.4942,-26.36719 16.6626,-8.60596 36.8042,-8.60596 35.5224,0 53.833,21.78955 18.4936,21.78955 18.4936,63.35449 z"
           inkscape:connector-curvature="0" />
        <path
           id="path4240"
           style="font-style:normal;font-variant:normal;font-weight:bold;font-stretch:normal;font-size:375px;line-height:102.99999714%;font-family:sans-serif;-inkscape-font-specification:'sans-serif Bold';letter-spacing:-25px;word-spacing:-35.54999924px;fill:#ffffff;fill-opacity:1"
           d="m -2539.3892,633.49353 65.5518,0 55.1147,139.16016 46.875,-139.16016 65.5518,0 -86.2427,224.4873 q -13.0005,34.24073 -30.3955,47.79053 -17.2119,13.73291 -45.5932,13.73291 l -37.9029,0 0,-43.02978 20.5078,0 q 16.6626,0 24.17,-5.31006 7.6904,-5.31006 11.9018,-19.04297 l 1.8311,-5.67627 -91.3697,-212.95166 z"
           inkscape:connector-curvature="0" />
      </g>
    </g>
  </g>
</svg>
