<?xml version="1.0" encoding="UTF-8" standalone="no"?>
<!-- Created with Inkscape (http://www.inkscape.org/) -->

<svg
   xmlns:dc="http://purl.org/dc/elements/1.1/"
   xmlns:cc="http://creativecommons.org/ns#"
   xmlns:rdf="http://www.w3.org/1999/02/22-rdf-syntax-ns#"
   xmlns:svg="http://www.w3.org/2000/svg"
   xmlns="http://www.w3.org/2000/svg"
   xmlns:sodipodi="http://sodipodi.sourceforge.net/DTD/sodipodi-0.dtd"
   xmlns:inkscape="http://www.inkscape.org/namespaces/inkscape"
   width="207.77972mm"
   height="144.15884mm"
   viewBox="0 0 736.22737 510.79905"
   id="svg2"
   version="1.1"
   inkscape:version="0.91 r13725"
   sodipodi:docname="wellness-think-tank-logo.svg">
  <defs
     id="defs4" />
  <sodipodi:namedview
     id="base"
     pagecolor="#ffffff"
     bordercolor="#666666"
     borderopacity="1.0"
     inkscape:pageopacity="0.0"
     inkscape:pageshadow="2"
     inkscape:zoom="1.4"
     inkscape:cx="400.01173"
     inkscape:cy="202.77387"
     inkscape:document-units="px"
     inkscape:current-layer="layer4"
     showgrid="false"
     inkscape:window-width="3840"
     inkscape:window-height="2067"
     inkscape:window-x="2160"
     inkscape:window-y="93"
     inkscape:window-maximized="0"
     showguides="true"
     inkscape:guide-bbox="true"
     fit-margin-top="0"
     fit-margin-left="0"
     fit-margin-right="0"
     fit-margin-bottom="0" />
  <metadata
     id="metadata7">
    <rdf:RDF>
      <cc:Work
         rdf:about="">
        <dc:format>image/svg+xml</dc:format>
        <dc:type
           rdf:resource="http://purl.org/dc/dcmitype/StillImage" />
        <dc:title />
      </cc:Work>
    </rdf:RDF>
  </metadata>
  <g
     inkscape:groupmode="layer"
     id="layer5"
     inkscape:label="Brain"
     style="display:inline"
     transform="translate(11.785635,-242.86635)">
    <path
       style="display:inline;fill:#00b092;fill-opacity:1"
       d="m 542.44171,601.01056 c -16.17704,-1.64685 -36.99681,-2.84187 -52.74896,-11.5515 -5.90949,-3.26746 -10.64727,-7.78143 -14.19251,-14.45536 -1.04552,-1.96819 -2.58698,-5.95589 -2.7068,-6.11352 -0.11982,-0.15762 -3.42076,1.84113 -7.48974,3.20705 -12.50186,4.19673 -25.052,4.90313 -38.33956,3.08666 -18.49277,-2.52804 -51.06478,-8.40907 -54.44462,-13.08227 0.47137,-3.85246 2.92406,-15.86742 3.83147,-17.2671 1.97177,-3.04144 45.05766,-28.18623 59.85253,-32.03593 2.05237,7.07228 4.22731,13.20813 9.02481,17.82909 19.20922,18.50238 46.44875,28.67741 72.69182,33.43488 20.09449,3.64282 41.32722,0.65399 61.10542,-4.43341 10.93975,-2.81395 21.60505,-7.5814 30.78705,-14.1607 18.95435,-13.58162 37.4815,-36.41536 48.11225,-50.78151 10.63075,-14.36616 18.38297,-32.42849 18.38297,-32.42849 0,0 -24.29779,4.65591 -36.4003,3.26523 -28.70801,-3.29879 -53.91131,-21.92969 -82.33678,-27.1282 -16.12831,-2.94958 -33.0648,-5.36037 -49.14092,-2.13844 -17.27039,3.46128 -34.75395,10.66132 -47.82905,22.46338 -10.55455,9.52692 -16.0514,15.45956 -21.97943,36.55615 -22.05027,7.14712 -34.00605,12.43976 -54.80465,23.52933 0,-0.54321 3.12843,-8.62344 6.18819,-16.4283 6.69132,-17.06833 21.83703,-47.93652 31.16054,-63.50772 l 6.77627,-11.31705 10.5,-0.45207 c 26.69405,-1.14928 52.53496,-7.16131 84.38616,-19.63291 12.19512,-4.7751 12.92537,-4.94901 12.92537,-4.94901 11.86697,17.38106 39.41613,28.59243 61.17388,25.08337 28.49747,-4.59603 48.31427,-29.70503 65.73235,-56.37661 0,0 -15.52272,1.95695 -23.04447,0.39307 -11.63037,-2.41812 -20.96541,-11.67503 -32.43685,-14.76029 -9.95799,-2.67822 -20.69026,-5.14074 -30.78586,-3.03995 -11.18448,2.32737 -22.21099,8.27333 -29.93177,16.69347 -6.1891,6.74972 -10.27908,18.95043 -11.25625,25.06132 -31.16031,12.22149 -63.14288,22.35152 -100.63237,21.31248 4.11256,-7.99698 20.0734,-29.87783 24.49375,-35.42788 9.36762,2.72703 22.01655,4.29104 32.98586,3.02986 13.01518,-1.4964 26.35837,-5.17957 37.30091,-12.38338 12.04823,-7.93172 22.47726,-20.10958 28.75856,-32.33564 5.23211,-10.18389 10.62713,-21.47879 19.2387,-29.42791 7.73034,-7.13567 27.71155,-15.10475 27.71155,-15.10475 -22.75842,-9.98157 -44.34887,-19.35781 -67.95881,-23.47697 -15.82468,-2.76088 -32.52655,-4.19441 -48.18718,-0.61844 -13.35697,3.04995 -26.42151,9.3661 -36.79655,18.31425 -11.79433,10.17224 -22.37874,23.36594 -26.73808,38.31843 -2.67782,9.18489 -2.56492,19.88197 1.20147,28.6767 3.61395,8.43879 11.29705,14.94909 19.11978,19.82166 l -7.68149,10.24557 c -20.43513,27.25639 -46.25967,69.19897 -55.98053,90.92004 -1.04604,2.33733 -2.2268,4.2497 -2.62393,4.2497 -1.0398,0 -9.92276,-13.76142 -17.4469,-27.02863 l -6.47053,-11.40938 c 0,0 21.17371,-11.02347 29.32616,-19.45981 10.418,-10.78078 19.08705,-23.999 23.5708,-38.3048 8.68922,-27.72371 -2.67442,-58.96597 4.86278,-87.02479 2.90469,-10.81332 7.55831,-16.0816 15.18348,-29.96245 0,0 -40.00357,4.53959 -58.54847,11.77683 -23.04274,8.99255 -46.3131,20.65522 -63.43014,38.51133 -12.28087,12.81113 -22.75307,29.13242 -25.68328,46.63552 -4.32543,25.83717 -5.90115,59.74893 13.42406,77.43522 11.92148,10.91046 48.31382,4.02648 48.31382,4.02648 8.95539,18.25079 20.5244,36.67003 29.95947,50.7805 -6.66384,14.04899 -11.05843,29.34188 -16.05971,46.05951 -7.45928,-16.85936 -9.03229,-34.36434 -9.83014,-47.35968 -0.17555,-0.17556 -6.93937,-0.23875 -14.25906,-0.75775 -36.89412,-2.61597 -55.54129,-8.96514 -68.69894,-23.39126 -18.66662,-20.46622 -23.27601,-60.95101 -11.6039,-101.91838 10.50326,-36.86486 43.15932,-75.28026 80.299,-94.46082 12.27998,-6.34193 36.90026,-16.22732 51.1173,-20.52432 71.18307,-21.51461 147.56167,-14.96363 213.94724,18.35021 16.7809,8.42104 26.13453,14.45975 37.55276,24.24407 42.62359,36.52429 72.18248,86.01334 84.38536,141.2824 2.95492,13.38339 5.11464,30.43196 5.11464,40.37442 0,32.69846 -23.98489,61.83845 -56.41797,68.54396 l -6.35991,1.09727 -1.22696,7.05531 c -2.7265,15.67804 -9.06181,23.87283 -19.30004,30.27144 -16.77388,10.48322 -41.23924,12.62464 -54.90571,14.10543 -8.98273,0.97331 -35.6703,1.20233 -43.78941,0.37579 z"
       id="path4147"
       inkscape:connector-curvature="0"
       sodipodi:nodetypes="sascsscscaaaazcaaaaccsscsscacaaaacccaasacaaaaacsssscaaacaaaaccccsssssssssscssss" />
  </g>
  <g
     inkscape:groupmode="layer"
     id="layer2"
     inkscape:label="Wellness"
     style="display:inline"
     transform="translate(11.785635,-242.86635)">
    <g
       inkscape:groupmode="layer"
       id="layer6"
       inkscape:label="Group">
      <g
         id="g4398"
         style="fill:#00b092;fill-opacity:1">
        <g
           id="text4175-0-8"
           style="font-style:normal;font-weight:normal;font-size:35.29906464px;line-height:125%;font-family:sans-serif;letter-spacing:0px;word-spacing:0px;display:inline;fill:#00b092;fill-opacity:1;stroke:none;stroke-width:1px;stroke-linecap:butt;stroke-linejoin:miter;stroke-opacity:1"
           transform="matrix(1.0430966,0,0,0.95868398,46.052252,-0.01004826)">
          <path
             sodipodi:nodetypes="zsaccacssacssccsssaz"
             inkscape:connector-curvature="0"
             id="path4313-7"
             style="font-style:normal;font-variant:normal;font-weight:normal;font-stretch:normal;font-size:99.27861023px;font-family:'Open Sans';-inkscape-font-specification:'Open Sans';letter-spacing:-4.59770441px;fill:#00b092;fill-opacity:1;stroke:none;stroke-width:0.2;stroke-miterlimit:4;stroke-dasharray:none;stroke-opacity:1"
             d="m 348.91416,648.97159 c -0.13077,3.84004 -1.6979,8.79654 -5.01177,12.00009 -3.80523,3.67854 -9.8684,4.86852 -14.99781,4.22106 -6.47152,-0.81686 -12.35752,-2.15598 -17.2989,-9.89745 l 5.53813,-4.92986 c 3.51843,5.42801 6.8732,7.36516 11.34941,8.21904 3.44088,0.65639 7.82629,-0.4768 10.17938,-2.71192 2.3531,-2.23512 3.98012,-5.48942 2.81832,-8.7248 -1.94938,-5.42862 -9.461,-6.25175 -14.57754,-7.35821 -4.34194,-0.93895 -8.85775,-3.36391 -11.49908,-7.22925 -1.69396,-2.47896 -2.33865,-5.71906 -1.9567,-9.01931 0.38194,-3.30026 1.87686,-7.06587 4.55756,-9.47109 3.73942,-3.35514 7.23428,-4.63724 13.37456,-4.63724 5.72015,0 13.09656,2.38175 16.25818,9.41726 l -6.31006,4.50272 c -2.69947,-4.63422 -5.60023,-7.16518 -10.52983,-7.18183 -4.05398,-0.0137 -10.19458,2.71821 -10.357,7.16621 -0.28436,7.78758 8.29697,8.95352 13.00469,10.02718 4.44773,1.01436 9.25843,2.69076 12.32546,6.33935 2.0418,2.42896 3.26377,5.42801 3.133,9.26805 z" />
        </g>
        <g
           id="text4175-0"
           style="font-style:normal;font-weight:normal;font-size:35.29906464px;line-height:125%;font-family:sans-serif;letter-spacing:0px;word-spacing:0px;display:inline;fill:#00b092;fill-opacity:1;stroke:none;stroke-width:1px;stroke-linecap:butt;stroke-linejoin:miter;stroke-opacity:1"
           transform="scale(1.0430966,0.95868398)">
          <path
             sodipodi:nodetypes="zsaccacssacssccsssaz"
             inkscape:connector-curvature="0"
             id="path4313"
             style="font-style:normal;font-variant:normal;font-weight:normal;font-stretch:normal;font-size:99.27861023px;font-family:'Open Sans';-inkscape-font-specification:'Open Sans';letter-spacing:-4.59770441px;fill:#00b092;fill-opacity:1;stroke:none;stroke-width:0.2;stroke-miterlimit:4;stroke-dasharray:none;stroke-opacity:1"
             d="m 348.91416,648.97159 c -0.13077,3.84004 -1.6979,8.79654 -5.01177,12.00009 -3.80523,3.67854 -9.8684,4.86852 -14.99781,4.22106 -6.47152,-0.81686 -12.35752,-2.15598 -17.2989,-9.89745 l 5.53813,-4.92986 c 3.51843,5.42801 6.8732,7.36516 11.34941,8.21904 3.44088,0.65639 7.82629,-0.4768 10.17938,-2.71192 2.3531,-2.23512 3.98012,-5.48942 2.81832,-8.7248 -1.94938,-5.42862 -9.461,-6.25175 -14.57754,-7.35821 -4.34194,-0.93895 -8.85775,-3.36391 -11.49908,-7.22925 -1.69396,-2.47896 -2.33865,-5.71906 -1.9567,-9.01931 0.38194,-3.30026 1.87686,-7.06587 4.55756,-9.47109 3.73942,-3.35514 7.23428,-4.63724 13.37456,-4.63724 5.72015,0 13.09656,2.38175 16.25818,9.41726 l -6.31006,4.50272 c -2.69947,-4.63422 -5.60023,-7.16518 -10.52983,-7.18183 -4.05398,-0.0137 -10.19458,2.71821 -10.357,7.16621 -0.28436,7.78758 8.29697,8.95352 13.00469,10.02718 4.44773,1.01436 9.25843,2.69076 12.32546,6.33935 2.0418,2.42896 3.26377,5.42801 3.133,9.26805 z" />
        </g>
        <g
           id="text4175-7-0"
           style="font-style:normal;font-weight:normal;font-size:36.76079941px;line-height:125%;font-family:sans-serif;letter-spacing:0px;word-spacing:0px;display:inline;fill:#00b092;fill-opacity:1;stroke:none;stroke-width:1px;stroke-linecap:butt;stroke-linejoin:miter;stroke-opacity:1"
           transform="matrix(1.0671288,0,0,0.93709403,172.72778,-0.11862984)">
          <path
             sodipodi:nodetypes="cascscscccccsccccc"
             inkscape:connector-curvature="0"
             id="path4362-2"
             style="font-style:normal;font-variant:normal;font-weight:normal;font-stretch:normal;font-size:103.38974762px;font-family:'Open Sans';-inkscape-font-specification:'Open Sans';letter-spacing:-4.78809547px;fill:#00b092;fill-opacity:1"
             d="m 114.29493,680.74593 c -8.17829,0 -13.7241,-2.06335 -18.507051,-7.0904 -4.944258,-5.19659 -7.652833,-11.08478 -7.946185,-21.12975 -0.219191,-7.50557 2.187609,-16.0032 6.562826,-21.25346 4.408873,-5.25026 10.31542,-7.87539 17.71963,-7.87539 6.93303,0 12.00053,2.57442 16.0392,7.15157 4.03866,4.54349 6.47634,11.02739 6.47634,17.73669 l 0,5.4913 -39.830089,-0.0476 c 1.008737,11.03162 6.870879,18.69502 17.487329,19.50645 8.02831,0.65085 14.14764,-7.00965 15.57742,-9.59544 l 5.10382,5.42301 c -5.81517,8.73512 -13.0594,11.68306 -18.68324,11.68306 z m -2.27175,-50.33182 c -9.71274,0 -15.984614,8.42183 -16.969811,17.21409 l 31.897171,0 c 0.12914,-12.33304 -7.33814,-17.06134 -14.92736,-17.21409 z" />
        </g>
        <g
           transform="scale(1.0056508,0.99438093)"
           style="font-style:normal;font-weight:normal;font-size:34.48180008px;line-height:125%;font-family:sans-serif;letter-spacing:0px;word-spacing:0px;display:inline;fill:#00b092;fill-opacity:1;stroke:none;stroke-width:1px;stroke-linecap:butt;stroke-linejoin:miter;stroke-opacity:1"
           id="text4175-9">
          <path
             d="m 242.79561,640.76312 0,-33.57366 q 0,-6.34537 -2.88857,-9.47071 -2.88856,-3.12533 -9.04452,-3.12533 -8.14481,0 -11.9331,4.40388 -3.78828,4.40388 -3.78828,14.53754 l 0,27.22828 -7.86069,0 0,-51.89948 6.39273,0 1.27855,7.10303 0.37882,0 q 2.41503,-3.83564 6.77156,-5.91919 4.35653,-2.13091 9.70748,-2.13091 9.376,0 14.11135,4.54594 4.73536,4.49858 4.73536,14.44283 l 0,33.85778 -7.86069,0 z"
             style="font-style:normal;font-variant:normal;font-weight:normal;font-stretch:normal;font-size:96.98005676px;font-family:'Open Sans';-inkscape-font-specification:'Open Sans';letter-spacing:-4.49125576px;fill:#00b092;fill-opacity:1"
             id="path4340" />
        </g>
        <g
           transform="scale(0.94698268,1.0559855)"
           style="font-style:normal;font-weight:normal;font-size:36.69878387px;line-height:125%;font-family:sans-serif;letter-spacing:0px;word-spacing:0px;display:inline;fill:#00b092;fill-opacity:1;stroke:none;stroke-width:1px;stroke-linecap:butt;stroke-linejoin:miter;stroke-opacity:1"
           id="text4270-6">
          <path
             d="m 174.85609,603.36664 -8.36609,0 0,-78.41946 8.36609,0 0,78.41946 z"
             style="font-style:normal;font-variant:normal;font-weight:normal;font-stretch:normal;font-size:103.21533203px;font-family:'Open Sans';-inkscape-font-specification:'Open Sans';letter-spacing:-4.78001738px;fill:#00b092;fill-opacity:1"
             id="path4334" />
        </g>
        <g
           transform="scale(0.94698268,1.0559855)"
           style="font-style:normal;font-weight:normal;font-size:36.69878387px;line-height:125%;font-family:sans-serif;letter-spacing:0px;word-spacing:0px;display:inline;fill:#00b092;fill-opacity:1;stroke:none;stroke-width:1px;stroke-linecap:butt;stroke-linejoin:miter;stroke-opacity:1"
           id="text4270">
          <path
             d="m 202.70442,603.44122 -8.36609,0 0,-78.41946 8.36609,0 0,78.41946 z"
             style="font-style:normal;font-variant:normal;font-weight:normal;font-stretch:normal;font-size:103.21533203px;font-family:'Open Sans';-inkscape-font-specification:'Open Sans';letter-spacing:-4.78001738px;fill:#00b092;fill-opacity:1"
             id="path4337" />
        </g>
        <g
           id="text4175-7"
           style="font-style:normal;font-weight:normal;font-size:36.76079941px;line-height:125%;font-family:sans-serif;letter-spacing:0px;word-spacing:0px;display:inline;fill:#00b092;fill-opacity:1;stroke:none;stroke-width:1px;stroke-linecap:butt;stroke-linejoin:miter;stroke-opacity:1"
           transform="scale(1.0671288,0.93709403)">
          <path
             sodipodi:nodetypes="cascscscccccsccccc"
             inkscape:connector-curvature="0"
             id="path4362"
             style="font-style:normal;font-variant:normal;font-weight:normal;font-stretch:normal;font-size:103.38974762px;font-family:'Open Sans';-inkscape-font-specification:'Open Sans';letter-spacing:-4.78809547px;fill:#00b092;fill-opacity:1"
             d="m 114.29493,680.74593 c -8.17829,0 -13.7241,-2.06335 -18.507051,-7.0904 -4.944258,-5.19659 -7.652833,-11.08478 -7.946185,-21.12975 -0.219191,-7.50557 2.187609,-16.0032 6.562826,-21.25346 4.408873,-5.25026 10.31542,-7.87539 17.71963,-7.87539 6.93303,0 12.00053,2.57442 16.0392,7.15157 4.03866,4.54349 6.47634,11.02739 6.47634,17.73669 l 0,5.4913 -39.830089,-0.0476 c 1.008737,11.03162 6.870879,18.69502 17.487329,19.50645 8.02831,0.65085 14.14764,-7.00965 15.57742,-9.59544 l 5.10382,5.42301 c -5.81517,8.73512 -13.0594,11.68306 -18.68324,11.68306 z m -2.27175,-50.33182 c -9.71274,0 -15.984614,8.42183 -16.969811,17.21409 l 31.897171,0 c 0.12914,-12.33304 -7.33814,-17.06134 -14.92736,-17.21409 z" />
        </g>
        <g
           transform="scale(1.0225654,0.97793254)"
           style="font-style:normal;font-weight:normal;font-size:39.50803375px;line-height:125%;font-family:sans-serif;letter-spacing:0px;word-spacing:0px;display:inline;fill:#00b092;fill-opacity:1;stroke:none;stroke-width:1px;stroke-linecap:butt;stroke-linejoin:miter;stroke-opacity:1"
           id="text4175-3">
          <path
             d="m 67.145686,651.63434 -9.115012,0 -16.005529,-53.11665 q -1.139377,-3.52665 -2.550034,-8.89799 -1.410656,-5.37135 -1.464912,-6.45647 -1.193633,7.1618 -3.797922,15.67999 l -15.517225,52.79112 -9.1150127,0 -21.1055953,-79.32232 9.7660851,0 12.5331429,48.9932 q 2.604289,10.30864 3.797922,18.66407 1.464913,-9.92885 4.340482,-19.42366 l 14.21508,-48.23361 9.766085,0 14.920408,48.66766 q 2.60429,8.40969 4.394739,18.98961 1.030864,-7.70435 3.906434,-18.77258 l 12.478887,-48.88469 9.766085,0 -21.214108,79.32232 z"
             style="font-style:normal;font-variant:normal;font-weight:normal;font-stretch:normal;font-size:111.11634827px;font-family:'Open Sans';-inkscape-font-specification:'Open Sans';letter-spacing:-5.14592314px;fill:#00b092;fill-opacity:1"
             id="path4331" />
        </g>
      </g>
    </g>
  </g>
  <g
     inkscape:groupmode="layer"
     id="layer3"
     inkscape:label="think tank"
     style="display:inline"
     transform="translate(11.785635,-242.86635)">
    <g
       style="font-style:normal;font-weight:normal;font-size:40px;line-height:125%;font-family:sans-serif;letter-spacing:0px;word-spacing:0px;fill:#706d6e;fill-opacity:1;stroke:none;stroke-width:1px;stroke-linecap:butt;stroke-linejoin:miter;stroke-opacity:1"
       id="text4180">
      <path
         d="m 17.97444,698.74744 -10.406494,0 0,-40.41748 -13.3270264,0 0,-8.66089 37.0605464,0 0,8.66089 -13.327026,0 0,40.41748 z"
         style="font-style:normal;font-variant:normal;font-weight:bold;font-stretch:normal;font-size:68.75px;font-family:'Open Sans';-inkscape-font-specification:'Open Sans Bold';letter-spacing:-1.33000004px;fill:#706d6e;fill-opacity:1"
         id="path4417"
         inkscape:connector-curvature="0" />
      <path
         d="m 77.807768,698.74744 -10.372924,0 0,-21.18225 -19.436646,0 0,21.18225 -10.406494,0 0,-49.07837 10.406494,0 0,19.23523 19.436646,0 0,-19.23523 10.372924,0 0,49.07837 z"
         style="font-style:normal;font-variant:normal;font-weight:bold;font-stretch:normal;font-size:68.75px;font-family:'Open Sans';-inkscape-font-specification:'Open Sans Bold';letter-spacing:-1.33000004px;fill:#706d6e;fill-opacity:1"
         id="path4419"
         inkscape:connector-curvature="0" />
      <path
         d="m 88.898421,698.74744 0,-49.07837 10.406494,0 0,49.07837 -10.406494,0 z"
         style="font-style:normal;font-variant:normal;font-weight:bold;font-stretch:normal;font-size:68.75px;font-family:'Open Sans';-inkscape-font-specification:'Open Sans Bold';letter-spacing:-1.33000004px;fill:#706d6e;fill-opacity:1"
         id="path4421"
         inkscape:connector-curvature="0" />
      <path
         d="m 153.935,698.74744 -13.22631,0 -21.3501,-37.12769 -0.30213,0 q 0.63782,9.83582 0.63782,14.03198 l 0,23.09571 -9.2987,0 0,-49.07837 13.12561,0 21.31652,36.75842 0.23499,0 q -0.50354,-9.56726 -0.50354,-13.52844 l 0,-23.22998 9.36584,0 0,49.07837 z"
         style="font-style:normal;font-variant:normal;font-weight:bold;font-stretch:normal;font-size:68.75px;font-family:'Open Sans';-inkscape-font-specification:'Open Sans Bold';letter-spacing:-1.33000004px;fill:#706d6e;fill-opacity:1"
         id="path4423"
         inkscape:connector-curvature="0" />
      <path
         d="m 204.40248,698.74744 -11.81641,0 -12.85705,-20.67871 -4.39759,3.15551 0,17.5232 -10.40649,0 0,-49.07837 10.40649,0 0,22.45788 4.09546,-5.77392 13.29346,-16.68396 11.54785,0 -17.12036,21.71936 17.25464,27.35901 z"
         style="font-style:normal;font-variant:normal;font-weight:bold;font-stretch:normal;font-size:68.75px;font-family:'Open Sans';-inkscape-font-specification:'Open Sans Bold';letter-spacing:-1.33000004px;fill:#706d6e;fill-opacity:1"
         id="path4425"
         inkscape:connector-curvature="0" />
      <path
         d="m 244.71124,698.74744 -10.40649,0 0,-40.41748 -13.32703,0 0,-8.66089 37.06055,0 0,8.66089 -13.32703,0 0,40.41748 z"
         style="font-style:normal;font-variant:normal;font-weight:bold;font-stretch:normal;font-size:68.75px;font-family:'Open Sans';-inkscape-font-specification:'Open Sans Bold';letter-spacing:-1.33000004px;fill:#706d6e;fill-opacity:1"
         id="path4427"
         inkscape:connector-curvature="0" />
      <path
         d="m 294.37306,698.74744 -3.55835,-11.68213 -17.89245,0 -3.55835,11.68213 -11.21216,0 17.32177,-49.27979 12.72278,0 17.38892,49.27979 -11.21216,0 z m -6.04248,-20.41016 q -4.93469,-15.8783 -5.57251,-17.95959 -0.60425,-2.0813 -0.8728,-3.2898 -1.10779,4.29688 -6.34461,21.24939 l 12.78992,0 z"
         style="font-style:normal;font-variant:normal;font-weight:bold;font-stretch:normal;font-size:68.75px;font-family:'Open Sans';-inkscape-font-specification:'Open Sans Bold';letter-spacing:-1.33000004px;fill:#706d6e;fill-opacity:1"
         id="path4429"
         inkscape:connector-curvature="0" />
      <path
         d="m 353.93782,698.74744 -13.22632,0 -21.3501,-37.12769 -0.30212,0 q 0.63782,9.83582 0.63782,14.03198 l 0,23.09571 -9.29871,0 0,-49.07837 13.12561,0 21.31653,36.75842 0.23498,0 q -0.50354,-9.56726 -0.50354,-13.52844 l 0,-23.22998 9.36585,0 0,49.07837 z"
         style="font-style:normal;font-variant:normal;font-weight:bold;font-stretch:normal;font-size:68.75px;font-family:'Open Sans';-inkscape-font-specification:'Open Sans Bold';letter-spacing:-1.33000004px;fill:#706d6e;fill-opacity:1"
         id="path4431"
         inkscape:connector-curvature="0" />
      <path
         d="m 404.40532,698.74744 -11.81641,0 -12.85705,-20.67871 -4.39759,3.15551 0,17.5232 -10.40649,0 0,-49.07837 10.40649,0 0,22.45788 4.09546,-5.77392 13.29346,-16.68396 11.54785,0 -17.12036,21.71936 17.25464,27.35901 z"
         style="font-style:normal;font-variant:normal;font-weight:bold;font-stretch:normal;font-size:68.75px;font-family:'Open Sans';-inkscape-font-specification:'Open Sans Bold';letter-spacing:-1.33000004px;fill:#706d6e;fill-opacity:1"
         id="path4433"
         inkscape:connector-curvature="0" />
    </g>
  </g>
  <g
     inkscape:groupmode="layer"
     id="layer4"
     inkscape:label="Emergency Medicine"
     style="display:inline"
     transform="translate(11.785635,-242.86635)">
    <g
       style="font-style:normal;font-variant:normal;font-weight:normal;font-stretch:normal;font-size:40px;line-height:125%;font-family:'Open Sans';-inkscape-font-specification:'Open Sans';letter-spacing:0px;word-spacing:0px;fill:#333333;fill-opacity:1;stroke:none;stroke-width:1px;stroke-linecap:butt;stroke-linejoin:miter;stroke-opacity:1"
       id="text4185">
      <path
         d="m 30.034076,717.14541 0,4.44 -14.92,0 0,7.4 13.4,0 0,4.2 -13.4,0 0,7.48 15.4,0 0,4.44 -20.12,0 0,-27.96 19.64,0 z"
         style="font-style:normal;font-variant:normal;font-weight:normal;font-stretch:normal;font-size:40px;font-family:Montserrat;-inkscape-font-specification:Montserrat;letter-spacing:-1.91999996px;fill:#333333;fill-opacity:1"
         id="path4436"
         inkscape:connector-curvature="0" />
      <path
         d="m 38.485951,733.58541 0,11.52 -4.48,0 0,-21.28 4.48,0 0,3.88 q 0.96,-1.96 2.88,-3.08 1.96,-1.12 4.2,-1.12 5.04,0 6.84,4.16 3.16,-4.16 7.88,-4.16 3.6,0 5.8,2.2 2.24,2.2 2.24,6.36 l 0,13.04 -4.48,0 0,-11.68 q 0,-5.88 -4.88,-5.88 -2.28,0 -4,1.48 -1.68,1.44 -1.76,4.24 l 0,11.84 -4.48,0 0,-11.68 q 0,-3.04 -1.08,-4.44 -1.08,-1.44 -3.4,-1.44 -2.32,0 -4.04,1.56 -1.72,1.52 -1.72,4.48 z"
         style="font-style:normal;font-variant:normal;font-weight:normal;font-stretch:normal;font-size:40px;font-family:Montserrat;-inkscape-font-specification:Montserrat;letter-spacing:-1.91999996px;fill:#333333;fill-opacity:1"
         id="path4438"
         inkscape:connector-curvature="0" />
      <path
         d="m 92.432826,736.42541 -16.68,0 q 0.16,2.32 2.12,3.76 1.96,1.4 4.48,1.4 4,0 6.08,-2.52 l 2.56,2.8 q -3.44,3.56 -8.96,3.56 -4.48,0 -7.64,-2.96 -3.12,-3 -3.12,-8 0,-5.04 3.2,-8 3.2,-2.96 7.52,-2.96 4.36,0 7.4,2.64 3.04,2.6 3.04,7.2 l 0,3.08 z m -16.68,-3.52 12.2,0 q 0,-2.68 -1.68,-4.12 -1.68,-1.44 -4.16,-1.44 -2.44,0 -4.4,1.52 -1.96,1.48 -1.96,4.04 z"
         style="font-style:normal;font-variant:normal;font-weight:normal;font-stretch:normal;font-size:40px;font-family:Montserrat;-inkscape-font-specification:Montserrat;letter-spacing:-1.91999996px;fill:#333333;fill-opacity:1"
         id="path4440"
         inkscape:connector-curvature="0" />
      <path
         d="m 106.56032,728.02541 q -3.32,0 -5,2.16 -1.679996,2.16 -1.679996,5.8 l 0,9.12 -4.48,0 0,-21.28 4.48,0 0,4.28 q 1.079996,-2 2.919996,-3.28 1.88,-1.28 3.96,-1.32 l 0.04,4.52 q -0.12,0 -0.24,0 z"
         style="font-style:normal;font-variant:normal;font-weight:normal;font-stretch:normal;font-size:40px;font-family:Montserrat;-inkscape-font-specification:Montserrat;letter-spacing:-1.91999996px;fill:#333333;fill-opacity:1"
         id="path4442"
         inkscape:connector-curvature="0" />
      <path
         d="m 129.0197,723.82541 0,18.56 q 0,5.64 -3.08,8.44 -3.04,2.84 -7.84,2.84 -4.8,0 -8.68,-3 l 2.12,-3.4 q 3.12,2.36 6.28,2.36 3.2,0 5.04,-1.64 1.88,-1.64 1.88,-5.24 l 0,-2.72 q -1,1.88 -2.88,3 -1.84,1.12 -4.16,1.12 -4.24,0 -6.96,-2.96 -2.72,-2.96 -2.72,-7.36 0,-4.4 2.72,-7.36 2.72,-2.96 6.92,-2.96 4.24,0 6.88,3.48 l 0,-3.16 4.48,0 z m -16.6,9.84 q 0,2.6 1.6,4.52 1.64,1.88 4.36,1.88 2.76,0 4.44,-1.84 1.72,-1.84 1.72,-4.56 0,-2.76 -1.72,-4.64 -1.72,-1.92 -4.44,-1.92 -2.72,0 -4.36,1.96 -1.6,1.96 -1.6,4.6 z"
         style="font-style:normal;font-variant:normal;font-weight:normal;font-stretch:normal;font-size:40px;font-family:Montserrat;-inkscape-font-specification:Montserrat;letter-spacing:-1.91999996px;fill:#333333;fill-opacity:1"
         id="path4444"
         inkscape:connector-curvature="0" />
      <path
         d="m 153.39158,736.42541 -16.68,0 q 0.16,2.32 2.12,3.76 1.96,1.4 4.48,1.4 4,0 6.08,-2.52 l 2.56,2.8 q -3.44,3.56 -8.96,3.56 -4.48,0 -7.64,-2.96 -3.12,-3 -3.12,-8 0,-5.04 3.2,-8 3.2,-2.96 7.52,-2.96 4.36,0 7.4,2.64 3.04,2.6 3.04,7.2 l 0,3.08 z m -16.68,-3.52 12.2,0 q 0,-2.68 -1.68,-4.12 -1.68,-1.44 -4.16,-1.44 -2.44,0 -4.4,1.52 -1.96,1.48 -1.96,4.04 z"
         style="font-style:normal;font-variant:normal;font-weight:normal;font-stretch:normal;font-size:40px;font-family:Montserrat;-inkscape-font-specification:Montserrat;letter-spacing:-1.91999996px;fill:#333333;fill-opacity:1"
         id="path4446"
         inkscape:connector-curvature="0" />
      <path
         d="m 160.83907,733.58541 0,11.52 -4.48,0 0,-21.28 4.48,0 0,3.88 q 1.08,-1.96 2.96,-3.08 1.92,-1.12 4.12,-1.12 3.6,0 5.8,2.2 2.24,2.2 2.24,6.36 l 0,13.04 -4.48,0 0,-11.68 q 0,-5.88 -4.88,-5.88 -2.32,0 -4.04,1.56 -1.72,1.52 -1.72,4.48 z"
         style="font-style:normal;font-variant:normal;font-weight:normal;font-stretch:normal;font-size:40px;font-family:Montserrat;-inkscape-font-specification:Montserrat;letter-spacing:-1.91999996px;fill:#333333;fill-opacity:1"
         id="path4448"
         inkscape:connector-curvature="0" />
      <path
         d="m 189.73845,745.42541 q -4.44,0 -7.64,-3 -3.2,-3.04 -3.2,-7.92 0,-4.88 3.32,-7.92 3.36,-3.08 8.16,-3.08 4.8,0 8.12,3.32 l -2.64,3.24 q -2.76,-2.4 -5.56,-2.4 -2.8,0 -4.88,1.88 -2.04,1.84 -2.04,4.8 0,2.92 2.04,4.96 2.04,2.04 5,2.04 3,0 5.64,-2.72 l 2.64,2.88 q -3.88,3.92 -8.96,3.92 z"
         style="font-style:normal;font-variant:normal;font-weight:normal;font-stretch:normal;font-size:40px;font-family:Montserrat;-inkscape-font-specification:Montserrat;letter-spacing:-1.91999996px;fill:#333333;fill-opacity:1"
         id="path4450"
         inkscape:connector-curvature="0" />
      <path
         d="m 204.10533,753.58541 q -2.92,0 -5.28,-2.12 l 2.04,-3.64 q 1.4,1.32 2.88,1.32 1.52,0 2.44,-1.08 0.96,-1.08 0.96,-2.36 0,-0.56 -8.6,-21.88 l 4.8,0 6.36,15.68 6.36,-15.68 4.8,0 -10.32,25.28 q -0.92,2.08 -2.64,3.28 -1.72,1.2 -3.8,1.2 z"
         style="font-style:normal;font-variant:normal;font-weight:normal;font-stretch:normal;font-size:40px;font-family:Montserrat;-inkscape-font-specification:Montserrat;letter-spacing:-1.91999996px;fill:#333333;fill-opacity:1"
         id="path4452"
         inkscape:connector-curvature="0" />
      <path
         d="m 236.85158,745.10541 -4.72,0 0,-27.96 7.36,0 8.44,17.56 8.44,-17.56 7.32,0 0,27.96 -4.72,0 0,-21.84 -9.76,19.4 -2.64,0 -9.72,-19.4 0,21.84 z"
         style="font-style:normal;font-variant:normal;font-weight:normal;font-stretch:normal;font-size:40px;font-family:Montserrat;-inkscape-font-specification:Montserrat;letter-spacing:-1.91999996px;fill:#333333;fill-opacity:1"
         id="path4454"
         inkscape:connector-curvature="0" />
      <path
         d="m 288.66846,736.42541 -16.68,0 q 0.16,2.32 2.12,3.76 1.96,1.4 4.48,1.4 4,0 6.08,-2.52 l 2.56,2.8 q -3.44,3.56 -8.96,3.56 -4.48,0 -7.64,-2.96 -3.12,-3 -3.12,-8 0,-5.04 3.2,-8 3.2,-2.96 7.52,-2.96 4.36,0 7.4,2.64 3.04,2.6 3.04,7.2 l 0,3.08 z m -16.68,-3.52 12.2,0 q 0,-2.68 -1.68,-4.12 -1.68,-1.44 -4.16,-1.44 -2.44,0 -4.4,1.52 -1.96,1.48 -1.96,4.04 z"
         style="font-style:normal;font-variant:normal;font-weight:normal;font-stretch:normal;font-size:40px;font-family:Montserrat;-inkscape-font-specification:Montserrat;letter-spacing:-1.91999996px;fill:#333333;fill-opacity:1"
         id="path4456"
         inkscape:connector-curvature="0" />
      <path
         d="m 300.31594,745.42541 q -4.04,0 -7.04,-3.04 -3,-3.04 -3,-8 0,-4.96 3.08,-7.92 3.08,-2.96 7.32,-2.96 4.28,0 6.88,3.6 l 0,-11.68 4.48,0 0,29.68 -4.48,0 0,-3.2 q -2.48,3.52 -7.24,3.52 z m -5.56,-10.84 q 0,3.04 1.96,4.96 1.96,1.92 4.6,1.92 2.64,0 4.48,-1.92 1.84,-1.96 1.84,-5 0,-3.04 -1.84,-5.08 -1.84,-2.04 -4.52,-2.04 -2.68,0 -4.6,2.04 -1.92,2.04 -1.92,5.12 z"
         style="font-style:normal;font-variant:normal;font-weight:normal;font-stretch:normal;font-size:40px;font-family:Montserrat;-inkscape-font-specification:Montserrat;letter-spacing:-1.91999996px;fill:#333333;fill-opacity:1"
         id="path4458"
         inkscape:connector-curvature="0" />
      <path
         d="m 321.07096,745.10541 -4.48,0 0,-21.28 4.48,0 0,21.28 z m -4.2,-25.52 q -0.84,-0.84 -0.84,-2 0,-1.16 0.84,-2 0.84,-0.84 2,-0.84 1.16,0 2,0.84 0.84,0.84 0.84,2 0,1.16 -0.84,2 -0.84,0.84 -2,0.84 -1.16,0 -2,-0.84 z"
         style="font-style:normal;font-variant:normal;font-weight:normal;font-stretch:normal;font-size:40px;font-family:Montserrat;-inkscape-font-specification:Montserrat;letter-spacing:-1.91999996px;fill:#333333;fill-opacity:1"
         id="path4460"
         inkscape:connector-curvature="0" />
      <path
         d="m 335.04845,745.42541 q -4.44,0 -7.64,-3 -3.2,-3.04 -3.2,-7.92 0,-4.88 3.32,-7.92 3.36,-3.08 8.16,-3.08 4.8,0 8.12,3.32 l -2.64,3.24 q -2.76,-2.4 -5.56,-2.4 -2.8,0 -4.88,1.88 -2.04,1.84 -2.04,4.8 0,2.92 2.04,4.96 2.04,2.04 5,2.04 3,0 5.64,-2.72 l 2.64,2.88 q -3.88,3.92 -8.96,3.92 z"
         style="font-style:normal;font-variant:normal;font-weight:normal;font-stretch:normal;font-size:40px;font-family:Montserrat;-inkscape-font-specification:Montserrat;letter-spacing:-1.91999996px;fill:#333333;fill-opacity:1"
         id="path4462"
         inkscape:connector-curvature="0" />
      <path
         d="m 351.21534,745.10541 -4.48,0 0,-21.28 4.48,0 0,21.28 z m -4.2,-25.52 q -0.84,-0.84 -0.84,-2 0,-1.16 0.84,-2 0.84,-0.84 2,-0.84 1.16,0 2,0.84 0.84,0.84 0.84,2 0,1.16 -0.84,2 -0.84,0.84 -2,0.84 -1.16,0 -2,-0.84 z"
         style="font-style:normal;font-variant:normal;font-weight:normal;font-stretch:normal;font-size:40px;font-family:Montserrat;-inkscape-font-specification:Montserrat;letter-spacing:-1.91999996px;fill:#333333;fill-opacity:1"
         id="path4464"
         inkscape:connector-curvature="0" />
      <path
         d="m 360.23282,733.58541 0,11.52 -4.48,0 0,-21.28 4.48,0 0,3.88 q 1.08,-1.96 2.96,-3.08 1.92,-1.12 4.12,-1.12 3.6,0 5.8,2.2 2.24,2.2 2.24,6.36 l 0,13.04 -4.48,0 0,-11.68 q 0,-5.88 -4.88,-5.88 -2.32,0 -4.04,1.56 -1.72,1.52 -1.72,4.48 z"
         style="font-style:normal;font-variant:normal;font-weight:normal;font-stretch:normal;font-size:40px;font-family:Montserrat;-inkscape-font-specification:Montserrat;letter-spacing:-1.91999996px;fill:#333333;fill-opacity:1"
         id="path4466"
         inkscape:connector-curvature="0" />
      <path
         d="m 399.49222,736.42541 -16.68,0 q 0.16,2.32 2.12,3.76 1.96,1.4 4.48,1.4 4,0 6.08,-2.52 l 2.56,2.8 q -3.44,3.56 -8.96,3.56 -4.48,0 -7.64,-2.96 -3.12,-3 -3.12,-8 0,-5.04 3.2,-8 3.2,-2.96 7.52,-2.96 4.36,0 7.4,2.64 3.04,2.6 3.04,7.2 l 0,3.08 z m -16.68,-3.52 12.2,0 q 0,-2.68 -1.68,-4.12 -1.68,-1.44 -4.16,-1.44 -2.44,0 -4.4,1.52 -1.96,1.48 -1.96,4.04 z"
         style="font-style:normal;font-variant:normal;font-weight:normal;font-stretch:normal;font-size:40px;font-family:Montserrat;-inkscape-font-specification:Montserrat;letter-spacing:-1.91999996px;fill:#333333;fill-opacity:1"
         id="path4468"
         inkscape:connector-curvature="0" />
    </g>
  </g>
</svg>
