<?xml version="1.0" encoding="UTF-8" standalone="no"?>
<!-- Created with Inkscape (http://www.inkscape.org/) -->

<svg
   xmlns:dc="http://purl.org/dc/elements/1.1/"
   xmlns:cc="http://creativecommons.org/ns#"
   xmlns:rdf="http://www.w3.org/1999/02/22-rdf-syntax-ns#"
   xmlns:svg="http://www.w3.org/2000/svg"
   xmlns="http://www.w3.org/2000/svg"
   xmlns:sodipodi="http://sodipodi.sourceforge.net/DTD/sodipodi-0.dtd"
   xmlns:inkscape="http://www.inkscape.org/namespaces/inkscape"
   width="56.444447mm"
   height="47.883564mm"
   viewBox="0 0 200.00001 169.66617"
   id="svg2"
   version="1.1"
   inkscape:version="0.91 r13725"
   sodipodi:docname="wellness-logo-2.svg">
  <defs
     id="defs4" />
  <sodipodi:namedview
     id="base"
     pagecolor="#ffffff"
     bordercolor="#666666"
     borderopacity="1.0"
     inkscape:pageopacity="0.0"
     inkscape:pageshadow="2"
     inkscape:zoom="2.8"
     inkscape:cx="43.885898"
     inkscape:cy="108.8016"
     inkscape:document-units="px"
     inkscape:current-layer="layer2"
     showgrid="false"
     showguides="true"
     inkscape:guide-bbox="true"
     fit-margin-top="0"
     fit-margin-left="0"
     fit-margin-right="0"
     fit-margin-bottom="0"
     inkscape:window-width="1920"
     inkscape:window-height="1058"
     inkscape:window-x="0"
     inkscape:window-y="22"
     inkscape:window-maximized="0"
     inkscape:snap-bbox="true"
     inkscape:snap-bbox-midpoints="true">
    <sodipodi:guide
       position="88.893428,149.50258"
       orientation="0,1"
       id="guide4240" />
    <sodipodi:guide
       position="93.944191,31.819805"
       orientation="0,1"
       id="guide4242" />
    <sodipodi:guide
       position="-106.78572,91.428572"
       orientation="0,1"
       id="guide4248" />
    <sodipodi:guide
       position="0,158.57143"
       orientation="1,0"
       id="guide4250" />
    <sodipodi:guide
       position="158.92858,66.785715"
       orientation="1,0"
       id="guide4252" />
    <sodipodi:guide
       position="79.285718,179.28572"
       orientation="1,0"
       id="guide4254" />
  </sodipodi:namedview>
  <metadata
     id="metadata7">
    <rdf:RDF>
      <cc:Work
         rdf:about="">
        <dc:format>image/svg+xml</dc:format>
        <dc:type
           rdf:resource="http://purl.org/dc/dcmitype/StillImage" />
        <dc:title></dc:title>
      </cc:Work>
    </rdf:RDF>
  </metadata>
  <g
     inkscape:groupmode="layer"
     id="layer2"
     inkscape:label="Layer 2"
     transform="translate(-274.36831,-403.28179)">
    <g
       id="g4246"
       transform="matrix(0.06748123,0,0,0.06748123,356.30423,452.92151)">
      <rect
         style="fill:#ff9e14;fill-opacity:1;stroke:none;stroke-width:2;stroke-miterlimit:4;stroke-dasharray:none;stroke-opacity:1"
         id="rect4184"
         width="2355.6755"
         height="1753.6249"
         x="-606.09155"
         y="-735.60785"
         rx="209.40802"
         ry="223.8454" />
      <path
         sodipodi:nodetypes="cccccc"
         inkscape:connector-curvature="0"
         id="path4244"
         d="m 1081.4286,-373.35209 666.1074,666.10746 2.0482,520.20068 c -17.931,139.27178 -92.4187,190.83735 -184.8579,204.05085 l -482.8529,2.0203 z"
         style="fill:#000000;fill-opacity:0.23529412;fill-rule:evenodd;stroke:none;stroke-width:1px;stroke-linecap:butt;stroke-linejoin:miter;stroke-opacity:1" />
      <path
         id="rect4182"
         d="m -1004.7949,-436.60352 c -116.0121,0 -209.4082,99.83536 -209.4082,223.84571 l 0,1305.93551 c 0,124.0104 93.3961,223.8438 209.4082,223.8438 l 390.62302,0 0,403.5566 0,0.5059 0.0176,0.01 a 58.083771,58.083771 0 0 0 58.06446,57.5703 58.083771,58.083771 0 0 0 44.48828,-20.748 l 440.890622,-440.8926 1002.775388,0 c 116.01203,0 209.40823,-99.8334 209.40823,-223.8438 l 0,-1305.93551 c 0,-124.01035 -93.3962,-223.84571 -209.40823,-223.84571 l -1936.85937,0 z"
         style="fill:#ffa82e;fill-opacity:1;stroke:none;stroke-width:2;stroke-miterlimit:4;stroke-dasharray:none;stroke-opacity:1"
         inkscape:connector-curvature="0" />
      <g
         id="flowRoot4199"
         style="font-style:normal;font-weight:normal;font-size:40px;line-height:124.00000095%;font-family:sans-serif;letter-spacing:0px;word-spacing:0px;fill:#ffffff;fill-opacity:1;stroke:none;stroke-width:1px;stroke-linecap:butt;stroke-linejoin:miter;stroke-opacity:1"
         transform="translate(2951.4286,85.714287)" />
    </g>
    <flowRoot
       xml:space="preserve"
       id="flowRoot4216"
       style="fill:#ffffff;stroke:none;stroke-opacity:1;stroke-width:1px;stroke-linejoin:miter;stroke-linecap:butt;fill-opacity:1;font-family:Roboto;font-style:normal;font-weight:900;font-size:22.5px;line-height:125%;letter-spacing:0px;word-spacing:0px;-inkscape-font-specification:'Roboto Heavy';font-stretch:normal;font-variant:normal;"><flowRegion
         id="flowRegion4218"><rect
           id="rect4220"
           width="121.72338"
           height="96.97464"
           x="-12.12183"
           y="-147.52173"
           style="font-size:22.5px;-inkscape-font-specification:'Roboto Heavy';font-family:Roboto;font-weight:900;font-style:normal;font-stretch:normal;font-variant:normal;fill:#ffffff;fill-opacity:1;" /></flowRegion><flowPara
         id="flowPara4222"></flowPara></flowRoot>    <g
       style="font-style:normal;font-weight:normal;font-size:41.06964493px;line-height:112.99999952%;font-family:sans-serif;letter-spacing:-0.05133706px;word-spacing:0px;fill:#ffffff;fill-opacity:1;stroke:none;stroke-width:1px;stroke-linecap:butt;stroke-linejoin:miter;stroke-opacity:1"
       id="flowRoot4224">
      <path
         d="m 318.26666,463.05198 -3.76004,0 0,-7.82088 -7.33208,0 0,7.82088 -3.76003,0 0,-18.24872 3.76003,0 0,7.39474 7.33208,0 0,-7.39474 3.76004,0 0,18.24872 z"
         style="font-style:normal;font-variant:normal;font-weight:bold;font-stretch:normal;font-size:25.66852951px;line-height:107.00000525%;font-family:roboto;-inkscape-font-specification:'roboto Bold';text-align:start;letter-spacing:0px;text-anchor:start;fill:#ffffff;fill-opacity:1"
         id="path4374" />
      <path
         d="m 320.76082,456.14604 q 0,-2.01789 0.77707,-3.5971 0.77708,-1.57922 2.23096,-2.44403 1.46641,-0.86481 3.39657,-0.86481 2.74482,0 4.47444,1.67949 1.74215,1.67948 1.94269,4.56218 l 0.0251,0.92747 q 0,3.12084 -1.74216,5.01339 -1.74215,1.88002 -4.67498,1.88002 -2.93283,0 -4.68751,-1.88002 -1.74215,-1.88002 -1.74215,-5.11365 l 0,-0.16294 z m 3.62217,0.2632 q 0,1.93016 0.72694,2.9579 0.72694,1.01521 2.08055,1.01521 1.31602,0 2.05549,-1.00268 0.73948,-1.01521 0.73948,-3.23363 0,-1.89255 -0.73948,-2.93283 -0.73947,-1.04028 -2.08055,-1.04028 -1.32855,0 -2.05549,1.04028 -0.72694,1.02774 -0.72694,3.19603 z"
         style="font-style:normal;font-variant:normal;font-weight:bold;font-stretch:normal;font-size:25.66852951px;line-height:107.00000525%;font-family:roboto;-inkscape-font-specification:'roboto Bold';text-align:start;letter-spacing:0px;text-anchor:start;fill:#ffffff;fill-opacity:1"
         id="path4376" />
      <path
         d="m 347.65763,458.12633 1.77975,-8.63556 3.49683,0 -3.45923,13.56121 -3.0331,0 -2.56936,-8.53529 -2.56936,8.53529 -3.02056,0 -3.45924,-13.56121 3.49684,0 1.76721,8.62302 2.48163,-8.62302 2.61949,0 2.4691,8.63556 z"
         style="font-style:normal;font-variant:normal;font-weight:bold;font-stretch:normal;font-size:25.66852951px;line-height:107.00000525%;font-family:roboto;-inkscape-font-specification:'roboto Bold';text-align:start;letter-spacing:0px;text-anchor:start;fill:#ffffff;fill-opacity:1"
         id="path4378" />
      <path
         d="m 365.36741,463.05198 -3.76004,0 0,-18.24872 3.76004,0 0,18.24872 z"
         style="font-style:normal;font-variant:normal;font-weight:bold;font-stretch:normal;font-size:25.66852951px;line-height:107.00000525%;font-family:roboto;-inkscape-font-specification:'roboto Bold';text-align:start;letter-spacing:0px;text-anchor:start;fill:#ffffff;fill-opacity:1"
         id="path4380" />
      <path
         d="m 307.17454,484.08764 0,6.42967 -3.76003,0 0,-18.24872 7.119,0 q 2.05549,0 3.60964,0.75201 1.56668,0.75201 2.40642,2.14322 0.83975,1.37868 0.83975,3.1459 0,2.68216 -1.84242,4.23631 -1.82989,1.54161 -5.07605,1.54161 l -3.29631,0 z m 0,-3.04563 3.35897,0 q 1.49148,0 2.26856,-0.70187 0.78961,-0.70187 0.78961,-2.00535 0,-1.34108 -0.78961,-2.16829 -0.78961,-0.82721 -2.18082,-0.85228 l -3.44671,0 0,5.72779 z"
         style="font-style:normal;font-variant:normal;font-weight:bold;font-stretch:normal;font-size:25.66852951px;line-height:107.00000525%;font-family:roboto;-inkscape-font-specification:'roboto Bold';text-align:start;letter-spacing:0px;text-anchor:start;fill:#ffffff;fill-opacity:1"
         id="path4382" />
      <path
         d="m 327.34088,480.35267 q -0.73947,-0.10026 -1.30348,-0.10026 -2.05548,0 -2.69469,1.39121 l 0,8.87369 -3.62217,0 0,-13.56121 3.42163,0 0.10027,1.61682 q 1.09041,-1.86748 3.02057,-1.86748 0.6016,0 1.12801,0.16293 l -0.0501,3.4843 z"
         style="font-style:normal;font-variant:normal;font-weight:bold;font-stretch:normal;font-size:25.66852951px;line-height:107.00000525%;font-family:roboto;-inkscape-font-specification:'roboto Bold';text-align:start;letter-spacing:0px;text-anchor:start;fill:#ffffff;fill-opacity:1"
         id="path4384" />
      <path
         d="m 328.08036,483.61137 q 0,-2.01788 0.77707,-3.5971 0.77708,-1.57922 2.23096,-2.44403 1.46641,-0.8648 3.39657,-0.8648 2.74482,0 4.47444,1.67948 1.74215,1.67948 1.94269,4.56218 l 0.0251,0.92748 q 0,3.12083 -1.74216,5.01338 -1.74215,1.88002 -4.67498,1.88002 -2.93283,0 -4.68751,-1.88002 -1.74215,-1.88002 -1.74215,-5.11365 l 0,-0.16294 z m 3.62217,0.26321 q 0,1.93015 0.72694,2.95789 0.72694,1.01521 2.08055,1.01521 1.31602,0 2.05549,-1.00267 0.73948,-1.01521 0.73948,-3.23364 0,-1.89255 -0.73948,-2.93283 -0.73947,-1.04027 -2.08055,-1.04027 -1.32855,0 -2.05549,1.04027 -0.72694,1.02775 -0.72694,3.19604 z"
         style="font-style:normal;font-variant:normal;font-weight:bold;font-stretch:normal;font-size:25.66852951px;line-height:107.00000525%;font-family:roboto;-inkscape-font-specification:'roboto Bold';text-align:start;letter-spacing:0px;text-anchor:start;fill:#ffffff;fill-opacity:1"
         id="path4386" />
      <path
         d="m 346.57975,476.9561 0.1128,1.51655 q 1.44135,-1.76721 3.89791,-1.76721 2.61949,0 3.5971,2.06802 1.42881,-2.06802 4.07337,-2.06802 2.20589,0 3.28377,1.29094 1.07788,1.27842 1.07788,3.86031 l 0,8.66062 -3.63471,0 0,-8.64809 q 0,-1.15308 -0.4512,-1.67948 -0.4512,-0.53894 -1.59175,-0.53894 -1.62935,0 -2.25602,1.55415 l 0.0125,9.31236 -3.62217,0 0,-8.63555 q 0,-1.17815 -0.46374,-1.70456 -0.46374,-0.5264 -1.57921,-0.5264 -1.54162,0 -2.23096,1.27841 l 0,9.5881 -3.62217,0 0,-13.56121 3.39657,0 z"
         style="font-style:normal;font-variant:normal;font-weight:bold;font-stretch:normal;font-size:25.66852951px;line-height:107.00000525%;font-family:roboto;-inkscape-font-specification:'roboto Bold';text-align:start;letter-spacing:0px;text-anchor:start;fill:#ffffff;fill-opacity:1"
         id="path4388" />
      <path
         d="m 364.82847,483.61137 q 0,-2.01788 0.77707,-3.5971 0.77708,-1.57922 2.23096,-2.44403 1.46641,-0.8648 3.39657,-0.8648 2.74482,0 4.47444,1.67948 1.74215,1.67948 1.94269,4.56218 l 0.0251,0.92748 q 0,3.12083 -1.74216,5.01338 -1.74215,1.88002 -4.67498,1.88002 -2.93283,0 -4.68751,-1.88002 -1.74215,-1.88002 -1.74215,-5.11365 l 0,-0.16294 z m 3.62217,0.26321 q 0,1.93015 0.72694,2.95789 0.72694,1.01521 2.08055,1.01521 1.31602,0 2.05549,-1.00267 0.73948,-1.01521 0.73948,-3.23364 0,-1.89255 -0.73948,-2.93283 -0.73947,-1.04027 -2.08055,-1.04027 -1.32855,0 -2.05549,1.04027 -0.72694,1.02775 -0.72694,3.19604 z"
         style="font-style:normal;font-variant:normal;font-weight:bold;font-stretch:normal;font-size:25.66852951px;line-height:107.00000525%;font-family:roboto;-inkscape-font-specification:'roboto Bold';text-align:start;letter-spacing:0px;text-anchor:start;fill:#ffffff;fill-opacity:1"
         id="path4390" />
      <path
         d="m 384.26786,473.6222 0,3.3339 2.31869,0 0,2.6571 -2.31869,0 0,6.76807 q 0,0.75201 0.28827,1.07788 0.28827,0.32587 1.10295,0.32587 0.6016,0 1.06534,-0.0877 l 0,2.74483 q -1.06534,0.32587 -2.19336,0.32587 -3.81017,0 -3.88537,-3.84777 l 0,-7.30701 -1.98029,0 0,-2.6571 1.98029,0 0,-3.3339 3.62217,0 z"
         style="font-style:normal;font-variant:normal;font-weight:bold;font-stretch:normal;font-size:25.66852951px;line-height:107.00000525%;font-family:roboto;-inkscape-font-specification:'roboto Bold';text-align:start;letter-spacing:0px;text-anchor:start;fill:#ffffff;fill-opacity:1"
         id="path4392" />
      <path
         d="m 394.8461,490.76798 q -2.98296,0 -4.86298,-1.82989 -1.86748,-1.82988 -1.86748,-4.87551 l 0,-0.35094 q 0,-2.04295 0.7896,-3.64724 0.78961,-1.61681 2.23096,-2.48162 1.45388,-0.87734 3.30883,-0.87734 2.78243,0 4.37418,1.75468 1.60428,1.75468 1.60428,4.97578 l 0,1.47895 -8.63555,0 q 0.17547,1.32855 1.05281,2.13069 0.88988,0.80214 2.24349,0.80214 2.09309,0 3.27123,-1.51655 l 1.77976,1.99282 q -0.81468,1.15308 -2.20589,1.80482 -1.39122,0.63921 -3.08324,0.63921 z m -0.4136,-11.12971 q -1.07788,0 -1.75468,0.72694 -0.66428,0.72694 -0.85228,2.08055 l 5.03845,0 0,-0.28827 q -0.0251,-1.20321 -0.65174,-1.85495 -0.62667,-0.66427 -1.77975,-0.66427 z"
         style="font-style:normal;font-variant:normal;font-weight:bold;font-stretch:normal;font-size:25.66852951px;line-height:107.00000525%;font-family:roboto;-inkscape-font-specification:'roboto Bold';text-align:start;letter-spacing:0px;text-anchor:start;fill:#ffffff;fill-opacity:1"
         id="path4394" />
      <path
         d="m 317.62745,512.71859 2.45656,-12.98467 3.74751,0 -4.04831,18.24872 -3.78511,0 -2.97043,-12.20759 -2.97043,12.20759 -3.7851,0 -4.04831,-18.24872 3.7475,0 2.46909,12.9596 3.00804,-12.9596 3.18349,0 2.9955,12.98467 z"
         style="font-style:normal;font-variant:normal;font-weight:bold;font-stretch:normal;font-size:25.66852951px;line-height:107.00000525%;font-family:roboto;-inkscape-font-specification:'roboto Bold';text-align:start;letter-spacing:0px;text-anchor:start;fill:#ffffff;fill-opacity:1"
         id="path4396" />
      <path
         d="m 331.47693,518.23331 q -2.98297,0 -4.86299,-1.82988 -1.86748,-1.82989 -1.86748,-4.87552 l 0,-0.35094 q 0,-2.04295 0.78961,-3.64723 0.7896,-1.61682 2.23095,-2.48163 1.45388,-0.87734 3.30884,-0.87734 2.78243,0 4.37417,1.75468 1.60429,1.75469 1.60429,4.97579 l 0,1.47895 -8.63556,0 q 0.17547,1.32854 1.05281,2.13068 0.88988,0.80215 2.24349,0.80215 2.09309,0 3.27124,-1.51655 l 1.77975,1.99282 q -0.81468,1.15308 -2.20589,1.80482 -1.39122,0.6392 -3.08323,0.6392 z m -0.41361,-11.12971 q -1.07787,0 -1.75468,0.72694 -0.66427,0.72694 -0.85228,2.08055 l 5.03845,0 0,-0.28827 q -0.0251,-1.20321 -0.65174,-1.85495 -0.62667,-0.66427 -1.77975,-0.66427 z"
         style="font-style:normal;font-variant:normal;font-weight:bold;font-stretch:normal;font-size:25.66852951px;line-height:107.00000525%;font-family:roboto;-inkscape-font-specification:'roboto Bold';text-align:start;letter-spacing:0px;text-anchor:start;fill:#ffffff;fill-opacity:1"
         id="path4398" />
      <path
         d="m 342.94504,517.98264 -3.6347,0 0,-19.25139 3.6347,0 0,19.25139 z"
         style="font-style:normal;font-variant:normal;font-weight:bold;font-stretch:normal;font-size:25.66852951px;line-height:107.00000525%;font-family:roboto;-inkscape-font-specification:'roboto Bold';text-align:start;letter-spacing:0px;text-anchor:start;fill:#ffffff;fill-opacity:1"
         id="path4400" />
      <path
         d="m 349.76325,517.98264 -3.63471,0 0,-19.25139 3.63471,0 0,19.25139 z"
         style="font-style:normal;font-variant:normal;font-weight:bold;font-stretch:normal;font-size:25.66852951px;line-height:107.00000525%;font-family:roboto;-inkscape-font-specification:'roboto Bold';text-align:start;letter-spacing:0px;text-anchor:start;fill:#ffffff;fill-opacity:1"
         id="path4402" />
      <path
         d="m 356.09265,504.42144 0.1128,1.56668 q 1.45388,-1.81735 3.8979,-1.81735 2.15576,0 3.20857,1.26588 1.05281,1.26588 1.07788,3.7851 l 0,8.76089 -3.62217,0 0,-8.67315 q 0,-1.15308 -0.50134,-1.66695 -0.50134,-0.52641 -1.66695,-0.52641 -1.52908,0 -2.29363,1.30348 l 0,9.56303 -3.62217,0 0,-13.5612 3.40911,0 z"
         style="font-style:normal;font-variant:normal;font-weight:bold;font-stretch:normal;font-size:25.66852951px;line-height:107.00000525%;font-family:roboto;-inkscape-font-specification:'roboto Bold';text-align:start;letter-spacing:0px;text-anchor:start;fill:#ffffff;fill-opacity:1"
         id="path4404" />
      <path
         d="m 373.38882,518.23331 q -2.98296,0 -4.86298,-1.82988 -1.86749,-1.82989 -1.86749,-4.87552 l 0,-0.35094 q 0,-2.04295 0.78961,-3.64723 0.78961,-1.61682 2.23096,-2.48163 1.45388,-0.87734 3.30883,-0.87734 2.78243,0 4.37418,1.75468 1.60428,1.75469 1.60428,4.97579 l 0,1.47895 -8.63555,0 q 0.17547,1.32854 1.05281,2.13068 0.88987,0.80215 2.24349,0.80215 2.09309,0 3.27123,-1.51655 l 1.77975,1.99282 q -0.81467,1.15308 -2.20589,1.80482 -1.39121,0.6392 -3.08323,0.6392 z m -0.4136,-11.12971 q -1.07788,0 -1.75469,0.72694 -0.66427,0.72694 -0.85227,2.08055 l 5.03845,0 0,-0.28827 q -0.0251,-1.20321 -0.65174,-1.85495 -0.62667,-0.66427 -1.77975,-0.66427 z"
         style="font-style:normal;font-variant:normal;font-weight:bold;font-stretch:normal;font-size:25.66852951px;line-height:107.00000525%;font-family:roboto;-inkscape-font-specification:'roboto Bold';text-align:start;letter-spacing:0px;text-anchor:start;fill:#ffffff;fill-opacity:1"
         id="path4406" />
      <path
         d="m 388.37884,514.23514 q 0,-0.66428 -0.66427,-1.04028 -0.65174,-0.38854 -2.10562,-0.68934 -4.83792,-1.01521 -4.83792,-4.11098 0,-1.80481 1.49148,-3.00803 1.50402,-1.21574 3.92298,-1.21574 2.58189,0 4.12351,1.21574 1.55415,1.21575 1.55415,3.15844 l -3.62217,0 q 0,-0.77708 -0.50134,-1.27842 -0.50134,-0.51387 -1.56669,-0.51387 -0.91494,0 -1.41628,0.4136 -0.50134,0.41361 -0.50134,1.05282 0,0.6016 0.56401,0.97761 0.57654,0.36347 1.93015,0.6392 1.35362,0.26321 2.28109,0.60161 2.87017,1.05281 2.87017,3.64724 0,1.85495 -1.59175,3.00803 -1.59175,1.14054 -4.11098,1.14054 -1.70455,0 -3.0331,-0.6016 -1.31601,-0.61414 -2.06802,-1.66695 -0.75201,-1.06535 -0.75201,-2.29363 l 3.43417,0 q 0.0501,0.96508 0.71441,1.47895 0.66427,0.51387 1.77975,0.51387 1.04028,0 1.56668,-0.38854 0.53894,-0.40107 0.53894,-1.04027 z"
         style="font-style:normal;font-variant:normal;font-weight:bold;font-stretch:normal;font-size:25.66852951px;line-height:107.00000525%;font-family:roboto;-inkscape-font-specification:'roboto Bold';text-align:start;letter-spacing:0px;text-anchor:start;fill:#ffffff;fill-opacity:1"
         id="path4408" />
      <path
         d="m 401.56405,514.23514 q 0,-0.66428 -0.66428,-1.04028 -0.65174,-0.38854 -2.10562,-0.68934 -4.83791,-1.01521 -4.83791,-4.11098 0,-1.80481 1.49148,-3.00803 1.50401,-1.21574 3.92297,-1.21574 2.58189,0 4.12351,1.21574 1.55415,1.21575 1.55415,3.15844 l -3.62217,0 q 0,-0.77708 -0.50134,-1.27842 -0.50134,-0.51387 -1.56668,-0.51387 -0.91494,0 -1.41628,0.4136 -0.50134,0.41361 -0.50134,1.05282 0,0.6016 0.564,0.97761 0.57654,0.36347 1.93016,0.6392 1.35361,0.26321 2.28109,0.60161 2.87016,1.05281 2.87016,3.64724 0,1.85495 -1.59175,3.00803 -1.59175,1.14054 -4.11098,1.14054 -1.70455,0 -3.03309,-0.6016 -1.31602,-0.61414 -2.06802,-1.66695 -0.75201,-1.06535 -0.75201,-2.29363 l 3.43417,0 q 0.0501,0.96508 0.7144,1.47895 0.66428,0.51387 1.77976,0.51387 1.04027,0 1.56668,-0.38854 0.53894,-0.40107 0.53894,-1.04027 z"
         style="font-style:normal;font-variant:normal;font-weight:bold;font-stretch:normal;font-size:25.66852951px;line-height:107.00000525%;font-family:roboto;-inkscape-font-specification:'roboto Bold';text-align:start;letter-spacing:0px;text-anchor:start;fill:#ffffff;fill-opacity:1"
         id="path4410" />
    </g>
  </g>
</svg>
